<svg xmlns="http://www.w3.org/2000/svg" xmlns:xlink="http://www.w3.org/1999/xlink" width="1088.1999999999998" height="20"><path fill="black" d="M6.96 17.34L13.30 8.20L13.30 8.20L19 17.26Q20.40 19.60 22.80 19.60L22.80 19.60L25.64 19.60L17.52 6.50L14.32 6.50L18.38 0.74L14.08 0.74Q13.50 0.74 13.12 1.24L13.12 1.24L0.38 19.60L2.58 19.60Q5.20 19.60 6.96 17.34L6.96 17.34ZM31.46 1.38L31.46 1.38L31.46 1.38L31.40 1.66L28.42 1.66L26.42 17.14Q26.34 17.64 26.46 18.08L26.46 18.08Q26.56 18.54 26.84 18.88L26.84 18.88Q27.08 19.20 27.46 19.40L27.46 19.40Q27.84 19.60 28.28 19.60L28.28 19.60L35.06 19.60Q35.50 19.60 35.94 19.40L35.94 19.40Q36.36 19.20 36.72 18.88L36.72 18.88Q37.08 18.54 37.30 18.08L37.30 18.08Q37.54 17.62 37.60 17.14L37.60 17.14L39.60 1.66L36.16 1.66L36.30 0.74L32.12 0.74Q31.88 0.74 31.68 0.92L31.68 0.92Q31.50 1.10 31.46 1.38ZM34.76 10.74L33.88 17.56L33.88 17.56Q33.84 17.74 33.68 17.90L33.68 17.90Q33.54 18.04 33.34 18.04L33.34 18.04L30.18 18.04Q30 18.04 29.90 17.90L29.90 17.90Q29.76 17.74 29.78 17.56L29.78 17.56L30.68 10.74L34.76 10.74ZM35.76 3.14L34.96 9.16L34.96 9.16L30.88 9.16L31.70 3.14L35.76 3.14ZM51.08 1.58L51.08 1.58L51.08 1.58L44.52 1.58L44.84 0.74L41.74 0.74Q41.22 0.74 40.92 1.34L40.92 1.34L39.56 5.08L41.38 5.08Q43.02 5.08 43.92 3.34L43.92 3.34L47.46 3.34L45.64 17.30Q45.60 17.58 45.36 17.80L45.36 17.80Q45.14 18.02 44.86 18.02L44.86 18.02L42.64 18.02Q42.24 18.02 41.92 18.30L41.92 18.30Q41.62 18.60 41.56 19.04L41.56 19.04L41.48 19.60L47.24 19.60Q48.12 19.60 48.82 19.06L48.82 19.06Q49.54 18.52 49.68 17.44L49.68 17.44L51.64 2.26Q51.66 1.98 51.50 1.78L51.50 1.78Q51.36 1.58 51.08 1.58ZM41.42 11.14L44.86 12.98L44.86 12.98L45.64 10.54L41.12 7.98L40.68 8.76Q40.36 9.44 40.57 10.11Q40.78 10.78 41.42 11.14L41.42 11.14ZM59.96 2.60L58.58 2.60L58.58 2.60L58.80 0.96L63.82 0.96L63.04 6.78Q63 7.04 62.83 7.37Q62.66 7.70 62.38 7.96L62.38 7.96Q61.78 8.44 61.12 8.44L61.12 8.44L55.60 8.44Q54.92 8.44 54.52 7.96L54.52 7.96Q54.12 7.46 54.22 6.78L54.22 6.78L55 0.96L58.46 0.96L58.24 2.52L58.24 2.60L58.20 2.92L58.18 2.98L57.70 6.62Q57.68 6.76 57.74 6.88L57.74 6.88Q57.80 6.98 57.96 6.98L57.96 6.98L59.12 6.98Q59.18 6.98 59.23 6.96Q59.28 6.94 59.34 6.88L59.34 6.88Q59.38 6.82 59.40 6.77Q59.42 6.72 59.42 6.64L59.42 6.64Q59.42 6.64 59.42 6.62L59.42 6.62L59.96 2.60ZM76.50 8.08L76.50 8.08L76.50 8.08L76.86 8.08L76.64 9.72L74.26 9.72Q73.86 9.72 73.25 9.67Q72.64 9.62 72.28 9.52L72.28 9.52Q71.68 9.32 71.10 9.02L71.10 9.02L70.14 8.44L69.20 9.00Q68.54 9.34 67.88 9.54L67.88 9.54Q67.22 9.72 66.40 9.72L66.40 9.72L63.50 9.72L63.72 8.08L64.10 8.08Q65.12 8.08 65.91 7.77Q66.70 7.46 67.15 7.15Q67.60 6.84 67.60 6.84L67.60 6.84L65.54 4.98L63.90 4.98L65.76 0.78L69.60 0.78L69.44 1.16L77.60 1.16L77.26 3.82L73.32 6.88Q73.32 6.88 73.83 7.18Q74.34 7.48 75.08 7.78Q75.82 8.08 76.50 8.08ZM68.48 3.20L70.66 5.30L70.66 5.30L73.64 2.80L68.68 2.80L68.48 3.20ZM57.98 9.00L61.20 9.00L61.20 9.00L60.96 10.82L62.18 10.82L62 12.06Q61.98 12.24 61.85 12.35Q61.72 12.46 61.56 12.46L61.56 12.46L60.74 12.46L60.06 17.58L61.28 17.52L61.12 18.66Q61.10 18.84 60.96 18.97Q60.82 19.10 60.64 19.12L60.64 19.12L52.34 19.58L52.52 18.36Q52.54 18.20 52.65 18.10Q52.76 18 52.90 17.98L52.90 17.98L52.90 17.98L53.94 10.28Q53.96 10.12 54.08 10.01Q54.20 9.90 54.36 9.90L54.36 9.90L56.74 9.90L55.70 17.84L56.40 17.78L57.52 9.42Q57.54 9.24 57.68 9.12Q57.82 9.00 57.98 9.00L57.98 9.00ZM67.76 11.54L67.96 10.08L67.96 10.08L76.42 10.08L75.48 17.14Q75.38 17.64 75.12 18.08L75.12 18.08Q74.86 18.52 74.50 18.84L74.50 18.84Q74.14 19.16 73.70 19.36L73.70 19.36Q73.26 19.54 72.80 19.54L72.80 19.54L64.54 19.54Q63.56 19.54 62.98 18.86L62.98 18.86Q62.40 18.14 62.52 17.14L62.52 17.14L63.46 10.08L67.44 10.08L67.24 11.54L67.18 11.90L67.18 11.90L66.50 17.08Q66.46 17.34 66.62 17.54L66.62 17.54Q66.80 17.72 67.02 17.72L67.02 17.72L70.90 17.72Q71.16 17.72 71.32 17.54L71.32 17.54Q71.50 17.34 71.50 17.08L71.50 17.08L72.24 11.54L67.76 11.54ZM78.38 19.60L78.38 19.60L78.38 19.60L81.22 19.60Q81.80 18.94 82.41 17.92Q83.02 16.90 83.50 15.82L83.50 15.82Q83.82 15.00 83.37 14.31Q82.92 13.62 82.08 13.62L82.08 13.62L82.08 13.62Q81.04 13.62 80.58 14.76L80.58 14.76Q80.20 16.02 79.59 17.35Q78.98 18.68 78.38 19.60ZM115.62 14.84L115.62 14.84L115.62 14.84Q115.66 14.76 115.68 14.66L115.68 14.66L115.98 13.04L115.68 14.66Q115.66 14.76 115.62 14.84ZM105.40 14.70L105.40 14.70L105.40 14.70Q105.40 14.82 105.48 14.91Q105.56 15.00 105.72 15.04L105.72 15.04L110.56 16.02L105.72 15.04Q105.56 15.00 105.48 14.91Q105.40 14.82 105.40 14.70ZM105.40 14.58L105.66 13.04L105.66 13.04L105.40 14.58Q105.40 14.60 105.40 14.64L105.40 14.64Q105.40 14.60 105.40 14.58L105.40 14.58ZM116.26 10.78L121.14 10.78L121.14 10.78L121 11.52L121.94 11.52L121.82 12.40Q121.76 12.68 121.58 12.86Q121.40 13.04 121.16 13.04L121.16 13.04L120.76 13.04L120.36 15.48Q120.22 16.28 119.16 16.40L119.16 16.40L115.92 16.92L121.68 17.96L121.22 18.70Q120.62 19.58 119.68 19.46L119.68 19.46L110.22 17.92L98.58 19.62L98.62 19.38Q98.92 17.98 100.42 17.66L100.42 17.66L105.04 16.92L101.14 16.20Q100.10 16.10 100.24 15.30L100.24 15.30L100.60 13.04L99.66 13.04L99.80 12.02Q99.84 11.80 99.99 11.66Q100.14 11.52 100.32 11.52L100.32 11.52L100.84 11.52L100.98 10.78L106 10.78L105.86 11.52L116.12 11.52L116.26 10.78ZM115.68 14.66L115.68 14.66L115.68 14.66L115.98 13.04L105.66 13.04L105.40 14.58Q105.40 14.60 105.40 14.64L105.40 14.64Q105.40 14.68 105.40 14.70L105.40 14.70Q105.40 14.82 105.48 14.91Q105.56 15.00 105.72 15.04L105.72 15.04L110.56 16.02L115.12 15.12Q115.48 15.08 115.62 14.84L115.62 14.84Q115.66 14.76 115.68 14.66ZM105.40 14.70L105.40 14.70L105.40 14.70Q105.40 14.68 105.40 14.64L105.40 14.64Q105.40 14.68 105.40 14.70ZM123.42 0.84L123.22 2.52L123.22 2.52L117.04 2.52L116.84 3.46L122.80 3.46L122.20 8.08Q122.12 8.96 121.58 9.58L121.58 9.58Q121.04 10.22 120.40 10.22L120.40 10.22L101.76 10.22Q101.10 10.22 100.70 9.56L100.70 9.56Q100.30 8.92 100.40 8.06L100.40 8.06L100.98 3.46L104.92 3.46L104.20 8.04Q104.20 8.08 104.20 8.13Q104.20 8.18 104.20 8.22L104.20 8.22Q104.20 8.38 104.30 8.54L104.30 8.54Q104.42 8.70 104.60 8.70L104.60 8.70L106.22 8.70L106.80 5.10L105.72 5.10L105.92 3.46L106.94 3.46L107.08 2.52L100.76 2.52L100.88 1.66Q101.10 0.84 101.78 0.84L101.78 0.84L123.42 0.84ZM110.02 8.70L112.34 8.70L112.34 8.70L112.92 5.10L110.60 5.10L110.02 8.70ZM110.90 3.46L113.22 3.46L113.22 3.46L113.32 2.52L111 2.52L110.90 3.46ZM118.30 8.20L118.80 5.10L118.80 5.10L116.70 5.10L116.14 8.70L117.78 8.70Q117.86 8.70 117.96 8.68Q118.06 8.66 118.14 8.56L118.14 8.56Q118.22 8.48 118.25 8.40Q118.28 8.32 118.30 8.20L118.30 8.20ZM138.18 17.38L138.18 17.38L138.18 17.38L138.78 12.94L147.04 12.94Q147.44 12.94 147.75 12.66Q148.06 12.38 148.14 11.96L148.14 11.96L148.28 10.88L139.06 10.88L139.28 9.26L148.22 9.26Q148.46 9.26 148.64 9.09Q148.82 8.92 148.86 8.68L148.86 8.68L149.04 7.36L146.22 7.36L147.16 4.24L144.28 4.24Q143.84 4.24 143.46 4.54Q143.08 4.84 142.90 5.30L142.90 5.30L142.30 7.36L132.52 7.36L132.50 5.50Q132.46 4.94 132.10 4.59Q131.74 4.24 131.20 4.24L131.20 4.24L128.54 4.24L128.64 7.36L126.16 7.36Q126.02 7.36 125.90 7.46Q125.78 7.56 125.76 7.72L125.76 7.72L125.56 9.26L134.92 9.26L134.70 10.88L126.40 10.88Q126.08 10.88 125.82 11.12Q125.56 11.36 125.50 11.70L125.50 11.70L125.34 12.94L134.42 12.94L133.82 17.38Q133.74 17.96 133.18 17.96L133.18 17.96L131.84 17.96Q131.50 17.96 131.23 18.20Q130.96 18.44 130.90 18.82L130.90 18.82L130.80 19.56L135.78 19.56Q136.68 19.56 137.36 18.92L137.36 18.92Q138.06 18.28 138.18 17.38ZM136.20 1.70L127.44 1.70L127.44 1.70Q127.20 1.70 127.02 1.86Q126.84 2.02 126.80 2.26L126.80 2.26L126.62 3.60L148.70 3.60Q148.92 3.60 149.10 3.43Q149.28 3.26 149.32 3.02L149.32 3.02L149.50 1.70L140.18 1.70L140.22 1.38Q140.24 1.12 140.10 0.94Q139.96 0.76 139.70 0.76L139.70 0.76L136.32 0.76L136.20 1.70ZM126.76 14.36L124.50 19.54L124.50 19.54L124.86 19.54Q127.90 19.54 129.76 16.16L129.76 16.16L130.74 13.94L127.40 13.94Q127 13.94 126.76 14.36L126.76 14.36ZM142.34 13.96L143.04 18.14L143.04 18.14Q143.44 19.54 144.68 19.54L144.68 19.54L147.06 19.54L146.26 14.74Q146.04 13.96 145.34 13.96L145.34 13.96L142.34 13.96ZM164.44 1.44L164.38 1.86L164.38 1.86L175.66 1.86L173.50 17.32Q173.36 18.26 172.62 18.92L172.62 18.92Q171.88 19.58 170.96 19.58L170.96 19.58L152.30 19.58Q151.38 19.58 150.84 18.92L150.84 18.92Q150.32 18.26 150.44 17.32L150.44 17.32L152.58 1.86L156.70 1.86L156.06 6.40L170.90 6.40L171.26 3.82L157.32 3.82L157.60 1.86L160.46 1.86L160.60 0.76L163.88 0.76Q164.16 0.76 164.32 0.96Q164.48 1.16 164.44 1.44L164.44 1.44ZM169.50 16.60L169.50 16.60L169.50 16.60L169.84 14.16L154.98 14.16L154.66 16.60Q154.58 17.02 154.82 17.30L154.82 17.30Q155.04 17.60 155.44 17.60L155.44 17.60L168.36 17.60Q168.78 17.60 169.10 17.30L169.10 17.30Q169.42 17.02 169.50 16.60ZM155.32 11.80L170.16 11.80L170.16 11.80L170.58 8.72L155.74 8.72L155.32 11.80ZM195.18 18.80L195.28 19.60L195.28 19.60L199.24 19.60L198.62 13.82Q198.50 12.92 197.88 12.33Q197.26 11.74 196.42 11.74L196.42 11.74L194.44 11.74L194.92 16.28L182.22 16.82Q181.98 16.84 181.86 16.62L181.86 16.62Q181.74 16.44 181.88 16.16L181.88 16.16L184.82 10.88L199.28 10.88Q199.70 10.88 200.03 10.58Q200.36 10.28 200.42 9.84L200.42 9.84L200.70 8.32L191.16 8.32L191.72 4.46L200.24 4.46Q200.60 4.46 200.87 4.22Q201.14 3.98 201.18 3.60L201.18 3.60L201.36 2.24L192.02 2.24L192.22 0.80L189.38 0.80Q188.90 0.80 188.54 1.13Q188.18 1.46 188.10 1.98L188.10 1.98L188.06 2.24L179.52 2.24Q179.18 2.24 178.92 2.48Q178.66 2.72 178.60 3.10L178.60 3.10L178.42 4.46L187.76 4.46L187.20 8.32L178.46 8.32Q178.12 8.32 177.86 8.55Q177.60 8.78 177.56 9.16L177.56 9.16L177.24 10.88L180.66 10.88L176.80 17.66Q176.64 17.98 176.60 18.32L176.60 18.32Q176.56 18.68 176.68 18.96L176.68 18.96Q176.80 19.24 177.02 19.40L177.02 19.40Q177.26 19.58 177.64 19.58L177.64 19.58L195.18 18.80ZM207.20 16.46L208.92 10.64L208.92 10.64L205.38 10.64L202.40 19.42L205.24 19.42Q205.74 19.42 206.13 19.11Q206.52 18.80 206.66 18.30L206.66 18.30L206.66 18.30L225.06 19.60Q225.86 19.62 226.58 19.10Q227.30 18.58 227.66 17.84L227.66 17.84L227.66 17.84L217.52 17.08L217.78 13.98L222.96 13.98Q224.22 13.98 224.84 12.68L224.84 12.68L225.04 12.10L217.90 12.10L218.14 9.46L214.12 9.46Q213.86 9.46 213.68 9.63Q213.50 9.80 213.46 10.06L213.46 10.06L212.74 16.82L207.20 16.46ZM213.66 6.86L205.90 6.86L205.90 6.86Q205.24 6.86 204.74 7.51Q204.24 8.16 204.12 8.88L204.12 8.88L203.82 8.88L225.08 8.88Q225.98 8.88 226.53 8.23Q227.08 7.58 227.18 6.86L227.18 6.86L227.18 6.86L218.28 6.86L218.62 3.64L225.60 3.64Q226.26 3.64 226.76 2.99Q227.26 2.34 227.38 1.62L227.38 1.62L227.38 1.62L218.82 1.62L218.96 0.74L215.08 0.74Q214.68 0.74 214.40 0.99Q214.12 1.24 214.06 1.62L214.06 1.62L214.06 1.62L207.16 1.62Q206.48 1.62 205.98 2.28Q205.48 2.94 205.38 3.64L205.38 3.64L205.38 3.64L214 3.64L213.66 6.86ZM228.40 19.60L228.40 19.60L228.40 19.60L231.24 19.60Q231.82 18.94 232.43 17.92Q233.04 16.90 233.52 15.82L233.52 15.82Q233.84 15.00 233.39 14.31Q232.94 13.62 232.10 13.62L232.10 13.62L232.10 13.62Q231.06 13.62 230.60 14.76L230.60 14.76Q230.22 16.02 229.61 17.35Q229 18.68 228.40 19.60ZM249.36 5.60L249.24 6.38L249.24 6.38L250.68 6.38L248.64 19.58L251.26 19.58Q251.36 19.58 251.44 19.60L251.44 19.60Q251.88 19.60 252.24 19.54L252.24 19.54Q252.62 19.46 252.86 19.12L252.86 19.12L252.94 19L270.82 19.56Q271.52 19.56 272.04 19.14L272.04 19.14Q272.56 18.72 272.66 18.04L272.66 18.04L254.56 17.48Q254.36 17.48 254.14 17.38L254.14 17.38Q253.90 17.28 253.74 17.14L253.74 17.14Q253.56 16.98 253.46 16.78L253.46 16.78Q253.36 16.56 253.40 16.32L253.40 16.32L255.04 4.88L250.22 4.88Q249.90 4.88 249.64 5.08L249.64 5.08Q249.42 5.28 249.36 5.60L249.36 5.60ZM254.22 4.46L255.10 2.30L255.10 2.30L251.06 0.78Q250.70 1.72 251.10 2.58L251.10 2.58Q251.50 3.44 252.48 3.82L252.48 3.82L254.22 4.46ZM260.94 5.00L256.40 5.00L256.40 5.00L261.08 10.96L255.34 16.86L258.40 16.86Q260.16 16.84 261.34 15.62L261.34 15.62L263.42 13.38L265.96 15.98Q266.74 16.82 267.82 16.82L267.82 16.82L271.88 16.82L265.86 10.80L271.74 3.76L267.52 3.76L263.54 8.44L260.94 5.00ZM266.64 0.90L263.10 0.90L263.10 0.90L262.86 2.26L257.24 2.26Q256.92 2.26 256.68 2.46L256.68 2.46Q256.48 2.64 256.44 2.92L256.44 2.92L256.26 4.04L272.12 4.04Q272.84 4.04 273.16 3.30L273.16 3.30L273.38 2.26L267.08 2.26L267.20 1.52Q267.22 1.26 267.06 1.08L267.06 1.08Q266.88 0.90 266.64 0.90L266.64 0.90ZM296.60 8.48L278.40 8.48L278.40 8.48Q277.50 8.48 276.98 7.88L276.98 7.88Q276.46 7.28 276.56 6.40L276.56 6.40L277.30 0.74L281.28 0.74L281.08 2.24L281.02 2.54L280.98 2.92L280.86 3.94L295.30 3.94L295.52 2.24L281.86 2.24L282.06 0.74L299.68 0.74L298.94 6.40Q298.82 7.28 298.16 7.88L298.16 7.88Q297.48 8.48 296.60 8.48L296.60 8.48ZM280.68 5.28L280.52 6.40L280.52 6.40Q280.50 6.66 280.66 6.82L280.66 6.82Q280.82 6.96 281.08 6.96L281.08 6.96L294.32 6.96Q294.60 6.96 294.76 6.82L294.76 6.82Q294.94 6.66 294.96 6.40L294.96 6.40L295.12 5.28L280.68 5.28ZM276.04 9.56L276.04 9.56L276.04 9.56Q276.28 9.32 276.62 9.32L276.62 9.32L299.02 9.32L298.92 10.06Q298.88 10.40 298.64 10.62L298.64 10.62Q298.40 10.86 298.08 10.86L298.08 10.86L289.78 10.86L289.46 13.16L298.20 13.16Q298.10 13.84 297.64 14.26L297.64 14.26Q297.18 14.68 296.56 14.68L296.56 14.68L289.26 14.68L288.96 17L298.52 17.92L298.06 18.60Q297.24 19.54 296.04 19.46L296.04 19.46L278.76 18Q278.16 19.60 276.72 19.60L276.72 19.60L274.42 19.60L276.46 11.70L280.38 11.70L279.20 16.16L285.04 16.68L285.80 10.86L275.66 10.86L275.76 10.12Q275.80 9.78 276.04 9.56ZM310.36 10.50L309.18 19.06L309.18 19.06Q309.14 19.28 309.27 19.44Q309.40 19.60 309.62 19.60L309.62 19.60L313.58 19.60L314.84 10.50L323.70 10.50Q324.10 10.50 324.43 10.20Q324.76 9.90 324.84 9.48L324.84 9.48L325.02 8.22L315.14 8.22L315.82 3.32L323.14 3.06Q324.10 3.02 324.81 2.36Q325.52 1.70 325.68 0.72L325.68 0.72L325.68 0.72L303.28 1.46Q302.78 1.48 302.40 1.83Q302.02 2.18 301.94 2.70L301.94 2.70L301.78 3.76L311.32 3.46L310.66 8.22L301.58 8.22Q301.26 8.22 301.01 8.45Q300.76 8.68 300.70 9.02L300.70 9.02L300.50 10.50L310.36 10.50ZM332.40 16.14L328.38 16.14L328.38 16.14L326.44 19.60L329.38 19.60Q330.44 19.60 331.08 18.58L331.08 18.58L332.40 16.14ZM343.56 0.74L343.44 1.52L343.44 1.52L351.70 1.52L351.60 2.22Q351.54 2.50 351.35 2.67Q351.16 2.84 350.88 2.84L350.88 2.84L343.18 2.84L343.04 3.62L350.28 3.62Q350.68 3.62 350.92 3.82L350.92 3.82Q351.18 4.02 351.14 4.40L351.14 4.40L349.76 14.28L350.62 14.28L350.50 15.14Q350.44 15.42 350.24 15.60Q350.04 15.78 349.76 15.78L349.76 15.78L326.60 15.78L326.72 14.92Q326.78 14.64 326.98 14.46Q327.18 14.28 327.46 14.28L327.46 14.28L328.10 14.28L329.48 4.48Q329.54 4.10 329.81 3.86Q330.08 3.62 330.46 3.62L330.46 3.62L333.96 3.62L333.54 6.56L346.58 6.56L346.78 5.12L334.46 5.12L334.66 3.62L338.10 3.62L338.20 2.84L329.66 2.84L329.76 2.14Q329.80 1.86 330 1.69Q330.20 1.52 330.46 1.52L330.46 1.52L338.40 1.52L338.42 1.34Q338.46 1.08 338.66 0.90L338.66 0.90Q338.86 0.74 339.12 0.74L339.12 0.74L343.56 0.74ZM345.70 12.90L332.66 12.90L332.66 12.90L332.46 14.28L345.50 14.28L345.70 12.90ZM345.88 11.62L346.06 10.30L346.06 10.30L333.02 10.30L332.84 11.62L345.88 11.62ZM333.20 9.00L346.24 9.00L346.24 9.00L346.42 7.72L333.38 7.72L333.20 9.00ZM347.80 16.14L344.80 16.14L344.80 16.14L345.44 19.60L349.58 19.60L349.18 17.28Q349.06 16.78 348.68 16.46L348.68 16.46Q348.30 16.14 347.80 16.14L347.80 16.14ZM377.46 0.76L377.26 2.34L377.26 2.34Q377.20 2.68 376.95 2.91Q376.70 3.14 376.40 3.14L376.40 3.14L361.16 3.14L357.84 15.36Q357.30 17.20 355.88 18.36Q354.46 19.52 352.70 19.56L352.70 19.56L357.16 3.14L354.30 3.14L354.54 1.26Q354.58 1.06 354.74 0.91Q354.90 0.76 355.08 0.76L355.08 0.76L377.46 0.76ZM352.70 19.56L352.70 19.58L352.70 19.58L352.70 19.56Q352.70 19.56 352.70 19.56L352.70 19.56ZM365.72 19.50L365.72 19.50L365.72 19.50L365.74 19.48L365.74 19.48Q365.74 19.48 365.72 19.48L365.72 19.48Q365.72 19.50 365.72 19.50ZM370.74 16.64L372 7.10L372 7.10L361.10 7.10L361.60 5.04L375.82 5.04Q376.02 5.04 376.14 5.19Q376.26 5.34 376.24 5.56L376.24 5.56L374.68 17.34Q374.54 18.26 373.86 18.88L373.86 18.88Q373.16 19.48 372.28 19.48L372.28 19.48L365.74 19.48Q365.86 18.68 366.46 18.13Q367.06 17.58 367.78 17.58L367.78 17.58L369.88 17.58Q370.28 17.58 370.48 17.32L370.48 17.32Q370.70 17.06 370.74 16.64L370.74 16.64ZM360.02 7.48L360.02 7.48L360.02 7.48L360.02 7.48L360.02 7.48ZM380.26 0.96L380.04 2.56L380.04 2.56L381.02 2.56L379.12 8.06L379.90 8.06L378.52 17.94Q378.42 18.64 378.84 19.12L378.84 19.12Q379.24 19.60 379.96 19.60L379.96 19.60L384.42 19.60Q385.14 19.60 385.72 19.12L385.72 19.12Q386.28 18.64 386.38 17.94L386.38 17.94L387.86 7.30L383.78 7.30L383.58 8.70L384.36 8.70L383.10 17.80Q383.06 17.94 382.96 18.06L382.96 18.06Q382.82 18.18 382.68 18.18L382.68 18.18L382.16 18.18Q381.98 18.18 381.90 18.06L381.90 18.06Q381.82 17.94 381.84 17.80L381.84 17.80L383.08 8.90L383.08 8.86L383.10 8.74L383.10 8.70L383.30 7.30L383.04 7.30L384.68 2.56L388.68 2.56L388.90 0.96L380.26 0.96ZM403.52 4.44L402.18 4.44L402.18 4.44L403.02 2.06Q403.08 1.82 402.95 1.63Q402.82 1.44 402.56 1.44L402.56 1.44L393.96 1.44L394.22 0.80L390.46 0.80Q390.30 0.80 390.16 0.90L390.16 0.90Q390.02 1 389.96 1.16L389.96 1.16L388.76 4.12L391.92 4.12Q392.30 4.12 392.66 3.88L392.66 3.88Q393 3.64 393.18 3.26L393.18 3.26L393.28 3.02L398.54 3.02L397.94 4.44L393.60 4.44L393.38 6.02L394.50 6.02L394.10 8.84L392.52 8.84L393.14 4.44L389.20 4.44L387.10 19.60L389.16 19.60Q389.98 19.60 390.58 19.06L390.58 19.06Q391.18 18.54 391.28 17.72L391.28 17.72L391.72 14.68L393.30 14.68L392.62 19.44L396.08 19.44L396.74 14.68L398.32 14.68L397.88 17.68Q397.86 17.82 397.76 17.92L397.76 17.92Q397.64 18.02 397.50 18.02L397.50 18.02L397.40 18.02Q397.18 18.02 397.02 18.16L397.02 18.16Q396.88 18.30 396.84 18.52L396.84 18.52L396.68 19.60L399.60 19.60Q400.40 19.60 400.98 19.06L400.98 19.06Q401.58 18.52 401.64 17.72L401.64 17.72L403.52 4.44ZM393.88 10.42L393.50 13.08L393.50 13.08L391.92 13.08L392.32 10.42L393.88 10.42ZM398.90 10.42L398.54 13.08L398.54 13.08L396.94 13.08L397.34 10.42L398.90 10.42ZM399.52 6.02L399.14 8.84L399.14 8.84L397.56 8.84L397.94 6.02L399.52 6.02ZM409.56 1.38L409.56 1.38L409.56 1.38L409.50 1.66L406.52 1.66L404.52 17.14Q404.44 17.64 404.56 18.08L404.56 18.08Q404.66 18.54 404.94 18.88L404.94 18.88Q405.18 19.20 405.56 19.40L405.56 19.40Q405.94 19.60 406.38 19.60L406.38 19.60L413.16 19.60Q413.60 19.60 414.04 19.40L414.04 19.40Q414.46 19.20 414.82 18.88L414.82 18.88Q415.18 18.54 415.40 18.08L415.40 18.08Q415.64 17.62 415.70 17.14L415.70 17.14L417.70 1.66L414.26 1.66L414.40 0.74L410.22 0.74Q409.98 0.74 409.78 0.92L409.78 0.92Q409.60 1.10 409.56 1.38ZM412.86 10.74L411.98 17.56L411.98 17.56Q411.94 17.74 411.78 17.90L411.78 17.90Q411.64 18.04 411.44 18.04L411.44 18.04L408.28 18.04Q408.10 18.04 408.00 17.90L408.00 17.90Q407.86 17.74 407.88 17.56L407.88 17.56L408.78 10.74L412.86 10.74ZM413.86 3.14L413.06 9.16L413.06 9.16L408.98 9.16L409.80 3.14L413.86 3.14ZM429.18 1.58L429.18 1.58L429.18 1.58L422.62 1.58L422.94 0.74L419.84 0.74Q419.32 0.74 419.02 1.34L419.02 1.34L417.66 5.08L419.48 5.08Q421.12 5.08 422.02 3.34L422.02 3.34L425.56 3.34L423.74 17.30Q423.70 17.58 423.46 17.80L423.46 17.80Q423.24 18.02 422.96 18.02L422.96 18.02L420.74 18.02Q420.34 18.02 420.02 18.30L420.02 18.30Q419.72 18.60 419.66 19.04L419.66 19.04L419.58 19.60L425.34 19.60Q426.22 19.60 426.92 19.06L426.92 19.06Q427.64 18.52 427.78 17.44L427.78 17.44L429.74 2.26Q429.76 1.98 429.60 1.78L429.60 1.78Q429.46 1.58 429.18 1.58ZM419.52 11.14L422.96 12.98L422.96 12.98L423.74 10.54L419.22 7.98L418.78 8.76Q418.46 9.44 418.67 10.11Q418.88 10.78 419.52 11.14L419.52 11.14ZM436.00 15.98L436.00 15.98L436.00 15.98Q436.14 16.46 436.06 17L436.06 17Q436.00 17.54 435.72 18.02L435.72 18.02Q435.46 18.48 435.04 18.84L435.04 18.84Q434.64 19.20 434.14 19.40L434.14 19.40Q433.64 19.60 433.10 19.60L433.10 19.60Q432.56 19.60 432.10 19.40L432.10 19.40Q431.66 19.20 431.36 18.84L431.36 18.84Q431.06 18.48 430.92 18.02L430.92 18.02Q430.78 17.54 430.84 17L430.84 17Q430.92 16.46 431.20 15.98L431.20 15.98Q431.48 15.50 431.88 15.16L431.88 15.16Q432.28 14.80 432.78 14.60L432.78 14.60Q433.30 14.38 433.84 14.38L433.84 14.38Q434.38 14.38 434.82 14.60L434.82 14.60Q435.26 14.80 435.56 15.16L435.56 15.16Q435.88 15.50 436.00 15.98ZM434.16 17.80L434.16 17.80L434.16 17.80Q434.54 17.46 434.60 17L434.60 17Q434.68 16.52 434.38 16.20L434.38 16.20Q434.08 15.86 433.62 15.86L433.62 15.86Q433.14 15.86 432.78 16.20L432.78 16.20Q432.40 16.52 432.32 17L432.32 17Q432.26 17.46 432.54 17.80L432.54 17.80Q432.82 18.14 433.30 18.14L433.30 18.14Q433.76 18.14 434.16 17.80ZM461.42 19.60L458.20 19.60L458.20 19.60L460.56 1.74Q460.62 1.30 460.92 1.02Q461.22 0.74 461.64 0.74L461.64 0.74L463.90 0.72L461.42 19.60ZM450.90 19.60L450.50 19.60L450.50 19.60L453.06 1.70Q453.14 1.30 453.41 1.04Q453.68 0.78 454.08 0.76L454.08 0.76L456.24 0.74L453.94 16.82Q453.74 18.04 452.89 18.82Q452.04 19.60 450.90 19.60L450.90 19.60ZM457.36 19.12L454.60 19.12L454.60 19.12L456.82 2.34Q456.90 1.82 457.26 1.49Q457.62 1.16 458.10 1.16L458.10 1.16L459.72 1.16L457.36 19.12ZM470.18 14.58L469.34 15.84L469.34 15.84L471.66 15.84L472.86 19.44L470.42 19.44Q469.44 19.44 468.94 18.34L468.94 18.34L468.52 17.10L467.82 18.06Q466.78 19.44 465.26 19.44L465.26 19.44L462.48 19.44L466.62 13.74L467.70 5.56L471.36 5.56L470.18 14.58ZM465.90 3.28L466.92 3.28L466.92 3.28L466.66 5.36L466.60 5.72L466.60 5.76L465.26 16L462.66 16L464.10 4.94Q464.22 4.14 464.72 3.70L464.72 3.70Q465.22 3.28 465.90 3.28L465.90 3.28ZM475.66 0.78L475.54 1.74L475.54 1.74Q475.48 2.06 475.27 2.26Q475.06 2.46 474.76 2.46L474.76 2.46L472.08 2.46L471.98 3.28L473.78 3.28Q474.44 3.28 474.82 3.70L474.82 3.70Q475.22 4.14 475.12 4.94L475.12 4.94L473.66 16L471.22 16L472.62 5.36Q472.62 5.26 472.59 5.19Q472.56 5.12 472.50 5.04L472.50 5.04Q472.46 4.96 472.37 4.93Q472.28 4.90 472.20 4.90L472.20 4.90L467.32 4.90L467.54 3.28L467.70 3.28L467.80 2.46L464.44 2.46L464.56 1.56Q464.60 1.24 464.83 1.03Q465.06 0.82 465.36 0.80L465.36 0.80L475.66 0.78ZM479.60 13.06L477.76 13.06L477.76 13.06Q477.50 13.06 477.30 13.24Q477.10 13.42 477.06 13.68L477.06 13.68L476.88 14.96L499.68 14.96Q499.92 14.96 500.12 14.78Q500.32 14.60 500.36 14.32L500.36 14.32L500.54 13.06L498.08 13.06L499.40 3.36L500.98 3.36Q501.18 3.36 501.35 3.21Q501.52 3.06 501.54 2.82L501.54 2.82L501.72 1.60L499.64 1.60L499.76 0.74L496.22 0.74Q496.02 0.74 495.87 0.88Q495.72 1.02 495.68 1.24L495.68 1.24L495.62 1.60L485.16 1.60L485.28 0.74L481.76 0.74Q481.56 0.74 481.40 0.89Q481.24 1.04 481.20 1.26L481.20 1.26L481.14 1.60L479.72 1.60Q479.44 1.60 479.24 1.79Q479.04 1.98 478.98 2.26L478.98 2.26L478.84 3.36L480.92 3.36L479.60 13.06ZM478.94 16.14L476.60 19.58L476.60 19.58L479.02 19.58Q480.56 19.58 481.68 18.08L481.68 18.08L483.30 15.72L479.68 15.72Q479.24 15.72 478.94 16.14L478.94 16.14ZM495.14 5.26L484.66 5.26L484.66 5.26L484.92 3.36L495.40 3.36L495.14 5.26ZM494.60 9.16L484.14 9.16L484.14 9.16L484.44 6.86L494.92 6.86L494.60 9.16ZM494.08 13.06L483.60 13.06L483.60 13.06L483.90 10.90L494.36 10.90L494.08 13.06ZM493.72 15.72L495.02 19L495.02 19Q495.30 19.58 495.90 19.58L495.90 19.58L499.32 19.58L498.32 17.06Q497.68 15.72 496.32 15.72L496.32 15.72L493.72 15.72ZM516.54 1.44L516.48 1.86L516.48 1.86L527.76 1.86L525.60 17.32Q525.46 18.26 524.72 18.92L524.72 18.92Q523.98 19.58 523.06 19.58L523.06 19.58L504.40 19.58Q503.48 19.58 502.94 18.92L502.94 18.92Q502.42 18.26 502.54 17.32L502.54 17.32L504.68 1.86L508.80 1.86L508.16 6.40L523 6.40L523.36 3.82L509.42 3.82L509.70 1.86L512.56 1.86L512.70 0.76L515.98 0.76Q516.26 0.76 516.42 0.96Q516.58 1.16 516.54 1.44L516.54 1.44ZM521.60 16.60L521.60 16.60L521.60 16.60L521.94 14.16L507.08 14.16L506.76 16.60Q506.68 17.02 506.92 17.30L506.92 17.30Q507.14 17.60 507.54 17.60L507.54 17.60L520.46 17.60Q520.88 17.60 521.20 17.30L521.20 17.30Q521.52 17.02 521.60 16.60ZM507.42 11.80L522.26 11.80L522.26 11.80L522.68 8.72L507.84 8.72L507.42 11.80ZM533.28 17.90L534.38 14.60L534.38 14.60L530.30 14.60L528.62 19.60L530.72 19.60Q531.58 19.60 532.30 19.12Q533.02 18.64 533.28 17.90L533.28 17.90ZM532.36 0.80L530.78 3.84L530.78 3.84L533.82 3.84Q534.52 3.84 535.00 3.06L535.00 3.06L535.00 3.06L537.76 3.06L535.16 11.16Q535.04 11.48 534.78 11.66L534.78 11.66Q534.52 11.84 534.20 11.84L534.20 11.84L531.20 11.84Q530.60 11.84 530.13 12.30Q529.66 12.76 529.56 13.42L529.56 13.42L529.56 13.48L536.44 13.48Q537.20 13.48 537.88 13.02L537.88 13.02Q538.56 12.54 538.84 11.74L538.84 11.74L541.80 2.60L541.96 1.42L535.84 1.42L536.16 0.80L532.36 0.80ZM535.32 5.20L530.78 4.90L530.78 4.90L530.78 4.90Q530.72 5.58 531.06 6.04Q531.40 6.50 532.00 6.56L532.00 6.56L535.12 6.78L535.32 5.20ZM534.92 8.32L530.40 8.02L530.40 8.02L530.40 8.02Q530.32 8.68 530.65 9.14Q530.98 9.60 531.58 9.64L531.58 9.64L534.72 9.86L534.92 8.32ZM540.30 19.60L540.20 15.88L540.20 15.88Q540.16 15.32 539.73 14.96Q539.30 14.60 538.64 14.60L538.64 14.60L536.06 14.60L536.22 19.60L540.30 19.60ZM547.46 5.14L548.12 12.52L548.12 12.52Q548.30 13.48 549.10 13.48L549.10 13.48L552.06 13.48L550.98 3.98L552.76 3.98Q552.96 3.98 553.11 3.84Q553.26 3.70 553.30 3.48L553.30 3.48L553.62 2.02L552.94 2.02L552.94 1.66Q552.94 1.40 552.78 1.23Q552.62 1.06 552.38 1.06L552.38 1.06L550.16 1.06L550.16 2.02L548.84 2.02L549.38 0.80L545.44 0.80L544.86 2.02L542.92 2.02Q542.70 2.02 542.55 2.17Q542.40 2.32 542.36 2.54L542.36 2.54L542.06 3.98L543.96 3.98L539.84 13.48L540.34 13.48Q543.54 13.48 545.48 9.76L545.48 9.76L547.46 5.14ZM546.44 19.60L546.32 15.90L546.32 15.90Q546.28 15.32 545.84 14.96Q545.40 14.60 544.74 14.60L544.74 14.60L542.20 14.60L542.34 19.60L546.44 19.60ZM552.46 19.60L552.32 15.68L552.32 15.68Q552.30 15.20 551.93 14.90Q551.56 14.60 551.00 14.60L551.00 14.60L548.22 14.60L548.34 19.60L552.46 19.60ZM558.30 3.74L557.42 3.74L557.42 3.74Q557.14 3.74 556.93 3.93Q556.72 4.12 556.68 4.42L556.68 4.42L556.52 5.82L558.04 5.82L556.50 17.22L555.28 17.34Q555.14 17.36 555.03 17.46Q554.92 17.56 554.90 17.72L554.90 17.72L554.66 19.56L561.42 18.96Q561.58 18.94 561.70 18.83Q561.82 18.72 561.84 18.54L561.84 18.54L562.08 16.70L560.50 16.86L562.00 5.82L563.46 5.82L563.72 3.74L562.26 3.74L562.64 0.80L559.62 0.80Q559.22 0.80 558.93 1.07Q558.64 1.34 558.56 1.76L558.56 1.76L558.30 3.74ZM565.32 3.66L564.34 3.78L564.34 3.78L564.06 5.96L565.02 5.84L563.52 17.14Q563.38 18.16 563.94 18.88L563.94 18.88Q564.50 19.58 565.48 19.58L565.48 19.58L577.64 19.58L577.82 18.28Q577.86 17.86 577.62 17.57Q577.38 17.28 577.00 17.28L577.00 17.28L568.28 17.28Q567.90 17.28 567.68 17L567.68 17Q567.44 16.72 567.50 16.30L567.50 16.30L568.98 5.30L570.42 5.10L568.92 16.26L571.66 16.26Q572.14 16.26 572.50 15.93Q572.86 15.60 572.94 15.08L572.94 15.08L574.36 4.56L575.32 4.42Q575.46 4.40 575.56 4.44L575.56 4.44Q575.66 4.48 575.64 4.64L575.64 4.64L574.08 16.26L576.28 16.26Q576.94 16.26 577.44 15.81Q577.94 15.36 578.04 14.64L578.04 14.64L579.54 3.52Q579.58 3.16 579.46 2.84L579.46 2.84Q579.32 2.54 579.06 2.32L579.06 2.32Q578.82 2.10 578.50 2.00L578.50 2.00Q578.16 1.90 577.84 1.96L577.84 1.96L574.64 2.40L574.84 0.88L571.68 0.88Q571.38 0.88 571.16 1.09Q570.94 1.30 570.88 1.62L570.88 1.62L570.72 2.94L569.26 3.12L569.54 1L566.38 1Q566.06 1 565.84 1.21Q565.62 1.42 565.56 1.74L565.56 1.74L565.32 3.66ZM582.84 6.38L580.88 19.58L580.88 19.58L583.42 19.58Q583.50 19.58 583.58 19.58L583.58 19.58Q584.00 19.60 584.36 19.52Q584.72 19.44 584.94 19.10L584.94 19.10L585.00 18.98L602.26 19.54Q602.92 19.54 603.42 19.12Q603.92 18.70 604.02 17.60L604.02 17.60L604.02 17.60L586.60 17.02Q586.40 17.02 586.18 16.92L586.18 16.92Q585.98 16.82 585.80 16.68L585.80 16.68Q585.62 16.52 585.54 16.32L585.54 16.32Q585.44 16.10 585.46 15.88L585.46 15.88L587.06 4.90L582.42 4.90Q582.08 4.90 581.85 5.10Q581.62 5.30 581.58 5.60L581.58 5.60L581.46 6.38L582.84 6.38ZM583.24 0.78L583.24 0.78L583.24 0.78Q582.88 1.72 583.26 2.58Q583.64 3.44 584.58 3.82L584.58 3.82L586.26 4.48L587.12 2.30L583.24 0.78ZM590.28 6.12L597.66 8.98L597.66 8.98L597.32 11.36L592.10 9.36Q590.06 8.44 590.28 6.12L590.28 6.12L590.28 6.12ZM604.70 0.74L604.50 2.18L604.50 2.18L605.78 2.18L605.60 3.60Q605.56 3.78 605.41 3.90Q605.26 4.02 605.10 4.02L605.10 4.02L604.22 4.02L602.70 14.32Q602.60 15.24 601.86 15.92L601.86 15.92Q601.12 16.60 600.20 16.60L600.20 16.60L594.04 16.60L594.10 16.20Q594.20 15.54 594.73 15.09Q595.26 14.64 595.90 14.64L595.90 14.64L597.76 14.64Q598.10 14.64 598.36 14.40L598.36 14.40Q598.62 14.18 598.68 13.88L598.68 13.88L600.16 4.02L588.86 4.02L589.00 3.08Q589.06 2.70 589.37 2.44Q589.68 2.18 590.06 2.18L590.06 2.18L600.42 2.18L600.52 1.50Q600.56 1.18 600.82 0.96Q601.08 0.74 601.40 0.74L601.40 0.74L604.70 0.74ZM613.54 3.04L613.82 0.78L613.82 0.78L631.70 0.78L629.44 17.30Q629.28 18.26 628.54 18.92L628.54 18.92Q627.76 19.56 626.84 19.56L626.84 19.56L608.38 19.56Q607.46 19.56 606.96 18.90L606.96 18.90Q606.44 18.26 606.60 17.32L606.60 17.32L608.84 0.78L612.78 0.78L612.46 3.12L612.34 4.12L611.72 8.56L626.44 8.56L627.20 3.04L613.54 3.04ZM625.38 16.44L625.38 16.44L625.38 16.44L626.16 10.76L611.44 10.76L610.66 16.44Q610.64 16.64 610.70 16.79Q610.76 16.94 610.88 17.08L610.88 17.08Q611.16 17.36 611.58 17.36L611.58 17.36L624.24 17.36Q624.64 17.36 624.98 17.10L624.98 17.10Q625.30 16.84 625.38 16.44ZM635.60 1.20L635.60 1.20L635.60 1.20L635.50 0.82L656.06 0.82L655.48 3.02L648.52 8.12L657.54 8.12L657.36 9.24Q657.28 9.74 656.91 10.06Q656.54 10.38 656.06 10.38L656.06 10.38L648.18 10.38L647.24 17.24Q647.10 18.16 646.34 18.82L646.34 18.82Q645.58 19.54 644.62 19.54L644.62 19.54L637.72 19.54L637.90 18.40Q637.98 17.90 638.35 17.58Q638.72 17.26 639.22 17.26L639.22 17.26L642.32 17.26Q642.62 17.26 642.90 17.06L642.90 17.06Q643.16 16.84 643.20 16.54L643.20 16.54L644.02 10.38L632.80 10.38L632.98 9.28Q633.06 8.80 633.42 8.46Q633.78 8.12 634.24 8.12L634.24 8.12L644.36 8.12L644.48 7.38L650.58 2.92L638.10 2.98Q636.40 2.98 635.60 1.20ZM680.72 8.48L662.52 8.48L662.52 8.48Q661.62 8.48 661.10 7.88L661.10 7.88Q660.58 7.28 660.68 6.40L660.68 6.40L661.42 0.74L665.40 0.74L665.20 2.24L665.14 2.54L665.10 2.92L664.98 3.94L679.42 3.94L679.64 2.24L665.98 2.24L666.18 0.74L683.80 0.74L683.06 6.40Q682.94 7.28 682.28 7.88L682.28 7.88Q681.60 8.48 680.72 8.48L680.72 8.48ZM664.80 5.28L664.64 6.40L664.64 6.40Q664.62 6.66 664.78 6.82L664.78 6.82Q664.94 6.96 665.20 6.96L665.20 6.96L678.44 6.96Q678.72 6.96 678.88 6.82L678.88 6.82Q679.06 6.66 679.08 6.40L679.08 6.40L679.24 5.28L664.80 5.28ZM660.16 9.56L660.16 9.56L660.16 9.56Q660.40 9.32 660.74 9.32L660.74 9.32L683.14 9.32L683.04 10.06Q683.00 10.40 682.76 10.62L682.76 10.62Q682.52 10.86 682.20 10.86L682.20 10.86L673.90 10.86L673.58 13.16L682.32 13.16Q682.22 13.84 681.76 14.26L681.76 14.26Q681.30 14.68 680.68 14.68L680.68 14.68L673.38 14.68L673.08 17L682.64 17.92L682.18 18.60Q681.36 19.54 680.16 19.46L680.16 19.46L662.88 18Q662.28 19.60 660.84 19.60L660.84 19.60L658.54 19.60L660.58 11.70L664.50 11.70L663.32 16.16L669.16 16.68L669.92 10.86L659.78 10.86L659.88 10.12Q659.92 9.78 660.16 9.56ZM690.76 16.20L686.32 16.20L686.32 16.20Q685.72 16.20 685.27 16.61Q684.82 17.02 684.72 17.66L684.72 17.66L684.64 18.12L690.50 18.12L690.30 19.60L693.30 19.60Q693.72 19.60 694.02 19.33Q694.32 19.06 694.38 18.62L694.38 18.62L696.78 0.74L693.70 0.74Q693.32 0.74 693.04 1Q692.76 1.26 692.70 1.66L692.70 1.66L692.68 1.82L688.38 1.82Q687.78 1.82 687.33 2.23Q686.88 2.64 686.78 3.28L686.78 3.28L686.72 3.74L692.42 3.74L691.80 8.46L687.70 8.46Q687.10 8.46 686.65 8.87Q686.20 9.28 686.10 9.92L686.10 9.92L686.04 10.38L691.54 10.38L690.76 16.20ZM704.04 1.82L704.20 0.74L704.20 0.74L701.20 0.74Q700.78 0.74 700.47 1.02Q700.16 1.30 700.10 1.76L700.10 1.76L697.70 19.60L700.72 19.60Q701.12 19.60 701.42 19.33Q701.72 19.06 701.80 18.62L701.80 18.62L701.86 18.12L706.22 18.12Q706.84 18.12 707.29 17.71Q707.74 17.30 707.84 16.66L707.84 16.66L707.90 16.20L702.12 16.20L702.90 10.38L706.92 10.38Q707.52 10.38 707.97 9.97Q708.42 9.56 708.52 8.92L708.52 8.92L708.58 8.46L703.16 8.46L703.78 3.74L708.02 3.74Q708.62 3.74 709.07 3.33Q709.52 2.92 709.62 2.28L709.62 2.28L709.68 1.82L704.04 1.82ZM732.22 10.24L725.04 10.24L725.04 10.24L724.86 11.52L734.16 11.52L733.50 16.38Q733.36 17.28 732.64 17.94L732.64 17.94Q731.92 18.58 731.02 18.58L731.02 18.58L726.00 18.58L726.00 18.58Q726.10 17.88 726.61 17.44Q727.12 17 727.80 17L727.80 17L728.32 17Q728.72 17 729.06 16.72L729.06 16.72Q729.40 16.44 729.46 16.02L729.46 16.02L729.86 13.12L724.64 13.12L723.82 19Q723.78 19.26 723.59 19.43Q723.40 19.60 723.14 19.60L723.14 19.60L719.66 19.60L720.56 13.12L715.86 13.12L716.08 11.52L720.78 11.52L720.96 10.24L713.78 10.24Q713.08 10.24 712.66 9.74L712.66 9.74Q712.24 9.26 712.34 8.54L712.34 8.54L712.84 4.94L716.86 4.94L716.64 6.42L716.58 6.96L716.40 8.26Q716.36 8.46 716.50 8.60L716.50 8.60Q716.64 8.74 716.82 8.74L716.82 8.74L729.62 8.74Q729.82 8.74 729.98 8.60L729.98 8.60Q730.14 8.46 730.16 8.26L730.16 8.26L730.42 6.42L717.30 6.42L717.50 4.94L734.64 4.94L734.14 8.54Q734.04 9.26 733.48 9.74L733.48 9.74Q732.92 10.24 732.22 10.24L732.22 10.24ZM712.12 11.52L715.60 11.52L715.60 11.52L715.38 13.12L715.30 13.66L714.72 17.98Q714.66 18.24 714.47 18.41Q714.28 18.58 714.02 18.58L714.02 18.58L710.54 18.58L711.44 12.14Q711.48 11.86 711.67 11.69Q711.86 11.52 712.12 11.52L712.12 11.52ZM735.46 2.32L735.46 2.32L735.46 2.32Q735.88 2.82 735.78 3.52L735.78 3.52L735.64 4.58L731.54 4.58L731.64 3.88Q731.66 3.68 731.54 3.54L731.54 3.54Q731.40 3.40 731.22 3.40L731.22 3.40L716.68 3.40Q716.50 3.40 716.32 3.54L716.32 3.54Q716.16 3.70 716.14 3.88L716.14 3.88L716.04 4.58L711.98 4.58L712.12 3.52Q712.22 2.80 712.78 2.30L712.78 2.30Q713.32 1.82 714.02 1.82L714.02 1.82L714.18 1.84L714.00 0.76L717.04 0.76Q717.44 0.76 717.73 1.01Q718.02 1.26 718.10 1.66L718.10 1.66L718.12 1.82L722.14 1.84L722.22 1.20Q722.26 1 722.41 0.87Q722.56 0.74 722.74 0.74L722.74 0.74L726.36 0.74L726.20 1.82L730.22 1.82L730.38 1.46Q730.76 0.76 731.46 0.76L731.46 0.76L734.64 0.76L734.16 1.82L734.32 1.84Q735.02 1.84 735.46 2.32ZM754.50 13.46L754.50 13.46L754.50 13.46Q754.52 13.44 754.56 13.40L754.56 13.40Q754.68 13.22 754.70 13.02L754.70 13.02Q754.68 13.22 754.56 13.40L754.56 13.40Q754.52 13.44 754.50 13.46ZM742.92 13.02L742.92 13.02L742.92 13.02Q742.92 13.22 743.02 13.40L743.02 13.40Q743.04 13.44 743.08 13.46L743.08 13.46Q743.04 13.44 743.02 13.40L743.02 13.40Q742.92 13.22 742.92 13.02ZM740.72 1.58L742.90 1.58L742.90 1.58L742.62 3.68L742.56 4.18L742.56 4.22L742.50 4.68L738.40 4.68L738.56 3.54Q738.66 2.74 739.32 2.16L739.32 2.16Q739.94 1.58 740.72 1.58L740.72 1.58ZM756.50 5.16L759.84 5.16L759.84 5.16L759.68 6.30L761.40 6.30L761.28 7.28Q761.22 7.68 760.94 7.92Q760.66 8.16 760.30 8.16L760.30 8.16L759.44 8.16L758.68 13.68Q758.60 14.30 758.22 14.76L758.22 14.76Q757.84 15.22 757.28 15.34L757.28 15.34L753.58 16.12L759.60 17.76L759.06 18.46Q757.92 19.86 756.34 19.54L756.34 19.54L748.32 17.20L736.54 19.60L736.78 18.80Q737.26 17.38 738.68 17.04L738.68 17.04L743.44 16.14L739.80 15.34Q739.28 15.22 738.98 14.76L738.98 14.76Q738.68 14.30 738.74 13.68L738.74 13.68L739.52 8.16L737.94 8.16L738.08 7.10Q738.14 6.76 738.38 6.53Q738.62 6.30 738.96 6.30L738.96 6.30L739.76 6.30L739.80 5.98Q739.86 5.62 740.11 5.39Q740.36 5.16 740.70 5.16L740.70 5.16L743.98 5.16L743.82 6.30L755.60 6.30L755.64 5.92Q755.70 5.58 755.94 5.37Q756.18 5.16 756.50 5.16L756.50 5.16ZM754.70 13.02L754.70 13.02L754.70 13.02L755.36 8.16L743.58 8.16L742.92 13.02Q742.92 13.22 743.02 13.40L743.02 13.40Q743.04 13.44 743.08 13.46L743.08 13.46Q743.18 13.58 743.32 13.62L743.32 13.62L748.62 14.78L754.26 13.62Q754.40 13.58 754.50 13.46L754.50 13.46Q754.52 13.44 754.56 13.40L754.56 13.40Q754.68 13.22 754.70 13.02ZM748.62 14.78L754.24 13.62L754.24 13.62Q754.38 13.58 754.50 13.46L754.50 13.46Q754.40 13.58 754.26 13.62L754.26 13.62L748.62 14.78ZM743.08 13.46L743.08 13.46L743.08 13.46Q743.18 13.58 743.32 13.62L743.32 13.62L748.62 14.78L743.32 13.62Q743.18 13.58 743.08 13.46ZM761.40 2.16L761.40 2.16L761.40 2.16Q761.88 2.74 761.78 3.54L761.78 3.54L761.62 4.68L757.54 4.68L757.68 3.68Q757.72 3.50 757.60 3.36L757.60 3.36Q757.48 3.20 757.30 3.20L757.30 3.20L743.30 3.20L743.52 1.58L748.40 1.58L748.50 0.76L751.78 0.76Q752.10 0.76 752.30 1Q752.50 1.24 752.46 1.58L752.46 1.58L752.46 1.58L760.12 1.58Q760.88 1.58 761.40 2.16ZM787.14 2.12L787.14 2.12L787.14 2.12Q787.66 2.68 787.56 3.50L787.56 3.50L787.28 5.54L782.98 5.54L783.24 3.62Q783.26 3.44 783.16 3.32L783.16 3.32Q783.10 3.26 783.03 3.24Q782.96 3.22 782.88 3.22L782.88 3.22L768.72 3.22L768.96 1.56L773.60 1.56L773.72 0.74L777.02 0.74Q777.34 0.74 777.56 0.98Q777.78 1.22 777.74 1.56L777.74 1.56L777.74 1.56L785.80 1.56Q786.62 1.56 787.14 2.12ZM767.80 1.56L767.52 3.64L767.52 3.64L767.42 4.34L767.40 4.38L767.24 5.54L763.10 5.54L763.40 3.50Q763.50 2.68 764.16 2.12L764.16 2.12Q764.80 1.56 765.60 1.56L765.60 1.56L767.80 1.56ZM772.68 8.02L762.76 8.02L762.76 8.02L762.84 7.38Q762.92 6.94 763.25 6.65Q763.58 6.36 764.02 6.36L764.02 6.36L787.16 6.36L787.06 7.00Q787.00 7.46 786.67 7.74Q786.34 8.02 785.90 8.02L785.90 8.02L776.82 8.02L775.52 17.30Q775.46 17.84 775.22 18.26L775.22 18.26Q774.98 18.70 774.62 19L774.62 19Q774.24 19.28 773.80 19.44L773.80 19.44Q773.34 19.62 772.88 19.62L772.88 19.62L766.42 19.62L766.46 19.42Q766.56 18.78 767.03 18.37Q767.50 17.96 768.12 17.96L768.12 17.96L770.46 17.96Q770.80 17.96 771.06 17.82L771.06 17.82Q771.32 17.66 771.38 17.32L771.38 17.32L772.68 8.02ZM793.62 1.38L793.62 1.38L793.62 1.38L793.56 1.66L790.58 1.66L788.58 17.14Q788.50 17.64 788.62 18.08L788.62 18.08Q788.72 18.54 789.00 18.88L789.00 18.88Q789.24 19.20 789.62 19.40L789.62 19.40Q790.00 19.60 790.44 19.60L790.44 19.60L797.22 19.60Q797.66 19.60 798.10 19.40L798.10 19.40Q798.52 19.20 798.88 18.88L798.88 18.88Q799.24 18.54 799.46 18.08L799.46 18.08Q799.70 17.62 799.76 17.14L799.76 17.14L801.76 1.66L798.32 1.66L798.46 0.74L794.28 0.74Q794.04 0.74 793.84 0.92L793.84 0.92Q793.66 1.10 793.62 1.38ZM796.92 10.74L796.04 17.56L796.04 17.56Q796.00 17.74 795.84 17.90L795.84 17.90Q795.70 18.04 795.50 18.04L795.50 18.04L792.34 18.04Q792.16 18.04 792.06 17.90L792.06 17.90Q791.92 17.74 791.94 17.56L791.94 17.56L792.84 10.74L796.92 10.74ZM797.92 3.14L797.12 9.16L797.12 9.16L793.04 9.16L793.86 3.14L797.92 3.14ZM813.24 1.58L813.24 1.58L813.24 1.58L806.68 1.58L807.00 0.74L803.90 0.74Q803.38 0.74 803.08 1.34L803.08 1.34L801.72 5.08L803.54 5.08Q805.18 5.08 806.08 3.34L806.08 3.34L809.62 3.34L807.80 17.30Q807.76 17.58 807.52 17.80L807.52 17.80Q807.30 18.02 807.02 18.02L807.02 18.02L804.80 18.02Q804.40 18.02 804.08 18.30L804.08 18.30Q803.78 18.60 803.72 19.04L803.72 19.04L803.64 19.60L809.40 19.60Q810.28 19.60 810.98 19.06L810.98 19.06Q811.70 18.52 811.84 17.44L811.84 17.44L813.80 2.26Q813.82 1.98 813.66 1.78L813.66 1.78Q813.52 1.58 813.24 1.58ZM803.58 11.14L807.02 12.98L807.02 12.98L807.80 10.54L803.28 7.98L802.84 8.76Q802.52 9.44 802.73 10.11Q802.94 10.78 803.58 11.14L803.58 11.14ZM814.54 19.60L814.54 19.60L814.54 19.60L817.38 19.60Q817.96 18.94 818.57 17.92Q819.18 16.90 819.66 15.82L819.66 15.82Q819.98 15.00 819.53 14.31Q819.08 13.62 818.24 13.62L818.24 13.62L818.24 13.62Q817.20 13.62 816.74 14.76L816.74 14.76Q816.36 16.02 815.75 17.35Q815.14 18.68 814.54 19.60ZM836.32 3.06L841.56 3.06L841.56 3.06L834.54 16.42L834.64 16.42Q838.38 16.42 840.64 12.72L840.64 12.72L845.72 3.06L858.58 3.06Q858.96 3.06 859.26 2.78L859.26 2.78Q859.56 2.52 859.62 2.10L859.62 2.10L859.80 0.74L837.50 0.74Q837.12 0.74 836.86 0.98L836.86 0.98Q836.58 1.24 836.52 1.64L836.52 1.64L836.32 3.06ZM845.76 5.96L845.76 5.96L845.76 5.96L843.94 19.60L848.26 19.60L850.02 4.66L847.18 4.66Q846.66 4.66 846.24 5.02L846.24 5.02Q845.84 5.38 845.76 5.96ZM855.48 5.60L851.34 5.60L851.34 5.60L853.64 14.58Q853.86 15.40 854.54 15.91Q855.22 16.42 856.08 16.42L856.08 16.42L858.26 16.42L855.48 5.60ZM874.06 4.54L875.30 4.54L875.30 4.54Q876.42 4.54 877.11 5.32Q877.80 6.10 877.72 7.28L877.72 7.28L876.88 16.74L874.82 16.74Q874.06 16.74 873.58 16.21Q873.10 15.68 873.16 14.86L873.16 14.86L874.06 4.54ZM878.68 16.74L881.20 5.40L881.20 5.40Q881.30 5.04 881.59 4.79Q881.88 4.54 882.24 4.54L882.24 4.54L885.28 4.54L883.26 13.60Q882.94 14.96 881.87 15.85Q880.80 16.74 879.50 16.74L879.50 16.74L878.68 16.74ZM877.20 1.58L877.14 2.00L877.14 2.00L885.80 2.00L885.58 3.60L866.74 3.60L864.84 17.46Q864.72 18.36 864.02 18.98L864.02 18.98Q863.34 19.60 862.44 19.60L862.44 19.60L860.54 19.60L860.82 17.58L861.02 16.10L861.02 16.08L862.94 2.00L873.14 2.00L873.30 0.74L876.52 0.74Q876.84 0.74 877.04 0.98Q877.24 1.22 877.20 1.58L877.20 1.58ZM882.60 19.44L865.50 19.44L865.50 19.44L865.64 18.34Q865.70 18 865.96 17.77Q866.22 17.54 866.54 17.54L866.54 17.54L883.66 17.54L883.52 18.62Q883.46 18.96 883.20 19.20Q882.94 19.44 882.60 19.44L882.60 19.44ZM867.74 4.54L869.70 4.54L869.70 4.54Q870.52 4.54 871.02 5.11Q871.52 5.68 871.46 6.52L871.46 6.52L870.58 16.74L869.18 16.74Q868.12 16.74 867.47 16.01Q866.82 15.28 866.90 14.18L866.90 14.18L867.74 4.54ZM887.76 7.54L887.82 7.02L887.82 7.02Q887.92 6.40 888.35 6.00Q888.78 5.60 889.38 5.56L889.38 5.56L893.74 5.34L894.04 3.10L888.36 3.10L888.48 2.28Q888.54 1.80 888.88 1.50Q889.22 1.20 889.66 1.20L889.66 1.20L894.30 1.20L894.30 1.20Q894.34 1 894.48 0.87Q894.62 0.74 894.82 0.74L894.82 0.74L898.36 0.74L897.36 8.14L893.36 8.14L893.48 7.24L887.76 7.54ZM902.08 0.74L902.08 0.74L902.08 0.74L905.68 0.74L905.54 1.78L911.82 1.42L911.82 1.42Q911.70 2.20 911.17 2.70Q910.64 3.20 909.88 3.26L909.88 3.26L905.30 3.50L904.98 5.82Q904.94 6.14 905.12 6.34L905.12 6.34Q905.28 6.54 905.60 6.54L905.60 6.54L909.58 6.54Q910.18 6.54 910.57 7.01Q910.96 7.48 910.90 8.14L910.90 8.14L910.90 8.14L902.80 8.14Q901.92 8.14 901.38 7.50L901.38 7.50Q900.84 6.86 900.98 5.94L900.98 5.94L901.62 1.16Q901.66 0.98 901.79 0.86Q901.92 0.74 902.08 0.74ZM892.50 10.26L892.70 8.66L892.70 8.66L910.40 8.66L909.22 17.40Q909.10 18.32 908.38 18.96L908.38 18.96Q907.68 19.60 906.82 19.60L906.82 19.60L901.50 19.60L901.50 19.60Q901.60 18.90 902.10 18.45Q902.60 18 903.26 18L903.26 18L904.34 18Q904.74 18 904.98 17.72L904.98 17.72Q905.22 17.44 905.28 17.04L905.28 17.04L905.40 16.18L891.00 16.18L890.54 19.60L886.56 19.60L887.88 9.80Q887.96 9.30 888.31 8.98Q888.66 8.66 889.14 8.66L889.14 8.66L892.02 8.66L891.82 10.26L891.76 10.68L891.64 11.58L906.02 11.58L906.20 10.26L892.50 10.26ZM891.22 14.58L905.60 14.58L905.60 14.58L905.80 13.16L891.42 13.16L891.22 14.58ZM920.98 17.48L913.68 17.48L913.68 17.48Q913.40 17.48 913.19 17.67Q912.98 17.86 912.94 18.16L912.94 18.16L912.76 19.62L935.08 19.62Q935.44 19.62 935.70 19.38Q935.96 19.14 936.00 18.78L936.00 18.78L936.16 17.48L925.38 17.48L926.76 7.34L935.22 7.34Q936.00 7.34 936.59 6.82Q937.18 6.30 937.30 5.50L937.30 5.50L937.34 5.20L927.04 5.20L927.54 1.64Q927.58 1.30 927.36 1.04Q927.14 0.78 926.80 0.78L926.80 0.78L923.26 0.78L920.98 17.48ZM951.28 17.22L951.78 10.84L951.78 10.84L953.94 10.84L953.28 19.52L953.28 19.52Q952.40 19.52 951.82 18.85Q951.24 18.18 951.28 17.22L951.28 17.22ZM944.88 19.52L944.34 19.52L944.34 19.52L945.98 10.84L948.16 10.84L946.84 17.82Q946.70 18.58 946.15 19.05Q945.60 19.52 944.88 19.52L944.88 19.52ZM943.44 0.74L943.44 0.74L943.44 0.74L944.96 0.74L942.38 18.34Q942.30 18.84 942.06 19.18L942.06 19.18Q941.82 19.52 941.50 19.52L941.50 19.52L940.02 19.52L942.58 1.88Q942.68 1.38 942.92 1.06L942.92 1.06Q943.14 0.74 943.44 0.74ZM944.62 4.70L945.76 4.70L945.76 4.70Q945.88 4.70 945.96 4.84L945.96 4.84Q946.02 5.00 946.00 5.22L946.00 5.22L944.80 13.44L944.38 13.44Q943.96 13.44 943.76 12.94L943.76 12.94Q943.54 12.42 943.62 11.74L943.62 11.74L944.62 4.70ZM940.50 4.48L941.94 4.48L941.94 4.48L940.46 14.38Q940.02 17.20 938.56 17.36L938.56 17.36L940.50 4.48ZM959.40 15.96L960.38 15.96L960.38 15.96L961.80 19.60L960.34 19.60Q959.10 19.60 958.46 18.24L958.46 18.24L958.18 17.52L957.26 18.78Q956.60 19.60 955.66 19.60L955.66 19.60L953.64 19.60L957.02 15.20L958.06 7.32Q958.10 7.02 958.32 6.81Q958.54 6.60 958.82 6.60L958.82 6.60L960.64 6.60L959.40 15.96ZM950.36 0.82L952.66 0.82L952.66 0.82L952.60 1.36L955.68 1.36L955.56 2.30Q955.52 2.58 955.32 2.76Q955.12 2.94 954.86 2.94L954.86 2.94L952.38 2.94L952.26 3.90L955.26 3.90L954.66 8.48Q954.56 9.18 954.02 9.68L954.02 9.68Q953.48 10.16 952.82 10.16L952.82 10.16L951.42 10.16L950.18 19.60L947.44 19.60L948.68 10.16L947.28 10.16Q946.62 10.16 946.22 9.68L946.22 9.68Q945.80 9.18 945.90 8.48L945.90 8.48L946.50 3.90L948.76 3.90L948.54 5.50L948.50 5.76L948.18 8.24Q948.16 8.38 948.24 8.50L948.24 8.50Q948.34 8.60 948.48 8.60L948.48 8.60L948.88 8.60L949.30 5.50L948.92 5.50L949.12 3.90L949.50 3.90L949.64 2.94L946.54 2.94L946.66 2.00Q946.72 1.72 946.91 1.54Q947.10 1.36 947.36 1.36L947.36 1.36L949.84 1.36L949.86 1.28Q949.88 1.08 950.02 0.95Q950.16 0.82 950.36 0.82L950.36 0.82ZM952.44 8.24L952.80 5.50L952.80 5.50L952.04 5.50L951.64 8.60L952.04 8.60Q952.20 8.60 952.32 8.50L952.32 8.50Q952.42 8.38 952.44 8.24L952.44 8.24ZM957.24 3.94L958.02 3.94L958.02 3.94L957.74 6.00L957.72 6.22L956.48 15.66L954.08 15.66L955.42 5.64Q955.50 4.94 956.04 4.44L956.04 4.44Q956.58 3.94 957.24 3.94L957.24 3.94ZM963.50 4.74L963.50 4.74L963.50 4.74Q963.70 5.14 963.64 5.64L963.64 5.64L962.32 15.66L959.92 15.66L961.20 6.00Q961.24 5.80 961.12 5.66L961.12 5.66Q961.00 5.52 960.82 5.52L960.82 5.52L958.32 5.52L958.52 3.94L960.16 3.94L960.58 2.80L958.76 2.80L958.76 2.80Q958.46 3.54 957.78 3.54L957.78 3.54L955.76 3.54L956.58 0.82L959.38 0.82L959.26 1.20L963.52 1.20Q963.68 1.20 963.76 1.33Q963.84 1.46 963.80 1.62L963.80 1.62L962.92 4.10Q963.28 4.32 963.50 4.74ZM971.74 4.80L973.30 4.80L973.30 4.80Q973.46 4.80 973.58 4.94L973.58 4.94Q973.68 5.10 973.66 5.32L973.66 5.32L972.78 13.52L972.18 13.52Q971.62 13.52 971.28 13.02L971.28 13.02Q970.94 12.50 970.98 11.82L970.98 11.82L971.74 4.80ZM969.74 0.84L969.74 0.84L969.74 0.84L971.84 0.84L969.90 18.40Q969.84 18.92 969.52 19.26L969.52 19.26Q969.22 19.60 968.80 19.60L968.80 19.60L966.76 19.60L968.68 1.98Q968.76 1.48 969.06 1.16L969.06 1.16Q969.34 0.84 969.74 0.84ZM966.06 4.58L968.04 4.58L968.04 4.58L966.90 14.46Q966.54 17.28 964.56 17.44L964.56 17.44L966.06 4.58ZM989.82 1.48L989.72 2.28L989.72 2.28Q989.64 2.72 989.34 3.01Q989.04 3.30 988.64 3.30L988.64 3.30L979.62 3.30L979.24 4.12L989.06 4.12L989.02 4.46Q988.96 4.92 988.63 5.22Q988.30 5.52 987.88 5.52L987.88 5.52L984.18 5.52L983.94 7.44L988.90 7.44L988.84 7.88Q988.78 8.34 988.46 8.64Q988.14 8.94 987.70 8.94L987.70 8.94L974.48 8.94L974.54 8.50Q974.60 8.04 974.92 7.74Q975.24 7.44 975.68 7.44L975.68 7.44L980.18 7.44L980.44 5.52L978.54 5.52L978.36 5.86Q977.80 6.70 976.92 6.70L976.92 6.70L974.14 6.70L975.90 3.30L974.80 3.30L974.92 2.48Q974.98 2.04 975.28 1.76Q975.58 1.48 976.00 1.48L976.00 1.48L976.84 1.48L977.24 0.74L980.96 0.74L980.56 1.48L989.82 1.48ZM984.48 11L978.70 11L978.70 11L978.90 9.52L988.42 9.52L987.38 17.50Q987.26 18.36 986.58 18.96L986.58 18.96Q985.90 19.58 985.06 19.58L985.06 19.58L980.96 19.58L981.04 18.92Q981.10 18.54 981.36 18.31Q981.62 18.08 981.96 18.08L981.96 18.08L982.64 18.08Q983.04 18.08 983.34 17.82L983.34 17.82Q983.62 17.54 983.68 17.16L983.68 17.16L983.78 16.32L977.46 16.32L977.02 19.58L973.28 19.58L974.50 10.34Q974.56 9.98 974.80 9.75Q975.04 9.52 975.38 9.52L975.38 9.52L978.34 9.52L978.16 11L978.10 11.48L978.02 12.08L984.34 12.08L984.48 11ZM977.66 14.82L983.98 14.82L983.98 14.82L984.14 13.58L977.82 13.58L977.66 14.82ZM995.64 1.38L995.64 1.38L995.64 1.38L995.58 1.66L992.60 1.66L990.60 17.14Q990.52 17.64 990.64 18.08L990.64 18.08Q990.74 18.54 991.02 18.88L991.02 18.88Q991.26 19.20 991.64 19.40L991.64 19.40Q992.02 19.60 992.46 19.60L992.46 19.60L999.24 19.60Q999.68 19.60 1000.12 19.40L1000.12 19.40Q1000.54 19.20 1000.90 18.88L1000.90 18.88Q1001.26 18.54 1001.48 18.08L1001.48 18.08Q1001.72 17.62 1001.78 17.14L1001.78 17.14L1003.78 1.66L1000.34 1.66L1000.48 0.74L996.30 0.74Q996.06 0.74 995.86 0.92L995.86 0.92Q995.68 1.10 995.64 1.38ZM998.94 10.74L998.06 17.56L998.06 17.56Q998.02 17.74 997.86 17.90L997.86 17.90Q997.72 18.04 997.52 18.04L997.52 18.04L994.36 18.04Q994.18 18.04 994.08 17.90L994.08 17.90Q993.94 17.74 993.96 17.56L993.96 17.56L994.86 10.74L998.94 10.74ZM999.94 3.14L999.14 9.16L999.14 9.16L995.06 9.16L995.88 3.14L999.94 3.14ZM1015.26 1.58L1015.26 1.58L1015.26 1.58L1008.70 1.58L1009.02 0.74L1005.92 0.74Q1005.40 0.74 1005.10 1.34L1005.10 1.34L1003.74 5.08L1005.56 5.08Q1007.20 5.08 1008.10 3.34L1008.10 3.34L1011.64 3.34L1009.82 17.30Q1009.78 17.58 1009.54 17.80L1009.54 17.80Q1009.32 18.02 1009.04 18.02L1009.04 18.02L1006.82 18.02Q1006.42 18.02 1006.10 18.30L1006.10 18.30Q1005.80 18.60 1005.74 19.04L1005.74 19.04L1005.66 19.60L1011.42 19.60Q1012.30 19.60 1013.00 19.06L1013.00 19.06Q1013.72 18.52 1013.86 17.44L1013.86 17.44L1015.82 2.26Q1015.84 1.98 1015.68 1.78L1015.68 1.78Q1015.54 1.58 1015.26 1.58ZM1005.60 11.14L1009.04 12.98L1009.04 12.98L1009.82 10.54L1005.30 7.98L1004.86 8.76Q1004.54 9.44 1004.75 10.11Q1004.96 10.78 1005.60 11.14L1005.60 11.14ZM1030.78 5.94L1030.78 5.94L1030.78 5.94Q1030.22 5.38 1030.36 4.42L1030.36 4.42L1030.86 0.74L1034.76 0.74L1034.58 2.06L1034.50 2.72L1034.22 4.70Q1034.20 4.90 1034.32 5.06L1034.32 5.06Q1034.44 5.20 1034.64 5.20L1034.64 5.20L1036.74 5.20Q1036.94 5.20 1037.10 5.06L1037.10 5.06Q1037.28 4.90 1037.30 4.70L1037.30 4.70L1037.66 2.06L1035.10 2.06L1035.28 0.74L1041.82 0.74L1041.32 4.42Q1041.18 5.38 1040.48 5.94L1040.48 5.94Q1039.76 6.52 1038.84 6.52L1038.84 6.52L1032.24 6.52Q1031.32 6.52 1030.78 5.94ZM1018.86 5.94L1018.86 5.94L1018.86 5.94Q1018.32 5.38 1018.44 4.42L1018.44 4.42L1018.94 0.74L1022.86 0.74L1022.68 2.06L1022.58 2.72L1022.32 4.70Q1022.28 4.90 1022.40 5.06L1022.40 5.06Q1022.54 5.20 1022.72 5.20L1022.72 5.20L1024.84 5.20Q1025.04 5.20 1025.20 5.06L1025.20 5.06Q1025.36 4.90 1025.40 4.70L1025.40 4.70L1025.76 2.06L1023.18 2.06L1023.36 0.74L1029.92 0.74L1029.40 4.42Q1029.28 5.38 1028.56 5.94L1028.56 5.94Q1027.86 6.52 1026.94 6.52L1026.94 6.52L1020.34 6.52Q1019.42 6.52 1018.86 5.94ZM1040.50 7.92L1039.94 12.04L1039.94 12.04L1040.14 12.04Q1040.44 12.04 1040.64 12.27Q1040.84 12.50 1040.80 12.82L1040.80 12.82L1040.18 17.40Q1040.02 18.50 1039.30 19.06L1039.30 19.06Q1038.58 19.60 1037.64 19.60L1037.64 19.60L1030.10 19.60L1030.16 19.22Q1030.24 18.70 1030.61 18.36Q1030.98 18.02 1031.50 18.02L1031.50 18.02L1035.24 18.02Q1035.56 18.02 1035.80 17.80L1035.80 17.80Q1036.02 17.58 1036.06 17.28L1036.06 17.28L1036.56 13.66L1019.54 13.66Q1018.72 13.66 1018.24 13.08L1018.24 13.08Q1017.76 12.48 1017.86 11.66L1017.86 11.66L1018.20 9.24L1022.30 9.24L1021.98 11.56Q1021.96 11.76 1022.06 11.90L1022.06 11.90Q1022.18 12.04 1022.38 12.04L1022.38 12.04L1035.82 12.04L1036.28 8.62L1019.14 8.62Q1018.68 8.62 1018.39 8.27Q1018.10 7.92 1018.16 7.46L1018.16 7.46L1018.20 7.14L1039.84 7.14Q1040.14 7.14 1040.34 7.37Q1040.54 7.60 1040.50 7.92L1040.50 7.92ZM1017.76 15.00L1034.38 15.00L1034.38 15.00L1034.30 15.64Q1034.24 16.06 1033.92 16.35Q1033.60 16.64 1033.18 16.64L1033.18 16.64L1016.56 16.64L1016.64 16Q1016.72 15.58 1017.03 15.29Q1017.34 15.00 1017.76 15.00L1017.76 15.00ZM1050.22 0.72L1049.88 1.34L1049.88 1.34L1067.72 1.34L1067.54 2.54L1065.04 8.90Q1064.86 9.40 1064.64 9.68Q1064.42 9.96 1064.10 10.18L1064.10 10.18Q1063.76 10.40 1063.34 10.48Q1062.92 10.56 1062.52 10.56L1062.52 10.56L1043.34 10.56L1043.44 9.80Q1043.50 9.46 1043.76 9.22Q1044.02 8.98 1044.36 8.98L1044.36 8.98L1059.96 8.98Q1060.64 8.98 1060.96 8.30L1060.96 8.30L1063.02 2.92L1049.02 2.92Q1048.40 3.86 1047.50 3.86L1047.50 3.86L1044.22 3.86L1045.74 1.10Q1045.98 0.72 1046.36 0.72L1046.36 0.72L1050.22 0.72ZM1059.56 7.58L1047.10 6.46L1047.10 6.46Q1045.52 6.26 1045.10 4.72L1045.10 4.72L1045.08 4.66L1059.88 6.00L1059.56 7.58ZM1061.34 13L1048.24 13L1048.24 13L1048.46 11.42L1065.56 11.42L1064.70 17.64Q1064.60 18.44 1063.98 19.02L1063.98 19.02Q1063.38 19.60 1062.58 19.60L1062.58 19.60L1044.38 19.60Q1043.58 19.60 1043.08 19.02L1043.08 19.02Q1042.58 18.44 1042.66 17.64L1042.66 17.64L1043.52 11.42L1047.68 11.42L1046.88 17.20Q1046.86 17.40 1046.96 17.56L1046.96 17.56Q1047.06 17.72 1047.26 17.72L1047.26 17.72L1060.22 17.72Q1060.40 17.72 1060.56 17.56L1060.56 17.56Q1060.74 17.40 1060.76 17.20L1060.76 17.20L1061.34 13ZM1074.10 15.98L1074.10 15.98L1074.10 15.98Q1074.24 16.46 1074.16 17L1074.16 17Q1074.10 17.54 1073.82 18.02L1073.82 18.02Q1073.56 18.48 1073.14 18.84L1073.14 18.84Q1072.74 19.20 1072.24 19.40L1072.24 19.40Q1071.74 19.60 1071.20 19.60L1071.20 19.60Q1070.66 19.60 1070.20 19.40L1070.20 19.40Q1069.76 19.20 1069.46 18.84L1069.46 18.84Q1069.16 18.48 1069.02 18.02L1069.02 18.02Q1068.88 17.54 1068.94 17L1068.94 17Q1069.02 16.46 1069.30 15.98L1069.30 15.98Q1069.58 15.50 1069.98 15.16L1069.98 15.16Q1070.38 14.80 1070.88 14.60L1070.88 14.60Q1071.40 14.38 1071.94 14.38L1071.94 14.38Q1072.48 14.38 1072.92 14.60L1072.92 14.60Q1073.36 14.80 1073.66 15.16L1073.66 15.16Q1073.98 15.50 1074.10 15.98ZM1072.26 17.80L1072.26 17.80L1072.26 17.80Q1072.64 17.46 1072.70 17L1072.70 17Q1072.78 16.52 1072.48 16.20L1072.48 16.20Q1072.18 15.86 1071.72 15.86L1071.72 15.86Q1071.24 15.86 1070.88 16.20L1070.88 16.20Q1070.50 16.52 1070.42 17L1070.42 17Q1070.36 17.46 1070.64 17.80L1070.64 17.80Q1070.92 18.14 1071.40 18.14L1071.40 18.14Q1071.86 18.14 1072.26 17.80Z"/></svg>