<svg xmlns="http://www.w3.org/2000/svg" xmlns:xlink="http://www.w3.org/1999/xlink" width="670.06" height="20"><path fill="black" d="M8.08 17.44L8.08 17.44L8.08 17.44L8.36 15.38L11.60 15.38Q12 15.38 12.30 15.11Q12.60 14.84 12.66 14.42L12.66 14.42L12.74 13.78L8.58 13.78L8.62 13.52L12.80 10.88L13.08 8.90L6.06 8.90L6.50 8.10L12.72 8.10Q13.08 8.10 13.33 7.87Q13.58 7.64 13.64 7.26L13.64 7.26L13.74 6.54L13.10 6.54L13.94 3.84L11.60 3.84Q10.84 3.84 10.48 4.68L10.48 4.68L9.88 6.54L9.18 6.54L9.60 3.38L12.60 3.38Q13.14 3.38 13.53 3.02Q13.92 2.66 14.02 2.10L14.02 2.10L14.06 1.78L9.82 1.78L9.96 0.74L6.70 0.74Q6.40 0.74 6.16 0.95Q5.92 1.16 5.86 1.50L5.86 1.50L5.82 1.78L3.48 1.78Q2.94 1.78 2.54 2.15Q2.14 2.52 2.06 3.08L2.06 3.08L2.02 3.38L5.62 3.38L5.18 6.54L2.28 6.54Q1.94 6.54 1.68 6.77Q1.42 7.00 1.36 7.38L1.36 7.38L1.26 8.10L2.56 8.10L0.74 11.42L3.70 11.42Q4.64 11.42 5.22 10.48L5.22 10.48L5.22 10.48L8.36 10.48L4.76 12.80L4.64 13.78L1.54 13.78Q1.14 13.78 0.84 14.05Q0.54 14.32 0.48 14.74L0.48 14.74L0.40 15.38L4.42 15.38L4.16 17.24Q4.12 17.54 3.94 17.76L3.94 17.76Q3.74 17.98 3.48 17.98L3.48 17.98L3.34 17.98Q2.86 17.98 2.51 18.30Q2.16 18.62 2.08 19.12L2.08 19.12L2.02 19.60L5.80 19.60Q6.18 19.60 6.56 19.42L6.56 19.42Q6.92 19.24 7.26 18.96L7.26 18.96Q7.58 18.66 7.80 18.26L7.80 18.26Q8.04 17.88 8.08 17.44ZM18.74 7.48L18.46 6.66L18.46 6.66Q18.06 5.76 17.24 5.76L17.24 5.76L14.20 5.76L16.28 11.80L11.84 19.56L13.66 19.56Q15.82 19.56 17.16 17.50L17.16 17.50L17.84 16.32L18.26 17.52Q19.18 19.56 21.06 19.56L21.06 19.56L22.96 19.56L20.32 12L24.96 3.88L21.20 3.88Q20.84 3.88 20.60 4.24L20.60 4.24L18.74 7.48ZM15.60 1.34L14.16 5.04L14.16 5.04L16.72 5.04Q18.02 5.04 18.68 3.66L18.68 3.66L18.88 3.16L24.70 3.16Q24.92 3.16 25.08 3.01Q25.24 2.86 25.28 2.64L25.28 2.64L25.42 1.56L19.52 1.56L19.84 0.74L16.48 0.74Q15.90 0.74 15.60 1.34L15.60 1.34ZM45.94 9.78L32.40 9.78L32.40 9.78L32.62 8.20L50.12 8.20L48.88 17.40Q48.76 18.34 48.06 18.96L48.06 18.96Q47.34 19.60 46.48 19.60L46.48 19.60L40.88 19.60L40.88 19.60Q40.98 18.90 41.47 18.46Q41.96 18.02 42.62 18.02L42.62 18.02L44.04 18.02Q44.44 18.02 44.68 17.74L44.68 17.74Q44.92 17.46 44.96 17.04L44.96 17.04L45.14 15.78L31.02 15.78L30.64 18.70Q30.58 19.10 30.30 19.35Q30.02 19.60 29.64 19.60L29.64 19.60L26.56 19.60L27.98 8.96Q28.04 8.62 28.27 8.41Q28.50 8.20 28.82 8.20L28.82 8.20L32.04 8.20L31.84 9.78L31.82 9.92L31.62 11.30L45.74 11.30L45.94 9.78ZM31.24 14.20L45.36 14.20L45.36 14.20L45.52 12.88L31.42 12.88L31.24 14.20ZM50.46 3.06L33.66 3.06L33.66 3.06L32.68 5.22Q32.58 5.40 32.68 5.60L32.68 5.60Q32.72 5.74 32.94 5.74L32.94 5.74L46.22 5.46L45.82 3.90L47.92 3.90Q49.50 3.90 50.18 5.70L50.18 5.70L50.68 7.58L47.18 7.58Q46.84 7.58 46.68 7.22L46.68 7.22L46.64 7.06L29.30 7.42Q28.96 7.42 28.72 7.26L28.72 7.26Q28.50 7.10 28.36 6.84L28.36 6.84Q28.24 6.56 28.26 6.24L28.26 6.24Q28.28 5.90 28.46 5.62L28.46 5.62L29.70 3.06L28.28 3.06L28.38 2.34Q28.44 1.96 28.71 1.72Q28.98 1.48 29.34 1.48L29.34 1.48L38.02 1.48L38.12 0.74L41.38 0.74Q41.66 0.74 41.84 0.96Q42.02 1.18 41.98 1.48L41.98 1.48L41.98 1.48L51.50 1.48L51.42 2.18Q51.36 2.56 51.09 2.81Q50.82 3.06 50.46 3.06L50.46 3.06ZM74.56 8.48L56.36 8.48L56.36 8.48Q55.46 8.48 54.94 7.88L54.94 7.88Q54.42 7.28 54.52 6.40L54.52 6.40L55.26 0.74L59.24 0.74L59.04 2.24L58.98 2.54L58.94 2.92L58.82 3.94L73.26 3.94L73.48 2.24L59.82 2.24L60.02 0.74L77.64 0.74L76.90 6.40Q76.78 7.28 76.12 7.88L76.12 7.88Q75.44 8.48 74.56 8.48L74.56 8.48ZM58.64 5.28L58.48 6.40L58.48 6.40Q58.46 6.66 58.62 6.82L58.62 6.82Q58.78 6.96 59.04 6.96L59.04 6.96L72.28 6.96Q72.56 6.96 72.72 6.82L72.72 6.82Q72.90 6.66 72.92 6.40L72.92 6.40L73.08 5.28L58.64 5.28ZM54 9.56L54 9.56L54 9.56Q54.24 9.32 54.58 9.32L54.58 9.32L76.98 9.32L76.88 10.06Q76.84 10.40 76.60 10.62L76.60 10.62Q76.36 10.86 76.04 10.86L76.04 10.86L67.74 10.86L67.42 13.16L76.16 13.16Q76.06 13.84 75.60 14.26L75.60 14.26Q75.14 14.68 74.52 14.68L74.52 14.68L67.22 14.68L66.92 17L76.48 17.92L76.02 18.60Q75.20 19.54 74 19.46L74 19.46L56.72 18Q56.12 19.60 54.68 19.60L54.68 19.60L52.38 19.60L54.42 11.70L58.34 11.70L57.16 16.16L63 16.68L63.76 10.86L53.62 10.86L53.72 10.12Q53.76 9.78 54 9.56ZM89.34 5.72L81.30 5.72L81.30 5.72Q80.88 5.72 80.58 5.98Q80.28 6.24 80.22 6.66L80.22 6.66L80.10 7.64L99.10 7.64L97.86 16.68Q97.82 17.10 97.50 17.38L97.50 17.38Q97.16 17.66 96.76 17.66L96.76 17.66L79.82 17.66Q79.32 17.66 78.94 17.99Q78.56 18.32 78.48 18.84L78.48 18.84L78.38 19.60L99.40 19.60Q100.30 19.60 101.02 18.94L101.02 18.94Q101.72 18.30 101.86 17.38L101.86 17.38L103.46 5.72L94.08 5.72L94.76 0.74L91.28 0.74Q90.74 0.74 90.33 1.10Q89.92 1.46 89.84 2.02L89.84 2.02L89.34 5.72ZM97.28 10.94L80.88 10.94L80.88 10.94Q80.52 10.94 80.26 11.18Q80 11.42 79.94 11.78L79.94 11.78L79.78 12.86L96.16 12.86Q96.52 12.86 96.79 12.62Q97.06 12.38 97.12 12L97.12 12L97.28 10.94ZM81.48 0.74L81.50 3.94L81.50 3.94Q81.50 4.42 81.79 4.73Q82.08 5.04 82.48 5.04L82.48 5.04L85.56 5.04L85.56 3.44Q85.52 2.30 84.81 1.52Q84.10 0.74 83.10 0.74L83.10 0.74L81.48 0.74ZM99.06 2.46L98.36 5.04L98.36 5.04L101.88 5.04Q102.36 5.04 102.58 4.46L102.58 4.46L103.64 0.74L101.20 0.74Q99.72 0.74 99.06 2.46L99.06 2.46ZM116.98 7.04L113.30 7.04L113.30 7.04L110.16 19.54Q111.72 19.54 113.02 18.54L113.02 18.54Q114.32 17.54 114.74 15.96L114.74 15.96L116.98 7.04ZM118.40 0.76L114.28 0.76L114.28 0.76L112.42 5.36L115.02 5.36Q116.38 5.36 117.24 3.72L117.24 3.72L117.32 3.52L124.84 3.52L124.26 5.36L128.42 5.36L129.36 2.52Q129.44 2.18 129.28 1.94L129.28 1.94Q129.14 1.70 128.86 1.70L128.86 1.70L118.04 1.70L118.40 0.76ZM121 17.40L121 17.40L121 17.40L122.64 5.62L119.14 5.62Q118.94 5.62 118.76 5.76L118.76 5.76Q118.60 5.90 118.56 6.12L118.56 6.12L116.98 17.40Q116.90 18.06 116.14 18.06L116.14 18.06Q115.92 18.06 115.76 18.20L115.76 18.20Q115.60 18.34 115.56 18.56L115.56 18.56L115.40 19.64L118.28 19.64Q118.76 19.64 119.20 19.48L119.20 19.48Q119.66 19.32 120.02 19.04L120.02 19.04Q120.40 18.76 120.64 18.34L120.64 18.34Q120.90 17.92 121 17.40ZM123.70 7.62L123.70 7.62L123.70 7.62L123.40 17.58Q123.38 18.42 123.94 18.98L123.94 18.98Q124.50 19.54 125.38 19.54L125.38 19.54L127.02 19.54L127.40 7.04L124.30 7.04Q124.06 7.04 123.90 7.20L123.90 7.20Q123.72 7.36 123.70 7.62ZM104.56 7.76L107.82 1.24L107.82 1.24Q108.10 0.76 108.58 0.76L108.58 0.76L112.38 0.76L109.76 6.12L110.94 6.12L108.92 18.88Q108.86 19.22 108.62 19.42Q108.38 19.62 108.06 19.62L108.06 19.62L104.64 19.62L106.52 7.76L104.56 7.76ZM142.12 1.56L133.66 1.56L133.66 1.56Q133.18 1.56 132.83 1.87Q132.48 2.18 132.40 2.68L132.40 2.68L132.32 3.30L133.56 3.30L132.88 8.28Q132.76 9.20 133.28 9.82L133.28 9.82Q133.82 10.46 134.70 10.46L134.70 10.46L153.90 10.46L153.90 10.46Q153.98 9.74 153.55 9.23Q153.12 8.72 152.46 8.72L152.46 8.72L137.50 8.72Q137.20 8.72 137.04 8.50L137.04 8.50Q136.86 8.28 136.90 7.98L136.90 7.98L137.54 3.30L154.30 3.30Q154.78 3.30 155.13 2.98Q155.48 2.66 155.56 2.16L155.56 2.16L155.64 1.56L146.08 1.56L146.08 1.56Q146.12 1.22 145.92 0.98Q145.72 0.74 145.42 0.74L145.42 0.74L142.22 0.74L142.12 1.56ZM132.10 11.42L130.38 19.50L130.38 19.50L130.38 19.50Q132.02 19.50 133.28 18.44Q134.54 17.38 134.92 15.68L134.92 15.68L135.84 11.42L132.10 11.42ZM141.42 11.42L137.44 11.42L137.44 11.42L136.64 17.40Q136.52 18.32 137.04 18.96L137.04 18.96Q137.56 19.60 138.44 19.60L138.44 19.60L147.24 19.60L147.24 19.60Q147.30 18.94 146.91 18.47Q146.52 18 145.92 18L145.92 18L141.24 18Q140.96 18 140.76 17.80L140.76 17.80Q140.58 17.60 140.62 17.28L140.62 17.28L141.42 11.42ZM143.54 11.42L143.36 16.46L143.36 16.46L147.12 16.46L147.18 14.84Q147.20 13.40 146.28 12.41Q145.36 11.42 144.02 11.42L144.02 11.42L143.54 11.42ZM149.50 11.42L149.18 19.50L149.18 19.50L153 19.50L153.18 14.84Q153.20 13.40 152.28 12.41Q151.36 11.42 150.02 11.42L150.02 11.42L149.50 11.42ZM163.90 17.38L165.20 8.36L165.20 8.36L169.40 8.36L168.30 16.40Q168.24 16.82 168.48 17.10L168.48 17.10Q168.72 17.38 169.16 17.38L169.16 17.38L177.32 17.38Q178.26 17.38 178.84 18.04L178.84 18.04Q179.12 18.34 179.23 18.66Q179.34 18.98 179.32 19.44L179.32 19.44L179.28 19.54L165.82 19.54Q164.92 19.54 164.32 18.92L164.32 18.92Q163.76 18.28 163.90 17.38L163.90 17.38ZM156.58 5.12L162.72 5.12L162.72 5.12L160.98 17.26Q160.96 17.40 161.06 17.48L161.06 17.48Q161.16 17.58 161.32 17.54L161.32 17.54L162.06 17.50Q162.36 17.50 162.52 17.68L162.52 17.68Q162.68 17.86 162.66 18.14L162.66 18.14L162.48 19.38L158.20 19.60Q157.46 19.64 157.02 19.20L157.02 19.20Q156.56 18.74 156.66 18.04L156.66 18.04L158.20 7.40L157.18 7.40Q156.80 7.40 156.56 7.14L156.56 7.14Q156.34 6.88 156.38 6.50L156.38 6.50L156.58 5.12ZM159.06 0.74L161.84 0.74L161.84 0.74Q162.44 0.74 162.84 1.12L162.84 1.12Q163.24 1.50 163.24 2.08L163.24 2.08L163.24 4.16L159.70 4.16Q159.42 4.16 159.26 4.00L159.26 4.00Q159.08 3.82 159.06 3.54L159.06 3.54L159.06 0.74ZM166.06 1.56L166.16 0.84L166.16 0.84L181.64 0.84L180.58 8.14Q180.46 9.04 179.72 9.70L179.72 9.70Q178.96 10.34 178.02 10.34L178.02 10.34L169.70 10.34L169.98 8.36L175.34 8.36Q175.76 8.36 176.08 8.08L176.08 8.08Q176.42 7.80 176.48 7.40L176.48 7.40L177.08 2.88L167.22 2.88Q166.68 2.88 166.34 2.50L166.34 2.50Q166 2.12 166.06 1.56L166.06 1.56ZM200.24 2.70L192.40 6.94L192.40 6.94L190.96 16.92Q190.92 17.26 190.66 17.42L190.66 17.42Q190.38 17.60 190 17.60L190 17.60L187.20 17.60Q186.30 17.60 185.64 18.16Q184.98 18.72 184.84 19.60L184.84 19.60L184.84 19.60L192.56 19.60Q193.54 19.60 194.38 18.98L194.38 18.98Q195.20 18.36 195.38 17.22L195.38 17.22L196.64 8.34L207.06 2.86L207.36 0.74L184.68 0.74Q183.92 0.74 183.34 1.23Q182.76 1.72 182.64 2.48L182.64 2.48L182.60 2.70L200.24 2.70ZM216.58 7.06L214.74 7.06L214.74 7.06L215 5.28L220.52 5.28L219.52 12.38Q219.40 13.28 218.70 13.96L218.70 13.96Q217.96 14.60 217.08 14.60L217.08 14.60L213.18 14.60L212.78 17.36Q212.68 18.30 212 18.94L212 18.94Q211.28 19.60 210.40 19.60L210.40 19.60L208.38 19.60L211.08 0.74L215.16 0.74L213.42 12.80L214.84 12.80Q215.26 12.80 215.56 12.52L215.56 12.52Q215.86 12.24 215.90 11.82L215.90 11.82L216.58 7.06ZM220.48 2.72L215.36 2.72L215.36 2.72L215.64 0.74L221.30 0.74L221.10 2.14Q221.06 2.38 220.88 2.54L220.88 2.54Q220.70 2.72 220.48 2.72L220.48 2.72ZM222.30 0.74L226.40 0.74L226.40 0.74L224.02 17.36Q223.94 18.30 223.26 18.94L223.26 18.94Q222.52 19.60 221.64 19.60L221.64 19.60L219.62 19.60L222.30 0.74ZM232.70 2.72L226.58 2.72L226.58 2.72L226.88 0.74L233.64 0.74L233.46 2.04Q233.40 2.34 233.20 2.52L233.20 2.52Q232.98 2.72 232.70 2.72L232.70 2.72ZM226.18 5.56L233.04 5.56L233.04 5.56L232.78 7.58Q232.76 7.72 232.66 7.80L232.66 7.80Q232.56 7.88 232.42 7.88L232.42 7.88L231.92 7.88L230.30 19.16Q230.30 19.24 230.27 19.32Q230.24 19.40 230.18 19.46L230.18 19.46Q230.04 19.60 229.86 19.60L229.86 19.60L226.20 19.60L227.88 7.88L225.86 7.88L226.18 5.56ZM236.54 6.08L236.84 6.72L236.84 6.72Q237.08 7.28 237.48 7.62L237.48 7.62Q237.90 7.96 238.68 7.96L238.68 7.96L249.86 7.96L244.76 10.74L244.60 11.46L235.76 11.46Q235.32 11.46 235 11.68L235 11.68Q234.66 11.90 234.58 12.24L234.58 12.24L234.38 13.50L244.24 13.50L243.48 17.30Q243.44 17.54 243.20 17.72L243.20 17.72Q242.96 17.94 242.68 17.94L242.68 17.94L240.02 17.94Q239.56 17.94 239.22 18.12L239.22 18.12Q238.86 18.32 238.80 18.68L238.80 18.68L238.64 19.60L246.46 19.60Q247.34 19.60 248.06 19.08L248.06 19.08Q248.76 18.62 248.88 17.98L248.88 17.98L249.76 13.50L256.84 13.50Q257.30 13.50 257.64 13.20L257.64 13.20Q257.98 12.90 258.08 12.54L258.08 12.54L258.28 11.46L250.12 11.46L256.28 8.24Q256.68 8.02 256.84 7.60L256.84 7.60L257.34 6.08L236.54 6.08ZM259.64 2.50L258.10 2.50L258.10 2.50L258.88 0.76L255.06 0.76Q254.24 0.76 253.68 0.88L253.68 0.88Q253.14 1.02 252.84 1.70L252.84 1.70L252.48 2.50L250.50 2.50L250.78 0.74L245.64 0.74Q245.24 0.74 244.92 0.98L244.92 0.98Q244.62 1.22 244.54 1.60L244.54 1.60L244.40 2.50L242.46 2.50L242.24 0.74L237.84 0.74Q237.36 0.74 237.04 1.04L237.04 1.04Q236.72 1.36 236.76 1.78L236.76 1.78L236.88 2.50L236.16 2.50Q235.78 2.50 235.50 2.74L235.50 2.74Q235.22 2.96 235.16 3.32L235.16 3.32L234.86 5.68L239.82 5.68L240 4.20L253.62 4.20L253.02 5.68L257.56 5.68Q258.24 5.68 258.72 5.32L258.72 5.32Q259.22 4.94 259.34 4.34L259.34 4.34L259.64 2.50ZM265.46 1.38L265.46 1.38L265.46 1.38L265.40 1.66L262.42 1.66L260.42 17.14Q260.34 17.64 260.46 18.08L260.46 18.08Q260.56 18.54 260.84 18.88L260.84 18.88Q261.08 19.20 261.46 19.40L261.46 19.40Q261.84 19.60 262.28 19.60L262.28 19.60L269.06 19.60Q269.50 19.60 269.94 19.40L269.94 19.40Q270.36 19.20 270.72 18.88L270.72 18.88Q271.08 18.54 271.30 18.08L271.30 18.08Q271.54 17.62 271.60 17.14L271.60 17.14L273.60 1.66L270.16 1.66L270.30 0.74L266.12 0.74Q265.88 0.74 265.68 0.92L265.68 0.92Q265.50 1.10 265.46 1.38ZM268.76 10.74L267.88 17.56L267.88 17.56Q267.84 17.74 267.68 17.90L267.68 17.90Q267.54 18.04 267.34 18.04L267.34 18.04L264.18 18.04Q264 18.04 263.90 17.90L263.90 17.90Q263.76 17.74 263.78 17.56L263.78 17.56L264.68 10.74L268.76 10.74ZM269.76 3.14L268.96 9.16L268.96 9.16L264.88 9.16L265.70 3.14L269.76 3.14ZM285.08 1.58L285.08 1.58L285.08 1.58L278.52 1.58L278.84 0.74L275.74 0.74Q275.22 0.74 274.92 1.34L274.92 1.34L273.56 5.08L275.38 5.08Q277.02 5.08 277.92 3.34L277.92 3.34L281.46 3.34L279.64 17.30Q279.60 17.58 279.36 17.80L279.36 17.80Q279.14 18.02 278.86 18.02L278.86 18.02L276.64 18.02Q276.24 18.02 275.92 18.30L275.92 18.30Q275.62 18.60 275.56 19.04L275.56 19.04L275.48 19.60L281.24 19.60Q282.12 19.60 282.82 19.06L282.82 19.06Q283.54 18.52 283.68 17.44L283.68 17.44L285.64 2.26Q285.66 1.98 285.50 1.78L285.50 1.78Q285.36 1.58 285.08 1.58ZM275.42 11.14L278.86 12.98L278.86 12.98L279.64 10.54L275.12 7.98L274.68 8.76Q274.36 9.44 274.57 10.11Q274.78 10.78 275.42 11.14L275.42 11.14ZM311.48 9.10L311.48 9.10L311.48 9.10L311.64 7.94L289.06 7.94Q288.12 7.94 287.40 8.56L287.40 8.56Q286.70 9.18 286.56 10.12L286.56 10.12L286.38 11.30L308.96 11.30Q309.92 11.30 310.62 10.68L310.62 10.68Q311.34 10.08 311.48 9.10ZM315.24 4.10L313.62 4.10L313.62 4.10Q313.26 4.10 312.99 4.33Q312.72 4.56 312.66 4.92L312.66 4.92L312.52 5.86L315 5.86L313.36 17.36Q313.22 18.28 313.78 18.92L313.78 18.92Q314.34 19.58 315.28 19.58L315.28 19.58L319.98 19.58L320 19.40Q320.06 18.84 319.71 18.45Q319.36 18.06 318.82 18.06L318.82 18.06L318.24 18.06Q317.94 18.06 317.76 17.84L317.76 17.84Q317.56 17.62 317.60 17.32L317.60 17.32L319.24 5.86L321.22 5.86Q321.52 5.86 321.75 5.67Q321.98 5.48 322.02 5.18L322.02 5.18L322.18 4.10L319.48 4.10L319.96 0.74L316.60 0.74Q316.22 0.74 315.94 0.98Q315.66 1.22 315.60 1.60L315.60 1.60L315.24 4.10ZM325.18 2.96L320.82 19.60L320.82 19.60L320.82 19.60Q322.70 19.60 324.16 18.49Q325.62 17.38 326.12 15.56L326.12 15.56L329.40 2.96L333.04 2.96L331.06 16.84Q331 17.26 330.68 17.54L330.68 17.54Q330.36 17.82 329.92 17.82L329.92 17.82L329.20 17.82Q328.66 17.82 328.25 18.17Q327.84 18.52 327.76 19.06L327.76 19.06L327.68 19.58L332.66 19.58Q333.62 19.58 334.36 18.92L334.36 18.92Q335.10 18.28 335.24 17.36L335.24 17.36L337.56 1.04L324.10 1.04Q323.82 1.04 323.62 1.21Q323.42 1.38 323.38 1.66L323.38 1.66L323.18 2.96L325.18 2.96ZM362.62 2.12L362.48 4.58L362.48 4.58L345.22 18.54Q344 19.58 342.54 19.58L342.54 19.58L338.36 19.58L357.46 4.42L341.54 4.42Q340.90 4.42 340.52 3.88L340.52 3.88Q340.12 3.36 340.20 2.60L340.20 2.60L340.24 2.12L349.10 2.12L349.34 0.76L352.62 0.76Q353.16 0.76 353.39 1.06Q353.62 1.36 353.52 1.74L353.52 1.74L353.44 2.12L362.62 2.12ZM359.86 19.60L342.76 18.42L342.76 18.42L344.40 15.92L363.62 17.34L361.74 19.04Q360.88 19.66 359.86 19.60L359.86 19.60ZM371.60 2.58L371.86 0.70L371.86 0.70L389.60 0.70L389.60 0.70Q389.48 1.52 388.89 2.05Q388.30 2.58 387.50 2.58L387.50 2.58L371.60 2.58ZM370.88 3.10L370.88 3.18L370.88 3.18L370.72 4.34L389.10 4.34L389 5.12Q388.94 5.54 388.65 5.80Q388.36 6.06 387.96 6.06L387.96 6.06L370.48 6.06L368.94 17.28Q368.80 18.24 368.08 18.92L368.08 18.92Q367.34 19.60 366.44 19.60L366.44 19.60L364.44 19.60L364.74 17.40L364.88 16.28L364.90 16.24L366.94 1.22Q366.98 1 367.15 0.85Q367.32 0.70 367.54 0.70L367.54 0.70L371.22 0.70L371 2.30L370.98 2.36L370.88 3.10ZM376.32 9.48L376.56 7.66L376.56 7.66L388.16 7.66L386.82 17.54Q386.72 18.38 386.08 18.98L386.08 18.98Q385.44 19.60 384.64 19.60L384.64 19.60L371.92 19.60Q371.12 19.60 370.60 18.98L370.60 18.98Q370.10 18.38 370.20 17.54L370.20 17.54L371.56 7.66L375.74 7.66L375.52 9.32L375.36 10.42L375.36 10.48L374.42 17.40Q374.38 17.62 374.50 17.78L374.50 17.78Q374.62 17.94 374.80 17.94L374.80 17.94L382.20 17.94Q382.40 17.94 382.58 17.78L382.58 17.78Q382.76 17.62 382.80 17.40L382.80 17.40L383.90 9.48L376.32 9.48ZM398.60 7.06L396.76 7.06L396.76 7.06L397.02 5.28L402.54 5.28L401.54 12.38Q401.42 13.28 400.72 13.96L400.72 13.96Q399.98 14.60 399.10 14.60L399.10 14.60L395.20 14.60L394.80 17.36Q394.70 18.30 394.02 18.94L394.02 18.94Q393.30 19.60 392.42 19.60L392.42 19.60L390.40 19.60L393.10 0.74L397.18 0.74L395.44 12.80L396.86 12.80Q397.28 12.80 397.58 12.52L397.58 12.52Q397.88 12.24 397.92 11.82L397.92 11.82L398.60 7.06ZM402.50 2.72L397.38 2.72L397.38 2.72L397.66 0.74L403.32 0.74L403.12 2.14Q403.08 2.38 402.90 2.54L402.90 2.54Q402.72 2.72 402.50 2.72L402.50 2.72ZM404.32 0.74L408.42 0.74L408.42 0.74L406.04 17.36Q405.96 18.30 405.28 18.94L405.28 18.94Q404.54 19.60 403.66 19.60L403.66 19.60L401.64 19.60L404.32 0.74ZM414.72 2.72L408.60 2.72L408.60 2.72L408.90 0.74L415.66 0.74L415.48 2.04Q415.42 2.34 415.22 2.52L415.22 2.52Q415 2.72 414.72 2.72L414.72 2.72ZM408.20 5.56L415.06 5.56L415.06 5.56L414.80 7.58Q414.78 7.72 414.68 7.80L414.68 7.80Q414.58 7.88 414.44 7.88L414.44 7.88L413.94 7.88L412.32 19.16Q412.32 19.24 412.29 19.32Q412.26 19.40 412.20 19.46L412.20 19.46Q412.06 19.60 411.88 19.60L411.88 19.60L408.22 19.60L409.90 7.88L407.88 7.88L408.20 5.56ZM418.64 11.42L417.28 19.60L417.28 19.60L420.60 19.60Q420.96 19.60 421.24 19.36Q421.52 19.12 421.58 18.74L421.58 18.74L422.98 10.12L421.58 10.12L424.42 3.80L440.30 3.80Q440.74 3.80 441.08 3.51Q441.42 3.22 441.48 2.76L441.48 2.76L441.66 1.92L425.56 1.92L426.16 0.74L422.54 0.74Q421.88 0.74 421.48 1.38L421.48 1.38L421.20 1.92L418.24 1.92Q417.90 1.92 417.66 2.12Q417.42 2.32 417.38 2.64L417.38 2.64L417.16 3.80L420.08 3.80L416.40 11.42L418.64 11.42ZM430.02 11.12L424.48 11.12L424.48 11.12Q424.08 11.12 423.78 11.38Q423.48 11.64 423.42 12.04L423.42 12.04L423.30 12.96L429.78 12.96L429.18 17.28Q429.14 17.58 428.88 17.80L428.88 17.80Q428.64 18.02 428.34 18.02L428.34 18.02L427.06 18.02Q426.56 18.02 426.18 18.34Q425.80 18.66 425.72 19.18L425.72 19.18L425.66 19.60L430.80 19.60Q431.74 19.60 432.46 18.96L432.46 18.96Q433.20 18.30 433.32 17.40L433.32 17.40L433.96 12.96L439.16 12.96Q439.56 12.96 439.87 12.70Q440.18 12.44 440.24 12.04L440.24 12.04L440.36 11.12L434.20 11.12L434.24 10.78L440.76 6.80L441.16 4.62L424.92 4.62L424.92 4.62Q424.72 5.50 425.14 5.96Q425.56 6.42 426.20 6.42L426.20 6.42L435.76 6.42L430.20 9.86L430.02 11.12ZM444.78 7.94L442.40 19.60L442.40 19.60L444.56 19.60Q445.30 19.60 445.88 19.12L445.88 19.12Q446.50 18.60 446.68 17.80L446.68 17.80L448.76 7.94L444.78 7.94ZM444.44 4.12L444.34 4.84L444.34 4.84Q444.28 5.36 444.54 5.74L444.54 5.74Q444.78 6.12 445.26 6.22L445.26 6.22L448.88 6.92L449.12 5.00L444.44 4.12ZM444.88 0.74L444.80 1.44L444.80 1.44Q444.74 1.96 444.98 2.36L444.98 2.36Q445.24 2.72 445.68 2.82L445.68 2.82L449.30 3.52L449.56 1.64L444.88 0.74ZM467.46 5.24L461.20 5.24L461.20 5.24L461.46 2.88L466.38 2.88Q466.82 2.88 467.16 2.56L467.16 2.56Q467.50 2.24 467.56 1.78L467.56 1.78L467.66 1.16L452.38 1.16Q451.90 1.16 451.52 1.48L451.52 1.48Q451.14 1.80 451.06 2.30L451.06 2.30L450.98 2.88L457.08 2.88L456.82 5.24L451.20 5.24Q450.86 5.24 450.60 5.48L450.60 5.48Q450.34 5.72 450.28 6.08L450.28 6.08L450.16 6.98L456.58 6.98L456.24 9.04L454.98 9.04L454.74 10.78L462.12 10.78L461.20 17.20Q461.16 17.48 460.92 17.66L460.92 17.66Q460.66 17.88 460.40 17.88L460.40 17.88L453.84 17.88Q453.56 17.88 453.36 17.66L453.36 17.66Q453.18 17.46 453.20 17.20L453.20 17.20L454.10 10.92L454.10 10.88L454.16 10.46L454.16 10.42L454.36 9.04L450.30 9.04L449.14 17.18Q449.06 17.68 449.18 18.12L449.18 18.12Q449.32 18.56 449.64 18.88L449.64 18.88Q449.94 19.20 450.38 19.40L450.38 19.40Q450.82 19.60 451.36 19.60L451.36 19.60L462.38 19.60Q462.92 19.60 463.44 19.40L463.44 19.40Q463.92 19.22 464.34 18.88L464.34 18.88Q464.76 18.56 465.04 18.12L465.04 18.12Q465.32 17.68 465.42 17.18L465.42 17.18L466.58 9.04L460.64 9.04L460.96 6.98L466.38 6.98Q466.76 6.98 467.02 6.72L467.02 6.72Q467.28 6.44 467.34 6.04L467.34 6.04L467.46 5.24ZM468.56 3.44L475.74 3.44L475.74 3.44L473.46 19.62L478.22 19.62Q478.52 19.62 478.76 19.42Q479.00 19.22 479.04 18.90L479.04 18.90L481.30 3.44L492.46 3.44Q492.74 3.44 492.94 3.28L492.94 3.28Q493.14 3.10 493.18 2.82L493.18 2.82L493.46 0.74L469.82 0.74Q469.44 0.74 469.16 1L469.16 1Q468.86 1.26 468.80 1.64L468.80 1.64L468.56 3.44ZM489.12 17.16L491.08 17.16L491.08 17.16L487.24 7.92Q486.88 7.26 486.22 7.26L486.22 7.26L482.62 7.26L485.98 15.32Q486.90 17.22 489.12 17.16L489.12 17.16ZM509.16 11.18L511.80 11.18L511.80 11.18L513.50 18.54Q513.60 19 513.96 19.30L513.96 19.30Q514.30 19.60 514.74 19.60L514.74 19.60L517.68 19.60L515.80 11.18L518 11.18Q518.34 11.18 518.60 10.95Q518.86 10.72 518.92 10.36L518.92 10.36L519.08 9.26L509.44 9.26L510.22 3.32L518.62 3.32Q518.98 3.32 519.24 3.09Q519.50 2.86 519.56 2.52L519.56 2.52L519.68 1.52L510.48 1.52L510.58 0.74L507.12 0.74Q506.90 0.74 506.72 0.88L506.72 0.88Q506.56 1.04 506.52 1.28L506.52 1.28L506.50 1.52L498.12 1.52Q497.74 1.52 497.46 1.76L497.46 1.76Q497.20 2.00 497.14 2.42L497.14 2.42L497.02 3.32L506.26 3.32L505.44 9.26L496.30 9.26Q496.10 9.26 495.94 9.40L495.94 9.40Q495.78 9.56 495.74 9.78L495.74 9.78L495.56 11.18L498.56 11.18L494.42 19.60L495.50 19.60Q498.14 19.60 499.64 16.88L499.64 16.88L502.54 11.18L505.20 11.18L504.04 19.60L508.04 19.60L509.16 11.18ZM501.14 3.92L498.64 3.92L498.64 3.92L498.66 8.62L503.30 8.64L503.34 6.16Q503.30 5.22 502.66 4.58L502.66 4.58Q502.04 3.92 501.14 3.92L501.14 3.92ZM518.36 3.92L513.56 3.92L513.56 3.92L512.10 8.62L515.42 8.62Q516.74 8.62 517.36 7.16L517.36 7.16L518.36 3.92ZM525.50 1.38L525.50 1.38L525.50 1.38L525.44 1.66L522.46 1.66L520.46 17.14Q520.38 17.64 520.50 18.08L520.50 18.08Q520.60 18.54 520.88 18.88L520.88 18.88Q521.12 19.20 521.50 19.40L521.50 19.40Q521.88 19.60 522.32 19.60L522.32 19.60L529.10 19.60Q529.54 19.60 529.98 19.40L529.98 19.40Q530.40 19.20 530.76 18.88L530.76 18.88Q531.12 18.54 531.34 18.08L531.34 18.08Q531.58 17.62 531.64 17.14L531.64 17.14L533.64 1.66L530.20 1.66L530.34 0.74L526.16 0.74Q525.92 0.74 525.72 0.92L525.72 0.92Q525.54 1.10 525.50 1.38ZM528.80 10.74L527.92 17.56L527.92 17.56Q527.88 17.74 527.72 17.90L527.72 17.90Q527.58 18.04 527.38 18.04L527.38 18.04L524.22 18.04Q524.04 18.04 523.94 17.90L523.94 17.90Q523.80 17.74 523.82 17.56L523.82 17.56L524.72 10.74L528.80 10.74ZM529.80 3.14L529 9.16L529 9.16L524.92 9.16L525.74 3.14L529.80 3.14ZM545.12 1.58L545.12 1.58L545.12 1.58L538.56 1.58L538.88 0.74L535.78 0.74Q535.26 0.74 534.96 1.34L534.96 1.34L533.60 5.08L535.42 5.08Q537.06 5.08 537.96 3.34L537.96 3.34L541.50 3.34L539.68 17.30Q539.64 17.58 539.40 17.80L539.40 17.80Q539.18 18.02 538.90 18.02L538.90 18.02L536.68 18.02Q536.28 18.02 535.96 18.30L535.96 18.30Q535.66 18.60 535.60 19.04L535.60 19.04L535.52 19.60L541.28 19.60Q542.16 19.60 542.86 19.06L542.86 19.06Q543.58 18.52 543.72 17.44L543.72 17.44L545.68 2.26Q545.70 1.98 545.54 1.78L545.54 1.78Q545.40 1.58 545.12 1.58ZM535.46 11.14L538.90 12.98L538.90 12.98L539.68 10.54L535.16 7.98L534.72 8.76Q534.40 9.44 534.61 10.11Q534.82 10.78 535.46 11.14L535.46 11.14ZM561.04 0.76L549.52 0.76L549.52 0.76Q549.30 0.76 549.14 0.90L549.14 0.90Q548.98 1.06 548.94 1.30L548.94 1.30L548.78 2.42L550.94 2.42L550.32 5.30L549.18 5.30Q548.92 5.30 548.74 5.48L548.74 5.48Q548.54 5.66 548.50 5.94L548.50 5.94L548.36 7.14L549.96 7.14L548.84 11.92L548.32 11.92Q548.08 11.92 547.90 12.08L547.90 12.08Q547.74 12.24 547.70 12.50L547.70 12.50L547.54 13.76L548.48 13.76L547.16 19.60L549.64 19.60Q550.30 19.60 550.80 19.18L550.80 19.18Q551.32 18.76 551.48 18.08L551.48 18.08L552.44 13.76L555.28 13.76L554.80 17.28Q554.74 17.58 554.50 17.76L554.50 17.76Q554.26 17.94 553.98 17.94L553.98 17.94L553.72 17.94Q553.44 17.94 553.24 18.14L553.24 18.14Q553.02 18.32 552.98 18.62L552.98 18.62L552.84 19.60L556.86 19.60Q557.54 19.60 558.10 19.10L558.10 19.10Q558.66 18.58 558.74 17.86L558.74 17.86L561.04 0.76ZM556.18 7.14L555.50 11.92L555.50 11.92L552.80 11.92L553.86 7.14L556.18 7.14ZM556.80 2.42L556.40 5.30L556.40 5.30L554.22 5.30L554.92 2.42L556.80 2.42ZM561.68 4.10L559.62 19.58L559.62 19.58L563.50 19.58L565.66 3.42L562.46 3.42Q562.16 3.42 561.94 3.61Q561.72 3.80 561.68 4.10L561.68 4.10ZM569.16 7.58L570.88 1.76L570.88 1.76Q570.92 1.34 570.66 1.04Q570.40 0.74 570 0.74L570 0.74L562.70 0.74Q562.40 0.74 562.18 0.92L562.18 0.92Q561.98 1.08 561.92 1.40L561.92 1.40L561.76 2.60L567.40 2.60L565.78 8.50Q565.72 8.72 565.85 8.89Q565.98 9.06 566.18 9.06L566.18 9.06L566.54 9.06L565.26 18.86L566.60 18.86Q567.74 18.86 568.24 18.44L568.24 18.44Q568.74 18 568.86 16.90L568.86 16.90L570.04 8.04Q570.06 7.86 569.94 7.72Q569.82 7.58 569.64 7.58L569.64 7.58L569.16 7.58ZM597.54 9.10L597.54 9.10L597.54 9.10L597.70 7.94L575.12 7.94Q574.18 7.94 573.46 8.56L573.46 8.56Q572.76 9.18 572.62 10.12L572.62 10.12L572.44 11.30L595.02 11.30Q595.98 11.30 596.68 10.68L596.68 10.68Q597.40 10.08 597.54 9.10ZM612.84 1.52L612.70 2.52L612.70 2.52Q612.66 2.78 612.48 2.94Q612.30 3.10 612.06 3.10L612.06 3.10L600.22 3.10L600.38 2.12Q600.42 1.88 600.62 1.70Q600.82 1.52 601.04 1.52L601.04 1.52L604.68 1.52L604.80 0.74L608.16 0.74Q608.40 0.74 608.53 0.96Q608.66 1.18 608.62 1.46L608.62 1.46L608.62 1.52L612.84 1.52ZM607.54 10.72L604.06 10.72L604.06 10.72L604.28 9.14L611.68 9.14L610.54 17.48Q610.44 18.36 609.74 18.98L609.74 18.98Q609.06 19.60 608.18 19.60L608.18 19.60L600.36 19.60Q599.48 19.60 598.92 18.98L598.92 18.98Q598.36 18.36 598.46 17.48L598.46 17.48L599.58 9.14L603.66 9.14L602.56 17.34Q602.52 17.62 602.68 17.82L602.68 17.82Q602.82 18.02 603.12 18.02L603.12 18.02L605.82 18.02Q606.10 18.02 606.34 17.82L606.34 17.82Q606.60 17.62 606.64 17.34L606.64 17.34L607.54 10.72ZM609.18 3.74L612 3.74L612 3.74L611.02 6.92L612.46 6.92L612.32 7.98Q612.28 8.20 612.10 8.35Q611.92 8.50 611.72 8.50L611.72 8.50L599.40 8.50L599.54 7.42Q599.58 7.20 599.73 7.06Q599.88 6.92 600.08 6.92L600.08 6.92L600.82 6.92L600.70 3.74L603.62 3.74Q603.96 3.74 604.18 3.96Q604.40 4.18 604.42 4.52L604.42 4.52L604.46 6.92L607.34 6.92L608.06 4.62Q608.18 4.24 608.50 3.99Q608.82 3.74 609.18 3.74L609.18 3.74ZM615.06 0.90L623.70 0.90L623.70 0.90L623.44 2.62L621.82 7.56L622.72 7.56L621.40 16.84Q621.26 17.94 620.80 18.38L620.80 18.38Q620.32 18.80 619.24 18.80L619.24 18.80L617 18.80L618.60 7.56L617.68 7.56L619.30 2.64L618.22 2.64L618.20 2.64L617.90 2.64L614.10 2.64L614.28 1.58Q614.34 1.28 614.54 1.10L614.54 1.10Q614.78 0.90 615.06 0.90L615.06 0.90ZM615.62 3.42L615.62 3.42L615.62 3.42L617.84 3.42L615.52 19.60L611.74 19.60L613.84 5.00Q613.96 4.32 614.44 3.88L614.44 3.88Q614.96 3.42 615.62 3.42ZM629.52 1.38L626.38 6.58L626.38 6.58L627.40 6.58Q630.42 6.58 632.54 3.58L632.54 3.58L634.24 0.80L630.58 0.80Q629.96 0.80 629.52 1.38L629.52 1.38ZM646.70 17.40L646.70 17.40L646.70 17.40L647.98 8.12Q648.02 7.86 647.86 7.67Q647.70 7.48 647.44 7.48L647.44 7.48L626.84 7.48Q626.66 7.48 626.52 7.61Q626.38 7.74 626.36 7.92L626.36 7.92L626.14 9.44L630.68 9.44L624.72 19.60L625.04 19.60Q628.70 19.60 631.18 15.86L631.18 15.86L634.94 9.44L643.74 9.44L642.72 16.92Q642.66 17.24 642.42 17.44L642.42 17.44Q642.18 17.64 641.90 17.64L641.90 17.64L639.32 17.64Q638.70 17.64 638.22 18.08Q637.74 18.52 637.62 19.16L637.62 19.16L637.56 19.60L644.24 19.60Q645.16 19.60 645.86 18.94L645.86 18.94Q646.58 18.30 646.70 17.40ZM643.30 0.80L645 5.98L645 5.98Q645.30 6.58 645.94 6.58L645.94 6.58L649.56 6.58L647.94 1.58Q647.56 0.80 646.74 0.80L646.74 0.80L643.30 0.80ZM655.96 15.98L655.96 15.98L655.96 15.98Q656.10 16.46 656.02 17L656.02 17Q655.96 17.54 655.68 18.02L655.68 18.02Q655.42 18.48 655 18.84L655 18.84Q654.60 19.20 654.10 19.40L654.10 19.40Q653.60 19.60 653.06 19.60L653.06 19.60Q652.52 19.60 652.06 19.40L652.06 19.40Q651.62 19.20 651.32 18.84L651.32 18.84Q651.02 18.48 650.88 18.02L650.88 18.02Q650.74 17.54 650.80 17L650.80 17Q650.88 16.46 651.16 15.98L651.16 15.98Q651.44 15.50 651.84 15.16L651.84 15.16Q652.24 14.80 652.74 14.60L652.74 14.60Q653.26 14.38 653.80 14.38L653.80 14.38Q654.34 14.38 654.78 14.60L654.78 14.60Q655.22 14.80 655.52 15.16L655.52 15.16Q655.84 15.50 655.96 15.98ZM654.12 17.80L654.12 17.80L654.12 17.80Q654.50 17.46 654.56 17L654.56 17Q654.64 16.52 654.34 16.20L654.34 16.20Q654.04 15.86 653.58 15.86L653.58 15.86Q653.10 15.86 652.74 16.20L652.74 16.20Q652.36 16.52 652.28 17L652.28 17Q652.22 17.46 652.50 17.80L652.50 17.80Q652.78 18.14 653.26 18.14L653.26 18.14Q653.72 18.14 654.12 17.80Z"/></svg>