<svg xmlns="http://www.w3.org/2000/svg" xmlns:xlink="http://www.w3.org/1999/xlink" width="514.0999999999999" height="20"><path fill="black" d="M1.34 5.60L1.22 6.38L1.22 6.38L2.66 6.38L0.62 19.58L3.24 19.58Q3.34 19.58 3.42 19.60L3.42 19.60Q3.86 19.60 4.22 19.54L4.22 19.54Q4.60 19.46 4.84 19.12L4.84 19.12L4.92 19L22.80 19.56Q23.50 19.56 24.02 19.14L24.02 19.14Q24.54 18.72 24.64 18.04L24.64 18.04L6.54 17.48Q6.34 17.48 6.12 17.38L6.12 17.38Q5.88 17.28 5.72 17.14L5.72 17.14Q5.54 16.98 5.44 16.78L5.44 16.78Q5.34 16.56 5.38 16.32L5.38 16.32L7.02 4.88L2.20 4.88Q1.88 4.88 1.62 5.08L1.62 5.08Q1.40 5.28 1.34 5.60L1.34 5.60ZM6.20 4.46L7.08 2.30L7.08 2.30L3.04 0.78Q2.68 1.72 3.08 2.58L3.08 2.58Q3.48 3.44 4.46 3.82L4.46 3.82L6.20 4.46ZM12.92 5.00L8.38 5.00L8.38 5.00L13.06 10.96L7.32 16.86L10.38 16.86Q12.14 16.84 13.32 15.62L13.32 15.62L15.40 13.38L17.94 15.98Q18.72 16.82 19.80 16.82L19.80 16.82L23.86 16.82L17.84 10.80L23.72 3.76L19.50 3.76L15.52 8.44L12.92 5.00ZM18.62 0.90L15.08 0.90L15.08 0.90L14.84 2.26L9.22 2.26Q8.90 2.26 8.66 2.46L8.66 2.46Q8.46 2.64 8.42 2.92L8.42 2.92L8.24 4.04L24.10 4.04Q24.82 4.04 25.14 3.30L25.14 3.30L25.36 2.26L19.06 2.26L19.18 1.52Q19.20 1.26 19.04 1.08L19.04 1.08Q18.86 0.90 18.62 0.90L18.62 0.90ZM29.48 2.18L26.40 8.54L26.40 8.54L30 8.54Q30.84 8.54 31.34 7.66L31.34 7.66L33.54 2.96Q33.64 2.74 33.88 2.62L33.88 2.62Q34.12 2.52 34.32 2.52L34.32 2.52L45.36 2.52Q45.56 2.52 45.72 2.62L45.72 2.62Q45.90 2.74 45.94 2.96L45.94 2.96L46.90 7.42Q47 7.92 47.39 8.23Q47.78 8.54 48.28 8.54L48.28 8.54L51.66 8.54L50.22 2.18Q50.06 1.46 49.48 1.10L49.48 1.10Q48.94 0.74 48.22 0.74L48.22 0.74L31.84 0.74Q31.14 0.74 30.46 1.10L30.46 1.10Q29.82 1.46 29.48 2.18L29.48 2.18ZM37.04 5.76L37.04 5.76L37.04 5.76L35.08 19.60L39.86 19.60L41.96 4.64L38.30 4.64Q37.82 4.64 37.46 4.96L37.46 4.96Q37.12 5.26 37.04 5.76ZM54.66 2.98L53.78 2.98L53.78 2.98Q53.56 2.98 53.39 3.13Q53.22 3.28 53.18 3.50L53.18 3.50L52.92 5.36L54.32 5.36L52.62 17.38Q52.50 18.32 53.06 18.96L53.06 18.96Q53.62 19.58 54.52 19.58L54.52 19.58L75.14 19.58L75.18 19.20Q75.26 18.48 74.85 18Q74.44 17.52 73.74 17.52L73.74 17.52L57.60 17.52Q57.20 17.52 57.02 17.24L57.02 17.24Q56.86 16.96 56.92 16.54L56.92 16.54L58.48 5.36L61.44 5.36L60.24 13.96Q60.12 14.86 60.68 15.50L60.68 15.50Q61.24 16.16 62.14 16.16L62.14 16.16L71.08 16.16Q72 16.16 72.74 15.50L72.74 15.50Q73.46 14.86 73.60 13.96L73.60 13.96L74.80 5.36L76.36 5.36Q76.68 5.36 76.94 5.13Q77.20 4.90 77.26 4.56L77.26 4.56L77.48 2.98L75.14 2.98L75.46 0.74L72.02 0.74Q71.72 0.74 71.48 0.95Q71.24 1.16 71.18 1.48L71.18 1.48L70.98 2.98L65.94 2.98L66.26 0.74L62.72 0.74Q62.46 0.74 62.26 0.92Q62.06 1.10 62 1.38L62 1.38L61.78 2.98L58.82 2.98L59.08 1.18L55.62 1.18Q55.32 1.18 55.09 1.39Q54.86 1.60 54.80 1.90L54.80 1.90L54.66 2.98ZM68.40 14.24L68.40 14.24L68.40 14.24L65.34 14.24Q64.92 14.24 64.68 13.96L64.68 13.96Q64.44 13.68 64.50 13.26L64.50 13.26L65.62 5.36L70.64 5.36L69.52 13.26Q69.46 13.68 69.14 13.96L69.14 13.96Q68.82 14.24 68.40 14.24ZM93.48 19.58L94.20 13.60L94.20 13.60Q94.30 13.20 94.59 12.93Q94.88 12.66 95.24 12.66L95.24 12.66L98.14 12.66L97.40 18.74Q97.32 19.10 97.05 19.34Q96.78 19.58 96.48 19.58L96.48 19.58L93.48 19.58ZM83.14 19.58L81.72 19.58L81.72 19.58L84.22 13.36Q84.58 12.66 85.18 12.66L85.18 12.66L88.28 12.66L86.58 17.10Q85.26 19.58 83.14 19.58L83.14 19.58ZM100.86 10.44L100.86 10.44L100.86 10.44L102.48 15.28L101.14 15.28Q99.20 15.28 98.24 13.04L98.24 13.04L97.42 10.48L86.32 10.48L83.90 13.56Q82.16 15.60 80 15.60L80 15.60L78.34 15.60L82.48 10.40Q81.86 10.20 81.52 9.62L81.52 9.62Q81.18 9.04 81.30 8.26L81.30 8.26L82.26 0.74L86 0.74L85.48 4.74L90.52 4.74L90.84 2.18L86.38 2.18L86.58 0.74L103.54 0.74L102.58 8.26Q102.50 9.06 102 9.64L102 9.64Q101.52 10.22 100.86 10.44ZM85.58 9.06L89.98 9.06L89.98 9.06L90.32 6.34L85.28 6.34L85.04 8.34Q85 8.62 85.16 8.84L85.16 8.84Q85.32 9.06 85.58 9.06L85.58 9.06ZM98.84 8.34L98.84 8.34L98.84 8.34L99.10 6.34L94.06 6.34L93.72 9.06L98.10 9.06Q98.38 9.06 98.60 8.84L98.60 8.84Q98.80 8.62 98.84 8.34ZM94.26 4.74L99.30 4.74L99.30 4.74L99.62 2.18L94.58 2.18L94.26 4.74ZM112.84 17.48L105.54 17.48L105.54 17.48Q105.26 17.48 105.05 17.67Q104.84 17.86 104.80 18.16L104.80 18.16L104.62 19.62L126.94 19.62Q127.30 19.62 127.56 19.38Q127.82 19.14 127.86 18.78L127.86 18.78L128.02 17.48L117.24 17.48L118.62 7.34L127.08 7.34Q127.86 7.34 128.45 6.82Q129.04 6.30 129.16 5.50L129.16 5.50L129.20 5.20L118.90 5.20L119.40 1.64Q119.44 1.30 119.22 1.04Q119 0.78 118.66 0.78L118.66 0.78L115.12 0.78L112.84 17.48ZM135.50 1.38L135.50 1.38L135.50 1.38L135.44 1.66L132.46 1.66L130.46 17.14Q130.38 17.64 130.50 18.08L130.50 18.08Q130.60 18.54 130.88 18.88L130.88 18.88Q131.12 19.20 131.50 19.40L131.50 19.40Q131.88 19.60 132.32 19.60L132.32 19.60L139.10 19.60Q139.54 19.60 139.98 19.40L139.98 19.40Q140.40 19.20 140.76 18.88L140.76 18.88Q141.12 18.54 141.34 18.08L141.34 18.08Q141.58 17.62 141.64 17.14L141.64 17.14L143.64 1.66L140.20 1.66L140.34 0.74L136.16 0.74Q135.92 0.74 135.72 0.92L135.72 0.92Q135.54 1.10 135.50 1.38ZM138.80 10.74L137.92 17.56L137.92 17.56Q137.88 17.74 137.72 17.90L137.72 17.90Q137.58 18.04 137.38 18.04L137.38 18.04L134.22 18.04Q134.04 18.04 133.94 17.90L133.94 17.90Q133.80 17.74 133.82 17.56L133.82 17.56L134.72 10.74L138.80 10.74ZM139.80 3.14L139 9.16L139 9.16L134.92 9.16L135.74 3.14L139.80 3.14ZM155.12 1.58L155.12 1.58L155.12 1.58L148.56 1.58L148.88 0.74L145.78 0.74Q145.26 0.74 144.96 1.34L144.96 1.34L143.60 5.08L145.42 5.08Q147.06 5.08 147.96 3.34L147.96 3.34L151.50 3.34L149.68 17.30Q149.64 17.58 149.40 17.80L149.40 17.80Q149.18 18.02 148.90 18.02L148.90 18.02L146.68 18.02Q146.28 18.02 145.96 18.30L145.96 18.30Q145.66 18.60 145.60 19.04L145.60 19.04L145.52 19.60L151.28 19.60Q152.16 19.60 152.86 19.06L152.86 19.06Q153.58 18.52 153.72 17.44L153.72 17.44L155.68 2.26Q155.70 1.98 155.54 1.78L155.54 1.78Q155.40 1.58 155.12 1.58ZM145.46 11.14L148.90 12.98L148.90 12.98L149.68 10.54L145.16 7.98L144.72 8.76Q144.40 9.44 144.61 10.11Q144.82 10.78 145.46 11.14L145.46 11.14ZM158.52 8.54L156.96 19.60L156.96 19.60L161.14 19.60L162.90 7.02L161.72 7.02L164.38 0.74L160.56 0.74Q160.10 0.74 159.86 1.20L159.86 1.20L156.56 8.54L158.52 8.54ZM169.36 17.20L164.60 17.20L164.60 17.20Q164.20 17.20 163.89 17.48Q163.58 17.76 163.52 18.16L163.52 18.16L163.36 19.28L178.26 19.28Q178.48 19.28 178.67 19.11Q178.86 18.94 178.90 18.70L178.90 18.70L179.12 17.20L173.52 17.20L174.54 9.96L179.50 9.96Q180 9.96 180.39 9.62Q180.78 9.28 180.86 8.78L180.86 8.78L180.98 7.90L174.84 7.90L175.52 3.02L179.10 2.96Q179.98 2.92 180.65 2.33Q181.32 1.74 181.46 0.86L181.46 0.86L181.46 0.86L166.84 1.12Q166.44 1.14 166.13 1.41Q165.82 1.68 165.74 2.10L165.74 2.10L165.60 3.20L171.34 3.10L170.66 7.90L165.08 7.90Q164.80 7.90 164.59 8.09Q164.38 8.28 164.32 8.56L164.32 8.56L164.12 9.96L170.38 9.96L169.36 17.20ZM182.60 6.52L185.46 1.38L185.46 1.38Q185.86 0.74 186.54 0.74L186.54 0.74L190.12 0.74L187.76 4.98L188.94 4.98L187.02 18.68Q186.96 19.08 186.66 19.34Q186.36 19.60 185.96 19.60L185.96 19.60L182.72 19.60L184.56 6.52L182.60 6.52ZM190.76 2.76L190.84 2.08L190.84 2.08Q190.92 1.68 191.21 1.42Q191.50 1.16 191.90 1.16L191.90 1.16L207.68 1.16L207.58 1.84Q207.52 2.24 207.22 2.50Q206.92 2.76 206.52 2.76L206.52 2.76L206.36 2.76L204.30 17.40Q204.16 18.30 203.42 18.96L203.42 18.96Q202.68 19.60 201.78 19.60L201.78 19.60L195.40 19.60L195.40 19.60Q195.52 18.90 196.03 18.46Q196.54 18.02 197.24 18.02L197.24 18.02L199.20 18.02Q199.62 18.02 199.86 17.72L199.86 17.72Q200.12 17.44 200.18 17.04L200.18 17.04L202.18 2.76L190.76 2.76ZM197.46 16.62L197.46 16.62L197.46 16.62Q197.02 16.82 196.56 16.82L196.56 16.82L191.42 16.82Q190.96 16.82 190.58 16.62L190.58 16.62Q190.18 16.44 189.92 16.12L189.92 16.12Q189.66 15.78 189.54 15.34L189.54 15.34Q189.42 14.90 189.48 14.38L189.48 14.38L190.92 4.20L194.50 4.20L194.28 5.70L194.20 6.34L193.02 14.70Q192.98 14.94 193.14 15.14L193.14 15.14Q193.28 15.32 193.52 15.32L193.52 15.32L194.88 15.32Q195.12 15.32 195.32 15.14L195.32 15.14Q195.52 14.98 195.54 14.70L195.54 14.70L196.82 5.70L194.80 5.70L195 4.20L200.60 4.20L199.18 14.38Q199.10 14.88 198.86 15.32L198.86 15.32Q198.62 15.76 198.26 16.08L198.26 16.08Q197.90 16.42 197.46 16.62ZM233.52 9.10L233.52 9.10L233.52 9.10L233.68 7.94L211.10 7.94Q210.16 7.94 209.44 8.56L209.44 8.56Q208.74 9.18 208.60 10.12L208.60 10.12L208.42 11.30L231 11.30Q231.96 11.30 232.66 10.68L232.66 10.68Q233.38 10.08 233.52 9.10ZM241.34 2.38L241.86 7.80L241.86 7.80L237.88 7.80L236.96 0.76L236.96 0.78L239.60 0.78Q240.30 0.80 240.78 1.25Q241.26 1.70 241.34 2.38L241.34 2.38ZM234.42 19.58L237.82 8.62L237.82 8.62L241.76 8.62L241.76 8.62L238.64 18.76Q238.28 19.58 237.52 19.58L237.52 19.58L234.42 19.58ZM247.42 0.74L246.58 7.04L246.58 7.04Q246.36 7.76 245.68 7.76L245.68 7.76L242.80 7.76L243.64 1.66Q243.90 0.74 244.74 0.74L244.74 0.74L247.42 0.74ZM253.16 5.18L250.66 10.12L250.66 10.12L254.34 10.12L258.08 19.58L254.74 19.58Q253.88 19.58 253.46 18.70L253.46 18.70L250.30 10.68L246.98 17.24Q246.16 18.76 244.73 19.18Q243.30 19.60 241.32 19.60L241.32 19.60L248.34 6.44Q248.98 5.18 250.14 5.18L250.14 5.18L253.16 5.18ZM258.42 1.48L258.78 1.48L258.78 1.48Q259.18 1.48 259.45 1.73Q259.72 1.98 259.68 2.40L259.68 2.40L258.94 7.76L255.28 7.76L255.86 3.32L247.60 3.32L247.88 1.48L256.14 1.48L258.42 1.48ZM285.68 0.74L274.98 0.74L274.98 0.74L274.76 2.34L276.04 2.34L275.60 5.70L273.96 5.70L274.32 3.04L274.40 2.34L274.60 0.74L270.72 0.74L268.76 15.82L268.58 17.24L268.26 19.60L270.50 19.60Q270.82 19.60 271.16 19.42L271.16 19.42Q271.48 19.26 271.74 18.98L271.74 18.98Q272.00 18.66 272.20 18.32L272.20 18.32Q272.36 17.98 272.42 17.62L272.42 17.62L272.96 13.36L274.62 13.36L273.82 19.60L277.70 19.60L278.52 13.36L280.16 13.36L279.58 17.74Q279.56 17.90 279.46 18L279.46 18Q279.32 18.10 279.20 18.10L279.20 18.10L278.78 18.10L278.58 19.60L281.60 19.60Q282.10 19.60 282.42 19.42L282.42 19.42Q282.78 19.26 283.00 18.98L283.00 18.98Q283.22 18.66 283.32 18.32L283.32 18.32Q283.44 17.98 283.50 17.62L283.50 17.62L285.68 0.74ZM275.40 7.32L274.82 11.74L274.82 11.74L273.16 11.74L273.76 7.32L275.40 7.32ZM280.94 7.32L280.36 11.74L280.36 11.74L278.72 11.74L279.28 7.32L280.94 7.32ZM281.58 2.34L281.16 5.70L281.16 5.70L279.50 5.70L279.94 2.34L281.58 2.34ZM264.72 0.74L268.52 0.74L268.52 0.74L268.22 3.00L270.04 3.00L269.94 3.78Q269.88 4.20 269.60 4.46Q269.32 4.72 268.94 4.72L268.94 4.72L268.00 4.72L267.08 11.96L268.92 11.72L268.78 12.84Q268.72 13.22 268.49 13.47Q268.26 13.72 267.92 13.76L267.92 13.76L266.82 13.92L266.38 17.40Q266.26 18.30 265.60 18.94L265.60 18.94Q264.92 19.60 264.08 19.60L264.08 19.60L260.42 19.60L260.62 18L261.84 18Q262.10 18 262.32 17.78L262.32 17.78Q262.56 17.56 262.60 17.26L262.60 17.26L262.96 14.38L261.02 14.62L261.06 14.32Q261.16 13.58 261.62 13.08Q262.08 12.58 262.76 12.50L262.76 12.50L263.22 12.44L264.20 4.72L262.28 4.72L262.38 3.94Q262.44 3.52 262.72 3.26Q263.00 3.00 263.38 3.00L263.38 3.00L264.42 3.00L264.72 0.74ZM290.78 0.74L294.64 0.74L294.64 0.74L294.34 3.00L296.18 3.00L296.08 3.78Q296.02 4.20 295.74 4.46Q295.46 4.72 295.08 4.72L295.08 4.72L294.12 4.72L293.18 11.98L295.04 11.72L294.90 12.84Q294.84 13.22 294.60 13.47Q294.36 13.72 294.02 13.78L294.02 13.78L292.92 13.92L292.48 17.40Q292.36 18.30 291.66 18.96L291.66 18.96Q290.98 19.60 290.14 19.60L290.14 19.60L286.42 19.60L286.64 18.02L287.86 18.02Q288.12 18.02 288.36 17.80L288.36 17.80Q288.60 17.58 288.64 17.28L288.64 17.28L289.00 14.38L287.02 14.64L287.06 14.32Q287.18 13.58 287.65 13.09Q288.12 12.60 288.80 12.50L288.80 12.50L289.26 12.44L290.26 4.72L288.32 4.72L288.42 3.94Q288.48 3.52 288.76 3.26Q289.04 3.00 289.42 3.00L289.42 3.00L290.48 3.00L290.78 0.74ZM307.90 2.96L301.04 2.96L301.04 2.96L301.04 2.96Q300.62 3.82 299.84 3.82L299.84 3.82L296.82 3.82L297.96 0.86L301.86 0.86L301.66 1.38L311.68 1.38L309.96 14.64Q309.84 15.58 309.16 16.20L309.16 16.20Q308.48 16.84 307.64 16.84L307.64 16.84L304.10 16.84L304.14 16.48Q304.22 15.94 304.59 15.60Q304.96 15.26 305.44 15.26L305.44 15.26L305.64 15.26Q305.92 15.26 306.14 15.04L306.14 15.04Q306.36 14.84 306.40 14.52L306.40 14.52L307.90 2.96ZM299.80 17.92L299.80 17.92L299.80 17.92L308.42 17.92Q309.00 17.92 309.38 18.39Q309.76 18.86 309.68 19.52L309.68 19.52L309.68 19.52L297.30 19.52Q296.36 19.52 295.80 18.80L295.80 18.80Q295.24 18.10 295.36 17.06L295.36 17.06L297.00 4.46L300.64 4.46L300.44 6.04L300.36 6.60L299.56 12.84L301.14 12.84Q301.40 12.84 301.64 12.62L301.64 12.62Q301.86 12.42 301.90 12.10L301.90 12.10L302.70 6.04L300.96 6.04L301.18 4.46L306.52 4.46L305.50 12.22Q305.38 13.16 304.72 13.80L304.72 13.80Q304.04 14.42 303.20 14.42L303.20 14.42L299.34 14.42L299.02 16.94Q298.96 17.36 299.18 17.64L299.18 17.64Q299.42 17.92 299.80 17.92ZM313.06 7.90L316.36 7.90L316.36 7.90L312.54 11.90L313.92 11.90L313.24 17.06Q313.12 18.10 313.68 18.80L313.68 18.80Q314.26 19.50 315.22 19.50L315.22 19.50L322.24 19.50Q323.20 19.50 323.96 18.80L323.96 18.80Q324.70 18.10 324.82 17.06L324.82 17.06L325.84 9.44L318.68 9.44L320.02 7.90L326.38 7.90L326.62 6.14L325.38 6.14L326.26 4.68L323.26 4.68L322.22 6.14L321.80 6.14L322.20 3.18L326.24 3.18Q326.42 3.18 326.56 3.05Q326.70 2.92 326.72 2.74L326.72 2.74L326.90 1.42L322.42 1.42L322.50 0.78L319.14 0.80Q318.92 0.82 318.74 0.98L318.74 0.98Q318.58 1.14 318.54 1.38L318.54 1.38L318.52 1.42L315.02 1.42Q314.74 1.42 314.52 1.62L314.52 1.62Q314.30 1.84 314.26 2.14L314.26 2.14L314.12 3.18L318.30 3.18L317.90 6.14L313.84 6.14Q313.60 6.14 313.43 6.29Q313.26 6.44 313.24 6.68L313.24 6.68L313.06 7.90ZM320.54 17.70L320.54 17.70L320.54 17.70Q320.32 17.92 320.04 17.92L320.04 17.92L317.62 17.92Q317.38 17.92 317.18 17.74L317.18 17.74Q316.98 17.52 317.02 17.20L317.02 17.20L317.32 14.94L321.12 14.94L320.82 17.20Q320.78 17.48 320.54 17.70ZM321.32 13.36L317.52 13.36L317.52 13.36L317.84 11.02L321.64 11.02L321.32 13.36ZM331.64 3.72L329.26 19.60L329.26 19.60L325.40 19.60L327.56 5.20Q327.68 4.54 328.18 4.14L328.18 4.14Q328.68 3.72 329.36 3.72L329.36 3.72L331.64 3.72ZM328.78 1.12L328.78 1.12L328.78 1.12L337.58 1.12L337.32 2.96L335.68 7.84L336.60 7.84L335.26 17Q335.12 18.08 334.64 18.50L334.64 18.50Q334.16 18.94 333.06 18.94L333.06 18.94L330.78 18.94L332.40 7.84L331.48 7.84L333.12 2.94L332.02 2.94L331.70 2.94L327.84 2.94L328.02 1.74Q328.06 1.46 328.28 1.28L328.28 1.28Q328.50 1.12 328.78 1.12ZM342.08 15.88L341.58 19.58L341.58 19.58L345.58 19.58L348.14 0.76L344.76 0.76Q344.50 0.76 344.30 0.94Q344.10 1.12 344.04 1.40L344.04 1.40L343.80 3.14L340.40 2.40L340.22 3.68Q340.14 4.26 340.42 4.69Q340.70 5.12 341.24 5.26L341.24 5.26L343.46 5.74L342.48 12.92L339.46 14.28Q338.76 14.62 338.62 15.38L338.62 15.38L338.36 17.36L342.08 15.88ZM362.06 6.98L362.06 6.98L362.06 6.98L363.66 1.34L353.48 1.34L353.72 0.82L349.86 0.82Q349.72 0.82 349.62 0.98L349.62 0.98L348.56 3.52L352.10 3.52Q352.52 3.52 352.76 3.04L352.76 3.04L352.82 2.92L359.12 2.92L358.16 6.50Q358.02 6.96 357.68 7.18L357.68 7.18Q357.32 7.42 356.86 7.42L356.86 7.42L349.22 7.42Q348.88 7.42 348.61 7.66Q348.34 7.90 348.28 8.26L348.28 8.26L348.20 8.86L359.24 8.86Q360.30 8.86 361.02 8.44L361.02 8.44Q361.76 8.00 362.06 6.98ZM357.28 10.54L348.22 10.54L348.22 10.54Q348.02 10.54 347.88 10.68Q347.74 10.82 347.70 11L347.70 11L347.52 12.28L357.04 12.28L356.40 17Q356.34 17.42 356.04 17.70L356.04 17.70Q355.72 17.98 355.32 17.98L355.32 17.98L352.46 17.98Q352.16 17.98 351.92 18.19Q351.68 18.40 351.64 18.72L351.64 18.72L351.52 19.56L357.94 19.56Q358.82 19.56 359.54 18.92L359.54 18.92Q360.24 18.26 360.36 17.36L360.36 17.36L361.06 12.28L362.12 12.28Q362.26 12.28 362.37 12.19Q362.48 12.10 362.50 11.94L362.50 11.94L362.68 10.54L361.30 10.54L361.44 9.42L357.68 9.42Q357.58 9.42 357.50 9.49Q357.42 9.56 357.40 9.68L357.40 9.68L357.28 10.54ZM355.28 14.08L347.52 13.16L347.52 13.16L347.52 13.16Q347.44 13.86 347.80 14.35Q348.16 14.84 348.82 14.92L348.82 14.92L355.08 15.68L355.28 14.08ZM357.16 4.80L348.80 4.28L348.80 4.28L348.80 4.28Q348.72 4.96 349.08 5.42Q349.44 5.88 350.08 5.94L350.08 5.94L356.96 6.36L357.16 4.80ZM371.44 0.74L367.50 0.74L367.50 0.74Q367.32 0.74 367.18 0.85Q367.04 0.96 367.02 1.14L367.02 1.14L364.64 17.26Q364.48 18.34 365.14 18.96L365.14 18.96Q365.80 19.60 366.80 19.60L366.80 19.60L373.08 19.60L373.08 19.60Q373.18 18.74 372.61 18.12Q372.04 17.50 371.18 17.50L371.18 17.50L369.74 17.50Q368.96 17.50 369.06 16.84L369.06 16.84L371.44 0.74ZM377.86 5.14L372.30 3.20L372.30 3.20L372.26 3.48Q372.10 4.58 372.67 5.50Q373.24 6.42 374.34 6.82L374.34 6.82L378.10 8.14L378.42 6.04Q378.46 5.74 378.30 5.49Q378.14 5.24 377.86 5.14L377.86 5.14ZM382.42 11.18L383.98 16.12L383.98 16.12Q385.46 19.56 388.82 19.56L388.82 19.56L389.42 19.56L386.66 10.80Q386.32 10.02 385.56 10.02L385.56 10.02L383.00 10.02L387.52 0.74L383.86 0.74Q383.24 0.74 382.90 1.32L382.90 1.32L373.88 19.56L373.88 19.56Q377.86 19.56 380.10 15.80L380.10 15.80L382.42 11.18ZM409.80 18.88L409.82 19.32L409.82 19.32Q409.84 19.44 409.92 19.52Q410.00 19.60 410.12 19.60L410.12 19.60L413.94 19.60L413.56 13.12Q413.48 11.96 412.68 11.21Q411.88 10.46 410.78 10.46L410.78 10.46L409.32 10.46L409.72 17.36L405.86 17.74Q405.60 17.80 405.50 17.54L405.50 17.54Q405.40 17.32 405.48 17.06L405.48 17.06L409.38 7.92L405.62 7.92Q405.30 7.92 405.12 8.24L405.12 8.24L401.10 17.56Q400.98 17.94 401.00 18.30L401.00 18.30Q401.02 18.68 401.18 18.94L401.18 18.94Q401.34 19.22 401.60 19.38L401.60 19.38Q401.88 19.56 402.28 19.50L402.28 19.50L409.80 18.88ZM404.72 1.28L402.60 7.02L402.60 7.02L403.96 7.02Q406.30 7.02 407.44 4.54L407.44 4.54L408.80 0.82L405.38 0.82Q404.94 0.82 404.72 1.28L404.72 1.28ZM411.00 0.82L411.32 4.36L411.32 4.36Q411.44 5.52 412.25 6.27Q413.06 7.02 414.18 7.02L414.18 7.02L415.50 7.02L415.00 1.48Q414.98 1.20 414.77 1.01Q414.56 0.82 414.28 0.82L414.28 0.82L411.00 0.82ZM396.94 19.60L393.54 19.60L393.54 19.60L395.70 3.96L392.96 3.96L393.06 3.22Q393.12 2.86 393.39 2.62Q393.66 2.38 394.02 2.38L394.02 2.38L395.92 2.38L396.02 1.62Q396.08 1.24 396.36 0.99Q396.64 0.74 397.02 0.74L397.02 0.74L400.00 0.74L399.78 2.38L402.56 2.38L402.46 3.12Q402.40 3.50 402.13 3.73Q401.86 3.96 401.50 3.96L401.50 3.96L399.56 3.96L397.44 19.16Q397.42 19.34 397.28 19.47Q397.14 19.60 396.94 19.60L396.94 19.60ZM393.90 5.00L395.22 5.00L395.22 5.00L393.00 18.08Q392.88 18.74 392.38 19.17Q391.88 19.60 391.22 19.60L391.22 19.60L390.64 19.60L393.00 5.76Q393.06 5.42 393.31 5.21Q393.56 5.00 393.90 5.00L393.90 5.00ZM398.40 17.84L399.80 5.00L399.80 5.00L401.88 5.00L400.30 19.60L399.94 19.60Q399.24 19.60 398.79 19.08Q398.34 18.56 398.40 17.84L398.40 17.84ZM430.28 17.36L430.28 17.36L430.28 17.36L430.72 13.98L439.74 13.98Q439.94 13.98 440.09 13.84Q440.24 13.70 440.28 13.48L440.28 13.48L440.50 11.80L431.02 11.80L431.56 7.86L440.22 7.86Q440.44 7.86 440.61 7.70Q440.78 7.54 440.82 7.30L440.82 7.30L441.04 5.68L431.86 5.68L432.22 3.00L439.54 3.00Q440.42 3.00 441.11 2.37Q441.80 1.74 441.94 0.82L441.94 0.82L441.94 0.82L418.82 0.82Q418.62 0.82 418.47 0.96Q418.32 1.10 418.28 1.32L418.28 1.32L418.06 3.00L427.74 3.00L427.38 5.68L418.50 5.68Q418.26 5.68 418.07 5.85Q417.88 6.02 417.84 6.26L417.84 6.26L417.64 7.86L427.08 7.86L426.54 11.80L417.30 11.80Q417.10 11.80 416.94 11.94Q416.78 12.08 416.74 12.30L416.74 12.30L416.52 13.98L426.26 13.98L425.84 17.06Q425.80 17.38 425.56 17.60L425.56 17.60Q425.32 17.80 425.02 17.80L425.02 17.80L422.86 17.80Q422.26 17.80 421.80 18.22Q421.34 18.64 421.24 19.26L421.24 19.26L421.20 19.60L427.80 19.60Q428.70 19.60 429.42 18.96L429.42 18.96Q430.14 18.32 430.28 17.36ZM458.18 4.08L457.68 7.72L457.68 7.72L467.32 7.72L467.16 8.92Q467.08 9.30 466.77 9.62Q466.46 9.94 466.12 9.94L466.12 9.94L442.82 9.94L442.96 8.94Q443.04 8.46 443.38 8.09Q443.72 7.72 444.18 7.72L444.18 7.72L453.56 7.72L454.08 4.08L448.04 4.08L447.96 4.26Q447.62 5.18 446.86 5.74Q446.10 6.30 445.24 6.30L445.24 6.30L443.26 6.30L444.86 1.86Q445.00 1.50 445.30 1.29Q445.60 1.08 445.94 1.08L445.94 1.08L449.10 1.08L448.72 2.02L454.36 2.02L454.44 1.50Q454.48 1.18 454.69 0.97Q454.90 0.76 455.20 0.76L455.20 0.76L458.66 0.76L458.48 2.02L467.66 2.02L467.50 3.08Q467.42 3.52 467.09 3.80Q466.76 4.08 466.36 4.08L466.36 4.08L458.18 4.08ZM461.60 12.46L448.32 12.46L448.32 12.46L448.54 10.88L466.08 10.88L465.18 17.38Q465.04 18.30 464.30 18.94L464.30 18.94Q463.56 19.58 462.66 19.58L462.66 19.58L444.40 19.58Q443.48 19.58 442.96 18.94L442.96 18.94Q442.42 18.30 442.56 17.38L442.56 17.38L443.48 10.88L447.58 10.88L446.74 16.84Q446.68 17.26 446.92 17.54L446.92 17.54Q447.16 17.84 447.58 17.84L447.58 17.84L459.94 17.84Q460.36 17.84 460.64 17.54L460.64 17.54Q460.94 17.26 460.98 16.84L460.98 16.84L461.60 12.46ZM493.74 1.52L493.38 4.28L493.38 4.28L489.02 7.86L492.76 11.12L488.78 11.12Q487.20 11.12 485.94 9.92L485.94 9.92L485.94 9.92L485.38 10.32Q484.30 11.12 483.02 11.12L483.02 11.12L478.62 11.12L483.38 7.74L480.98 5.14L479.48 5.14L481.72 0.80L485.54 0.80L485.16 1.52L493.74 1.52ZM484.42 3.10L486.64 5.94L486.64 5.94L489.90 3.10L484.42 3.10ZM478.70 14.36L478.78 13.74L478.78 13.74Q478.86 13.18 479.26 12.84Q479.66 12.50 480.20 12.52L480.20 12.52L492.10 13.20L492.02 13.82Q491.92 14.38 491.53 14.72Q491.14 15.06 490.60 15.04L490.60 15.04L478.70 14.36ZM490.44 19.52L477.86 18.78L477.86 18.78L477.96 17.98Q478.04 17.50 478.37 17.21Q478.70 16.92 479.18 16.94L479.18 16.94L491.76 17.68L491.66 18.48Q491.58 18.96 491.24 19.25Q490.90 19.54 490.44 19.52L490.44 19.52ZM478.94 3.56L473.86 12.66L473.86 12.66L473.84 12.68Q473.74 12.82 473.74 12.92L473.74 12.92Q473.74 13.02 473.94 13L473.94 13L476.98 12.70Q477.20 12.70 477.34 12.82L477.34 12.82Q477.38 12.98 477.34 13.22L477.34 13.22L476.96 15.06L469.74 15.86Q469.40 15.88 469.26 15.60L469.26 15.60Q469.12 15.30 469.26 14.98L469.26 14.98L473.14 8.34L470.04 8.34Q469.70 8.34 469.56 8.08L469.56 8.08Q469.40 7.82 469.58 7.50L469.58 7.50L473.08 1.16Q473.30 0.74 473.92 0.74L473.92 0.74L476.22 0.74L473.12 6.44Q472.90 6.86 473.28 6.86L473.28 6.86L474.00 6.86L475.62 3.96Q475.88 3.56 476.20 3.56L476.20 3.56L478.94 3.56ZM469.00 17.70L469.00 17.70L469.00 17.70Q469.26 17.44 469.60 17.40L469.60 17.40L476.70 16.80L476.46 18.26Q476.42 18.52 476.18 18.72L476.18 18.72Q476.00 18.94 475.76 18.98L475.76 18.98L468.48 19.60L468.70 18.34Q468.76 17.96 469.00 17.70ZM500.00 15.98L500.00 15.98L500.00 15.98Q500.14 16.46 500.06 17L500.06 17Q500.00 17.54 499.72 18.02L499.72 18.02Q499.46 18.48 499.04 18.84L499.04 18.84Q498.64 19.20 498.14 19.40L498.14 19.40Q497.64 19.60 497.10 19.60L497.10 19.60Q496.56 19.60 496.10 19.40L496.10 19.40Q495.66 19.20 495.36 18.84L495.36 18.84Q495.06 18.48 494.92 18.02L494.92 18.02Q494.78 17.54 494.84 17L494.84 17Q494.92 16.46 495.20 15.98L495.20 15.98Q495.48 15.50 495.88 15.16L495.88 15.16Q496.28 14.80 496.78 14.60L496.78 14.60Q497.30 14.38 497.84 14.38L497.84 14.38Q498.38 14.38 498.82 14.60L498.82 14.60Q499.26 14.80 499.56 15.16L499.56 15.16Q499.88 15.50 500.00 15.98ZM498.16 17.80L498.16 17.80L498.16 17.80Q498.54 17.46 498.60 17L498.60 17Q498.68 16.52 498.38 16.20L498.38 16.20Q498.08 15.86 497.62 15.86L497.62 15.86Q497.14 15.86 496.78 16.20L496.78 16.20Q496.40 16.52 496.32 17L496.32 17Q496.26 17.46 496.54 17.80L496.54 17.80Q496.82 18.14 497.30 18.14L497.30 18.14Q497.76 18.14 498.16 17.80Z"/></svg>