<svg xmlns="http://www.w3.org/2000/svg" xmlns:xlink="http://www.w3.org/1999/xlink" width="508.02" height="20"><path fill="black" d="M21.20 2.60L19.48 2.60L19.48 2.60L19.70 0.74L25.38 0.74L23.20 17.38Q23.06 18.32 22.38 18.94L22.38 18.94Q21.68 19.60 20.82 19.60L20.82 19.60L14.36 19.60Q13.50 19.60 12.98 18.96L12.98 18.96Q12.44 18.32 12.54 17.40L12.54 17.40L14.76 0.74L18.74 0.74L16.56 17.26Q16.50 17.56 16.68 17.74L16.68 17.74Q16.88 17.92 17.16 17.92L17.16 17.92L18.44 17.92Q18.72 17.92 18.96 17.74L18.96 17.74Q19.08 17.62 19.16 17.46L19.16 17.46Q19.20 17.34 19.24 17.20L19.24 17.20L21.20 2.60ZM6.94 19.56L3.86 19.56L3.86 19.56L5.90 6.00L2.46 6.00L2.54 5.44Q2.62 4.98 2.98 4.69Q3.34 4.40 3.82 4.40L3.82 4.40L6.14 4.40L6.44 2.36L3.16 2.36L3.24 1.82Q3.32 1.34 3.69 1.04Q4.06 0.74 4.56 0.74L4.56 0.74L13.66 0.74L13.58 1.24Q13.50 1.72 13.12 2.04Q12.74 2.36 12.22 2.36L12.22 2.36L10.16 2.36L9.86 4.40L13.28 4.40L13.20 4.94Q13.12 5.40 12.76 5.70Q12.40 6.00 11.92 6.00L11.92 6.00L9.62 6.00L7.68 18.94Q7.64 19.22 7.43 19.39Q7.22 19.56 6.94 19.56L6.94 19.56ZM10.06 6.96L11.88 6.96L11.88 6.96Q12.12 6.96 12.29 7.13Q12.46 7.30 12.44 7.54L12.44 7.54L10.90 19.56L10.90 19.56Q9.92 19.56 9.29 18.88Q8.66 18.20 8.74 17.26L8.74 17.26L10.06 6.96ZM3.40 6.96L5.16 6.96L5.16 6.96L3.36 17.30Q3.18 18.30 2.39 18.93Q1.60 19.56 0.56 19.56L0.56 19.56L0.56 19.56L2.64 7.56Q2.68 7.30 2.89 7.13Q3.10 6.96 3.40 6.96L3.40 6.96ZM38.92 8.76L35.22 9.98L35.22 9.98L35.22 10.06L39.02 9.96L38.92 10.68Q38.88 10.98 38.67 11.17Q38.46 11.36 38.16 11.38L38.16 11.38L35.02 11.46L34.88 12.40Q34.80 13.06 34.28 13.54L34.28 13.54Q33.74 14.00 33.10 14.00L33.10 14.00L27.90 14.00L27.92 13.78Q28 13.32 28.35 13.01Q28.70 12.70 29.16 12.70L29.16 12.70L30.68 12.70Q30.84 12.70 30.94 12.60L30.94 12.60Q31.06 12.48 31.08 12.34L31.08 12.34L31.18 11.52L27.04 11.62L27.14 10.92Q27.18 10.62 27.40 10.42Q27.62 10.22 27.92 10.22L27.92 10.22L31.38 10.14L31.44 9.66L34.48 8.76L28.66 8.76Q28.28 8.76 28.03 8.47Q27.78 8.18 27.82 7.78L27.82 7.78L27.86 7.46L39.10 7.46L38.92 8.76ZM35.84 5.52L36.02 3.86L36.02 3.86L32.32 3.86L32.48 2.72L39.76 2.72L39.44 5.42Q39.34 6.08 38.80 6.54L38.80 6.54Q38.26 7.02 37.64 7.02L37.64 7.02L29.50 7.02Q28.84 7.02 28.44 6.54L28.44 6.54Q28.04 6.08 28.14 5.42L28.14 5.42L28.48 2.72L32.10 2.72L31.78 5.28L31.76 5.52Q31.74 5.66 31.82 5.78L31.82 5.78Q31.92 5.88 32.06 5.88L32.06 5.88L35.42 5.88Q35.60 5.88 35.70 5.78L35.70 5.78Q35.82 5.66 35.84 5.52L35.84 5.52ZM32.42 0.72L35.90 0.72L35.90 0.72Q36.08 0.72 36.19 0.85Q36.30 0.98 36.28 1.16L36.28 1.16L36.28 1.16L40.20 1.16L40.10 1.84Q40.06 2.08 39.88 2.24Q39.70 2.40 39.46 2.40L39.46 2.40L28.28 2.40L28.38 1.72Q28.40 1.46 28.58 1.31Q28.76 1.16 29 1.16L29 1.16L32.36 1.16L32.42 0.72ZM50.48 12.44L50.48 12.44L50.48 12.44L50.84 12.44L50.62 14.00L48.40 14.00Q47.48 14.00 46.90 13.50L46.90 13.50Q46.34 13 46.50 11.90L46.50 11.90L47.68 3.02L45.76 3.02L44.68 7.56L46.40 7.78L46.22 9.18L44.30 8.94L43.80 10.64Q42.42 14.00 39.34 14.00L39.34 14.00L39.24 14.00L40.82 8.46L40.82 8.46Q40.34 8.38 40.06 8.00Q39.78 7.62 39.82 7.12L39.82 7.12L39.86 6.92L41.22 7.12L42.18 3.02L40.42 3.02L40.60 1.80Q40.62 1.66 40.71 1.58Q40.80 1.50 40.92 1.50L40.92 1.50L42.64 1.50L42.76 1.06Q42.92 0.72 43.22 0.72L43.22 0.72L46.44 0.72L46.22 1.50L51.46 1.50L50.06 11.94Q50.04 12.14 50.16 12.28L50.16 12.28Q50.28 12.44 50.48 12.44ZM31.24 17.94L31.24 17.94L31.24 17.94L32.34 14.68L28.24 14.68L26.56 19.60L28.66 19.60Q29.52 19.60 30.24 19.14L30.24 19.14Q30.98 18.66 31.24 17.94ZM34.18 19.60L38.28 19.60L38.28 19.60L38.18 15.94Q38.14 15.38 37.70 15.02L37.70 15.02Q37.28 14.68 36.62 14.68L36.62 14.68L34.02 14.68L34.18 19.60ZM40.32 19.60L44.44 19.60L44.44 19.60L44.32 15.96Q44.28 15.38 43.84 15.02L43.84 15.02Q43.40 14.68 42.74 14.68L42.74 14.68L40.18 14.68L40.32 19.60ZM46.36 19.60L50.48 19.60L50.48 19.60L50.34 15.74Q50.32 15.26 49.96 14.96L49.96 14.96Q49.58 14.68 49.02 14.68L49.02 14.68L46.24 14.68L46.36 19.60ZM54.04 12.16L52.38 19.60L52.38 19.60L53.22 19.60Q54.54 19.60 55.56 18.76Q56.58 17.92 56.90 16.58L56.90 16.58L57.88 12.16L54.04 12.16ZM63.64 7.22L63.02 11.64L63.02 11.64L67.08 11.64L67.68 7.22L76.18 7.22Q76.56 7.22 76.84 6.96Q77.12 6.70 77.20 6.32L77.20 6.32L77.28 5.62L75.26 5.62L75.98 2.82L73.52 2.82Q72.82 2.82 72.27 3.26Q71.72 3.70 71.52 4.40L71.52 4.40L71.22 5.62L67.90 5.62L68.34 2.32L76.52 2.32Q76.90 2.32 77.19 2.07Q77.48 1.82 77.56 1.40L77.56 1.40L77.64 0.74L56.36 0.74Q55.98 0.74 55.69 1Q55.40 1.26 55.34 1.66L55.34 1.66L55.24 2.32L64.30 2.32L63.84 5.62L60.54 5.62L60.54 4.98Q60.54 4.06 59.94 3.44Q59.34 2.82 58.48 2.82L58.48 2.82L56.56 2.82L56.52 5.62L55.38 5.62Q55 5.62 54.71 5.87Q54.42 6.12 54.36 6.52L54.36 6.52L54.26 7.22L63.64 7.22ZM58.76 10.14L60.14 7.88L60.14 7.88L56.04 7.88L53.74 11.64L56.14 11.64Q57.74 11.64 58.76 10.14L58.76 10.14ZM63.34 12.16L59.28 12.16L59.28 12.16L58.58 17.38Q58.44 18.32 58.98 18.96L58.98 18.96Q59.52 19.60 60.42 19.60L60.42 19.60L70.32 19.60L70.38 19.18Q70.44 18.70 70.15 18.35Q69.86 18 69.40 18L69.40 18L63.26 18Q62.94 18 62.78 17.80L62.78 17.80Q62.60 17.58 62.64 17.26L62.64 17.26L63.34 12.16ZM65.46 12.16L65.48 16.70L65.48 16.70L69.30 16.70L69.30 14.56Q69.30 13.56 68.62 12.86Q67.94 12.16 66.96 12.16L66.96 12.16L65.46 12.16ZM76.38 11.64L75.12 7.88L75.12 7.88L71 7.88L71.54 9.50Q72.50 11.64 74.48 11.64L74.48 11.64L76.38 11.64ZM71.52 12.16L71.50 19.60L71.50 19.60L75.40 19.60L75.42 14.56Q75.40 13.54 74.73 12.85Q74.06 12.16 73.08 12.16L73.08 12.16L71.52 12.16ZM83.46 1.38L83.46 1.38L83.46 1.38L83.40 1.66L80.42 1.66L78.42 17.14Q78.34 17.64 78.46 18.08L78.46 18.08Q78.56 18.54 78.84 18.88L78.84 18.88Q79.08 19.20 79.46 19.40L79.46 19.40Q79.84 19.60 80.28 19.60L80.28 19.60L87.06 19.60Q87.50 19.60 87.94 19.40L87.94 19.40Q88.36 19.20 88.72 18.88L88.72 18.88Q89.08 18.54 89.30 18.08L89.30 18.08Q89.54 17.62 89.60 17.14L89.60 17.14L91.60 1.66L88.16 1.66L88.30 0.74L84.12 0.74Q83.88 0.74 83.68 0.92L83.68 0.92Q83.50 1.10 83.46 1.38ZM86.76 10.74L85.88 17.56L85.88 17.56Q85.84 17.74 85.68 17.90L85.68 17.90Q85.54 18.04 85.34 18.04L85.34 18.04L82.18 18.04Q82 18.04 81.90 17.90L81.90 17.90Q81.76 17.74 81.78 17.56L81.78 17.56L82.68 10.74L86.76 10.74ZM87.76 3.14L86.96 9.16L86.96 9.16L82.88 9.16L83.70 3.14L87.76 3.14ZM103.08 1.58L103.08 1.58L103.08 1.58L96.52 1.58L96.84 0.74L93.74 0.74Q93.22 0.74 92.92 1.34L92.92 1.34L91.56 5.08L93.38 5.08Q95.02 5.08 95.92 3.34L95.92 3.34L99.46 3.34L97.64 17.30Q97.60 17.58 97.36 17.80L97.36 17.80Q97.14 18.02 96.86 18.02L96.86 18.02L94.64 18.02Q94.24 18.02 93.92 18.30L93.92 18.30Q93.62 18.60 93.56 19.04L93.56 19.04L93.48 19.60L99.24 19.60Q100.12 19.60 100.82 19.06L100.82 19.06Q101.54 18.52 101.68 17.44L101.68 17.44L103.64 2.26Q103.66 1.98 103.50 1.78L103.50 1.78Q103.36 1.58 103.08 1.58ZM93.42 11.14L96.86 12.98L96.86 12.98L97.64 10.54L93.12 7.98L92.68 8.76Q92.36 9.44 92.57 10.11Q92.78 10.78 93.42 11.14L93.42 11.14ZM128.42 2.98L128.42 2.98L128.42 2.98L119.42 2.98L119.36 3.54L128.50 3.54L128.10 6.48Q128 7.28 127.38 7.86L127.38 7.86Q126.74 8.44 125.96 8.44L125.96 8.44L118.68 8.44L118.58 9.18L127.74 9.18L127.32 12.28L128.02 12.28L127.86 13.50Q127.82 13.68 127.69 13.80Q127.56 13.92 127.40 13.92L127.40 13.92L127.10 13.92L126.98 14.78Q126.84 15.72 126.12 16.36L126.12 16.36Q125.36 17 124.48 17L124.48 17L117.52 17L117.44 17.52Q117.40 17.96 117.21 18.27Q117.02 18.58 116.68 18.90L116.68 18.90Q116 19.56 115.12 19.56L115.12 19.56L110.12 19.56L110.18 19.22Q110.26 18.74 110.61 18.42Q110.96 18.10 111.40 18.10L111.40 18.10L112.80 18.10Q113.10 18.10 113.34 17.84L113.34 17.84Q113.38 17.80 113.40 17.78L113.40 17.78Q113.48 17.72 113.52 17.66Q113.56 17.60 113.58 17.48L113.58 17.48L113.64 17L104.66 17L104.86 15.60Q104.88 15.42 105.02 15.30Q105.16 15.18 105.32 15.18L105.32 15.18L113.90 15.18L114.06 13.92L104.56 13.92L104.70 12.86Q104.74 12.62 104.93 12.45Q105.12 12.28 105.36 12.28L105.36 12.28L114.28 12.28L114.46 11L105.66 11L105.84 9.64Q105.88 9.44 106.02 9.31Q106.16 9.18 106.36 9.18L106.36 9.18L114.70 9.18L114.80 8.44L108.02 8.44Q107.26 8.44 106.80 7.86L106.80 7.86Q106.32 7.28 106.44 6.48L106.44 6.48L106.84 3.54L110.72 3.54L110.52 4.98L110.52 5.02L110.48 5.28L110.48 5.36L110.32 6.50Q110.30 6.70 110.42 6.84L110.42 6.84Q110.56 7.00 110.74 7.00L110.74 7.00L115 7.00L115.28 4.98L110.88 4.98L111.08 3.54L115.48 3.54L115.56 2.98L106.22 2.98L106.38 1.72Q106.42 1.48 106.60 1.32Q106.78 1.16 107 1.16L107 1.16L115.80 1.16Q115.84 1.02 115.97 0.91Q116.10 0.80 116.26 0.80L116.26 0.80L119.72 0.80L119.68 1.16L129.54 1.16L129.40 2.08Q129.34 2.46 129.06 2.72Q128.78 2.98 128.42 2.98ZM123.14 14.48L123.14 14.48L123.14 14.48L123.22 13.92L117.94 13.92L117.76 15.18L122.30 15.18Q122.58 15.18 122.84 15.00L122.84 15.00Q123.10 14.78 123.14 14.48ZM123.44 12.28L123.62 11L123.62 11L118.34 11L118.16 12.28L123.44 12.28ZM124.22 6.50L124.44 4.98L124.44 4.98L119.16 4.98L118.88 7.00L123.64 7.00Q123.82 7.00 124.02 6.84L124.02 6.84Q124.20 6.70 124.22 6.50L124.22 6.50ZM133.34 15.02L132.70 19.60L132.70 19.60L136.08 19.60Q136.26 19.60 136.42 19.47Q136.58 19.34 136.60 19.14L136.60 19.14L137.22 14.78L138.36 14.72Q138.60 14.70 138.76 14.54Q138.92 14.38 138.96 14.16L138.96 14.16L139.18 12.64L137.50 12.74L138.54 5.24L139.66 5.24Q139.84 5.24 139.98 5.12Q140.12 5.00 140.14 4.82L140.14 4.82L140.40 3.20L138.82 3.20L139.16 0.74L136.12 0.74Q135.80 0.74 135.53 0.97Q135.26 1.20 135.22 1.56L135.22 1.56L134.98 3.20L134.48 3.20L134.80 1.34L132.94 1.34Q132.76 1.34 132.61 1.47Q132.46 1.60 132.42 1.80L132.42 1.80L131.26 8.50L131.26 8.50Q132.22 8.50 133 7.83Q133.78 7.16 133.98 6.18L133.98 6.18L134.14 5.24L134.68 5.24L133.64 12.96L131.08 13.10Q130.90 13.12 130.77 13.24Q130.64 13.36 130.62 13.54L130.62 13.54L130.38 15.18L133.34 15.02ZM145.48 1.48L145.80 0.74L145.80 0.74L141.80 0.74L140.48 4.60L143.52 4.60Q143.94 4.60 144.28 4.35Q144.62 4.10 144.78 3.70L144.78 3.70L144.78 3.70L151.72 3.70L149.86 17.16Q149.82 17.46 149.58 17.68L149.58 17.68Q149.36 17.90 149.04 17.90L149.04 17.90L148.90 17.90Q148.50 17.90 148.19 18.18Q147.88 18.46 147.82 18.88L147.82 18.88L147.74 19.48L151.10 19.48Q152 19.48 152.72 18.94L152.72 18.94Q153.46 18.40 153.60 17.32L153.60 17.32L155.64 2.64Q155.68 2.16 155.40 1.82Q155.12 1.48 154.66 1.48L154.66 1.48L145.48 1.48ZM143 16.16L145.78 5.16L145.78 5.16L142.12 5.16L138.54 19.48L138.88 19.48Q140.26 19.48 141.43 18.54Q142.60 17.60 143 16.16L143 16.16ZM147.86 16.34L150.68 5.16L150.68 5.16L147 5.16L143.40 19.48L143.94 19.48Q145.26 19.48 146.36 18.59Q147.46 17.70 147.86 16.34L147.86 16.34ZM172.08 4.08L171.58 7.72L171.58 7.72L181.22 7.72L181.06 8.92Q180.98 9.30 180.67 9.62Q180.36 9.94 180.02 9.94L180.02 9.94L156.72 9.94L156.86 8.94Q156.94 8.46 157.28 8.09Q157.62 7.72 158.08 7.72L158.08 7.72L167.46 7.72L167.98 4.08L161.94 4.08L161.86 4.26Q161.52 5.18 160.76 5.74Q160 6.30 159.14 6.30L159.14 6.30L157.16 6.30L158.76 1.86Q158.90 1.50 159.20 1.29Q159.50 1.08 159.84 1.08L159.84 1.08L163 1.08L162.62 2.02L168.26 2.02L168.34 1.50Q168.38 1.18 168.59 0.97Q168.80 0.76 169.10 0.76L169.10 0.76L172.56 0.76L172.38 2.02L181.56 2.02L181.40 3.08Q181.32 3.52 180.99 3.80Q180.66 4.08 180.26 4.08L180.26 4.08L172.08 4.08ZM175.50 12.46L162.22 12.46L162.22 12.46L162.44 10.88L179.98 10.88L179.08 17.38Q178.94 18.30 178.20 18.94L178.20 18.94Q177.46 19.58 176.56 19.58L176.56 19.58L158.30 19.58Q157.38 19.58 156.86 18.94L156.86 18.94Q156.32 18.30 156.46 17.38L156.46 17.38L157.38 10.88L161.48 10.88L160.64 16.84Q160.58 17.26 160.82 17.54L160.82 17.54Q161.06 17.84 161.48 17.84L161.48 17.84L173.84 17.84Q174.26 17.84 174.54 17.54L174.54 17.54Q174.84 17.26 174.88 16.84L174.88 16.84L175.50 12.46ZM188.56 2.56L188.62 2.24L188.62 2.24L188.62 2.24L188.56 2.56ZM195.02 8.02L185.66 8.02L185.66 8.02Q184.88 8.02 184.40 7.44L184.40 7.44Q183.94 6.86 184.06 6.06L184.06 6.06L184.80 0.80L188.84 0.80L188.62 2.24L188.62 2.24L188.56 2.56L188.56 2.56L188.56 2.56L188.06 6.08Q188.04 6.28 188.16 6.42L188.16 6.42Q188.28 6.56 188.48 6.56L188.48 6.56L192.62 6.56Q192.80 6.56 192.96 6.42L192.96 6.42Q193.12 6.28 193.16 6.08L193.16 6.08L193.70 2.24L189.38 2.24L189.60 0.80L197.88 0.80L197.14 6.06Q197.02 6.86 196.40 7.44L196.40 7.44Q195.78 8.02 195.02 8.02L195.02 8.02ZM200.70 1.10L202.32 1.10L202.32 1.10L200.48 14.68Q200.34 15.62 199.65 16.24Q198.96 16.86 198.02 16.86L198.02 16.86L196.92 16.86L198.82 2.80Q198.94 2.06 199.47 1.58Q200 1.10 200.70 1.10L200.70 1.10ZM204.82 0.74L204.82 0.74L204.82 0.74L207.64 0.74L205.38 17.38Q205.26 18.28 204.56 18.94L204.56 18.94Q203.84 19.60 202.98 19.60L202.98 19.60L197.40 19.60L197.46 19.08Q197.54 18.60 197.88 18.30Q198.22 18 198.68 18L198.68 18L200.58 18Q200.88 18 201.12 17.78L201.12 17.78Q201.34 17.56 201.38 17.26L201.38 17.26L203.46 1.96Q203.54 1.42 203.92 1.08Q204.30 0.74 204.82 0.74ZM185.88 8.82L189.76 8.82L189.76 8.82L189.54 9.58L196.60 9.58L195.54 17.38Q195.42 18.28 194.74 18.94L194.74 18.94Q194.04 19.60 193.14 19.60L193.14 19.60L188.96 19.60L189.18 18L190.92 18Q191.20 18 191.44 17.78L191.44 17.78Q191.66 17.56 191.70 17.26L191.70 17.26L192.54 11.18L189.06 11.18L187.18 16.66Q185.92 19.60 183.26 19.60L183.26 19.60L182.38 19.60L185.18 11.18L184.10 11.18Q183.80 11.18 183.59 10.94Q183.38 10.70 183.42 10.36L183.42 10.36L183.52 9.58L185.66 9.58L185.88 8.82ZM208.38 19.60L208.38 19.60L208.38 19.60L211.22 19.60Q211.80 18.94 212.41 17.92Q213.02 16.90 213.50 15.82L213.50 15.82Q213.82 15.00 213.37 14.31Q212.92 13.62 212.08 13.62L212.08 13.62L212.08 13.62Q211.04 13.62 210.58 14.76L210.58 14.76Q210.20 16.02 209.59 17.35Q208.98 18.68 208.38 19.60ZM229.34 5.60L229.22 6.38L229.22 6.38L230.66 6.38L228.62 19.58L231.24 19.58Q231.34 19.58 231.42 19.60L231.42 19.60Q231.86 19.60 232.22 19.54L232.22 19.54Q232.60 19.46 232.84 19.12L232.84 19.12L232.92 19L250.80 19.56Q251.50 19.56 252.02 19.14L252.02 19.14Q252.54 18.72 252.64 18.04L252.64 18.04L234.54 17.48Q234.34 17.48 234.12 17.38L234.12 17.38Q233.88 17.28 233.72 17.14L233.72 17.14Q233.54 16.98 233.44 16.78L233.44 16.78Q233.34 16.56 233.38 16.32L233.38 16.32L235.02 4.88L230.20 4.88Q229.88 4.88 229.62 5.08L229.62 5.08Q229.40 5.28 229.34 5.60L229.34 5.60ZM234.20 4.46L235.08 2.30L235.08 2.30L231.04 0.78Q230.68 1.72 231.08 2.58L231.08 2.58Q231.48 3.44 232.46 3.82L232.46 3.82L234.20 4.46ZM240.92 5.00L236.38 5.00L236.38 5.00L241.06 10.96L235.32 16.86L238.38 16.86Q240.14 16.84 241.32 15.62L241.32 15.62L243.40 13.38L245.94 15.98Q246.72 16.82 247.80 16.82L247.80 16.82L251.86 16.82L245.84 10.80L251.72 3.76L247.50 3.76L243.52 8.44L240.92 5.00ZM246.62 0.90L243.08 0.90L243.08 0.90L242.84 2.26L237.22 2.26Q236.90 2.26 236.66 2.46L236.66 2.46Q236.46 2.64 236.42 2.92L236.42 2.92L236.24 4.04L252.10 4.04Q252.82 4.04 253.14 3.30L253.14 3.30L253.36 2.26L247.06 2.26L247.18 1.52Q247.20 1.26 247.04 1.08L247.04 1.08Q246.86 0.90 246.62 0.90L246.62 0.90ZM276.58 8.48L258.38 8.48L258.38 8.48Q257.48 8.48 256.96 7.88L256.96 7.88Q256.44 7.28 256.54 6.40L256.54 6.40L257.28 0.74L261.26 0.74L261.06 2.24L261 2.54L260.96 2.92L260.84 3.94L275.28 3.94L275.50 2.24L261.84 2.24L262.04 0.74L279.66 0.74L278.92 6.40Q278.80 7.28 278.14 7.88L278.14 7.88Q277.46 8.48 276.58 8.48L276.58 8.48ZM260.66 5.28L260.50 6.40L260.50 6.40Q260.48 6.66 260.64 6.82L260.64 6.82Q260.80 6.96 261.06 6.96L261.06 6.96L274.30 6.96Q274.58 6.96 274.74 6.82L274.74 6.82Q274.92 6.66 274.94 6.40L274.94 6.40L275.10 5.28L260.66 5.28ZM256.02 9.56L256.02 9.56L256.02 9.56Q256.26 9.32 256.60 9.32L256.60 9.32L279 9.32L278.90 10.06Q278.86 10.40 278.62 10.62L278.62 10.62Q278.38 10.86 278.06 10.86L278.06 10.86L269.76 10.86L269.44 13.16L278.18 13.16Q278.08 13.84 277.62 14.26L277.62 14.26Q277.16 14.68 276.54 14.68L276.54 14.68L269.24 14.68L268.94 17L278.50 17.92L278.04 18.60Q277.22 19.54 276.02 19.46L276.02 19.46L258.74 18Q258.14 19.60 256.70 19.60L256.70 19.60L254.40 19.60L256.44 11.70L260.36 11.70L259.18 16.16L265.02 16.68L265.78 10.86L255.64 10.86L255.74 10.12Q255.78 9.78 256.02 9.56ZM288.84 5.96L280.40 19.56L280.40 19.56L283.40 19.56Q285.66 19.56 287.12 17.48L287.12 17.48L294.24 5.96L303.84 5.96Q304.66 5.96 305.06 5.06L305.06 5.06L305.66 3.26L295.92 3.26L297.50 0.74L292.60 0.74Q292.12 0.74 291.82 1.18L291.82 1.18L290.52 3.26L283.98 3.26Q282.90 3.26 282.38 4.46L282.38 4.46L281.88 5.96L288.84 5.96ZM294.12 6.64L299.82 18.16L299.82 18.16Q300.66 19.60 302.10 19.60L302.10 19.60L305.08 19.60L298.82 6.98Q298.62 6.64 298.28 6.64L298.28 6.64L294.12 6.64ZM312.98 17.34L319.32 8.20L319.32 8.20L325.02 17.26Q326.42 19.60 328.82 19.60L328.82 19.60L331.66 19.60L323.54 6.50L320.34 6.50L324.40 0.74L320.10 0.74Q319.52 0.74 319.14 1.24L319.14 1.24L306.40 19.60L308.60 19.60Q311.22 19.60 312.98 17.34L312.98 17.34ZM334.46 3.64L333.76 3.70L333.76 3.70L333.76 3.70Q333.48 3.72 333.26 3.92L333.26 3.92Q333.06 4.12 333 4.42L333 4.42L332.80 5.76L334.16 5.66L332.42 17.86Q332.32 18.58 332.76 19.08L332.76 19.08Q333.22 19.60 333.96 19.60L333.96 19.60L356.32 19.60L355.90 18.46Q355.50 17.64 354.68 17.64L354.68 17.64L337.52 17.64Q337.22 17.64 337.02 17.42L337.02 17.42Q336.84 17.20 336.88 16.90L336.88 16.90L338.52 5.36L343.62 5.02L342.02 16.22L343.84 16.22Q344.92 16.22 345.70 15.54L345.70 15.54Q346.50 14.86 346.68 13.82L346.68 13.82L347.98 4.72L352.80 4.36Q352.96 4.34 353.06 4.38L353.06 4.38Q353.16 4.42 353.14 4.56L353.14 4.56L351.82 13.76Q351.78 14.06 351.58 14.26L351.58 14.26Q351.30 14.50 350.98 14.50L350.98 14.50L349.84 14.50Q349.42 14.50 349.08 14.78L349.08 14.78Q348.76 15.06 348.70 15.50L348.70 15.50L348.60 16.12L354.02 16.12Q354.78 16.12 355.36 15.60L355.36 15.60Q355.96 15.10 356.06 14.38L356.06 14.38L357.64 3.48Q357.74 2.76 357.26 2.36L357.26 2.36Q356.80 1.98 356.06 2.04L356.06 2.04L348.28 2.64L348.54 0.74L345.34 0.74Q344.86 0.74 344.50 1.06L344.50 1.06Q344.14 1.36 344.08 1.82L344.08 1.82L343.92 2.96L338.82 3.32L339.12 1.26L335.54 1.26Q335.22 1.26 334.98 1.48L334.98 1.48Q334.76 1.68 334.68 2.00L334.68 2.00L334.46 3.64ZM360.18 3.06L365.42 3.06L365.42 3.06L358.40 16.42L358.50 16.42Q362.24 16.42 364.50 12.72L364.50 12.72L369.58 3.06L382.44 3.06Q382.82 3.06 383.12 2.78L383.12 2.78Q383.42 2.52 383.48 2.10L383.48 2.10L383.66 0.74L361.36 0.74Q360.98 0.74 360.72 0.98L360.72 0.98Q360.44 1.24 360.38 1.64L360.38 1.64L360.18 3.06ZM369.62 5.96L369.62 5.96L369.62 5.96L367.80 19.60L372.12 19.60L373.88 4.66L371.04 4.66Q370.52 4.66 370.10 5.02L370.10 5.02Q369.70 5.38 369.62 5.96ZM379.34 5.60L375.20 5.60L375.20 5.60L377.50 14.58Q377.72 15.40 378.40 15.91Q379.08 16.42 379.94 16.42L379.94 16.42L382.12 16.42L379.34 5.60ZM388.12 0.78L392.10 0.78L392.10 0.78L391.82 2.74L393.50 2.74L393.38 3.72Q393.32 4.12 393.03 4.38Q392.74 4.64 392.36 4.64L392.36 4.64L391.58 4.64L390.60 11.86L392.32 11.68L392.18 12.72Q392.10 13.16 391.82 13.45Q391.54 13.74 391.12 13.78L391.12 13.78L390.34 13.86L389.86 17.40Q389.74 18.34 389.06 18.98L389.06 18.98Q388.36 19.60 387.48 19.60L387.48 19.60L384.40 19.60L384.60 18.02L385.14 18.02Q385.40 18.02 385.64 17.80L385.64 17.80Q385.88 17.60 385.92 17.28L385.92 17.28L386.34 14.20L384.78 14.36L384.90 13.46Q384.96 12.96 385.29 12.63Q385.62 12.30 386.10 12.26L386.10 12.26L386.60 12.20L387.60 4.64L386.08 4.64L386.20 3.68Q386.26 3.28 386.55 3.01Q386.84 2.74 387.22 2.74L387.22 2.74L387.86 2.74L388.12 0.78ZM406.30 19.56L391.78 19.56L391.78 19.56L391.86 18.92Q391.92 18.50 392.21 18.23Q392.50 17.96 392.90 17.96L392.90 17.96L407.42 17.96L407.34 18.60Q407.28 19.02 406.98 19.29Q406.68 19.56 406.30 19.56L406.30 19.56ZM397.54 10.84L397.34 12.34L397.34 12.34L397.30 12.60L397.24 13.10L403.46 13.10L403.56 12.34L397.74 12.34L397.94 10.84L407.72 10.84L407.12 15.32Q407.02 16.12 406.40 16.70L406.40 16.70Q405.76 17.28 405 17.28L405 17.28L394.58 17.28Q393.80 17.28 393.34 16.70L393.34 16.70Q392.86 16.12 392.96 15.32L392.96 15.32L393.56 10.84L397.54 10.84ZM403.20 15.04L403.24 14.70L403.24 14.70L397.02 14.70L396.96 15.04Q396.94 15.34 397.10 15.56L397.10 15.56Q397.26 15.78 397.58 15.78L397.58 15.78L402.40 15.78Q402.68 15.78 402.92 15.56L402.92 15.56Q403.16 15.34 403.20 15.04L403.20 15.04ZM397.94 3.54L397.76 4.98L397.76 4.98L397.70 5.34L397.36 7.90Q397.32 8.22 397.50 8.42L397.50 8.42Q397.68 8.64 397.96 8.64L397.96 8.64L403.92 8.64Q404.20 8.64 404.42 8.42L404.42 8.42Q404.64 8.22 404.68 7.90L404.68 7.90L405.08 4.98L398.32 4.98L398.52 3.54L409.02 3.54L408.40 8.18Q408.30 8.98 407.68 9.56L407.68 9.56Q407.04 10.14 406.28 10.14L406.28 10.14L395.22 10.14Q394.46 10.14 393.98 9.56L393.98 9.56Q393.52 8.98 393.62 8.18L393.62 8.18L394.24 3.54L397.94 3.54ZM403.90 1.26L403.90 1.26L403.90 1.26L409.66 1.26L409.56 2.04Q409.50 2.40 409.25 2.63Q409 2.86 408.66 2.86L408.66 2.86L394 2.86L394.12 2.08Q394.16 1.72 394.41 1.49Q394.66 1.26 395 1.26L395 1.26L399.96 1.26L400.02 0.74L403.46 0.74Q403.66 0.74 403.79 0.89Q403.92 1.04 403.90 1.26L403.90 1.26ZM402.56 7.04L402.64 6.46L402.64 6.46L400.18 6.46L400.32 5.40L404.30 5.40L404.08 7.02Q404 7.64 403.64 7.92L403.64 7.92Q403.26 8.22 402.68 8.22L402.68 8.22L399.28 8.22Q398.70 8.22 398.42 7.92L398.42 7.92Q398.12 7.64 398.20 7.02L398.20 7.02L398.42 5.40L399.96 5.40L399.82 6.46L399.80 6.64L399.76 7.04Q399.74 7.16 399.86 7.16L399.86 7.16L402.42 7.16Q402.54 7.16 402.56 7.04L402.56 7.04ZM413.34 19.60L413.34 19.60L413.34 19.60L420.42 19.60L420.42 19.60Q420.52 18.70 419.99 18.08Q419.46 17.46 418.58 17.46L418.58 17.46L416.08 17.46Q415.78 17.46 415.60 17.26L415.60 17.26Q415.40 17.04 415.44 16.76L415.44 16.76L416.40 9.98L433.72 9.98Q434.10 9.98 434.40 9.72Q434.70 9.46 434.78 9.06L434.78 9.06L435 7.48L416.74 7.48L417.68 0.76L414.70 0.76Q414.22 0.76 413.84 1.10Q413.46 1.44 413.36 1.94L413.36 1.94L412.58 7.48L411.54 7.48Q411.22 7.48 410.96 7.71Q410.70 7.94 410.64 8.26L410.64 8.26L410.40 9.98L412.24 9.98L411.22 17.18Q411.08 18.20 411.70 18.90L411.70 18.90Q412.32 19.60 413.34 19.60ZM435.66 1.24L420.12 3.60L420.12 3.60L419.72 6.46L431.16 4.68Q433.86 4.20 435.28 1.86L435.28 1.86L435.66 1.24L435.66 1.24ZM426.08 11L428.04 17.22L428.04 17.22Q429.02 19.60 431.40 19.60L431.40 19.60L433.08 19.60L430.36 11L426.08 11ZM441.48 1.38L441.48 1.38L441.48 1.38L441.42 1.66L438.44 1.66L436.44 17.14Q436.36 17.64 436.48 18.08L436.48 18.08Q436.58 18.54 436.86 18.88L436.86 18.88Q437.10 19.20 437.48 19.40L437.48 19.40Q437.86 19.60 438.30 19.60L438.30 19.60L445.08 19.60Q445.52 19.60 445.96 19.40L445.96 19.40Q446.38 19.20 446.74 18.88L446.74 18.88Q447.10 18.54 447.32 18.08L447.32 18.08Q447.56 17.62 447.62 17.14L447.62 17.14L449.62 1.66L446.18 1.66L446.32 0.74L442.14 0.74Q441.90 0.74 441.70 0.92L441.70 0.92Q441.52 1.10 441.48 1.38ZM444.78 10.74L443.90 17.56L443.90 17.56Q443.86 17.74 443.70 17.90L443.70 17.90Q443.56 18.04 443.36 18.04L443.36 18.04L440.20 18.04Q440.02 18.04 439.92 17.90L439.92 17.90Q439.78 17.74 439.80 17.56L439.80 17.56L440.70 10.74L444.78 10.74ZM445.78 3.14L444.98 9.16L444.98 9.16L440.90 9.16L441.72 3.14L445.78 3.14ZM461.10 1.58L461.10 1.58L461.10 1.58L454.54 1.58L454.86 0.74L451.76 0.74Q451.24 0.74 450.94 1.34L450.94 1.34L449.58 5.08L451.40 5.08Q453.04 5.08 453.94 3.34L453.94 3.34L457.48 3.34L455.66 17.30Q455.62 17.58 455.38 17.80L455.38 17.80Q455.16 18.02 454.88 18.02L454.88 18.02L452.66 18.02Q452.26 18.02 451.94 18.30L451.94 18.30Q451.64 18.60 451.58 19.04L451.58 19.04L451.50 19.60L457.26 19.60Q458.14 19.60 458.84 19.06L458.84 19.06Q459.56 18.52 459.70 17.44L459.70 17.44L461.66 2.26Q461.68 1.98 461.52 1.78L461.52 1.78Q461.38 1.58 461.10 1.58ZM451.44 11.14L454.88 12.98L454.88 12.98L455.66 10.54L451.14 7.98L450.70 8.76Q450.38 9.44 450.59 10.11Q450.80 10.78 451.44 11.14L451.44 11.14ZM486.44 2.98L486.44 2.98L486.44 2.98L477.44 2.98L477.38 3.54L486.52 3.54L486.12 6.48Q486.02 7.28 485.40 7.86L485.40 7.86Q484.76 8.44 483.98 8.44L483.98 8.44L476.70 8.44L476.60 9.18L485.76 9.18L485.34 12.28L486.04 12.28L485.88 13.50Q485.84 13.68 485.71 13.80Q485.58 13.92 485.42 13.92L485.42 13.92L485.12 13.92L485 14.78Q484.86 15.72 484.14 16.36L484.14 16.36Q483.38 17 482.50 17L482.50 17L475.54 17L475.46 17.52Q475.42 17.96 475.23 18.27Q475.04 18.58 474.70 18.90L474.70 18.90Q474.02 19.56 473.14 19.56L473.14 19.56L468.14 19.56L468.20 19.22Q468.28 18.74 468.63 18.42Q468.98 18.10 469.42 18.10L469.42 18.10L470.82 18.10Q471.12 18.10 471.36 17.84L471.36 17.84Q471.40 17.80 471.42 17.78L471.42 17.78Q471.50 17.72 471.54 17.66Q471.58 17.60 471.60 17.48L471.60 17.48L471.66 17L462.68 17L462.88 15.60Q462.90 15.42 463.04 15.30Q463.18 15.18 463.34 15.18L463.34 15.18L471.92 15.18L472.08 13.92L462.58 13.92L462.72 12.86Q462.76 12.62 462.95 12.45Q463.14 12.28 463.38 12.28L463.38 12.28L472.30 12.28L472.48 11L463.68 11L463.86 9.64Q463.90 9.44 464.04 9.31Q464.18 9.18 464.38 9.18L464.38 9.18L472.72 9.18L472.82 8.44L466.04 8.44Q465.28 8.44 464.82 7.86L464.82 7.86Q464.34 7.28 464.46 6.48L464.46 6.48L464.86 3.54L468.74 3.54L468.54 4.98L468.54 5.02L468.50 5.28L468.50 5.36L468.34 6.50Q468.32 6.70 468.44 6.84L468.44 6.84Q468.58 7.00 468.76 7.00L468.76 7.00L473.02 7.00L473.30 4.98L468.90 4.98L469.10 3.54L473.50 3.54L473.58 2.98L464.24 2.98L464.40 1.72Q464.44 1.48 464.62 1.32Q464.80 1.16 465.02 1.16L465.02 1.16L473.82 1.16Q473.86 1.02 473.99 0.91Q474.12 0.80 474.28 0.80L474.28 0.80L477.74 0.80L477.70 1.16L487.56 1.16L487.42 2.08Q487.36 2.46 487.08 2.72Q486.80 2.98 486.44 2.98ZM481.16 14.48L481.16 14.48L481.16 14.48L481.24 13.92L475.96 13.92L475.78 15.18L480.32 15.18Q480.60 15.18 480.86 15.00L480.86 15.00Q481.12 14.78 481.16 14.48ZM481.46 12.28L481.64 11L481.64 11L476.36 11L476.18 12.28L481.46 12.28ZM482.24 6.50L482.46 4.98L482.46 4.98L477.18 4.98L476.90 7.00L481.66 7.00Q481.84 7.00 482.04 6.84L482.04 6.84Q482.22 6.70 482.24 6.50L482.24 6.50ZM493.92 15.98L493.92 15.98L493.92 15.98Q494.06 16.46 493.98 17L493.98 17Q493.92 17.54 493.64 18.02L493.64 18.02Q493.38 18.48 492.96 18.84L492.96 18.84Q492.56 19.20 492.06 19.40L492.06 19.40Q491.56 19.60 491.02 19.60L491.02 19.60Q490.48 19.60 490.02 19.40L490.02 19.40Q489.58 19.20 489.28 18.84L489.28 18.84Q488.98 18.48 488.84 18.02L488.84 18.02Q488.70 17.54 488.76 17L488.76 17Q488.84 16.46 489.12 15.98L489.12 15.98Q489.40 15.50 489.80 15.16L489.80 15.16Q490.20 14.80 490.70 14.60L490.70 14.60Q491.22 14.38 491.76 14.38L491.76 14.38Q492.30 14.38 492.74 14.60L492.74 14.60Q493.18 14.80 493.48 15.16L493.48 15.16Q493.80 15.50 493.92 15.98ZM492.08 17.80L492.08 17.80L492.08 17.80Q492.46 17.46 492.52 17L492.52 17Q492.60 16.52 492.30 16.20L492.30 16.20Q492 15.86 491.54 15.86L491.54 15.86Q491.06 15.86 490.70 16.20L490.70 16.20Q490.32 16.52 490.24 17L490.24 17Q490.18 17.46 490.46 17.80L490.46 17.80Q490.74 18.14 491.22 18.14L491.22 18.14Q491.68 18.14 492.08 17.80Z"/></svg>