<svg xmlns="http://www.w3.org/2000/svg" xmlns:xlink="http://www.w3.org/1999/xlink" width="1842.1999999999998" height="20"><path fill="black" d="M22.22 5.08L21.80 8.16L21.80 8.16L18.50 8.16L18.90 5.08L18.62 5.08L18.14 6.92Q17.68 8.16 16.58 8.16L16.58 8.16L15.62 8.16L16.42 5.08L16.02 5.08L16.20 3.82Q16.24 3.64 16.37 3.52Q16.50 3.40 16.66 3.40L16.66 3.40L19.14 3.40L19.22 2.92L22.04 2.92Q22.22 2.92 22.35 3.06Q22.48 3.20 22.44 3.40L22.44 3.40L22.44 3.40L25.32 3.40L25.14 4.68Q25.12 4.86 24.99 4.97Q24.86 5.08 24.68 5.08L24.68 5.08L24.68 5.08L24.68 8.16L23.88 8.16Q23.30 8.16 22.90 7.74Q22.50 7.32 22.50 6.72L22.50 6.72L22.50 5.08L22.22 5.08ZM0.66 17.48L0.76 16.68L0.76 16.68L2.86 1.22L6.60 1.22L6.40 2.66L6.36 2.98L4.40 17.36Q4.28 18.28 3.58 18.92L3.58 18.92Q2.86 19.56 1.98 19.56L1.98 19.56L0.38 19.56L0.66 17.48ZM17 1.22L25.64 1.22L25.64 1.22L25.62 1.44Q25.54 1.98 25.15 2.32Q24.76 2.66 24.26 2.66L24.26 2.66L6.82 2.66L7.02 1.22L13.06 1.22L13.14 0.74L16.60 0.74Q16.78 0.74 16.90 0.88Q17.02 1.02 17 1.22L17 1.22L17 1.22ZM18.04 15.28L20.92 15.28L20.92 15.28L20.38 16.68Q20.22 16.88 20.52 16.86L20.52 16.86L21.16 16.84L21.18 15.82L22.16 15.82Q22.68 15.82 23.05 16.20Q23.42 16.58 23.42 17.14L23.42 17.14L23.42 17.94L21.16 17.94L21.16 17.74L18.12 17.90Q17.58 17.94 17.42 17.66L17.42 17.66Q17.28 17.36 17.42 17L17.42 17L18.04 15.28ZM17.14 18.34L17.14 18.34L17.14 18.34L23.40 18.34L23.22 19.60L14.54 19.60Q13.86 19.60 13.44 19.16L13.44 19.16Q13 18.70 13.10 18.06L13.10 18.06L13.26 16.88L10.08 19.06Q9.66 19.34 9.14 19.46L9.14 19.46Q8.62 19.60 8.10 19.60L8.10 19.60L4.52 19.60L4.62 18.94Q4.66 18.66 4.86 18.48Q5.06 18.30 5.32 18.30L5.32 18.30L5.32 18.30Q5.70 18.30 5.96 18.20L5.96 18.20Q6.22 18.08 6.42 17.98L6.42 17.98L11.26 14.82L7.12 14.82Q6.42 14.82 6 14.38L6 14.38Q5.58 13.94 5.66 13.30L5.66 13.30L6.26 8.90L9.76 8.90L9.58 10.14L9.56 10.40L9.46 11.16L12.90 11.16L13.04 10.14L9.94 10.14L10.12 8.90L10.70 8.90L10.70 8.90Q10.74 8.70 10.87 8.58Q11 8.46 11.18 8.46L11.18 8.46L14.78 8.46L14.72 8.90L24.14 8.90L23.54 13.30Q23.46 13.94 22.92 14.38L22.92 14.38Q22.38 14.82 21.70 14.82L21.70 14.82L16.28 14.82L15.04 15.66L17.04 15.66L16.72 17.90Q16.70 18.06 16.82 18.20L16.82 18.20Q16.96 18.34 17.14 18.34ZM20.50 10.14L17.04 10.14L17.04 10.14L16.90 11.16L20.36 11.16L20.50 10.14ZM20.18 12.42L16.74 12.42L16.74 12.42L16.58 13.60L19.56 13.60Q19.74 13.60 19.90 13.48L19.90 13.48Q20.06 13.34 20.08 13.16L20.08 13.16L20.18 12.42ZM9.60 13.60L12.56 13.60L12.56 13.60L12.72 12.42L9.28 12.42L9.18 13.16Q9.16 13.34 9.28 13.48L9.28 13.48Q9.40 13.60 9.60 13.60L9.60 13.60ZM9.08 5.08L8.60 6.92L8.60 6.92Q8.14 8.16 7.04 8.16L7.04 8.16L6.08 8.16L6.90 5.08L6.48 5.08L6.66 3.82Q6.70 3.64 6.83 3.52Q6.96 3.40 7.12 3.40L7.12 3.40L9.60 3.40L9.68 2.92L12.50 2.92Q12.68 2.92 12.81 3.06Q12.94 3.20 12.92 3.40L12.92 3.40L12.92 3.40L15.80 3.40L15.62 4.68Q15.58 4.86 15.45 4.97Q15.32 5.08 15.16 5.08L15.16 5.08L15.12 5.08L15.14 8.16L14.34 8.16Q13.76 8.16 13.36 7.74Q12.96 7.32 12.96 6.72L12.96 6.72L12.96 5.08L12.68 5.08L12.26 8.16L8.96 8.16L9.36 5.08L9.08 5.08ZM41.90 17.80L41.90 17.80L41.90 17.80Q42.10 17.96 42.42 17.96L42.42 17.96L48.82 17.96Q49.46 17.96 49.86 18.44Q50.26 18.92 50.20 19.60L50.20 19.60L50.20 19.60L39.58 19.60Q39.12 19.60 38.74 19.44L38.74 19.44Q38.34 19.28 38.06 18.98L38.06 18.98Q37.78 18.66 37.66 18.24L37.66 18.24Q37.52 17.82 37.60 17.28L37.60 17.28L38 14.26L32.72 18.74Q31.72 19.58 30.50 19.58L30.50 19.58L26.38 19.58L36 11.60L29.84 11.60Q28.94 11.60 28.40 10.98L28.40 10.98Q27.88 10.34 28 9.40L28 9.40L29.08 1.38L33.10 1.38L32.90 2.98L32.84 3.36L32.54 5.60L37.78 5.60L38.14 2.98L33.44 2.98L33.66 1.38L35.16 1.38L35.16 1.38Q35.20 1.10 35.40 0.92Q35.60 0.74 35.88 0.74L35.88 0.74L39.28 0.74L39.18 1.38L51.64 1.38L50.56 9.40Q50.44 10.34 49.74 10.98L49.74 10.98Q49.04 11.60 48.14 11.60L48.14 11.60L40.88 11.60L39.92 12.54L42.38 12.54L41.74 17.30Q41.68 17.64 41.90 17.80ZM47.42 2.98L42.16 2.98L42.16 2.98L41.80 5.60L47.06 5.60L47.42 2.98ZM46.82 7.30L41.58 7.30L41.58 7.30L41.20 10.02L45.54 10.02Q45.92 10.02 46.22 9.74L46.22 9.74Q46.54 9.48 46.58 9.06L46.58 9.06L46.82 7.30ZM32.88 10.02L37.18 10.02L37.18 10.02L37.56 7.30L32.30 7.30L32.06 9.06Q32.02 9.46 32.24 9.74L32.24 9.74Q32.48 10.02 32.88 10.02L32.88 10.02ZM46.28 15.48L47.48 15.40L47.48 15.40L47.44 14.10L48.32 14.10Q49 14.10 49.47 14.60Q49.94 15.10 49.96 15.82L49.96 15.82L49.94 17.34L47.40 17.34L47.42 16.90L43.94 17.14Q42.96 17.20 42.68 16.56L42.68 16.56Q42.40 15.92 42.74 15.02L42.74 15.02L43.96 12.44L47.44 12.44L46.14 15.14Q45.98 15.48 46.28 15.48L46.28 15.48ZM74.12 10.82L55.68 10.82L55.68 10.82Q54.78 10.82 54.28 10.20L54.28 10.20Q53.76 9.54 53.90 8.64L53.90 8.64L54.96 0.74L58.94 0.74L57.98 7.94Q57.92 8.38 58.14 8.68L58.14 8.68Q58.38 9.00 58.78 9.00L58.78 9.00L71.50 9.00Q71.92 9.00 72.24 8.68L72.24 8.68Q72.56 8.38 72.64 7.94L72.64 7.94L73.38 2.40L60 2.40L60.22 0.74L77.60 0.74L76.52 8.64Q76.42 9.54 75.70 10.20L75.70 10.20Q75.02 10.82 74.12 10.82L74.12 10.82ZM69.98 11.98L73.50 11.98L73.50 11.98Q73.82 11.98 74.05 12.19Q74.28 12.40 74.32 12.72L74.32 12.72L75.14 19.58L75.14 19.58Q73.30 19.58 71.96 18.34Q70.62 17.10 70.34 15.18L70.34 15.18L69.98 11.98ZM52.28 19.58L52.28 19.58L52.28 19.58L55.02 12.60Q55.32 11.98 55.90 11.98L55.90 11.98L59.50 11.98L58.16 15.46Q56.16 19.58 52.28 19.58L52.28 19.58ZM80.64 11.42L79.28 19.60L79.28 19.60L82.60 19.60Q82.96 19.60 83.24 19.36Q83.52 19.12 83.58 18.74L83.58 18.74L84.98 10.12L83.58 10.12L86.42 3.80L102.30 3.80Q102.74 3.80 103.08 3.51Q103.42 3.22 103.48 2.76L103.48 2.76L103.66 1.92L87.56 1.92L88.16 0.74L84.54 0.74Q83.88 0.74 83.48 1.38L83.48 1.38L83.20 1.92L80.24 1.92Q79.90 1.92 79.66 2.12Q79.42 2.32 79.38 2.64L79.38 2.64L79.16 3.80L82.08 3.80L78.40 11.42L80.64 11.42ZM92.02 11.12L86.48 11.12L86.48 11.12Q86.08 11.12 85.78 11.38Q85.48 11.64 85.42 12.04L85.42 12.04L85.30 12.96L91.78 12.96L91.18 17.28Q91.14 17.58 90.88 17.80L90.88 17.80Q90.64 18.02 90.34 18.02L90.34 18.02L89.06 18.02Q88.56 18.02 88.18 18.34Q87.80 18.66 87.72 19.18L87.72 19.18L87.66 19.60L92.80 19.60Q93.74 19.60 94.46 18.96L94.46 18.96Q95.20 18.30 95.32 17.40L95.32 17.40L95.96 12.96L101.16 12.96Q101.56 12.96 101.87 12.70Q102.18 12.44 102.24 12.04L102.24 12.04L102.36 11.12L96.20 11.12L96.24 10.78L102.76 6.80L103.16 4.62L86.92 4.62L86.92 4.62Q86.72 5.50 87.14 5.96Q87.56 6.42 88.20 6.42L88.20 6.42L97.76 6.42L92.20 9.86L92.02 11.12ZM104.40 10.84L106.30 10.84L106.30 10.84L105.06 19.58L108.68 19.58Q108.92 19.58 109.11 19.42Q109.30 19.26 109.34 19.02L109.34 19.02L110.76 9.00L109.92 9.00L112.48 3.46L127.84 3.46Q128.46 3.46 128.98 2.94L128.98 2.94Q129.50 2.42 129.60 1.78L129.60 1.78L129.66 1.62L113.56 1.62L114.06 0.74L110.16 0.74Q109.68 0.74 109.38 1.16L109.38 1.16L109.12 1.62L106.84 1.62Q106.46 1.62 106.14 1.98L106.14 1.98Q105.80 2.34 105.74 2.72L105.74 2.72L105.62 3.46L108.04 3.46L104.40 10.84ZM118.12 9.72L116.96 17.76L116.96 17.76L111.98 17.76Q111.44 17.76 111.06 18.08L111.06 18.08Q110.68 18.42 110.60 18.94L110.60 18.94L110.54 19.60L126.14 19.60Q126.58 19.60 126.88 19.20L126.88 19.20Q127.20 18.82 127.28 18.38L127.28 18.38L127.36 17.76L121.16 17.76L122.34 9.72L126.80 9.72Q127.38 9.72 127.82 9.34L127.82 9.34Q128.26 8.96 128.36 8.38L128.36 8.38L128.44 7.88L122.60 7.88L123.08 4.46L120.80 4.46Q119.98 4.46 119.36 5.00L119.36 5.00Q118.74 5.54 118.60 6.36L118.60 6.36L118.40 7.88L113.60 7.88Q113.14 7.88 112.82 8.16L112.82 8.16Q112.48 8.46 112.42 8.90L112.42 8.90L112.30 9.72L118.12 9.72ZM143.80 17.32L143.80 17.32L143.80 17.32L144.82 10.06L153.88 10.06Q154.30 10.06 154.61 9.78Q154.92 9.50 155.00 9.08L155.00 9.08L155.18 7.70L145.16 7.70L145.82 2.90L154.84 2.90Q155.08 2.90 155.26 2.74Q155.44 2.58 155.48 2.34L155.48 2.34L155.72 0.74L133.04 0.74Q132.62 0.74 132.31 1.01Q132.00 1.28 131.94 1.70L131.94 1.70L131.78 2.90L141.58 2.90L140.90 7.70L131.56 7.70Q131.16 7.70 130.87 7.96Q130.58 8.22 130.52 8.62L130.52 8.62L130.30 10.06L140.58 10.06L139.62 16.92Q139.52 17.54 138.92 17.54L138.92 17.54L135.10 17.54Q134.70 17.54 134.39 17.80Q134.08 18.06 134.00 18.48L134.00 18.48L133.84 19.60L141.20 19.60Q142.16 19.60 142.92 18.92L142.92 18.92Q143.66 18.26 143.80 17.32ZM163 17.34L169.34 8.20L169.34 8.20L175.04 17.26Q176.44 19.60 178.84 19.60L178.84 19.60L181.68 19.60L173.56 6.50L170.36 6.50L174.42 0.74L170.12 0.74Q169.54 0.74 169.16 1.24L169.16 1.24L156.42 19.60L158.62 19.60Q161.24 19.60 163 17.34L163 17.34ZM201.12 6.26L201.76 7.64L201.76 7.64Q203.06 10 205.38 10L205.38 10L206.84 10L205.04 6.26L207.34 6.26L207.58 4.52L205.98 4.52L207.40 0.96L205.20 0.96Q203.64 0.96 202.82 2.62L202.82 2.62L202.06 4.52L197.98 4.52L198.50 0.74L195.96 0.74Q195.34 0.74 194.87 1.16Q194.40 1.58 194.30 2.24L194.30 2.24L194 4.52L189.90 4.52L189.72 3.18Q189.58 2.20 188.90 1.58Q188.22 0.96 187.30 0.96L187.30 0.96L185.54 0.96L186 4.52L184.40 4.52L184.16 6.26L186.44 6.26L183.66 10L185.06 10Q187.44 10 189.12 7.92L189.12 7.92L190.36 6.26L193.76 6.26L193.26 10L197.24 10L197.74 6.26L201.12 6.26ZM195.36 13.44L198.92 17.48L198.92 17.48Q200.90 19.60 203.54 19.60L203.54 19.60L205.54 19.60L200 13.44L205.50 13.44Q205.88 13.44 206.16 13.19Q206.44 12.94 206.50 12.56L206.50 12.56L206.58 11.86L195.86 11.86L197.20 10.54L192.94 10.54Q192.46 10.54 192.08 10.90L192.08 10.90L191.10 11.86L184.04 11.86Q183.76 11.86 183.56 12.04Q183.36 12.22 183.32 12.52L183.32 12.52L183.20 13.44L189.70 13.44L182.36 19.60L184.76 19.60Q187.06 19.60 188.96 18.06L188.96 18.06L194.46 13.44L195.36 13.44ZM222.46 1.44L222.40 1.86L222.40 1.86L233.68 1.86L231.52 17.32Q231.38 18.26 230.64 18.92L230.64 18.92Q229.90 19.58 228.98 19.58L228.98 19.58L210.32 19.58Q209.40 19.58 208.86 18.92L208.86 18.92Q208.34 18.26 208.46 17.32L208.46 17.32L210.60 1.86L214.72 1.86L214.08 6.40L228.92 6.40L229.28 3.82L215.34 3.82L215.62 1.86L218.48 1.86L218.62 0.76L221.90 0.76Q222.18 0.76 222.34 0.96Q222.50 1.16 222.46 1.44L222.46 1.44ZM227.52 16.60L227.52 16.60L227.52 16.60L227.86 14.16L213 14.16L212.68 16.60Q212.60 17.02 212.84 17.30L212.84 17.30Q213.06 17.60 213.46 17.60L213.46 17.60L226.38 17.60Q226.80 17.60 227.12 17.30L227.12 17.30Q227.44 17.02 227.52 16.60ZM213.34 11.80L228.18 11.80L228.18 11.80L228.60 8.72L213.76 8.72L213.34 11.80ZM255.36 17.34L240.22 17.34L240.22 17.34Q239.82 17.34 239.58 17.04L239.58 17.04Q239.34 16.76 239.40 16.34L239.40 16.34L240.52 8.18L235.84 8.18L234.60 17.34Q234.48 18.30 235.02 18.96L235.02 18.96Q235.56 19.60 236.44 19.60L236.44 19.60L257.78 19.60L257.70 19Q256.94 17.34 255.36 17.34L255.36 17.34ZM240.78 10.74L256.04 10.74L256.04 10.74Q256.92 10.74 257.64 10.08L257.64 10.08Q258.36 9.44 258.48 8.48L258.48 8.48L259.52 0.74L236.62 0.74L236.48 1.84Q236.42 2.42 236.79 2.83Q237.16 3.24 237.72 3.24L237.72 3.24L255.12 3.24L254.60 7.18Q254.54 7.60 254.22 7.88L254.22 7.88Q253.92 8.18 253.50 8.18L253.50 8.18L241.16 8.18L240.78 10.74ZM265.50 1.38L265.50 1.38L265.50 1.38L265.44 1.66L262.46 1.66L260.46 17.14Q260.38 17.64 260.50 18.08L260.50 18.08Q260.60 18.54 260.88 18.88L260.88 18.88Q261.12 19.20 261.50 19.40L261.50 19.40Q261.88 19.60 262.32 19.60L262.32 19.60L269.10 19.60Q269.54 19.60 269.98 19.40L269.98 19.40Q270.40 19.20 270.76 18.88L270.76 18.88Q271.12 18.54 271.34 18.08L271.34 18.08Q271.58 17.62 271.64 17.14L271.64 17.14L273.64 1.66L270.20 1.66L270.34 0.74L266.16 0.74Q265.92 0.74 265.72 0.92L265.72 0.92Q265.54 1.10 265.50 1.38ZM268.80 10.74L267.92 17.56L267.92 17.56Q267.88 17.74 267.72 17.90L267.72 17.90Q267.58 18.04 267.38 18.04L267.38 18.04L264.22 18.04Q264.04 18.04 263.94 17.90L263.94 17.90Q263.80 17.74 263.82 17.56L263.82 17.56L264.72 10.74L268.80 10.74ZM269.80 3.14L269.00 9.16L269.00 9.16L264.92 9.16L265.74 3.14L269.80 3.14ZM285.12 1.58L285.12 1.58L285.12 1.58L278.56 1.58L278.88 0.74L275.78 0.74Q275.26 0.74 274.96 1.34L274.96 1.34L273.60 5.08L275.42 5.08Q277.06 5.08 277.96 3.34L277.96 3.34L281.50 3.34L279.68 17.30Q279.64 17.58 279.40 17.80L279.40 17.80Q279.18 18.02 278.90 18.02L278.90 18.02L276.68 18.02Q276.28 18.02 275.96 18.30L275.96 18.30Q275.66 18.60 275.60 19.04L275.60 19.04L275.52 19.60L281.28 19.60Q282.16 19.60 282.86 19.06L282.86 19.06Q283.58 18.52 283.72 17.44L283.72 17.44L285.68 2.26Q285.70 1.98 285.54 1.78L285.54 1.78Q285.40 1.58 285.12 1.58ZM275.46 11.14L278.90 12.98L278.90 12.98L279.68 10.54L275.16 7.98L274.72 8.76Q274.40 9.44 274.61 10.11Q274.82 10.78 275.46 11.14L275.46 11.14ZM291.88 7.62L291.84 7.94L291.84 7.94L291.88 7.62L291.88 7.62ZM292.68 3.08L292.68 3.08L292.68 3.08L291.64 5.34L287.52 5.34L288.94 2.22Q289.20 1.66 289.68 1.32L289.68 1.32Q290.18 0.96 290.76 0.96L290.76 0.96L298.62 0.96Q299.20 0.96 299.58 1.32L299.58 1.32Q299.96 1.66 300.08 2.22L300.08 2.22L300.62 5.34L296.50 5.34L296.10 3.08Q296.00 2.54 295.48 2.54L295.48 2.54L293.44 2.54Q292.92 2.54 292.68 3.08ZM291.88 7.62L291.88 7.62L291.88 7.62L291.84 7.94L291.84 7.94L290.56 17Q290.50 17.42 290.74 17.70L290.74 17.70Q290.98 17.98 291.38 17.98L291.38 17.98L298.66 17.98L298.62 18.28Q298.52 18.84 298.11 19.20Q297.70 19.56 297.16 19.56L297.16 19.56L288.28 19.56Q287.36 19.56 286.82 18.92L286.82 18.92Q286.28 18.28 286.40 17.36L286.40 17.36L288.00 6.02L292.12 6.02L291.88 7.62ZM295.86 7.62L292.50 7.62L292.50 7.62L292.74 6.02L300.18 6.02L299.08 13.88Q298.96 14.80 298.24 15.44L298.24 15.44Q297.52 16.08 296.60 16.08L296.60 16.08L292.02 16.08L292.24 14.48L293.94 14.48Q294.34 14.48 294.66 14.20L294.66 14.20Q294.98 13.92 295.04 13.54L295.04 13.54L295.86 7.62ZM306.02 1.16L304.04 15.22L304.04 15.22Q303.92 15.94 303.40 16.40Q302.88 16.86 302.18 16.86L302.18 16.86L300.24 16.86L302.22 2.80Q302.32 2.08 302.86 1.62Q303.40 1.16 304.12 1.16L304.12 1.16L306.02 1.16ZM309.04 0.78L309.04 0.78L309.04 0.78L311.74 0.78L309.42 17.36Q309.28 18.26 308.56 18.92L308.56 18.92Q307.84 19.56 306.94 19.56L306.94 19.56L301.26 19.56L301.34 19.04Q301.40 18.58 301.75 18.28Q302.10 17.98 302.56 17.98L302.56 17.98L304.50 17.98Q304.82 17.98 305.04 17.76L305.04 17.76Q305.28 17.54 305.32 17.24L305.32 17.24L307.44 2.18Q307.54 1.56 307.99 1.17Q308.44 0.78 309.04 0.78ZM317.66 17.38L317.66 17.38L317.66 17.38Q317.44 17.30 317.26 17.14L317.26 17.14Q317.10 16.98 317.02 16.78L317.02 16.78Q316.92 16.56 316.94 16.32L316.94 16.32L318.52 4.84L313.96 4.84Q313.62 4.84 313.40 5.04L313.40 5.04Q313.18 5.28 313.12 5.60L313.12 5.60L313.02 6.40L314.38 6.40L312.44 19.60L314.94 19.60Q314.96 19.60 315.00 19.60L315.00 19.60Q315.04 19.60 315.10 19.60L315.10 19.60Q315.50 19.62 315.86 19.54L315.86 19.54Q316.20 19.48 316.44 19.12L316.44 19.12L316.52 19L334.00 19.58Q334.66 19.58 335.16 19.14L335.16 19.14Q335.64 18.72 335.74 18.06L335.74 18.06L318.06 17.48Q317.88 17.48 317.66 17.38ZM316.06 3.78L316.06 3.78L316.06 3.78L317.72 4.44L318.56 2.26L314.76 0.74Q314.40 1.68 314.78 2.54L314.78 2.54Q315.16 3.38 316.06 3.78ZM324.28 9.04L324.08 10.60L324.08 10.60L332.14 10.60L331.64 14.30Q331.60 14.52 331.50 14.72L331.50 14.72Q331.40 14.86 331.26 15.00L331.26 15.00Q330.94 15.28 330.54 15.28L330.54 15.28L323.56 15.28Q323.14 15.28 322.90 15.00L322.90 15.00Q322.72 14.78 322.72 14.50L322.72 14.50Q322.70 14.40 322.72 14.30L322.72 14.30L323.44 9.04L319.28 9.04L318.50 14.68Q318.36 15.58 318.90 16.22L318.90 16.22Q319.46 16.84 320.38 16.84L320.38 16.84L333.24 16.84Q334.18 16.84 334.90 16.20L334.90 16.20Q335.62 15.56 335.76 14.68L335.76 14.68L336.54 9.04L324.28 9.04ZM331.48 3.26L336.90 3.26L336.90 3.26Q337.14 3.26 337.32 3.11Q337.50 2.96 337.54 2.72L337.54 2.72L337.70 1.70L331.70 1.70L331.82 0.86L328.06 0.86Q327.88 0.86 327.75 0.98Q327.62 1.10 327.58 1.28L327.58 1.28L327.52 1.70L324.90 1.70L325.20 0.98L321.10 0.98L319.42 5.06L322.66 5.06Q323.44 5.06 323.84 4.28L323.84 4.28L324.22 3.26L327.30 3.26L326.84 6.64L319.82 6.64Q319.56 6.64 319.37 6.80Q319.18 6.96 319.14 7.22L319.14 7.22L318.98 8.32L336.36 8.32Q336.62 8.32 336.81 8.15Q337.00 7.98 337.04 7.74L337.04 7.74L337.18 6.64L331.02 6.64L331.48 3.26ZM322.90 15.00L322.90 15.00L322.90 15.00Q322.72 14.78 322.72 14.50L322.72 14.50Q322.72 14.78 322.90 15.00ZM331.26 15.00L331.26 15.00L331.26 15.00Q330.94 15.28 330.54 15.28L330.54 15.28Q330.94 15.28 331.26 15.00L331.26 15.00Q331.40 14.86 331.50 14.72L331.50 14.72Q331.40 14.86 331.26 15.00ZM331.50 14.72L331.50 14.72L331.50 14.72Q331.60 14.52 331.64 14.30L331.64 14.30L332.14 10.60L331.64 14.30Q331.60 14.52 331.50 14.72ZM344.42 8.50L344.62 6.80L344.62 6.80L344.42 8.52Q344.40 8.62 344.42 8.70L344.42 8.70Q344.40 8.60 344.42 8.50L344.42 8.50ZM358.34 9.18L358.34 9.18L358.34 9.18Q358.64 8.90 358.70 8.50L358.70 8.50L358.90 6.80L358.70 8.52Q358.64 8.92 358.34 9.18L358.34 9.18Q358.04 9.44 357.66 9.44L357.66 9.44Q358.04 9.44 358.34 9.18ZM341.42 0.78L345.32 0.78L345.32 0.78L344.80 5.12L350.02 5.12L350.30 2.48L345.82 2.48L346.04 0.78L363.52 0.78L362.56 8.86Q362.44 9.80 361.76 10.48L361.76 10.48Q361.08 11.12 360.20 11.12L360.20 11.12L353.22 11.10L352.98 13.08L362.00 13.08L361.88 14.08Q361.82 14.46 361.56 14.71Q361.30 14.96 360.96 14.96L360.96 14.96L352.74 14.96L352.44 17.46L361.76 17.46L361.52 19.08Q361.50 19.30 361.34 19.44Q361.18 19.58 360.98 19.58L360.98 19.58L338.66 19.58L338.82 18.36Q338.88 17.96 339.16 17.71Q339.44 17.46 339.80 17.46L339.80 17.46L348.32 17.46L348.64 14.96L339.60 14.96L339.76 13.78Q339.80 13.46 340.01 13.27Q340.22 13.08 340.50 13.08L340.50 13.08L348.96 13.08L349.26 11.12L342.24 11.12Q341.36 11.12 340.84 10.46L340.84 10.46Q340.34 9.80 340.46 8.86L340.46 8.86L341.42 0.78ZM359.40 2.48L354.22 2.48L354.22 2.48L353.92 5.12L359.12 5.12L359.40 2.48ZM358.90 6.80L353.72 6.80L353.72 6.80L353.40 9.44L357.66 9.44Q358.04 9.44 358.34 9.18L358.34 9.18Q358.64 8.92 358.70 8.52L358.70 8.52L358.90 6.80ZM345.22 9.44L349.48 9.44L349.48 9.44L349.80 6.80L344.62 6.80L344.42 8.50Q344.40 8.60 344.42 8.70L344.42 8.70Q344.42 8.98 344.60 9.18L344.60 9.18Q344.82 9.44 345.22 9.44L345.22 9.44ZM344.60 9.18L344.60 9.18L344.60 9.18Q344.82 9.44 345.22 9.44L345.22 9.44Q344.82 9.44 344.60 9.18L344.60 9.18Q344.42 8.98 344.42 8.70L344.42 8.70Q344.42 8.96 344.60 9.18ZM369.96 15.98L369.96 15.98L369.96 15.98Q370.10 16.46 370.02 17L370.02 17Q369.96 17.54 369.68 18.02L369.68 18.02Q369.42 18.48 369.00 18.84L369.00 18.84Q368.60 19.20 368.10 19.40L368.10 19.40Q367.60 19.60 367.06 19.60L367.06 19.60Q366.52 19.60 366.06 19.40L366.06 19.40Q365.62 19.20 365.32 18.84L365.32 18.84Q365.02 18.48 364.88 18.02L364.88 18.02Q364.74 17.54 364.80 17L364.80 17Q364.88 16.46 365.16 15.98L365.16 15.98Q365.44 15.50 365.84 15.16L365.84 15.16Q366.24 14.80 366.74 14.60L366.74 14.60Q367.26 14.38 367.80 14.38L367.80 14.38Q368.34 14.38 368.78 14.60L368.78 14.60Q369.22 14.80 369.52 15.16L369.52 15.16Q369.84 15.50 369.96 15.98ZM368.12 17.80L368.12 17.80L368.12 17.80Q368.50 17.46 368.56 17L368.56 17Q368.64 16.52 368.34 16.20L368.34 16.20Q368.04 15.86 367.58 15.86L367.58 15.86Q367.10 15.86 366.74 16.20L366.74 16.20Q366.36 16.52 366.28 17L366.28 17Q366.22 17.46 366.50 17.80L366.50 17.80Q366.78 18.14 367.26 18.14L367.26 18.14Q367.72 18.14 368.12 17.80ZM406.28 5.08L405.86 8.16L405.86 8.16L402.56 8.16L402.96 5.08L402.68 5.08L402.20 6.92Q401.74 8.16 400.64 8.16L400.64 8.16L399.68 8.16L400.48 5.08L400.08 5.08L400.26 3.82Q400.30 3.64 400.43 3.52Q400.56 3.40 400.72 3.40L400.72 3.40L403.20 3.40L403.28 2.92L406.10 2.92Q406.28 2.92 406.41 3.06Q406.54 3.20 406.50 3.40L406.50 3.40L406.50 3.40L409.38 3.40L409.20 4.68Q409.18 4.86 409.05 4.97Q408.92 5.08 408.74 5.08L408.74 5.08L408.74 5.08L408.74 8.16L407.94 8.16Q407.36 8.16 406.96 7.74Q406.56 7.32 406.56 6.72L406.56 6.72L406.56 5.08L406.28 5.08ZM384.72 17.48L384.82 16.68L384.82 16.68L386.92 1.22L390.66 1.22L390.46 2.66L390.42 2.98L388.46 17.36Q388.34 18.28 387.64 18.92L387.64 18.92Q386.92 19.56 386.04 19.56L386.04 19.56L384.44 19.56L384.72 17.48ZM401.06 1.22L409.70 1.22L409.70 1.22L409.68 1.44Q409.60 1.98 409.21 2.32Q408.82 2.66 408.32 2.66L408.32 2.66L390.88 2.66L391.08 1.22L397.12 1.22L397.20 0.74L400.66 0.74Q400.84 0.74 400.96 0.88Q401.08 1.02 401.06 1.22L401.06 1.22L401.06 1.22ZM402.10 15.28L404.98 15.28L404.98 15.28L404.44 16.68Q404.28 16.88 404.58 16.86L404.58 16.86L405.22 16.84L405.24 15.82L406.22 15.82Q406.74 15.82 407.11 16.20Q407.48 16.58 407.48 17.14L407.48 17.14L407.48 17.94L405.22 17.94L405.22 17.74L402.18 17.90Q401.64 17.94 401.48 17.66L401.48 17.66Q401.34 17.36 401.48 17L401.48 17L402.10 15.28ZM401.20 18.34L401.20 18.34L401.20 18.34L407.46 18.34L407.28 19.60L398.60 19.60Q397.92 19.60 397.50 19.16L397.50 19.16Q397.06 18.70 397.16 18.06L397.16 18.06L397.32 16.88L394.14 19.06Q393.72 19.34 393.20 19.46L393.20 19.46Q392.68 19.60 392.16 19.60L392.16 19.60L388.58 19.60L388.68 18.94Q388.72 18.66 388.92 18.48Q389.12 18.30 389.38 18.30L389.38 18.30L389.38 18.30Q389.76 18.30 390.02 18.20L390.02 18.20Q390.28 18.08 390.48 17.98L390.48 17.98L395.32 14.82L391.18 14.82Q390.48 14.82 390.06 14.38L390.06 14.38Q389.64 13.94 389.72 13.30L389.72 13.30L390.32 8.90L393.82 8.90L393.64 10.14L393.62 10.40L393.52 11.16L396.96 11.16L397.10 10.14L394.00 10.14L394.18 8.90L394.76 8.90L394.76 8.90Q394.80 8.70 394.93 8.58Q395.06 8.46 395.24 8.46L395.24 8.46L398.84 8.46L398.78 8.90L408.20 8.90L407.60 13.30Q407.52 13.94 406.98 14.38L406.98 14.38Q406.44 14.82 405.76 14.82L405.76 14.82L400.34 14.82L399.10 15.66L401.10 15.66L400.78 17.90Q400.76 18.06 400.88 18.20L400.88 18.20Q401.02 18.34 401.20 18.34ZM404.56 10.14L401.10 10.14L401.10 10.14L400.96 11.16L404.42 11.16L404.56 10.14ZM404.24 12.42L400.80 12.42L400.80 12.42L400.64 13.60L403.62 13.60Q403.80 13.60 403.96 13.48L403.96 13.48Q404.12 13.34 404.14 13.16L404.14 13.16L404.24 12.42ZM393.66 13.60L396.62 13.60L396.62 13.60L396.78 12.42L393.34 12.42L393.24 13.16Q393.22 13.34 393.34 13.48L393.34 13.48Q393.46 13.60 393.66 13.60L393.66 13.60ZM393.14 5.08L392.66 6.92L392.66 6.92Q392.20 8.16 391.10 8.16L391.10 8.16L390.14 8.16L390.96 5.08L390.54 5.08L390.72 3.82Q390.76 3.64 390.89 3.52Q391.02 3.40 391.18 3.40L391.18 3.40L393.66 3.40L393.74 2.92L396.56 2.92Q396.74 2.92 396.87 3.06Q397.00 3.20 396.98 3.40L396.98 3.40L396.98 3.40L399.86 3.40L399.68 4.68Q399.64 4.86 399.51 4.97Q399.38 5.08 399.22 5.08L399.22 5.08L399.18 5.08L399.20 8.16L398.40 8.16Q397.82 8.16 397.42 7.74Q397.02 7.32 397.02 6.72L397.02 6.72L397.02 5.08L396.74 5.08L396.32 8.16L393.02 8.16L393.42 5.08L393.14 5.08ZM425.96 17.80L425.96 17.80L425.96 17.80Q426.16 17.96 426.48 17.96L426.48 17.96L432.88 17.96Q433.52 17.96 433.92 18.44Q434.32 18.92 434.26 19.60L434.26 19.60L434.26 19.60L423.64 19.60Q423.18 19.60 422.80 19.44L422.80 19.44Q422.40 19.28 422.12 18.98L422.12 18.98Q421.84 18.66 421.72 18.24L421.72 18.24Q421.58 17.82 421.66 17.28L421.66 17.28L422.06 14.26L416.78 18.74Q415.78 19.58 414.56 19.58L414.56 19.58L410.44 19.58L420.06 11.60L413.90 11.60Q413.00 11.60 412.46 10.98L412.46 10.98Q411.94 10.34 412.06 9.40L412.06 9.40L413.14 1.38L417.16 1.38L416.96 2.98L416.90 3.36L416.60 5.60L421.84 5.60L422.20 2.98L417.50 2.98L417.72 1.38L419.22 1.38L419.22 1.38Q419.26 1.10 419.46 0.92Q419.66 0.74 419.94 0.74L419.94 0.74L423.34 0.74L423.24 1.38L435.70 1.38L434.62 9.40Q434.50 10.34 433.80 10.98L433.80 10.98Q433.10 11.60 432.20 11.60L432.20 11.60L424.94 11.60L423.98 12.54L426.44 12.54L425.80 17.30Q425.74 17.64 425.96 17.80ZM431.48 2.98L426.22 2.98L426.22 2.98L425.86 5.60L431.12 5.60L431.48 2.98ZM430.88 7.30L425.64 7.30L425.64 7.30L425.26 10.02L429.60 10.02Q429.98 10.02 430.28 9.74L430.28 9.74Q430.60 9.48 430.64 9.06L430.64 9.06L430.88 7.30ZM416.94 10.02L421.24 10.02L421.24 10.02L421.62 7.30L416.36 7.30L416.12 9.06Q416.08 9.46 416.30 9.74L416.30 9.74Q416.54 10.02 416.94 10.02L416.94 10.02ZM430.34 15.48L431.54 15.40L431.54 15.40L431.50 14.10L432.38 14.10Q433.06 14.10 433.53 14.60Q434.00 15.10 434.02 15.82L434.02 15.82L434.00 17.34L431.46 17.34L431.48 16.90L428.00 17.14Q427.02 17.20 426.74 16.56L426.74 16.56Q426.46 15.92 426.80 15.02L426.80 15.02L428.02 12.44L431.50 12.44L430.20 15.14Q430.04 15.48 430.34 15.48L430.34 15.48ZM442.30 18.06L442.30 18.06L442.30 18.06L444.96 16.50Q443.96 14.60 442.42 13.04L442.42 13.04Q441.74 12.44 440.84 12.94L440.84 12.94L440.82 12.94Q440.24 13.30 440.10 13.89Q439.96 14.48 440.32 14.96L440.32 14.96Q441.56 16.48 442.30 18.06ZM475.96 11.58L477.80 11.58L477.80 11.58Q478.64 11.58 479.22 12.18Q479.80 12.78 479.80 13.66L479.80 13.66L479.78 16.70L475.90 16.70L475.96 11.58ZM475.26 0.74L479.28 0.74L479.28 0.74L479.06 2.34L478.98 2.94L478.78 4.40L480.62 4.86Q481.28 5.02 481.63 5.56Q481.98 6.10 481.90 6.78L481.90 6.78L481.82 7.48L478.46 6.66L478.14 8.98Q478.04 9.80 477.38 10.38L477.38 10.38Q476.74 10.94 475.94 10.94L475.94 10.94L473.82 10.94L475.26 0.74ZM481.86 19.50L481.94 11.58L481.94 11.58L483.22 11.58Q484.32 11.58 485.07 12.36Q485.82 13.14 485.84 14.30L485.84 14.30L485.78 19.50L481.86 19.50ZM487.12 9.34L487.12 9.34L487.12 9.34L487.42 9.34L487.20 10.94L484.18 10.94Q483.40 10.94 482.92 10.38L482.92 10.38Q482.44 9.80 482.54 8.98L482.54 8.98L483.46 2.34L479.48 2.34L479.70 0.74L487.70 0.74L486.60 8.74Q486.56 8.98 486.70 9.16L486.70 9.16Q486.84 9.34 487.12 9.34ZM473.22 17.60L473.22 17.60L473.22 17.60Q473.42 17.80 473.70 17.80L473.70 17.80L479.52 17.80Q480.06 17.80 480.40 18.21Q480.74 18.62 480.68 19.18L480.68 19.18L480.62 19.60L470.80 19.60Q469.90 19.60 469.36 18.96L469.36 18.96Q468.82 18.32 468.96 17.40L468.96 17.40L469.76 11.58L473.84 11.58L473.08 17.08Q473.04 17.40 473.22 17.60ZM464.14 19.50L462.44 19.50L462.44 19.50L464.18 11.58L468.22 11.58L466.98 17.16Q466.74 18.22 465.95 18.86Q465.16 19.50 464.14 19.50L464.14 19.50ZM470.12 8.84L472.60 8.68L472.60 8.68L472.46 9.72Q472.42 10.06 472.19 10.27Q471.96 10.48 471.64 10.50L471.64 10.50L463.44 10.98L463.58 9.94Q463.64 9.60 463.86 9.39Q464.08 9.18 464.40 9.16L464.40 9.16L466.16 9.06L467.04 2.64L464.58 2.64L464.70 1.72Q464.78 1.34 465.06 1.09Q465.34 0.84 465.72 0.84L465.72 0.84L473.68 0.84L473.56 1.74Q473.50 2.14 473.22 2.39Q472.94 2.64 472.56 2.64L472.56 2.64L470.98 2.64L470.12 8.84ZM493.60 0.74L493.60 0.74L493.60 0.74L495.70 0.74L493.76 18.40Q493.70 18.92 493.38 19.26L493.38 19.26Q493.08 19.60 492.66 19.60L492.66 19.60L490.62 19.60L492.54 1.88Q492.62 1.38 492.92 1.06L492.92 1.06Q493.20 0.74 493.60 0.74ZM499.02 19.60L496.68 19.60L496.68 19.60L498.48 15.74L502.28 15.74L501.12 18.20Q500.34 19.60 499.02 19.60L499.02 19.60ZM495.58 4.72L497.14 4.72L497.14 4.72Q497.32 4.72 497.42 4.86L497.42 4.86Q497.54 5.02 497.52 5.24L497.52 5.24L496.62 13.48L496.04 13.48Q495.48 13.48 495.14 12.98L495.14 12.98Q494.80 12.46 494.84 11.78L494.84 11.78L495.58 4.72ZM489.94 4.50L491.90 4.50L491.90 4.50L490.76 14.44Q490.42 17.26 488.44 17.42L488.44 17.42L489.94 4.50ZM513.68 3.06L512.30 13.52L512.30 13.52L513.02 13.52L512.90 14.34Q512.86 14.68 512.63 14.90Q512.40 15.12 512.08 15.12L512.08 15.12L496.92 15.12L497.02 14.30Q497.08 13.96 497.31 13.74Q497.54 13.52 497.86 13.52L497.86 13.52L497.86 13.52L499.22 3.06Q499.34 2.14 500.02 1.50L500.02 1.50Q500.70 0.84 501.54 0.84L501.54 0.84L503.38 0.84L503.10 2.92L503.08 3.10L502.98 3.98L509.68 3.98L509.82 2.92Q509.84 2.74 509.72 2.58L509.72 2.58Q509.60 2.44 509.42 2.44L509.42 2.44L503.82 2.44L504.04 0.84L511.90 0.84Q512.76 0.84 513.28 1.48L513.28 1.48Q513.80 2.12 513.68 3.06L513.68 3.06ZM501.72 13.52L508.44 13.52L508.44 13.52L508.66 11.78L501.96 11.78L501.72 13.52ZM502.16 10.18L508.86 10.18L508.86 10.18L509.06 8.66L502.36 8.66L502.16 10.18ZM502.58 7.06L509.28 7.06L509.28 7.06L509.46 5.58L502.76 5.58L502.58 7.06ZM507.68 17.54L507.30 15.74L507.30 15.74L511.10 15.74L511.90 19.60L510.04 19.60Q509.18 19.60 508.53 19.03Q507.88 18.46 507.68 17.54L507.68 17.54ZM520.30 18.06L520.30 18.06L520.30 18.06L522.96 16.50Q521.96 14.60 520.42 13.04L520.42 13.04Q519.74 12.44 518.84 12.94L518.84 12.94L518.82 12.94Q518.24 13.30 518.10 13.89Q517.96 14.48 518.32 14.96L518.32 14.96Q519.56 16.48 520.30 18.06ZM549.66 17.54L564.40 17.54L564.40 17.54L564.28 18.44Q564.22 18.88 563.90 19.16Q563.58 19.44 563.14 19.44L563.14 19.44L548.40 19.44L548.52 18.56Q548.60 18.10 548.92 17.82Q549.24 17.54 549.66 17.54L549.66 17.54ZM556.70 2.72L556.94 0.98L556.94 0.98L565.70 0.98L563.88 14.22Q563.76 15.12 563.04 15.76L563.04 15.76Q562.34 16.38 561.42 16.38L561.42 16.38L551.96 16.38Q551.04 16.38 550.52 15.76L550.52 15.76Q549.98 15.12 550.10 14.22L550.10 14.22L551.92 0.98L555.98 0.98L555.76 2.56L555.62 3.72L555.14 7.20L560.78 7.20L561.40 2.72L556.70 2.72ZM559.86 13.90L559.86 13.90L559.86 13.90L560.54 8.94L554.90 8.94L554.20 13.90Q554.16 14.20 554.34 14.42L554.34 14.42Q554.52 14.64 554.82 14.64L554.82 14.64L559.04 14.64Q559.34 14.64 559.58 14.42L559.58 14.42Q559.82 14.20 559.86 13.90ZM548.62 11.98L548.62 11.98L548.62 11.98Q548.82 11.78 548.86 11.50L548.86 11.50L549.10 10.04L547.92 10.20L548.78 4.30L549.38 4.30Q549.64 4.30 549.86 4.10L549.86 4.10Q550.06 3.90 550.08 3.66L550.08 3.66L550.30 2.22L549.08 2.22L549.30 0.74L546 0.74Q545.32 0.74 545.14 1.52L545.14 1.52L545 2.22L543.52 2.22Q543.28 2.22 543.12 2.40L543.12 2.40Q542.96 2.56 542.92 2.76L542.92 2.76L542.56 4.30L544.72 4.30L543.76 10.72L542.16 10.94Q541.96 10.96 541.78 11.12L541.78 11.12Q541.60 11.26 541.56 11.48L541.56 11.48L541.16 13.08L543.46 12.80L542.90 16.56Q542.86 16.84 542.76 17.04L542.76 17.04Q542.66 17.24 542.46 17.42L542.46 17.42Q542.30 17.62 542.08 17.68L542.08 17.68Q541.90 17.72 541.64 17.72L541.64 17.72L540.66 17.72L540.44 19.60L544.14 19.60Q545.22 19.60 546.04 18.68L546.04 18.68Q546.86 17.76 546.98 16.48L546.98 16.48L547.60 12.26L548.12 12.20Q548.40 12.16 548.62 11.98ZM569.90 0.80L566.66 19.50L566.66 19.50L567.78 19.50Q569 19.50 569.97 18.66Q570.94 17.82 571.20 16.56L571.20 16.56L573.92 0.80L569.90 0.80ZM579.36 0.78L575.80 0.78L575.80 0.78Q575.58 0.78 575.41 0.93Q575.24 1.08 575.20 1.30L575.20 1.30L572.98 17.38Q572.86 18.28 573.40 18.92L573.40 18.92Q573.94 19.58 574.84 19.58L574.84 19.58L583.90 19.58L583.90 19.58Q583.98 18.78 583.49 18.20Q583 17.62 582.22 17.62L582.22 17.62L577.76 17.62Q577.52 17.62 577.32 17.44L577.32 17.44Q577.10 17.20 577.14 16.88L577.14 16.88L579.36 0.78ZM581.60 0.80L579.98 16.36L579.98 16.36L583.94 16.36L585.34 2.60Q585.40 1.82 584.95 1.31Q584.50 0.80 583.76 0.80L583.76 0.80L581.60 0.80ZM587.74 0.80L585.90 18.62L585.90 18.62Q585.88 19 586.10 19.25Q586.32 19.50 586.70 19.50L586.70 19.50L589.84 19.50L591.52 3.26Q591.60 2.20 590.98 1.50Q590.36 0.80 589.36 0.80L589.36 0.80L587.74 0.80ZM613.28 2.60L611.56 2.60L611.56 2.60L611.78 0.74L617.46 0.74L615.28 17.38Q615.14 18.32 614.46 18.94L614.46 18.94Q613.76 19.60 612.90 19.60L612.90 19.60L606.44 19.60Q605.58 19.60 605.06 18.96L605.06 18.96Q604.52 18.32 604.62 17.40L604.62 17.40L606.84 0.74L610.82 0.74L608.64 17.26Q608.58 17.56 608.76 17.74L608.76 17.74Q608.96 17.92 609.24 17.92L609.24 17.92L610.52 17.92Q610.80 17.92 611.04 17.74L611.04 17.74Q611.16 17.62 611.24 17.46L611.24 17.46Q611.28 17.34 611.32 17.20L611.32 17.20L613.28 2.60ZM599.02 19.56L595.94 19.56L595.94 19.56L597.98 6.00L594.54 6.00L594.62 5.44Q594.70 4.98 595.06 4.69Q595.42 4.40 595.90 4.40L595.90 4.40L598.22 4.40L598.52 2.36L595.24 2.36L595.32 1.82Q595.40 1.34 595.77 1.04Q596.14 0.74 596.64 0.74L596.64 0.74L605.74 0.74L605.66 1.24Q605.58 1.72 605.20 2.04Q604.82 2.36 604.30 2.36L604.30 2.36L602.24 2.36L601.94 4.40L605.36 4.40L605.28 4.94Q605.20 5.40 604.84 5.70Q604.48 6.00 604.00 6.00L604.00 6.00L601.70 6.00L599.76 18.94Q599.72 19.22 599.51 19.39Q599.30 19.56 599.02 19.56L599.02 19.56ZM602.14 6.96L603.96 6.96L603.96 6.96Q604.20 6.96 604.37 7.13Q604.54 7.30 604.52 7.54L604.52 7.54L602.98 19.56L602.98 19.56Q602.00 19.56 601.37 18.88Q600.74 18.20 600.82 17.26L600.82 17.26L602.14 6.96ZM595.48 6.96L597.24 6.96L597.24 6.96L595.44 17.30Q595.26 18.30 594.47 18.93Q593.68 19.56 592.64 19.56L592.64 19.56L592.64 19.56L594.72 7.56Q594.76 7.30 594.97 7.13Q595.18 6.96 595.48 6.96L595.48 6.96ZM626.66 7.06L624.82 7.06L624.82 7.06L625.08 5.28L630.60 5.28L629.60 12.38Q629.48 13.28 628.78 13.96L628.78 13.96Q628.04 14.60 627.16 14.60L627.16 14.60L623.26 14.60L622.86 17.36Q622.76 18.30 622.08 18.94L622.08 18.94Q621.36 19.60 620.48 19.60L620.48 19.60L618.46 19.60L621.16 0.74L625.24 0.74L623.50 12.80L624.92 12.80Q625.34 12.80 625.64 12.52L625.64 12.52Q625.94 12.24 625.98 11.82L625.98 11.82L626.66 7.06ZM630.56 2.72L625.44 2.72L625.44 2.72L625.72 0.74L631.38 0.74L631.18 2.14Q631.14 2.38 630.96 2.54L630.96 2.54Q630.78 2.72 630.56 2.72L630.56 2.72ZM632.38 0.74L636.48 0.74L636.48 0.74L634.10 17.36Q634.02 18.30 633.34 18.94L633.34 18.94Q632.60 19.60 631.72 19.60L631.72 19.60L629.70 19.60L632.38 0.74ZM642.78 2.72L636.66 2.72L636.66 2.72L636.96 0.74L643.72 0.74L643.54 2.04Q643.48 2.34 643.28 2.52L643.28 2.52Q643.06 2.72 642.78 2.72L642.78 2.72ZM636.26 5.56L643.12 5.56L643.12 5.56L642.86 7.58Q642.84 7.72 642.74 7.80L642.74 7.80Q642.64 7.88 642.50 7.88L642.50 7.88L642.00 7.88L640.38 19.16Q640.38 19.24 640.35 19.32Q640.32 19.40 640.26 19.46L640.26 19.46Q640.12 19.60 639.94 19.60L639.94 19.60L636.28 19.60L637.96 7.88L635.94 7.88L636.26 5.56ZM669.40 3.12L669.72 1.40L669.72 1.40L652.84 1.40L653.36 0.74L649.04 0.74L648.56 1.40L646.08 1.40Q645.84 1.40 645.64 1.64L645.64 1.64Q645.46 1.90 645.42 2.16L645.42 2.16L645.12 3.60L647.22 3.60L644.46 7.90L646.88 7.90L645.18 19.60L647.92 19.60Q648.48 19.60 648.90 19.23Q649.32 18.86 649.42 18.30L649.42 18.30L649.84 15.16L662.52 15.16L662.26 17.16Q662.24 17.28 662.18 17.36L662.18 17.36Q662.12 17.42 662.02 17.50L662.02 17.50Q662.00 17.52 661.94 17.54L661.94 17.54Q661.84 17.64 661.74 17.66L661.74 17.66Q661.62 17.66 661.50 17.66L661.50 17.66Q661.46 17.66 661.40 17.66L661.40 17.66L659.26 17.66Q658.84 17.66 658.54 18.02L658.54 18.02Q658.22 18.36 658.16 18.80L658.16 18.80L658.06 19.60L663.58 19.60Q664.52 19.60 665.30 19.06L665.30 19.06Q666.06 18.50 666.20 17.42L666.20 17.42L667.92 5.28L652.14 5.28L651.88 6.84L663.70 6.84L663.42 8.96L650.74 8.96L651.28 5.28L650.46 5.28L651.48 3.60L668.84 3.60Q669.06 3.60 669.22 3.46L669.22 3.46Q669.36 3.32 669.40 3.12L669.40 3.12ZM650.16 13.10L650.48 11.14L650.48 11.14L663.16 11.14L662.84 13.10L650.16 13.10ZM685.32 15.38L686.88 4.44L686.88 4.44L676.70 4.44L676.44 6.30L682.52 6.30L681.30 14.66Q681.26 15.08 680.90 15.40L680.90 15.40Q680.54 15.72 680.14 15.72L680.14 15.72L675.52 15.72Q675.12 15.72 674.88 15.40L674.88 15.40Q674.64 15.10 674.70 14.66L674.70 14.66L676.16 4.44L672.04 4.44L670.48 15.38Q670.42 15.90 670.58 16.32L670.58 16.32Q670.74 16.74 671.04 17.06L671.04 17.06Q671.32 17.38 671.72 17.54L671.72 17.54Q672.14 17.76 672.62 17.76L672.62 17.76L682.52 17.76Q682.96 17.76 683.44 17.54L683.44 17.54Q683.88 17.38 684.24 17.08L684.24 17.08Q684.66 16.78 684.94 16.36L684.94 16.36Q685.22 15.92 685.32 15.38L685.32 15.38ZM695.72 0.74L673.08 0.74L673.08 0.74Q672.68 0.74 672.38 0.99Q672.08 1.24 672.00 1.64L672.00 1.64L671.74 3.20L690.04 3.20L688.12 17.16Q688.10 17.50 687.86 17.72L687.86 17.72Q687.64 17.94 687.36 17.94L687.36 17.94L686.52 17.94Q685.90 17.94 685.40 18.38L685.40 18.38Q684.90 18.84 684.78 19.52L684.78 19.52L684.78 19.60L689.78 19.60Q690.64 19.60 691.38 18.92L691.38 18.92Q692.08 18.26 692.24 17.30L692.24 17.30L694.14 3.20L694.66 3.20Q694.98 3.20 695.21 3.00Q695.44 2.80 695.48 2.50L695.48 2.50L695.72 0.74ZM703.44 0.74L699.50 0.74L699.50 0.74Q699.32 0.74 699.18 0.85Q699.04 0.96 699.02 1.14L699.02 1.14L696.64 17.26Q696.48 18.34 697.14 18.96L697.14 18.96Q697.80 19.60 698.80 19.60L698.80 19.60L705.08 19.60L705.08 19.60Q705.18 18.74 704.61 18.12Q704.04 17.50 703.18 17.50L703.18 17.50L701.74 17.50Q700.96 17.50 701.06 16.84L701.06 16.84L703.44 0.74ZM709.86 5.14L704.30 3.20L704.30 3.20L704.26 3.48Q704.10 4.58 704.67 5.50Q705.24 6.42 706.34 6.82L706.34 6.82L710.10 8.14L710.42 6.04Q710.46 5.74 710.30 5.49Q710.14 5.24 709.86 5.14L709.86 5.14ZM714.42 11.18L715.98 16.12L715.98 16.12Q717.46 19.56 720.82 19.56L720.82 19.56L721.42 19.56L718.66 10.80Q718.32 10.02 717.56 10.02L717.56 10.02L715.00 10.02L719.52 0.74L715.86 0.74Q715.24 0.74 714.90 1.32L714.90 1.32L705.88 19.56L705.88 19.56Q709.86 19.56 712.10 15.80L712.10 15.80L714.42 11.18ZM737.28 2.36L735.02 19.60L735.02 19.60L738.46 19.60Q738.80 19.60 739.04 19.37Q739.28 19.14 739.36 18.78L739.36 18.78L740.52 10.50L745.96 12.94L746.10 11.28Q746.18 10.68 745.91 10.19Q745.64 9.70 745.12 9.46L745.12 9.46L740.96 7.50L741.72 2.36L746.68 2.36Q747.06 2.36 747.32 2.11Q747.58 1.86 747.62 1.48L747.62 1.48L747.72 0.74L734.88 0.74Q734.52 0.74 734.25 0.99Q733.98 1.24 733.92 1.62L733.92 1.62L733.82 2.36L737.28 2.36ZM729.98 2.64L728.28 2.64L728.28 2.64L728.50 0.94L733.38 0.94L731.18 17.62Q731.06 18.44 730.46 19.02L730.46 19.02Q729.84 19.60 729.10 19.60L729.10 19.60L724.02 19.60Q723.28 19.60 722.82 19.02L722.82 19.02Q722.36 18.44 722.48 17.62L722.48 17.62L724.66 0.94L728.00 0.94L725.82 17.62Q725.76 17.98 726.08 17.98L726.08 17.98L727.60 17.98Q727.94 17.98 728.00 17.62L728.00 17.62L729.98 2.64ZM754.24 3.72L753.78 3.72L753.78 3.72L753.78 3.72L753.98 2.16L757.44 2.16L755.42 17.66Q755.32 18.46 754.74 19.02L754.74 19.02Q754.16 19.60 753.48 19.60L753.48 19.60L749.90 19.60Q749.20 19.60 748.80 19.02L748.80 19.02Q748.38 18.46 748.48 17.66L748.48 17.66L750.50 2.16L753.50 2.16L751.48 17.68Q751.46 17.84 751.50 17.95Q751.54 18.06 751.70 18.06L751.70 18.06L752.08 18.06Q752.38 18.06 752.42 17.68L752.42 17.68L754.24 3.72ZM771.36 18.38L771.36 18.38L771.36 18.38L771.36 18.38Q771.48 18.54 771.68 18.54L771.68 18.54L772.32 18.54L772.20 19.60L769.14 19.60Q768.32 19.60 767.84 18.98L767.84 18.98Q767.34 18.36 767.48 17.50L767.48 17.50L768.12 12.64L765.44 12.64L765.60 11.46L772.14 11.46L771.28 18.02Q771.24 18.22 771.36 18.38ZM761.42 11.46L765.18 11.46L765.18 11.46L765.18 11.46L764.96 13.04L764.92 13.36L764.36 17.50Q764.26 18.36 763.62 18.98L763.62 18.98Q762.98 19.60 762.16 19.60L762.16 19.60L760.34 19.60L761.42 11.46ZM768.06 8.88L768.06 8.88L768.06 8.88L768.06 8.88Q768.20 9.08 768.52 9.08L768.52 9.08L771.44 9.08Q771.92 9.08 772.24 9.46L772.24 9.46Q772.56 9.84 772.50 10.36L772.50 10.36L772.44 10.78L765.66 10.78Q764.72 10.78 764.18 10.12L764.18 10.12Q763.62 9.46 763.74 8.46L763.74 8.46L763.82 7.94L761.88 7.98L761.96 7.46Q762.02 7.08 762.28 6.82L762.28 6.82Q762.54 6.58 762.92 6.56L762.92 6.56L764.00 6.52L764.22 4.96L768.40 4.96L768.20 6.42L772.72 6.32L772.64 6.84Q772.58 7.24 772.32 7.48L772.32 7.48Q772.06 7.74 771.68 7.74L771.68 7.74L768.02 7.84L767.94 8.36Q767.90 8.68 768.06 8.88ZM757.30 19.60L755.94 19.60L755.94 19.60L758.16 2.86L762.14 2.86L760.20 17.34Q760.14 17.92 759.84 18.32L759.84 18.32Q759.56 18.74 759.14 19.02L759.14 19.02Q758.74 19.30 758.24 19.44L758.24 19.44Q757.76 19.60 757.30 19.60L757.30 19.60ZM773.02 3.40L773.02 3.40L773.02 3.40L773.02 3.40Q773.46 3.94 773.36 4.70L773.36 4.70L773.24 5.58L769.38 5.58L769.52 4.54Q769.54 4.46 769.50 4.40L769.50 4.40Q769.48 4.36 769.42 4.30L769.42 4.30Q769.38 4.24 769.30 4.24L769.30 4.24Q769.22 4.22 769.16 4.22L769.16 4.22L762.50 4.22L762.68 2.86L763.74 2.86L763.92 1.50Q763.98 1.18 764.20 0.96L764.20 0.96Q764.44 0.74 764.74 0.74L764.74 0.74L768.20 0.74L768.14 1.20L773.72 1.20L773.70 1.34Q773.64 1.82 773.30 2.12L773.30 2.12Q772.96 2.44 772.50 2.44L772.50 2.44L767.98 2.44L767.92 2.86L771.88 2.86Q772.58 2.86 773.02 3.40ZM781.04 17.34L787.38 8.20L787.38 8.20L793.08 17.26Q794.48 19.60 796.88 19.60L796.88 19.60L799.72 19.60L791.60 6.50L788.40 6.50L792.46 0.74L788.16 0.74Q787.58 0.74 787.20 1.24L787.20 1.24L774.46 19.60L776.66 19.60Q779.28 19.60 781.04 17.34L781.04 17.34ZM805.54 1.38L805.54 1.38L805.54 1.38L805.48 1.66L802.50 1.66L800.50 17.14Q800.42 17.64 800.54 18.08L800.54 18.08Q800.64 18.54 800.92 18.88L800.92 18.88Q801.16 19.20 801.54 19.40L801.54 19.40Q801.92 19.60 802.36 19.60L802.36 19.60L809.14 19.60Q809.58 19.60 810.02 19.40L810.02 19.40Q810.44 19.20 810.80 18.88L810.80 18.88Q811.16 18.54 811.38 18.08L811.38 18.08Q811.62 17.62 811.68 17.14L811.68 17.14L813.68 1.66L810.24 1.66L810.38 0.74L806.20 0.74Q805.96 0.74 805.76 0.92L805.76 0.92Q805.58 1.10 805.54 1.38ZM808.84 10.74L807.96 17.56L807.96 17.56Q807.92 17.74 807.76 17.90L807.76 17.90Q807.62 18.04 807.42 18.04L807.42 18.04L804.26 18.04Q804.08 18.04 803.98 17.90L803.98 17.90Q803.84 17.74 803.86 17.56L803.86 17.56L804.76 10.74L808.84 10.74ZM809.84 3.14L809.04 9.16L809.04 9.16L804.96 9.16L805.78 3.14L809.84 3.14ZM825.16 1.58L825.16 1.58L825.16 1.58L818.60 1.58L818.92 0.74L815.82 0.74Q815.30 0.74 815.00 1.34L815.00 1.34L813.64 5.08L815.46 5.08Q817.10 5.08 818.00 3.34L818.00 3.34L821.54 3.34L819.72 17.30Q819.68 17.58 819.44 17.80L819.44 17.80Q819.22 18.02 818.94 18.02L818.94 18.02L816.72 18.02Q816.32 18.02 816.00 18.30L816.00 18.30Q815.70 18.60 815.64 19.04L815.64 19.04L815.56 19.60L821.32 19.60Q822.20 19.60 822.90 19.06L822.90 19.06Q823.62 18.52 823.76 17.44L823.76 17.44L825.72 2.26Q825.74 1.98 825.58 1.78L825.58 1.78Q825.44 1.58 825.16 1.58ZM815.50 11.14L818.94 12.98L818.94 12.98L819.72 10.54L815.20 7.98L814.76 8.76Q814.44 9.44 814.65 10.11Q814.86 10.78 815.50 11.14L815.50 11.14ZM841.98 8.82L842.44 5.32L842.44 5.32L838.76 5.32Q838.54 5.32 838.37 5.48Q838.20 5.64 838.16 5.88L838.16 5.88L837.76 8.82L833.34 8.82Q833.12 8.82 833.00 8.64L833.00 8.64Q832.88 8.46 832.96 8.22L832.96 8.22L834.98 3.90L850.74 3.90Q851.00 3.90 851.21 3.70Q851.42 3.50 851.46 3.22L851.46 3.22L851.62 1.98L835.92 1.98L836.46 0.78L832.44 0.78L831.86 1.98L829.40 1.98Q829.20 1.98 829.04 2.14Q828.88 2.30 828.84 2.52L828.84 2.52L828.66 3.90L830.94 3.90L828.94 8.08Q828.56 9.00 829.04 9.76L829.04 9.76Q829.48 10.54 830.38 10.54L830.38 10.54L837.54 10.54L836.68 17Q836.64 17.42 836.40 17.70L836.40 17.70Q836.16 17.98 835.78 17.98L835.78 17.98L834.10 17.98Q833.58 17.98 833.16 18.36Q832.74 18.74 832.66 19.32L832.66 19.32L832.62 19.56L838.48 19.56Q839.34 19.56 840.04 18.92L840.04 18.92Q840.72 18.26 840.84 17.36L840.84 17.36L841.74 10.54L849.64 10.54Q849.98 10.54 850.26 10.29Q850.54 10.04 850.58 9.66L850.58 9.66L850.70 8.82L841.98 8.82ZM829.28 12.10L826.62 19.56L826.62 19.56L827.30 19.56Q828.76 19.56 830.03 18.61Q831.30 17.66 831.88 16.12L831.88 16.12L833.50 11.58L829.96 11.58Q829.74 11.58 829.55 11.72Q829.36 11.86 829.28 12.10L829.28 12.10ZM844.50 11.58L845.10 17.84L845.10 17.84Q845.46 19.56 846.92 19.56L846.92 19.56L849.28 19.56L848.58 12.06Q848.48 11.58 848.08 11.58L848.08 11.58L844.50 11.58ZM866.48 15.28L866.48 15.28L866.48 15.28Q866.14 15.10 865.94 14.80L865.94 14.80Q865.80 14.60 865.72 14.38L865.72 14.38Q865.80 14.62 865.94 14.80L865.94 14.80Q866.16 15.10 866.48 15.28L866.48 15.28Q866.80 15.44 867.20 15.44L867.20 15.44Q866.80 15.44 866.48 15.28ZM862.50 14.80L862.50 14.80L862.50 14.80Q862.22 15.08 861.86 15.26L861.86 15.26Q862.22 15.08 862.50 14.80L862.50 14.80Q862.78 14.50 863.00 14.10L863.00 14.10Q863.20 13.70 863.26 13.28L863.26 13.28Q863.20 13.70 863.00 14.10L863.00 14.10Q862.78 14.50 862.50 14.80ZM877.86 0.74L877.66 2.14L877.66 2.14Q877.62 2.46 877.38 2.67Q877.14 2.88 876.86 2.88L876.86 2.88L871.02 2.88L870.88 4.04L877.10 4.04L875.34 17.34Q875.22 18.26 874.48 18.92L874.48 18.92Q873.74 19.58 872.84 19.58L872.84 19.58L854.32 19.58Q853.42 19.58 852.88 18.92L852.88 18.92Q852.32 18.26 852.44 17.34L852.44 17.34L854.20 4.04L858.26 4.04L858.00 5.96L857.98 6.02L857.90 6.78L857.88 6.86L857.00 13.46L858.66 13.46Q858.86 13.46 859.04 13.32L859.04 13.32Q859.22 13.16 859.26 12.96L859.26 12.96L860.18 6.02L858.62 6.02L858.88 4.04L860.44 4.04L860.58 2.88L854.04 2.88L854.26 1.26Q854.30 1.04 854.46 0.89Q854.62 0.74 854.82 0.74L854.82 0.74L877.86 0.74ZM866.98 2.88L864.64 2.88L864.64 2.88L864.48 4.04L866.82 4.04L866.98 2.88ZM871.36 16.78L871.36 16.78L871.36 16.78L871.54 15.44L867.20 15.44Q866.80 15.44 866.48 15.28L866.48 15.28Q866.16 15.10 865.94 14.80L865.94 14.80Q865.80 14.62 865.72 14.38L865.72 14.38Q865.68 14.24 865.64 14.10L865.64 14.10Q865.54 13.70 865.60 13.28L865.60 13.28L866.56 6.02L864.22 6.02L863.26 13.28Q863.20 13.70 863.00 14.10L863.00 14.10Q862.78 14.50 862.50 14.80L862.50 14.80Q862.22 15.08 861.86 15.26L861.86 15.26Q861.84 15.26 861.84 15.26L861.84 15.26Q861.82 15.28 861.82 15.28L861.82 15.28Q861.44 15.44 861.06 15.44L861.06 15.44L856.74 15.44L856.56 16.78Q856.52 17.20 856.78 17.48L856.78 17.48Q857.04 17.76 857.44 17.76L857.44 17.76L870.20 17.76Q870.60 17.76 870.96 17.48L870.96 17.48Q871.28 17.20 871.36 16.78ZM871.80 13.46L872.78 6.02L872.78 6.02L870.60 6.02L869.68 12.96Q869.66 13.16 869.80 13.32L869.80 13.32Q869.92 13.46 870.12 13.46L870.12 13.46L871.80 13.46ZM865.72 14.38L865.72 14.38L865.72 14.38Q865.68 14.24 865.64 14.10L865.64 14.10Q865.54 13.70 865.60 13.28L865.60 13.28Q865.54 13.70 865.64 14.10L865.64 14.10Q865.68 14.24 865.72 14.38ZM861.86 15.26L861.86 15.26L861.86 15.26Q861.84 15.26 861.84 15.26L861.84 15.26Q861.82 15.28 861.82 15.28L861.82 15.28Q861.44 15.44 861.06 15.44L861.06 15.44Q861.44 15.44 861.82 15.28L861.82 15.28Q861.82 15.28 861.84 15.26L861.84 15.26Q861.84 15.26 861.86 15.26ZM878.48 19.60L878.48 19.60L878.48 19.60L881.32 19.60Q881.90 18.94 882.51 17.92Q883.12 16.90 883.60 15.82L883.60 15.82Q883.92 15.00 883.47 14.31Q883.02 13.62 882.18 13.62L882.18 13.62L882.18 13.62Q881.14 13.62 880.68 14.76L880.68 14.76Q880.30 16.02 879.69 17.35Q879.08 18.68 878.48 19.60ZM905.46 0.74L901.52 0.74L901.52 0.74Q901.34 0.74 901.20 0.85Q901.06 0.96 901.04 1.14L901.04 1.14L898.66 17.26Q898.50 18.34 899.16 18.96L899.16 18.96Q899.82 19.60 900.82 19.60L900.82 19.60L907.10 19.60L907.10 19.60Q907.20 18.74 906.63 18.12Q906.06 17.50 905.20 17.50L905.20 17.50L903.76 17.50Q902.98 17.50 903.08 16.84L903.08 16.84L905.46 0.74ZM911.88 5.14L906.32 3.20L906.32 3.20L906.28 3.48Q906.12 4.58 906.69 5.50Q907.26 6.42 908.36 6.82L908.36 6.82L912.12 8.14L912.44 6.04Q912.48 5.74 912.32 5.49Q912.16 5.24 911.88 5.14L911.88 5.14ZM916.44 11.18L918.00 16.12L918.00 16.12Q919.48 19.56 922.84 19.56L922.84 19.56L923.44 19.56L920.68 10.80Q920.34 10.02 919.58 10.02L919.58 10.02L917.02 10.02L921.54 0.74L917.88 0.74Q917.26 0.74 916.92 1.32L916.92 1.32L907.90 19.56L907.90 19.56Q911.88 19.56 914.12 15.80L914.12 15.80L916.44 11.18ZM927.72 0.74L949.72 0.74L949.72 0.74L949.40 2.76L945.66 6.80L948.70 6.80L948.38 10.44L942.90 14.56L948.78 19.60L944.62 19.60Q942.80 19.60 941.32 18.28L941.32 18.28L939.72 16.78L936.96 18.90Q936.02 19.60 934.92 19.60L934.92 19.60L929.54 19.60L937.02 14.10L932.46 9.90L930.92 15.92Q930.46 17.60 929.18 18.60L929.18 18.60Q927.90 19.60 926.30 19.60L926.30 19.60L924.48 19.60L929.10 2.92L926.62 2.92L926.92 1.42Q926.96 1.12 927.16 0.94L927.16 0.94Q927.40 0.74 927.72 0.74L927.72 0.74ZM939.52 11.82L943.40 8.72L943.40 8.72L939.62 8.72L939.86 6.80L943.56 2.92L934.52 2.92L933.12 8.02L935.48 8.02L939.52 11.82ZM965.10 0.76L953.58 0.76L953.58 0.76Q953.36 0.76 953.20 0.90L953.20 0.90Q953.04 1.06 953.00 1.30L953.00 1.30L952.84 2.42L955.00 2.42L954.38 5.30L953.24 5.30Q952.98 5.30 952.80 5.48L952.80 5.48Q952.60 5.66 952.56 5.94L952.56 5.94L952.42 7.14L954.02 7.14L952.90 11.92L952.38 11.92Q952.14 11.92 951.96 12.08L951.96 12.08Q951.80 12.24 951.76 12.50L951.76 12.50L951.60 13.76L952.54 13.76L951.22 19.60L953.70 19.60Q954.36 19.60 954.86 19.18L954.86 19.18Q955.38 18.76 955.54 18.08L955.54 18.08L956.50 13.76L959.34 13.76L958.86 17.28Q958.80 17.58 958.56 17.76L958.56 17.76Q958.32 17.94 958.04 17.94L958.04 17.94L957.78 17.94Q957.50 17.94 957.30 18.14L957.30 18.14Q957.08 18.32 957.04 18.62L957.04 18.62L956.90 19.60L960.92 19.60Q961.60 19.60 962.16 19.10L962.16 19.10Q962.72 18.58 962.80 17.86L962.80 17.86L965.10 0.76ZM960.24 7.14L959.56 11.92L959.56 11.92L956.86 11.92L957.92 7.14L960.24 7.14ZM960.86 2.42L960.46 5.30L960.46 5.30L958.28 5.30L958.98 2.42L960.86 2.42ZM965.74 4.10L963.68 19.58L963.68 19.58L967.56 19.58L969.72 3.42L966.52 3.42Q966.22 3.42 966.00 3.61Q965.78 3.80 965.74 4.10L965.74 4.10ZM973.22 7.58L974.94 1.76L974.94 1.76Q974.98 1.34 974.72 1.04Q974.46 0.74 974.06 0.74L974.06 0.74L966.76 0.74Q966.46 0.74 966.24 0.92L966.24 0.92Q966.04 1.08 965.98 1.40L965.98 1.40L965.82 2.60L971.46 2.60L969.84 8.50Q969.78 8.72 969.91 8.89Q970.04 9.06 970.24 9.06L970.24 9.06L970.60 9.06L969.32 18.86L970.66 18.86Q971.80 18.86 972.30 18.44L972.30 18.44Q972.80 18 972.92 16.90L972.92 16.90L974.10 8.04Q974.12 7.86 974.00 7.72Q973.88 7.58 973.70 7.58L973.70 7.58L973.22 7.58ZM978.42 11.38L978.04 11.38L978.04 11.38Q977.88 11.38 977.74 11.51Q977.60 11.64 977.56 11.82L977.56 11.82L977.36 13.46L989.50 13.22Q989.68 13.22 989.82 13.09Q989.96 12.96 990.00 12.76L990.00 12.76L990.20 11.12L987.64 11.20L988.44 4.68L990.14 4.68Q990.38 4.68 990.57 4.50Q990.76 4.32 990.80 4.06L990.80 4.06L991.02 2.48L988.72 2.48L988.94 0.82L985.88 0.82Q985.56 0.82 985.32 1.04Q985.08 1.26 985.04 1.60L985.04 1.60L983.80 11.26L981.70 11.30L982.94 1.46L980.32 1.46Q980.04 1.46 979.83 1.66Q979.62 1.86 979.58 2.16L979.58 2.16L978.42 11.38ZM999.88 17.48L977.46 17.48L977.46 17.48Q977.20 17.48 976.99 17.67Q976.78 17.86 976.74 18.16L976.74 18.16L976.58 19.60L998.96 19.60Q999.24 19.60 999.45 19.40Q999.66 19.20 999.70 18.90L999.70 18.90L999.88 17.48ZM999.54 14.64L978.46 14.64L978.46 14.64Q978.16 14.64 977.91 14.88Q977.66 15.12 977.60 15.46L977.60 15.46L977.48 16.54L998.68 16.54Q998.94 16.54 999.14 16.35Q999.34 16.16 999.40 15.88L999.40 15.88L999.54 14.64ZM996.02 2.40L996.24 0.80L996.24 0.80L992.82 0.80Q992.62 0.80 992.47 0.95Q992.32 1.10 992.28 1.30L992.28 1.30L991.02 11.24Q990.90 12.18 991.42 12.82L991.42 12.82Q991.94 13.46 992.82 13.46L992.82 13.46L1000.18 13.46L1000.22 13.30Q1000.30 12.48 999.85 11.92Q999.40 11.36 998.66 11.36L998.66 11.36L995.58 11.36Q995.32 11.36 995.14 11.12L995.14 11.12Q994.96 10.90 995.00 10.60L995.00 10.60L995.72 4.66L1000.84 4.24Q1001.06 4.22 1001.23 4.06Q1001.40 3.90 1001.42 3.66L1001.42 3.66L1001.66 1.96L996.02 2.40ZM1016.22 8.38L1015.50 8.38L1015.50 8.38L1015.70 6.78L1020.38 6.78L1020.28 7.54Q1020.22 7.90 1019.96 8.14Q1019.70 8.38 1019.36 8.38L1019.36 8.38L1018.88 8.38L1018.66 10L1019.90 10L1019.40 13.82Q1019.30 14.52 1018.92 14.94L1018.92 14.94Q1018.54 15.38 1017.94 15.50L1017.94 15.50L1017.64 17.74L1018.20 17.74Q1018.48 17.74 1018.66 17.96Q1018.84 18.18 1018.82 18.48L1018.82 18.48L1018.70 19.32L1011.90 19.32Q1011.14 19.32 1010.68 18.76L1010.68 18.76Q1010.22 18.18 1010.34 17.38L1010.34 17.38L1011.76 6.78L1015.36 6.78L1015.14 8.38L1015.08 8.80L1014.92 10L1014.72 11.60L1014.60 12.44L1014.40 13.94L1015.90 13.94Q1016.10 13.94 1016.26 13.78L1016.26 13.78Q1016.42 13.64 1016.44 13.44L1016.44 13.44L1016.68 11.60L1015.06 11.60L1015.28 10L1016.00 10L1016.22 8.38ZM1014.36 17.74L1014.96 17.74L1014.96 17.74L1015.26 15.52L1014.18 15.52L1013.96 17.26Q1013.92 17.44 1014.04 17.60L1014.04 17.60Q1014.16 17.74 1014.36 17.74L1014.36 17.74ZM1024.26 0.74L1024.20 1.22L1024.20 1.22L1027.76 1.22L1027.64 2.00Q1027.58 2.40 1027.30 2.65Q1027.02 2.90 1026.64 2.90L1026.64 2.90L1023.96 2.90L1023.96 2.90Q1023.94 3.06 1023.84 3.15Q1023.74 3.24 1023.60 3.24L1023.60 3.24L1019.96 3.24L1020.02 2.90L1012.50 2.90L1012.48 3.06Q1012.46 3.20 1012.36 3.30Q1012.26 3.40 1012.10 3.40L1012.10 3.40L1008.48 3.40L1008.54 2.90L1004.76 2.90L1004.86 2.14Q1004.92 1.74 1005.20 1.48Q1005.48 1.22 1005.86 1.22L1005.86 1.22L1008.78 1.22L1008.80 1.08Q1008.82 0.92 1008.92 0.83Q1009.02 0.74 1009.16 0.74L1009.16 0.74L1012.80 0.74L1012.72 1.22L1020.24 1.22L1020.26 1.08Q1020.28 0.92 1020.39 0.83Q1020.50 0.74 1020.64 0.74L1020.64 0.74L1024.26 0.74ZM1024.74 3.72L1026.22 3.72L1026.22 3.72Q1026.54 3.72 1026.75 3.95Q1026.96 4.18 1026.96 4.54L1026.96 4.54L1026.96 4.54L1027.28 4.54L1027.24 4.88Q1027.16 5.44 1026.78 5.78Q1026.40 6.12 1025.88 6.12L1025.88 6.12L1024.40 6.12L1024.82 12.30L1026.34 11.62L1026.16 12.88Q1026.06 13.50 1025.52 13.78L1025.52 13.78L1024.92 14.06L1025.22 19.60L1024.04 19.60Q1022.96 19.60 1022.20 18.84Q1021.44 18.08 1021.34 16.94L1021.34 16.94L1021.28 15.70L1019.64 16.42L1019.82 15.18Q1019.92 14.56 1020.46 14.28L1020.46 14.28L1021.18 13.96L1020.68 6.12L1011.78 6.12L1012.00 4.54L1020.58 4.54L1020.54 3.72L1024.26 3.72L1024.30 4.54L1024.70 4.54L1024.74 3.72ZM1006.40 8.98L1006.90 8.98L1006.90 8.98L1007.50 4.54L1011.30 4.54L1011.10 6.12L1011.04 6.52L1009.52 17.86Q1009.42 18.58 1008.88 19.08L1008.88 19.08Q1008.34 19.58 1007.66 19.58L1007.66 19.58L1002.50 19.58L1002.56 19.20Q1002.64 18.66 1003.01 18.32Q1003.38 17.98 1003.88 17.98L1003.88 17.98L1005.22 17.98Q1005.42 17.98 1005.58 17.84L1005.58 17.84Q1005.74 17.70 1005.76 17.50L1005.76 17.50L1006.32 13.26L1005.74 13.26L1005.12 15.86Q1004.96 16.54 1004.45 16.96Q1003.94 17.38 1003.30 17.38L1003.30 17.38L1002.64 17.38L1003.60 13.26L1003.12 13.26L1003.24 12.34Q1003.28 12.04 1003.49 11.85Q1003.70 11.66 1003.98 11.66L1003.98 11.66L1006.54 11.66L1006.68 10.56L1004.92 10.56Q1004.24 10.56 1003.96 10.18L1003.96 10.18Q1003.70 9.82 1003.78 9.10L1003.78 9.10L1004.20 6.02Q1004.30 5.36 1004.77 4.93Q1005.24 4.50 1005.88 4.50L1005.88 4.50L1006.62 4.50L1006.06 8.58Q1006.02 8.98 1006.40 8.98L1006.40 8.98ZM1028.50 10.84L1030.40 10.84L1030.40 10.84L1029.16 19.58L1032.78 19.58Q1033.02 19.58 1033.21 19.42Q1033.40 19.26 1033.44 19.02L1033.44 19.02L1034.86 9.00L1034.02 9.00L1036.58 3.46L1051.94 3.46Q1052.56 3.46 1053.08 2.94L1053.08 2.94Q1053.60 2.42 1053.70 1.78L1053.70 1.78L1053.76 1.62L1037.66 1.62L1038.16 0.74L1034.26 0.74Q1033.78 0.74 1033.48 1.16L1033.48 1.16L1033.22 1.62L1030.94 1.62Q1030.56 1.62 1030.24 1.98L1030.24 1.98Q1029.90 2.34 1029.84 2.72L1029.84 2.72L1029.72 3.46L1032.14 3.46L1028.50 10.84ZM1042.22 9.72L1041.06 17.76L1041.06 17.76L1036.08 17.76Q1035.54 17.76 1035.16 18.08L1035.16 18.08Q1034.78 18.42 1034.70 18.94L1034.70 18.94L1034.64 19.60L1050.24 19.60Q1050.68 19.60 1050.98 19.20L1050.98 19.20Q1051.30 18.82 1051.38 18.38L1051.38 18.38L1051.46 17.76L1045.26 17.76L1046.44 9.72L1050.90 9.72Q1051.48 9.72 1051.92 9.34L1051.92 9.34Q1052.36 8.96 1052.46 8.38L1052.46 8.38L1052.54 7.88L1046.70 7.88L1047.18 4.46L1044.90 4.46Q1044.08 4.46 1043.46 5.00L1043.46 5.00Q1042.84 5.54 1042.70 6.36L1042.70 6.36L1042.50 7.88L1037.70 7.88Q1037.24 7.88 1036.92 8.16L1036.92 8.16Q1036.58 8.46 1036.52 8.90L1036.52 8.90L1036.40 9.72L1042.22 9.72ZM1069.22 19.60L1069.12 18.82L1069.12 18.82Q1069.04 18.24 1068.63 17.88Q1068.22 17.52 1067.66 17.52L1067.66 17.52L1065.10 17.52Q1064.76 17.52 1064.56 17.36L1064.56 17.36Q1064.36 17.18 1064.42 16.84L1064.42 16.84L1065.50 8.54L1062 8.54L1063.88 3.52L1078.44 3.52Q1078.86 3.52 1079.18 3.24L1079.18 3.24Q1079.50 2.94 1079.58 2.50L1079.58 2.50L1079.68 1.56L1069.90 1.56Q1069.92 1.22 1069.72 0.98L1069.72 0.98Q1069.52 0.74 1069.20 0.74L1069.20 0.74L1066 0.74L1065.90 1.56L1057.40 1.56Q1057.02 1.56 1056.74 1.82L1056.74 1.82Q1056.48 2.06 1056.42 2.44L1056.42 2.44L1056.30 3.52L1059.72 3.52L1054.60 16.36L1055.58 16.36Q1058.54 16.36 1059.96 13.16L1059.96 13.16L1060.84 11.02L1060.12 17.30Q1059.98 18.38 1060.58 18.98L1060.58 18.98Q1061.20 19.60 1062.10 19.60L1062.10 19.60L1069.22 19.60ZM1075.14 10.76L1077.24 10.18L1077.24 10.18Q1078.12 9.84 1078.55 8.93Q1078.98 8.02 1079.10 7.00L1079.10 7.00L1074.56 8.24L1073.64 5.30Q1073.32 4.52 1072.58 4.52L1072.58 4.52L1069.46 4.52L1073.06 16.14Q1073.46 17.68 1074.62 18.64L1074.62 18.64Q1075.80 19.60 1077.30 19.60L1077.30 19.60L1077.86 19.60L1075.14 10.76ZM1086.58 0.74L1089.44 0.74L1089.44 0.74L1089.22 2.38L1092.08 2.38L1091.94 3.36Q1091.88 3.76 1091.62 4.02L1091.62 4.02Q1091.34 4.26 1090.98 4.26L1090.98 4.26L1088.96 4.26L1087.06 18.64Q1087 19.06 1086.72 19.34L1086.72 19.34Q1086.42 19.60 1086.02 19.60L1086.02 19.60L1083.26 19.60L1085.30 4.26L1082.44 4.26L1082.58 3.28Q1082.64 2.88 1082.90 2.64L1082.90 2.64Q1083.16 2.38 1083.54 2.38L1083.54 2.38L1085.54 2.38L1085.64 1.62Q1085.70 1.24 1085.96 1L1085.96 1Q1086.22 0.74 1086.58 0.74L1086.58 0.74ZM1083.22 5.00L1083.22 5.00L1083.22 5.00L1084.74 5.00L1082.84 17.52Q1082.68 18.44 1082.02 19.02L1082.02 19.02Q1081.38 19.60 1080.50 19.60L1080.50 19.60L1082.66 5.50Q1082.70 5.28 1082.86 5.14L1082.86 5.14Q1083 5.00 1083.22 5.00ZM1089.48 5.16L1089.48 5.16L1089.48 5.16Q1089.62 5.00 1089.84 5.00L1089.84 5.00L1091.34 5.00L1089.66 19.60Q1088.88 19.60 1088.36 18.98L1088.36 18.98Q1087.84 18.36 1087.92 17.50L1087.92 17.50L1089.30 5.52Q1089.32 5.30 1089.48 5.16ZM1105.76 1.12L1105.72 1.34L1105.72 1.34Q1105.62 1.94 1105.19 2.32Q1104.76 2.70 1104.18 2.70L1104.18 2.70L1097.54 2.70L1097.76 1.12L1105.76 1.12ZM1100 11.50L1100.54 7.76L1100.54 7.76L1096.84 7.76L1097.06 6.16L1104.84 6.16L1104.04 11.88Q1103.92 12.78 1103.20 13.42L1103.20 13.42Q1102.50 14.08 1101.58 14.08L1101.58 14.08L1095.22 14.08L1094.78 17.30Q1094.74 17.58 1094.92 17.80L1094.92 17.80Q1095.08 18.02 1095.40 18.02L1095.40 18.02L1102.28 18.02Q1102.74 18.02 1103.02 18.36Q1103.30 18.70 1103.26 19.16L1103.26 19.16L1103.20 19.60L1092.54 19.60Q1091.62 19.60 1091.08 18.98L1091.08 18.98Q1090.54 18.34 1090.68 17.44L1090.68 17.44L1092.92 1.12L1097.02 1.12L1096.80 2.70L1096.26 6.60L1096.04 8.18L1095.90 9.18L1095.44 12.48L1098.92 12.48Q1099.32 12.48 1099.64 12.20L1099.64 12.20Q1099.96 11.92 1100 11.50L1100 11.50ZM1112.48 8.50L1112.68 6.80L1112.68 6.80L1112.48 8.52Q1112.46 8.62 1112.48 8.70L1112.48 8.70Q1112.46 8.60 1112.48 8.50L1112.48 8.50ZM1126.40 9.18L1126.40 9.18L1126.40 9.18Q1126.70 8.90 1126.76 8.50L1126.76 8.50L1126.96 6.80L1126.76 8.52Q1126.70 8.92 1126.40 9.18L1126.40 9.18Q1126.10 9.44 1125.72 9.44L1125.72 9.44Q1126.10 9.44 1126.40 9.18ZM1109.48 0.78L1113.38 0.78L1113.38 0.78L1112.86 5.12L1118.08 5.12L1118.36 2.48L1113.88 2.48L1114.10 0.78L1131.58 0.78L1130.62 8.86Q1130.50 9.80 1129.82 10.48L1129.82 10.48Q1129.14 11.12 1128.26 11.12L1128.26 11.12L1121.28 11.10L1121.04 13.08L1130.06 13.08L1129.94 14.08Q1129.88 14.46 1129.62 14.71Q1129.36 14.96 1129.02 14.96L1129.02 14.96L1120.80 14.96L1120.50 17.46L1129.82 17.46L1129.58 19.08Q1129.56 19.30 1129.40 19.44Q1129.24 19.58 1129.04 19.58L1129.04 19.58L1106.72 19.58L1106.88 18.36Q1106.94 17.96 1107.22 17.71Q1107.50 17.46 1107.86 17.46L1107.86 17.46L1116.38 17.46L1116.70 14.96L1107.66 14.96L1107.82 13.78Q1107.86 13.46 1108.07 13.27Q1108.28 13.08 1108.56 13.08L1108.56 13.08L1117.02 13.08L1117.32 11.12L1110.30 11.12Q1109.42 11.12 1108.90 10.46L1108.90 10.46Q1108.40 9.80 1108.52 8.86L1108.52 8.86L1109.48 0.78ZM1127.46 2.48L1122.28 2.48L1122.28 2.48L1121.98 5.12L1127.18 5.12L1127.46 2.48ZM1126.96 6.80L1121.78 6.80L1121.78 6.80L1121.46 9.44L1125.72 9.44Q1126.10 9.44 1126.40 9.18L1126.40 9.18Q1126.70 8.92 1126.76 8.52L1126.76 8.52L1126.96 6.80ZM1113.28 9.44L1117.54 9.44L1117.54 9.44L1117.86 6.80L1112.68 6.80L1112.48 8.50Q1112.46 8.60 1112.48 8.70L1112.48 8.70Q1112.48 8.98 1112.66 9.18L1112.66 9.18Q1112.88 9.44 1113.28 9.44L1113.28 9.44ZM1112.66 9.18L1112.66 9.18L1112.66 9.18Q1112.88 9.44 1113.28 9.44L1113.28 9.44Q1112.88 9.44 1112.66 9.18L1112.66 9.18Q1112.48 8.98 1112.48 8.70L1112.48 8.70Q1112.48 8.96 1112.66 9.18ZM1137.58 1.38L1137.58 1.38L1137.58 1.38L1137.52 1.66L1134.54 1.66L1132.54 17.14Q1132.46 17.64 1132.58 18.08L1132.58 18.08Q1132.68 18.54 1132.96 18.88L1132.96 18.88Q1133.20 19.20 1133.58 19.40L1133.58 19.40Q1133.96 19.60 1134.40 19.60L1134.40 19.60L1141.18 19.60Q1141.62 19.60 1142.06 19.40L1142.06 19.40Q1142.48 19.20 1142.84 18.88L1142.84 18.88Q1143.20 18.54 1143.42 18.08L1143.42 18.08Q1143.66 17.62 1143.72 17.14L1143.72 17.14L1145.72 1.66L1142.28 1.66L1142.42 0.74L1138.24 0.74Q1138 0.74 1137.80 0.92L1137.80 0.92Q1137.62 1.10 1137.58 1.38ZM1140.88 10.74L1140 17.56L1140 17.56Q1139.96 17.74 1139.80 17.90L1139.80 17.90Q1139.66 18.04 1139.46 18.04L1139.46 18.04L1136.30 18.04Q1136.12 18.04 1136.02 17.90L1136.02 17.90Q1135.88 17.74 1135.90 17.56L1135.90 17.56L1136.80 10.74L1140.88 10.74ZM1141.88 3.14L1141.08 9.16L1141.08 9.16L1137 9.16L1137.82 3.14L1141.88 3.14ZM1157.20 1.58L1157.20 1.58L1157.20 1.58L1150.64 1.58L1150.96 0.74L1147.86 0.74Q1147.34 0.74 1147.04 1.34L1147.04 1.34L1145.68 5.08L1147.50 5.08Q1149.14 5.08 1150.04 3.34L1150.04 3.34L1153.58 3.34L1151.76 17.30Q1151.72 17.58 1151.48 17.80L1151.48 17.80Q1151.26 18.02 1150.98 18.02L1150.98 18.02L1148.76 18.02Q1148.36 18.02 1148.04 18.30L1148.04 18.30Q1147.74 18.60 1147.68 19.04L1147.68 19.04L1147.60 19.60L1153.36 19.60Q1154.24 19.60 1154.94 19.06L1154.94 19.06Q1155.66 18.52 1155.80 17.44L1155.80 17.44L1157.76 2.26Q1157.78 1.98 1157.62 1.78L1157.62 1.78Q1157.48 1.58 1157.20 1.58ZM1147.54 11.14L1150.98 12.98L1150.98 12.98L1151.76 10.54L1147.24 7.98L1146.80 8.76Q1146.48 9.44 1146.69 10.11Q1146.90 10.78 1147.54 11.14L1147.54 11.14ZM1172 17.98L1167.30 17.98L1167.30 17.98Q1167 17.98 1166.76 18.19Q1166.52 18.40 1166.46 18.74L1166.46 18.74L1166.36 19.58L1180.68 19.58Q1180.90 19.58 1181.07 19.43Q1181.24 19.28 1181.28 19.02L1181.28 19.02L1181.42 17.98L1176.02 17.98L1176.54 13.96L1181.20 13.96Q1181.50 13.96 1181.73 13.75Q1181.96 13.54 1182.02 13.22L1182.02 13.22L1182.14 12.36L1176.76 12.36L1176.98 10.78L1173.80 10.78Q1173.44 10.78 1173.18 11.02Q1172.92 11.26 1172.86 11.64L1172.86 11.64L1172.76 12.36L1168.32 12.36Q1167.92 12.36 1167.63 12.63Q1167.34 12.90 1167.26 13.32L1167.26 13.32L1167.18 13.96L1172.54 13.96L1172 17.98ZM1172 2.88L1168.84 2.88L1168.84 2.88L1168.76 3.62L1172.76 7.40L1169.12 8.92Q1168.76 9.10 1168.32 9.10L1168.32 9.10L1167.92 9.10L1167.70 10.72L1170.50 10.72Q1171.34 10.72 1172.10 10.54L1172.10 10.54Q1172.84 10.36 1173.66 9.98L1173.66 9.98L1175.18 9.26L1177.14 10.14Q1178.32 10.72 1179.76 10.72L1179.76 10.72L1182.46 10.72L1182.66 9.10L1182.24 9.10Q1181.88 9.10 1181.54 8.94L1181.54 8.94L1177.92 7.16L1183.42 2.98L1183.72 0.74L1169.76 0.74Q1169.42 0.74 1169.17 0.97Q1168.92 1.20 1168.86 1.56L1168.86 1.56L1168.76 2.36L1180.48 2.36L1175.46 6.04L1172 2.88ZM1160.94 14.44L1160.94 14.44L1160.94 14.44L1162.28 4.50L1160.34 4.50L1158.56 17.42Q1160.54 17.26 1160.94 14.44ZM1163.42 19.26L1163.42 19.26L1163.42 19.26Q1163.12 19.60 1162.70 19.60L1162.70 19.60L1160.68 19.60L1162.98 1.88Q1163.08 1.38 1163.38 1.06L1163.38 1.06Q1163.66 0.74 1164.06 0.74L1164.06 0.74L1166.14 0.74L1163.82 18.40Q1163.74 18.92 1163.42 19.26ZM1167.76 4.86L1167.76 4.86L1167.76 4.86Q1167.64 4.72 1167.48 4.72L1167.48 4.72L1165.94 4.72L1165.04 11.78Q1164.98 12.46 1165.32 12.98L1165.32 12.98Q1165.64 13.48 1166.18 13.48L1166.18 13.48L1166.76 13.48L1167.84 5.24Q1167.86 5.02 1167.76 4.86ZM1187.46 15.02L1186.82 19.60L1186.82 19.60L1190.20 19.60Q1190.38 19.60 1190.54 19.47Q1190.70 19.34 1190.72 19.14L1190.72 19.14L1191.34 14.78L1192.48 14.72Q1192.72 14.70 1192.88 14.54Q1193.04 14.38 1193.08 14.16L1193.08 14.16L1193.30 12.64L1191.62 12.74L1192.66 5.24L1193.78 5.24Q1193.96 5.24 1194.10 5.12Q1194.24 5.00 1194.26 4.82L1194.26 4.82L1194.52 3.20L1192.94 3.20L1193.28 0.74L1190.24 0.74Q1189.92 0.74 1189.65 0.97Q1189.38 1.20 1189.34 1.56L1189.34 1.56L1189.10 3.20L1188.60 3.20L1188.92 1.34L1187.06 1.34Q1186.88 1.34 1186.73 1.47Q1186.58 1.60 1186.54 1.80L1186.54 1.80L1185.38 8.50L1185.38 8.50Q1186.34 8.50 1187.12 7.83Q1187.90 7.16 1188.10 6.18L1188.10 6.18L1188.26 5.24L1188.80 5.24L1187.76 12.96L1185.20 13.10Q1185.02 13.12 1184.89 13.24Q1184.76 13.36 1184.74 13.54L1184.74 13.54L1184.50 15.18L1187.46 15.02ZM1199.60 1.48L1199.92 0.74L1199.92 0.74L1195.92 0.74L1194.60 4.60L1197.64 4.60Q1198.06 4.60 1198.40 4.35Q1198.74 4.10 1198.90 3.70L1198.90 3.70L1198.90 3.70L1205.84 3.70L1203.98 17.16Q1203.94 17.46 1203.70 17.68L1203.70 17.68Q1203.48 17.90 1203.16 17.90L1203.16 17.90L1203.02 17.90Q1202.62 17.90 1202.31 18.18Q1202 18.46 1201.94 18.88L1201.94 18.88L1201.86 19.48L1205.22 19.48Q1206.12 19.48 1206.84 18.94L1206.84 18.94Q1207.58 18.40 1207.72 17.32L1207.72 17.32L1209.76 2.64Q1209.80 2.16 1209.52 1.82Q1209.24 1.48 1208.78 1.48L1208.78 1.48L1199.60 1.48ZM1197.12 16.16L1199.90 5.16L1199.90 5.16L1196.24 5.16L1192.66 19.48L1193 19.48Q1194.38 19.48 1195.55 18.54Q1196.72 17.60 1197.12 16.16L1197.12 16.16ZM1201.98 16.34L1204.80 5.16L1204.80 5.16L1201.12 5.16L1197.52 19.48L1198.06 19.48Q1199.38 19.48 1200.48 18.59Q1201.58 17.70 1201.98 16.34L1201.98 16.34ZM1210.50 19.60L1210.50 19.60L1210.50 19.60L1213.34 19.60Q1213.92 18.94 1214.53 17.92Q1215.14 16.90 1215.62 15.82L1215.62 15.82Q1215.94 15.00 1215.49 14.31Q1215.04 13.62 1214.20 13.62L1214.20 13.62L1214.20 13.62Q1213.16 13.62 1212.70 14.76L1212.70 14.76Q1212.32 16.02 1211.71 17.35Q1211.10 18.68 1210.50 19.60ZM1231.14 7.90L1234.44 7.90L1234.44 7.90L1230.62 11.90L1232 11.90L1231.32 17.06Q1231.20 18.10 1231.76 18.80L1231.76 18.80Q1232.34 19.50 1233.30 19.50L1233.30 19.50L1240.32 19.50Q1241.28 19.50 1242.04 18.80L1242.04 18.80Q1242.78 18.10 1242.90 17.06L1242.90 17.06L1243.92 9.44L1236.76 9.44L1238.10 7.90L1244.46 7.90L1244.70 6.14L1243.46 6.14L1244.34 4.68L1241.34 4.68L1240.30 6.14L1239.88 6.14L1240.28 3.18L1244.32 3.18Q1244.50 3.18 1244.64 3.05Q1244.78 2.92 1244.80 2.74L1244.80 2.74L1244.98 1.42L1240.50 1.42L1240.58 0.78L1237.22 0.80Q1237 0.82 1236.82 0.98L1236.82 0.98Q1236.66 1.14 1236.62 1.38L1236.62 1.38L1236.60 1.42L1233.10 1.42Q1232.82 1.42 1232.60 1.62L1232.60 1.62Q1232.38 1.84 1232.34 2.14L1232.34 2.14L1232.20 3.18L1236.38 3.18L1235.98 6.14L1231.92 6.14Q1231.68 6.14 1231.51 6.29Q1231.34 6.44 1231.32 6.68L1231.32 6.68L1231.14 7.90ZM1238.62 17.70L1238.62 17.70L1238.62 17.70Q1238.40 17.92 1238.12 17.92L1238.12 17.92L1235.70 17.92Q1235.46 17.92 1235.26 17.74L1235.26 17.74Q1235.06 17.52 1235.10 17.20L1235.10 17.20L1235.40 14.94L1239.20 14.94L1238.90 17.20Q1238.86 17.48 1238.62 17.70ZM1239.40 13.36L1235.60 13.36L1235.60 13.36L1235.92 11.02L1239.72 11.02L1239.40 13.36ZM1249.72 3.72L1247.34 19.60L1247.34 19.60L1243.48 19.60L1245.64 5.20Q1245.76 4.54 1246.26 4.14L1246.26 4.14Q1246.76 3.72 1247.44 3.72L1247.44 3.72L1249.72 3.72ZM1246.86 1.12L1246.86 1.12L1246.86 1.12L1255.66 1.12L1255.40 2.96L1253.76 7.84L1254.68 7.84L1253.34 17Q1253.20 18.08 1252.72 18.50L1252.72 18.50Q1252.24 18.94 1251.14 18.94L1251.14 18.94L1248.86 18.94L1250.48 7.84L1249.56 7.84L1251.20 2.94L1250.10 2.94L1249.78 2.94L1245.92 2.94L1246.10 1.74Q1246.14 1.46 1246.36 1.28L1246.36 1.28Q1246.58 1.12 1246.86 1.12ZM1258.30 3.06L1263.54 3.06L1263.54 3.06L1256.52 16.42L1256.62 16.42Q1260.36 16.42 1262.62 12.72L1262.62 12.72L1267.70 3.06L1280.56 3.06Q1280.94 3.06 1281.24 2.78L1281.24 2.78Q1281.54 2.52 1281.60 2.10L1281.60 2.10L1281.78 0.74L1259.48 0.74Q1259.10 0.74 1258.84 0.98L1258.84 0.98Q1258.56 1.24 1258.50 1.64L1258.50 1.64L1258.30 3.06ZM1267.74 5.96L1267.74 5.96L1267.74 5.96L1265.92 19.60L1270.24 19.60L1272.00 4.66L1269.16 4.66Q1268.64 4.66 1268.22 5.02L1268.22 5.02Q1267.82 5.38 1267.74 5.96ZM1277.46 5.60L1273.32 5.60L1273.32 5.60L1275.62 14.58Q1275.84 15.40 1276.52 15.91Q1277.20 16.42 1278.06 16.42L1278.06 16.42L1280.24 16.42L1277.46 5.60ZM1284.84 6.38L1282.88 19.58L1282.88 19.58L1285.42 19.58Q1285.50 19.58 1285.58 19.58L1285.58 19.58Q1286.00 19.60 1286.36 19.52Q1286.72 19.44 1286.94 19.10L1286.94 19.10L1287.00 18.98L1304.26 19.54Q1304.92 19.54 1305.42 19.12Q1305.92 18.70 1306.02 17.60L1306.02 17.60L1306.02 17.60L1288.60 17.02Q1288.40 17.02 1288.18 16.92L1288.18 16.92Q1287.98 16.82 1287.80 16.68L1287.80 16.68Q1287.62 16.52 1287.54 16.32L1287.54 16.32Q1287.44 16.10 1287.46 15.88L1287.46 15.88L1289.06 4.90L1284.42 4.90Q1284.08 4.90 1283.85 5.10Q1283.62 5.30 1283.58 5.60L1283.58 5.60L1283.46 6.38L1284.84 6.38ZM1285.24 0.78L1285.24 0.78L1285.24 0.78Q1284.88 1.72 1285.26 2.58Q1285.64 3.44 1286.58 3.82L1286.58 3.82L1288.26 4.48L1289.12 2.30L1285.24 0.78ZM1292.28 6.12L1299.66 8.98L1299.66 8.98L1299.32 11.36L1294.10 9.36Q1292.06 8.44 1292.28 6.12L1292.28 6.12L1292.28 6.12ZM1306.70 0.74L1306.50 2.18L1306.50 2.18L1307.78 2.18L1307.60 3.60Q1307.56 3.78 1307.41 3.90Q1307.26 4.02 1307.10 4.02L1307.10 4.02L1306.22 4.02L1304.70 14.32Q1304.60 15.24 1303.86 15.92L1303.86 15.92Q1303.12 16.60 1302.20 16.60L1302.20 16.60L1296.04 16.60L1296.10 16.20Q1296.20 15.54 1296.73 15.09Q1297.26 14.64 1297.90 14.64L1297.90 14.64L1299.76 14.64Q1300.10 14.64 1300.36 14.40L1300.36 14.40Q1300.62 14.18 1300.68 13.88L1300.68 13.88L1302.16 4.02L1290.86 4.02L1291.00 3.08Q1291.06 2.70 1291.37 2.44Q1291.68 2.18 1292.06 2.18L1292.06 2.18L1302.42 2.18L1302.52 1.50Q1302.56 1.18 1302.82 0.96Q1303.08 0.74 1303.40 0.74L1303.40 0.74L1306.70 0.74ZM1330.70 8.48L1312.50 8.48L1312.50 8.48Q1311.60 8.48 1311.08 7.88L1311.08 7.88Q1310.56 7.28 1310.66 6.40L1310.66 6.40L1311.40 0.74L1315.38 0.74L1315.18 2.24L1315.12 2.54L1315.08 2.92L1314.96 3.94L1329.40 3.94L1329.62 2.24L1315.96 2.24L1316.16 0.74L1333.78 0.74L1333.04 6.40Q1332.92 7.28 1332.26 7.88L1332.26 7.88Q1331.58 8.48 1330.70 8.48L1330.70 8.48ZM1314.78 5.28L1314.62 6.40L1314.62 6.40Q1314.60 6.66 1314.76 6.82L1314.76 6.82Q1314.92 6.96 1315.18 6.96L1315.18 6.96L1328.42 6.96Q1328.70 6.96 1328.86 6.82L1328.86 6.82Q1329.04 6.66 1329.06 6.40L1329.06 6.40L1329.22 5.28L1314.78 5.28ZM1310.14 9.56L1310.14 9.56L1310.14 9.56Q1310.38 9.32 1310.72 9.32L1310.72 9.32L1333.12 9.32L1333.02 10.06Q1332.98 10.40 1332.74 10.62L1332.74 10.62Q1332.50 10.86 1332.18 10.86L1332.18 10.86L1323.88 10.86L1323.56 13.16L1332.30 13.16Q1332.20 13.84 1331.74 14.26L1331.74 14.26Q1331.28 14.68 1330.66 14.68L1330.66 14.68L1323.36 14.68L1323.06 17L1332.62 17.92L1332.16 18.60Q1331.34 19.54 1330.14 19.46L1330.14 19.46L1312.86 18Q1312.26 19.60 1310.82 19.60L1310.82 19.60L1308.52 19.60L1310.56 11.70L1314.48 11.70L1313.30 16.16L1319.14 16.68L1319.90 10.86L1309.76 10.86L1309.86 10.12Q1309.90 9.78 1310.14 9.56ZM1341.10 17.34L1347.44 8.20L1347.44 8.20L1353.14 17.26Q1354.54 19.60 1356.94 19.60L1356.94 19.60L1359.78 19.60L1351.66 6.50L1348.46 6.50L1352.52 0.74L1348.22 0.74Q1347.64 0.74 1347.26 1.24L1347.26 1.24L1334.52 19.60L1336.72 19.60Q1339.34 19.60 1341.10 17.34L1341.10 17.34ZM1379.22 6.26L1379.86 7.64L1379.86 7.64Q1381.16 10 1383.48 10L1383.48 10L1384.94 10L1383.14 6.26L1385.44 6.26L1385.68 4.52L1384.08 4.52L1385.50 0.96L1383.30 0.96Q1381.74 0.96 1380.92 2.62L1380.92 2.62L1380.16 4.52L1376.08 4.52L1376.60 0.74L1374.06 0.74Q1373.44 0.74 1372.97 1.16Q1372.50 1.58 1372.40 2.24L1372.40 2.24L1372.10 4.52L1368.00 4.52L1367.82 3.18Q1367.68 2.20 1367.00 1.58Q1366.32 0.96 1365.40 0.96L1365.40 0.96L1363.64 0.96L1364.10 4.52L1362.50 4.52L1362.26 6.26L1364.54 6.26L1361.76 10L1363.16 10Q1365.54 10 1367.22 7.92L1367.22 7.92L1368.46 6.26L1371.86 6.26L1371.36 10L1375.34 10L1375.84 6.26L1379.22 6.26ZM1373.46 13.44L1377.02 17.48L1377.02 17.48Q1379.00 19.60 1381.64 19.60L1381.64 19.60L1383.64 19.60L1378.10 13.44L1383.60 13.44Q1383.98 13.44 1384.26 13.19Q1384.54 12.94 1384.60 12.56L1384.60 12.56L1384.68 11.86L1373.96 11.86L1375.30 10.54L1371.04 10.54Q1370.56 10.54 1370.18 10.90L1370.18 10.90L1369.20 11.86L1362.14 11.86Q1361.86 11.86 1361.66 12.04Q1361.46 12.22 1361.42 12.52L1361.42 12.52L1361.30 13.44L1367.80 13.44L1360.46 19.60L1362.86 19.60Q1365.16 19.60 1367.06 18.06L1367.06 18.06L1372.56 13.44L1373.46 13.44ZM1400.56 1.44L1400.50 1.86L1400.50 1.86L1411.78 1.86L1409.62 17.32Q1409.48 18.26 1408.74 18.92L1408.74 18.92Q1408.00 19.58 1407.08 19.58L1407.08 19.58L1388.42 19.58Q1387.50 19.58 1386.96 18.92L1386.96 18.92Q1386.44 18.26 1386.56 17.32L1386.56 17.32L1388.70 1.86L1392.82 1.86L1392.18 6.40L1407.02 6.40L1407.38 3.82L1393.44 3.82L1393.72 1.86L1396.58 1.86L1396.72 0.76L1400.00 0.76Q1400.28 0.76 1400.44 0.96Q1400.60 1.16 1400.56 1.44L1400.56 1.44ZM1405.62 16.60L1405.62 16.60L1405.62 16.60L1405.96 14.16L1391.10 14.16L1390.78 16.60Q1390.70 17.02 1390.94 17.30L1390.94 17.30Q1391.16 17.60 1391.56 17.60L1391.56 17.60L1404.48 17.60Q1404.90 17.60 1405.22 17.30L1405.22 17.30Q1405.54 17.02 1405.62 16.60ZM1391.44 11.80L1406.28 11.80L1406.28 11.80L1406.70 8.72L1391.86 8.72L1391.44 11.80ZM1433.46 17.34L1418.32 17.34L1418.32 17.34Q1417.92 17.34 1417.68 17.04L1417.68 17.04Q1417.44 16.76 1417.50 16.34L1417.50 16.34L1418.62 8.18L1413.94 8.18L1412.70 17.34Q1412.58 18.30 1413.12 18.96L1413.12 18.96Q1413.66 19.60 1414.54 19.60L1414.54 19.60L1435.88 19.60L1435.80 19Q1435.04 17.34 1433.46 17.34L1433.46 17.34ZM1418.88 10.74L1434.14 10.74L1434.14 10.74Q1435.02 10.74 1435.74 10.08L1435.74 10.08Q1436.46 9.44 1436.58 8.48L1436.58 8.48L1437.62 0.74L1414.72 0.74L1414.58 1.84Q1414.52 2.42 1414.89 2.83Q1415.26 3.24 1415.82 3.24L1415.82 3.24L1433.22 3.24L1432.70 7.18Q1432.64 7.60 1432.32 7.88L1432.32 7.88Q1432.02 8.18 1431.60 8.18L1431.60 8.18L1419.26 8.18L1418.88 10.74ZM1443.60 1.38L1443.60 1.38L1443.60 1.38L1443.54 1.66L1440.56 1.66L1438.56 17.14Q1438.48 17.64 1438.60 18.08L1438.60 18.08Q1438.70 18.54 1438.98 18.88L1438.98 18.88Q1439.22 19.20 1439.60 19.40L1439.60 19.40Q1439.98 19.60 1440.42 19.60L1440.42 19.60L1447.20 19.60Q1447.64 19.60 1448.08 19.40L1448.08 19.40Q1448.50 19.20 1448.86 18.88L1448.86 18.88Q1449.22 18.54 1449.44 18.08L1449.44 18.08Q1449.68 17.62 1449.74 17.14L1449.74 17.14L1451.74 1.66L1448.30 1.66L1448.44 0.74L1444.26 0.74Q1444.02 0.74 1443.82 0.92L1443.82 0.92Q1443.64 1.10 1443.60 1.38ZM1446.90 10.74L1446.02 17.56L1446.02 17.56Q1445.98 17.74 1445.82 17.90L1445.82 17.90Q1445.68 18.04 1445.48 18.04L1445.48 18.04L1442.32 18.04Q1442.14 18.04 1442.04 17.90L1442.04 17.90Q1441.90 17.74 1441.92 17.56L1441.92 17.56L1442.82 10.74L1446.90 10.74ZM1447.90 3.14L1447.10 9.16L1447.10 9.16L1443.02 9.16L1443.84 3.14L1447.90 3.14ZM1463.22 1.58L1463.22 1.58L1463.22 1.58L1456.66 1.58L1456.98 0.74L1453.88 0.74Q1453.36 0.74 1453.06 1.34L1453.06 1.34L1451.70 5.08L1453.52 5.08Q1455.16 5.08 1456.06 3.34L1456.06 3.34L1459.60 3.34L1457.78 17.30Q1457.74 17.58 1457.50 17.80L1457.50 17.80Q1457.28 18.02 1457.00 18.02L1457.00 18.02L1454.78 18.02Q1454.38 18.02 1454.06 18.30L1454.06 18.30Q1453.76 18.60 1453.70 19.04L1453.70 19.04L1453.62 19.60L1459.38 19.60Q1460.26 19.60 1460.96 19.06L1460.96 19.06Q1461.68 18.52 1461.82 17.44L1461.82 17.44L1463.78 2.26Q1463.80 1.98 1463.64 1.78L1463.64 1.78Q1463.50 1.58 1463.22 1.58ZM1453.56 11.14L1457.00 12.98L1457.00 12.98L1457.78 10.54L1453.26 7.98L1452.82 8.76Q1452.50 9.44 1452.71 10.11Q1452.92 10.78 1453.56 11.14L1453.56 11.14ZM1469.98 7.62L1469.94 7.94L1469.94 7.94L1469.98 7.62L1469.98 7.62ZM1470.78 3.08L1470.78 3.08L1470.78 3.08L1469.74 5.34L1465.62 5.34L1467.04 2.22Q1467.30 1.66 1467.78 1.32L1467.78 1.32Q1468.28 0.96 1468.86 0.96L1468.86 0.96L1476.72 0.96Q1477.30 0.96 1477.68 1.32L1477.68 1.32Q1478.06 1.66 1478.18 2.22L1478.18 2.22L1478.72 5.34L1474.60 5.34L1474.20 3.08Q1474.10 2.54 1473.58 2.54L1473.58 2.54L1471.54 2.54Q1471.02 2.54 1470.78 3.08ZM1469.98 7.62L1469.98 7.62L1469.98 7.62L1469.94 7.94L1469.94 7.94L1468.66 17Q1468.60 17.42 1468.84 17.70L1468.84 17.70Q1469.08 17.98 1469.48 17.98L1469.48 17.98L1476.76 17.98L1476.72 18.28Q1476.62 18.84 1476.21 19.20Q1475.80 19.56 1475.26 19.56L1475.26 19.56L1466.38 19.56Q1465.46 19.56 1464.92 18.92L1464.92 18.92Q1464.38 18.28 1464.50 17.36L1464.50 17.36L1466.10 6.02L1470.22 6.02L1469.98 7.62ZM1473.96 7.62L1470.60 7.62L1470.60 7.62L1470.84 6.02L1478.28 6.02L1477.18 13.88Q1477.06 14.80 1476.34 15.44L1476.34 15.44Q1475.62 16.08 1474.70 16.08L1474.70 16.08L1470.12 16.08L1470.34 14.48L1472.04 14.48Q1472.44 14.48 1472.76 14.20L1472.76 14.20Q1473.08 13.92 1473.14 13.54L1473.14 13.54L1473.96 7.62ZM1484.12 1.16L1482.14 15.22L1482.14 15.22Q1482.02 15.94 1481.50 16.40Q1480.98 16.86 1480.28 16.86L1480.28 16.86L1478.34 16.86L1480.32 2.80Q1480.42 2.08 1480.96 1.62Q1481.50 1.16 1482.22 1.16L1482.22 1.16L1484.12 1.16ZM1487.14 0.78L1487.14 0.78L1487.14 0.78L1489.84 0.78L1487.52 17.36Q1487.38 18.26 1486.66 18.92L1486.66 18.92Q1485.94 19.56 1485.04 19.56L1485.04 19.56L1479.36 19.56L1479.44 19.04Q1479.50 18.58 1479.85 18.28Q1480.20 17.98 1480.66 17.98L1480.66 17.98L1482.60 17.98Q1482.92 17.98 1483.14 17.76L1483.14 17.76Q1483.38 17.54 1483.42 17.24L1483.42 17.24L1485.54 2.18Q1485.64 1.56 1486.09 1.17Q1486.54 0.78 1487.14 0.78ZM1495.76 17.38L1495.76 17.38L1495.76 17.38Q1495.54 17.30 1495.36 17.14L1495.36 17.14Q1495.20 16.98 1495.12 16.78L1495.12 16.78Q1495.02 16.56 1495.04 16.32L1495.04 16.32L1496.62 4.84L1492.06 4.84Q1491.72 4.84 1491.50 5.04L1491.50 5.04Q1491.28 5.28 1491.22 5.60L1491.22 5.60L1491.12 6.40L1492.48 6.40L1490.54 19.60L1493.04 19.60Q1493.06 19.60 1493.10 19.60L1493.10 19.60Q1493.14 19.60 1493.20 19.60L1493.20 19.60Q1493.60 19.62 1493.96 19.54L1493.96 19.54Q1494.30 19.48 1494.54 19.12L1494.54 19.12L1494.62 19L1512.10 19.58Q1512.76 19.58 1513.26 19.14L1513.26 19.14Q1513.74 18.72 1513.84 18.06L1513.84 18.06L1496.16 17.48Q1495.98 17.48 1495.76 17.38ZM1494.16 3.78L1494.16 3.78L1494.16 3.78L1495.82 4.44L1496.66 2.26L1492.86 0.74Q1492.50 1.68 1492.88 2.54L1492.88 2.54Q1493.26 3.38 1494.16 3.78ZM1502.38 9.04L1502.18 10.60L1502.18 10.60L1510.24 10.60L1509.74 14.30Q1509.70 14.52 1509.60 14.72L1509.60 14.72Q1509.50 14.86 1509.36 15.00L1509.36 15.00Q1509.04 15.28 1508.64 15.28L1508.64 15.28L1501.66 15.28Q1501.24 15.28 1501.00 15.00L1501.00 15.00Q1500.82 14.78 1500.82 14.50L1500.82 14.50Q1500.80 14.40 1500.82 14.30L1500.82 14.30L1501.54 9.04L1497.38 9.04L1496.60 14.68Q1496.46 15.58 1497.00 16.22L1497.00 16.22Q1497.56 16.84 1498.48 16.84L1498.48 16.84L1511.34 16.84Q1512.28 16.84 1513.00 16.20L1513.00 16.20Q1513.72 15.56 1513.86 14.68L1513.86 14.68L1514.64 9.04L1502.38 9.04ZM1509.58 3.26L1515.00 3.26L1515.00 3.26Q1515.24 3.26 1515.42 3.11Q1515.60 2.96 1515.64 2.72L1515.64 2.72L1515.80 1.70L1509.80 1.70L1509.92 0.86L1506.16 0.86Q1505.98 0.86 1505.85 0.98Q1505.72 1.10 1505.68 1.28L1505.68 1.28L1505.62 1.70L1503.00 1.70L1503.30 0.98L1499.20 0.98L1497.52 5.06L1500.76 5.06Q1501.54 5.06 1501.94 4.28L1501.94 4.28L1502.32 3.26L1505.40 3.26L1504.94 6.64L1497.92 6.64Q1497.66 6.64 1497.47 6.80Q1497.28 6.96 1497.24 7.22L1497.24 7.22L1497.08 8.32L1514.46 8.32Q1514.72 8.32 1514.91 8.15Q1515.10 7.98 1515.14 7.74L1515.14 7.74L1515.28 6.64L1509.12 6.64L1509.58 3.26ZM1501.00 15.00L1501.00 15.00L1501.00 15.00Q1500.82 14.78 1500.82 14.50L1500.82 14.50Q1500.82 14.78 1501.00 15.00ZM1509.36 15.00L1509.36 15.00L1509.36 15.00Q1509.04 15.28 1508.64 15.28L1508.64 15.28Q1509.04 15.28 1509.36 15.00L1509.36 15.00Q1509.50 14.86 1509.60 14.72L1509.60 14.72Q1509.50 14.86 1509.36 15.00ZM1509.60 14.72L1509.60 14.72L1509.60 14.72Q1509.70 14.52 1509.74 14.30L1509.74 14.30L1510.24 10.60L1509.74 14.30Q1509.70 14.52 1509.60 14.72ZM1516.54 19.60L1516.54 19.60L1516.54 19.60L1519.38 19.60Q1519.96 18.94 1520.57 17.92Q1521.18 16.90 1521.66 15.82L1521.66 15.82Q1521.98 15.00 1521.53 14.31Q1521.08 13.62 1520.24 13.62L1520.24 13.62L1520.24 13.62Q1519.20 13.62 1518.74 14.76L1518.74 14.76Q1518.36 16.02 1517.75 17.35Q1517.14 18.68 1516.54 19.60ZM1557.36 2.60L1555.64 2.60L1555.64 2.60L1555.86 0.74L1561.54 0.74L1559.36 17.38Q1559.22 18.32 1558.54 18.94L1558.54 18.94Q1557.84 19.60 1556.98 19.60L1556.98 19.60L1550.52 19.60Q1549.66 19.60 1549.14 18.96L1549.14 18.96Q1548.60 18.32 1548.70 17.40L1548.70 17.40L1550.92 0.74L1554.90 0.74L1552.72 17.26Q1552.66 17.56 1552.84 17.74L1552.84 17.74Q1553.04 17.92 1553.32 17.92L1553.32 17.92L1554.60 17.92Q1554.88 17.92 1555.12 17.74L1555.12 17.74Q1555.24 17.62 1555.32 17.46L1555.32 17.46Q1555.36 17.34 1555.40 17.20L1555.40 17.20L1557.36 2.60ZM1543.10 19.56L1540.02 19.56L1540.02 19.56L1542.06 6.00L1538.62 6.00L1538.70 5.44Q1538.78 4.98 1539.14 4.69Q1539.50 4.40 1539.98 4.40L1539.98 4.40L1542.30 4.40L1542.60 2.36L1539.32 2.36L1539.40 1.82Q1539.48 1.34 1539.85 1.04Q1540.22 0.74 1540.72 0.74L1540.72 0.74L1549.82 0.74L1549.74 1.24Q1549.66 1.72 1549.28 2.04Q1548.90 2.36 1548.38 2.36L1548.38 2.36L1546.32 2.36L1546.02 4.40L1549.44 4.40L1549.36 4.94Q1549.28 5.40 1548.92 5.70Q1548.56 6.00 1548.08 6.00L1548.08 6.00L1545.78 6.00L1543.84 18.94Q1543.80 19.22 1543.59 19.39Q1543.38 19.56 1543.10 19.56L1543.10 19.56ZM1546.22 6.96L1548.04 6.96L1548.04 6.96Q1548.28 6.96 1548.45 7.13Q1548.62 7.30 1548.60 7.54L1548.60 7.54L1547.06 19.56L1547.06 19.56Q1546.08 19.56 1545.45 18.88Q1544.82 18.20 1544.90 17.26L1544.90 17.26L1546.22 6.96ZM1539.56 6.96L1541.32 6.96L1541.32 6.96L1539.52 17.30Q1539.34 18.30 1538.55 18.93Q1537.76 19.56 1536.72 19.56L1536.72 19.56L1536.72 19.56L1538.80 7.56Q1538.84 7.30 1539.05 7.13Q1539.26 6.96 1539.56 6.96L1539.56 6.96ZM1565.64 13.06L1563.80 13.06L1563.80 13.06Q1563.54 13.06 1563.34 13.24Q1563.14 13.42 1563.10 13.68L1563.10 13.68L1562.92 14.96L1585.72 14.96Q1585.96 14.96 1586.16 14.78Q1586.36 14.60 1586.40 14.32L1586.40 14.32L1586.58 13.06L1584.12 13.06L1585.44 3.36L1587.02 3.36Q1587.22 3.36 1587.39 3.21Q1587.56 3.06 1587.58 2.82L1587.58 2.82L1587.76 1.60L1585.68 1.60L1585.80 0.74L1582.26 0.74Q1582.06 0.74 1581.91 0.88Q1581.76 1.02 1581.72 1.24L1581.72 1.24L1581.66 1.60L1571.20 1.60L1571.32 0.74L1567.80 0.74Q1567.60 0.74 1567.44 0.89Q1567.28 1.04 1567.24 1.26L1567.24 1.26L1567.18 1.60L1565.76 1.60Q1565.48 1.60 1565.28 1.79Q1565.08 1.98 1565.02 2.26L1565.02 2.26L1564.88 3.36L1566.96 3.36L1565.64 13.06ZM1564.98 16.14L1562.64 19.58L1562.64 19.58L1565.06 19.58Q1566.60 19.58 1567.72 18.08L1567.72 18.08L1569.34 15.72L1565.72 15.72Q1565.28 15.72 1564.98 16.14L1564.98 16.14ZM1581.18 5.26L1570.70 5.26L1570.70 5.26L1570.96 3.36L1581.44 3.36L1581.18 5.26ZM1580.64 9.16L1570.18 9.16L1570.18 9.16L1570.48 6.86L1580.96 6.86L1580.64 9.16ZM1580.12 13.06L1569.64 13.06L1569.64 13.06L1569.94 10.90L1580.40 10.90L1580.12 13.06ZM1579.76 15.72L1581.06 19L1581.06 19Q1581.34 19.58 1581.94 19.58L1581.94 19.58L1585.36 19.58L1584.36 17.06Q1583.72 15.72 1582.36 15.72L1582.36 15.72L1579.76 15.72ZM1597.30 1.98L1597.10 3.62L1597.10 3.62L1596.48 3.68Q1596.24 3.70 1596.04 3.90L1596.04 3.90Q1595.86 4.10 1595.80 4.40L1595.80 4.40L1595.62 5.80L1596.82 5.70L1595.30 17.80Q1595.20 18.52 1595.60 19.02L1595.60 19.02Q1596.00 19.54 1596.66 19.54L1596.66 19.54L1612.80 19.54L1612.86 19.10Q1612.94 18.36 1612.52 17.84L1612.52 17.84Q1612.12 17.32 1611.50 17.32L1611.50 17.32L1599.84 17.32Q1599.56 17.32 1599.40 17.10L1599.40 17.10Q1599.24 16.88 1599.28 16.58L1599.28 16.58L1600.66 5.40L1603.26 5.08L1601.86 16.18L1603.16 16.18Q1604.10 16.18 1604.80 15.50L1604.80 15.50Q1605.50 14.86 1605.66 13.70L1605.66 13.70L1606.78 4.68L1609.80 4.24Q1609.94 4.22 1610.04 4.26L1610.04 4.26Q1610.12 4.30 1610.10 4.44L1610.10 4.44L1608.96 13.70Q1608.92 14.00 1608.74 14.20L1608.74 14.20Q1608.50 14.44 1608.20 14.44L1608.20 14.44L1606.76 14.44Q1606.38 14.44 1606.10 14.72L1606.10 14.72Q1605.80 15.00 1605.74 15.44L1605.74 15.44L1605.66 16.06L1610.44 16.06Q1611.10 16.06 1611.62 15.54L1611.62 15.54Q1612.14 15.04 1612.24 14.32L1612.24 14.32L1613.62 3.06Q1613.72 2.34 1613.30 1.94L1613.30 1.94Q1612.88 1.56 1612.24 1.62L1612.24 1.62L1607.08 2.50L1607.30 0.74L1604.80 0.74Q1604.36 0.74 1604.04 1.04L1604.04 1.04Q1603.72 1.36 1603.68 1.82L1603.68 1.82L1603.54 2.96L1600.94 3.30L1601.20 1.24L1598.06 1.24Q1597.76 1.24 1597.56 1.44L1597.56 1.44Q1597.36 1.66 1597.30 1.98L1597.30 1.98ZM1592.50 1L1592.50 1L1592.50 1L1596.06 1L1593.60 6.28L1594.70 6.28L1592.80 18.86Q1592.76 19.18 1592.53 19.39Q1592.30 19.60 1592.00 19.60L1592.00 19.60L1588.80 19.60L1590.56 7.90L1588.72 7.90L1591.78 1.48Q1592.04 1 1592.50 1ZM1616.64 8.54L1615.08 19.60L1615.08 19.60L1619.26 19.60L1621.02 7.02L1619.84 7.02L1622.50 0.74L1618.68 0.74Q1618.22 0.74 1617.98 1.20L1617.98 1.20L1614.68 8.54L1616.64 8.54ZM1627.48 17.20L1622.72 17.20L1622.72 17.20Q1622.32 17.20 1622.01 17.48Q1621.70 17.76 1621.64 18.16L1621.64 18.16L1621.48 19.28L1636.38 19.28Q1636.60 19.28 1636.79 19.11Q1636.98 18.94 1637.02 18.70L1637.02 18.70L1637.24 17.20L1631.64 17.20L1632.66 9.96L1637.62 9.96Q1638.12 9.96 1638.51 9.62Q1638.90 9.28 1638.98 8.78L1638.98 8.78L1639.10 7.90L1632.96 7.90L1633.64 3.02L1637.22 2.96Q1638.10 2.92 1638.77 2.33Q1639.44 1.74 1639.58 0.86L1639.58 0.86L1639.58 0.86L1624.96 1.12Q1624.56 1.14 1624.25 1.41Q1623.94 1.68 1623.86 2.10L1623.86 2.10L1623.72 3.20L1629.46 3.10L1628.78 7.90L1623.20 7.90Q1622.92 7.90 1622.71 8.09Q1622.50 8.28 1622.44 8.56L1622.44 8.56L1622.24 9.96L1628.50 9.96L1627.48 17.20ZM1640.72 6.52L1643.58 1.38L1643.58 1.38Q1643.98 0.74 1644.66 0.74L1644.66 0.74L1648.24 0.74L1645.88 4.98L1647.06 4.98L1645.14 18.68Q1645.08 19.08 1644.78 19.34Q1644.48 19.60 1644.08 19.60L1644.08 19.60L1640.84 19.60L1642.68 6.52L1640.72 6.52ZM1648.88 2.76L1648.96 2.08L1648.96 2.08Q1649.04 1.68 1649.33 1.42Q1649.62 1.16 1650.02 1.16L1650.02 1.16L1665.80 1.16L1665.70 1.84Q1665.64 2.24 1665.34 2.50Q1665.04 2.76 1664.64 2.76L1664.64 2.76L1664.48 2.76L1662.42 17.40Q1662.28 18.30 1661.54 18.96L1661.54 18.96Q1660.80 19.60 1659.90 19.60L1659.90 19.60L1653.52 19.60L1653.52 19.60Q1653.64 18.90 1654.15 18.46Q1654.66 18.02 1655.36 18.02L1655.36 18.02L1657.32 18.02Q1657.74 18.02 1657.98 17.72L1657.98 17.72Q1658.24 17.44 1658.30 17.04L1658.30 17.04L1660.30 2.76L1648.88 2.76ZM1655.58 16.62L1655.58 16.62L1655.58 16.62Q1655.14 16.82 1654.68 16.82L1654.68 16.82L1649.54 16.82Q1649.08 16.82 1648.70 16.62L1648.70 16.62Q1648.30 16.44 1648.04 16.12L1648.04 16.12Q1647.78 15.78 1647.66 15.34L1647.66 15.34Q1647.54 14.90 1647.60 14.38L1647.60 14.38L1649.04 4.20L1652.62 4.20L1652.40 5.70L1652.32 6.34L1651.14 14.70Q1651.10 14.94 1651.26 15.14L1651.26 15.14Q1651.40 15.32 1651.64 15.32L1651.64 15.32L1653.00 15.32Q1653.24 15.32 1653.44 15.14L1653.44 15.14Q1653.64 14.98 1653.66 14.70L1653.66 14.70L1654.94 5.70L1652.92 5.70L1653.12 4.20L1658.72 4.20L1657.30 14.38Q1657.22 14.88 1656.98 15.32L1656.98 15.32Q1656.74 15.76 1656.38 16.08L1656.38 16.08Q1656.02 16.42 1655.58 16.62ZM1673.12 17.34L1679.46 8.20L1679.46 8.20L1685.16 17.26Q1686.56 19.60 1688.96 19.60L1688.96 19.60L1691.80 19.60L1683.68 6.50L1680.48 6.50L1684.54 0.74L1680.24 0.74Q1679.66 0.74 1679.28 1.24L1679.28 1.24L1666.54 19.60L1668.74 19.60Q1671.36 19.60 1673.12 17.34L1673.12 17.34ZM1693.18 7.90L1696.48 7.90L1696.48 7.90L1692.66 11.90L1694.04 11.90L1693.36 17.06Q1693.24 18.10 1693.80 18.80L1693.80 18.80Q1694.38 19.50 1695.34 19.50L1695.34 19.50L1702.36 19.50Q1703.32 19.50 1704.08 18.80L1704.08 18.80Q1704.82 18.10 1704.94 17.06L1704.94 17.06L1705.96 9.44L1698.80 9.44L1700.14 7.90L1706.50 7.90L1706.74 6.14L1705.50 6.14L1706.38 4.68L1703.38 4.68L1702.34 6.14L1701.92 6.14L1702.32 3.18L1706.36 3.18Q1706.54 3.18 1706.68 3.05Q1706.82 2.92 1706.84 2.74L1706.84 2.74L1707.02 1.42L1702.54 1.42L1702.62 0.78L1699.26 0.80Q1699.04 0.82 1698.86 0.98L1698.86 0.98Q1698.70 1.14 1698.66 1.38L1698.66 1.38L1698.64 1.42L1695.14 1.42Q1694.86 1.42 1694.64 1.62L1694.64 1.62Q1694.42 1.84 1694.38 2.14L1694.38 2.14L1694.24 3.18L1698.42 3.18L1698.02 6.14L1693.96 6.14Q1693.72 6.14 1693.55 6.29Q1693.38 6.44 1693.36 6.68L1693.36 6.68L1693.18 7.90ZM1700.66 17.70L1700.66 17.70L1700.66 17.70Q1700.44 17.92 1700.16 17.92L1700.16 17.92L1697.74 17.92Q1697.50 17.92 1697.30 17.74L1697.30 17.74Q1697.10 17.52 1697.14 17.20L1697.14 17.20L1697.44 14.94L1701.24 14.94L1700.94 17.20Q1700.90 17.48 1700.66 17.70ZM1701.44 13.36L1697.64 13.36L1697.64 13.36L1697.96 11.02L1701.76 11.02L1701.44 13.36ZM1711.76 3.72L1709.38 19.60L1709.38 19.60L1705.52 19.60L1707.68 5.20Q1707.80 4.54 1708.30 4.14L1708.30 4.14Q1708.80 3.72 1709.48 3.72L1709.48 3.72L1711.76 3.72ZM1708.90 1.12L1708.90 1.12L1708.90 1.12L1717.70 1.12L1717.44 2.96L1715.80 7.84L1716.72 7.84L1715.38 17Q1715.24 18.08 1714.76 18.50L1714.76 18.50Q1714.28 18.94 1713.18 18.94L1713.18 18.94L1710.90 18.94L1712.52 7.84L1711.60 7.84L1713.24 2.94L1712.14 2.94L1711.82 2.94L1707.96 2.94L1708.14 1.74Q1708.18 1.46 1708.40 1.28L1708.40 1.28Q1708.62 1.12 1708.90 1.12ZM1721.34 1.48L1721.34 1.48L1721.34 1.48L1721.44 0.78L1726.42 1.68L1726.16 3.56L1722.30 2.86Q1721.80 2.76 1721.54 2.38Q1721.28 2.00 1721.34 1.48ZM1720.88 4.84L1720.88 4.84L1720.88 4.84L1720.98 4.14L1725.96 5.04L1725.70 6.92L1721.84 6.22Q1721.34 6.14 1721.08 5.76Q1720.82 5.38 1720.88 4.84ZM1721.10 19.54L1718.82 19.54L1718.82 19.54L1721.34 7.86L1725.56 7.86L1723.36 17.68Q1723.16 18.48 1722.52 19.01Q1721.88 19.54 1721.10 19.54L1721.10 19.54ZM1743.00 6.04L1743.00 6.04L1743.00 6.04L1743.46 6.04Q1743.52 6.04 1743.56 6.09Q1743.60 6.14 1743.60 6.20L1743.60 6.20L1743.36 7.76L1740.34 7.76Q1739.44 7.76 1738.86 7.14L1738.86 7.14Q1738.58 6.82 1738.48 6.34Q1738.38 5.86 1738.44 5.40L1738.44 5.40L1738.76 2.84L1732.96 2.84L1733.22 0.92L1743.18 0.92L1742.58 5.52Q1742.56 5.72 1742.68 5.88L1742.68 5.88Q1742.80 6.04 1743.00 6.04ZM1743.16 8.08L1742.86 10.24L1742.86 10.24L1736.72 15.00L1742.74 19.54L1737.62 19.54Q1737.36 19.54 1737.16 19.36L1737.16 19.36L1733.92 16.96L1731.18 18.96Q1730.46 19.54 1729.66 19.54L1729.66 19.54L1724.82 19.54L1731.30 14.74L1726.62 10.62L1731.76 10.62Q1731.92 10.62 1732.06 10.74L1732.06 10.74L1734.12 12.44L1737.78 9.98L1726.56 9.98L1726.76 8.68Q1726.80 8.42 1727.00 8.25Q1727.20 8.08 1727.46 8.08L1727.46 8.08L1743.16 8.08ZM1727.90 5.52L1728.52 0.92L1728.52 0.92L1732.76 0.92L1732.54 2.48L1732.14 5.40Q1732.08 5.86 1731.84 6.34Q1731.60 6.82 1731.22 7.14L1731.22 7.14Q1730.52 7.76 1729.62 7.76L1729.62 7.76L1726.70 7.76L1726.88 6.44Q1726.90 6.28 1727.03 6.16Q1727.16 6.04 1727.32 6.04L1727.32 6.04L1727.42 6.04Q1727.52 6.04 1727.60 6.00Q1727.68 5.96 1727.76 5.88L1727.76 5.88Q1727.82 5.80 1727.85 5.71Q1727.88 5.62 1727.90 5.54L1727.90 5.54Q1727.90 5.52 1727.90 5.52L1727.90 5.52ZM1769.52 3.12L1769.84 1.40L1769.84 1.40L1752.96 1.40L1753.48 0.74L1749.16 0.74L1748.68 1.40L1746.20 1.40Q1745.96 1.40 1745.76 1.64L1745.76 1.64Q1745.58 1.90 1745.54 2.16L1745.54 2.16L1745.24 3.60L1747.34 3.60L1744.58 7.90L1747.00 7.90L1745.30 19.60L1748.04 19.60Q1748.60 19.60 1749.02 19.23Q1749.44 18.86 1749.54 18.30L1749.54 18.30L1749.96 15.16L1762.64 15.16L1762.38 17.16Q1762.36 17.28 1762.30 17.36L1762.30 17.36Q1762.24 17.42 1762.14 17.50L1762.14 17.50Q1762.12 17.52 1762.06 17.54L1762.06 17.54Q1761.96 17.64 1761.86 17.66L1761.86 17.66Q1761.74 17.66 1761.62 17.66L1761.62 17.66Q1761.58 17.66 1761.52 17.66L1761.52 17.66L1759.38 17.66Q1758.96 17.66 1758.66 18.02L1758.66 18.02Q1758.34 18.36 1758.28 18.80L1758.28 18.80L1758.18 19.60L1763.70 19.60Q1764.64 19.60 1765.42 19.06L1765.42 19.06Q1766.18 18.50 1766.32 17.42L1766.32 17.42L1768.04 5.28L1752.26 5.28L1752.00 6.84L1763.82 6.84L1763.54 8.96L1750.86 8.96L1751.40 5.28L1750.58 5.28L1751.60 3.60L1768.96 3.60Q1769.18 3.60 1769.34 3.46L1769.34 3.46Q1769.48 3.32 1769.52 3.12L1769.52 3.12ZM1750.28 13.10L1750.60 11.14L1750.60 11.14L1763.28 11.14L1762.96 13.10L1750.28 13.10ZM1779.62 2.80L1779.48 1.72L1779.48 1.72Q1779.26 0.78 1778.42 0.78L1778.42 0.78L1775.38 0.78L1775.62 2.80L1774.06 2.80Q1773.72 2.80 1773.46 3.03Q1773.20 3.26 1773.14 3.62L1773.14 3.62L1773.00 4.70L1781.84 4.70L1778.26 9.48L1773.00 9.48Q1772.60 9.48 1772.27 9.78Q1771.94 10.08 1771.86 10.50L1771.86 10.50L1771.72 11.54L1777.08 11.54L1770.54 19.60L1772.56 19.60Q1775.72 19.60 1778.20 16.74L1778.20 16.74L1782.38 11.54L1793.78 11.54Q1794.28 11.54 1794.67 11.19Q1795.06 10.84 1795.14 10.32L1795.14 10.32L1795.26 9.48L1783.42 9.48L1787.14 4.70L1794.76 4.70Q1795.10 4.70 1795.37 4.46Q1795.64 4.22 1795.70 3.88L1795.70 3.88L1795.84 2.80L1793.74 2.80L1794.58 0.78L1791.54 0.78Q1790.70 0.78 1790.20 1.70L1790.20 1.70L1789.74 2.80L1779.62 2.80ZM1794.00 19.60L1790.02 12.64L1790.02 12.64Q1789.84 12.36 1789.54 12.36L1789.54 12.36L1785.36 12.36L1787.82 16.60Q1789.68 19.60 1793.04 19.60L1793.04 19.60L1794.00 19.60ZM1816.58 10.66L1816.62 11.02L1816.62 11.02Q1816.66 11.34 1816.87 11.54Q1817.08 11.74 1817.38 11.74L1817.38 11.74L1820.32 11.74L1819.90 8.50Q1819.78 7.64 1819.20 7.08Q1818.62 6.52 1817.84 6.52L1817.84 6.52L1816.08 6.52L1816.36 9.06L1809.88 9.38L1815.52 3.00L1812.48 3.00Q1812.02 3.00 1811.62 3.34L1811.62 3.34L1809.36 5.48L1804.32 5.80Q1804.14 5.86 1804.10 5.68L1804.10 5.68Q1804.04 5.56 1804.16 5.40L1804.16 5.40L1806.54 2.40L1820.32 2.40Q1820.82 2.40 1821.21 2.03Q1821.60 1.66 1821.68 1.10L1821.68 1.10L1821.72 0.76L1800.36 0.76Q1799.84 0.76 1799.46 1.13Q1799.08 1.50 1798.98 2.08L1798.98 2.08L1798.94 2.40L1802.36 2.40L1799.42 5.88Q1799.20 6.08 1799.12 6.42L1799.12 6.42Q1799.06 6.76 1799.12 7.06L1799.12 7.06Q1799.20 7.36 1799.42 7.56L1799.42 7.56Q1799.62 7.78 1800.00 7.76L1800.00 7.76L1807.62 7.20L1805.24 9.62L1798.96 9.92Q1798.52 9.94 1798.22 10.25Q1797.92 10.56 1797.84 11.04L1797.84 11.04L1797.78 11.58L1807.16 11.14L1806.38 17.22Q1806.34 17.52 1806.12 17.76L1806.12 17.76Q1805.90 17.98 1805.60 17.98L1805.60 17.98L1804.78 17.98Q1804.22 17.98 1803.81 18.37Q1803.40 18.76 1803.30 19.38L1803.30 19.38L1803.28 19.60L1807.92 19.60Q1808.76 19.60 1809.44 18.96L1809.44 18.96Q1810.14 18.30 1810.26 17.38L1810.26 17.38L1811.08 10.94L1816.58 10.66ZM1799.10 13.26L1796.74 19.60L1796.74 19.60L1798.04 19.60Q1800.14 19.60 1801.20 17.24L1801.20 17.24L1803.02 12.22L1800.52 12.22Q1799.58 12.22 1799.10 13.26L1799.10 13.26ZM1814.94 12.22L1815.36 16.30L1815.36 16.30Q1815.54 17.74 1816.49 18.67Q1817.44 19.60 1818.74 19.60L1818.74 19.60L1819.30 19.60L1818.62 13.68Q1818.54 13.04 1818.11 12.63Q1817.68 12.22 1817.12 12.22L1817.12 12.22L1814.94 12.22ZM1828.10 15.98L1828.10 15.98L1828.10 15.98Q1828.24 16.46 1828.16 17L1828.16 17Q1828.10 17.54 1827.82 18.02L1827.82 18.02Q1827.56 18.48 1827.14 18.84L1827.14 18.84Q1826.74 19.20 1826.24 19.40L1826.24 19.40Q1825.74 19.60 1825.20 19.60L1825.20 19.60Q1824.66 19.60 1824.20 19.40L1824.20 19.40Q1823.76 19.20 1823.46 18.84L1823.46 18.84Q1823.16 18.48 1823.02 18.02L1823.02 18.02Q1822.88 17.54 1822.94 17L1822.94 17Q1823.02 16.46 1823.30 15.98L1823.30 15.98Q1823.58 15.50 1823.98 15.16L1823.98 15.16Q1824.38 14.80 1824.88 14.60L1824.88 14.60Q1825.40 14.38 1825.94 14.38L1825.94 14.38Q1826.48 14.38 1826.92 14.60L1826.92 14.60Q1827.36 14.80 1827.66 15.16L1827.66 15.16Q1827.98 15.50 1828.10 15.98ZM1826.26 17.80L1826.26 17.80L1826.26 17.80Q1826.64 17.46 1826.70 17L1826.70 17Q1826.78 16.52 1826.48 16.20L1826.48 16.20Q1826.18 15.86 1825.72 15.86L1825.72 15.86Q1825.24 15.86 1824.88 16.20L1824.88 16.20Q1824.50 16.52 1824.42 17L1824.42 17Q1824.36 17.46 1824.64 17.80L1824.64 17.80Q1824.92 18.14 1825.40 18.14L1825.40 18.14Q1825.86 18.14 1826.26 17.80Z"/></svg>