<svg xmlns="http://www.w3.org/2000/svg" xmlns:xlink="http://www.w3.org/1999/xlink" width="612.04" height="20"><path fill="black" d="M4.84 11.18L0.52 19.58L0.52 19.58L3.02 19.58Q4.80 19.58 5.94 17.72L5.94 17.72L9.26 11.18L16.86 11.18L15.98 17.40Q15.86 18.30 16.40 18.94L16.40 18.94Q16.94 19.58 17.88 19.58L17.88 19.58L24.06 19.58L24.30 18.36Q24.34 17.92 24.09 17.63Q23.84 17.34 23.42 17.34L23.42 17.34L21.56 17.34Q21.14 17.34 20.90 17.06L20.90 17.06Q20.66 16.78 20.72 16.36L20.72 16.36L21.38 11.18L24.06 11.18Q24.46 11.18 24.78 10.91Q25.10 10.64 25.16 10.22L25.16 10.22L25.36 8.92L15.60 8.92L16.74 0.78L12.98 0.78Q12.66 0.78 12.42 0.99Q12.18 1.20 12.12 1.52L12.12 1.52L11.08 8.92L2.38 8.92Q1.96 8.92 1.62 9.21Q1.28 9.50 1.22 9.94L1.22 9.94L1.04 11.18L4.84 11.18ZM7.78 7.86L7.56 2.62L7.56 2.62Q7.52 2.10 7.16 1.77Q6.80 1.44 6.26 1.44L6.26 1.44L3.32 1.44L3.60 7.50Q3.60 7.66 3.71 7.76Q3.82 7.86 3.96 7.86L3.96 7.86L7.78 7.86ZM24.12 5.66L25.48 1.44L25.48 1.44L21.76 1.44Q21.54 1.44 21.37 1.57Q21.20 1.70 21.12 1.90L21.12 1.90L19.18 7.86L21.14 7.86Q22.12 7.86 22.95 7.25Q23.78 6.64 24.12 5.66L24.12 5.66ZM51.34 3.12L51.66 1.40L51.66 1.40L34.78 1.40L35.30 0.74L30.98 0.74L30.50 1.40L28.02 1.40Q27.78 1.40 27.58 1.64L27.58 1.64Q27.40 1.90 27.36 2.16L27.36 2.16L27.06 3.60L29.16 3.60L26.40 7.90L28.82 7.90L27.12 19.60L29.86 19.60Q30.42 19.60 30.84 19.23Q31.26 18.86 31.36 18.30L31.36 18.30L31.78 15.16L44.46 15.16L44.20 17.16Q44.18 17.28 44.12 17.36L44.12 17.36Q44.06 17.42 43.96 17.50L43.96 17.50Q43.94 17.52 43.88 17.54L43.88 17.54Q43.78 17.64 43.68 17.66L43.68 17.66Q43.56 17.66 43.44 17.66L43.44 17.66Q43.40 17.66 43.34 17.66L43.34 17.66L41.20 17.66Q40.78 17.66 40.48 18.02L40.48 18.02Q40.16 18.36 40.10 18.80L40.10 18.80L40 19.60L45.52 19.60Q46.46 19.60 47.24 19.06L47.24 19.06Q48 18.50 48.14 17.42L48.14 17.42L49.86 5.28L34.08 5.28L33.82 6.84L45.64 6.84L45.36 8.96L32.68 8.96L33.22 5.28L32.40 5.28L33.42 3.60L50.78 3.60Q51 3.60 51.16 3.46L51.16 3.46Q51.30 3.32 51.34 3.12L51.34 3.12ZM32.10 13.10L32.42 11.14L32.42 11.14L45.10 11.14L44.78 13.10L32.10 13.10ZM72.38 2.28L72.38 2.28L72.38 2.28L76.92 2.28L76.38 3.84Q76.28 4.10 76.05 4.31Q75.82 4.52 75.54 4.52L75.54 4.52L67.54 4.52L67.34 5.98L75.34 6.00L74.80 7.38Q74.52 7.88 73.96 7.88L73.96 7.88L67.08 7.88L66.76 9.74L75.96 9.74L75.44 11.12Q75.32 11.62 74.28 11.62L74.28 11.62L66.42 11.62L66.16 13.10L75.34 13.10L74.80 14.66Q74.70 14.94 74.47 15.14Q74.24 15.34 73.96 15.34L73.96 15.34L66.20 15.34Q67.28 15.94 69.14 16.46Q71 16.98 73.10 17.12L73.10 17.12Q73.60 17.16 73.88 17.49Q74.16 17.82 74.10 18.32L74.10 18.32L73.90 19.60Q72.18 19.60 69.02 19.03Q65.86 18.46 63.92 16.86L63.92 16.86Q61.48 18.46 58.15 19.04Q54.82 19.62 53.10 19.62L53.10 19.62L53.30 18.34Q53.38 17.84 53.77 17.50Q54.16 17.16 54.66 17.12L54.66 17.12Q56.80 16.98 58.81 16.46Q60.82 15.94 62.12 15.34L62.12 15.34L53.36 15.34L53.56 13.96Q53.62 13.62 53.87 13.36Q54.12 13.10 54.44 13.10L54.44 13.10L62.66 13.10L62.92 11.62L54.00 11.62L54.20 10.40Q54.42 9.74 55.08 9.74L55.08 9.74L63.26 9.74L63.58 7.88L55.26 7.88L55.46 6.68Q55.68 6.00 56.34 6.00L56.34 6.00L63.86 5.98L64.06 4.52L54.94 4.52L55.14 3.12Q55.20 2.78 55.45 2.53Q55.70 2.28 56.02 2.28L56.02 2.28L60.28 2.28Q60.28 2.28 60.27 2.27Q60.26 2.26 60.26 2.24Q60.26 2.22 60.26 2.22L60.26 2.22L60.04 0.78L62.96 0.78Q63.54 0.78 64 1.14Q64.46 1.50 64.62 2.08L64.62 2.08L64.66 2.28L68 2.28L68 2.10Q68.16 1.52 68.61 1.16Q69.06 0.80 69.66 0.80L69.66 0.80L72.56 0.80L72.40 2.22Q72.40 2.22 72.39 2.24Q72.38 2.26 72.38 2.27Q72.38 2.28 72.38 2.28ZM88.88 14.84L88.88 14.84L88.88 14.84L90.48 3.64L90.82 3.64Q90.96 3.64 91.06 3.56L91.06 3.56Q91.16 3.46 91.20 3.32L91.20 3.32L91.46 1.84L90.78 1.84L90.94 0.74L87.52 0.74Q87.24 0.74 87.04 0.92Q86.84 1.10 86.80 1.38L86.80 1.38L86.74 1.84L85.32 1.84L85.46 0.74L82.08 0.74Q81.80 0.74 81.60 0.92Q81.40 1.10 81.36 1.36L81.36 1.36L81.30 1.84L81.12 1.84Q80.92 1.84 80.74 2.00L80.74 2.00Q80.56 2.16 80.52 2.38L80.52 2.38L80.30 3.64L81 3.64L79.38 14.92Q79.34 15.28 79.52 15.58L79.52 15.58Q79.70 15.90 80.12 16.04L80.12 16.04L80.84 16.34L79.30 16.88Q78.72 17.10 78.62 17.70L78.62 17.70L78.40 19.60L83.72 17.76L88.64 19.60L88.86 17.70Q88.90 17.10 88.40 16.88L88.40 16.88L86.92 16.28L87.84 15.96Q88.78 15.64 88.88 14.84ZM86.42 3.64L84.88 14.58L84.88 14.58Q84.86 14.64 84.84 14.72L84.84 14.72Q84.74 14.94 84.46 15.02L84.46 15.02L84.10 15.18L83.78 15.02Q83.50 14.94 83.46 14.72L83.46 14.72Q83.44 14.68 83.44 14.66L83.44 14.66Q83.44 14.62 83.46 14.58L83.46 14.58L85.02 3.64L86.42 3.64ZM83.46 14.58L85.02 3.64L85.02 3.64L83.46 14.58Q83.44 14.62 83.44 14.66L83.44 14.66Q83.44 14.62 83.46 14.58L83.46 14.58ZM83.46 14.72L83.46 14.72L83.46 14.72Q83.44 14.68 83.44 14.66L83.44 14.66Q83.44 14.68 83.46 14.72ZM83.46 14.72L83.46 14.72L83.46 14.72Q83.50 14.94 83.78 15.02L83.78 15.02L84.10 15.18L83.78 15.02Q83.50 14.92 83.46 14.72ZM84.46 15.02L84.46 15.02L84.46 15.02L84.10 15.18L84.46 15.02Q84.74 14.94 84.84 14.72L84.84 14.72Q84.74 14.92 84.46 15.02ZM84.84 14.72L84.84 14.72L84.84 14.72Q84.86 14.64 84.88 14.58L84.88 14.58L86.42 3.64L84.88 14.58Q84.86 14.64 84.84 14.72ZM94.18 2.76L94.18 2.76L94.18 2.76L98.08 2.76L94.90 7.20L94.82 7.70L91.54 7.70Q91.20 7.70 90.96 7.98L90.96 7.98Q90.70 8.24 90.64 8.58L90.64 8.58L90.50 9.72L94.56 9.72L93.56 16.72Q93.52 17.06 93.22 17.32L93.22 17.32Q93.06 17.46 92.76 17.50L92.76 17.50Q92.46 17.52 92.22 17.52L92.22 17.52L92 17.52Q91.36 17.52 90.88 17.98L90.88 17.98Q90.42 18.42 90.38 19.08L90.38 19.08L90.34 19.60L95.20 19.60Q96.20 19.60 97.02 18.88L97.02 18.88Q97.84 18.18 97.98 17.18L97.98 17.18L99.06 9.72L101.66 9.72Q102.06 9.72 102.34 9.42L102.34 9.42Q102.62 9.12 102.68 8.72L102.68 8.72L102.80 7.70L99.32 7.70L103.46 2.12L103.66 0.74L92.12 0.74L92.82 1.96Q93.34 2.76 94.18 2.76ZM117.28 12.08L117.28 12.08L117.28 12.08Q117.44 11.94 117.46 11.74L117.46 11.74L117.78 9.40L112.74 9.40Q111.94 9.40 111.44 8.86L111.44 8.86Q110.96 8.32 111.06 7.60L111.06 7.60L111.66 3.20L115.68 3.20L115.50 4.58L115.46 4.78L115.36 5.62L124.98 5.62L125.12 4.58L115.88 4.58L116.08 3.20L117.34 3.20L117.42 2.70L121.04 2.70Q121.22 2.70 121.35 2.84Q121.48 2.98 121.46 3.20L121.46 3.20L121.46 3.20L129.32 3.20L128.74 7.60Q128.64 8.32 128 8.86L128 8.86Q127.38 9.40 126.58 9.40L126.58 9.40L121.90 9.40L121.56 11.86Q121.44 12.66 120.80 13.22L120.80 13.22Q120.16 13.78 119.36 13.78L119.36 13.78L115.24 13.78L115.44 12.24L116.92 12.24Q117.12 12.24 117.28 12.08ZM115.52 8.00L115.52 8.00L115.52 8.00L124.18 8.00Q124.38 8.00 124.54 7.86L124.54 7.86Q124.70 7.74 124.72 7.54L124.72 7.54L124.80 6.94L115.18 6.94L115.10 7.54Q115.06 7.74 115.20 7.86L115.20 7.86Q115.32 8.00 115.52 8.00ZM123 16.04L122.94 17.16L122.94 17.16L119.42 17.16L119.56 14.18L121.28 14.18Q122 14.18 122.50 14.72Q123 15.26 123 16.04L123 16.04ZM123.66 19.60L123.90 14.18L123.90 14.18L125.54 14.18Q126.26 14.18 126.76 14.72Q127.26 15.26 127.24 16.04L127.24 16.04L127.10 19.60L123.66 19.60ZM118.36 17.82L118.36 17.82L118.36 17.82Q118.48 17.98 118.68 17.98L118.68 17.98L121.88 17.98Q122.38 17.98 122.71 18.37Q123.04 18.76 122.98 19.30L122.98 19.30L122.94 19.60L116.10 19.60Q115.20 19.60 114.66 18.94L114.66 18.94Q114.12 18.28 114.24 17.36L114.24 17.36L114.68 14.18L118.70 14.18L118.26 17.48Q118.24 17.68 118.36 17.82ZM127.68 9.96L128.04 13.78L128.04 13.78L126.50 13.78Q125.48 13.78 124.74 13.08Q124 12.38 123.86 11.30L123.86 11.30L123.74 9.96L127.68 9.96ZM111.60 0.74L129.66 0.74L129.66 0.74L129.64 0.92Q129.54 1.48 129.14 1.85Q128.74 2.22 128.20 2.22L128.20 2.22L111.40 2.22L111.60 0.74ZM104.68 17.46L104.84 16.30L104.84 16.30L106.96 0.74L110.92 0.74L110.72 2.22L110.68 2.46L108.66 17.32Q108.54 18.28 107.82 18.92L107.82 18.92Q107.10 19.58 106.18 19.58L106.18 19.58L104.40 19.58L104.68 17.46ZM110.10 19.60L109.06 19.60L109.06 19.60L110.30 14.18L113.90 14.18L113.24 17.02Q112.96 18.18 112.09 18.89Q111.22 19.60 110.10 19.60L110.10 19.60ZM110.06 13.78L111.46 9.96L111.46 9.96L115.42 9.96L114.82 11.60Q113.80 13.78 111.78 13.78L111.78 13.78L110.06 13.78ZM144.30 16.54L144.10 17.98L144.10 17.98L153.62 17.98L153.50 18.94Q153.46 19.20 153.26 19.39Q153.06 19.58 152.82 19.58L152.82 19.58L130.30 19.58L130.42 18.60Q130.46 18.34 130.65 18.16Q130.84 17.98 131.08 17.98L131.08 17.98L140.02 17.98L140.22 16.54L131.46 16.54L131.60 15.46Q131.64 15.24 131.79 15.09Q131.94 14.94 132.14 14.94L132.14 14.94L140.44 14.94L140.60 13.66L131.54 13.66L131.68 12.54Q131.72 12.34 131.86 12.21Q132.00 12.08 132.18 12.08L132.18 12.08L153.96 12.08L153.82 13.10Q153.78 13.34 153.61 13.50Q153.44 13.66 153.20 13.66L153.20 13.66L144.68 13.66L144.52 14.94L153.28 14.94L153.14 16.02Q153.10 16.24 152.94 16.39Q152.78 16.54 152.58 16.54L152.58 16.54L144.30 16.54ZM146.08 10.60L146.08 10.60L146.08 10.60Q145.50 11.12 144.76 11.12L144.76 11.12L142.00 11.12L142.16 9.88Q142.18 9.72 142.29 9.62Q142.40 9.52 142.54 9.52L142.54 9.52L142.54 9.52Q142.62 9.52 142.70 9.51Q142.78 9.50 142.84 9.44L142.84 9.44Q142.86 9.42 142.86 9.42L142.86 9.42Q142.92 9.36 142.96 9.32Q143.00 9.28 143.00 9.20L143.00 9.20L144.12 0.90L147.90 0.90L147.68 2.42L147.68 2.50L147.66 2.66L147.66 2.70L147.46 4.10L151.40 4.10L151.60 2.50L148.14 2.50L148.34 0.90L155.76 0.90L154.62 9.34Q154.52 10.08 153.94 10.60L153.94 10.60Q153.34 11.12 152.60 11.12L152.60 11.12L148.64 11.12L148.78 10.08Q148.82 9.84 149.00 9.68Q149.18 9.52 149.38 9.52L149.38 9.52L150.38 9.52Q150.46 9.52 150.52 9.51Q150.58 9.50 150.62 9.44L150.62 9.44Q150.68 9.38 150.69 9.33Q150.70 9.28 150.72 9.20L150.72 9.20L150.84 8.24L146.92 8.24L146.78 9.34Q146.66 10.08 146.08 10.60ZM151.20 5.54L147.28 5.54L147.28 5.54L147.10 6.80L151.04 6.80L151.20 5.54ZM132.46 8.96L132.46 8.96L132.46 8.96L133.26 2.98L132.50 2.98L132.64 1.98Q132.68 1.72 132.86 1.55Q133.04 1.38 133.28 1.38L133.28 1.38L135.88 1.38L135.98 0.74L139.38 0.74Q139.60 0.74 139.73 0.90Q139.86 1.06 139.82 1.30L139.82 1.30L139.82 1.38L143.00 1.38L142.86 2.40Q142.82 2.64 142.64 2.81Q142.46 2.98 142.24 2.98L142.24 2.98L137.04 2.98L136.26 8.84Q136.20 9.12 136.38 9.32L136.38 9.32Q136.54 9.52 136.84 9.52L136.84 9.52L140.66 9.52Q141.04 9.52 141.28 9.81Q141.52 10.10 141.48 10.52L141.48 10.52L141.40 11.12L134.26 11.12Q133.36 11.12 132.86 10.50L132.86 10.50Q132.34 9.86 132.46 8.96ZM178.58 8.48L160.38 8.48L160.38 8.48Q159.48 8.48 158.96 7.88L158.96 7.88Q158.44 7.28 158.54 6.40L158.54 6.40L159.28 0.74L163.26 0.74L163.06 2.24L163.00 2.54L162.96 2.92L162.84 3.94L177.28 3.94L177.50 2.24L163.84 2.24L164.04 0.74L181.66 0.74L180.92 6.40Q180.80 7.28 180.14 7.88L180.14 7.88Q179.46 8.48 178.58 8.48L178.58 8.48ZM162.66 5.28L162.50 6.40L162.50 6.40Q162.48 6.66 162.64 6.82L162.64 6.82Q162.80 6.96 163.06 6.96L163.06 6.96L176.30 6.96Q176.58 6.96 176.74 6.82L176.74 6.82Q176.92 6.66 176.94 6.40L176.94 6.40L177.10 5.28L162.66 5.28ZM158.02 9.56L158.02 9.56L158.02 9.56Q158.26 9.32 158.60 9.32L158.60 9.32L181.00 9.32L180.90 10.06Q180.86 10.40 180.62 10.62L180.62 10.62Q180.38 10.86 180.06 10.86L180.06 10.86L171.76 10.86L171.44 13.16L180.18 13.16Q180.08 13.84 179.62 14.26L179.62 14.26Q179.16 14.68 178.54 14.68L178.54 14.68L171.24 14.68L170.94 17L180.50 17.92L180.04 18.60Q179.22 19.54 178.02 19.46L178.02 19.46L160.74 18Q160.14 19.60 158.70 19.60L158.70 19.60L156.40 19.60L158.44 11.70L162.36 11.70L161.18 16.16L167.02 16.68L167.78 10.86L157.64 10.86L157.74 10.12Q157.78 9.78 158.02 9.56ZM184.18 3.06L189.42 3.06L189.42 3.06L182.40 16.42L182.50 16.42Q186.24 16.42 188.50 12.72L188.50 12.72L193.58 3.06L206.44 3.06Q206.82 3.06 207.12 2.78L207.12 2.78Q207.42 2.52 207.48 2.10L207.48 2.10L207.66 0.74L185.36 0.74Q184.98 0.74 184.72 0.98L184.72 0.98Q184.44 1.24 184.38 1.64L184.38 1.64L184.18 3.06ZM193.62 5.96L193.62 5.96L193.62 5.96L191.80 19.60L196.12 19.60L197.88 4.66L195.04 4.66Q194.52 4.66 194.10 5.02L194.10 5.02Q193.70 5.38 193.62 5.96ZM203.34 5.60L199.20 5.60L199.20 5.60L201.50 14.58Q201.72 15.40 202.40 15.91Q203.08 16.42 203.94 16.42L203.94 16.42L206.12 16.42L203.34 5.60ZM211.50 0.74L214.96 0.74L214.96 0.74L214.64 1.52L222.58 1.50L220.40 17.40Q220.28 18.30 219.56 18.94L219.56 18.94Q218.86 19.60 217.98 19.60L217.98 19.60L213.90 19.60L213.90 19.60Q214.02 18.90 214.51 18.45Q215.00 18 215.68 18L215.68 18L215.94 18Q216.22 18 216.48 17.78L216.48 17.78Q216.72 17.56 216.76 17.28L216.76 17.28L218.68 3.08L214.02 3.08L214.02 3.08Q213.48 4.22 212.40 4.22L212.40 4.22L209.80 4.22L211.06 1.06Q211.20 0.74 211.50 0.74L211.50 0.74ZM223.30 9.48L226.46 9.48L226.46 9.48L226.16 10.26L232.32 10.26L232.12 11.84L230.12 17.94Q229.62 19.60 227.58 19.60L227.58 19.60L220.98 19.60L220.98 19.60Q221.08 18.94 221.55 18.52Q222.02 18.10 222.64 18.10L222.64 18.10L225.70 18.10Q225.88 18.10 226.12 18L226.12 18Q226.34 17.92 226.42 17.62L226.42 17.62L228.38 11.84L225.60 11.84L225.60 11.84Q225.06 13 223.98 13L223.98 13L221.52 13L222.64 9.94Q222.86 9.48 223.30 9.48L223.30 9.48ZM217.40 4.76L215.92 15.56L215.92 15.56Q215.82 16.28 215.28 16.78L215.28 16.78Q214.72 17.28 214.04 17.28L214.04 17.28L209.92 17.28Q209.24 17.28 208.82 16.78L208.82 16.78Q208.40 16.28 208.50 15.56L208.50 15.56L209.96 4.76L212.86 4.76L212.66 6.26L212.60 6.62L211.40 15.42Q211.38 15.56 211.48 15.68L211.48 15.68Q211.56 15.78 211.70 15.78L211.70 15.78L212.66 15.78Q212.80 15.78 212.92 15.68L212.92 15.68Q213.04 15.56 213.06 15.42L213.06 15.42L214.30 6.26L212.96 6.26L213.16 4.76L217.40 4.76ZM223.12 4.36L228.48 4.72L228.48 4.72L228.26 6.30L224.46 6.04Q223.82 5.98 223.44 5.50Q223.06 5.02 223.12 4.36L223.12 4.36L223.12 4.36ZM221.60 14.00L226.78 14.52L226.78 14.52L226.56 16.18L222.98 15.82Q222.32 15.74 221.92 15.22Q221.52 14.70 221.60 14.00L221.60 14.00L221.60 14.00ZM227.64 0.76L227.44 1.24L227.44 1.24L233.62 1.24L233.42 2.82L232.04 7.32Q231.76 8.10 231.16 8.54L231.16 8.54Q230.56 8.98 229.50 8.98L229.50 8.98L222.42 8.98L222.42 8.96Q222.54 8.30 223.00 7.89Q223.46 7.48 224.08 7.48L224.08 7.48L227.62 7.48Q227.82 7.48 228.08 7.38L228.08 7.38Q228.34 7.30 228.42 7.00L228.42 7.00L229.68 2.82L226.76 2.82L226.76 2.82Q226.42 3.52 225.74 3.52L225.74 3.52L222.82 3.52L223.82 1.20Q224.04 0.76 224.46 0.76L224.46 0.76L227.64 0.76ZM239.48 1.38L239.48 1.38L239.48 1.38L239.42 1.66L236.44 1.66L234.44 17.14Q234.36 17.64 234.48 18.08L234.48 18.08Q234.58 18.54 234.86 18.88L234.86 18.88Q235.10 19.20 235.48 19.40L235.48 19.40Q235.86 19.60 236.30 19.60L236.30 19.60L243.08 19.60Q243.52 19.60 243.96 19.40L243.96 19.40Q244.38 19.20 244.74 18.88L244.74 18.88Q245.10 18.54 245.32 18.08L245.32 18.08Q245.56 17.62 245.62 17.14L245.62 17.14L247.62 1.66L244.18 1.66L244.32 0.74L240.14 0.74Q239.90 0.74 239.70 0.92L239.70 0.92Q239.52 1.10 239.48 1.38ZM242.78 10.74L241.90 17.56L241.90 17.56Q241.86 17.74 241.70 17.90L241.70 17.90Q241.56 18.04 241.36 18.04L241.36 18.04L238.20 18.04Q238.02 18.04 237.92 17.90L237.92 17.90Q237.78 17.74 237.80 17.56L237.80 17.56L238.70 10.74L242.78 10.74ZM243.78 3.14L242.98 9.16L242.98 9.16L238.90 9.16L239.72 3.14L243.78 3.14ZM259.10 1.58L259.10 1.58L259.10 1.58L252.54 1.58L252.86 0.74L249.76 0.74Q249.24 0.74 248.94 1.34L248.94 1.34L247.58 5.08L249.40 5.08Q251.04 5.08 251.94 3.34L251.94 3.34L255.48 3.34L253.66 17.30Q253.62 17.58 253.38 17.80L253.38 17.80Q253.16 18.02 252.88 18.02L252.88 18.02L250.66 18.02Q250.26 18.02 249.94 18.30L249.94 18.30Q249.64 18.60 249.58 19.04L249.58 19.04L249.50 19.60L255.26 19.60Q256.14 19.60 256.84 19.06L256.84 19.06Q257.56 18.52 257.70 17.44L257.70 17.44L259.66 2.26Q259.68 1.98 259.52 1.78L259.52 1.78Q259.38 1.58 259.10 1.58ZM249.44 11.14L252.88 12.98L252.88 12.98L253.66 10.54L249.14 7.98L248.70 8.76Q248.38 9.44 248.59 10.11Q248.80 10.78 249.44 11.14L249.44 11.14ZM260.40 19.60L260.40 19.60L260.40 19.60L263.24 19.60Q263.82 18.94 264.43 17.92Q265.04 16.90 265.52 15.82L265.52 15.82Q265.84 15.00 265.39 14.31Q264.94 13.62 264.10 13.62L264.10 13.62L264.10 13.62Q263.06 13.62 262.60 14.76L262.60 14.76Q262.22 16.02 261.61 17.35Q261 18.68 260.40 19.60ZM294.44 1.44L294.38 1.86L294.38 1.86L305.66 1.86L303.50 17.32Q303.36 18.26 302.62 18.92L302.62 18.92Q301.88 19.58 300.96 19.58L300.96 19.58L282.30 19.58Q281.38 19.58 280.84 18.92L280.84 18.92Q280.32 18.26 280.44 17.32L280.44 17.32L282.58 1.86L286.70 1.86L286.06 6.40L300.90 6.40L301.26 3.82L287.32 3.82L287.60 1.86L290.46 1.86L290.60 0.76L293.88 0.76Q294.16 0.76 294.32 0.96Q294.48 1.16 294.44 1.44L294.44 1.44ZM299.50 16.60L299.50 16.60L299.50 16.60L299.84 14.16L284.98 14.16L284.66 16.60Q284.58 17.02 284.82 17.30L284.82 17.30Q285.04 17.60 285.44 17.60L285.44 17.60L298.36 17.60Q298.78 17.60 299.10 17.30L299.10 17.30Q299.42 17.02 299.50 16.60ZM285.32 11.80L300.16 11.80L300.16 11.80L300.58 8.72L285.74 8.72L285.32 11.80ZM322.46 0.74L322.18 2.86L322.18 2.86L331.56 2.86L329.54 17.38Q329.42 18.30 328.70 18.96L328.70 18.96Q327.98 19.62 327.06 19.62L327.06 19.62L308.42 19.62Q307.50 19.62 306.94 18.96L306.94 18.96Q306.40 18.30 306.52 17.38L306.52 17.38L308.56 2.86L312.78 2.86L311.82 9.70L317 9.70L317.76 4.32L313.38 4.32L313.58 2.86L317.96 2.86L318.12 1.64Q318.20 1.24 318.48 0.99Q318.76 0.74 319.14 0.74L319.14 0.74L322.46 0.74ZM311.32 18L315.84 18L315.84 18L316.78 11.32L311.58 11.32L310.76 17.26Q310.70 17.54 310.86 17.78L310.86 17.78Q311 18 311.32 18L311.32 18ZM325.50 17.26L325.50 17.26L325.50 17.26L326.34 11.32L320.98 11.32L320.06 18L324.62 18Q324.94 18 325.20 17.78L325.20 17.78Q325.44 17.54 325.50 17.26ZM321.22 9.70L326.56 9.70L326.56 9.70L327.32 4.32L321.96 4.32L321.22 9.70ZM349.64 14.84L349.64 14.84L349.64 14.84Q349.68 14.76 349.70 14.66L349.70 14.66L350 13.04L349.70 14.66Q349.68 14.76 349.64 14.84ZM339.42 14.70L339.42 14.70L339.42 14.70Q339.42 14.82 339.50 14.91Q339.58 15.00 339.74 15.04L339.74 15.04L344.58 16.02L339.74 15.04Q339.58 15.00 339.50 14.91Q339.42 14.82 339.42 14.70ZM339.42 14.58L339.68 13.04L339.68 13.04L339.42 14.58Q339.42 14.60 339.42 14.64L339.42 14.64Q339.42 14.60 339.42 14.58L339.42 14.58ZM350.28 10.78L355.16 10.78L355.16 10.78L355.02 11.52L355.96 11.52L355.84 12.40Q355.78 12.68 355.60 12.86Q355.42 13.04 355.18 13.04L355.18 13.04L354.78 13.04L354.38 15.48Q354.24 16.28 353.18 16.40L353.18 16.40L349.94 16.92L355.70 17.96L355.24 18.70Q354.64 19.58 353.70 19.46L353.70 19.46L344.24 17.92L332.60 19.62L332.64 19.38Q332.94 17.98 334.44 17.66L334.44 17.66L339.06 16.92L335.16 16.20Q334.12 16.10 334.26 15.30L334.26 15.30L334.62 13.04L333.68 13.04L333.82 12.02Q333.86 11.80 334.01 11.66Q334.16 11.52 334.34 11.52L334.34 11.52L334.86 11.52L335 10.78L340.02 10.78L339.88 11.52L350.14 11.52L350.28 10.78ZM349.70 14.66L349.70 14.66L349.70 14.66L350 13.04L339.68 13.04L339.42 14.58Q339.42 14.60 339.42 14.64L339.42 14.64Q339.42 14.68 339.42 14.70L339.42 14.70Q339.42 14.82 339.50 14.91Q339.58 15.00 339.74 15.04L339.74 15.04L344.58 16.02L349.14 15.12Q349.50 15.08 349.64 14.84L349.64 14.84Q349.68 14.76 349.70 14.66ZM339.42 14.70L339.42 14.70L339.42 14.70Q339.42 14.68 339.42 14.64L339.42 14.64Q339.42 14.68 339.42 14.70ZM357.44 0.84L357.24 2.52L357.24 2.52L351.06 2.52L350.86 3.46L356.82 3.46L356.22 8.08Q356.14 8.96 355.60 9.58L355.60 9.58Q355.06 10.22 354.42 10.22L354.42 10.22L335.78 10.22Q335.12 10.22 334.72 9.56L334.72 9.56Q334.32 8.92 334.42 8.06L334.42 8.06L335 3.46L338.94 3.46L338.22 8.04Q338.22 8.08 338.22 8.13Q338.22 8.18 338.22 8.22L338.22 8.22Q338.22 8.38 338.32 8.54L338.32 8.54Q338.44 8.70 338.62 8.70L338.62 8.70L340.24 8.70L340.82 5.10L339.74 5.10L339.94 3.46L340.96 3.46L341.10 2.52L334.78 2.52L334.90 1.66Q335.12 0.84 335.80 0.84L335.80 0.84L357.44 0.84ZM344.04 8.70L346.36 8.70L346.36 8.70L346.94 5.10L344.62 5.10L344.04 8.70ZM344.92 3.46L347.24 3.46L347.24 3.46L347.34 2.52L345.02 2.52L344.92 3.46ZM352.32 8.20L352.82 5.10L352.82 5.10L350.72 5.10L350.16 8.70L351.80 8.70Q351.88 8.70 351.98 8.68Q352.08 8.66 352.16 8.56L352.16 8.56Q352.24 8.48 352.27 8.40Q352.30 8.32 352.32 8.20L352.32 8.20ZM383.34 3.12L383.66 1.40L383.66 1.40L366.78 1.40L367.30 0.74L362.98 0.74L362.50 1.40L360.02 1.40Q359.78 1.40 359.58 1.64L359.58 1.64Q359.40 1.90 359.36 2.16L359.36 2.16L359.06 3.60L361.16 3.60L358.40 7.90L360.82 7.90L359.12 19.60L361.86 19.60Q362.42 19.60 362.84 19.23Q363.26 18.86 363.36 18.30L363.36 18.30L363.78 15.16L376.46 15.16L376.20 17.16Q376.18 17.28 376.12 17.36L376.12 17.36Q376.06 17.42 375.96 17.50L375.96 17.50Q375.94 17.52 375.88 17.54L375.88 17.54Q375.78 17.64 375.68 17.66L375.68 17.66Q375.56 17.66 375.44 17.66L375.44 17.66Q375.40 17.66 375.34 17.66L375.34 17.66L373.20 17.66Q372.78 17.66 372.48 18.02L372.48 18.02Q372.16 18.36 372.10 18.80L372.10 18.80L372 19.60L377.52 19.60Q378.46 19.60 379.24 19.06L379.24 19.06Q380 18.50 380.14 17.42L380.14 17.42L381.86 5.28L366.08 5.28L365.82 6.84L377.64 6.84L377.36 8.96L364.68 8.96L365.22 5.28L364.40 5.28L365.42 3.60L382.78 3.60Q383 3.60 383.16 3.46L383.16 3.46Q383.30 3.32 383.34 3.12L383.34 3.12ZM364.10 13.10L364.42 11.14L364.42 11.14L377.10 11.14L376.78 13.10L364.10 13.10ZM404.62 17.34L404.62 17.34L404.62 17.34L405.62 9.68L407.42 9.68Q407.82 9.68 408.11 9.41Q408.40 9.14 408.46 8.70L408.46 8.70L408.56 8.04L405.82 8.04L406.56 2.38L408.52 2.38Q408.84 2.38 409.09 2.14Q409.34 1.90 409.40 1.54L409.40 1.54L409.50 0.74L387.44 0.74Q387.10 0.74 386.85 0.97Q386.60 1.20 386.54 1.58L386.54 1.58L386.44 2.38L402.60 2.38L401.86 8.04L390.44 8.04Q390.16 8.04 389.98 7.84L389.98 7.84Q389.78 7.60 389.82 7.26L389.82 7.26L390.36 3.10L386.40 3.10L385.84 7.42Q385.72 8.34 386.22 9.02L386.22 9.02Q386.74 9.68 387.64 9.68L387.64 9.68L401.66 9.68L400.68 17.22Q400.64 17.54 400.40 17.76L400.40 17.76Q400.16 17.98 399.88 17.98L399.88 17.98L398.12 17.98Q397.52 17.98 397.07 18.40Q396.62 18.82 396.52 19.48L396.52 19.48L396.50 19.60L402.24 19.60Q403.10 19.60 403.80 18.96L403.80 18.96Q404.50 18.30 404.62 17.34ZM389.84 10.42L384.48 19.60L384.48 19.60L384.48 19.60Q388.34 19.60 390.82 15.84L390.82 15.84L394 10.42L389.84 10.42ZM413.46 6.52L412.06 6.52L412.06 6.52Q411.84 6.52 411.66 6.67Q411.48 6.82 411.44 7.06L411.44 7.06L411.28 8.12L434.80 8.12Q435.04 8.12 435.22 7.96Q435.40 7.80 435.44 7.56L435.44 7.56L435.58 6.52L426.48 6.52L426.88 3.68L434.34 3.68Q434.82 3.68 435.17 3.37Q435.52 3.06 435.60 2.58L435.60 2.58L435.66 2.08L427.10 2.08L427.28 0.76L424.22 0.76Q423.76 0.76 423.42 1.06Q423.08 1.36 422.98 1.82L422.98 1.82L422.34 6.52L417.52 6.52L418.26 1.14L415.08 1.14Q414.72 1.14 414.44 1.39Q414.16 1.64 414.10 2.02L414.10 2.02L413.46 6.52ZM415.64 9.50L412.10 9.50L412.10 9.50Q411.86 9.50 411.66 9.66Q411.46 9.82 411.42 10.08L411.42 10.08L410.42 17.38Q410.28 18.32 410.82 18.96L410.82 18.96Q411.36 19.60 412.30 19.60L412.30 19.60L431.12 19.60Q432.04 19.60 432.78 18.96L432.78 18.96Q433.48 18.32 433.62 17.38L433.62 17.38L434.74 9.50L431.38 9.50Q431.04 9.50 430.79 9.72Q430.54 9.94 430.48 10.28L430.48 10.28L429.54 17.02Q429.48 17.44 429.16 17.72L429.16 17.72Q428.84 18 428.44 18L428.44 18L415.44 18Q415.02 18 414.78 17.72L414.78 17.72Q414.54 17.44 414.60 17.02L414.60 17.02L415.64 9.50ZM422.62 12.66L424.10 15.40L424.10 15.40Q424.92 16.72 426.32 16.72L426.32 16.72L428.94 16.72L426.54 11.48L423.34 11.48L425.06 8.86L421.32 8.86Q420.96 8.86 420.70 9.18L420.70 9.18L415.48 16.72L417.82 16.72Q419.66 16.72 420.90 15.12L420.90 15.12L422.62 12.66ZM456.40 17.42L456.40 17.42L456.40 17.42L458.10 4.66L460.42 4.66Q460.80 4.66 461.11 4.37Q461.42 4.08 461.48 3.66L461.48 3.66L461.62 2.70L458.36 2.70L458.62 0.84L454.78 0.84Q454.44 0.84 454.15 1.10Q453.86 1.36 453.80 1.74L453.80 1.74L453.68 2.70L439.60 2.70Q439.22 2.70 438.91 2.98Q438.60 3.26 438.54 3.68L438.54 3.68L438.40 4.66L453.42 4.66L451.76 16.94Q451.72 17.26 451.48 17.46L451.48 17.46Q451.26 17.66 450.98 17.66L450.98 17.66L449.18 17.66Q448.80 17.66 448.49 17.95Q448.18 18.24 448.10 18.66L448.10 18.66L447.98 19.62L454 19.62Q454.88 19.62 455.58 18.98L455.58 18.98Q456.28 18.34 456.40 17.42ZM443.44 6.10L436.40 19.62L436.40 19.62L437.08 19.62Q440.22 19.62 442.30 16.22L442.30 16.22L447.56 6.10L443.44 6.10ZM468.52 6.86L468.32 8.36L468.32 8.36L471.96 8.36L471.72 10.18L467.62 10.18L468.06 6.86L464.14 6.86L462.42 19.60L464.52 19.60Q465.30 19.60 465.89 19.09Q466.48 18.58 466.60 17.80L466.60 17.80L466.92 15.46L471.00 15.46L470.72 17.52Q470.70 17.62 470.68 17.70L470.68 17.70Q470.64 17.76 470.56 17.84L470.56 17.84Q470.48 17.90 470.40 17.94L470.40 17.94Q470.32 17.96 470.24 17.96L470.24 17.96L469.76 17.96Q469.28 17.96 468.92 18.30L468.92 18.30Q468.56 18.62 468.46 19.14L468.46 19.14L468.40 19.60L472.34 19.60Q473.20 19.60 473.88 18.98L473.88 18.98Q474.56 18.34 474.68 17.40L474.68 17.40L476.08 6.86L468.52 6.86ZM474.42 1.90L472.32 1.90L472.32 1.90L472.42 4.04L469.10 4.32Q468.94 4.32 468.90 4.20L468.90 4.20Q468.82 4.04 468.90 3.94L468.90 3.94L470.48 0.74L466.96 0.74Q466.40 0.74 466.02 1.32L466.02 1.32L464.36 4.40Q464.20 4.70 464.18 5.02L464.18 5.02Q464.16 5.34 464.26 5.62L464.26 5.62Q464.38 5.88 464.62 6.04L464.62 6.04Q464.86 6.20 465.22 6.18L465.22 6.18L472.56 5.68L472.62 6.36L476.28 6.36L476.08 3.52Q476.02 2.82 475.54 2.36L475.54 2.36Q475.06 1.90 474.42 1.90L474.42 1.90ZM471.50 11.82L471.22 13.82L471.22 13.82L467.14 13.82L467.40 11.82L471.50 11.82ZM480.46 11.64L480.78 9.40L480.78 9.40L476.86 9.40L475.76 17.40Q475.64 18.34 476.18 18.98L476.18 18.98Q476.70 19.60 477.56 19.60L477.56 19.60L485.22 19.60Q485.30 18.92 484.90 18.44L484.90 18.44Q484.50 17.96 483.86 17.96L483.86 17.96L480.34 17.96Q480.04 17.96 479.86 17.78L479.86 17.78Q479.68 17.58 479.72 17.28L479.72 17.28L480.26 13.24L484.66 12.68Q485.34 12.60 485.82 12.12L485.82 12.12Q486.30 11.62 486.40 10.90L486.40 10.90L480.46 11.64ZM487.10 2.50L487.10 2.50L487.10 2.50Q487.56 2.02 487.68 1.30L487.68 1.30L481.76 2.04L481.94 0.74L478.00 0.74L477.24 6.38Q477.12 7.30 477.64 7.94L477.64 7.94Q478.16 8.56 479.04 8.56L479.04 8.56L486.70 8.56Q486.78 7.88 486.38 7.40L486.38 7.40Q485.98 6.92 485.34 6.92L485.34 6.92L481.82 6.92Q481.52 6.92 481.34 6.74L481.34 6.74Q481.16 6.56 481.20 6.26L481.20 6.26L481.56 3.62L485.96 3.08Q486.64 2.98 487.10 2.50ZM490.20 3.06L495.44 3.06L495.44 3.06L488.42 16.42L488.52 16.42Q492.26 16.42 494.52 12.72L494.52 12.72L499.60 3.06L512.46 3.06Q512.84 3.06 513.14 2.78L513.14 2.78Q513.44 2.52 513.50 2.10L513.50 2.10L513.68 0.74L491.38 0.74Q491.00 0.74 490.74 0.98L490.74 0.98Q490.46 1.24 490.40 1.64L490.40 1.64L490.20 3.06ZM499.64 5.96L499.64 5.96L499.64 5.96L497.82 19.60L502.14 19.60L503.90 4.66L501.06 4.66Q500.54 4.66 500.12 5.02L500.12 5.02Q499.72 5.38 499.64 5.96ZM509.36 5.60L505.22 5.60L505.22 5.60L507.52 14.58Q507.74 15.40 508.42 15.91Q509.10 16.42 509.96 16.42L509.96 16.42L512.14 16.42L509.36 5.60ZM536.28 5.02L539.46 5.02L539.46 5.02L539.66 3.42Q539.78 2.62 539.40 2.18L539.40 2.18Q539.04 1.72 538.28 1.72L538.28 1.72L535.32 1.72L535.46 0.74L532.46 0.74Q532.14 0.74 531.92 0.95Q531.70 1.16 531.64 1.48L531.64 1.48L531.60 1.72L530.52 1.72L530.30 3.30L531.40 3.30L530.80 7.18L529.18 7.18L529.94 1.72L526.26 1.72L524.18 17.54Q524.16 17.62 524.14 17.68L524.14 17.68L524.16 17.68L523.90 19.60L525.66 19.60Q526.58 19.60 527.20 18.88L527.20 18.88Q527.82 18.18 527.96 17.16L527.96 17.16L528.76 10.34L531.06 14.22L527.62 19.60L529.04 19.60Q531.36 19.60 532.88 17.44L532.88 17.44L533.38 18.50Q533.96 19.60 535.02 19.60L535.02 19.60L537.46 19.60L534.88 14.58L538.82 8.76L539.04 7.18L534.50 7.18L535.12 3.30L535.94 3.30Q536.18 3.30 536.32 3.48L536.32 3.48Q536.46 3.64 536.44 3.92L536.44 3.92L536.28 5.02ZM528.96 8.76L534.96 8.76L534.96 8.76L533.06 11.70L532.36 10.38Q532.12 9.90 531.66 9.90L531.66 9.90L528.82 9.90L528.96 8.76ZM524.18 9.44L524.18 9.44L524.18 9.44L524.44 7.80L521.30 8.70L524.34 3.24L524.46 2.38Q524.50 2.08 524.30 1.86L524.30 1.86Q524.12 1.64 523.82 1.64L523.82 1.64L522.56 1.64Q522.60 1.28 522.36 1L522.36 1Q522.12 0.74 521.76 0.74L521.76 0.74L518.80 0.74L518.66 1.64L517.14 1.64Q516.72 1.64 516.40 1.90L516.40 1.90Q516.08 2.18 516.02 2.60L516.02 2.60L515.94 3.24L520.10 3.24L514.42 12.78L516.64 12.78L515.66 19.60L519.24 19.60Q519.38 19.60 519.46 19.52L519.46 19.52Q519.56 19.44 519.58 19.32L519.58 19.32L520.76 11L523.44 10.26Q524.04 10.06 524.18 9.44ZM522.30 9.88L522.30 9.88L522.30 9.88Q522.10 9.76 521.90 9.84L521.90 9.84L520.22 10.46L520.78 14.50Q520.96 15.50 521.72 16L521.72 16Q522.46 16.48 523.36 16.16L523.36 16.16L522.52 10.28Q522.48 10 522.30 9.88ZM551.44 5.08L565.56 5.08L565.56 5.08L565.50 5.62Q565.40 6.16 565 6.52Q564.60 6.88 564.08 6.88L564.08 6.88L562.08 6.88L564.90 9.92L562.08 9.92Q560.32 9.92 559 8.54L559 8.54L557.54 6.88L549.26 6.88L547.12 8.68Q545.66 9.86 543.90 9.86L543.90 9.86L541.06 9.86L544.62 6.88L541.46 6.88L541.54 6.36Q541.62 5.80 542.02 5.44Q542.42 5.08 542.96 5.08L542.96 5.08L546.80 5.08L549.54 2.54L542.54 2.54L542.62 1.88Q542.70 1.38 543.06 1.06Q543.42 0.74 543.90 0.74L543.90 0.74L565.68 0.74L565.60 1.40Q565.52 1.90 565.16 2.22Q564.80 2.54 564.32 2.54L564.32 2.54L554.22 2.54L551.44 5.08ZM559.98 12.36L546.24 12.36L546.24 12.36L546.46 10.74L564.36 10.74L563.46 17.36Q563.32 18.28 562.60 18.94L562.60 18.94Q561.88 19.60 560.94 19.60L560.94 19.60L542.34 19.60Q541.42 19.60 540.88 18.94L540.88 18.94Q540.32 18.28 540.46 17.36L540.46 17.36L541.36 10.74L545.52 10.74L545.30 12.36L545.16 13.36L544.66 16.98Q544.60 17.40 544.92 17.68L544.92 17.68Q545.24 17.98 545.64 17.98L545.64 17.98L558.24 17.98Q558.66 17.98 558.98 17.68L558.98 17.68Q559.30 17.40 559.36 16.98L559.36 16.98L559.98 12.36ZM584.30 17.26L586.46 7.56L586.46 7.56L589.16 7.56L588.56 10.22L589.86 10.22L589.54 17.26L588.80 17.26Q588.22 17.26 587.84 16.83Q587.46 16.40 587.48 15.80L587.48 15.80L587.60 13.14L586.92 16.18Q586.80 16.66 586.44 16.96Q586.08 17.26 585.62 17.26L585.62 17.26L584.30 17.26ZM574.98 17.26L577.14 7.56L577.14 7.56L579.86 7.56L579.24 10.22L580.54 10.22L580.22 17.26L579.48 17.26Q578.90 17.26 578.52 16.84Q578.14 16.42 578.14 15.80L578.14 15.80L578.26 13.12L577.60 16.18Q577.48 16.66 577.12 16.96Q576.76 17.26 576.30 17.26L576.30 17.26L574.98 17.26ZM588.02 1.16L591.68 1.16L591.68 1.16L591.54 2.28Q591.50 2.48 591.35 2.62Q591.20 2.76 591 2.76L591 2.76L590.84 2.76L590.86 4.68L589.50 4.68Q588.88 4.68 588.45 4.23Q588.02 3.78 588 3.12L588 3.12L587.98 2.76L587.52 2.76L587.28 3.56Q586.84 4.68 585.84 4.68L585.84 4.68L583.92 4.68L585.10 0.74L588.14 0.74L588.02 1.16ZM580.58 2.76L580.14 2.76L580.14 2.76L579.92 3.56Q579.46 4.68 578.46 4.68L578.46 4.68L576.54 4.68L577.70 0.74L580.76 0.74L580.64 1.16L584.38 1.16L584.22 2.28Q584.20 2.48 584.05 2.62Q583.90 2.76 583.70 2.76L583.70 2.76L583.46 2.76L583.48 4.68L582.10 4.68Q581.50 4.68 581.06 4.24Q580.62 3.80 580.60 3.14L580.60 3.14L580.58 2.76ZM581.80 6.82L576.52 6.82L576.52 6.82L576.62 6.10Q576.68 5.72 576.95 5.47Q577.22 5.22 577.60 5.22L577.60 5.22L591.04 5.22L590.94 5.92Q590.88 6.30 590.61 6.56Q590.34 6.82 589.96 6.82L589.96 6.82L585.44 6.82L583.96 18L589.44 18L589.34 18.70Q589.28 19.10 589 19.35Q588.72 19.60 588.36 19.60L588.36 19.60L574.70 19.60L574.80 18.90Q574.86 18.50 575.13 18.25Q575.40 18 575.78 18L575.78 18L580.30 18L581.80 6.82ZM572.38 2.76L572.60 1.16L572.60 1.16L576.56 1.16L574.36 17.64Q574.26 18.46 573.60 19.02L573.60 19.02Q572.96 19.60 572.16 19.60L572.16 19.60L568.16 19.60Q567.34 19.60 566.84 19.02L566.84 19.02Q566.34 18.46 566.44 17.64L566.44 17.64L568.64 1.16L572.10 1.16L571.88 2.76L571.84 3.10L569.88 17.64Q569.88 17.80 569.96 17.90L569.96 17.90Q570.08 18 570.24 18L570.24 18L570.52 18Q570.68 18 570.78 17.90L570.78 17.90Q570.90 17.80 570.90 17.64L570.90 17.64L572.90 2.76L572.38 2.76ZM597.94 15.98L597.94 15.98L597.94 15.98Q598.08 16.46 598 17L598 17Q597.94 17.54 597.66 18.02L597.66 18.02Q597.40 18.48 596.98 18.84L596.98 18.84Q596.58 19.20 596.08 19.40L596.08 19.40Q595.58 19.60 595.04 19.60L595.04 19.60Q594.50 19.60 594.04 19.40L594.04 19.40Q593.60 19.20 593.30 18.84L593.30 18.84Q593 18.48 592.86 18.02L592.86 18.02Q592.72 17.54 592.78 17L592.78 17Q592.86 16.46 593.14 15.98L593.14 15.98Q593.42 15.50 593.82 15.16L593.82 15.16Q594.22 14.80 594.72 14.60L594.72 14.60Q595.24 14.38 595.78 14.38L595.78 14.38Q596.32 14.38 596.76 14.60L596.76 14.60Q597.20 14.80 597.50 15.16L597.50 15.16Q597.82 15.50 597.94 15.98ZM596.10 17.80L596.10 17.80L596.10 17.80Q596.48 17.46 596.54 17L596.54 17Q596.62 16.52 596.32 16.20L596.32 16.20Q596.02 15.86 595.56 15.86L595.56 15.86Q595.08 15.86 594.72 16.20L594.72 16.20Q594.34 16.52 594.26 17L594.26 17Q594.20 17.46 594.48 17.80L594.48 17.80Q594.76 18.14 595.24 18.14L595.24 18.14Q595.70 18.14 596.10 17.80Z"/></svg>