<svg xmlns="http://www.w3.org/2000/svg" xmlns:xlink="http://www.w3.org/1999/xlink" width="970.0999999999999" height="20"><path fill="black" d="M6.96 17.34L13.30 8.20L13.30 8.20L19 17.26Q20.40 19.60 22.80 19.60L22.80 19.60L25.64 19.60L17.52 6.50L14.32 6.50L18.38 0.74L14.08 0.74Q13.50 0.74 13.12 1.24L13.12 1.24L0.38 19.60L2.58 19.60Q5.20 19.60 6.96 17.34L6.96 17.34ZM28.16 3.06L33.40 3.06L33.40 3.06L26.38 16.42L26.48 16.42Q30.22 16.42 32.48 12.72L32.48 12.72L37.56 3.06L50.42 3.06Q50.80 3.06 51.10 2.78L51.10 2.78Q51.40 2.52 51.46 2.10L51.46 2.10L51.64 0.74L29.34 0.74Q28.96 0.74 28.70 0.98L28.70 0.98Q28.42 1.24 28.36 1.64L28.36 1.64L28.16 3.06ZM37.60 5.96L37.60 5.96L37.60 5.96L35.78 19.60L40.10 19.60L41.86 4.66L39.02 4.66Q38.50 4.66 38.08 5.02L38.08 5.02Q37.68 5.38 37.60 5.96ZM47.32 5.60L43.18 5.60L43.18 5.60L45.48 14.58Q45.70 15.40 46.38 15.91Q47.06 16.42 47.92 16.42L47.92 16.42L50.10 16.42L47.32 5.60ZM71.30 8.60L67.62 8.60L67.62 8.60L67.70 8.00Q67.74 7.74 67.92 7.57Q68.10 7.40 68.34 7.40L68.34 7.40L72.02 7.40L71.94 8.02Q71.90 8.28 71.72 8.44Q71.54 8.60 71.30 8.60L71.30 8.60ZM62.06 8.60L58.38 8.60L58.38 8.60L58.46 8.00Q58.50 7.74 58.67 7.57Q58.84 7.40 59.08 7.40L59.08 7.40L62.76 7.40L62.68 8.02Q62.64 8.28 62.46 8.44Q62.28 8.60 62.06 8.60L62.06 8.60ZM62.90 10.92L53.60 10.92L53.60 10.92L53.70 10.16Q53.74 9.80 54 9.56Q54.26 9.32 54.58 9.32L54.58 9.32L76.24 9.32L76.14 10.08Q76.08 10.46 75.83 10.69Q75.58 10.92 75.24 10.92L75.24 10.92L66.76 10.92L66.64 11.82L75.80 11.82L75.04 17.76Q74.92 18.58 74.40 19.08L74.40 19.08Q73.86 19.60 73.12 19.60L73.12 19.60L69.78 19.60L69.86 18.94Q69.92 18.52 70.20 18.26Q70.48 18 70.86 18L70.86 18L70.86 18Q71 18 71.12 17.88L71.12 17.88Q71.24 17.76 71.26 17.62L71.26 17.62L71.80 13.42L69.52 13.42L68.90 18.28Q68.82 18.80 68.47 19.12Q68.12 19.44 67.66 19.44L67.66 19.44L64.88 19.44L65.66 13.42L63.34 13.42L62.72 18.28Q62.64 18.80 62.29 19.12Q61.94 19.44 61.48 19.44L61.48 19.44L58.70 19.44L59.48 13.42L57.52 13.42L57.72 11.82L62.78 11.82L62.90 10.92ZM53.58 11.82L57.40 11.82L57.40 11.82L57.18 13.42L57.16 13.58L56.54 18.36Q56.46 18.90 56.10 19.25Q55.74 19.60 55.24 19.60L55.24 19.60L52.56 19.60L53.58 11.82ZM68.64 5.00L72.32 5.00L72.32 5.00L72.24 5.62Q72.20 5.88 72.03 6.05Q71.86 6.22 71.62 6.22L71.62 6.22L67.94 6.22L68.02 5.60Q68.06 5.34 68.23 5.17Q68.40 5.00 68.64 5.00L68.64 5.00ZM59.38 5.00L63.06 5.00L63.06 5.00L62.98 5.62Q62.96 5.88 62.78 6.05Q62.60 6.22 62.36 6.22L62.36 6.22L58.68 6.22L58.76 5.60Q58.80 5.34 58.98 5.17Q59.16 5.00 59.38 5.00L59.38 5.00ZM58.60 2.96L58.36 4.90L58.36 4.90L58.36 4.92L57.86 8.78L54 8.78L54.54 4.72Q54.64 3.90 55.24 3.42L55.24 3.42Q55.84 2.96 56.58 2.96L56.58 2.96L58.60 2.96ZM54.70 2.34L54.82 1.46L54.82 1.46Q54.86 1.14 55.08 0.94Q55.30 0.74 55.58 0.74L55.58 0.74L77.36 0.74L77.24 1.64Q77.20 1.94 76.98 2.14Q76.76 2.34 76.48 2.34L76.48 2.34L67.86 2.34L67.80 2.96L75.12 2.96Q75.86 2.96 76.34 3.42L76.34 3.42Q76.80 3.90 76.70 4.72L76.70 4.72L76.18 8.78L72.30 8.78L72.82 4.90Q72.84 4.70 72.72 4.56L72.72 4.56Q72.58 4.42 72.42 4.42L72.42 4.42L67.60 4.42L67.14 8.00Q67.08 8.34 66.85 8.56Q66.62 8.78 66.32 8.78L66.32 8.78L63.18 8.78L63.74 4.42L58.92 4.42L59.10 2.96L63.92 2.96L64 2.34L54.70 2.34ZM95.62 14.84L95.62 14.84L95.62 14.84Q95.66 14.76 95.68 14.66L95.68 14.66L95.98 13.04L95.68 14.66Q95.66 14.76 95.62 14.84ZM85.40 14.70L85.40 14.70L85.40 14.70Q85.40 14.82 85.48 14.91Q85.56 15.00 85.72 15.04L85.72 15.04L90.56 16.02L85.72 15.04Q85.56 15.00 85.48 14.91Q85.40 14.82 85.40 14.70ZM85.40 14.58L85.66 13.04L85.66 13.04L85.40 14.58Q85.40 14.60 85.40 14.64L85.40 14.64Q85.40 14.60 85.40 14.58L85.40 14.58ZM96.26 10.78L101.14 10.78L101.14 10.78L101 11.52L101.94 11.52L101.82 12.40Q101.76 12.68 101.58 12.86Q101.40 13.04 101.16 13.04L101.16 13.04L100.76 13.04L100.36 15.48Q100.22 16.28 99.16 16.40L99.16 16.40L95.92 16.92L101.68 17.96L101.22 18.70Q100.62 19.58 99.68 19.46L99.68 19.46L90.22 17.92L78.58 19.62L78.62 19.38Q78.92 17.98 80.42 17.66L80.42 17.66L85.04 16.92L81.14 16.20Q80.10 16.10 80.24 15.30L80.24 15.30L80.60 13.04L79.66 13.04L79.80 12.02Q79.84 11.80 79.99 11.66Q80.14 11.52 80.32 11.52L80.32 11.52L80.84 11.52L80.98 10.78L86 10.78L85.86 11.52L96.12 11.52L96.26 10.78ZM95.68 14.66L95.68 14.66L95.68 14.66L95.98 13.04L85.66 13.04L85.40 14.58Q85.40 14.60 85.40 14.64L85.40 14.64Q85.40 14.68 85.40 14.70L85.40 14.70Q85.40 14.82 85.48 14.91Q85.56 15.00 85.72 15.04L85.72 15.04L90.56 16.02L95.12 15.12Q95.48 15.08 95.62 14.84L95.62 14.84Q95.66 14.76 95.68 14.66ZM85.40 14.70L85.40 14.70L85.40 14.70Q85.40 14.68 85.40 14.64L85.40 14.64Q85.40 14.68 85.40 14.70ZM103.42 0.84L103.22 2.52L103.22 2.52L97.04 2.52L96.84 3.46L102.80 3.46L102.20 8.08Q102.12 8.96 101.58 9.58L101.58 9.58Q101.04 10.22 100.40 10.22L100.40 10.22L81.76 10.22Q81.10 10.22 80.70 9.56L80.70 9.56Q80.30 8.92 80.40 8.06L80.40 8.06L80.98 3.46L84.92 3.46L84.20 8.04Q84.20 8.08 84.20 8.13Q84.20 8.18 84.20 8.22L84.20 8.22Q84.20 8.38 84.30 8.54L84.30 8.54Q84.42 8.70 84.60 8.70L84.60 8.70L86.22 8.70L86.80 5.10L85.72 5.10L85.92 3.46L86.94 3.46L87.08 2.52L80.76 2.52L80.88 1.66Q81.10 0.84 81.78 0.84L81.78 0.84L103.42 0.84ZM90.02 8.70L92.34 8.70L92.34 8.70L92.92 5.10L90.60 5.10L90.02 8.70ZM90.90 3.46L93.22 3.46L93.22 3.46L93.32 2.52L91 2.52L90.90 3.46ZM98.30 8.20L98.80 5.10L98.80 5.10L96.70 5.10L96.14 8.70L97.78 8.70Q97.86 8.70 97.96 8.68Q98.06 8.66 98.14 8.56L98.14 8.56Q98.22 8.48 98.25 8.40Q98.28 8.32 98.30 8.20L98.30 8.20ZM117.10 17.16L111.64 17.16L111.64 17.16Q111.22 17.16 110.92 17.42Q110.62 17.68 110.54 18.10L110.54 18.10L110.44 18.86L126.52 18.86Q126.86 18.86 127.12 18.64Q127.38 18.42 127.42 18.08L127.42 18.08L127.56 17.16L121.14 17.16L122.10 10.30L127.30 10.30Q127.66 10.30 127.91 10.08Q128.16 9.86 128.22 9.50L128.22 9.50L128.36 8.60L122.34 8.60L122.98 4.04L128.26 4.04Q128.70 4.04 129.03 3.75Q129.36 3.46 129.42 3.02L129.42 3.02L129.52 2.34L123.12 2.34L123.12 2.06Q123.10 1.50 122.71 1.12Q122.32 0.74 121.78 0.74L121.78 0.74L119.04 0.74L119.08 2.34L113.88 2.34Q113.44 2.34 113.11 2.62Q112.78 2.90 112.72 3.36L112.72 3.36L112.62 4.04L118.94 4.04L118.30 8.60L113.16 8.60Q112.78 8.60 112.50 8.85Q112.22 9.10 112.16 9.48L112.16 9.48L112.04 10.30L118.06 10.30L117.10 17.16ZM106.82 1.82L106.82 1.82L106.82 1.82L106.90 1.14L111.40 2.00L111.16 3.84L107.68 3.18Q107.24 3.08 107 2.70L107 2.70Q106.76 2.32 106.82 1.82ZM106.58 19.60L104.52 19.60L104.52 19.60L106.80 8.18L110.62 8.18L108.62 17.76Q108.44 18.54 107.88 19.06L107.88 19.06Q107.30 19.60 106.58 19.60L106.58 19.60ZM106.38 5.12L106.38 5.12L106.38 5.12L106.48 4.42L110.98 5.30L110.74 7.14L107.26 6.46Q106.80 6.36 106.56 6.00L106.56 6.00Q106.32 5.62 106.38 5.12ZM155.62 2.78L155.62 2.78L155.62 2.78L153.84 15.86Q153.72 16.68 153.14 17.24L153.14 17.24Q152.52 17.80 151.74 17.80L151.74 17.80L149.70 17.80L149.46 19.58L146.20 19.58L148.26 4.46Q148.34 3.92 148.72 3.58Q149.10 3.24 149.60 3.24L149.60 3.24L151.70 3.24L149.92 16.20L150.24 16.20Q150.42 16.20 150.58 16.06L150.58 16.06Q150.76 15.90 150.78 15.70L150.78 15.70L152.52 2.98Q152.54 2.78 152.42 2.64L152.42 2.64Q152.30 2.52 152.10 2.52L152.10 2.52L148.54 2.52L148.64 1.76Q148.70 1.40 148.96 1.16Q149.22 0.92 149.58 0.92L149.58 0.92L154.04 0.92Q154.82 0.92 155.28 1.46L155.28 1.46Q155.72 2.00 155.62 2.78ZM138.34 18.56L138.34 18.56L138.34 18.56Q138.28 18.26 138.38 17.90L138.38 17.90L140.46 9.68L139.38 9.68L139.46 9.02Q139.54 8.60 139.83 8.34Q140.12 8.08 140.52 8.08L140.52 8.08L141.52 8.08L142.14 3.52L140.34 3.52L140.44 2.82Q140.50 2.44 140.78 2.18Q141.06 1.92 141.44 1.92L141.44 1.92L142.36 1.92L142.42 1.58Q142.48 1.22 142.74 0.98Q143 0.74 143.34 0.74L143.34 0.74L146.34 0.74L146.18 1.92L148 1.92L147.90 2.62Q147.84 3.02 147.55 3.27Q147.26 3.52 146.88 3.52L146.88 3.52L145.96 3.52L145.34 8.08L147.26 8.08L147.18 8.74Q147.12 9.14 146.82 9.41Q146.52 9.68 146.14 9.68L146.14 9.68L143.82 9.68L141.92 17.28Q141.90 17.44 142 17.58L142 17.58Q142.10 17.72 142.28 17.68L142.28 17.68L143.20 17.52L143.80 11.52L143.80 11.52Q144.86 11.52 145.56 12.31Q146.26 13.10 146.18 14.22L146.18 14.22L145.68 19.60L142.98 19.60L143.04 19.04L139.78 19.46Q139.42 19.50 139.12 19.42L139.12 19.42Q138.82 19.32 138.62 19.10L138.62 19.10Q138.40 18.88 138.34 18.56ZM137.14 2.54L137.14 2.54L137.14 2.54L135.94 2.54L135.94 2.54L137.14 2.54ZM135.94 2.54L136.14 1.04L136.14 1.04L140.16 1.04L137.88 17.62Q137.78 18.44 137.14 19L137.14 19Q136.50 19.58 135.72 19.58L135.72 19.58L133.50 19.58L133.72 17.98L134.54 17.98Q134.74 17.98 134.90 17.84L134.90 17.84Q135.06 17.70 135.08 17.50L135.08 17.50L135.88 11.68L134.26 11.68L133.46 17.62Q133.34 18.44 132.70 19L132.70 19Q132.06 19.58 131.30 19.58L131.30 19.58L130.38 19.58L130.64 17.62L130.84 16.10L132.90 1.04L135.72 1.04L135.52 2.54L135.52 2.54L135.46 3.00L135.22 4.76L135.22 4.76L136.82 4.76L136.82 4.76L137.14 2.54L137.14 2.54L135.94 2.54ZM134.48 10.10L136.10 10.10L136.10 10.10L136.60 6.36L135 6.36L134.48 10.10ZM136.82 4.76L135.22 4.76L135.22 4.76L135.22 4.76L136.82 4.76L136.82 4.76ZM156.38 19.60L156.38 19.60L156.38 19.60L159.22 19.60Q159.80 18.94 160.41 17.92Q161.02 16.90 161.50 15.82L161.50 15.82Q161.82 15.00 161.37 14.31Q160.92 13.62 160.08 13.62L160.08 13.62L160.08 13.62Q159.04 13.62 158.58 14.76L158.58 14.76Q158.20 16.02 157.59 17.35Q156.98 18.68 156.38 19.60ZM182.96 17.34L189.30 8.20L189.30 8.20L195 17.26Q196.40 19.60 198.80 19.60L198.80 19.60L201.64 19.60L193.52 6.50L190.32 6.50L194.38 0.74L190.08 0.74Q189.50 0.74 189.12 1.24L189.12 1.24L176.38 19.60L178.58 19.60Q181.20 19.60 182.96 17.34L182.96 17.34ZM215.90 4.54L217.14 4.54L217.14 4.54Q218.26 4.54 218.95 5.32Q219.64 6.10 219.56 7.28L219.56 7.28L218.72 16.74L216.66 16.74Q215.90 16.74 215.42 16.21Q214.94 15.68 215 14.86L215 14.86L215.90 4.54ZM220.52 16.74L223.04 5.40L223.04 5.40Q223.14 5.04 223.43 4.79Q223.72 4.54 224.08 4.54L224.08 4.54L227.12 4.54L225.10 13.60Q224.78 14.96 223.71 15.85Q222.64 16.74 221.34 16.74L221.34 16.74L220.52 16.74ZM219.04 1.58L218.98 2.00L218.98 2.00L227.64 2.00L227.42 3.60L208.58 3.60L206.68 17.46Q206.56 18.36 205.86 18.98L205.86 18.98Q205.18 19.60 204.28 19.60L204.28 19.60L202.38 19.60L202.66 17.58L202.86 16.10L202.86 16.08L204.78 2.00L214.98 2.00L215.14 0.74L218.36 0.74Q218.68 0.74 218.88 0.98Q219.08 1.22 219.04 1.58L219.04 1.58ZM224.44 19.44L207.34 19.44L207.34 19.44L207.48 18.34Q207.54 18 207.80 17.77Q208.06 17.54 208.38 17.54L208.38 17.54L225.50 17.54L225.36 18.62Q225.30 18.96 225.04 19.20Q224.78 19.44 224.44 19.44L224.44 19.44ZM209.58 4.54L211.54 4.54L211.54 4.54Q212.36 4.54 212.86 5.11Q213.36 5.68 213.30 6.52L213.30 6.52L212.42 16.74L211.02 16.74Q209.96 16.74 209.31 16.01Q208.66 15.28 208.74 14.18L208.74 14.18L209.58 4.54ZM233.54 17.26L235.44 5.20L235.44 5.20L228.86 5.20L228.64 6.62Q228.58 7.00 228.84 7.28L228.84 7.28Q229.08 7.58 229.52 7.58L229.52 7.58L230.64 7.58L228.94 18.08Q228.84 18.76 229.34 19.22L229.34 19.22Q229.82 19.64 230.64 19.60L230.64 19.60L235.18 19.38L235.38 18.14Q235.40 17.88 235.22 17.70L235.22 17.70Q235.04 17.52 234.72 17.52L234.72 17.52L233.92 17.56Q233.74 17.60 233.62 17.50L233.62 17.50Q233.50 17.40 233.54 17.26L233.54 17.26ZM234.12 0.92L234.12 0.92L234.12 0.92L231.48 0.92L231.48 3.70Q231.48 3.84 231.58 3.94L231.58 3.94Q231.66 4.04 231.76 4.12L231.76 4.12Q232 4.26 232.32 4.26L232.32 4.26L235.60 4.26L235.60 2.26Q235.60 1.68 235.18 1.30L235.18 1.30Q234.80 0.92 234.12 0.92ZM242.28 6.58L242.28 6.58L242.28 6.58L244.76 3.06L252.14 3.06Q252.56 3.06 252.88 2.81Q253.20 2.56 253.26 2.16L253.26 2.16L253.36 1.48L248.20 1.48L248.30 0.74L244.56 0.74Q244.22 0.74 243.98 0.93Q243.74 1.12 243.68 1.42L243.68 1.42L243.68 1.48L239.52 1.48Q239.10 1.48 238.78 1.73Q238.46 1.98 238.40 2.38L238.40 2.38L238.28 3.06L240.52 3.06L238.12 6.52Q237.84 6.88 237.78 7.26L237.78 7.26Q237.74 7.64 237.90 7.94L237.90 7.94Q238.04 8.24 238.40 8.42L238.40 8.42Q238.76 8.60 239.28 8.56L239.28 8.56L245.24 8.08L237.90 11.54Q237.18 11.90 237.06 12.62L237.06 12.62L236.68 14.74L251.46 7.76Q252.18 7.40 252.30 6.66L252.30 6.66L252.68 4.56L248.54 6.52L242.32 6.90Q242.20 6.92 242.20 6.82L242.20 6.82Q242.18 6.72 242.28 6.58ZM251.94 8.90L236.90 16.68L236.90 16.68Q236.34 16.98 236.22 17.58L236.22 17.58L235.98 19.58L244.18 15.34L244.90 17.34Q245.84 19.32 247.90 19.32L247.90 19.32L250.52 19.32L248.38 13.18L251.04 11.80Q251.60 11.50 251.70 10.92L251.70 10.92L251.94 8.90ZM267.38 9.82L267.38 9.82L267.38 9.82Q266.82 10.34 266.16 10.34L266.16 10.34L263.98 10.34L263.04 17.42Q262.98 17.88 262.78 18.26L262.78 18.26Q262.56 18.66 262.24 18.96L262.24 18.96Q261.90 19.24 261.46 19.42L261.46 19.42Q261.04 19.62 260.60 19.62L260.60 19.62L257.84 19.62L258.02 18.30Q258.04 18.16 258.13 18.07Q258.22 17.98 258.36 17.98L258.36 17.98L258.36 17.98Q258.96 17.98 259.06 17.40L259.06 17.40L260 10.34L257.70 10.34Q257.04 10.34 256.66 9.82L256.66 9.82Q256.28 9.32 256.38 8.60L256.38 8.60L257.06 3.50L260.90 3.50L260.70 4.96L260.70 5.02L260.64 5.42L260.64 5.46L260.26 8.34Q260.24 8.54 260.36 8.70L260.36 8.70Q260.48 8.86 260.66 8.86L260.66 8.86L263.64 8.86Q263.72 8.86 263.79 8.82Q263.86 8.78 263.94 8.70L263.94 8.70Q264.08 8.54 264.10 8.34L264.10 8.34L264.54 4.96L261.16 4.96L261.36 3.50L268.72 3.50L268.04 8.60Q267.94 9.32 267.38 9.82ZM254.52 19.62L256.30 11.52L256.30 11.52Q256.36 11.28 256.54 11.13Q256.72 10.98 256.94 10.98L256.94 10.98L259.30 10.98L258.06 16.64Q257.74 17.96 256.76 18.79Q255.78 19.62 254.52 19.62L254.52 19.62L254.52 19.62ZM264.16 16.56L264.56 10.98L264.56 10.98L266.72 10.98Q267.02 10.98 267.20 11.20Q267.38 11.42 267.38 11.72L267.38 11.72L266.82 19.62L266.82 19.62Q265.66 19.62 264.88 18.73Q264.10 17.84 264.16 16.56L264.16 16.56ZM261.42 0.74L264.80 0.74L264.80 0.74Q264.98 0.74 265.10 0.88Q265.22 1.02 265.20 1.22L265.20 1.22L265.20 1.22L269.34 1.22L269.24 1.88Q269.18 2.30 268.88 2.57Q268.58 2.84 268.20 2.84L268.20 2.84L256.68 2.84L256.80 1.98Q256.86 1.64 257.09 1.43Q257.32 1.22 257.62 1.22L257.62 1.22L261.36 1.22L261.42 0.74ZM279.58 2.68L279.46 3.60L279.46 3.60Q279.42 3.84 279.25 3.99Q279.08 4.14 278.86 4.14L278.86 4.14L274.90 4.14L274.48 6.10L277.90 6.10L276.42 17.26Q276.38 17.58 276.58 17.78L276.58 17.78Q276.80 17.98 277.06 17.98L277.06 17.98L277.06 17.98Q277.26 17.98 277.38 18.13Q277.50 18.28 277.48 18.48L277.48 18.48L277.34 19.62L274.54 19.62Q273.58 19.62 273.12 19L273.12 19Q272.66 18.40 272.80 17.36L272.80 17.36L273.96 8.40L272.10 15.78Q271.64 17.50 270.35 18.56Q269.06 19.62 267.42 19.62L267.42 19.62L267.42 19.62L271.18 4.14L269.40 4.14L269.52 3.28Q269.56 3.02 269.74 2.85Q269.92 2.68 270.18 2.68L270.18 2.68L271.56 2.68L271.92 1.18Q271.98 0.98 272.13 0.86Q272.28 0.74 272.46 0.74L272.46 0.74L275.74 0.74L275.28 2.68L276.20 2.68L276.18 1.06L278.06 1.06Q278.42 1.06 278.68 1.33Q278.94 1.60 278.94 2.00L278.94 2.00L278.96 2.68L279.58 2.68ZM302.58 8.48L284.38 8.48L284.38 8.48Q283.48 8.48 282.96 7.88L282.96 7.88Q282.44 7.28 282.54 6.40L282.54 6.40L283.28 0.74L287.26 0.74L287.06 2.24L287 2.54L286.96 2.92L286.84 3.94L301.28 3.94L301.50 2.24L287.84 2.24L288.04 0.74L305.66 0.74L304.92 6.40Q304.80 7.28 304.14 7.88L304.14 7.88Q303.46 8.48 302.58 8.48L302.58 8.48ZM286.66 5.28L286.50 6.40L286.50 6.40Q286.48 6.66 286.64 6.82L286.64 6.82Q286.80 6.96 287.06 6.96L287.06 6.96L300.30 6.96Q300.58 6.96 300.74 6.82L300.74 6.82Q300.92 6.66 300.94 6.40L300.94 6.40L301.10 5.28L286.66 5.28ZM282.02 9.56L282.02 9.56L282.02 9.56Q282.26 9.32 282.60 9.32L282.60 9.32L305 9.32L304.90 10.06Q304.86 10.40 304.62 10.62L304.62 10.62Q304.38 10.86 304.06 10.86L304.06 10.86L295.76 10.86L295.44 13.16L304.18 13.16Q304.08 13.84 303.62 14.26L303.62 14.26Q303.16 14.68 302.54 14.68L302.54 14.68L295.24 14.68L294.94 17L304.50 17.92L304.04 18.60Q303.22 19.54 302.02 19.46L302.02 19.46L284.74 18Q284.14 19.60 282.70 19.60L282.70 19.60L280.40 19.60L282.44 11.70L286.36 11.70L285.18 16.16L291.02 16.68L291.78 10.86L281.64 10.86L281.74 10.12Q281.78 9.78 282.02 9.56ZM320.44 1.44L320.38 1.86L320.38 1.86L331.66 1.86L329.50 17.32Q329.36 18.26 328.62 18.92L328.62 18.92Q327.88 19.58 326.96 19.58L326.96 19.58L308.30 19.58Q307.38 19.58 306.84 18.92L306.84 18.92Q306.32 18.26 306.44 17.32L306.44 17.32L308.58 1.86L312.70 1.86L312.06 6.40L326.90 6.40L327.26 3.82L313.32 3.82L313.60 1.86L316.46 1.86L316.60 0.76L319.88 0.76Q320.16 0.76 320.32 0.96Q320.48 1.16 320.44 1.44L320.44 1.44ZM325.50 16.60L325.50 16.60L325.50 16.60L325.84 14.16L310.98 14.16L310.66 16.60Q310.58 17.02 310.82 17.30L310.82 17.30Q311.04 17.60 311.44 17.60L311.44 17.60L324.36 17.60Q324.78 17.60 325.10 17.30L325.10 17.30Q325.42 17.02 325.50 16.60ZM311.32 11.80L326.16 11.80L326.16 11.80L326.58 8.72L311.74 8.72L311.32 11.80ZM353.34 17.34L338.20 17.34L338.20 17.34Q337.80 17.34 337.56 17.04L337.56 17.04Q337.32 16.76 337.38 16.34L337.38 16.34L338.50 8.18L333.82 8.18L332.58 17.34Q332.46 18.30 333 18.96L333 18.96Q333.54 19.60 334.42 19.60L334.42 19.60L355.76 19.60L355.68 19Q354.92 17.34 353.34 17.34L353.34 17.34ZM338.76 10.74L354.02 10.74L354.02 10.74Q354.90 10.74 355.62 10.08L355.62 10.08Q356.34 9.44 356.46 8.48L356.46 8.48L357.50 0.74L334.60 0.74L334.46 1.84Q334.40 2.42 334.77 2.83Q335.14 3.24 335.70 3.24L335.70 3.24L353.10 3.24L352.58 7.18Q352.52 7.60 352.20 7.88L352.20 7.88Q351.90 8.18 351.48 8.18L351.48 8.18L339.14 8.18L338.76 10.74ZM368.28 16.82L367.94 19.60L367.94 19.60L371.34 19.60Q371.56 19.60 371.74 19.44Q371.92 19.28 371.96 19.04L371.96 19.04L372.24 16.82L375.06 16.82Q375.44 16.82 375.74 16.54Q376.04 16.26 376.10 15.86L376.10 15.86L376.22 15.04L372.48 15.04L373.86 4.60L382.52 4.60Q382.88 4.60 383.16 4.34Q383.44 4.08 383.50 3.70L383.50 3.70L383.66 2.60L374.12 2.60L374.38 0.76L371.36 0.76Q370.98 0.76 370.67 1.04Q370.36 1.32 370.30 1.74L370.30 1.74L370.18 2.60L361.56 2.60Q361.18 2.60 360.89 2.88Q360.60 3.16 360.54 3.56L360.54 3.56L360.40 4.60L369.92 4.60L368.54 15.04L365.54 15.04Q365.22 15.04 364.98 15.27Q364.74 15.50 364.68 15.84L364.68 15.84L364.52 16.82L368.28 16.82ZM363.08 6.16L358.40 19.60L358.40 19.60L358.78 19.60Q360.32 19.60 361.67 18.59Q363.02 17.58 363.58 15.96L363.58 15.96L367.34 5.38L364.46 5.38Q364 5.38 363.62 5.54Q363.24 5.70 363.08 6.16L363.08 6.16ZM376.24 5.38L377.20 16.22L377.20 16.22Q377.34 17.72 378.33 18.66Q379.32 19.60 380.76 19.60L380.76 19.60L381.40 19.60L380.22 5.82Q380.20 5.62 380.07 5.50Q379.94 5.38 379.76 5.38L379.76 5.38L376.24 5.38ZM409.16 3.34L408.08 11.14L408.08 11.14L409.58 10.70L409.26 13.06L407.76 13.50L407.14 17.86Q407.04 18.56 406.48 19.06L406.48 19.06Q405.90 19.58 405.20 19.58L405.20 19.58L399 19.58L399.04 19.28Q399.14 18.72 399.57 18.33Q400 17.94 400.56 17.94L400.56 17.94L402.44 17.94Q402.68 17.94 402.86 17.78L402.86 17.78Q403.06 17.60 403.08 17.34L403.08 17.34L403.46 14.70L384.46 19.50L384.52 19.08Q384.64 18.20 385.23 17.55Q385.82 16.90 386.68 16.66L386.68 16.66L398.04 13.74L385.26 13.74L385.44 12.44Q385.48 12.22 385.64 12.07Q385.80 11.92 386.02 11.92L386.02 11.92L386.76 11.92L387.96 3.34Q388.08 2.52 388.72 1.94L388.72 1.94Q389.38 1.34 390.18 1.34L390.18 1.34L392.36 1.34L392.06 3.46L392.04 3.70L392.04 3.74L391.94 4.44L404.88 4.44L405 3.46Q405.04 3.28 404.92 3.12L404.92 3.12Q404.82 2.98 404.62 2.98L404.62 2.98L392.68 2.98L392.90 1.34L393.98 1.34L394.06 0.80L397.44 0.80Q397.70 0.80 397.87 0.93Q398.04 1.06 398 1.34L398 1.34L407.50 1.34Q408.30 1.34 408.78 1.94L408.78 1.94Q409.28 2.52 409.16 3.34L409.16 3.34ZM390.90 11.92L403.84 11.92L403.84 11.92L404.06 10.28L391.12 10.28L390.90 11.92ZM391.40 8.28L404.34 8.28L404.34 8.28L404.60 6.44L391.66 6.44L391.40 8.28ZM410.40 19.60L410.40 19.60L410.40 19.60L413.24 19.60Q413.82 18.94 414.43 17.92Q415.04 16.90 415.52 15.82L415.52 15.82Q415.84 15.00 415.39 14.31Q414.94 13.62 414.10 13.62L414.10 13.62L414.10 13.62Q413.06 13.62 412.60 14.76L412.60 14.76Q412.22 16.02 411.61 17.35Q411 18.68 410.40 19.60ZM452.58 8.48L434.38 8.48L434.38 8.48Q433.48 8.48 432.96 7.88L432.96 7.88Q432.44 7.28 432.54 6.40L432.54 6.40L433.28 0.74L437.26 0.74L437.06 2.24L437 2.54L436.96 2.92L436.84 3.94L451.28 3.94L451.50 2.24L437.84 2.24L438.04 0.74L455.66 0.74L454.92 6.40Q454.80 7.28 454.14 7.88L454.14 7.88Q453.46 8.48 452.58 8.48L452.58 8.48ZM436.66 5.28L436.50 6.40L436.50 6.40Q436.48 6.66 436.64 6.82L436.64 6.82Q436.80 6.96 437.06 6.96L437.06 6.96L450.30 6.96Q450.58 6.96 450.74 6.82L450.74 6.82Q450.92 6.66 450.94 6.40L450.94 6.40L451.10 5.28L436.66 5.28ZM432.02 9.56L432.02 9.56L432.02 9.56Q432.26 9.32 432.60 9.32L432.60 9.32L455 9.32L454.90 10.06Q454.86 10.40 454.62 10.62L454.62 10.62Q454.38 10.86 454.06 10.86L454.06 10.86L445.76 10.86L445.44 13.16L454.18 13.16Q454.08 13.84 453.62 14.26L453.62 14.26Q453.16 14.68 452.54 14.68L452.54 14.68L445.24 14.68L444.94 17L454.50 17.92L454.04 18.60Q453.22 19.54 452.02 19.46L452.02 19.46L434.74 18Q434.14 19.60 432.70 19.60L432.70 19.60L430.40 19.60L432.44 11.70L436.36 11.70L435.18 16.16L441.02 16.68L441.78 10.86L431.64 10.86L431.74 10.12Q431.78 9.78 432.02 9.56ZM458.62 10.56L457.36 19.58L457.36 19.58L461.50 19.58L462.90 9.60L461.74 9.60L464.10 5.62L459.66 5.62L456.60 10.56L458.62 10.56ZM460.34 0.80L457.36 5.24L457.36 5.24L460.08 5.24Q461.68 5.24 462.84 3.70L462.84 3.70L464.78 0.80L460.34 0.80ZM481.02 6.50L466.42 6.50L466.42 6.50Q465.98 6.50 465.65 6.80Q465.32 7.10 465.24 7.54L465.24 7.54L465.10 8.56L472.28 8.56L471.12 16.90Q471.06 17.32 470.74 17.60L470.74 17.60Q470.42 17.88 470 17.88L470 17.88L467.78 17.88Q467.34 17.88 467 18.18Q466.66 18.48 466.58 18.92L466.58 18.92L466.52 19.46L472.72 19.46Q473.62 19.46 474.34 18.80L474.34 18.80Q475.08 18.16 475.20 17.26L475.20 17.26L476.42 8.56L479.86 8.56Q480.22 8.56 480.51 8.31Q480.80 8.06 480.86 7.70L480.86 7.70L481.02 6.50ZM481.54 0.94L467.22 0.94L467.22 0.94Q466.88 0.94 466.62 1.17Q466.36 1.40 466.30 1.74L466.30 1.74L466.14 2.84L480.40 2.84Q480.76 2.84 481.05 2.59Q481.34 2.34 481.40 1.98L481.40 1.98L481.54 0.94ZM487.22 16.46L488.94 10.64L488.94 10.64L485.40 10.64L482.42 19.42L485.26 19.42Q485.76 19.42 486.15 19.11Q486.54 18.80 486.68 18.30L486.68 18.30L486.68 18.30L505.08 19.60Q505.88 19.62 506.60 19.10Q507.32 18.58 507.68 17.84L507.68 17.84L507.68 17.84L497.54 17.08L497.80 13.98L502.98 13.98Q504.24 13.98 504.86 12.68L504.86 12.68L505.06 12.10L497.92 12.10L498.16 9.46L494.14 9.46Q493.88 9.46 493.70 9.63Q493.52 9.80 493.48 10.06L493.48 10.06L492.76 16.82L487.22 16.46ZM493.68 6.86L485.92 6.86L485.92 6.86Q485.26 6.86 484.76 7.51Q484.26 8.16 484.14 8.88L484.14 8.88L483.84 8.88L505.10 8.88Q506.00 8.88 506.55 8.23Q507.10 7.58 507.20 6.86L507.20 6.86L507.20 6.86L498.30 6.86L498.64 3.64L505.62 3.64Q506.28 3.64 506.78 2.99Q507.28 2.34 507.40 1.62L507.40 1.62L507.40 1.62L498.84 1.62L498.98 0.74L495.10 0.74Q494.70 0.74 494.42 0.99Q494.14 1.24 494.08 1.62L494.08 1.62L494.08 1.62L487.18 1.62Q486.50 1.62 486.00 2.28Q485.50 2.94 485.40 3.64L485.40 3.64L485.40 3.64L494.02 3.64L493.68 6.86ZM508.42 10.84L510.32 10.84L510.32 10.84L509.08 19.58L512.70 19.58Q512.94 19.58 513.13 19.42Q513.32 19.26 513.36 19.02L513.36 19.02L514.78 9.00L513.94 9.00L516.50 3.46L531.86 3.46Q532.48 3.46 533 2.94L533 2.94Q533.52 2.42 533.62 1.78L533.62 1.78L533.68 1.62L517.58 1.62L518.08 0.74L514.18 0.74Q513.70 0.74 513.40 1.16L513.40 1.16L513.14 1.62L510.86 1.62Q510.48 1.62 510.16 1.98L510.16 1.98Q509.82 2.34 509.76 2.72L509.76 2.72L509.64 3.46L512.06 3.46L508.42 10.84ZM522.14 9.72L520.98 17.76L520.98 17.76L516 17.76Q515.46 17.76 515.08 18.08L515.08 18.08Q514.70 18.42 514.62 18.94L514.62 18.94L514.56 19.60L530.16 19.60Q530.60 19.60 530.90 19.20L530.90 19.20Q531.22 18.82 531.30 18.38L531.30 18.38L531.38 17.76L525.18 17.76L526.36 9.72L530.82 9.72Q531.40 9.72 531.84 9.34L531.84 9.34Q532.28 8.96 532.38 8.38L532.38 8.38L532.46 7.88L526.62 7.88L527.10 4.46L524.82 4.46Q524 4.46 523.38 5.00L523.38 5.00Q522.76 5.54 522.62 6.36L522.62 6.36L522.42 7.88L517.62 7.88Q517.16 7.88 516.84 8.16L516.84 8.16Q516.50 8.46 516.44 8.90L516.44 8.90L516.32 9.72L522.14 9.72ZM542.86 5.96L534.42 19.56L534.42 19.56L537.42 19.56Q539.68 19.56 541.14 17.48L541.14 17.48L548.26 5.96L557.86 5.96Q558.68 5.96 559.08 5.06L559.08 5.06L559.68 3.26L549.94 3.26L551.52 0.74L546.62 0.74Q546.14 0.74 545.84 1.18L545.84 1.18L544.54 3.26L538 3.26Q536.92 3.26 536.40 4.46L536.40 4.46L535.90 5.96L542.86 5.96ZM548.14 6.64L553.84 18.16L553.84 18.16Q554.68 19.60 556.12 19.60L556.12 19.60L559.10 19.60L552.84 6.98Q552.64 6.64 552.30 6.64L552.30 6.64L548.14 6.64ZM564.22 3.74L563.34 3.74L563.34 3.74Q563.06 3.74 562.85 3.93Q562.64 4.12 562.60 4.42L562.60 4.42L562.44 5.82L563.96 5.82L562.42 17.22L561.20 17.34Q561.06 17.36 560.95 17.46Q560.84 17.56 560.82 17.72L560.82 17.72L560.58 19.56L567.34 18.96Q567.50 18.94 567.62 18.83Q567.74 18.72 567.76 18.54L567.76 18.54L568 16.70L566.42 16.86L567.92 5.82L569.38 5.82L569.64 3.74L568.18 3.74L568.56 0.80L565.54 0.80Q565.14 0.80 564.85 1.07Q564.56 1.34 564.48 1.76L564.48 1.76L564.22 3.74ZM571.24 3.66L570.26 3.78L570.26 3.78L569.98 5.96L570.94 5.84L569.44 17.14Q569.30 18.16 569.86 18.88L569.86 18.88Q570.42 19.58 571.40 19.58L571.40 19.58L583.56 19.58L583.74 18.28Q583.78 17.86 583.54 17.57Q583.30 17.28 582.92 17.28L582.92 17.28L574.20 17.28Q573.82 17.28 573.60 17L573.60 17Q573.36 16.72 573.42 16.30L573.42 16.30L574.90 5.30L576.34 5.10L574.84 16.26L577.58 16.26Q578.06 16.26 578.42 15.93Q578.78 15.60 578.86 15.08L578.86 15.08L580.28 4.56L581.24 4.42Q581.38 4.40 581.48 4.44L581.48 4.44Q581.58 4.48 581.56 4.64L581.56 4.64L580 16.26L582.20 16.26Q582.86 16.26 583.36 15.81Q583.86 15.36 583.96 14.64L583.96 14.64L585.46 3.52Q585.50 3.16 585.38 2.84L585.38 2.84Q585.24 2.54 584.98 2.32L584.98 2.32Q584.74 2.10 584.42 2.00L584.42 2.00Q584.08 1.90 583.76 1.96L583.76 1.96L580.56 2.40L580.76 0.88L577.60 0.88Q577.30 0.88 577.08 1.09Q576.86 1.30 576.80 1.62L576.80 1.62L576.64 2.94L575.18 3.12L575.46 1L572.30 1Q571.98 1 571.76 1.21Q571.54 1.42 571.48 1.74L571.48 1.74L571.24 3.66ZM594.86 17.48L587.56 17.48L587.56 17.48Q587.28 17.48 587.07 17.67Q586.86 17.86 586.82 18.16L586.82 18.16L586.64 19.62L608.96 19.62Q609.32 19.62 609.58 19.38Q609.84 19.14 609.88 18.78L609.88 18.78L610.04 17.48L599.26 17.48L600.64 7.34L609.10 7.34Q609.88 7.34 610.47 6.82Q611.06 6.30 611.18 5.50L611.18 5.50L611.22 5.20L600.92 5.20L601.42 1.64Q601.46 1.30 601.24 1.04Q601.02 0.78 600.68 0.78L600.68 0.78L597.14 0.78L594.86 17.48ZM618.30 18.06L618.30 18.06L618.30 18.06L620.96 16.50Q619.96 14.60 618.42 13.04L618.42 13.04Q617.74 12.44 616.84 12.94L616.84 12.94L616.82 12.94Q616.24 13.30 616.10 13.89Q615.96 14.48 616.32 14.96L616.32 14.96Q617.56 16.48 618.30 18.06ZM645.84 19.60L644.56 19.60L644.56 19.60L647.96 5.24L651.78 5.24L649 17.06Q648.70 18.20 647.83 18.90Q646.96 19.60 645.84 19.60L645.84 19.60ZM657.68 16.14L658.10 5.24L658.10 5.24L661.92 5.24L661.38 19.60L660.94 19.60Q659.56 19.60 658.62 18.60Q657.68 17.60 657.68 16.14L657.68 16.14ZM654.74 0.74L657.64 0.74L657.64 0.74L657.40 2.50L663.70 2.50L663.58 3.28Q663.52 3.70 663.22 3.98Q662.92 4.26 662.50 4.26L662.50 4.26L657.16 4.26L655.04 19.60L650.98 19.60L653.10 4.26L646.68 4.26L646.78 3.46Q646.86 3.04 647.16 2.77Q647.46 2.50 647.88 2.50L647.88 2.50L653.34 2.50L653.40 1.92Q653.50 1.40 653.87 1.07Q654.24 0.74 654.74 0.74L654.74 0.74ZM640.88 1.50L640.88 1.50L640.88 1.50L640.96 0.80L645.44 1.68L645.20 3.56L641.74 2.88Q641.30 2.78 641.06 2.40L641.06 2.40Q640.82 2.02 640.88 1.50ZM640.46 4.86L640.46 4.86L640.46 4.86L640.56 4.16L645.02 5.04L644.78 6.92L641.32 6.24Q640.86 6.14 640.64 5.76L640.64 5.76Q640.40 5.38 640.46 4.86ZM640.66 19.60L638.44 19.60L638.44 19.60L640.70 7.96L644.68 7.96L642.68 17.74Q642.50 18.54 641.94 19.06L641.94 19.06Q641.36 19.60 640.66 19.60L640.66 19.60ZM666.76 19.60L664.44 19.60L664.44 19.60L666.82 7.92L670.96 7.92L668.88 17.74Q668.70 18.54 668.10 19.06L668.10 19.06Q667.50 19.60 666.76 19.60L666.76 19.60ZM688.66 0.84L689.70 4.42L689.70 4.42L687.22 4.42Q685.78 4.42 685.16 2.90L685.16 2.90L684.56 0.84L688.66 0.84ZM674.86 0.84L678.94 0.84L678.94 0.84L677.40 3.40Q676.68 4.42 675.56 4.42L675.56 4.42L672.70 4.42L674.86 0.84ZM667 1.46L667 1.46L667 1.46L667.08 0.74L671.76 1.64L671.52 3.52L667.88 2.84Q667.44 2.72 667.18 2.34L667.18 2.34Q666.94 1.96 667 1.46ZM666.54 4.82L666.54 4.82L666.54 4.82L666.66 4.10L671.34 5.00L671.08 6.88L667.46 6.20Q666.98 6.10 666.74 5.72L666.74 5.72Q666.48 5.34 666.54 4.82ZM677.64 7.22L677.64 7.22L677.64 7.22L676.10 10L671.76 10L673.78 6.36Q674.08 5.80 674.56 5.44L674.56 5.44Q675.04 5.08 675.64 5.08L675.64 5.08L686.56 5.08Q687.16 5.08 687.54 5.44L687.54 5.44Q687.92 5.80 688.08 6.36L688.08 6.36L689.04 10L684.74 10L683.94 7.22Q683.82 6.68 683.28 6.68L683.28 6.68L678.44 6.68Q678.18 6.68 677.98 6.84L677.98 6.84Q677.78 7.00 677.64 7.22ZM684.04 12.34L676.44 12.34L676.44 12.34L676.64 10.90L688.50 10.90L687.60 17.14Q687.46 18.18 686.62 18.88L686.62 18.88Q685.80 19.60 684.76 19.60L684.76 19.60L673.20 19.60Q672.16 19.60 671.54 18.88L671.54 18.88Q670.92 18.18 671.06 17.14L671.06 17.14L671.96 10.90L676.20 10.90L676 12.34L675.92 12.84L675.26 17.48Q675.22 17.76 675.42 17.92L675.42 17.92Q675.62 18.10 675.90 18.10L675.90 18.10L682.60 18.10Q682.84 18.10 683.06 17.92L683.06 17.92Q683.28 17.72 683.32 17.48L683.32 17.48L684.04 12.34ZM715.80 1.70L715.64 2.86L715.64 2.86Q715.62 3.08 715.47 3.21Q715.32 3.34 715.10 3.34L715.10 3.34L700.72 3.34L699.98 4.44L715.16 4.44L715 5.58Q714.98 5.80 714.82 5.94Q714.66 6.08 714.46 6.08L714.46 6.08L698.96 6.08L698.26 7.10L715.38 7.10L715.24 8.08Q715.20 8.32 715.02 8.47Q714.84 8.62 714.60 8.62L714.60 8.62L697.22 8.62L696.50 9.72L697.16 9.72L696.64 12.64L709.90 12.64L710.06 11.36L697.52 11.36L697.78 9.72L714.42 9.72L713.32 17.36Q713.18 18.30 712.46 18.96L712.46 18.96Q711.72 19.56 710.82 19.56L710.82 19.56L693.64 19.56Q692.74 19.56 692.20 18.92L692.20 18.92Q691.66 18.30 691.78 17.38L691.78 17.38L692.52 12.28L690.46 12.28L692.86 8.62L691.16 8.62L691.32 7.48Q691.34 7.32 691.46 7.22Q691.58 7.12 691.76 7.12L691.76 7.12L693.90 7.12L694.62 6.08L692.12 6.08L692.28 4.88Q692.30 4.68 692.44 4.56Q692.58 4.44 692.78 4.44L692.78 4.44L695.64 4.44L696.38 3.34L691.98 3.34L692.12 2.18Q692.16 2.00 692.30 1.85Q692.44 1.70 692.62 1.70L692.62 1.70L694.42 1.70L694.18 0.80L697.74 0.80Q698.26 0.80 698.46 1.34L698.46 1.34L698.58 1.70L709.44 1.70L709.78 1.10Q709.98 0.80 710.32 0.80L710.32 0.80L714.06 0.80L713.54 1.70L715.80 1.70ZM709.24 17.04L709.24 17.04L709.24 17.04L709.30 16.46L696.04 16.46L695.96 17.02Q695.96 17.12 695.96 17.24L695.96 17.24Q695.96 17.56 696.16 17.78L696.16 17.78Q696.40 18.10 696.80 18.10L696.80 18.10L708.12 18.10Q708.54 18.10 708.86 17.78L708.86 17.78Q709.18 17.48 709.24 17.04ZM709.52 15.18L709.72 13.92L709.72 13.92L696.46 13.92L696.26 15.18L709.52 15.18ZM720.10 3.32L720.10 3.32L720.10 3.32L722.26 3.32L720.00 19.60L716.32 19.60L718.38 4.92Q718.50 4.22 718.98 3.78L718.98 3.78Q719.46 3.32 720.10 3.32ZM719.06 0.98L719.06 0.98L719.06 0.98Q719.26 0.76 719.54 0.76L719.54 0.76L727.94 0.76L727.68 2.50L726.14 7.46L727.00 7.46L725.72 16.82Q725.60 17.94 725.14 18.40L725.14 18.40Q724.68 18.80 723.62 18.80L723.62 18.80L721.46 18.80L722.98 7.46L722.12 7.46L723.68 2.52L722.64 2.52L722.62 2.52L722.32 2.52L718.64 2.52L718.80 1.46Q718.86 1.16 719.06 0.98ZM734.48 2.52L734.72 0.76L734.72 0.76L741.76 0.76L739.68 16.90Q739.56 17.84 738.90 18.48L738.90 18.48Q738.26 19.12 737.40 19.12L737.40 19.12L729.76 19.12Q728.92 19.12 728.36 18.48L728.36 18.48Q727.82 17.84 727.92 16.90L727.92 16.90L730.02 0.76L733.98 0.76L732.96 8.58L736.92 8.58L737.72 2.52L734.48 2.52ZM735.94 16.18L735.94 16.18L735.94 16.18L736.68 10.50L732.72 10.50L731.98 16.18Q731.92 16.62 732.14 16.92L732.14 16.92Q732.34 17.20 732.74 17.20L732.74 17.20L734.92 17.20Q735.30 17.20 735.60 16.90L735.60 16.90Q735.88 16.62 735.94 16.18ZM746.92 11.18L742.60 19.58L742.60 19.58L745.10 19.58Q746.88 19.58 748.02 17.72L748.02 17.72L751.34 11.18L758.94 11.18L758.06 17.40Q757.94 18.30 758.48 18.94L758.48 18.94Q759.02 19.58 759.96 19.58L759.96 19.58L766.14 19.58L766.38 18.36Q766.42 17.92 766.17 17.63Q765.92 17.34 765.50 17.34L765.50 17.34L763.64 17.34Q763.22 17.34 762.98 17.06L762.98 17.06Q762.74 16.78 762.80 16.36L762.80 16.36L763.46 11.18L766.14 11.18Q766.54 11.18 766.86 10.91Q767.18 10.64 767.24 10.22L767.24 10.22L767.44 8.92L757.68 8.92L758.82 0.78L755.06 0.78Q754.74 0.78 754.50 0.99Q754.26 1.20 754.20 1.52L754.20 1.52L753.16 8.92L744.46 8.92Q744.04 8.92 743.70 9.21Q743.36 9.50 743.30 9.94L743.30 9.94L743.12 11.18L746.92 11.18ZM749.86 7.86L749.64 2.62L749.64 2.62Q749.60 2.10 749.24 1.77Q748.88 1.44 748.34 1.44L748.34 1.44L745.40 1.44L745.68 7.50Q745.68 7.66 745.79 7.76Q745.90 7.86 746.04 7.86L746.04 7.86L749.86 7.86ZM766.20 5.66L767.56 1.44L767.56 1.44L763.84 1.44Q763.62 1.44 763.45 1.57Q763.28 1.70 763.20 1.90L763.20 1.90L761.26 7.86L763.22 7.86Q764.20 7.86 765.03 7.25Q765.86 6.64 766.20 5.66L766.20 5.66ZM773.56 1.38L773.56 1.38L773.56 1.38L773.50 1.66L770.52 1.66L768.52 17.14Q768.44 17.64 768.56 18.08L768.56 18.08Q768.66 18.54 768.94 18.88L768.94 18.88Q769.18 19.20 769.56 19.40L769.56 19.40Q769.94 19.60 770.38 19.60L770.38 19.60L777.16 19.60Q777.60 19.60 778.04 19.40L778.04 19.40Q778.46 19.20 778.82 18.88L778.82 18.88Q779.18 18.54 779.40 18.08L779.40 18.08Q779.64 17.62 779.70 17.14L779.70 17.14L781.70 1.66L778.26 1.66L778.40 0.74L774.22 0.74Q773.98 0.74 773.78 0.92L773.78 0.92Q773.60 1.10 773.56 1.38ZM776.86 10.74L775.98 17.56L775.98 17.56Q775.94 17.74 775.78 17.90L775.78 17.90Q775.64 18.04 775.44 18.04L775.44 18.04L772.28 18.04Q772.10 18.04 772.00 17.90L772.00 17.90Q771.86 17.74 771.88 17.56L771.88 17.56L772.78 10.74L776.86 10.74ZM777.86 3.14L777.06 9.16L777.06 9.16L772.98 9.16L773.80 3.14L777.86 3.14ZM793.18 1.58L793.18 1.58L793.18 1.58L786.62 1.58L786.94 0.74L783.84 0.74Q783.32 0.74 783.02 1.34L783.02 1.34L781.66 5.08L783.48 5.08Q785.12 5.08 786.02 3.34L786.02 3.34L789.56 3.34L787.74 17.30Q787.70 17.58 787.46 17.80L787.46 17.80Q787.24 18.02 786.96 18.02L786.96 18.02L784.74 18.02Q784.34 18.02 784.02 18.30L784.02 18.30Q783.72 18.60 783.66 19.04L783.66 19.04L783.58 19.60L789.34 19.60Q790.22 19.60 790.92 19.06L790.92 19.06Q791.64 18.52 791.78 17.44L791.78 17.44L793.74 2.26Q793.76 1.98 793.60 1.78L793.60 1.78Q793.46 1.58 793.18 1.58ZM783.52 11.14L786.96 12.98L786.96 12.98L787.74 10.54L783.22 7.98L782.78 8.76Q782.46 9.44 782.67 10.11Q782.88 10.78 783.52 11.14L783.52 11.14ZM818.96 8.20L796.54 8.20L796.54 8.20Q796.34 8.20 796.18 8.36L796.18 8.36Q796.02 8.50 796.00 8.72L796.00 8.72L795.82 10.06L796.50 10.06L795.52 17.24L795.22 17.26Q795.06 17.26 794.94 17.38L794.94 17.38Q794.80 17.50 794.76 17.68L794.76 17.68L794.60 18.90L802.42 18.44L802.26 19.64L805.88 19.64L806.06 18.26L806.28 18.24Q806.50 18.24 806.64 18.08L806.64 18.08Q806.80 17.94 806.84 17.70L806.84 17.70L806.98 16.60L806.26 16.66L807.18 10.06L818.16 10.06Q818.40 10.06 818.58 9.88L818.58 9.88Q818.76 9.72 818.80 9.46L818.80 9.46L818.96 8.20ZM798.74 7.74L798.74 7.74L798.74 7.74L816.26 7.74Q817.12 7.74 817.84 7.12L817.84 7.12Q818.56 6.48 818.68 5.56L818.68 5.56L819.38 0.74L802.16 0.74L801.96 2.22L815.56 2.22L815.40 3.42L801.04 3.42L801.40 0.74L797.66 0.74L797.00 5.58Q796.86 6.48 797.40 7.12L797.40 7.12Q797.90 7.74 798.74 7.74ZM802.84 15.28L802.64 16.82L802.64 16.82L799.22 16.98L799.44 15.28L802.84 15.28ZM803.20 12.74L803.02 14.18L803.02 14.18L799.60 14.18L799.74 12.74L803.20 12.74ZM803.50 10.10L803.30 11.64L803.30 11.64L799.88 11.64L800.10 10.10L803.50 10.10ZM800.78 5.42L800.88 4.72L800.88 4.72L815.20 4.72L815.10 5.42Q815.08 5.58 815.02 5.76L815.02 5.76Q814.96 5.92 814.84 6.02L814.84 6.02Q814.54 6.24 814.28 6.24L814.28 6.24L801.30 6.24Q801.02 6.24 800.88 6.04L800.88 6.04Q800.80 5.94 800.78 5.76L800.78 5.76Q800.76 5.58 800.78 5.42L800.78 5.42ZM807.92 11.24L807.78 12.32L807.78 12.32L814.58 12.32L812.60 14.22L811.92 13.42Q811.68 13.12 811.34 13.12L811.34 13.12L807.84 13.12L810.42 16.02L806.68 19.66L810.26 19.66Q810.80 19.66 811.28 19.22L811.28 19.22L812.42 18.20L813.46 19.32Q813.70 19.64 814.06 19.64L814.06 19.64L818.06 19.64L814.62 16.10L818.30 12.42L818.50 10.80L808.40 10.80Q808.24 10.80 808.10 10.94L808.10 10.94Q807.96 11.06 807.92 11.24L807.92 11.24ZM830.36 16.82L830.02 19.60L830.02 19.60L833.42 19.60Q833.64 19.60 833.82 19.44Q834.00 19.28 834.04 19.04L834.04 19.04L834.32 16.82L837.14 16.82Q837.52 16.82 837.82 16.54Q838.12 16.26 838.18 15.86L838.18 15.86L838.30 15.04L834.56 15.04L835.94 4.60L844.60 4.60Q844.96 4.60 845.24 4.34Q845.52 4.08 845.58 3.70L845.58 3.70L845.74 2.60L836.20 2.60L836.46 0.76L833.44 0.76Q833.06 0.76 832.75 1.04Q832.44 1.32 832.38 1.74L832.38 1.74L832.26 2.60L823.64 2.60Q823.26 2.60 822.97 2.88Q822.68 3.16 822.62 3.56L822.62 3.56L822.48 4.60L832.00 4.60L830.62 15.04L827.62 15.04Q827.30 15.04 827.06 15.27Q826.82 15.50 826.76 15.84L826.76 15.84L826.60 16.82L830.36 16.82ZM825.16 6.16L820.48 19.60L820.48 19.60L820.86 19.60Q822.40 19.60 823.75 18.59Q825.10 17.58 825.66 15.96L825.66 15.96L829.42 5.38L826.54 5.38Q826.08 5.38 825.70 5.54Q825.32 5.70 825.16 6.16L825.16 6.16ZM838.32 5.38L839.28 16.22L839.28 16.22Q839.42 17.72 840.41 18.66Q841.40 19.60 842.84 19.60L842.84 19.60L843.48 19.60L842.30 5.82Q842.28 5.62 842.15 5.50Q842.02 5.38 841.84 5.38L841.84 5.38L838.32 5.38ZM862.88 13.94L861.66 15.06L861.66 15.06L864.04 15.06L869.04 19.52L866.56 19.52Q864.66 19.52 863.04 18.26L863.04 18.26L860.48 16.14L857.20 18.62Q855.96 19.52 854.52 19.52L854.52 19.52L851.74 19.52L858.92 13.32L859.42 9.66Q859.44 9.42 859.61 9.26Q859.78 9.10 860.00 9.10L860.00 9.10L863.52 9.10L862.88 13.94ZM853.84 0.70L871.52 0.70L871.52 0.70Q871.42 1.42 870.92 1.88Q870.42 2.34 869.74 2.34L869.74 2.34L853.62 2.34L853.84 0.70ZM853.18 0.70L852.96 2.34L852.96 2.34L852.88 2.94L850.98 17.34Q850.86 18.26 850.16 18.94L850.16 18.94Q849.44 19.60 848.54 19.60L848.54 19.60L846.64 19.60L846.94 17.46L847.06 16.42L849.06 1.38Q849.10 1.08 849.31 0.89Q849.52 0.70 849.78 0.70L849.78 0.70L853.18 0.70ZM861.52 2.80L864.64 2.80L864.64 2.80L864.48 3.90L871.20 3.90L871.12 4.44Q871.06 4.90 870.75 5.19Q870.44 5.48 870.02 5.48L870.02 5.48L864.28 5.48L864.12 6.60L868.58 6.60Q869.46 6.60 870.00 7.28L870.00 7.28Q870.52 7.94 870.40 8.88L870.40 8.88L869.52 15.46L865.60 15.46L866.44 9.00Q866.48 8.70 866.30 8.48L866.30 8.48Q866.12 8.24 865.84 8.24L865.84 8.24L858.00 8.24Q858.00 8.24 858.00 8.24L858.00 8.24Q858.00 8.24 858.00 8.24L858.00 8.24L858.20 6.60L860.12 6.60L860.28 5.48L853.58 5.48L853.66 4.94Q853.72 4.48 854.04 4.19Q854.36 3.90 854.76 3.90L854.76 3.90L860.48 3.90L860.50 3.76Q860.56 3.34 860.85 3.07Q861.14 2.80 861.52 2.80L861.52 2.80ZM855.68 6.60L857.50 6.60L857.50 6.60L856.34 15.46L852.38 15.46L853.26 8.88Q853.38 7.94 854.08 7.28L854.08 7.28Q854.78 6.60 855.68 6.60L855.68 6.60ZM877.56 1.38L877.56 1.38L877.56 1.38L877.50 1.66L874.52 1.66L872.52 17.14Q872.44 17.64 872.56 18.08L872.56 18.08Q872.66 18.54 872.94 18.88L872.94 18.88Q873.18 19.20 873.56 19.40L873.56 19.40Q873.94 19.60 874.38 19.60L874.38 19.60L881.16 19.60Q881.60 19.60 882.04 19.40L882.04 19.40Q882.46 19.20 882.82 18.88L882.82 18.88Q883.18 18.54 883.40 18.08L883.40 18.08Q883.64 17.62 883.70 17.14L883.70 17.14L885.70 1.66L882.26 1.66L882.40 0.74L878.22 0.74Q877.98 0.74 877.78 0.92L877.78 0.92Q877.60 1.10 877.56 1.38ZM880.86 10.74L879.98 17.56L879.98 17.56Q879.94 17.74 879.78 17.90L879.78 17.90Q879.64 18.04 879.44 18.04L879.44 18.04L876.28 18.04Q876.10 18.04 876.00 17.90L876.00 17.90Q875.86 17.74 875.88 17.56L875.88 17.56L876.78 10.74L880.86 10.74ZM881.86 3.14L881.06 9.16L881.06 9.16L876.98 9.16L877.80 3.14L881.86 3.14ZM897.18 1.58L897.18 1.58L897.18 1.58L890.62 1.58L890.94 0.74L887.84 0.74Q887.32 0.74 887.02 1.34L887.02 1.34L885.66 5.08L887.48 5.08Q889.12 5.08 890.02 3.34L890.02 3.34L893.56 3.34L891.74 17.30Q891.70 17.58 891.46 17.80L891.46 17.80Q891.24 18.02 890.96 18.02L890.96 18.02L888.74 18.02Q888.34 18.02 888.02 18.30L888.02 18.30Q887.72 18.60 887.66 19.04L887.66 19.04L887.58 19.60L893.34 19.60Q894.22 19.60 894.92 19.06L894.92 19.06Q895.64 18.52 895.78 17.44L895.78 17.44L897.74 2.26Q897.76 1.98 897.60 1.78L897.60 1.78Q897.46 1.58 897.18 1.58ZM887.52 11.14L890.96 12.98L890.96 12.98L891.74 10.54L887.22 7.98L886.78 8.76Q886.46 9.44 886.67 10.11Q886.88 10.78 887.52 11.14L887.52 11.14ZM900.72 11.42L899.36 19.60L899.36 19.60L902.68 19.60Q903.04 19.60 903.32 19.36Q903.60 19.12 903.66 18.74L903.66 18.74L905.06 10.12L903.66 10.12L906.50 3.80L922.38 3.80Q922.82 3.80 923.16 3.51Q923.50 3.22 923.56 2.76L923.56 2.76L923.74 1.92L907.64 1.92L908.24 0.74L904.62 0.74Q903.96 0.74 903.56 1.38L903.56 1.38L903.28 1.92L900.32 1.92Q899.98 1.92 899.74 2.12Q899.50 2.32 899.46 2.64L899.46 2.64L899.24 3.80L902.16 3.80L898.48 11.42L900.72 11.42ZM912.10 11.12L906.56 11.12L906.56 11.12Q906.16 11.12 905.86 11.38Q905.56 11.64 905.50 12.04L905.50 12.04L905.38 12.96L911.86 12.96L911.26 17.28Q911.22 17.58 910.96 17.80L910.96 17.80Q910.72 18.02 910.42 18.02L910.42 18.02L909.14 18.02Q908.64 18.02 908.26 18.34Q907.88 18.66 907.80 19.18L907.80 19.18L907.74 19.60L912.88 19.60Q913.82 19.60 914.54 18.96L914.54 18.96Q915.28 18.30 915.40 17.40L915.40 17.40L916.04 12.96L921.24 12.96Q921.64 12.96 921.95 12.70Q922.26 12.44 922.32 12.04L922.32 12.04L922.44 11.12L916.28 11.12L916.32 10.78L922.84 6.80L923.24 4.62L907.00 4.62L907.00 4.62Q906.80 5.50 907.22 5.96Q907.64 6.42 908.28 6.42L908.28 6.42L917.84 6.42L912.28 9.86L912.10 11.12ZM924.48 10.84L926.38 10.84L926.38 10.84L925.14 19.58L928.76 19.58Q929.00 19.58 929.19 19.42Q929.38 19.26 929.42 19.02L929.42 19.02L930.84 9.00L930.00 9.00L932.56 3.46L947.92 3.46Q948.54 3.46 949.06 2.94L949.06 2.94Q949.58 2.42 949.68 1.78L949.68 1.78L949.74 1.62L933.64 1.62L934.14 0.74L930.24 0.74Q929.76 0.74 929.46 1.16L929.46 1.16L929.20 1.62L926.92 1.62Q926.54 1.62 926.22 1.98L926.22 1.98Q925.88 2.34 925.82 2.72L925.82 2.72L925.70 3.46L928.12 3.46L924.48 10.84ZM938.20 9.72L937.04 17.76L937.04 17.76L932.06 17.76Q931.52 17.76 931.14 18.08L931.14 18.08Q930.76 18.42 930.68 18.94L930.68 18.94L930.62 19.60L946.22 19.60Q946.66 19.60 946.96 19.20L946.96 19.20Q947.28 18.82 947.36 18.38L947.36 18.38L947.44 17.76L941.24 17.76L942.42 9.72L946.88 9.72Q947.46 9.72 947.90 9.34L947.90 9.34Q948.34 8.96 948.44 8.38L948.44 8.38L948.52 7.88L942.68 7.88L943.16 4.46L940.88 4.46Q940.06 4.46 939.44 5.00L939.44 5.00Q938.82 5.54 938.68 6.36L938.68 6.36L938.48 7.88L933.68 7.88Q933.22 7.88 932.90 8.16L932.90 8.16Q932.56 8.46 932.50 8.90L932.50 8.90L932.38 9.72L938.20 9.72ZM956.00 15.98L956.00 15.98L956.00 15.98Q956.14 16.46 956.06 17L956.06 17Q956.00 17.54 955.72 18.02L955.72 18.02Q955.46 18.48 955.04 18.84L955.04 18.84Q954.64 19.20 954.14 19.40L954.14 19.40Q953.64 19.60 953.10 19.60L953.10 19.60Q952.56 19.60 952.10 19.40L952.10 19.40Q951.66 19.20 951.36 18.84L951.36 18.84Q951.06 18.48 950.92 18.02L950.92 18.02Q950.78 17.54 950.84 17L950.84 17Q950.92 16.46 951.20 15.98L951.20 15.98Q951.48 15.50 951.88 15.16L951.88 15.16Q952.28 14.80 952.78 14.60L952.78 14.60Q953.30 14.38 953.84 14.38L953.84 14.38Q954.38 14.38 954.82 14.60L954.82 14.60Q955.26 14.80 955.56 15.16L955.56 15.16Q955.88 15.50 956.00 15.98ZM954.16 17.80L954.16 17.80L954.16 17.80Q954.54 17.46 954.60 17L954.60 17Q954.68 16.52 954.38 16.20L954.38 16.20Q954.08 15.86 953.62 15.86L953.62 15.86Q953.14 15.86 952.78 16.20L952.78 16.20Q952.40 16.52 952.32 17L952.32 17Q952.26 17.46 952.54 17.80L952.54 17.80Q952.82 18.14 953.30 18.14L953.30 18.14Q953.76 18.14 954.16 17.80Z"/></svg>