<svg xmlns="http://www.w3.org/2000/svg" xmlns:xlink="http://www.w3.org/1999/xlink" width="1068.08" height="20"><path fill="black" d="M8.98 0.76L6.48 3.90L6.48 3.90Q5.42 5.14 4.06 5.14L4.06 5.14L1.08 5.14L4.56 0.76L8.98 0.76ZM3.88 5.50L8.30 5.50L8.30 5.50L5.52 9.36L6.98 9.36L5.68 18.80Q5.62 19.16 5.36 19.38L5.36 19.38Q5.12 19.60 4.78 19.60L4.78 19.60L1.44 19.60L2.72 10.26L0.38 10.26L3.88 5.50ZM15.30 18.70L15.30 18.70L15.30 18.70L15.40 19.60L9.68 19.60Q8.90 19.60 8.40 19.05Q7.90 18.50 7.96 17.74L7.96 17.74L10.02 0.74L14.46 0.74L13.90 5.00L21.34 5.00L21.70 2.32L15.12 2.32L15.32 0.74L25.64 0.74L24.54 9.68Q24.42 10.46 23.83 10.97Q23.24 11.48 22.42 11.48L22.42 11.48L13.12 11.48L12.46 16.76Q12.42 17.14 12.62 17.42L12.62 17.42Q12.82 17.70 13.16 17.70L13.16 17.70L14.04 17.70Q14.50 17.70 14.85 17.98Q15.20 18.26 15.30 18.70ZM21.16 6.70L13.66 6.70L13.66 6.70L13.32 9.68L20.12 9.68Q20.40 9.68 20.64 9.48L20.64 9.48Q20.86 9.26 20.92 8.92L20.92 8.92L21.16 6.70ZM23.16 14.30L23.16 14.30L23.16 14.30L20.32 14.30L24.96 19.60L20.30 19.60L16.34 15.26Q15.40 14.38 15.72 13.46L15.72 13.46Q16.04 12.52 17.50 12.52L17.50 12.52L24.20 12.52L24.08 13.36Q24.02 13.78 23.76 14.04L23.76 14.04Q23.52 14.30 23.16 14.30ZM26.60 19.56L26.60 19.56L26.60 19.56L26.60 19.56L44.94 19.56Q45.84 19.56 46.52 18.96L46.52 18.96Q47.20 18.34 47.54 17.46L47.54 17.46L49.96 10.68L32.44 10.68L32.88 9.90L29.22 9.90L27.12 13.60L29.74 13.60Q30.72 13.60 31.40 12.56L31.40 12.56L31.50 12.44L45.34 12.44L43.90 16.60Q43.78 16.94 43.50 17.20L43.50 17.20Q43.22 17.44 42.88 17.44L42.88 17.44L28.50 17.44Q27.88 17.44 27.29 18.14Q26.70 18.84 26.60 19.56ZM43.82 7.70L30.02 7.70L30.02 7.70Q29.46 7.70 29.08 7.88Q28.70 8.06 28.46 8.32Q28.22 8.58 28.10 8.84Q27.98 9.10 27.93 9.28Q27.88 9.46 27.88 9.46L27.88 9.46L46.32 9.46Q47.20 9.46 47.84 8.88L47.84 8.88Q48.48 8.28 48.90 7.46L48.90 7.46L51.46 1.44L33.88 1.44L34.26 0.86L30.60 0.86L28.68 3.80L31.48 3.80Q32.32 3.80 32.82 3.14L32.82 3.14L32.82 3.14L46.74 3.14L45.18 6.90Q45.02 7.22 44.78 7.46L44.78 7.46Q44.46 7.70 43.82 7.70L43.82 7.70ZM43.58 5.02L30.20 4.50L30.20 4.50L30.20 4.50Q30.14 5.18 30.50 5.64Q30.86 6.10 31.50 6.14L31.50 6.14L43.36 6.60L43.58 5.02ZM42.68 15.08L29.40 13.98L29.40 13.98L29.40 13.98Q29.34 14.68 29.70 15.15Q30.06 15.62 30.70 15.68L30.70 15.68L42.50 16.66L42.68 15.08ZM58.98 17.34L65.32 8.20L65.32 8.20L71.02 17.26Q72.42 19.60 74.82 19.60L74.82 19.60L77.66 19.60L69.54 6.50L66.34 6.50L70.40 0.74L66.10 0.74Q65.52 0.74 65.14 1.24L65.14 1.24L52.40 19.60L54.60 19.60Q57.22 19.60 58.98 17.34L58.98 17.34ZM95.08 13.30L95.08 13.30L95.08 13.30L95.10 16.40L91.46 16.40L91.46 11.98L94.08 11.98Q94.50 11.98 94.78 12.36L94.78 12.36Q95.06 12.72 95.08 13.30ZM80.22 19.56L78.42 19.56L78.42 19.56L79.96 11.98L83.92 11.98L82.78 16.74Q82.08 19.56 80.22 19.56L80.22 19.56ZM96.26 17.80L96.26 17.80L96.26 17.80Q96.60 18.20 96.62 18.82L96.62 18.82L96.66 19.56L86.20 19.56Q85.42 19.56 84.84 18.90L84.84 18.90Q84.38 18.34 84.54 16.96L84.54 16.96L85.12 11.98L89.16 11.98L88.64 16.76Q88.62 17.04 88.74 17.22L88.74 17.22Q88.80 17.30 88.87 17.33Q88.94 17.36 89.04 17.36L89.04 17.36L95.32 17.36Q95.90 17.36 96.26 17.80ZM103.06 1.44L103.64 1.44L103.64 1.44L103.42 3.10L100.10 3.10L100.98 6.48L103.02 6.14L102.88 7.20Q102.84 7.46 102.65 7.66Q102.46 7.86 102.20 7.92L102.20 7.92L101.36 8.08L102.28 11.58L100.46 11.58Q98.32 11.58 97.48 9.28L97.48 9.28L97.34 8.72L94.50 9.12L94.58 8.54Q94.66 8.06 94.98 7.72Q95.30 7.38 95.76 7.30L95.76 7.30L96.92 7.12L95.90 3.10L84.84 3.10L84.04 9.20Q83.92 10.20 83.22 10.88L83.22 10.88Q82.52 11.58 81.62 11.58L81.62 11.58L79.82 11.58L80.12 9.34L80.36 7.50L80.38 7.42L81.16 1.44L95.44 1.44L95.28 0.76L99.22 0.76Q99.48 0.76 99.58 1.04L99.58 1.04L99.66 1.44L100.42 1.44L100.30 0.94L102.64 0.94Q102.94 0.94 103.04 1.26L103.04 1.26L103.06 1.44ZM100.88 12.74L100.88 12.74L100.88 12.74Q101.42 13.46 101.42 14.58L101.42 14.58L101.44 19.56L97.76 19.56L97.74 11.98L99.54 11.98Q100.34 11.98 100.88 12.74ZM93.20 10.98L93.20 10.98L93.20 10.98Q92.52 11.66 91.72 11.66L91.72 11.66L86.38 11.66Q85.60 11.66 85.14 10.96L85.14 10.96Q84.66 10.30 84.78 9.40L84.78 9.40L85.24 5.98L94.44 5.98L94 9.42Q93.86 10.32 93.20 10.98ZM90.72 9.46L90.72 9.46L90.72 9.46L90.94 7.88L88.28 7.88L88.08 9.46Q88.06 9.56 88.07 9.63Q88.08 9.70 88.14 9.78L88.14 9.78Q88.26 9.94 88.44 9.94L88.44 9.94L90.10 9.94Q90.20 9.94 90.30 9.91Q90.40 9.88 90.50 9.80L90.50 9.80Q90.50 9.80 90.50 9.80L90.50 9.80Q90.58 9.72 90.64 9.64Q90.70 9.56 90.72 9.46ZM93.84 5.42L85.16 5.42L85.16 5.42L85.30 4.42Q85.34 4.14 85.54 3.95Q85.74 3.76 86 3.76L86 3.76L94.74 3.76L94.62 4.68Q94.58 5.00 94.35 5.21Q94.12 5.42 93.84 5.42L93.84 5.42ZM114.74 8.16L114.80 9.00L114.80 9.00L118.78 9.00L118.58 5.20Q118.52 4.52 118.07 4.08Q117.62 3.64 117 3.64L117 3.64L114.50 3.64L114.66 6.60L111.10 6.90Q110.84 6.90 110.72 6.70L110.72 6.70Q110.60 6.48 110.72 6.24L110.72 6.24L112.28 2.80L119 2.80Q119.26 2.80 119.45 2.63Q119.64 2.46 119.68 2.18L119.68 2.18L119.86 0.96L107.68 0.96Q107.32 0.96 107.08 1.18Q106.84 1.40 106.78 1.76L106.78 1.76L106.62 2.80L108.14 2.80L106.24 6.86Q105.92 7.60 106.26 8.22L106.26 8.22Q106.68 8.84 107.38 8.80L107.38 8.80L114.74 8.16ZM109.16 17.42L105.40 17.58L105.40 17.58Q105.06 17.60 104.83 17.82Q104.60 18.04 104.54 18.38L104.54 18.38L104.40 19.50L116.82 19Q117.08 18.98 117.27 18.80Q117.46 18.62 117.52 18.34L117.52 18.34L117.68 17.10L113.18 17.28L113.70 13.30L117.46 13.30Q117.76 13.30 117.96 13.11Q118.16 12.92 118.20 12.62L118.20 12.62L118.36 11.46L113.96 11.46L114.26 9.14L111.04 9.14Q110.72 9.14 110.47 9.36Q110.22 9.58 110.16 9.94L110.16 9.94L109.96 11.46L106.26 11.46Q105.96 11.46 105.73 11.67Q105.50 11.88 105.44 12.20L105.44 12.20L105.30 13.30L109.72 13.30L109.16 17.42ZM120.64 3.24L118.82 16.86L118.82 16.86L120.82 16.86Q121.46 16.86 121.92 16.43Q122.38 16 122.48 15.34L122.48 15.34L124.40 1.10L123 1.10Q122.12 1.10 121.45 1.70Q120.78 2.30 120.64 3.24L120.64 3.24ZM127.44 17.38L127.44 17.38L127.44 17.38L129.66 0.76L126.74 0.76Q126.28 0.76 125.95 1.06Q125.62 1.36 125.52 1.84L125.52 1.84L123.46 17.26Q123.42 17.56 123.20 17.78L123.20 17.78Q122.98 18 122.66 18L122.66 18L121.06 18Q120.50 18 120.07 18.39Q119.64 18.78 119.56 19.38L119.56 19.38L119.52 19.58L125.04 19.58Q125.90 19.58 126.60 18.94L126.60 18.94Q127.30 18.30 127.44 17.38ZM153.16 9.00L144.94 9.00L144.94 9.00L144.74 10.50L154.50 10.50L154.36 11.42Q154.32 11.74 154.09 11.95Q153.86 12.16 153.54 12.16L153.54 12.16L144.50 12.16L144.40 12.98L140.16 12.98L140.28 12.16L130.52 12.16L130.66 11.24Q130.70 10.92 130.94 10.71Q131.18 10.50 131.50 10.50L131.50 10.50L140.52 10.50L140.72 9.00L131.78 9.00L131.90 8.10Q131.96 7.76 132.19 7.56Q132.42 7.36 132.74 7.36L132.74 7.36L140.94 7.36L141.12 6.02L131.70 6.02L131.82 5.16Q131.88 4.82 132.13 4.60Q132.38 4.38 132.70 4.38L132.70 4.38L141.36 4.38L141.36 4.38Q141.42 4.02 141.68 3.78Q141.94 3.54 142.30 3.54L142.30 3.54L145.70 3.54L145.58 4.38L155.02 4.38L154.88 5.36Q154.84 5.66 154.62 5.84Q154.40 6.02 154.12 6.02L154.12 6.02L145.36 6.02L145.18 7.36L154.12 7.36L153.98 8.28Q153.94 8.60 153.71 8.80Q153.48 9.00 153.16 9.00L153.16 9.00ZM155.08 2.00L155.08 2.00L155.08 2.00Q155.58 2.60 155.48 3.40L155.48 3.40L155.40 3.88L151.34 3.88L151.40 3.52Q151.40 3.32 151.26 3.18L151.26 3.18Q151.12 3.06 150.92 3.06L150.92 3.06L136.82 3.06L137.06 1.40L141.76 1.40L141.86 0.74L145.42 0.74Q145.68 0.74 145.85 0.93Q146.02 1.12 146.00 1.40L146.00 1.40L146.00 1.40L153.80 1.40Q154.60 1.40 155.08 2.00ZM136.08 1.40L135.78 3.52L135.78 3.52L135.76 3.66L135.76 3.72L135.74 3.88L131.68 3.88L131.74 3.40Q131.86 2.60 132.50 2.00L132.50 2.00Q133.18 1.40 133.96 1.40L133.96 1.40L136.08 1.40ZM149.16 14.96L135.66 14.96L135.66 14.96L135.90 13.30L153.62 13.30L153.06 17.38Q152.92 18.28 152.18 18.94L152.18 18.94Q151.44 19.60 150.52 19.60L150.52 19.60L132.24 19.60Q131.34 19.60 130.84 18.94L130.84 18.94Q130.32 18.28 130.46 17.38L130.46 17.38L131.02 13.30L135.08 13.30L134.86 14.90L134.86 14.96L134.84 15.08L134.84 15.12L134.58 17.02Q134.50 17.42 134.74 17.68L134.74 17.68Q134.96 17.94 135.36 17.94L135.36 17.94L147.86 17.94Q148.26 17.94 148.54 17.68L148.54 17.68Q148.84 17.42 148.88 17.02L148.88 17.02L149.16 14.96ZM176.14 2.14L176.14 2.14L176.14 2.14L181.66 2.14L179.94 17.22Q179.88 17.70 179.66 18.14L179.66 18.14Q179.42 18.60 179.08 18.92L179.08 18.92Q178.74 19.24 178.30 19.44L178.30 19.44Q177.86 19.60 177.40 19.60L177.40 19.60L166.88 19.60Q166.40 19.60 166.00 19.44L166.00 19.44Q165.60 19.26 165.32 18.94L165.32 18.94Q165.04 18.60 164.90 18.16L164.90 18.16Q164.76 17.72 164.82 17.22L164.82 17.22L166.54 2.14L170.64 2.14L170.48 3.52L170.42 4.04L169.82 9.32L176.74 9.32L177.42 3.46L171.12 3.46L171.26 2.14L172.04 2.14L172.20 0.84L175.02 0.84Q175.52 0.84 175.86 1.23Q176.20 1.62 176.14 2.14L176.14 2.14ZM175.80 17.70L175.80 17.70L175.80 17.70L176.56 11.06L169.62 11.06L168.86 17.72Q168.84 17.82 168.86 17.89Q168.88 17.96 168.94 18.04L168.94 18.04Q169.00 18.10 169.07 18.16Q169.14 18.22 169.24 18.22L169.24 18.22L175.34 18.22Q175.44 18.22 175.51 18.18Q175.58 18.14 175.66 18.06L175.66 18.06Q175.74 17.98 175.76 17.89Q175.78 17.80 175.80 17.70ZM158.82 14.32L158.82 14.32L158.82 14.32L159.98 4.46L157.96 4.46L156.40 17.28Q158.44 17.12 158.82 14.32ZM161.52 19.10L161.52 19.10L161.52 19.10Q161.20 19.44 160.76 19.44L160.76 19.44L158.66 19.44L160.66 1.88Q160.72 1.38 161.04 1.06L161.04 1.06Q161.32 0.74 161.74 0.74L161.74 0.74L163.90 0.74L161.90 18.24Q161.84 18.76 161.52 19.10ZM165.70 4.82L165.70 4.82L165.70 4.82Q165.58 4.68 165.40 4.68L165.40 4.68L163.80 4.68L163.02 11.68Q162.98 12.36 163.34 12.88L163.34 12.88Q163.68 13.38 164.26 13.38L164.26 13.38L164.86 13.38L165.78 5.20Q165.80 4.98 165.70 4.82ZM182.40 19.60L182.40 19.60L182.40 19.60L185.24 19.60Q185.82 18.94 186.43 17.92Q187.04 16.90 187.52 15.82L187.52 15.82Q187.84 15.00 187.39 14.31Q186.94 13.62 186.10 13.62L186.10 13.62L186.10 13.62Q185.06 13.62 184.60 14.76L184.60 14.76Q184.22 16.02 183.61 17.35Q183.00 18.68 182.40 19.60ZM209.24 2.38L209.46 0.74L209.46 0.74L227.58 0.74L225.32 17.32Q225.18 18.24 224.46 18.92L224.46 18.92Q223.72 19.62 222.84 19.62L222.84 19.62L204.24 19.62Q203.36 19.62 202.84 18.92L202.84 18.92Q202.32 18.24 202.44 17.32L202.44 17.32L204.70 0.74L208.66 0.74L208.46 2.34L208.44 2.38L208.36 2.98L208.36 3.04L206.46 16.94Q206.42 17.38 206.68 17.66L206.68 17.66Q206.94 17.98 207.34 17.98L207.34 17.98L220.22 17.98Q220.62 17.98 220.90 17.66L220.90 17.66Q221.20 17.38 221.24 16.94L221.24 16.94L223.22 2.38L209.24 2.38ZM214.90 10.42L212.96 14.18L212.96 14.18Q211.46 16.66 208.94 16.66L208.94 16.66L207.36 16.66L212.24 6.98L208.94 6.98L209.04 6.18Q209.08 5.88 209.30 5.69Q209.52 5.50 209.80 5.50L209.80 5.50L212.86 5.50L213.72 3.74Q214.02 3.20 214.56 3.20L214.56 3.20L218.24 3.20L217.28 5.50L221.84 5.50L221.76 6.16Q221.70 6.52 221.45 6.75Q221.20 6.98 220.84 6.98L220.84 6.98L216.54 6.98L215.84 8.46L217.96 8.46Q218.28 8.46 218.53 8.66Q218.78 8.86 218.86 9.18L218.86 9.18L220.46 16.66L219.16 16.66Q217.90 16.66 216.93 15.86Q215.96 15.06 215.64 13.78L215.64 13.78L214.90 10.42ZM236.12 1.16L230.90 0.94L230.90 0.94L230.90 0.94Q230.84 1.64 231.30 2.17Q231.76 2.70 232.40 2.74L232.40 2.74L235.90 2.90L236.12 1.16ZM235.44 5.86L228.68 19.56L228.68 19.56L229.50 19.56Q232.60 19.56 234.58 16.18L234.58 16.18L236.96 11.32L245.44 12.40L245.54 11.32Q245.60 10.76 245.32 10.36Q245.04 9.96 244.52 9.88L244.52 9.88L238.08 9.02L239.68 5.86L249.02 5.86L247.60 16.48Q247.54 16.90 247.30 17.18L247.30 17.18Q247.08 17.46 246.68 17.46L246.68 17.46L243.72 17.46Q243.32 17.46 243.02 17.74Q242.72 18.02 242.64 18.44L242.64 18.44L242.50 19.56L249.06 19.56Q249.92 19.56 250.62 18.92L250.62 18.92Q251.32 18.28 251.46 17.34L251.46 17.34L253.42 3.42L240.84 3.42L242.16 0.78L237.90 0.78L236.60 3.42L231.38 3.42Q231.20 3.42 231.06 3.55Q230.92 3.68 230.88 3.88L230.88 3.88L230.50 5.86L235.44 5.86ZM263.18 1.98L262.98 3.62L262.98 3.62L262.36 3.68Q262.12 3.70 261.92 3.90L261.92 3.90Q261.74 4.10 261.68 4.40L261.68 4.40L261.50 5.80L262.70 5.70L261.18 17.80Q261.08 18.52 261.48 19.02L261.48 19.02Q261.88 19.54 262.54 19.54L262.54 19.54L278.68 19.54L278.74 19.10Q278.82 18.36 278.40 17.84L278.40 17.84Q278 17.32 277.38 17.32L277.38 17.32L265.72 17.32Q265.44 17.32 265.28 17.10L265.28 17.10Q265.12 16.88 265.16 16.58L265.16 16.58L266.54 5.40L269.14 5.08L267.74 16.18L269.04 16.18Q269.98 16.18 270.68 15.50L270.68 15.50Q271.38 14.86 271.54 13.70L271.54 13.70L272.66 4.68L275.68 4.24Q275.82 4.22 275.92 4.26L275.92 4.26Q276 4.30 275.98 4.44L275.98 4.44L274.84 13.70Q274.80 14.00 274.62 14.20L274.62 14.20Q274.38 14.44 274.08 14.44L274.08 14.44L272.64 14.44Q272.26 14.44 271.98 14.72L271.98 14.72Q271.68 15.00 271.62 15.44L271.62 15.44L271.54 16.06L276.32 16.06Q276.98 16.06 277.50 15.54L277.50 15.54Q278.02 15.04 278.12 14.32L278.12 14.32L279.50 3.06Q279.60 2.34 279.18 1.94L279.18 1.94Q278.76 1.56 278.12 1.62L278.12 1.62L272.96 2.50L273.18 0.74L270.68 0.74Q270.24 0.74 269.92 1.04L269.92 1.04Q269.60 1.36 269.56 1.82L269.56 1.82L269.42 2.96L266.82 3.30L267.08 1.24L263.94 1.24Q263.64 1.24 263.44 1.44L263.44 1.44Q263.24 1.66 263.18 1.98L263.18 1.98ZM258.38 1L258.38 1L258.38 1L261.94 1L259.48 6.28L260.58 6.28L258.68 18.86Q258.64 19.18 258.41 19.39Q258.18 19.60 257.88 19.60L257.88 19.60L254.68 19.60L256.44 7.90L254.60 7.90L257.66 1.48Q257.92 1 258.38 1ZM289.64 0.84L289.82 3.64L289.82 3.64L293.96 3.64L293.86 2.10Q293.82 1.56 293.43 1.20Q293.04 0.84 292.50 0.84L292.50 0.84L289.64 0.84ZM289.36 5.56L287.38 19.58L287.38 19.58L291.52 19.58L293.64 4.64L290.44 4.64Q290.02 4.64 289.72 4.90Q289.42 5.16 289.36 5.56L289.36 5.56ZM303.42 17.40L303.42 17.40L303.42 17.40L305.72 1.16L295.46 1.16L295.22 2.92L301.32 2.92L299.30 17.28Q299.26 17.60 299.02 17.80L299.02 17.80Q298.76 18 298.48 18L298.48 18L297.70 18Q297.28 18 296.97 18.28Q296.66 18.56 296.58 18.98L296.58 18.98L296.50 19.58L300.94 19.58Q301.84 19.58 302.58 18.94L302.58 18.94Q303.30 18.30 303.42 17.40ZM284.56 0.76L284.56 0.76L284.56 0.76L288.34 0.76L285.74 6.12L286.92 6.12L284.90 18.86Q284.84 19.18 284.60 19.39Q284.36 19.60 284.04 19.60L284.04 19.60L280.62 19.60L282.52 7.74L280.56 7.74L283.80 1.24Q284.08 0.76 284.56 0.76ZM308.20 3.06L313.44 3.06L313.44 3.06L306.42 16.42L306.52 16.42Q310.26 16.42 312.52 12.72L312.52 12.72L317.60 3.06L330.46 3.06Q330.84 3.06 331.14 2.78L331.14 2.78Q331.44 2.52 331.50 2.10L331.50 2.10L331.68 0.74L309.38 0.74Q309.00 0.74 308.74 0.98L308.74 0.98Q308.46 1.24 308.40 1.64L308.40 1.64L308.20 3.06ZM317.64 5.96L317.64 5.96L317.64 5.96L315.82 19.60L320.14 19.60L321.90 4.66L319.06 4.66Q318.54 4.66 318.12 5.02L318.12 5.02Q317.72 5.38 317.64 5.96ZM327.36 5.60L323.22 5.60L323.22 5.60L325.52 14.58Q325.74 15.40 326.42 15.91Q327.10 16.42 327.96 16.42L327.96 16.42L330.14 16.42L327.36 5.60ZM345.44 3.20L338.46 3.20L338.46 3.20L338.46 3.20Q337.48 5.04 335.86 5.04L335.86 5.04L334.28 5.04L336.06 0.80L339.46 0.80L339.20 1.36L345.68 1.36L345.44 3.20ZM340.56 11.30L339.82 12.96L339.82 12.96L341.96 12.96Q342.48 12.96 342.60 13.54L342.60 13.54L343.30 19.58L341.56 19.58Q339.68 19.58 339.14 17.44L339.14 17.44L338.82 14.96L337.84 16.86Q336.16 19.58 333.64 19.58L333.64 19.58L332.46 19.58L336.60 11.30L333.54 11.30L333.76 9.56Q333.80 9.28 334.01 9.09Q334.22 8.90 334.48 8.90L334.48 8.90L337.36 8.90L338.92 3.94L342.90 3.94L341.32 8.90L344.68 8.90L344.44 10.66Q344.40 10.92 344.20 11.11Q344.00 11.30 343.74 11.30L343.74 11.30L340.56 11.30ZM350.90 3.18L351.16 1.18L351.16 1.18L357.52 1.18L355.38 17.36Q355.26 18.30 354.58 18.94L354.58 18.94Q353.90 19.60 353.06 19.60L353.06 19.60L346.12 19.60Q345.26 19.60 344.76 18.94L344.76 18.94Q344.28 18.30 344.40 17.36L344.40 17.36L346.54 1.18L350.48 1.18L350.22 3.14L350.22 3.18L350.10 4.04L350.10 4.10L348.40 16.86Q348.36 17.18 348.52 17.38L348.52 17.38Q348.70 17.60 348.98 17.60L348.98 17.60L350.76 17.60Q351.04 17.60 351.24 17.38L351.24 17.38Q351.46 17.18 351.50 16.86L351.50 16.86L353.30 3.18L350.90 3.18ZM358.98 6.36L360.36 6.36L360.36 6.36L358.42 19.60L360.90 19.60Q361.00 19.60 361.08 19.60L361.08 19.60Q361.50 19.62 361.86 19.54L361.86 19.54Q362.20 19.46 362.42 19.12L362.42 19.12L362.48 19L379.52 19.56Q380.18 19.56 380.68 19.14L380.68 19.14Q381.18 18.72 381.28 18.06L381.28 18.06L364.06 17.48Q363.88 17.48 363.66 17.38L363.66 17.38Q363.44 17.30 363.28 17.14L363.28 17.14Q363.12 16.98 363.02 16.78L363.02 16.78Q362.90 16.56 362.94 16.34L362.94 16.34L364.52 4.86L359.92 4.86Q359.62 4.86 359.38 5.06L359.38 5.06Q359.14 5.28 359.10 5.58L359.10 5.58L358.98 6.36ZM364.58 2.26L360.72 0.74L360.72 0.74Q360.38 1.68 360.76 2.54L360.76 2.54Q361.14 3.40 362.06 3.80L362.06 3.80L363.74 4.46L364.58 2.26ZM382.06 1.70L383.68 1.70L383.68 1.70L383.54 2.54Q383.50 2.78 383.34 2.92L383.34 2.92Q383.18 3.06 382.94 3.06L382.94 3.06L376.66 3.06L376.52 4.10L383.04 4.10L381.60 14.66Q381.48 15.52 380.80 16.12L380.80 16.12Q380.14 16.72 379.32 16.72L379.32 16.72L366.00 16.72Q365.20 16.72 364.70 16.10L364.70 16.10Q364.22 15.50 364.34 14.66L364.34 14.66L365.78 4.10L369.96 4.10L369.48 7.96L378.32 7.96L378.58 5.88L370.60 5.88L370.80 4.10L372.30 4.10L372.46 3.06L365.66 3.06L365.80 2.18Q365.84 1.98 365.98 1.84L365.98 1.84Q366.14 1.70 366.34 1.70L366.34 1.70L367.44 1.70L367.24 0.82L370.70 0.82Q371.00 0.82 371.22 1Q371.44 1.18 371.52 1.48L371.52 1.48L371.56 1.70L377.90 1.70L378.14 1.28Q378.40 0.82 378.86 0.82L378.86 0.82L382.50 0.82L382.06 1.70ZM377.34 14.78L377.34 14.78L377.34 14.78Q377.38 14.66 377.40 14.56L377.40 14.56L377.64 12.72L368.80 12.72L368.56 14.56Q368.54 14.68 368.56 14.80L368.56 14.80Q368.58 14.92 368.64 15.00L368.64 15.00Q368.66 15.02 368.68 15.04L368.68 15.04Q368.72 15.12 368.80 15.18L368.80 15.18Q368.86 15.24 368.94 15.24L368.94 15.24L376.80 15.24Q376.88 15.24 376.98 15.16L376.98 15.16Q377.06 15.10 377.14 15.02L377.14 15.02Q377.16 15.02 377.18 15.00L377.18 15.00Q377.28 14.92 377.34 14.78ZM369.28 9.30L369.06 11.08L369.06 11.08L377.88 11.08L378.12 9.30L369.28 9.30ZM391.42 14.88L393.00 3.74L393.00 3.74L391.42 14.88Q391.42 14.88 391.42 14.88L391.42 14.88Q391.42 14.88 391.42 14.88L391.42 14.88Q391.42 14.88 391.42 14.88L391.42 14.88Q391.42 14.88 391.42 14.88L391.42 14.88ZM389.08 14.98L389.08 14.98L389.08 14.98Q389.12 15.18 389.38 15.32L389.38 15.32Q389.34 15.30 389.30 15.26L389.30 15.26Q389.28 15.26 389.28 15.24L389.28 15.24Q389.12 15.14 389.10 14.98L389.10 14.98Q389.12 15.14 389.28 15.24L389.28 15.24Q389.12 15.14 389.08 14.98L389.08 14.98Q389.08 14.98 389.08 14.96L389.08 14.96Q389.06 14.96 389.06 14.96Q389.06 14.96 389.06 14.94L389.06 14.94Q389.06 14.92 389.08 14.90L389.08 14.90Q389.08 14.90 389.08 14.88L389.08 14.88L390.66 3.74L389.08 14.88Q389.08 14.90 389.08 14.92L389.08 14.92Q389.06 14.92 389.06 14.94L389.06 14.94Q389.06 14.94 389.06 14.94L389.06 14.94Q389.06 14.94 389.06 14.94L389.06 14.94Q389.06 14.96 389.07 14.96Q389.08 14.96 389.08 14.96L389.08 14.96Q389.08 14.98 389.08 14.98ZM391.02 15.32L390.20 15.62L390.20 15.62L390.18 15.64L390.18 15.64L391.02 15.32Q391.32 15.18 391.40 14.98L391.40 14.98Q391.40 14.98 391.40 14.98L391.40 14.98Q391.40 14.98 391.40 14.98L391.40 14.98Q391.40 14.98 391.40 14.98L391.40 14.98Q391.40 14.98 391.40 14.98L391.40 14.98Q391.38 15.04 391.34 15.08L391.34 15.08Q391.24 15.22 391.02 15.32L391.02 15.32ZM390.18 15.64L390.18 15.64L390.18 15.64L390.18 15.64L390.18 15.64L390.18 15.64ZM389.10 14.88L390.66 3.74L390.66 3.74L389.10 14.88Q389.10 14.92 389.10 14.94L389.10 14.94Q389.10 14.92 389.10 14.88L389.10 14.88ZM391.34 15.08L391.34 15.08L391.34 15.08Q391.24 15.22 391.02 15.32L391.02 15.32L390.20 15.62L391.02 15.32Q391.24 15.22 391.34 15.08ZM389.10 14.98L389.10 14.98L389.10 14.98Q389.12 15.14 389.28 15.24L389.28 15.24Q389.28 15.24 389.28 15.24L389.28 15.24Q389.28 15.24 389.28 15.24L389.28 15.24Q389.12 15.14 389.10 14.98ZM390.18 15.64L390.18 15.64L390.18 15.64L390.18 15.64L390.18 15.64L390.18 15.64ZM403.26 2.36L403.50 0.70L403.50 0.70L409.64 0.70L407.30 17.28Q407.18 18.20 406.46 18.82L406.46 18.82Q405.76 19.44 404.84 19.44L404.84 19.44L398.24 19.44Q397.32 19.44 396.78 18.82L396.78 18.82Q396.22 18.20 396.34 17.28L396.34 17.28L398.68 0.70L402.66 0.70L402.42 2.36L402.42 2.36L402.38 2.66L402.38 2.68L400.34 17.16Q400.30 17.50 400.50 17.72L400.50 17.72Q400.70 17.96 401.00 17.96L401.00 17.96L402.50 17.96Q402.80 17.96 403.04 17.72L403.04 17.72Q403.30 17.50 403.34 17.16L403.34 17.16L405.42 2.36L403.26 2.36ZM389.38 15.32L389.38 15.32L389.38 15.32L390.18 15.64L390.18 15.64L389.38 15.32Q389.12 15.18 389.08 14.98L389.08 14.98Q389.08 14.98 389.08 14.96L389.08 14.96Q389.08 14.96 389.07 14.96Q389.06 14.96 389.06 14.94L389.06 14.94Q389.06 14.94 389.06 14.94L389.06 14.94Q389.06 14.96 389.07 14.96Q389.08 14.96 389.08 14.96L389.08 14.96Q389.08 14.98 389.08 14.98L389.08 14.98Q389.12 15.14 389.28 15.24L389.28 15.24Q389.32 15.28 389.38 15.32ZM391.42 14.88L391.42 14.88L391.42 14.88Q391.42 14.94 391.40 14.98L391.40 14.98Q391.42 14.94 391.42 14.88ZM391.42 14.88L391.42 14.88L391.42 14.88Q391.42 14.94 391.40 14.98L391.40 14.98Q391.40 14.98 391.40 14.98L391.40 14.98Q391.40 14.98 391.40 14.98L391.40 14.98Q391.42 14.94 391.42 14.88L391.42 14.88Q391.42 14.88 391.42 14.88L391.42 14.88Q391.42 14.88 391.42 14.88ZM393.92 0.70L396.86 0.70L396.86 0.70L396.66 2.02L397.42 2.02L397.28 2.98Q397.24 3.28 397.02 3.48Q396.80 3.68 396.52 3.68L396.52 3.68L396.42 3.68L394.80 15.28Q394.74 15.70 394.46 16.02L394.46 16.02Q394.16 16.32 393.72 16.48L393.72 16.48L393.02 16.72L393.90 17.10Q394.88 17.60 394.80 18.68L394.80 18.68L394.66 19.60L389.86 17.78L384.54 19.60L384.72 18.34Q384.86 17.58 385.56 17.26L385.56 17.26L386.98 16.72L386.36 16.46Q385.96 16.32 385.76 16L385.76 16Q385.56 15.68 385.60 15.28L385.60 15.28L387.24 3.68L386.48 3.68L386.60 2.68Q386.66 2.40 386.86 2.21Q387.06 2.02 387.34 2.02L387.34 2.02L387.46 2.02L387.56 1.44Q387.78 0.70 388.48 0.70L388.48 0.70L391.10 0.70L390.90 2.02L393.22 2.02L393.34 1.18Q393.38 0.96 393.54 0.83Q393.70 0.70 393.92 0.70L393.92 0.70ZM390.18 15.64L389.38 15.32L389.38 15.32Q389.32 15.28 389.28 15.24L389.28 15.24Q389.32 15.28 389.38 15.32L389.38 15.32L390.18 15.64L391.02 15.32Q391.32 15.18 391.40 14.98L391.40 14.98Q391.40 14.94 391.41 14.91Q391.42 14.88 391.42 14.84L391.42 14.84L393.00 3.68L390.66 3.68L389.08 14.84Q389.08 14.86 389.08 14.88L389.08 14.88Q389.08 14.90 389.07 14.92Q389.06 14.94 389.06 14.94L389.06 14.94L389.06 14.94Q389.06 14.94 389.06 14.94L389.06 14.94Q389.06 14.96 389.07 14.96Q389.08 14.96 389.08 14.96L389.08 14.96Q389.08 14.98 389.08 14.98L389.08 14.98Q389.12 15.18 389.38 15.32L389.38 15.32L390.18 15.64L390.18 15.64L390.18 15.64L390.18 15.64L390.18 15.64L391.02 15.32Q391.32 15.18 391.40 14.98L391.40 14.98Q391.40 14.98 391.40 14.98L391.40 14.98Q391.40 14.98 391.40 14.98L391.40 14.98Q391.42 14.94 391.42 14.88L391.42 14.88Q391.42 14.88 391.42 14.88L391.42 14.88Q391.42 14.88 391.42 14.88L391.42 14.88L393.00 3.74L391.42 14.88Q391.42 14.88 391.42 14.88L391.42 14.88Q391.42 14.88 391.42 14.88L391.42 14.88Q391.42 14.88 391.42 14.88L391.42 14.88Q391.42 14.88 391.42 14.88L391.42 14.88Q391.42 14.88 391.42 14.88L391.42 14.88Q391.42 14.88 391.42 14.88L391.42 14.88L393.00 3.74L391.42 14.88Q391.42 14.88 391.42 14.88L391.42 14.88Q391.42 14.88 391.42 14.88L391.42 14.88Q391.42 14.94 391.40 14.98L391.40 14.98Q391.40 14.98 391.40 14.98L391.40 14.98Q391.40 14.98 391.40 14.98L391.40 14.98Q391.32 15.18 391.02 15.32L391.02 15.32L390.18 15.64ZM389.08 14.98L389.08 14.98L389.08 14.98Q389.12 15.18 389.38 15.32L389.38 15.32L390.18 15.64L390.18 15.64L389.38 15.32Q389.12 15.18 389.08 14.98ZM390.18 15.64L390.18 15.64L390.18 15.64L390.20 15.62L390.18 15.64ZM391.34 15.08L391.34 15.08L391.34 15.08Q391.38 15.04 391.40 14.98L391.40 14.98Q391.40 14.98 391.40 14.98L391.40 14.98Q391.40 14.98 391.40 14.98L391.40 14.98Q391.40 14.98 391.40 14.98L391.40 14.98Q391.40 14.98 391.40 14.98L391.40 14.98Q391.40 14.98 391.40 14.98L391.40 14.98Q391.40 14.98 391.40 14.98L391.40 14.98Q391.38 15.04 391.34 15.08ZM391.40 14.98L391.40 14.98L391.40 14.98Q391.40 14.98 391.40 14.98L391.40 14.98Q391.40 14.98 391.40 14.98L391.40 14.98L391.40 14.98Q391.40 14.98 391.40 14.98L391.40 14.98Q391.40 14.98 391.40 14.98ZM391.40 14.98L391.40 14.98L391.40 14.98L391.40 14.98Q391.42 14.94 391.42 14.88L391.42 14.88Q391.42 14.88 391.42 14.88L391.42 14.88Q391.42 14.94 391.40 14.98ZM393.00 3.74L391.42 14.88L391.42 14.88Q391.42 14.88 391.42 14.88L391.42 14.88Q391.42 14.88 391.42 14.88L391.42 14.88Q391.42 14.88 391.42 14.88L391.42 14.88Q391.42 14.88 391.42 14.88L391.42 14.88Q391.42 14.88 391.42 14.88L391.42 14.88L393.00 3.74ZM390.20 15.62L391.02 15.32L391.02 15.32Q391.24 15.22 391.34 15.08L391.34 15.08Q391.38 15.04 391.40 14.98L391.40 14.98Q391.32 15.18 391.02 15.32L391.02 15.32L390.18 15.64L390.20 15.62ZM390.18 15.64L390.18 15.64L390.18 15.64L390.18 15.64L390.18 15.64ZM390.18 15.64L389.38 15.32L389.38 15.32Q389.32 15.28 389.28 15.24L389.28 15.24Q389.28 15.24 389.28 15.24L389.28 15.24Q389.28 15.24 389.28 15.24L389.28 15.24Q389.32 15.28 389.38 15.32L389.38 15.32L390.18 15.64L390.18 15.64ZM410.60 6.52L413.46 1.38L413.46 1.38Q413.86 0.74 414.54 0.74L414.54 0.74L418.12 0.74L415.76 4.98L416.94 4.98L415.02 18.68Q414.96 19.08 414.66 19.34Q414.36 19.60 413.96 19.60L413.96 19.60L410.72 19.60L412.56 6.52L410.60 6.52ZM418.76 2.76L418.84 2.08L418.84 2.08Q418.92 1.68 419.21 1.42Q419.50 1.16 419.90 1.16L419.90 1.16L435.68 1.16L435.58 1.84Q435.52 2.24 435.22 2.50Q434.92 2.76 434.52 2.76L434.52 2.76L434.36 2.76L432.30 17.40Q432.16 18.30 431.42 18.96L431.42 18.96Q430.68 19.60 429.78 19.60L429.78 19.60L423.40 19.60L423.40 19.60Q423.52 18.90 424.03 18.46Q424.54 18.02 425.24 18.02L425.24 18.02L427.20 18.02Q427.62 18.02 427.86 17.72L427.86 17.72Q428.12 17.44 428.18 17.04L428.18 17.04L430.18 2.76L418.76 2.76ZM425.46 16.62L425.46 16.62L425.46 16.62Q425.02 16.82 424.56 16.82L424.56 16.82L419.42 16.82Q418.96 16.82 418.58 16.62L418.58 16.62Q418.18 16.44 417.92 16.12L417.92 16.12Q417.66 15.78 417.54 15.34L417.54 15.34Q417.42 14.90 417.48 14.38L417.48 14.38L418.92 4.20L422.50 4.20L422.28 5.70L422.20 6.34L421.02 14.70Q420.98 14.94 421.14 15.14L421.14 15.14Q421.28 15.32 421.52 15.32L421.52 15.32L422.88 15.32Q423.12 15.32 423.32 15.14L423.32 15.14Q423.52 14.98 423.54 14.70L423.54 14.70L424.82 5.70L422.80 5.70L423.00 4.20L428.60 4.20L427.18 14.38Q427.10 14.88 426.86 15.32L426.86 15.32Q426.62 15.76 426.26 16.08L426.26 16.08Q425.90 16.42 425.46 16.62ZM443.22 17.68L444.56 7.54L444.56 7.54L443.60 7.54L443.96 5.96L448.60 5.96L447.04 17.82Q446.96 18.54 446.42 19.06L446.42 19.06Q445.88 19.58 445.22 19.58L445.22 19.58L441.94 19.58L442.08 18.52Q442.12 18.30 442.28 18.14Q442.44 17.98 442.66 17.98L442.66 17.98L442.88 17.98Q442.96 17.98 443.01 17.97Q443.06 17.96 443.12 17.90L443.12 17.90Q443.18 17.86 443.20 17.81Q443.22 17.76 443.22 17.68L443.22 17.68ZM446.22 1.64L446.22 1.64L446.22 1.64L446.16 2.02L449.42 2.02L449.24 3.36Q449.20 3.58 449.03 3.74Q448.86 3.90 448.66 3.90L448.66 3.90L443.88 3.90L441.30 15.54Q440.88 17.30 439.55 18.44Q438.22 19.58 436.62 19.58L436.62 19.58L436.62 19.58L440.10 3.90L438.68 3.90L438.86 2.58Q438.90 2.34 439.07 2.18Q439.24 2.02 439.46 2.02L439.46 2.02L442.32 2.02L442.50 0.74L445.50 0.74Q445.84 0.74 446.05 1Q446.26 1.26 446.22 1.64ZM457.44 4.70L460.80 4.70L460.80 4.70L456.16 12.52L459.22 19.58L455.78 19.58Q455.20 19.58 454.92 18.98L454.92 18.98L453.76 16.10L452.38 18.26Q451.42 19.58 450.14 19.58L450.14 19.58L447.34 19.58L451.96 12.22L449.48 6.12L453.04 6.12Q453.50 6.12 453.70 6.60L453.70 6.60L454.44 9.06L456.64 5.20Q456.98 4.70 457.44 4.70L457.44 4.70ZM455.04 0.74L454.72 1.54L454.72 1.54L461.60 1.54L461.44 2.72Q461.38 3.02 461.17 3.23Q460.96 3.44 460.68 3.44L460.68 3.44L454.04 3.44L453.98 3.58Q453.72 4.22 453.18 4.62Q452.64 5.02 452.02 5.02L452.02 5.02L449.46 5.02L450.98 1.14Q451.04 0.96 451.19 0.85Q451.34 0.74 451.50 0.74L451.50 0.74L455.04 0.74ZM473.88 1.44L465.24 1.44L465.24 1.44Q464.78 1.44 464.44 1.74Q464.10 2.04 464.02 2.52L464.02 2.52L463.96 3.04L466.34 3.04L464.22 7.44Q463.98 7.78 463.92 8.14L463.92 8.14Q463.84 8.52 463.98 8.82L463.98 8.82Q464.10 9.12 464.42 9.32L464.42 9.32Q464.72 9.52 465.24 9.50L465.24 9.50L481.60 8.86L481.80 9.84L485.98 9.84L485.42 6.44Q485.20 5.34 484.38 4.63Q483.56 3.92 482.48 3.92L482.48 3.92L481.00 3.92L481.38 7.24L468.72 7.76Q468.54 7.76 468.46 7.62L468.46 7.62Q468.38 7.48 468.52 7.28L468.52 7.28L470.52 3.04L486.42 3.04Q486.88 3.04 487.22 2.74Q487.56 2.44 487.62 1.98L487.62 1.98L487.70 1.44L477.98 1.44L477.98 1.44Q478.02 1.16 477.84 0.95Q477.66 0.74 477.38 0.74L477.38 0.74L473.98 0.74L473.88 1.44ZM479.26 14.06L478.48 19.60L478.48 19.60L482.58 19.60L483.34 14.06L485.14 14.06Q485.48 14.06 485.74 13.83Q486.00 13.60 486.06 13.24L486.06 13.24L486.22 12.16L483.62 12.16L483.86 10.42L481.06 10.42Q480.50 10.42 480.08 10.79Q479.66 11.16 479.58 11.72L479.58 11.72L479.52 12.16L469.34 12.16L469.90 10.42L465.80 10.42L465.24 12.16L463.52 12.16Q463.16 12.16 462.90 12.39Q462.64 12.62 462.58 12.98L462.58 12.98L462.44 14.06L464.72 14.06L462.66 19.60L463.86 19.60Q466.48 19.60 467.78 16.86L467.78 16.86L468.82 14.06L479.26 14.06ZM493.96 15.98L493.96 15.98L493.96 15.98Q494.10 16.46 494.02 17L494.02 17Q493.96 17.54 493.68 18.02L493.68 18.02Q493.42 18.48 493.00 18.84L493.00 18.84Q492.60 19.20 492.10 19.40L492.10 19.40Q491.60 19.60 491.06 19.60L491.06 19.60Q490.52 19.60 490.06 19.40L490.06 19.40Q489.62 19.20 489.32 18.84L489.32 18.84Q489.02 18.48 488.88 18.02L488.88 18.02Q488.74 17.54 488.80 17L488.80 17Q488.88 16.46 489.16 15.98L489.16 15.98Q489.44 15.50 489.84 15.16L489.84 15.16Q490.24 14.80 490.74 14.60L490.74 14.60Q491.26 14.38 491.80 14.38L491.80 14.38Q492.34 14.38 492.78 14.60L492.78 14.60Q493.22 14.80 493.52 15.16L493.52 15.16Q493.84 15.50 493.96 15.98ZM492.12 17.80L492.12 17.80L492.12 17.80Q492.50 17.46 492.56 17L492.56 17Q492.64 16.52 492.34 16.20L492.34 16.20Q492.04 15.86 491.58 15.86L491.58 15.86Q491.10 15.86 490.74 16.20L490.74 16.20Q490.36 16.52 490.28 17L490.28 17Q490.22 17.46 490.50 17.80L490.50 17.80Q490.78 18.14 491.26 18.14L491.26 18.14Q491.72 18.14 492.12 17.80ZM508.44 10.84L510.34 10.84L510.34 10.84L509.10 19.58L512.72 19.58Q512.96 19.58 513.15 19.42Q513.34 19.26 513.38 19.02L513.38 19.02L514.80 9.00L513.96 9.00L516.52 3.46L531.88 3.46Q532.50 3.46 533.02 2.94L533.02 2.94Q533.54 2.42 533.64 1.78L533.64 1.78L533.70 1.62L517.60 1.62L518.10 0.74L514.20 0.74Q513.72 0.74 513.42 1.16L513.42 1.16L513.16 1.62L510.88 1.62Q510.50 1.62 510.18 1.98L510.18 1.98Q509.84 2.34 509.78 2.72L509.78 2.72L509.66 3.46L512.08 3.46L508.44 10.84ZM522.16 9.72L521 17.76L521 17.76L516.02 17.76Q515.48 17.76 515.10 18.08L515.10 18.08Q514.72 18.42 514.64 18.94L514.64 18.94L514.58 19.60L530.18 19.60Q530.62 19.60 530.92 19.20L530.92 19.20Q531.24 18.82 531.32 18.38L531.32 18.38L531.40 17.76L525.20 17.76L526.38 9.72L530.84 9.72Q531.42 9.72 531.86 9.34L531.86 9.34Q532.30 8.96 532.40 8.38L532.40 8.38L532.48 7.88L526.64 7.88L527.12 4.46L524.84 4.46Q524.02 4.46 523.40 5.00L523.40 5.00Q522.78 5.54 522.64 6.36L522.64 6.36L522.44 7.88L517.64 7.88Q517.18 7.88 516.86 8.16L516.86 8.16Q516.52 8.46 516.46 8.90L516.46 8.90L516.34 9.72L522.16 9.72ZM539.70 9.16L542.52 5.32L542.52 5.32L538.02 5.32L534.44 10.08L536.84 10.08L535.50 19.60L539.68 19.60L541.14 9.16L539.70 9.16ZM540.56 4.14L540.56 4.14L540.56 4.14L543.20 0.74L538.68 0.74L535.16 5.14L538.36 5.14Q539.60 5.14 540.56 4.14ZM556.82 10.40L557.74 10.40L557.74 10.40Q558.04 10.40 558.26 10.22L558.26 10.22Q558.48 10.02 558.54 9.72L558.54 9.72L558.66 8.78L543.62 8.78Q543.34 8.78 543.14 8.96L543.14 8.96Q542.92 9.14 542.88 9.42L542.88 9.42L542.76 10.40L552.74 10.40L552.56 11.66L542.98 11.66Q542.68 11.66 542.46 11.90L542.46 11.90Q542.24 12.14 542.20 12.44L542.20 12.44L542.08 13.38L552.32 13.38L551.78 17.26Q551.74 17.58 551.50 17.78L551.50 17.78Q551.26 17.96 550.94 17.96L550.94 17.96L549.78 17.96Q549.36 17.96 549.04 18.24L549.04 18.24Q548.72 18.54 548.66 18.96L548.66 18.96L548.58 19.60L553.34 19.60Q554.28 19.60 555 18.94L555 18.94Q555.74 18.32 555.86 17.38L555.86 17.38L556.42 13.38L557.40 13.38Q557.78 13.38 558.06 13.10L558.06 13.10Q558.32 12.82 558.38 12.44L558.38 12.44L558.50 11.66L556.64 11.66L556.82 10.40ZM550.60 16.80L550.86 15.10L550.86 15.10L543.36 14.18Q543.28 14.90 543.70 15.46L543.70 15.46Q544.14 16 544.88 16.10L544.88 16.10L550.60 16.80ZM559.70 0.74L549.20 0.74L549.20 0.74L548.98 2.38L555.30 2.38L555.14 3.48L547.88 3.48L548 2.54L548.24 0.74L544.10 0.74L543.40 5.78Q543.28 6.74 543.82 7.38L543.82 7.38Q544.36 8.06 545.30 8.06L545.30 8.06L556.50 8.06Q557.40 8.06 558.12 7.40L558.12 7.40Q558.84 6.74 558.98 5.80L558.98 5.80L559.70 0.74ZM554.92 5.14L554.84 5.70L554.84 5.70Q554.80 6.02 554.54 6.22L554.54 6.22Q554.30 6.40 553.98 6.40L553.98 6.40L548.20 6.40Q547.90 6.40 547.72 6.22L547.72 6.22Q547.58 6.06 547.56 5.86L547.56 5.86Q547.56 5.78 547.58 5.70L547.58 5.70L547.66 5.14L554.92 5.14ZM547.58 5.70L547.66 5.14L547.66 5.14L547.58 5.70Q547.56 5.78 547.56 5.86L547.56 5.86Q547.56 5.78 547.58 5.70L547.58 5.70ZM547.56 5.86L547.56 5.86L547.56 5.86Q547.58 6.06 547.72 6.22L547.72 6.22Q547.90 6.40 548.20 6.40L548.20 6.40Q547.90 6.40 547.72 6.22L547.72 6.22Q547.58 6.06 547.56 5.86ZM548 2.54L547.88 3.48L547.88 3.48L548 2.56L548.04 2.38L548 2.56L548.24 0.74L548 2.54ZM554.54 6.22L554.54 6.22L554.54 6.22Q554.30 6.40 553.98 6.40L553.98 6.40Q554.30 6.40 554.54 6.22L554.54 6.22Q554.80 6.02 554.84 5.70L554.84 5.70L554.92 5.14L554.84 5.70Q554.80 6.02 554.54 6.22ZM570.78 8.16L570.84 9.00L570.84 9.00L574.82 9.00L574.62 5.20Q574.56 4.52 574.11 4.08Q573.66 3.64 573.04 3.64L573.04 3.64L570.54 3.64L570.70 6.60L567.14 6.90Q566.88 6.90 566.76 6.70L566.76 6.70Q566.64 6.48 566.76 6.24L566.76 6.24L568.32 2.80L575.04 2.80Q575.30 2.80 575.49 2.63Q575.68 2.46 575.72 2.18L575.72 2.18L575.90 0.96L563.72 0.96Q563.36 0.96 563.12 1.18Q562.88 1.40 562.82 1.76L562.82 1.76L562.66 2.80L564.18 2.80L562.28 6.86Q561.96 7.60 562.30 8.22L562.30 8.22Q562.72 8.84 563.42 8.80L563.42 8.80L570.78 8.16ZM565.20 17.42L561.44 17.58L561.44 17.58Q561.10 17.60 560.87 17.82Q560.64 18.04 560.58 18.38L560.58 18.38L560.44 19.50L572.86 19Q573.12 18.98 573.31 18.80Q573.50 18.62 573.56 18.34L573.56 18.34L573.72 17.10L569.22 17.28L569.74 13.30L573.50 13.30Q573.80 13.30 574 13.11Q574.20 12.92 574.24 12.62L574.24 12.62L574.40 11.46L570 11.46L570.30 9.14L567.08 9.14Q566.76 9.14 566.51 9.36Q566.26 9.58 566.20 9.94L566.20 9.94L566 11.46L562.30 11.46Q562 11.46 561.77 11.67Q561.54 11.88 561.48 12.20L561.48 12.20L561.34 13.30L565.76 13.30L565.20 17.42ZM576.68 3.24L574.86 16.86L574.86 16.86L576.86 16.86Q577.50 16.86 577.96 16.43Q578.42 16 578.52 15.34L578.52 15.34L580.44 1.10L579.04 1.10Q578.16 1.10 577.49 1.70Q576.82 2.30 576.68 3.24L576.68 3.24ZM583.48 17.38L583.48 17.38L583.48 17.38L585.70 0.76L582.78 0.76Q582.32 0.76 581.99 1.06Q581.66 1.36 581.56 1.84L581.56 1.84L579.50 17.26Q579.46 17.56 579.24 17.78L579.24 17.78Q579.02 18 578.70 18L578.70 18L577.10 18Q576.54 18 576.11 18.39Q575.68 18.78 575.60 19.38L575.60 19.38L575.56 19.58L581.08 19.58Q581.94 19.58 582.64 18.94L582.64 18.94Q583.34 18.30 583.48 17.38ZM594.64 7.06L592.80 7.06L592.80 7.06L593.06 5.28L598.58 5.28L597.58 12.38Q597.46 13.28 596.76 13.96L596.76 13.96Q596.02 14.60 595.14 14.60L595.14 14.60L591.24 14.60L590.84 17.36Q590.74 18.30 590.06 18.94L590.06 18.94Q589.34 19.60 588.46 19.60L588.46 19.60L586.44 19.60L589.14 0.74L593.22 0.74L591.48 12.80L592.90 12.80Q593.32 12.80 593.62 12.52L593.62 12.52Q593.92 12.24 593.96 11.82L593.96 11.82L594.64 7.06ZM598.54 2.72L593.42 2.72L593.42 2.72L593.70 0.74L599.36 0.74L599.16 2.14Q599.12 2.38 598.94 2.54L598.94 2.54Q598.76 2.72 598.54 2.72L598.54 2.72ZM600.36 0.74L604.46 0.74L604.46 0.74L602.08 17.36Q602 18.30 601.32 18.94L601.32 18.94Q600.58 19.60 599.70 19.60L599.70 19.60L597.68 19.60L600.36 0.74ZM610.76 2.72L604.64 2.72L604.64 2.72L604.94 0.74L611.70 0.74L611.52 2.04Q611.46 2.34 611.26 2.52L611.26 2.52Q611.04 2.72 610.76 2.72L610.76 2.72ZM604.24 5.56L611.10 5.56L611.10 5.56L610.84 7.58Q610.82 7.72 610.72 7.80L610.72 7.80Q610.62 7.88 610.48 7.88L610.48 7.88L609.98 7.88L608.36 19.16Q608.36 19.24 608.33 19.32Q608.30 19.40 608.24 19.46L608.24 19.46Q608.10 19.60 607.92 19.60L607.92 19.60L604.26 19.60L605.94 7.88L603.92 7.88L604.24 5.56ZM637.38 3.12L637.70 1.40L637.70 1.40L620.82 1.40L621.34 0.74L617.02 0.74L616.54 1.40L614.06 1.40Q613.82 1.40 613.62 1.64L613.62 1.64Q613.44 1.90 613.40 2.16L613.40 2.16L613.10 3.60L615.20 3.60L612.44 7.90L614.86 7.90L613.16 19.60L615.90 19.60Q616.46 19.60 616.88 19.23Q617.30 18.86 617.40 18.30L617.40 18.30L617.82 15.16L630.50 15.16L630.24 17.16Q630.22 17.28 630.16 17.36L630.16 17.36Q630.10 17.42 630 17.50L630 17.50Q629.98 17.52 629.92 17.54L629.92 17.54Q629.82 17.64 629.72 17.66L629.72 17.66Q629.60 17.66 629.48 17.66L629.48 17.66Q629.44 17.66 629.38 17.66L629.38 17.66L627.24 17.66Q626.82 17.66 626.52 18.02L626.52 18.02Q626.20 18.36 626.14 18.80L626.14 18.80L626.04 19.60L631.56 19.60Q632.50 19.60 633.28 19.06L633.28 19.06Q634.04 18.50 634.18 17.42L634.18 17.42L635.90 5.28L620.12 5.28L619.86 6.84L631.68 6.84L631.40 8.96L618.72 8.96L619.26 5.28L618.44 5.28L619.46 3.60L636.82 3.60Q637.04 3.60 637.20 3.46L637.20 3.46Q637.34 3.32 637.38 3.12L637.38 3.12ZM618.14 13.10L618.46 11.14L618.46 11.14L631.14 11.14L630.82 13.10L618.14 13.10ZM657.04 13.26L643.86 13.26L643.86 13.26L644.06 11.64L661.10 11.64L660.26 17.34Q660.14 18.26 659.46 18.92L659.46 18.92Q658.78 19.60 657.92 19.60L657.92 19.60L640.22 19.60Q639.34 19.60 638.84 18.92L638.84 18.92Q638.34 18.26 638.48 17.34L638.48 17.34L639.32 11.64L643.14 11.64L642.34 16.98Q642.30 17.40 642.54 17.68L642.54 17.68Q642.80 17.96 643.18 17.96L643.18 17.96L655.36 17.96Q655.76 17.96 656.08 17.68L656.08 17.68Q656.40 17.40 656.46 16.98L656.46 16.98L657.04 13.26ZM643.82 7.84L643.82 7.84L643.82 7.84L642.42 10.18L638.52 10.16L640.28 7.22Q640.60 6.62 641.14 6.30L641.14 6.30Q641.66 5.96 642.26 5.96L642.26 5.96L660 5.96Q660.58 5.96 661.04 6.30L661.04 6.30Q661.50 6.62 661.66 7.22L661.66 7.22L662.64 10.18L658.72 10.18L657.96 7.84Q657.82 7.60 657.58 7.60L657.58 7.60L644.26 7.60Q644.02 7.60 643.82 7.84ZM657.08 10.34L643.90 10.34L643.90 10.34L644.10 8.72L657.30 8.72L657.08 10.34ZM643.82 2.80L645.58 2.80L645.58 2.80L645.68 3.46Q645.98 4.58 646.96 4.58L646.96 4.58L649.78 4.58L649.46 2.86L651.24 2.80L651.46 1.26L644.66 1.26L644.92 0.74L641.12 0.74Q640.76 0.74 640.52 1.12L640.52 1.12L638.78 4.58L641.86 4.58Q642.88 4.58 643.52 3.46L643.52 3.46L643.82 2.80ZM656.08 2.80L658.28 2.80L658.28 2.80L658.42 3.66Q658.66 4.58 659.48 4.58L659.48 4.58L662.34 4.58L662.02 2.86L663.50 2.80L663.70 1.26L656.90 1.26L657.18 0.74L653.42 0.74Q653 0.74 652.74 1.20L652.74 1.20L651.02 4.58L654.06 4.58Q655.12 4.58 655.80 3.40L655.80 3.40L656.08 2.80ZM667.78 4.28L667.30 4.28L667.30 4.28Q667 4.28 666.78 4.48Q666.56 4.68 666.52 5.00L666.52 5.00L666.40 5.78L667.56 5.78L667.38 7.14Q667.30 7.76 667.66 8.26L667.66 8.26Q668.02 8.74 668.60 8.82L668.60 8.82L670.82 9.08L666.86 9.56Q666.38 9.62 666.04 9.98Q665.70 10.34 665.62 10.86L665.62 10.86L665.58 11.22L677.26 9.86L688.62 11.22L688.62 11.22Q688.70 10.58 688.34 10.09Q687.98 9.60 687.38 9.52L687.38 9.52L683.90 9.08L686.20 8.82Q686.84 8.74 687.32 8.26L687.32 8.26Q687.80 7.76 687.90 7.14L687.90 7.14L688.08 5.78L688.54 5.78Q688.86 5.78 689.08 5.58Q689.30 5.38 689.34 5.06L689.34 5.06L689.44 4.28L688.28 4.28L688.34 3.78L685 3.78Q684.80 3.78 684.65 3.91Q684.50 4.04 684.48 4.26L684.48 4.26L684.48 4.28L671.56 4.28L671.62 3.78L668.18 3.78Q668.04 3.78 667.93 3.87Q667.82 3.96 667.80 4.12L667.80 4.12L667.78 4.28ZM681.98 13.38L682.56 15.58L682.56 15.58Q683.02 17.38 684.39 18.49Q685.76 19.60 687.50 19.60L687.50 19.60L687.50 19.60L685.94 13.38L687.74 13.38Q688 13.38 688.19 13.20Q688.38 13.02 688.42 12.74L688.42 12.74L688.54 11.78L678.98 11.78L679.12 10.78L675.90 10.78Q675.58 10.78 675.35 11Q675.12 11.22 675.06 11.56L675.06 11.56L675.04 11.78L666.10 11.78Q665.84 11.78 665.64 11.96Q665.44 12.14 665.40 12.40L665.40 12.40L665.26 13.38L667.66 13.38L664.44 19.60L665.32 19.60Q668.18 19.60 669.86 16.78L669.86 16.78L671.60 13.38L674.82 13.38L674 19.60L677.40 19.60Q677.64 19.60 677.80 19.44Q677.96 19.28 678 19.04L678 19.04L678.78 13.38L681.98 13.38ZM666.78 2.70L666.78 2.70L666.78 2.70L666.66 3.50L670.62 3.50L670.70 2.92Q670.72 2.82 670.79 2.75Q670.86 2.68 670.96 2.68L670.96 2.68L685.52 2.68Q685.60 2.68 685.66 2.75Q685.72 2.82 685.72 2.92L685.72 2.92L685.64 3.50L689.56 3.50L689.68 2.70Q689.76 2.10 689.42 1.66L689.42 1.66Q689.06 1.24 688.46 1.24L688.46 1.24L680.40 1.24L680.40 1.24Q680.42 1.04 680.29 0.89Q680.16 0.74 679.96 0.74L679.96 0.74L676.54 0.74L676.48 1.24L668.38 1.24Q667.80 1.24 667.32 1.66L667.32 1.66Q666.86 2.10 666.78 2.70ZM683.82 7.52L677.48 8.28L677.48 8.28L671.34 7.52Q671.14 7.48 671.16 7.28L671.16 7.28L671.36 5.78L684.26 5.78L684.06 7.28Q684.02 7.48 683.82 7.52L683.82 7.52ZM714.66 2.12L714.52 4.58L714.52 4.58L697.26 18.54Q696.04 19.58 694.58 19.58L694.58 19.58L690.40 19.58L709.50 4.42L693.58 4.42Q692.94 4.42 692.56 3.88L692.56 3.88Q692.16 3.36 692.24 2.60L692.24 2.60L692.28 2.12L701.14 2.12L701.38 0.76L704.66 0.76Q705.20 0.76 705.43 1.06Q705.66 1.36 705.56 1.74L705.56 1.74L705.48 2.12L714.66 2.12ZM711.90 19.60L694.80 18.42L694.80 18.42L696.44 15.92L715.66 17.34L713.78 19.04Q712.92 19.66 711.90 19.60L711.90 19.60ZM722.82 4.56L722.64 6.00L722.64 6.00L726.28 6.00L725.94 8.52L721.76 8.52L722.04 6.54L722.04 6.50L722.10 6.06L722.10 6.00L722.30 4.56L719.06 4.56Q718.54 4.56 718.40 5.16L718.40 5.16L716.44 19.60L718.52 19.60Q719.28 19.60 719.83 19.12Q720.38 18.64 720.50 17.90L720.50 17.90L721.02 13.96L725.20 13.96L724.82 16.96Q724.74 17.38 724.40 17.66L724.40 17.66Q724.08 17.96 723.68 17.96L723.68 17.96L723.56 17.96Q723.22 17.96 722.98 18.16L722.98 18.16Q722.72 18.38 722.66 18.72L722.66 18.72L722.54 19.60L726.18 19.60Q727.06 19.60 727.76 18.90L727.76 18.90Q728.46 18.24 728.58 17.32L728.58 17.32L730.32 4.56L722.82 4.56ZM741.70 1.64L739.40 1.64L739.40 1.64L739.74 0.74L736.16 0.74Q735.98 0.74 735.82 0.90L735.82 0.90Q735.66 1.04 735.58 1.22L735.58 1.22L735.42 1.64L724.90 1.64L724.88 1.30Q724.84 1.08 724.70 0.92L724.70 0.92Q724.56 0.74 724.32 0.74L724.32 0.74L720.76 0.74L720.84 1.64L719.28 1.64Q718.72 1.64 718.60 2.26L718.60 2.26L718.40 3.82L740.48 3.82Q740.84 3.82 741.14 3.58L741.14 3.58Q741.44 3.34 741.50 2.96L741.50 2.96L741.70 1.64ZM725.74 10.18L725.40 12.52L725.40 12.52L721.22 12.52L721.56 10.18L725.74 10.18ZM734.44 13.92L734.44 13.92L734.44 13.92L735.64 5.10L734 5.10Q733 5.10 732.32 5.70L732.32 5.70Q731.64 6.30 731.52 7.12L731.52 7.12L730.32 16.14L732.34 16.14Q734.40 16.14 734.44 13.92ZM736.90 6.10L736.90 6.10L736.90 6.10L735.44 16.96Q735.40 17.38 735.08 17.66L735.08 17.66Q734.80 17.96 734.40 17.96L734.40 17.96L733.38 17.96Q732.84 17.96 732.38 18.34L732.38 18.34Q731.90 18.72 731.80 19.28L731.80 19.28L731.76 19.60L737 19.60Q737.86 19.60 738.58 18.90L738.58 18.90Q739.26 18.24 739.38 17.32L739.38 17.32L741.12 4.56L738.70 4.56Q738.06 4.56 737.54 4.98L737.54 4.98Q737 5.42 736.90 6.10ZM742.44 19.60L742.44 19.60L742.44 19.60L745.28 19.60Q745.86 18.94 746.47 17.92Q747.08 16.90 747.56 15.82L747.56 15.82Q747.88 15.00 747.43 14.31Q746.98 13.62 746.14 13.62L746.14 13.62L746.14 13.62Q745.10 13.62 744.64 14.76L744.64 14.76Q744.26 16.02 743.65 17.35Q743.04 18.68 742.44 19.60ZM771.20 1.98L771 3.62L771 3.62L770.38 3.68Q770.14 3.70 769.94 3.90L769.94 3.90Q769.76 4.10 769.70 4.40L769.70 4.40L769.52 5.80L770.72 5.70L769.20 17.80Q769.10 18.52 769.50 19.02L769.50 19.02Q769.90 19.54 770.56 19.54L770.56 19.54L786.70 19.54L786.76 19.10Q786.84 18.36 786.42 17.84L786.42 17.84Q786.02 17.32 785.40 17.32L785.40 17.32L773.74 17.32Q773.46 17.32 773.30 17.10L773.30 17.10Q773.14 16.88 773.18 16.58L773.18 16.58L774.56 5.40L777.16 5.08L775.76 16.18L777.06 16.18Q778 16.18 778.70 15.50L778.70 15.50Q779.40 14.86 779.56 13.70L779.56 13.70L780.68 4.68L783.70 4.24Q783.84 4.22 783.94 4.26L783.94 4.26Q784.02 4.30 784 4.44L784 4.44L782.86 13.70Q782.82 14.00 782.64 14.20L782.64 14.20Q782.40 14.44 782.10 14.44L782.10 14.44L780.66 14.44Q780.28 14.44 780 14.72L780 14.72Q779.70 15.00 779.64 15.44L779.64 15.44L779.56 16.06L784.34 16.06Q785 16.06 785.52 15.54L785.52 15.54Q786.04 15.04 786.14 14.32L786.14 14.32L787.52 3.06Q787.62 2.34 787.20 1.94L787.20 1.94Q786.78 1.56 786.14 1.62L786.14 1.62L780.98 2.50L781.20 0.74L778.70 0.74Q778.26 0.74 777.94 1.04L777.94 1.04Q777.62 1.36 777.58 1.82L777.58 1.82L777.44 2.96L774.84 3.30L775.10 1.24L771.96 1.24Q771.66 1.24 771.46 1.44L771.46 1.44Q771.26 1.66 771.20 1.98L771.20 1.98ZM766.40 1L766.40 1L766.40 1L769.96 1L767.50 6.28L768.60 6.28L766.70 18.86Q766.66 19.18 766.43 19.39Q766.20 19.60 765.90 19.60L765.90 19.60L762.70 19.60L764.46 7.90L762.62 7.90L765.68 1.48Q765.94 1 766.40 1ZM797.66 0.84L797.84 3.64L797.84 3.64L801.98 3.64L801.88 2.10Q801.84 1.56 801.45 1.20Q801.06 0.84 800.52 0.84L800.52 0.84L797.66 0.84ZM797.38 5.56L795.40 19.58L795.40 19.58L799.54 19.58L801.66 4.64L798.46 4.64Q798.04 4.64 797.74 4.90Q797.44 5.16 797.38 5.56L797.38 5.56ZM811.44 17.40L811.44 17.40L811.44 17.40L813.74 1.16L803.48 1.16L803.24 2.92L809.34 2.92L807.32 17.28Q807.28 17.60 807.04 17.80L807.04 17.80Q806.78 18 806.50 18L806.50 18L805.72 18Q805.30 18 804.99 18.28Q804.68 18.56 804.60 18.98L804.60 18.98L804.52 19.58L808.96 19.58Q809.86 19.58 810.60 18.94L810.60 18.94Q811.32 18.30 811.44 17.40ZM792.58 0.76L792.58 0.76L792.58 0.76L796.36 0.76L793.76 6.12L794.94 6.12L792.92 18.86Q792.86 19.18 792.62 19.39Q792.38 19.60 792.06 19.60L792.06 19.60L788.64 19.60L790.54 7.74L788.58 7.74L791.82 1.24Q792.10 0.76 792.58 0.76ZM837.20 9.00L828.98 9.00L828.98 9.00L828.78 10.50L838.54 10.50L838.40 11.42Q838.36 11.74 838.13 11.95Q837.90 12.16 837.58 12.16L837.58 12.16L828.54 12.16L828.44 12.98L824.20 12.98L824.32 12.16L814.56 12.16L814.70 11.24Q814.74 10.92 814.98 10.71Q815.22 10.50 815.54 10.50L815.54 10.50L824.56 10.50L824.76 9.00L815.82 9.00L815.94 8.10Q816 7.76 816.23 7.56Q816.46 7.36 816.78 7.36L816.78 7.36L824.98 7.36L825.16 6.02L815.74 6.02L815.86 5.16Q815.92 4.82 816.17 4.60Q816.42 4.38 816.74 4.38L816.74 4.38L825.40 4.38L825.40 4.38Q825.46 4.02 825.72 3.78Q825.98 3.54 826.34 3.54L826.34 3.54L829.74 3.54L829.62 4.38L839.06 4.38L838.92 5.36Q838.88 5.66 838.66 5.84Q838.44 6.02 838.16 6.02L838.16 6.02L829.40 6.02L829.22 7.36L838.16 7.36L838.02 8.28Q837.98 8.60 837.75 8.80Q837.52 9.00 837.20 9.00L837.20 9.00ZM839.12 2.00L839.12 2.00L839.12 2.00Q839.62 2.60 839.52 3.40L839.52 3.40L839.44 3.88L835.38 3.88L835.44 3.52Q835.44 3.32 835.30 3.18L835.30 3.18Q835.16 3.06 834.96 3.06L834.96 3.06L820.86 3.06L821.10 1.40L825.80 1.40L825.90 0.74L829.46 0.74Q829.72 0.74 829.89 0.93Q830.06 1.12 830.04 1.40L830.04 1.40L830.04 1.40L837.84 1.40Q838.64 1.40 839.12 2.00ZM820.12 1.40L819.82 3.52L819.82 3.52L819.80 3.66L819.80 3.72L819.78 3.88L815.72 3.88L815.78 3.40Q815.90 2.60 816.54 2.00L816.54 2.00Q817.22 1.40 818 1.40L818 1.40L820.12 1.40ZM833.20 14.96L819.70 14.96L819.70 14.96L819.94 13.30L837.66 13.30L837.10 17.38Q836.96 18.28 836.22 18.94L836.22 18.94Q835.48 19.60 834.56 19.60L834.56 19.60L816.28 19.60Q815.38 19.60 814.88 18.94L814.88 18.94Q814.36 18.28 814.50 17.38L814.50 17.38L815.06 13.30L819.12 13.30L818.90 14.90L818.90 14.96L818.88 15.08L818.88 15.12L818.62 17.02Q818.54 17.42 818.78 17.68L818.78 17.68Q819 17.94 819.40 17.94L819.40 17.94L831.90 17.94Q832.30 17.94 832.58 17.68L832.58 17.68Q832.88 17.42 832.92 17.02L832.92 17.02L833.20 14.96ZM860.18 2.14L860.18 2.14L860.18 2.14L865.70 2.14L863.98 17.22Q863.92 17.70 863.70 18.14L863.70 18.14Q863.46 18.60 863.12 18.92L863.12 18.92Q862.78 19.24 862.34 19.44L862.34 19.44Q861.90 19.60 861.44 19.60L861.44 19.60L850.92 19.60Q850.44 19.60 850.04 19.44L850.04 19.44Q849.64 19.26 849.36 18.94L849.36 18.94Q849.08 18.60 848.94 18.16L848.94 18.16Q848.80 17.72 848.86 17.22L848.86 17.22L850.58 2.14L854.68 2.14L854.52 3.52L854.46 4.04L853.86 9.32L860.78 9.32L861.46 3.46L855.16 3.46L855.30 2.14L856.08 2.14L856.24 0.84L859.06 0.84Q859.56 0.84 859.90 1.23Q860.24 1.62 860.18 2.14L860.18 2.14ZM859.84 17.70L859.84 17.70L859.84 17.70L860.60 11.06L853.66 11.06L852.90 17.72Q852.88 17.82 852.90 17.89Q852.92 17.96 852.98 18.04L852.98 18.04Q853.04 18.10 853.11 18.16Q853.18 18.22 853.28 18.22L853.28 18.22L859.38 18.22Q859.48 18.22 859.55 18.18Q859.62 18.14 859.70 18.06L859.70 18.06Q859.78 17.98 859.80 17.89Q859.82 17.80 859.84 17.70ZM842.86 14.32L842.86 14.32L842.86 14.32L844.02 4.46L842 4.46L840.44 17.28Q842.48 17.12 842.86 14.32ZM845.56 19.10L845.56 19.10L845.56 19.10Q845.24 19.44 844.80 19.44L844.80 19.44L842.70 19.44L844.70 1.88Q844.76 1.38 845.08 1.06L845.08 1.06Q845.36 0.74 845.78 0.74L845.78 0.74L847.94 0.74L845.94 18.24Q845.88 18.76 845.56 19.10ZM849.74 4.82L849.74 4.82L849.74 4.82Q849.62 4.68 849.44 4.68L849.44 4.68L847.84 4.68L847.06 11.68Q847.02 12.36 847.38 12.88L847.38 12.88Q847.72 13.38 848.30 13.38L848.30 13.38L848.90 13.38L849.82 5.20Q849.84 4.98 849.74 4.82ZM872.16 0.78L875.42 0.78L875.42 0.78L875.18 2.44L876.38 2.44L876.18 3.74Q876.14 3.98 875.94 4.12Q875.74 4.26 875.48 4.26L875.48 4.26L874.90 4.26L874.04 10.16L875.20 10L874.96 11.48Q874.92 11.74 874.72 11.93Q874.52 12.12 874.24 12.16L874.24 12.16L873.74 12.22L873.12 16.48Q873.02 17.76 872.22 18.68L872.22 18.68Q871.40 19.58 870.34 19.58L870.34 19.58L866.74 19.58L866.94 17.94L867.92 17.94Q868.36 17.94 868.72 17.54L868.72 17.54Q869.08 17.14 869.12 16.54L869.12 16.54L869.68 12.76L867.46 13.06L867.80 11.44Q867.86 11.24 868.03 11.09Q868.20 10.94 868.42 10.90L868.42 10.90L869.98 10.70L870.92 4.26L868.80 4.26L869.14 2.84Q869.30 2.44 869.74 2.44L869.74 2.44L871.20 2.44L871.32 1.64Q871.34 1.26 871.59 1.02Q871.84 0.78 872.16 0.78L872.16 0.78ZM880.06 17.40L888.70 17.40L888.70 17.40Q889.12 17.40 889.37 17.75Q889.62 18.10 889.56 18.56L889.56 18.56L889.44 19.58L877.34 19.58Q876.40 19.58 875.84 18.90L875.84 18.90Q875.28 18.20 875.42 17.18L875.42 17.18L877.44 1.34L881.28 1.34L881.04 3.26L881.02 3.34L881 3.44L881 3.52L880.10 10.46L881.44 10.46L882.36 3.34L881.36 3.34L881.62 1.34L891.44 1.34L890.26 10.50Q890.18 11.42 889.52 12.04L889.52 12.04Q888.90 12.64 888.06 12.64L888.06 12.64L879.82 12.64L879.34 16.50Q879.28 16.90 879.48 17.16L879.48 17.16Q879.68 17.40 880.06 17.40L880.06 17.40ZM887.52 3.34L886.02 3.34L886.02 3.34L885.10 10.46L886 10.46Q886.24 10.46 886.44 10.32L886.44 10.32Q886.64 10.16 886.68 9.90L886.68 9.90L887.52 3.34ZM906.50 1.44L906.44 1.86L906.44 1.86L917.72 1.86L915.56 17.32Q915.42 18.26 914.68 18.92L914.68 18.92Q913.94 19.58 913.02 19.58L913.02 19.58L894.36 19.58Q893.44 19.58 892.90 18.92L892.90 18.92Q892.38 18.26 892.50 17.32L892.50 17.32L894.64 1.86L898.76 1.86L898.12 6.40L912.96 6.40L913.32 3.82L899.38 3.82L899.66 1.86L902.52 1.86L902.66 0.76L905.94 0.76Q906.22 0.76 906.38 0.96Q906.54 1.16 906.50 1.44L906.50 1.44ZM911.56 16.60L911.56 16.60L911.56 16.60L911.90 14.16L897.04 14.16L896.72 16.60Q896.64 17.02 896.88 17.30L896.88 17.30Q897.10 17.60 897.50 17.60L897.50 17.60L910.42 17.60Q910.84 17.60 911.16 17.30L911.16 17.30Q911.48 17.02 911.56 16.60ZM897.38 11.80L912.22 11.80L912.22 11.80L912.64 8.72L897.80 8.72L897.38 11.80ZM939.40 17.34L924.26 17.34L924.26 17.34Q923.86 17.34 923.62 17.04L923.62 17.04Q923.38 16.76 923.44 16.34L923.44 16.34L924.56 8.18L919.88 8.18L918.64 17.34Q918.52 18.30 919.06 18.96L919.06 18.96Q919.60 19.60 920.48 19.60L920.48 19.60L941.82 19.60L941.74 19Q940.98 17.34 939.40 17.34L939.40 17.34ZM924.82 10.74L940.08 10.74L940.08 10.74Q940.96 10.74 941.68 10.08L941.68 10.08Q942.40 9.44 942.52 8.48L942.52 8.48L943.56 0.74L920.66 0.74L920.52 1.84Q920.46 2.42 920.83 2.83Q921.20 3.24 921.76 3.24L921.76 3.24L939.16 3.24L938.64 7.18Q938.58 7.60 938.26 7.88L938.26 7.88Q937.96 8.18 937.54 8.18L937.54 8.18L925.20 8.18L924.82 10.74ZM966.90 19.60L959.12 14.36L959.12 14.36L967.22 9.44L964.12 9.44Q962.56 9.44 961.18 10.20L961.18 10.20L956.76 12.84L953.16 10.10Q952.30 9.50 951.30 9.50L951.30 9.50L947.40 9.50L953.96 14.26L944.62 19.60L947.36 19.60Q949.76 19.60 951.92 18.54L951.92 18.54L956.42 16.02L960.36 18.64Q961.38 19.34 962.25 19.49Q963.12 19.64 964.28 19.60L964.28 19.60Q964.62 19.60 965.00 19.60L965.00 19.60L966.90 19.60ZM946.84 8.92L946.84 8.92L946.84 8.92L954.88 6.82L953.52 4.70L949.02 5.84Q947.92 6.16 947.34 7.08L947.34 7.08Q946.76 7.98 946.84 8.92ZM969.52 1.84L960.40 1.84L960.40 1.84L960.68 0.74L956.60 0.74Q956.08 0.74 955.72 0.86L955.72 0.86Q955.36 0.98 955.18 1.42L955.18 1.42L955.10 1.84L948.06 1.84Q947.50 1.84 947.18 2.16L947.18 2.16Q946.84 2.46 946.74 2.88L946.74 2.88L946.48 3.92L968.14 3.92Q968.54 3.92 968.88 3.72L968.88 3.72Q969.20 3.54 969.26 3.20L969.26 3.20L969.52 1.84ZM959.86 6.86L967.74 9.04L967.74 9.04Q968.18 8.16 967.74 7.32L967.74 7.32Q967.32 6.50 966.22 6.14L966.22 6.14L961.16 4.70L959.86 6.86ZM981.48 3.58L976.22 11.78L976.22 11.78Q976.22 11.80 976.21 11.80Q976.20 11.80 976.20 11.80L976.20 11.80Q976.20 11.80 976.20 11.80Q976.20 11.80 976.20 11.82L976.20 11.82Q976.10 11.96 976.10 12.04L976.10 12.04Q976.10 12.14 976.32 12.12L976.32 12.12L979.44 11.82Q979.66 11.82 979.80 11.96L979.80 11.96Q979.90 12.10 979.88 12.34L979.88 12.34L979.42 14.06L971.92 14.82Q971.58 14.84 971.44 14.56L971.44 14.56Q971.28 14.28 971.44 13.98L971.44 13.98L975.48 8.14L972.22 8.14Q971.88 8.14 971.72 7.88L971.72 7.88Q971.58 7.62 971.76 7.32L971.76 7.32L975.42 1.32Q975.62 0.92 976.30 0.92L976.30 0.92L978.68 0.92L975.46 6.32Q975.22 6.72 975.60 6.72L975.60 6.72L976.36 6.72L978.06 3.96Q978.32 3.58 978.66 3.58L978.66 3.58L981.48 3.58ZM971.18 17.02L971.18 17.02L971.18 17.02Q971.44 16.80 971.78 16.76L971.78 16.76L979.16 16.14L978.92 17.54Q978.86 17.82 978.64 18.02L978.64 18.02Q978.44 18.20 978.18 18.24L978.18 18.24L970.64 18.84L970.84 17.64Q970.92 17.28 971.18 17.02ZM986.78 2.80L986.78 2.80L986.78 2.80L985.80 4.52L982.48 4.52Q982.26 4.52 982.14 4.33Q982.02 4.14 982.14 3.92L982.14 3.92L983.16 2.06Q983.46 1.50 984.02 1.14L984.02 1.14Q984.58 0.76 985.16 0.76L985.16 0.76L993.34 0.76Q993.92 0.76 994.38 1.14L994.38 1.14Q994.86 1.50 995.02 2.06L995.02 2.06L995.54 3.96Q995.60 4.18 995.47 4.35Q995.34 4.52 995.14 4.52L995.14 4.52L991.68 4.52L991.18 2.80Q991.04 2.34 990.58 2.34L990.58 2.34L987.52 2.34Q987.00 2.34 986.78 2.80ZM994.30 8.08L981.46 8.08L981.46 8.08L981.58 7.12Q981.62 6.86 981.82 6.69Q982.02 6.52 982.26 6.52L982.26 6.52L995.26 6.52L995.14 7.32Q995.10 7.64 994.86 7.86Q994.62 8.08 994.30 8.08L994.30 8.08ZM990.56 11.58L985.88 11.58L985.88 11.58L986.08 10.02L994.70 10.02L993.60 17.60Q993.52 18.40 992.90 19L992.90 19Q992.28 19.58 991.50 19.58L991.50 19.58L981.90 19.58Q981.12 19.58 980.66 19L980.66 19Q980.20 18.40 980.32 17.60L980.32 17.60L981.40 10.02L985.32 10.02L985.12 11.58L985.12 11.60L985.00 12.46L984.98 12.52L984.24 17.60Q984.24 17.68 984.26 17.75Q984.28 17.82 984.34 17.88L984.34 17.88Q984.38 17.94 984.45 17.97Q984.52 18 984.60 18L984.60 18L989.24 18Q989.40 18 989.52 17.88L989.52 17.88Q989.64 17.76 989.68 17.60L989.68 17.60L990.56 11.58ZM1010.50 1.44L1010.44 1.86L1010.44 1.86L1021.72 1.86L1019.56 17.32Q1019.42 18.26 1018.68 18.92L1018.68 18.92Q1017.94 19.58 1017.02 19.58L1017.02 19.58L998.36 19.58Q997.44 19.58 996.90 18.92L996.90 18.92Q996.38 18.26 996.50 17.32L996.50 17.32L998.64 1.86L1002.76 1.86L1002.12 6.40L1016.96 6.40L1017.32 3.82L1003.38 3.82L1003.66 1.86L1006.52 1.86L1006.66 0.76L1009.94 0.76Q1010.22 0.76 1010.38 0.96Q1010.54 1.16 1010.50 1.44L1010.50 1.44ZM1015.56 16.60L1015.56 16.60L1015.56 16.60L1015.90 14.16L1001.04 14.16L1000.72 16.60Q1000.64 17.02 1000.88 17.30L1000.88 17.30Q1001.10 17.60 1001.50 17.60L1001.50 17.60L1014.42 17.60Q1014.84 17.60 1015.16 17.30L1015.16 17.30Q1015.48 17.02 1015.56 16.60ZM1001.38 11.80L1016.22 11.80L1016.22 11.80L1016.64 8.72L1001.80 8.72L1001.38 11.80ZM1043.40 17.34L1028.26 17.34L1028.26 17.34Q1027.86 17.34 1027.62 17.04L1027.62 17.04Q1027.38 16.76 1027.44 16.34L1027.44 16.34L1028.56 8.18L1023.88 8.18L1022.64 17.34Q1022.52 18.30 1023.06 18.96L1023.06 18.96Q1023.60 19.60 1024.48 19.60L1024.48 19.60L1045.82 19.60L1045.74 19Q1044.98 17.34 1043.40 17.34L1043.40 17.34ZM1028.82 10.74L1044.08 10.74L1044.08 10.74Q1044.96 10.74 1045.68 10.08L1045.68 10.08Q1046.40 9.44 1046.52 8.48L1046.52 8.48L1047.56 0.74L1024.66 0.74L1024.52 1.84Q1024.46 2.42 1024.83 2.83Q1025.20 3.24 1025.76 3.24L1025.76 3.24L1043.16 3.24L1042.64 7.18Q1042.58 7.60 1042.26 7.88L1042.26 7.88Q1041.96 8.18 1041.54 8.18L1041.54 8.18L1029.20 8.18L1028.82 10.74ZM1053.98 15.98L1053.98 15.98L1053.98 15.98Q1054.12 16.46 1054.04 17L1054.04 17Q1053.98 17.54 1053.70 18.02L1053.70 18.02Q1053.44 18.48 1053.02 18.84L1053.02 18.84Q1052.62 19.20 1052.12 19.40L1052.12 19.40Q1051.62 19.60 1051.08 19.60L1051.08 19.60Q1050.54 19.60 1050.08 19.40L1050.08 19.40Q1049.64 19.20 1049.34 18.84L1049.34 18.84Q1049.04 18.48 1048.90 18.02L1048.90 18.02Q1048.76 17.54 1048.82 17L1048.82 17Q1048.90 16.46 1049.18 15.98L1049.18 15.98Q1049.46 15.50 1049.86 15.16L1049.86 15.16Q1050.26 14.80 1050.76 14.60L1050.76 14.60Q1051.28 14.38 1051.82 14.38L1051.82 14.38Q1052.36 14.38 1052.80 14.60L1052.80 14.60Q1053.24 14.80 1053.54 15.16L1053.54 15.16Q1053.86 15.50 1053.98 15.98ZM1052.14 17.80L1052.14 17.80L1052.14 17.80Q1052.52 17.46 1052.58 17L1052.58 17Q1052.66 16.52 1052.36 16.20L1052.36 16.20Q1052.06 15.86 1051.60 15.86L1051.60 15.86Q1051.12 15.86 1050.76 16.20L1050.76 16.20Q1050.38 16.52 1050.30 17L1050.30 17Q1050.24 17.46 1050.52 17.80L1050.52 17.80Q1050.80 18.14 1051.28 18.14L1051.28 18.14Q1051.74 18.14 1052.14 17.80Z"/></svg>