<svg xmlns="http://www.w3.org/2000/svg" xmlns:xlink="http://www.w3.org/1999/xlink" width="424.03999999999996" height="20"><path fill="black" d="M4 19.60L0.94 19.60L0.94 19.60L2.44 9.14L0.38 9.14L3 5.38Q3.20 5.12 3.50 5.12L3.50 5.12L7.42 5.12L5.32 8.42L6.58 8.42L5.12 18.64Q5.04 19.06 4.73 19.33Q4.42 19.60 4 19.60L4 19.60ZM3.98 0.86L8 0.86L8 0.86L6.42 3.06Q5.26 4.52 3.56 4.52L3.56 4.52L1.10 4.52L3.60 1.06Q3.76 0.86 3.98 0.86L3.98 0.86ZM21.80 9.66L21.80 9.66L21.80 9.66L17.38 9.66L17.08 11.64L24.08 11.64L24 12.20Q23.92 12.64 23.58 12.93Q23.24 13.22 22.80 13.22L22.80 13.22L16.86 13.22L16.56 15.32L23.84 15.32L23.78 15.80Q23.70 16.28 23.34 16.59Q22.98 16.90 22.50 16.90L22.50 16.90L16.34 16.90L16.02 19.08Q15.98 19.30 15.81 19.45Q15.64 19.60 15.42 19.60L15.42 19.60L11.72 19.60L12.10 16.90L6.68 16.90L6.76 16.40Q6.84 15.92 7.19 15.62Q7.54 15.32 8.04 15.32L8.04 15.32L12.34 15.32L12.64 13.22L7.50 13.22L7.58 12.66Q7.66 12.22 8 11.93Q8.34 11.64 8.80 11.64L8.80 11.64L12.86 11.64L13.14 9.66L8.02 9.66L8.06 9.40Q8.16 8.82 8.59 8.45Q9.02 8.08 9.60 8.08L9.60 8.08L13.38 8.08L13.68 6.00L8.02 6.00L8.12 5.32Q8.18 4.92 8.48 4.67Q8.78 4.42 9.18 4.42L9.18 4.42L13.90 4.42L14.14 2.78L10.14 2.78Q9.70 2.78 9.41 2.46Q9.12 2.14 9.16 1.68L9.16 1.68L9.24 1.20L14.36 1.20L14.36 1.20Q14.40 1 14.55 0.87Q14.70 0.74 14.90 0.74L14.90 0.74L18.66 0.74L18.58 1.20L20.88 1.20L20.66 2.78L18.36 2.78L18.12 4.42L20.94 4.42L21.10 3.32L21.18 2.78L21.40 1.20L25.26 1.20L24.80 4.42L25.64 4.42L25.52 5.22Q25.46 5.56 25.21 5.78Q24.96 6.00 24.62 6.00L24.62 6.00L24.56 6.00L24.36 7.48Q24.22 8.40 23.48 9.04L23.48 9.04Q22.72 9.66 21.80 9.66ZM20.72 6.00L17.90 6.00L17.90 6.00L17.60 8.08L19.66 8.08Q19.98 8.08 20.22 7.88L20.22 7.88Q20.48 7.68 20.52 7.36L20.52 7.36L20.72 6.00ZM41.52 15.66L34.76 15.66L34.76 15.66Q33.96 15.66 33.50 15.10L33.50 15.10Q33.02 14.52 33.12 13.70L33.12 13.70L34.28 4.80L38.02 4.80L37.74 6.86L37.74 6.90L37.58 8.10L37.58 8.16L36.98 12.74Q36.94 13.02 37.14 13.22L37.14 13.22Q37.32 13.42 37.60 13.42L37.60 13.42L39.26 13.42Q39.56 13.42 39.76 13.22L39.76 13.22Q40 13.02 40.02 12.74L40.02 12.74L40.78 6.86L38.46 6.86L38.74 4.80L44.78 4.80L43.62 13.70Q43.52 14.52 42.90 15.10L42.90 15.10Q42.30 15.66 41.52 15.66L41.52 15.66ZM33.44 3.10L33.74 0.86L33.74 0.86L51.36 0.86L49.12 17.64Q49 18.46 48.34 19.04L48.34 19.04Q47.66 19.60 46.88 19.60L46.88 19.60L28.30 19.60Q27.52 19.60 27.04 19.04L27.04 19.04Q26.58 18.46 26.70 17.64L26.70 17.64L28.94 0.86L32.86 0.86L30.78 16.34Q30.76 16.68 30.96 16.92L30.96 16.92Q31.20 17.16 31.48 17.16L31.48 17.16L44.34 17.16Q44.62 17.16 44.90 16.92L44.90 16.92Q45.14 16.68 45.20 16.34L45.20 16.34L46.96 3.10L33.44 3.10ZM52.38 19.60L52.38 19.60L52.38 19.60L52.38 19.60L52.38 19.60L70.22 19.60Q71.10 19.60 71.78 18.98L71.78 18.98Q72.46 18.36 72.84 17.50L72.84 17.50L76.68 8.68L76.90 7.08L59.24 7.08L59.68 6.22L55.46 6.22L53.20 10.90L55.32 10.90Q56.04 10.90 56.62 10.76Q57.20 10.62 57.65 10.18Q58.10 9.74 58.42 8.86L58.42 8.86L58.44 8.80L72.26 8.80L68.70 16.84Q68.60 17.08 68.51 17.22Q68.42 17.36 68.28 17.48L68.28 17.48Q67.96 17.68 67.62 17.68L67.62 17.68L54.58 17.68Q54.26 17.68 53.84 17.79Q53.42 17.90 53.16 18.12L53.16 18.12Q52.90 18.38 52.67 18.80Q52.44 19.22 52.38 19.60ZM58.48 3.62L58.86 0.90L58.86 0.90L58.86 0.90L55.74 0.90Q55.32 0.90 55.02 1.16L55.02 1.16Q54.72 1.44 54.66 1.86L54.66 1.86L54.36 3.98Q54.26 4.70 54.68 5.20L54.68 5.20Q55.10 5.70 55.80 5.70L55.80 5.70L75.30 5.70Q76 5.70 76.56 5.20L76.56 5.20Q77.12 4.70 77.22 3.98L77.22 3.98L77.64 0.90L74.52 0.90Q74.10 0.90 73.80 1.16L73.80 1.16Q73.50 1.44 73.44 1.86L73.44 1.86L73.20 3.62Q73.16 3.82 73 3.96L73 3.96Q72.84 4.10 72.66 4.10L72.66 4.10L67.82 4.10L68.30 0.74L65.16 0.74Q64.76 0.74 64.46 1L64.46 1Q64.16 1.26 64.10 1.68L64.10 1.68L63.76 4.10L58.90 4.10Q58.70 4.10 58.58 3.96L58.58 3.96Q58.46 3.82 58.48 3.62L58.48 3.62ZM68.48 12.90L54.28 11.68L54.28 11.68L54.28 11.68L54.28 11.68Q54.26 12.04 54.35 12.51Q54.44 12.98 54.64 13.26L54.64 13.26Q54.88 13.60 55.22 13.71Q55.56 13.82 55.90 13.86L55.90 13.86L67.96 14.90L68.48 12.90ZM100.86 13.40L100.86 13.40L100.86 13.40L96.90 13.40L96.46 14.02L99.56 14.02L99.06 17.52Q99.02 17.72 99.18 17.86L99.18 17.86Q99.34 18 99.54 18L99.54 18L102 18Q102.32 18 102.52 18.22L102.52 18.22Q102.72 18.44 102.68 18.78L102.68 18.78L102.58 19.60L96.58 19.60Q95.88 19.60 95.44 19.08L95.44 19.08Q95.02 18.54 95.12 17.82L95.12 17.82L95.46 15.28L92.24 18.90Q91.58 19.60 90.68 19.60L90.68 19.60L87.18 19.60L92.78 13.40L89.92 13.40Q89.20 13.40 88.78 12.86L88.78 12.86Q88.36 12.36 88.46 11.64L88.46 11.64L89.40 4.84L93.16 4.84L92.96 6.28L92.90 6.60L92.90 6.62L92.26 11.32Q92.22 11.50 92.36 11.66L92.36 11.66Q92.48 11.80 92.66 11.80L92.66 11.80L93.60 11.80L94.38 6.26L93.44 6.26L93.64 4.84L98.44 4.84L99.08 2.96L93.88 2.96Q93.70 3.38 93.32 3.64L93.32 3.64Q92.94 3.90 92.50 3.90L92.50 3.90L89.46 3.90L90.56 1.12Q90.62 0.96 90.76 0.84L90.76 0.84Q90.92 0.74 91.10 0.74L91.10 0.74L94.70 0.74L94.48 1.20L103.28 1.20Q103.44 1.20 103.52 1.32L103.52 1.32Q103.60 1.44 103.56 1.62L103.56 1.62L102.46 4.84L103.64 4.84L102.72 11.64Q102.62 12.36 102.08 12.86L102.08 12.86Q101.56 13.40 100.86 13.40ZM99.70 6.26L98.28 6.26L98.28 6.26L97.52 11.80L98.50 11.80Q98.70 11.80 98.82 11.66L98.82 11.66Q98.98 11.50 98.98 11.32L98.98 11.32L99.70 6.26ZM84.54 2.66L84.76 1.04L84.76 1.04L89.14 1.04L86.86 17.58Q86.76 18.40 86.08 19L86.08 19Q85.44 19.60 84.66 19.60L84.66 19.60L80.06 19.60Q79.28 19.60 78.78 18.98L78.78 18.98Q78.30 18.40 78.40 17.58L78.40 17.58L80.70 1.04L84.14 1.04L83.10 8.50L84.82 8.50L85.64 2.66L84.54 2.66ZM83.58 17.58L83.58 17.58L83.58 17.58L84.62 10.06L82.88 10.06L81.84 17.58Q81.80 18 82.18 18L82.18 18L83.16 18Q83.32 18 83.42 17.88L83.42 17.88Q83.54 17.76 83.58 17.58ZM113.96 5.82L113.96 5.82L113.96 5.82L109.70 19.38Q110.68 19.38 111.19 19.22Q111.70 19.06 112.32 18.50L112.32 18.50Q113.56 17.44 114.44 15.18L114.44 15.18L117.54 5.20Q118.58 2.76 116.38 2.86L116.38 2.86L112.58 2.86Q112.36 2.86 112.18 3.04L112.18 3.04Q112 3.22 111.94 3.48L111.94 3.48L111.78 4.80L113.24 4.80Q113.86 4.78 114 5.02Q114.14 5.26 113.96 5.82ZM114.14 19.18L114.14 19.18L114.14 19.18L114.08 19.60L118.54 19.60Q119.40 19.60 120.10 18.98L120.10 18.98Q120.82 18.36 120.94 17.26L120.94 17.26L123.02 0.74L119.86 0.74Q119.56 0.74 119.32 0.98L119.32 0.98Q119.06 1.22 119 1.58L119 1.58L117.08 17.04Q117.02 17.46 116.74 17.70L116.74 17.70Q116.46 17.92 116.02 17.92L116.02 17.92L115.42 17.92Q114.94 17.92 114.56 18.28L114.56 18.28Q114.20 18.64 114.14 19.18ZM129.50 2.74L129.50 2.74L129.50 2.74L129.64 1.54L124.46 2.58Q124.08 2.64 123.84 2.96L123.84 2.96Q123.58 3.28 123.58 3.70L123.58 3.70L123.68 16.46Q123.72 17.84 124.50 18.72L124.50 18.72Q125.30 19.60 126.54 19.60L126.54 19.60L127.56 19.60L127.42 4.16L128.74 3.76Q129.38 3.50 129.50 2.74ZM110.98 8.62L107.44 8.62L107.44 8.62L104.38 19.60L107.18 19.60Q107.86 19.60 108.16 18.78L108.16 18.78L110.98 8.62ZM107.50 7.80L111.06 7.80L111.06 7.80L110.60 2.38Q110.54 1.70 110.10 1.24L110.10 1.24Q109.66 0.80 109.04 0.78L109.04 0.78L106.66 0.78L106.66 0.76L107.50 7.80ZM139.92 8.32L136.38 8.32L136.38 8.32L136.46 7.74Q136.50 7.42 136.73 7.22Q136.96 7.02 137.26 7.02L137.26 7.02L140.80 7.02L140.72 7.58Q140.68 7.90 140.45 8.11Q140.22 8.32 139.92 8.32L139.92 8.32ZM132.54 2.30L132.62 1.72L132.62 1.72Q132.68 1.28 132.98 1.01Q133.28 0.74 133.68 0.74L133.68 0.74L155.64 0.74L155.56 1.32Q155.50 1.74 155.20 2.02Q154.90 2.30 154.50 2.30L154.50 2.30L145.98 2.30L145.90 2.78L153.38 2.78Q154.14 2.78 154.62 3.28L154.62 3.28Q155.10 3.78 154.98 4.66L154.98 4.66L154.50 8.34L150.56 8.34L151.02 4.86Q151.04 4.66 150.92 4.50L150.92 4.50Q150.80 4.34 150.62 4.34L150.62 4.34L145.70 4.34L145.16 8.34L141.22 8.34L141.76 4.34L136.90 4.34L137.12 2.78L141.96 2.78L142.02 2.30L132.54 2.30ZM135.86 8.74L139.04 8.74L139.04 8.74L138.94 9.48L142.40 9.48L142.28 10.34Q142.24 10.62 142.04 10.81Q141.84 11 141.56 11L141.56 11L141.56 11L141 19.60L141 19.60Q140.06 19.60 139.42 18.88Q138.78 18.16 138.82 17.12L138.82 17.12L139.22 11L138.74 11L137.60 19.60L133.76 19.60L134.92 11L134.40 11L133.06 17.76Q132.90 18.58 132.30 19.09Q131.70 19.60 130.92 19.60L130.92 19.60L130.38 19.60L132.08 11L131.48 11L131.60 10.14Q131.64 9.84 131.84 9.66Q132.04 9.48 132.30 9.48L132.30 9.48L135.12 9.48L135.12 9.42Q135.16 9.12 135.37 8.93Q135.58 8.74 135.86 8.74L135.86 8.74ZM150.32 10.58L147.22 10.58L147.22 10.58L147.42 9.06L154.46 9.06L153.34 17.52Q153.22 18.38 152.54 19L152.54 19Q151.86 19.60 150.98 19.60L150.98 19.60L143.64 19.60Q142.80 19.60 142.26 19L142.26 19Q141.72 18.38 141.84 17.52L141.84 17.52L142.96 9.06L146.90 9.06L146.70 10.58L146.64 11.10L146.52 11.94L150.14 11.94L150.32 10.58ZM149.38 17.62L149.38 17.62L149.38 17.62L149.56 16.36L145.94 16.36L145.76 17.62Q145.74 17.82 145.86 17.94L145.86 17.94Q145.98 18.08 146.18 18.08L146.18 18.08L148.86 18.08Q149.04 18.08 149.20 17.94L149.20 17.94Q149.36 17.82 149.38 17.62ZM146.14 14.84L149.76 14.84L149.76 14.84L149.94 13.44L146.32 13.44L146.14 14.84ZM149.30 8.32L145.76 8.32L145.76 8.32L145.82 7.74Q145.88 7.42 146.10 7.22Q146.32 7.02 146.62 7.02L146.62 7.02L150.18 7.02L150.10 7.58Q150.04 7.90 149.82 8.11Q149.60 8.32 149.30 8.32L149.30 8.32ZM136.24 4.86L136.22 4.98L136.22 4.98L135.78 8.34L131.88 8.34L132.36 4.66Q132.48 3.78 133.10 3.28L133.10 3.28Q133.70 2.78 134.48 2.78L134.48 2.78L136.52 2.78L136.24 4.86ZM137.52 4.98L141.08 4.98L141.08 4.98L141 5.54Q140.94 5.86 140.72 6.07Q140.50 6.28 140.20 6.28L140.20 6.28L136.66 6.28L136.72 5.70Q136.78 5.38 137 5.18Q137.22 4.98 137.52 4.98L137.52 4.98ZM146.90 4.98L150.44 4.98L150.44 4.98L150.36 5.54Q150.32 5.86 150.09 6.07Q149.86 6.28 149.56 6.28L149.56 6.28L146.02 6.28L146.10 5.70Q146.14 5.38 146.37 5.18Q146.60 4.98 146.90 4.98L146.90 4.98ZM178.04 18.20L181.16 13.34L181.16 13.34L177.76 13.34Q176.78 13.34 176.08 14.30L176.08 14.30L174.28 17.08Q174.02 17.44 173.54 17.60L173.54 17.60Q173.24 17.70 172.94 17.70L172.94 17.70L158.44 17.70Q157.78 17.70 157.17 18.31Q156.56 18.92 156.42 19.64L156.42 19.64L156.42 19.64L175.08 19.64Q175.56 19.64 175.96 19.60L175.96 19.60Q176.38 19.56 176.72 19.42L176.72 19.42Q177.08 19.26 177.40 18.98L177.40 18.98Q177.72 18.70 178.04 18.20L178.04 18.20ZM160.20 2.82L157.54 13.02L157.54 13.02L157.62 13.02Q159.34 13.02 160.77 11.88Q162.20 10.74 162.68 8.98L162.68 8.98L164.58 1.68L161.64 1.68Q161.16 1.68 160.76 2.00Q160.36 2.32 160.20 2.82L160.20 2.82ZM168.94 1.74L166.94 16L166.94 16L169.74 16Q170.32 16 170.77 15.60Q171.22 15.20 171.32 14.62L171.32 14.62L173.26 0.74L170.06 0.74Q169.66 0.74 169.34 1.02Q169.02 1.30 168.94 1.74L168.94 1.74ZM177.44 1.68L177.40 10.54L177.40 10.54Q177.40 11.26 177.87 11.73Q178.34 12.20 179.04 12.20L179.04 12.20L181.48 12.20L181.54 4.28Q181.52 3.14 180.80 2.41Q180.08 1.68 178.96 1.68L178.96 1.68L177.44 1.68ZM182.38 19.60L182.38 19.60L182.38 19.60L185.22 19.60Q185.80 18.94 186.41 17.92Q187.02 16.90 187.50 15.82L187.50 15.82Q187.82 15.00 187.37 14.31Q186.92 13.62 186.08 13.62L186.08 13.62L186.08 13.62Q185.04 13.62 184.58 14.76L184.58 14.76Q184.20 16.02 183.59 17.35Q182.98 18.68 182.38 19.60ZM204.86 19.32L204.86 1.78L218.90 1.78L218.90 19.32L204.86 19.32ZM211.88 9.82L217.46 2.64L206.30 2.64L211.88 9.82ZM212.44 10.54L218.02 17.72L218.02 3.36L212.44 10.54ZM206.30 18.44L217.46 18.44L211.88 11.26L206.30 18.44ZM205.74 3.36L205.74 17.72L211.32 10.54L205.74 3.36ZM246.18 8.76L245.30 8.76L245.30 8.76L246.56 11.04L245.10 11.04L244.20 17.38Q244.10 18.28 243.38 18.94L243.38 18.94Q242.68 19.60 241.78 19.60L241.78 19.60L224.84 19.60Q223.94 19.60 223.36 18.94L223.36 18.94Q222.78 18.28 222.90 17.38L222.90 17.38L223.78 11.04L222.46 11.04L224.34 8.76L222.80 8.76L222.94 7.84Q222.98 7.54 223.21 7.34Q223.44 7.14 223.74 7.14L223.74 7.14L225.68 7.14L226.82 5.84L223.70 5.84L223.84 4.82Q223.90 4.54 224.09 4.37Q224.28 4.20 224.54 4.20L224.54 4.20L228.18 4.20L229.10 3.02L223.78 3.02L223.90 2.14Q223.96 1.80 224.20 1.59Q224.44 1.38 224.76 1.38L224.76 1.38L230.36 1.38L230.70 0.96Q230.90 0.74 231.18 0.74L231.18 0.74L235.18 0.74L234.64 1.38L247.60 1.38L247.48 2.18Q247.42 2.54 247.15 2.78Q246.88 3.02 246.52 3.02L246.52 3.02L233.40 3.02L232.46 4.20L246.86 4.20L246.76 5.00Q246.70 5.38 246.43 5.61Q246.16 5.84 245.80 5.84L245.80 5.84L231.22 5.84L230.08 7.14L247.10 7.14L246.98 8.08Q246.92 8.38 246.70 8.57Q246.48 8.76 246.18 8.76L246.18 8.76ZM240.14 17.40L240.14 17.40L240.14 17.40L240.46 15.22L227.44 15.22L227.12 17.40Q227.08 17.66 227.22 17.82L227.22 17.82Q227.36 17.98 227.64 17.98L227.64 17.98L239.44 17.98Q239.70 17.98 239.90 17.82L239.90 17.82Q240.10 17.66 240.14 17.40ZM240.68 13.58L240.92 11.80L240.92 11.80L228.88 11.80L229.12 10L241.78 10L241 8.70L228.68 8.70L227.56 10L228.16 10L227.66 13.58L240.68 13.58ZM258.74 8.16L258.80 9.00L258.80 9.00L262.78 9.00L262.58 5.20Q262.52 4.52 262.07 4.08Q261.62 3.64 261 3.64L261 3.64L258.50 3.64L258.66 6.60L255.10 6.90Q254.84 6.90 254.72 6.70L254.72 6.70Q254.60 6.48 254.72 6.24L254.72 6.24L256.28 2.80L263 2.80Q263.26 2.80 263.45 2.63Q263.64 2.46 263.68 2.18L263.68 2.18L263.86 0.96L251.68 0.96Q251.32 0.96 251.08 1.18Q250.84 1.40 250.78 1.76L250.78 1.76L250.62 2.80L252.14 2.80L250.24 6.86Q249.92 7.60 250.26 8.22L250.26 8.22Q250.68 8.84 251.38 8.80L251.38 8.80L258.74 8.16ZM253.16 17.42L249.40 17.58L249.40 17.58Q249.06 17.60 248.83 17.82Q248.60 18.04 248.54 18.38L248.54 18.38L248.40 19.50L260.82 19Q261.08 18.98 261.27 18.80Q261.46 18.62 261.52 18.34L261.52 18.34L261.68 17.10L257.18 17.28L257.70 13.30L261.46 13.30Q261.76 13.30 261.96 13.11Q262.16 12.92 262.20 12.62L262.20 12.62L262.36 11.46L257.96 11.46L258.26 9.14L255.04 9.14Q254.72 9.14 254.47 9.36Q254.22 9.58 254.16 9.94L254.16 9.94L253.96 11.46L250.26 11.46Q249.96 11.46 249.73 11.67Q249.50 11.88 249.44 12.20L249.44 12.20L249.30 13.30L253.72 13.30L253.16 17.42ZM264.64 3.24L262.82 16.86L262.82 16.86L264.82 16.86Q265.46 16.86 265.92 16.43Q266.38 16 266.48 15.34L266.48 15.34L268.40 1.10L267 1.10Q266.12 1.10 265.45 1.70Q264.78 2.30 264.64 3.24L264.64 3.24ZM271.44 17.38L271.44 17.38L271.44 17.38L273.66 0.76L270.74 0.76Q270.28 0.76 269.95 1.06Q269.62 1.36 269.52 1.84L269.52 1.84L267.46 17.26Q267.42 17.56 267.20 17.78L267.20 17.78Q266.98 18 266.66 18L266.66 18L265.06 18Q264.50 18 264.07 18.39Q263.64 18.78 263.56 19.38L263.56 19.38L263.52 19.58L269.04 19.58Q269.90 19.58 270.60 18.94L270.60 18.94Q271.30 18.30 271.44 17.38ZM280.98 17.34L287.32 8.20L287.32 8.20L293.02 17.26Q294.42 19.60 296.82 19.60L296.82 19.60L299.66 19.60L291.54 6.50L288.34 6.50L292.40 0.74L288.10 0.74Q287.52 0.74 287.14 1.24L287.14 1.24L274.40 19.60L276.60 19.60Q279.22 19.60 280.98 17.34L280.98 17.34ZM304.26 19.56L300.64 19.56L300.64 19.56L302.56 5.14Q302.62 4.76 302.90 4.50Q303.18 4.24 303.54 4.24L303.54 4.24L306.64 4.24L304.64 19.22Q304.60 19.36 304.50 19.46Q304.40 19.56 304.26 19.56L304.26 19.56ZM302.94 0.72L306.02 0.72L306.02 0.72Q306.42 0.72 306.68 0.99Q306.94 1.26 306.94 1.68L306.94 1.68L306.94 3.44L303.46 3.44Q303.24 3.44 303.09 3.29Q302.94 3.14 302.94 2.90L302.94 2.90L302.94 0.72ZM316.28 6.00L312.18 6.00L312.18 6.00L312.40 4.24L319.84 4.24L318.20 16.58Q318.10 17.50 317.40 18.14L317.40 18.14Q316.74 18.76 315.86 18.76L315.86 18.76L308.20 18.76Q307.30 18.76 306.76 18.14L306.76 18.14Q306.24 17.50 306.36 16.58L306.36 16.58L308 4.24L311.34 4.24L311.14 5.76L311.12 5.84L311.08 6.26L311.06 6.32L310.58 9.98L315.74 9.98L316.28 6.00ZM314.90 16.20L314.90 16.20L314.90 16.20L315.52 11.58L310.36 11.58L309.74 16.20Q309.70 16.62 309.96 16.90L309.96 16.90Q310.22 17.18 310.62 17.18L310.62 17.18L313.86 17.18Q314.26 17.18 314.56 16.90L314.56 16.90Q314.86 16.62 314.90 16.20ZM308.02 2.96L308.30 0.88L308.30 0.88L324.98 0.88Q325.24 0.88 325.40 1.07Q325.56 1.26 325.52 1.56L325.52 1.56L323.40 17.42Q323.26 18.30 322.56 18.94L322.56 18.94Q321.82 19.56 320.96 19.56L320.96 19.56L317.96 19.56L318.12 18.38Q318.14 18.20 318.26 18.09Q318.38 17.98 318.54 17.98L318.54 17.98L318.58 17.98Q318.84 17.98 319.06 17.78L319.06 17.78Q319.28 17.58 319.32 17.30L319.32 17.30L321.24 2.96L308.02 2.96ZM348.74 0.78L348.64 1.56L348.64 1.56L351.68 1.56L351.52 2.74Q351.50 2.92 351.37 3.03Q351.24 3.14 351.08 3.14L351.08 3.14L348.42 3.14L348.32 3.92L344.40 3.92L344.50 3.14L335.24 3.14L335.14 3.92L331.04 3.92L331.16 3.14L328.26 3.14L328.42 2.00Q328.44 1.82 328.58 1.69Q328.72 1.56 328.90 1.56L328.90 1.56L331.36 1.56L331.40 1.24Q331.44 1.08 331.60 0.93Q331.76 0.78 331.90 0.78L331.90 0.78L335.56 0.78L335.46 1.56L344.72 1.56L344.76 1.28Q344.78 1.10 344.92 0.94Q345.06 0.78 345.24 0.78L345.24 0.78L348.74 0.78ZM347.60 13.48L340.52 13.48L340.52 13.48L340.32 14.88L349.88 14.88L349.72 16.08Q349.66 16.38 349.44 16.58Q349.22 16.78 348.94 16.78L348.94 16.78L340.06 16.78L339.68 19.60L335.58 19.60L335.98 16.78L326.42 16.78L326.56 15.80Q326.62 15.40 326.90 15.14Q327.18 14.88 327.54 14.88L327.54 14.88L336.22 14.88L336.42 13.48L329.32 13.48Q328.52 13.48 328.06 12.94L328.06 12.94Q327.60 12.38 327.72 11.58L327.72 11.58L328.70 4.38L332.64 4.38L332.44 5.96L332.42 6.00L332.38 6.26L332.38 6.32L332.18 7.84L346.28 7.84L346.54 5.96L333.18 5.96L333.40 4.38L350.70 4.38L349.72 11.58Q349.62 12.38 348.98 12.94L348.98 12.94Q348.38 13.48 347.60 13.48L347.60 13.48ZM332.22 11.92L332.22 11.92L332.22 11.92L345.12 11.92Q345.38 11.92 345.58 11.78L345.58 11.78Q345.76 11.62 345.80 11.36L345.80 11.36L346.02 9.72L331.92 9.72L331.70 11.36Q331.66 11.62 331.80 11.76L331.80 11.76Q331.96 11.92 332.22 11.92ZM363.96 4.72L361.98 19.60L361.98 19.60L365.32 19.60Q365.58 19.60 365.77 19.42Q365.96 19.24 366.00 18.96L366.00 18.96L367.90 4.72L376.58 4.72Q376.94 4.72 377.22 4.47Q377.50 4.22 377.56 3.82L377.56 3.82L377.68 2.92L368.14 2.92L368.42 0.76L365.90 0.76Q365.28 0.76 364.84 1.18Q364.40 1.60 364.30 2.24L364.30 2.24L364.20 2.92L355.52 2.92Q355.16 2.92 354.88 3.18Q354.60 3.44 354.54 3.82L354.54 3.82L354.42 4.72L363.96 4.72ZM357.08 6.86L352.44 19.60L352.44 19.60L352.44 19.60Q356.00 19.60 357.78 15.72L357.78 15.72L361.24 6.14L358.06 6.14Q357.40 6.14 357.08 6.86L357.08 6.86ZM370.24 6.14L371.12 15.46L371.12 15.46Q371.34 17.26 372.56 18.43Q373.78 19.60 375.46 19.60L375.46 19.60L375.46 19.60L374.22 6.84Q374.18 6.54 373.97 6.34Q373.76 6.14 373.48 6.14L373.48 6.14L370.24 6.14ZM391.44 3.20L384.46 3.20L384.46 3.20L384.46 3.20Q383.48 5.04 381.86 5.04L381.86 5.04L380.28 5.04L382.06 0.80L385.46 0.80L385.20 1.36L391.68 1.36L391.44 3.20ZM386.56 11.30L385.82 12.96L385.82 12.96L387.96 12.96Q388.48 12.96 388.60 13.54L388.60 13.54L389.30 19.58L387.56 19.58Q385.68 19.58 385.14 17.44L385.14 17.44L384.82 14.96L383.84 16.86Q382.16 19.58 379.64 19.58L379.64 19.58L378.46 19.58L382.60 11.30L379.54 11.30L379.76 9.56Q379.80 9.28 380.01 9.09Q380.22 8.90 380.48 8.90L380.48 8.90L383.36 8.90L384.92 3.94L388.90 3.94L387.32 8.90L390.68 8.90L390.44 10.66Q390.40 10.92 390.20 11.11Q390.00 11.30 389.74 11.30L389.74 11.30L386.56 11.30ZM396.90 3.18L397.16 1.18L397.16 1.18L403.52 1.18L401.38 17.36Q401.26 18.30 400.58 18.94L400.58 18.94Q399.90 19.60 399.06 19.60L399.06 19.60L392.12 19.60Q391.26 19.60 390.76 18.94L390.76 18.94Q390.28 18.30 390.40 17.36L390.40 17.36L392.54 1.18L396.48 1.18L396.22 3.14L396.22 3.18L396.10 4.04L396.10 4.10L394.40 16.86Q394.36 17.18 394.52 17.38L394.52 17.38Q394.70 17.60 394.98 17.60L394.98 17.60L396.76 17.60Q397.04 17.60 397.24 17.38L397.24 17.38Q397.46 17.18 397.50 16.86L397.50 16.86L399.30 3.18L396.90 3.18ZM409.94 15.98L409.94 15.98L409.94 15.98Q410.08 16.46 410.00 17L410.00 17Q409.94 17.54 409.66 18.02L409.66 18.02Q409.40 18.48 408.98 18.84L408.98 18.84Q408.58 19.20 408.08 19.40L408.08 19.40Q407.58 19.60 407.04 19.60L407.04 19.60Q406.50 19.60 406.04 19.40L406.04 19.40Q405.60 19.20 405.30 18.84L405.30 18.84Q405.00 18.48 404.86 18.02L404.86 18.02Q404.72 17.54 404.78 17L404.78 17Q404.86 16.46 405.14 15.98L405.14 15.98Q405.42 15.50 405.82 15.16L405.82 15.16Q406.22 14.80 406.72 14.60L406.72 14.60Q407.24 14.38 407.78 14.38L407.78 14.38Q408.32 14.38 408.76 14.60L408.76 14.60Q409.20 14.80 409.50 15.16L409.50 15.16Q409.82 15.50 409.94 15.98ZM408.10 17.80L408.10 17.80L408.10 17.80Q408.48 17.46 408.54 17L408.54 17Q408.62 16.52 408.32 16.20L408.32 16.20Q408.02 15.86 407.56 15.86L407.56 15.86Q407.08 15.86 406.72 16.20L406.72 16.20Q406.34 16.52 406.26 17L406.26 17Q406.20 17.46 406.48 17.80L406.48 17.80Q406.76 18.14 407.24 18.14L407.24 18.14Q407.70 18.14 408.10 17.80Z"/></svg>