<svg xmlns="http://www.w3.org/2000/svg" xmlns:xlink="http://www.w3.org/1999/xlink" width="1596.12" height="20"><path fill="black" d="M6.96 17.34L13.30 8.20L13.30 8.20L19 17.26Q20.40 19.60 22.80 19.60L22.80 19.60L25.64 19.60L17.52 6.50L14.32 6.50L18.38 0.74L14.08 0.74Q13.50 0.74 13.12 1.24L13.12 1.24L0.38 19.60L2.58 19.60Q5.20 19.60 6.96 17.34L6.96 17.34ZM39.36 9.82L39.36 9.82L39.36 9.82Q38.80 10.34 38.14 10.34L38.14 10.34L35.96 10.34L35.02 17.42Q34.96 17.88 34.76 18.26L34.76 18.26Q34.54 18.66 34.22 18.96L34.22 18.96Q33.88 19.24 33.44 19.42L33.44 19.42Q33.02 19.62 32.58 19.62L32.58 19.62L29.82 19.62L30 18.30Q30.02 18.16 30.11 18.07Q30.20 17.98 30.34 17.98L30.34 17.98L30.34 17.98Q30.94 17.98 31.04 17.40L31.04 17.40L31.98 10.34L29.68 10.34Q29.02 10.34 28.64 9.82L28.64 9.82Q28.26 9.32 28.36 8.60L28.36 8.60L29.04 3.50L32.88 3.50L32.68 4.96L32.68 5.02L32.62 5.42L32.62 5.46L32.24 8.34Q32.22 8.54 32.34 8.70L32.34 8.70Q32.46 8.86 32.64 8.86L32.64 8.86L35.62 8.86Q35.70 8.86 35.77 8.82Q35.84 8.78 35.92 8.70L35.92 8.70Q36.06 8.54 36.08 8.34L36.08 8.34L36.52 4.96L33.14 4.96L33.34 3.50L40.70 3.50L40.02 8.60Q39.92 9.32 39.36 9.82ZM26.50 19.62L28.28 11.52L28.28 11.52Q28.34 11.28 28.52 11.13Q28.70 10.98 28.92 10.98L28.92 10.98L31.28 10.98L30.04 16.64Q29.72 17.96 28.74 18.79Q27.76 19.62 26.50 19.62L26.50 19.62L26.50 19.62ZM36.14 16.56L36.54 10.98L36.54 10.98L38.70 10.98Q39 10.98 39.18 11.20Q39.36 11.42 39.36 11.72L39.36 11.72L38.80 19.62L38.80 19.62Q37.64 19.62 36.86 18.73Q36.08 17.84 36.14 16.56L36.14 16.56ZM33.40 0.74L36.78 0.74L36.78 0.74Q36.96 0.74 37.08 0.88Q37.20 1.02 37.18 1.22L37.18 1.22L37.18 1.22L41.32 1.22L41.22 1.88Q41.16 2.30 40.86 2.57Q40.56 2.84 40.18 2.84L40.18 2.84L28.66 2.84L28.78 1.98Q28.84 1.64 29.07 1.43Q29.30 1.22 29.60 1.22L29.60 1.22L33.34 1.22L33.40 0.74ZM51.56 2.68L51.44 3.60L51.44 3.60Q51.40 3.84 51.23 3.99Q51.06 4.14 50.84 4.14L50.84 4.14L46.88 4.14L46.46 6.10L49.88 6.10L48.40 17.26Q48.36 17.58 48.56 17.78L48.56 17.78Q48.78 17.98 49.04 17.98L49.04 17.98L49.04 17.98Q49.24 17.98 49.36 18.13Q49.48 18.28 49.46 18.48L49.46 18.48L49.32 19.62L46.52 19.62Q45.56 19.62 45.10 19L45.10 19Q44.64 18.40 44.78 17.36L44.78 17.36L45.94 8.40L44.08 15.78Q43.62 17.50 42.33 18.56Q41.04 19.62 39.40 19.62L39.40 19.62L39.40 19.62L43.16 4.14L41.38 4.14L41.50 3.28Q41.54 3.02 41.72 2.85Q41.90 2.68 42.16 2.68L42.16 2.68L43.54 2.68L43.90 1.18Q43.96 0.98 44.11 0.86Q44.26 0.74 44.44 0.74L44.44 0.74L47.72 0.74L47.26 2.68L48.18 2.68L48.16 1.06L50.04 1.06Q50.40 1.06 50.66 1.33Q50.92 1.60 50.92 2.00L50.92 2.00L50.94 2.68L51.56 2.68ZM74.56 8.48L56.36 8.48L56.36 8.48Q55.46 8.48 54.94 7.88L54.94 7.88Q54.42 7.28 54.52 6.40L54.52 6.40L55.26 0.74L59.24 0.74L59.04 2.24L58.98 2.54L58.94 2.92L58.82 3.94L73.26 3.94L73.48 2.24L59.82 2.24L60.02 0.74L77.64 0.74L76.90 6.40Q76.78 7.28 76.12 7.88L76.12 7.88Q75.44 8.48 74.56 8.48L74.56 8.48ZM58.64 5.28L58.48 6.40L58.48 6.40Q58.46 6.66 58.62 6.82L58.62 6.82Q58.78 6.96 59.04 6.96L59.04 6.96L72.28 6.96Q72.56 6.96 72.72 6.82L72.72 6.82Q72.90 6.66 72.92 6.40L72.92 6.40L73.08 5.28L58.64 5.28ZM54 9.56L54 9.56L54 9.56Q54.24 9.32 54.58 9.32L54.58 9.32L76.98 9.32L76.88 10.06Q76.84 10.40 76.60 10.62L76.60 10.62Q76.36 10.86 76.04 10.86L76.04 10.86L67.74 10.86L67.42 13.16L76.16 13.16Q76.06 13.84 75.60 14.26L75.60 14.26Q75.14 14.68 74.52 14.68L74.52 14.68L67.22 14.68L66.92 17L76.48 17.92L76.02 18.60Q75.20 19.54 74 19.46L74 19.46L56.72 18Q56.12 19.60 54.68 19.60L54.68 19.60L52.38 19.60L54.42 11.70L58.34 11.70L57.16 16.16L63 16.68L63.76 10.86L53.62 10.86L53.72 10.12Q53.76 9.78 54 9.56ZM79.34 5.60L79.22 6.38L79.22 6.38L80.66 6.38L78.62 19.58L81.24 19.58Q81.34 19.58 81.42 19.60L81.42 19.60Q81.86 19.60 82.22 19.54L82.22 19.54Q82.60 19.46 82.84 19.12L82.84 19.12L82.92 19L100.80 19.56Q101.50 19.56 102.02 19.14L102.02 19.14Q102.54 18.72 102.64 18.04L102.64 18.04L84.54 17.48Q84.34 17.48 84.12 17.38L84.12 17.38Q83.88 17.28 83.72 17.14L83.72 17.14Q83.54 16.98 83.44 16.78L83.44 16.78Q83.34 16.56 83.38 16.32L83.38 16.32L85.02 4.88L80.20 4.88Q79.88 4.88 79.62 5.08L79.62 5.08Q79.40 5.28 79.34 5.60L79.34 5.60ZM84.20 4.46L85.08 2.30L85.08 2.30L81.04 0.78Q80.68 1.72 81.08 2.58L81.08 2.58Q81.48 3.44 82.46 3.82L82.46 3.82L84.20 4.46ZM90.92 5.00L86.38 5.00L86.38 5.00L91.06 10.96L85.32 16.86L88.38 16.86Q90.14 16.84 91.32 15.62L91.32 15.62L93.40 13.38L95.94 15.98Q96.72 16.82 97.80 16.82L97.80 16.82L101.86 16.82L95.84 10.80L101.72 3.76L97.50 3.76L93.52 8.44L90.92 5.00ZM96.62 0.90L93.08 0.90L93.08 0.90L92.84 2.26L87.22 2.26Q86.90 2.26 86.66 2.46L86.66 2.46Q86.46 2.64 86.42 2.92L86.42 2.92L86.24 4.04L102.10 4.04Q102.82 4.04 103.14 3.30L103.14 3.30L103.36 2.26L97.06 2.26L97.18 1.52Q97.20 1.26 97.04 1.08L97.04 1.08Q96.86 0.90 96.62 0.90L96.62 0.90ZM114.16 16.84L118.94 16.84L118.94 16.84L118.56 19.60L122.48 19.60L122.86 16.84L126.80 16.84Q127.14 16.84 127.40 16.58L127.40 16.58Q127.68 16.34 127.74 16L127.74 16L127.92 14.76L123.16 14.76L123.86 9.62L127.30 9.62Q127.68 9.62 127.98 9.36L127.98 9.36Q128.26 9.10 128.32 8.72L128.32 8.72L128.46 7.66L124.14 7.66L124.64 4.18L128.32 4.18Q128.76 4.18 129.12 3.86L129.12 3.86Q129.48 3.56 129.54 3.08L129.54 3.08L129.66 2.22L127.90 2.22L128.28 0.74L125.26 0.74Q124.98 0.74 124.74 0.92L124.74 0.92Q124.50 1.10 124.40 1.38L124.40 1.38L124.24 2.22L121.66 2.22L121.72 1.48Q121.70 1.16 121.48 0.94L121.48 0.94Q121.28 0.74 120.96 0.74L120.96 0.74L118.02 0.74L118 2.22L116.88 2.22Q116.60 2.22 116.38 2.41Q116.16 2.60 116.12 2.88L116.12 2.88L115.94 4.18L120.72 4.18L120.22 7.66L116.62 7.66Q116.30 7.66 116.06 7.88L116.06 7.88Q115.82 8.10 115.76 8.42L115.76 8.42L115.60 9.62L119.94 9.62L119.24 14.76L115.18 14.76Q114.88 14.76 114.64 14.96L114.64 14.96Q114.40 15.18 114.36 15.48L114.36 15.48L114.16 16.84ZM106.58 5.50L106.58 5.50L106.58 5.50L104.40 19.60Q105.28 19.60 105.94 19.02L105.94 19.02Q106.60 18.44 106.76 17.52L106.76 17.52L108.72 5.00L107.16 5.00Q106.94 5.00 106.78 5.14L106.78 5.14Q106.62 5.28 106.58 5.50ZM106.38 4.24L109.28 4.24L109.28 4.24L107.20 19.60L109.46 19.60Q109.86 19.60 110.16 19.32L110.16 19.32Q110.46 19.06 110.52 18.64L110.52 18.64L112.44 4.24L114.50 4.24Q114.88 4.24 115.14 4.00L115.14 4.00Q115.42 3.74 115.48 3.34L115.48 3.34L115.62 2.38L112.70 2.38L112.92 0.74L110.58 0.74Q110.22 0.74 109.96 0.98L109.96 0.98Q109.70 1.24 109.64 1.62L109.64 1.62L109.52 2.38L107.50 2.38Q107.10 2.38 106.84 2.62L106.84 2.62Q106.56 2.88 106.50 3.28L106.50 3.28L106.38 4.24ZM112.78 5.52L112.78 5.52L112.78 5.52L111.38 17.50Q111.30 18.36 111.84 18.98L111.84 18.98Q112.36 19.60 113.16 19.60L113.16 19.60L114.88 5.00L113.34 5.00Q113.12 5.00 112.96 5.14L112.96 5.14Q112.80 5.30 112.78 5.52ZM135.48 1.38L135.48 1.38L135.48 1.38L135.42 1.66L132.44 1.66L130.44 17.14Q130.36 17.64 130.48 18.08L130.48 18.08Q130.58 18.54 130.86 18.88L130.86 18.88Q131.10 19.20 131.48 19.40L131.48 19.40Q131.86 19.60 132.30 19.60L132.30 19.60L139.08 19.60Q139.52 19.60 139.96 19.40L139.96 19.40Q140.38 19.20 140.74 18.88L140.74 18.88Q141.10 18.54 141.32 18.08L141.32 18.08Q141.56 17.62 141.62 17.14L141.62 17.14L143.62 1.66L140.18 1.66L140.32 0.74L136.14 0.74Q135.90 0.74 135.70 0.92L135.70 0.92Q135.52 1.10 135.48 1.38ZM138.78 10.74L137.90 17.56L137.90 17.56Q137.86 17.74 137.70 17.90L137.70 17.90Q137.56 18.04 137.36 18.04L137.36 18.04L134.20 18.04Q134.02 18.04 133.92 17.90L133.92 17.90Q133.78 17.74 133.80 17.56L133.80 17.56L134.70 10.74L138.78 10.74ZM139.78 3.14L138.98 9.16L138.98 9.16L134.90 9.16L135.72 3.14L139.78 3.14ZM155.10 1.58L155.10 1.58L155.10 1.58L148.54 1.58L148.86 0.74L145.76 0.74Q145.24 0.74 144.94 1.34L144.94 1.34L143.58 5.08L145.40 5.08Q147.04 5.08 147.94 3.34L147.94 3.34L151.48 3.34L149.66 17.30Q149.62 17.58 149.38 17.80L149.38 17.80Q149.16 18.02 148.88 18.02L148.88 18.02L146.66 18.02Q146.26 18.02 145.94 18.30L145.94 18.30Q145.64 18.60 145.58 19.04L145.58 19.04L145.50 19.60L151.26 19.60Q152.14 19.60 152.84 19.06L152.84 19.06Q153.56 18.52 153.70 17.44L153.70 17.44L155.66 2.26Q155.68 1.98 155.52 1.78L155.52 1.78Q155.38 1.58 155.10 1.58ZM145.44 11.14L148.88 12.98L148.88 12.98L149.66 10.54L145.14 7.98L144.70 8.76Q144.38 9.44 144.59 10.11Q144.80 10.78 145.44 11.14L145.44 11.14ZM156.40 19.60L156.40 19.60L156.40 19.60L159.24 19.60Q159.82 18.94 160.43 17.92Q161.04 16.90 161.52 15.82L161.52 15.82Q161.84 15.00 161.39 14.31Q160.94 13.62 160.10 13.62L160.10 13.62L160.10 13.62Q159.06 13.62 158.60 14.76L158.60 14.76Q158.22 16.02 157.61 17.35Q157.00 18.68 156.40 19.60ZM181.40 11.20L182.34 2.98L182.34 2.98L178.88 2.98L179.04 1.76Q179.06 1.60 179.16 1.48Q179.26 1.36 179.40 1.36L179.40 1.36L182.56 1.36L182.58 1.20Q182.60 1 182.72 0.89Q182.84 0.78 183.00 0.78L183.00 0.78L186.62 0.78L186.54 1.36L190.02 1.36L189.82 2.98L186.34 2.98L185.40 11.20L181.40 11.20ZM186.32 10.20L186.32 10.20L186.32 10.20L186.66 3.62L188.92 3.62Q189.04 3.62 189.11 3.71Q189.18 3.80 189.18 3.92L189.18 3.92L188.78 11.20L187.08 11.20Q186.74 11.20 186.52 10.92Q186.30 10.64 186.32 10.20ZM178.18 11.20L177.96 11.20L177.96 11.20L179.26 3.82Q179.28 3.72 179.34 3.66Q179.40 3.60 179.50 3.60L179.50 3.60L181.82 3.60L181.00 8.32Q180.78 9.58 179.97 10.39Q179.16 11.20 178.18 11.20L178.18 11.20ZM194.40 2.52L194.60 0.96L194.60 0.96L201.54 0.96L200.60 8.94Q200.50 9.88 199.88 10.54L199.88 10.54Q199.30 11.20 198.52 11.20L198.52 11.20L191.24 11.20Q190.48 11.20 190.02 10.54L190.02 10.54Q189.54 9.86 189.66 8.90L189.66 8.90L190.60 0.96L194.24 0.96L193.90 3.64L197.56 3.64L197.70 2.52L194.40 2.52ZM196.96 8.86L196.96 8.86L197.04 8.04L193.38 8.04L193.26 8.86Q193.20 9.20 193.30 9.30L193.30 9.30Q193.40 9.40 193.56 9.40L193.56 9.40Q196.02 9.40 196.24 9.40L196.24 9.40Q196.56 9.40 196.75 9.28Q196.94 9.16 196.96 8.86ZM193.58 6.48L197.24 6.48L197.24 6.48L197.42 5.10L193.78 5.10L193.58 6.48ZM178.50 19.56L176.66 19.56L176.66 19.56L178.24 11.74L182.26 11.74L181.10 16.64Q180.40 19.56 178.50 19.56L178.50 19.56ZM187.48 17.34L193.86 17.34L193.86 17.34Q194.46 17.32 194.81 17.74Q195.16 18.16 195.18 18.78L195.18 18.78L195.22 19.56L184.58 19.56Q183.78 19.56 183.20 18.84L183.20 18.84Q182.74 18.26 182.90 16.82L182.90 16.82L183.48 11.74L187.60 11.74L187.06 16.66Q187.04 16.94 187.16 17.14L187.16 17.14Q187.28 17.34 187.48 17.34L187.48 17.34ZM193.62 13.12L193.62 13.12L193.62 13.12L193.64 16.32L189.86 16.32L189.86 11.74L192.60 11.74Q193.02 11.74 193.31 12.13Q193.60 12.52 193.62 13.12ZM196.32 11.74L198.16 11.74L198.16 11.74Q198.96 11.74 199.51 12.51Q200.06 13.28 200.06 14.42L200.06 14.42L200.08 19.56L196.34 19.56L196.32 11.74ZM217.14 11.18L219.78 11.18L219.78 11.18L221.48 18.54Q221.58 19 221.94 19.30L221.94 19.30Q222.28 19.60 222.72 19.60L222.72 19.60L225.66 19.60L223.78 11.18L225.98 11.18Q226.32 11.18 226.58 10.95Q226.84 10.72 226.90 10.36L226.90 10.36L227.06 9.26L217.42 9.26L218.20 3.32L226.60 3.32Q226.96 3.32 227.22 3.09Q227.48 2.86 227.54 2.52L227.54 2.52L227.66 1.52L218.46 1.52L218.56 0.74L215.10 0.74Q214.88 0.74 214.70 0.88L214.70 0.88Q214.54 1.04 214.50 1.28L214.50 1.28L214.48 1.52L206.10 1.52Q205.72 1.52 205.44 1.76L205.44 1.76Q205.18 2.00 205.12 2.42L205.12 2.42L205.00 3.32L214.24 3.32L213.42 9.26L204.28 9.26Q204.08 9.26 203.92 9.40L203.92 9.40Q203.76 9.56 203.72 9.78L203.72 9.78L203.54 11.18L206.54 11.18L202.40 19.60L203.48 19.60Q206.12 19.60 207.62 16.88L207.62 16.88L210.52 11.18L213.18 11.18L212.02 19.60L216.02 19.60L217.14 11.18ZM209.12 3.92L206.62 3.92L206.62 3.92L206.64 8.62L211.28 8.64L211.32 6.16Q211.28 5.22 210.64 4.58L210.64 4.58Q210.02 3.92 209.12 3.92L209.12 3.92ZM226.34 3.92L221.54 3.92L221.54 3.92L220.08 8.62L223.40 8.62Q224.72 8.62 225.34 7.16L225.34 7.16L226.34 3.92ZM233.40 11.20L234.34 2.98L234.34 2.98L230.88 2.98L231.04 1.76Q231.06 1.60 231.16 1.48Q231.26 1.36 231.40 1.36L231.40 1.36L234.56 1.36L234.58 1.20Q234.60 1 234.72 0.89Q234.84 0.78 235.00 0.78L235.00 0.78L238.62 0.78L238.54 1.36L242.02 1.36L241.82 2.98L238.34 2.98L237.40 11.20L233.40 11.20ZM238.32 10.20L238.32 10.20L238.32 10.20L238.66 3.62L240.92 3.62Q241.04 3.62 241.11 3.71Q241.18 3.80 241.18 3.92L241.18 3.92L240.78 11.20L239.08 11.20Q238.74 11.20 238.52 10.92Q238.30 10.64 238.32 10.20ZM230.18 11.20L229.96 11.20L229.96 11.20L231.26 3.82Q231.28 3.72 231.34 3.66Q231.40 3.60 231.50 3.60L231.50 3.60L233.82 3.60L233.00 8.32Q232.78 9.58 231.97 10.39Q231.16 11.20 230.18 11.20L230.18 11.20ZM246.40 2.52L246.60 0.96L246.60 0.96L253.54 0.96L252.60 8.94Q252.50 9.88 251.88 10.54L251.88 10.54Q251.30 11.20 250.52 11.20L250.52 11.20L243.24 11.20Q242.48 11.20 242.02 10.54L242.02 10.54Q241.54 9.86 241.66 8.90L241.66 8.90L242.60 0.96L246.24 0.96L245.90 3.64L249.56 3.64L249.70 2.52L246.40 2.52ZM248.96 8.86L248.96 8.86L249.04 8.04L245.38 8.04L245.26 8.86Q245.20 9.20 245.30 9.30L245.30 9.30Q245.40 9.40 245.56 9.40L245.56 9.40Q248.02 9.40 248.24 9.40L248.24 9.40Q248.56 9.40 248.75 9.28Q248.94 9.16 248.96 8.86ZM245.58 6.48L249.24 6.48L249.24 6.48L249.42 5.10L245.78 5.10L245.58 6.48ZM230.50 19.56L228.66 19.56L228.66 19.56L230.24 11.74L234.26 11.74L233.10 16.64Q232.40 19.56 230.50 19.56L230.50 19.56ZM239.48 17.34L245.86 17.34L245.86 17.34Q246.46 17.32 246.81 17.74Q247.16 18.16 247.18 18.78L247.18 18.78L247.22 19.56L236.58 19.56Q235.78 19.56 235.20 18.84L235.20 18.84Q234.74 18.26 234.90 16.82L234.90 16.82L235.48 11.74L239.60 11.74L239.06 16.66Q239.04 16.94 239.16 17.14L239.16 17.14Q239.28 17.34 239.48 17.34L239.48 17.34ZM245.62 13.12L245.62 13.12L245.62 13.12L245.64 16.32L241.86 16.32L241.86 11.74L244.60 11.74Q245.02 11.74 245.31 12.13Q245.60 12.52 245.62 13.12ZM248.32 11.74L250.16 11.74L250.16 11.74Q250.96 11.74 251.51 12.51Q252.06 13.28 252.06 14.42L252.06 14.42L252.08 19.56L248.34 19.56L248.32 11.74ZM273.18 18.80L273.28 19.60L273.28 19.60L277.24 19.60L276.62 13.82Q276.50 12.92 275.88 12.33Q275.26 11.74 274.42 11.74L274.42 11.74L272.44 11.74L272.92 16.28L260.22 16.82Q259.98 16.84 259.86 16.62L259.86 16.62Q259.74 16.44 259.88 16.16L259.88 16.16L262.82 10.88L277.28 10.88Q277.70 10.88 278.03 10.58Q278.36 10.28 278.42 9.84L278.42 9.84L278.70 8.32L269.16 8.32L269.72 4.46L278.24 4.46Q278.60 4.46 278.87 4.22Q279.14 3.98 279.18 3.60L279.18 3.60L279.36 2.24L270.02 2.24L270.22 0.80L267.38 0.80Q266.90 0.80 266.54 1.13Q266.18 1.46 266.10 1.98L266.10 1.98L266.06 2.24L257.52 2.24Q257.18 2.24 256.92 2.48Q256.66 2.72 256.60 3.10L256.60 3.10L256.42 4.46L265.76 4.46L265.20 8.32L256.46 8.32Q256.12 8.32 255.86 8.55Q255.60 8.78 255.56 9.16L255.56 9.16L255.24 10.88L258.66 10.88L254.80 17.66Q254.64 17.98 254.60 18.32L254.60 18.32Q254.56 18.68 254.68 18.96L254.68 18.96Q254.80 19.24 255.02 19.40L255.02 19.40Q255.26 19.58 255.64 19.58L255.64 19.58L273.18 18.80ZM280.40 19.60L280.40 19.60L280.40 19.60L283.24 19.60Q283.82 18.94 284.43 17.92Q285.04 16.90 285.52 15.82L285.52 15.82Q285.84 15.00 285.39 14.31Q284.94 13.62 284.10 13.62L284.10 13.62L284.10 13.62Q283.06 13.62 282.60 14.76L282.60 14.76Q282.22 16.02 281.61 17.35Q281 18.68 280.40 19.60ZM312.94 6.06L308.14 19.60L308.14 19.60L308.18 19.60Q311.90 19.60 313.70 15.70L313.70 15.70L317.12 6.06L324.72 6.06Q325.02 6.06 325.24 5.87Q325.46 5.68 325.50 5.38L325.50 5.38L325.66 4.32L324.74 4.32L324.78 3.20Q324.82 2.30 324.22 1.67Q323.62 1.04 322.72 1.04L322.72 1.04L321.04 1.04L320.86 4.32L317.68 4.32L318.86 0.96L315.54 0.96Q314.78 0.96 314.44 1.74L314.44 1.74L313.54 4.32L311.94 4.32Q311.66 4.32 311.44 4.51Q311.22 4.70 311.18 5.00L311.18 5.00L311.02 6.06L312.94 6.06ZM319.28 19.60L319.28 19.60L319.28 19.60L325.06 19.60L325.06 19.60Q325.14 18.90 324.70 18.39Q324.26 17.88 323.56 17.88L323.56 17.88L321.94 17.88Q321.66 17.88 321.46 17.66L321.46 17.66Q321.28 17.46 321.32 17.14L321.32 17.14L322.74 7.10L319.62 7.10Q319.18 7.10 318.86 7.38Q318.54 7.66 318.46 8.10L318.46 8.10L317.18 17.18Q317.04 18.20 317.64 18.90L317.64 18.90Q318.26 19.60 319.28 19.60ZM304.20 0.74L307.48 0.74L307.48 0.74Q307.92 0.74 308.26 1.02Q308.60 1.30 308.70 1.74L308.70 1.74L308.88 2.72L311.26 1.92L311.08 3.28Q310.96 3.86 310.42 4.08L310.42 4.08L308.98 4.54L307.16 17.40Q307.04 18.30 306.32 18.96L306.32 18.96Q305.60 19.60 304.64 19.60L304.64 19.60L301.16 19.60L301.40 18.02L302.22 18.02Q302.54 18.02 302.80 17.78L302.80 17.78Q303.06 17.56 303.10 17.28L303.10 17.28L303.64 13.42L300.40 14.60L300.56 13.50Q300.70 12.68 301.46 12.36L301.46 12.36L303.92 11.46L304.70 5.94L301.46 7.00L301.66 5.66Q301.76 5.06 302.32 4.86L302.32 4.86L304.82 4.04L304.20 0.74ZM336.84 8.04L336.84 8.04L336.84 8.04L336.20 12.58L333.28 12.58L333.88 8.32Q333.92 8.14 333.80 8.00L333.80 8.00Q333.68 7.88 333.48 7.88L333.48 7.88L333.32 7.88L332.02 17.36Q331.90 18.28 331.20 18.94L331.20 18.94Q330.50 19.60 329.58 19.60L329.58 19.60L326.40 19.60L326.50 18.82Q326.56 18.50 326.78 18.30Q327 18.10 327.30 18.10L327.30 18.10L327.48 18.10Q327.76 18.10 328 17.86L328 17.86Q328.24 17.62 328.28 17.32L328.28 17.32L329.58 7.88L328.18 7.88Q327.86 7.88 327.66 7.64Q327.46 7.40 327.50 7.08L327.50 7.08L327.58 6.38L328.42 6.38L328.32 2.98L330.28 2.98Q330.78 2.98 331.12 3.32Q331.46 3.66 331.50 4.18L331.50 4.18L331.58 6.38L332.06 6.38L333.64 2.34L329.36 2.34Q328.88 2.34 328.57 1.97Q328.26 1.60 328.32 1.10L328.32 1.10L328.36 0.84L337.72 0.84L337.58 1.86Q337.54 2.20 337.40 2.52L337.40 2.52L335.66 6.36Q336.24 6.50 336.58 6.94L336.58 6.94Q336.92 7.40 336.84 8.04ZM350.78 9.48L348.58 12.94L348.58 12.94L349.50 19.18L348.30 19.18Q347.42 19.18 346.77 18.60Q346.12 18.02 345.98 17.12L345.98 17.12L345.46 13.46L344.92 17.36Q344.80 18.28 344.08 18.94L344.08 18.94Q343.36 19.60 342.48 19.60L342.48 19.60L338.90 19.60L338.94 19.26Q339 18.80 339.33 18.51Q339.66 18.22 340.10 18.22L340.10 18.22L340.56 18.22Q340.74 18.22 340.92 18.06L340.92 18.06Q341.10 17.92 341.12 17.72L341.12 17.72L341.28 16.56L338 18.08Q337.52 18.30 337.02 18.17Q336.52 18.04 336.20 17.60L336.20 17.60L336.06 17.42L341.52 14.84L341.78 12.96L338.50 14.50Q338 14.74 337.50 14.60Q337 14.46 336.68 14.02L336.68 14.02L336.56 13.86L341.76 11.34L340.94 10.20L338.94 11.16Q338.46 11.38 337.96 11.25Q337.46 11.12 337.14 10.70L337.14 10.70L337.02 10.52L341.18 8.52L338.90 8.52Q338.20 8.52 337.76 8.06L337.76 8.06Q337.32 7.60 337.40 6.98L337.40 6.98L337.92 3.18L341.56 3.18L341.08 6.70Q341.04 6.88 341.16 7.02L341.16 7.02Q341.26 7.14 341.46 7.14L341.46 7.14L342.48 7.14L342.82 4.58L341.68 4.58L341.88 3.18L346.92 3.18L347.28 2.34L342.16 2.34L342.02 2.60Q341.88 2.86 341.62 2.86L341.62 2.86L338.04 2.86L338.92 1.18Q339.18 0.74 339.62 0.74L339.62 0.74L351.24 0.74Q351.44 0.74 351.54 0.90Q351.64 1.06 351.56 1.24L351.56 1.24L350.62 3.18L351.66 3.18L351.14 6.98Q351.04 7.60 350.48 8.06L350.48 8.06Q349.94 8.52 349.24 8.52L349.24 8.52L344.68 8.52L345.34 9.32Q345.90 10.06 345.80 11L345.80 11L345.66 12L346.80 10.16Q347.28 9.48 348.04 9.48L348.04 9.48L350.78 9.48ZM347.92 4.58L346.46 4.58L346.46 4.58L346.12 7.14L347.06 7.14Q347.24 7.14 347.42 7.02L347.42 7.02Q347.60 6.88 347.64 6.70L347.64 6.70L347.92 4.58ZM367.14 11.18L369.78 11.18L369.78 11.18L371.48 18.54Q371.58 19 371.94 19.30L371.94 19.30Q372.28 19.60 372.72 19.60L372.72 19.60L375.66 19.60L373.78 11.18L375.98 11.18Q376.32 11.18 376.58 10.95Q376.84 10.72 376.90 10.36L376.90 10.36L377.06 9.26L367.42 9.26L368.20 3.32L376.60 3.32Q376.96 3.32 377.22 3.09Q377.48 2.86 377.54 2.52L377.54 2.52L377.66 1.52L368.46 1.52L368.56 0.74L365.10 0.74Q364.88 0.74 364.70 0.88L364.70 0.88Q364.54 1.04 364.50 1.28L364.50 1.28L364.48 1.52L356.10 1.52Q355.72 1.52 355.44 1.76L355.44 1.76Q355.18 2.00 355.12 2.42L355.12 2.42L355 3.32L364.24 3.32L363.42 9.26L354.28 9.26Q354.08 9.26 353.92 9.40L353.92 9.40Q353.76 9.56 353.72 9.78L353.72 9.78L353.54 11.18L356.54 11.18L352.40 19.60L353.48 19.60Q356.12 19.60 357.62 16.88L357.62 16.88L360.52 11.18L363.18 11.18L362.02 19.60L366.02 19.60L367.14 11.18ZM359.12 3.92L356.62 3.92L356.62 3.92L356.64 8.62L361.28 8.64L361.32 6.16Q361.28 5.22 360.64 4.58L360.64 4.58Q360.02 3.92 359.12 3.92L359.12 3.92ZM376.34 3.92L371.54 3.92L371.54 3.92L370.08 8.62L373.40 8.62Q374.72 8.62 375.34 7.16L375.34 7.16L376.34 3.92ZM390.94 6.06L386.14 19.60L386.14 19.60L386.18 19.60Q389.90 19.60 391.70 15.70L391.70 15.70L395.12 6.06L402.72 6.06Q403.02 6.06 403.24 5.87Q403.46 5.68 403.50 5.38L403.50 5.38L403.66 4.32L402.74 4.32L402.78 3.20Q402.82 2.30 402.22 1.67Q401.62 1.04 400.72 1.04L400.72 1.04L399.04 1.04L398.86 4.32L395.68 4.32L396.86 0.96L393.54 0.96Q392.78 0.96 392.44 1.74L392.44 1.74L391.54 4.32L389.94 4.32Q389.66 4.32 389.44 4.51Q389.22 4.70 389.18 5.00L389.18 5.00L389.02 6.06L390.94 6.06ZM397.28 19.60L397.28 19.60L397.28 19.60L403.06 19.60L403.06 19.60Q403.14 18.90 402.70 18.39Q402.26 17.88 401.56 17.88L401.56 17.88L399.94 17.88Q399.66 17.88 399.46 17.66L399.46 17.66Q399.28 17.46 399.32 17.14L399.32 17.14L400.74 7.10L397.62 7.10Q397.18 7.10 396.86 7.38Q396.54 7.66 396.46 8.10L396.46 8.10L395.18 17.18Q395.04 18.20 395.64 18.90L395.64 18.90Q396.26 19.60 397.28 19.60ZM382.20 0.74L385.48 0.74L385.48 0.74Q385.92 0.74 386.26 1.02Q386.60 1.30 386.70 1.74L386.70 1.74L386.88 2.72L389.26 1.92L389.08 3.28Q388.96 3.86 388.42 4.08L388.42 4.08L386.98 4.54L385.16 17.40Q385.04 18.30 384.32 18.96L384.32 18.96Q383.60 19.60 382.64 19.60L382.64 19.60L379.16 19.60L379.40 18.02L380.22 18.02Q380.54 18.02 380.80 17.78L380.80 17.78Q381.06 17.56 381.10 17.28L381.10 17.28L381.64 13.42L378.40 14.60L378.56 13.50Q378.70 12.68 379.46 12.36L379.46 12.36L381.92 11.46L382.70 5.94L379.46 7.00L379.66 5.66Q379.76 5.06 380.32 4.86L380.32 4.86L382.82 4.04L382.20 0.74ZM414.84 8.04L414.84 8.04L414.84 8.04L414.20 12.58L411.28 12.58L411.88 8.32Q411.92 8.14 411.80 8.00L411.80 8.00Q411.68 7.88 411.48 7.88L411.48 7.88L411.32 7.88L410.02 17.36Q409.90 18.28 409.20 18.94L409.20 18.94Q408.50 19.60 407.58 19.60L407.58 19.60L404.40 19.60L404.50 18.82Q404.56 18.50 404.78 18.30Q405 18.10 405.30 18.10L405.30 18.10L405.48 18.10Q405.76 18.10 406 17.86L406 17.86Q406.24 17.62 406.28 17.32L406.28 17.32L407.58 7.88L406.18 7.88Q405.86 7.88 405.66 7.64Q405.46 7.40 405.50 7.08L405.50 7.08L405.58 6.38L406.42 6.38L406.32 2.98L408.28 2.98Q408.78 2.98 409.12 3.32Q409.46 3.66 409.50 4.18L409.50 4.18L409.58 6.38L410.06 6.38L411.64 2.34L407.36 2.34Q406.88 2.34 406.57 1.97Q406.26 1.60 406.32 1.10L406.32 1.10L406.36 0.84L415.72 0.84L415.58 1.86Q415.54 2.20 415.40 2.52L415.40 2.52L413.66 6.36Q414.24 6.50 414.58 6.94L414.58 6.94Q414.92 7.40 414.84 8.04ZM428.78 9.48L426.58 12.94L426.58 12.94L427.50 19.18L426.30 19.18Q425.42 19.18 424.77 18.60Q424.12 18.02 423.98 17.12L423.98 17.12L423.46 13.46L422.92 17.36Q422.80 18.28 422.08 18.94L422.08 18.94Q421.36 19.60 420.48 19.60L420.48 19.60L416.90 19.60L416.94 19.26Q417 18.80 417.33 18.51Q417.66 18.22 418.10 18.22L418.10 18.22L418.56 18.22Q418.74 18.22 418.92 18.06L418.92 18.06Q419.10 17.92 419.12 17.72L419.12 17.72L419.28 16.56L416 18.08Q415.52 18.30 415.02 18.17Q414.52 18.04 414.20 17.60L414.20 17.60L414.06 17.42L419.52 14.84L419.78 12.96L416.50 14.50Q416 14.74 415.50 14.60Q415 14.46 414.68 14.02L414.68 14.02L414.56 13.86L419.76 11.34L418.94 10.20L416.94 11.16Q416.46 11.38 415.96 11.25Q415.46 11.12 415.14 10.70L415.14 10.70L415.02 10.52L419.18 8.52L416.90 8.52Q416.20 8.52 415.76 8.06L415.76 8.06Q415.32 7.60 415.40 6.98L415.40 6.98L415.92 3.18L419.56 3.18L419.08 6.70Q419.04 6.88 419.16 7.02L419.16 7.02Q419.26 7.14 419.46 7.14L419.46 7.14L420.48 7.14L420.82 4.58L419.68 4.58L419.88 3.18L424.92 3.18L425.28 2.34L420.16 2.34L420.02 2.60Q419.88 2.86 419.62 2.86L419.62 2.86L416.04 2.86L416.92 1.18Q417.18 0.74 417.62 0.74L417.62 0.74L429.24 0.74Q429.44 0.74 429.54 0.90Q429.64 1.06 429.56 1.24L429.56 1.24L428.62 3.18L429.66 3.18L429.14 6.98Q429.04 7.60 428.48 8.06L428.48 8.06Q427.94 8.52 427.24 8.52L427.24 8.52L422.68 8.52L423.34 9.32Q423.90 10.06 423.80 11L423.80 11L423.66 12L424.80 10.16Q425.28 9.48 426.04 9.48L426.04 9.48L428.78 9.48ZM425.92 4.58L424.46 4.58L424.46 4.58L424.12 7.14L425.06 7.14Q425.24 7.14 425.42 7.02L425.42 7.02Q425.60 6.88 425.64 6.70L425.64 6.70L425.92 4.58ZM449.18 18.80L449.28 19.60L449.28 19.60L453.24 19.60L452.62 13.82Q452.50 12.92 451.88 12.33Q451.26 11.74 450.42 11.74L450.42 11.74L448.44 11.74L448.92 16.28L436.22 16.82Q435.98 16.84 435.86 16.62L435.86 16.62Q435.74 16.44 435.88 16.16L435.88 16.16L438.82 10.88L453.28 10.88Q453.70 10.88 454.03 10.58Q454.36 10.28 454.42 9.84L454.42 9.84L454.70 8.32L445.16 8.32L445.72 4.46L454.24 4.46Q454.60 4.46 454.87 4.22Q455.14 3.98 455.18 3.60L455.18 3.60L455.36 2.24L446.02 2.24L446.22 0.80L443.38 0.80Q442.90 0.80 442.54 1.13Q442.18 1.46 442.10 1.98L442.10 1.98L442.06 2.24L433.52 2.24Q433.18 2.24 432.92 2.48Q432.66 2.72 432.60 3.10L432.60 3.10L432.42 4.46L441.76 4.46L441.20 8.32L432.46 8.32Q432.12 8.32 431.86 8.55Q431.60 8.78 431.56 9.16L431.56 9.16L431.24 10.88L434.66 10.88L430.80 17.66Q430.64 17.98 430.60 18.32L430.60 18.32Q430.56 18.68 430.68 18.96L430.68 18.96Q430.80 19.24 431.02 19.40L431.02 19.40Q431.26 19.58 431.64 19.58L431.64 19.58L449.18 18.80ZM456.40 19.60L456.40 19.60L456.40 19.60L459.24 19.60Q459.82 18.94 460.43 17.92Q461.04 16.90 461.52 15.82L461.52 15.82Q461.84 15.00 461.39 14.31Q460.94 13.62 460.10 13.62L460.10 13.62L460.10 13.62Q459.06 13.62 458.60 14.76L458.60 14.76Q458.22 16.02 457.61 17.35Q457 18.68 456.40 19.60ZM497.90 19.58L497.28 18.16L497.28 18.16Q496.88 17.44 496.18 17.44L496.18 17.44L492.26 17.44Q491.90 17.44 491.64 17.20L491.64 17.20Q491.38 16.98 491.44 16.66L491.44 16.66L491.82 14.46L490.34 14.46L491.50 8.42L486.98 8.42L485.96 14.26L476.46 19.58L482.18 19.58Q483.02 19.58 483.78 19.14L483.78 19.14L487.90 16.86L487.80 17.46Q487.64 18.34 488.26 18.96L488.26 18.96Q488.90 19.58 489.96 19.58L489.96 19.58L497.90 19.58ZM496.04 0.88L496.04 0.88L496.04 0.88Q496.56 0.76 497.32 0.76L497.32 0.76L500.92 0.76L500.18 2.38L501.32 2.38Q501.46 2.38 501.52 2.46L501.52 2.46Q501.60 2.54 501.58 2.68L501.58 2.68L501.20 4.36Q501.16 4.52 501.03 4.62Q500.90 4.72 500.74 4.72L500.74 4.72L495.50 4.72L495.64 3.82L484.20 3.82L484.02 4.72L478.34 4.72L478.60 3.14Q478.66 2.80 478.94 2.58L478.94 2.58Q479.18 2.38 479.56 2.38L479.56 2.38L480.20 2.38L480.10 1.80Q480.06 1.42 480.38 1.12L480.38 1.12Q480.66 0.82 481.10 0.82L481.10 0.82L485.08 0.82L485.26 2.38L487.30 2.38L487.44 1.56Q487.50 1.20 487.80 0.98L487.80 0.98Q488.08 0.74 488.44 0.74L488.44 0.74L493.30 0.74L493.04 2.38L494.88 2.38L495.26 1.64Q495.52 1 496.04 0.88ZM479.96 6.54L479.96 6.54L479.96 6.54L478.32 15.76L482.14 15.76L483.98 5.16L481.66 5.16Q481.02 5.16 480.54 5.54L480.54 5.54Q480.06 5.94 479.96 6.54ZM495.22 7.46L493.74 15.76L493.74 15.76L497.56 15.76L499.12 7.02Q499.24 6.28 498.80 5.72L498.80 5.72Q498.34 5.16 497.60 5.16L497.60 5.16L484.54 5.16L484.26 6.92L494.68 6.92Q494.94 6.92 495.08 7.06L495.08 7.06Q495.26 7.24 495.22 7.46L495.22 7.46ZM507.66 9.16L510.48 5.32L510.48 5.32L505.98 5.32L502.40 10.08L504.80 10.08L503.46 19.60L507.64 19.60L509.10 9.16L507.66 9.16ZM508.52 4.14L508.52 4.14L508.52 4.14L511.16 0.74L506.64 0.74L503.12 5.14L506.32 5.14Q507.56 5.14 508.52 4.14ZM524.78 10.40L525.70 10.40L525.70 10.40Q526 10.40 526.22 10.22L526.22 10.22Q526.44 10.02 526.50 9.72L526.50 9.72L526.62 8.78L511.58 8.78Q511.30 8.78 511.10 8.96L511.10 8.96Q510.88 9.14 510.84 9.42L510.84 9.42L510.72 10.40L520.70 10.40L520.52 11.66L510.94 11.66Q510.64 11.66 510.42 11.90L510.42 11.90Q510.20 12.14 510.16 12.44L510.16 12.44L510.04 13.38L520.28 13.38L519.74 17.26Q519.70 17.58 519.46 17.78L519.46 17.78Q519.22 17.96 518.90 17.96L518.90 17.96L517.74 17.96Q517.32 17.96 517 18.24L517 18.24Q516.68 18.54 516.62 18.96L516.62 18.96L516.54 19.60L521.30 19.60Q522.24 19.60 522.96 18.94L522.96 18.94Q523.70 18.32 523.82 17.38L523.82 17.38L524.38 13.38L525.36 13.38Q525.74 13.38 526.02 13.10L526.02 13.10Q526.28 12.82 526.34 12.44L526.34 12.44L526.46 11.66L524.60 11.66L524.78 10.40ZM518.56 16.80L518.82 15.10L518.82 15.10L511.32 14.18Q511.24 14.90 511.66 15.46L511.66 15.46Q512.10 16 512.84 16.10L512.84 16.10L518.56 16.80ZM527.66 0.74L517.16 0.74L517.16 0.74L516.94 2.38L523.26 2.38L523.10 3.48L515.84 3.48L515.96 2.54L516.20 0.74L512.06 0.74L511.36 5.78Q511.24 6.74 511.78 7.38L511.78 7.38Q512.32 8.06 513.26 8.06L513.26 8.06L524.46 8.06Q525.36 8.06 526.08 7.40L526.08 7.40Q526.80 6.74 526.94 5.80L526.94 5.80L527.66 0.74ZM522.88 5.14L522.80 5.70L522.80 5.70Q522.76 6.02 522.50 6.22L522.50 6.22Q522.26 6.40 521.94 6.40L521.94 6.40L516.16 6.40Q515.86 6.40 515.68 6.22L515.68 6.22Q515.54 6.06 515.52 5.86L515.52 5.86Q515.52 5.78 515.54 5.70L515.54 5.70L515.62 5.14L522.88 5.14ZM515.54 5.70L515.62 5.14L515.62 5.14L515.54 5.70Q515.52 5.78 515.52 5.86L515.52 5.86Q515.52 5.78 515.54 5.70L515.54 5.70ZM515.52 5.86L515.52 5.86L515.52 5.86Q515.54 6.06 515.68 6.22L515.68 6.22Q515.86 6.40 516.16 6.40L516.16 6.40Q515.86 6.40 515.68 6.22L515.68 6.22Q515.54 6.06 515.52 5.86ZM515.96 2.54L515.84 3.48L515.84 3.48L515.96 2.56L516 2.38L515.96 2.56L516.20 0.74L515.96 2.54ZM522.50 6.22L522.50 6.22L522.50 6.22Q522.26 6.40 521.94 6.40L521.94 6.40Q522.26 6.40 522.50 6.22L522.50 6.22Q522.76 6.02 522.80 5.70L522.80 5.70L522.88 5.14L522.80 5.70Q522.76 6.02 522.50 6.22ZM542.44 1.44L542.38 1.86L542.38 1.86L553.66 1.86L551.50 17.32Q551.36 18.26 550.62 18.92L550.62 18.92Q549.88 19.58 548.96 19.58L548.96 19.58L530.30 19.58Q529.38 19.58 528.84 18.92L528.84 18.92Q528.32 18.26 528.44 17.32L528.44 17.32L530.58 1.86L534.70 1.86L534.06 6.40L548.90 6.40L549.26 3.82L535.32 3.82L535.60 1.86L538.46 1.86L538.60 0.76L541.88 0.76Q542.16 0.76 542.32 0.96Q542.48 1.16 542.44 1.44L542.44 1.44ZM547.50 16.60L547.50 16.60L547.50 16.60L547.84 14.16L532.98 14.16L532.66 16.60Q532.58 17.02 532.82 17.30L532.82 17.30Q533.04 17.60 533.44 17.60L533.44 17.60L546.36 17.60Q546.78 17.60 547.10 17.30L547.10 17.30Q547.42 17.02 547.50 16.60ZM533.32 11.80L548.16 11.80L548.16 11.80L548.58 8.72L533.74 8.72L533.32 11.80ZM575.34 17.34L560.20 17.34L560.20 17.34Q559.80 17.34 559.56 17.04L559.56 17.04Q559.32 16.76 559.38 16.34L559.38 16.34L560.50 8.18L555.82 8.18L554.58 17.34Q554.46 18.30 555 18.96L555 18.96Q555.54 19.60 556.42 19.60L556.42 19.60L577.76 19.60L577.68 19Q576.92 17.34 575.34 17.34L575.34 17.34ZM560.76 10.74L576.02 10.74L576.02 10.74Q576.90 10.74 577.62 10.08L577.62 10.08Q578.34 9.44 578.46 8.48L578.46 8.48L579.50 0.74L556.60 0.74L556.46 1.84Q556.40 2.42 556.77 2.83Q557.14 3.24 557.70 3.24L557.70 3.24L575.10 3.24L574.58 7.18Q574.52 7.60 574.20 7.88L574.20 7.88Q573.90 8.18 573.48 8.18L573.48 8.18L561.14 8.18L560.76 10.74ZM583.18 1.48L583.18 1.48L583.18 1.48L583.28 0.78L588.26 1.68L588 3.56L584.14 2.86Q583.64 2.76 583.38 2.38Q583.12 2.00 583.18 1.48ZM582.72 4.84L582.72 4.84L582.72 4.84L582.82 4.14L587.80 5.04L587.54 6.92L583.68 6.22Q583.18 6.14 582.92 5.76Q582.66 5.38 582.72 4.84ZM582.94 19.54L580.66 19.54L580.66 19.54L583.18 7.86L587.40 7.86L585.20 17.68Q585 18.48 584.36 19.01Q583.72 19.54 582.94 19.54L582.94 19.54ZM604.84 6.04L604.84 6.04L604.84 6.04L605.30 6.04Q605.36 6.04 605.40 6.09Q605.44 6.14 605.44 6.20L605.44 6.20L605.20 7.76L602.18 7.76Q601.28 7.76 600.70 7.14L600.70 7.14Q600.42 6.82 600.32 6.34Q600.22 5.86 600.28 5.40L600.28 5.40L600.60 2.84L594.80 2.84L595.06 0.92L605.02 0.92L604.42 5.52Q604.40 5.72 604.52 5.88L604.52 5.88Q604.64 6.04 604.84 6.04ZM605 8.08L604.70 10.24L604.70 10.24L598.56 15.00L604.58 19.54L599.46 19.54Q599.20 19.54 599 19.36L599 19.36L595.76 16.96L593.02 18.96Q592.30 19.54 591.50 19.54L591.50 19.54L586.66 19.54L593.14 14.74L588.46 10.62L593.60 10.62Q593.76 10.62 593.90 10.74L593.90 10.74L595.96 12.44L599.62 9.98L588.40 9.98L588.60 8.68Q588.64 8.42 588.84 8.25Q589.04 8.08 589.30 8.08L589.30 8.08L605 8.08ZM589.74 5.52L590.36 0.92L590.36 0.92L594.60 0.92L594.38 2.48L593.98 5.40Q593.92 5.86 593.68 6.34Q593.44 6.82 593.06 7.14L593.06 7.14Q592.36 7.76 591.46 7.76L591.46 7.76L588.54 7.76L588.72 6.44Q588.74 6.28 588.87 6.16Q589 6.04 589.16 6.04L589.16 6.04L589.26 6.04Q589.36 6.04 589.44 6.00Q589.52 5.96 589.60 5.88L589.60 5.88Q589.66 5.80 589.69 5.71Q589.72 5.62 589.74 5.54L589.74 5.54Q589.74 5.52 589.74 5.52L589.74 5.52ZM631.36 3.12L631.68 1.40L631.68 1.40L614.80 1.40L615.32 0.74L611 0.74L610.52 1.40L608.04 1.40Q607.80 1.40 607.60 1.64L607.60 1.64Q607.42 1.90 607.38 2.16L607.38 2.16L607.08 3.60L609.18 3.60L606.42 7.90L608.84 7.90L607.14 19.60L609.88 19.60Q610.44 19.60 610.86 19.23Q611.28 18.86 611.38 18.30L611.38 18.30L611.80 15.16L624.48 15.16L624.22 17.16Q624.20 17.28 624.14 17.36L624.14 17.36Q624.08 17.42 623.98 17.50L623.98 17.50Q623.96 17.52 623.90 17.54L623.90 17.54Q623.80 17.64 623.70 17.66L623.70 17.66Q623.58 17.66 623.46 17.66L623.46 17.66Q623.42 17.66 623.36 17.66L623.36 17.66L621.22 17.66Q620.80 17.66 620.50 18.02L620.50 18.02Q620.18 18.36 620.12 18.80L620.12 18.80L620.02 19.60L625.54 19.60Q626.48 19.60 627.26 19.06L627.26 19.06Q628.02 18.50 628.16 17.42L628.16 17.42L629.88 5.28L614.10 5.28L613.84 6.84L625.66 6.84L625.38 8.96L612.70 8.96L613.24 5.28L612.42 5.28L613.44 3.60L630.80 3.60Q631.02 3.60 631.18 3.46L631.18 3.46Q631.32 3.32 631.36 3.12L631.36 3.12ZM612.12 13.10L612.44 11.14L612.44 11.14L625.12 11.14L624.80 13.10L612.12 13.10ZM639.56 8.74L635.74 8.74L635.74 8.74L632.46 19.58L635.44 19.58Q636.20 19.58 636.54 18.76L636.54 18.76L639.56 8.74ZM635.80 7.92L639.64 7.92L639.64 7.92L639.14 2.58Q639.06 1.90 638.60 1.46L638.60 1.46Q638.14 1 637.46 0.98L637.46 0.98L634.90 0.98L634.90 0.96L635.80 7.92ZM641.28 4.60L639.18 19.52L639.18 19.52L643.32 19.52L643.36 19.18L654.80 19.18Q654.96 19.18 655.08 19.08Q655.20 18.98 655.22 18.82L655.22 18.82L655.46 17.14L651.82 17.14L652.32 13.66L655.24 13.66Q655.48 13.66 655.68 13.49Q655.88 13.32 655.92 13.06L655.92 13.06L656.12 11.60L652.60 11.60L653.02 8.66L656 8.66Q656.22 8.66 656.40 8.50Q656.58 8.34 656.62 8.12L656.62 8.12L656.80 6.76L653.28 6.76L653.66 4.12L656.70 4.12Q656.92 4.12 657.10 3.96Q657.28 3.80 657.32 3.58L657.32 3.58L657.48 2.38L653.82 2.38L653.86 1.74Q653.88 1.30 653.60 1.02Q653.32 0.74 652.90 0.74L652.90 0.74L649.74 0.74L649.68 2.38L645.80 2.38L646.70 0.74L642.16 0.74L640.06 4.60L641.28 4.60ZM649.14 6.76L645.12 6.76L645.12 6.76L645.48 4.12L649.52 4.12L649.14 6.76ZM648.46 11.60L644.44 11.60L644.44 11.60L644.84 8.66L648.88 8.66L648.46 11.60ZM647.68 17.14L643.66 17.14L643.66 17.14L644.14 13.66L648.18 13.66L647.68 17.14ZM682.92 8.50L682.92 8.50L682.92 8.50L683.22 8.50Q683.44 8.50 683.58 8.66Q683.72 8.82 683.68 9.04L683.68 9.04L683.56 9.88L678.92 9.88Q678.14 9.88 677.38 9.76L677.38 9.76Q676.64 9.66 676.10 9.52L676.10 9.52L671.32 8.04L666.38 9.44Q665.82 9.58 665.16 9.74L665.16 9.74Q664.46 9.88 663.90 9.88L663.90 9.88L658.96 9.88L659.12 8.80Q659.14 8.68 659.23 8.59Q659.32 8.50 659.46 8.50L659.46 8.50L659.90 8.50Q660.46 8.50 661.04 8.36L661.04 8.36L666.86 6.62L663.98 5.46L663.98 5.46Q663.48 6.38 662.54 6.38L662.54 6.38L659.46 6.38L661.76 1.16Q662 0.76 662.38 0.76L662.38 0.76L666.06 0.76L665.78 1.32L683.42 1.32L683.14 3.30Q682.90 4.70 681.52 5.16L681.52 5.16L676.36 6.58L681.88 8.36Q682.40 8.50 682.92 8.50ZM679.72 2.92L665.68 2.92L665.68 2.92L672 5.12L679.72 2.92ZM668.94 12.14L664.14 12.14L664.14 12.14L664.40 10.54L683.18 10.54L682.14 17.64Q682.02 18.46 681.34 19.02L681.34 19.02Q680.64 19.60 679.82 19.60L679.82 19.60L660.18 19.60Q659.36 19.60 658.84 19.02L658.84 19.02Q658.34 18.46 658.44 17.64L658.44 17.64L659.48 10.54L663.80 10.54L663.56 12.14L663.54 12.34L663.28 14.14L668.66 14.14L668.94 12.14ZM663.34 18.02L668.08 18.02L668.08 18.02L668.40 15.74L663.04 15.74L662.80 17.40Q662.76 17.66 662.92 17.84L662.92 17.84Q663.06 18.02 663.34 18.02L663.34 18.02ZM678.62 12.14L673.26 12.14L673.26 12.14L672.96 14.14L678.32 14.14L678.62 12.14ZM678.10 15.74L672.74 15.74L672.74 15.74L672.40 18.02L677.12 18.02Q677.40 18.02 677.62 17.84L677.62 17.84Q677.80 17.66 677.84 17.40L677.84 17.40L678.10 15.74ZM694.90 14.84L694.90 14.84L694.90 14.84L696.50 3.64L696.84 3.64Q696.98 3.64 697.08 3.56L697.08 3.56Q697.18 3.46 697.22 3.32L697.22 3.32L697.48 1.84L696.80 1.84L696.96 0.74L693.54 0.74Q693.26 0.74 693.06 0.92Q692.86 1.10 692.82 1.38L692.82 1.38L692.76 1.84L691.34 1.84L691.48 0.74L688.10 0.74Q687.82 0.74 687.62 0.92Q687.42 1.10 687.38 1.36L687.38 1.36L687.32 1.84L687.14 1.84Q686.94 1.84 686.76 2.00L686.76 2.00Q686.58 2.16 686.54 2.38L686.54 2.38L686.32 3.64L687.02 3.64L685.40 14.92Q685.36 15.28 685.54 15.58L685.54 15.58Q685.72 15.90 686.14 16.04L686.14 16.04L686.86 16.34L685.32 16.88Q684.74 17.10 684.64 17.70L684.64 17.70L684.42 19.60L689.74 17.76L694.66 19.60L694.88 17.70Q694.92 17.10 694.42 16.88L694.42 16.88L692.94 16.28L693.86 15.96Q694.80 15.64 694.90 14.84ZM692.44 3.64L690.90 14.58L690.90 14.58Q690.88 14.64 690.86 14.72L690.86 14.72Q690.76 14.94 690.48 15.02L690.48 15.02L690.12 15.18L689.80 15.02Q689.52 14.94 689.48 14.72L689.48 14.72Q689.46 14.68 689.46 14.66L689.46 14.66Q689.46 14.62 689.48 14.58L689.48 14.58L691.04 3.64L692.44 3.64ZM689.48 14.58L691.04 3.64L691.04 3.64L689.48 14.58Q689.46 14.62 689.46 14.66L689.46 14.66Q689.46 14.62 689.48 14.58L689.48 14.58ZM689.48 14.72L689.48 14.72L689.48 14.72Q689.46 14.68 689.46 14.66L689.46 14.66Q689.46 14.68 689.48 14.72ZM689.48 14.72L689.48 14.72L689.48 14.72Q689.52 14.94 689.80 15.02L689.80 15.02L690.12 15.18L689.80 15.02Q689.52 14.92 689.48 14.72ZM690.48 15.02L690.48 15.02L690.48 15.02L690.12 15.18L690.48 15.02Q690.76 14.94 690.86 14.72L690.86 14.72Q690.76 14.92 690.48 15.02ZM690.86 14.72L690.86 14.72L690.86 14.72Q690.88 14.64 690.90 14.58L690.90 14.58L692.44 3.64L690.90 14.58Q690.88 14.64 690.86 14.72ZM700.20 2.76L700.20 2.76L700.20 2.76L704.10 2.76L700.92 7.20L700.84 7.70L697.56 7.70Q697.22 7.70 696.98 7.98L696.98 7.98Q696.72 8.24 696.66 8.58L696.66 8.58L696.52 9.72L700.58 9.72L699.58 16.72Q699.54 17.06 699.24 17.32L699.24 17.32Q699.08 17.46 698.78 17.50L698.78 17.50Q698.48 17.52 698.24 17.52L698.24 17.52L698.02 17.52Q697.38 17.52 696.90 17.98L696.90 17.98Q696.44 18.42 696.40 19.08L696.40 19.08L696.36 19.60L701.22 19.60Q702.22 19.60 703.04 18.88L703.04 18.88Q703.86 18.18 704 17.18L704 17.18L705.08 9.72L707.68 9.72Q708.08 9.72 708.36 9.42L708.36 9.42Q708.64 9.12 708.70 8.72L708.70 8.72L708.82 7.70L705.34 7.70L709.48 2.12L709.68 0.74L698.14 0.74L698.84 1.96Q699.36 2.76 700.20 2.76ZM710.42 19.60L710.42 19.60L710.42 19.60L713.26 19.60Q713.84 18.94 714.45 17.92Q715.06 16.90 715.54 15.82L715.54 15.82Q715.86 15.00 715.41 14.31Q714.96 13.62 714.12 13.62L714.12 13.62L714.12 13.62Q713.08 13.62 712.62 14.76L712.62 14.76Q712.24 16.02 711.63 17.35Q711.02 18.68 710.42 19.60ZM755.64 1.18L755.64 1.18L755.64 1.18Q755.78 1.64 755.42 1.98L755.42 1.98L753.04 3.96L753.44 3.96Q754.22 3.96 754.70 4.54L754.70 4.54Q755.18 5.12 755.06 5.94L755.06 5.94L754.28 12.16L750.42 12.16L750.54 11.26L745.08 11.26L745.02 11.76Q744.98 11.94 744.88 12.04L744.88 12.04Q744.76 12.16 744.60 12.16L744.60 12.16L741.04 12.16L741.16 11.26L735.34 11.26L735.22 12.16L731.34 12.16L732.26 4.90Q732.32 4.48 732.62 4.22Q732.92 3.96 733.34 3.96L733.34 3.96L735.12 3.96L734.68 2.90L738.36 2.90Q738.90 2.90 739.18 3.48L739.18 3.48L739.38 3.96L748.54 3.96L750.32 2.36L734.28 2.36Q733.68 2.36 733.28 1.88L733.28 1.88Q732.88 1.40 732.96 0.74L732.96 0.74L755.02 0.74Q755.48 0.74 755.64 1.18ZM735.52 9.78L741.36 9.78L741.36 9.78L741.50 8.40L735.68 8.40L735.52 9.78ZM735.86 6.92L741.70 6.92L741.70 6.92L741.88 5.50L736.52 5.50Q736.34 5.50 736.18 5.64L736.18 5.64Q736.02 5.80 735.98 6.00L735.98 6.00L735.86 6.92ZM745.28 9.78L750.72 9.78L750.72 9.78L750.88 8.40L745.42 8.40L745.28 9.78ZM751.06 6.92L751.18 6.00L751.18 6.00Q751.22 5.80 751.10 5.64L751.10 5.64Q750.96 5.50 750.78 5.50L750.78 5.50L745.80 5.50L745.62 6.92L751.06 6.92ZM734.76 12.50L739.08 12.50L739.08 12.50L738.66 13.40L754 13.40L753.42 17.36Q753.30 18.30 752.58 18.96L752.58 18.96Q751.88 19.60 751 19.60L751 19.60L744.44 19.60Q744.54 18.88 745.04 18.44L745.04 18.44Q745.54 17.98 746.20 17.98L746.20 17.98L748.52 17.98Q748.92 17.98 749.16 17.70L749.16 17.70Q749.40 17.40 749.46 16.98L749.46 16.98L749.78 15.02L737.84 15.02L736.28 17.60Q735.78 18.54 734.89 19.07Q734 19.60 732.96 19.60L732.96 19.60L730.42 19.60L733.30 15.02L732.30 15.02Q731.82 15.02 731.50 14.64L731.50 14.64Q731.20 14.28 731.24 13.74L731.24 13.74L731.30 13.40L734.12 13.40L734.50 12.66Q734.60 12.50 734.76 12.50L734.76 12.50ZM758.98 1L757.24 4.14L757.24 4.14L757.24 4.14L761.08 4.14Q761.72 4.14 762.20 3.48L762.20 3.48L762.28 3.36L780.40 3.36Q780.66 3.36 780.86 3.18L780.86 3.18Q781.06 3.00 781.10 2.74L781.10 2.74L781.30 1.42L763.36 1.42L763.76 0.74L759.42 0.74Q759.14 0.74 758.98 1L758.98 1ZM779.16 8.90L757.34 8.90L757.34 8.90L757.34 8.90Q757.06 8.90 756.88 9.08L756.88 9.08Q756.68 9.24 756.64 9.50L756.64 9.50L756.42 11L775.14 11L774.22 17.60Q774.14 18.14 774.28 18.58L774.28 18.58Q774.42 19 774.70 19.32L774.70 19.32Q775 19.62 775.42 19.78L775.42 19.78Q775.82 19.94 776.30 19.94L776.30 19.94L781.68 19.94L781.66 19.18Q781.60 18.70 781.24 18.37Q780.88 18.04 780.40 18.04L780.40 18.04L779.42 18.04L779.42 18.04Q778.70 18.04 778.80 17.36L778.80 17.36L779.88 9.70Q779.92 9.36 779.70 9.14L779.70 9.14Q779.48 8.90 779.16 8.90L779.16 8.90ZM780.52 5.32L757.86 5.32L757.86 5.32L757.86 5.32Q757.68 5.32 757.56 5.44L757.56 5.44Q757.44 5.54 757.42 5.70L757.42 5.70L757.22 7.10L779.46 7.10Q779.82 7.10 780.06 6.88L780.06 6.88Q780.32 6.64 780.38 6.30L780.38 6.30L780.52 5.32ZM785.20 1.48L785.20 1.48L785.20 1.48L785.30 0.78L790.28 1.68L790.02 3.56L786.16 2.86Q785.66 2.76 785.40 2.38Q785.14 2.00 785.20 1.48ZM784.74 4.84L784.74 4.84L784.74 4.84L784.84 4.14L789.82 5.04L789.56 6.92L785.70 6.22Q785.20 6.14 784.94 5.76Q784.68 5.38 784.74 4.84ZM784.96 19.54L782.68 19.54L782.68 19.54L785.20 7.86L789.42 7.86L787.22 17.68Q787.02 18.48 786.38 19.01Q785.74 19.54 784.96 19.54L784.96 19.54ZM806.86 6.04L806.86 6.04L806.86 6.04L807.32 6.04Q807.38 6.04 807.42 6.09Q807.46 6.14 807.46 6.20L807.46 6.20L807.22 7.76L804.20 7.76Q803.30 7.76 802.72 7.14L802.72 7.14Q802.44 6.82 802.34 6.34Q802.24 5.86 802.30 5.40L802.30 5.40L802.62 2.84L796.82 2.84L797.08 0.92L807.04 0.92L806.44 5.52Q806.42 5.72 806.54 5.88L806.54 5.88Q806.66 6.04 806.86 6.04ZM807.02 8.08L806.72 10.24L806.72 10.24L800.58 15.00L806.60 19.54L801.48 19.54Q801.22 19.54 801.02 19.36L801.02 19.36L797.78 16.96L795.04 18.96Q794.32 19.54 793.52 19.54L793.52 19.54L788.68 19.54L795.16 14.74L790.48 10.62L795.62 10.62Q795.78 10.62 795.92 10.74L795.92 10.74L797.98 12.44L801.64 9.98L790.42 9.98L790.62 8.68Q790.66 8.42 790.86 8.25Q791.06 8.08 791.32 8.08L791.32 8.08L807.02 8.08ZM791.76 5.52L792.38 0.92L792.38 0.92L796.62 0.92L796.40 2.48L796 5.40Q795.94 5.86 795.70 6.34Q795.46 6.82 795.08 7.14L795.08 7.14Q794.38 7.76 793.48 7.76L793.48 7.76L790.56 7.76L790.74 6.44Q790.76 6.28 790.89 6.16Q791.02 6.04 791.18 6.04L791.18 6.04L791.28 6.04Q791.38 6.04 791.46 6.00Q791.54 5.96 791.62 5.88L791.62 5.88Q791.68 5.80 791.71 5.71Q791.74 5.62 791.76 5.54L791.76 5.54Q791.76 5.52 791.76 5.52L791.76 5.52ZM832.58 2.98L831.82 2.98L831.82 2.98L831.68 4.08L833.44 4.08L833.32 5.08Q833.26 5.42 833.04 5.63Q832.82 5.84 832.54 5.84L832.54 5.84L832.44 5.84L832.36 6.48Q832.34 6.64 832.43 6.74Q832.52 6.84 832.64 6.84L832.64 6.84L833.10 6.84L832.88 8.60L830.72 8.60Q830.10 8.60 829.84 8.16L829.84 8.16Q829.56 7.74 829.64 7.16L829.64 7.16L829.80 5.84L829.22 5.84L828.60 7.38Q828.06 8.48 827.08 8.48L827.08 8.48L825.54 8.48L826.60 5.84L825.80 5.84L825.92 4.84Q825.96 4.50 826.18 4.29Q826.40 4.08 826.70 4.08L826.70 4.08L828.84 4.08L828.98 2.98L828.08 2.98L828.08 2.98Q827.78 3.86 827.06 3.86L827.06 3.86L825.88 3.86L826.66 0.88L828.62 0.88L828.54 1.22L829.20 1.22L829.20 1.22Q829.24 1.02 829.36 0.90Q829.48 0.78 829.66 0.78L829.66 0.78L832.10 0.78L832.04 1.22L833.70 1.22L833.60 1.96Q833.54 2.42 833.25 2.70Q832.96 2.98 832.58 2.98L832.58 2.98ZM825.82 16.62L827.16 16.62L827.16 16.62L831.56 19.60L828.22 19.60Q827.22 19.60 826.32 19.04L826.32 19.04L824.20 17.72L821.76 19.12Q820.90 19.60 819.98 19.60L819.98 19.60L816.14 19.60L822.70 15.70L823.14 12.20Q823.20 11.78 823.48 11.51Q823.76 11.24 824.14 11.24L824.14 11.24L826.48 11.24L825.82 16.62ZM821.38 1.22L821.38 1.22L821.38 1.22Q821.42 1.02 821.54 0.90Q821.66 0.78 821.84 0.78L821.84 0.78L824.18 0.78L824.12 1.22L825.88 1.22L825.78 1.96Q825.72 2.42 825.43 2.70Q825.14 2.98 824.76 2.98L824.76 2.98L823.90 2.98L823.76 4.08L825.62 4.08L825.50 5.08Q825.46 5.42 825.24 5.63Q825.02 5.84 824.72 5.84L824.72 5.84L824.72 5.84L824.64 6.48Q824.58 6.84 824.84 6.84L824.84 6.84L825.28 6.84L825.06 8.60L822.94 8.60Q822.30 8.60 822.08 8.16L822.08 8.16Q821.84 7.74 821.92 7.16L821.92 7.16L822.08 5.84L821.44 5.84L820.82 7.38Q820.28 8.48 819.28 8.48L819.28 8.48L817.74 8.48L818.80 5.84L817.98 5.84L818.10 4.84Q818.16 4.50 818.37 4.29Q818.58 4.08 818.88 4.08L818.88 4.08L821.04 4.08L821.16 2.98L820.30 2.98L820.30 2.98Q819.98 3.86 819.26 3.86L819.26 3.86L818.08 3.86L818.86 0.88L820.84 0.88L820.76 1.22L821.38 1.22ZM819.46 9.26L820.98 9.26L820.98 9.26L820.72 11.34L820.64 11.88L819.92 17.28L816.68 17.28L817.52 11.02Q817.62 10.30 818.18 9.78L818.18 9.78Q818.74 9.26 819.46 9.26L819.46 9.26ZM831.98 9.78L831.98 9.78L831.98 9.78Q832.40 10.30 832.28 11.02L832.28 11.02L831.44 17.28L828.32 17.28L829.12 11.34Q829.12 11.20 829.08 11.11Q829.04 11.02 828.94 10.94L828.94 10.94Q828.86 10.84 828.73 10.82Q828.60 10.80 828.48 10.80L828.48 10.80L821.56 10.80L821.76 9.26L830.88 9.26Q831.60 9.26 831.98 9.78ZM812.62 0.74L816.32 0.74L816.32 0.74L816.04 3.00L817.80 3.00L817.70 3.78Q817.64 4.20 817.37 4.47Q817.10 4.74 816.74 4.74L816.74 4.74L815.82 4.74L814.92 11.98L816.72 11.72L816.58 12.84Q816.52 13.22 816.29 13.47Q816.06 13.72 815.72 13.78L815.72 13.78L814.68 13.92L814.24 17.40Q814.12 18.30 813.48 18.96L813.48 18.96Q812.82 19.60 812 19.60L812 19.60L808.44 19.60L808.64 18L809.82 18Q810.08 18 810.30 17.78L810.30 17.78Q810.52 17.56 810.56 17.28L810.56 17.28L810.92 14.38L809.02 14.62L809.06 14.32Q809.16 13.58 809.61 13.09Q810.06 12.60 810.72 12.50L810.72 12.50L811.16 12.44L812.12 4.74L810.26 4.74L810.34 3.94Q810.40 3.54 810.67 3.27Q810.94 3.00 811.32 3.00L811.32 3.00L812.34 3.00L812.62 0.74ZM837.54 0.74L841 0.74L841 0.74L840.68 1.52L848.62 1.50L846.44 17.40Q846.32 18.30 845.60 18.94L845.60 18.94Q844.90 19.60 844.02 19.60L844.02 19.60L839.94 19.60L839.94 19.60Q840.06 18.90 840.55 18.45Q841.04 18 841.72 18L841.72 18L841.98 18Q842.26 18 842.52 17.78L842.52 17.78Q842.76 17.56 842.80 17.28L842.80 17.28L844.72 3.08L840.06 3.08L840.06 3.08Q839.52 4.22 838.44 4.22L838.44 4.22L835.84 4.22L837.10 1.06Q837.24 0.74 837.54 0.74L837.54 0.74ZM849.34 9.48L852.50 9.48L852.50 9.48L852.20 10.26L858.36 10.26L858.16 11.84L856.16 17.94Q855.66 19.60 853.62 19.60L853.62 19.60L847.02 19.60L847.02 19.60Q847.12 18.94 847.59 18.52Q848.06 18.10 848.68 18.10L848.68 18.10L851.74 18.10Q851.92 18.10 852.16 18L852.16 18Q852.38 17.92 852.46 17.62L852.46 17.62L854.42 11.84L851.64 11.84L851.64 11.84Q851.10 13 850.02 13L850.02 13L847.56 13L848.68 9.94Q848.90 9.48 849.34 9.48L849.34 9.48ZM843.44 4.76L841.96 15.56L841.96 15.56Q841.86 16.28 841.32 16.78L841.32 16.78Q840.76 17.28 840.08 17.28L840.08 17.28L835.96 17.28Q835.28 17.28 834.86 16.78L834.86 16.78Q834.44 16.28 834.54 15.56L834.54 15.56L836 4.76L838.90 4.76L838.70 6.26L838.64 6.62L837.44 15.42Q837.42 15.56 837.52 15.68L837.52 15.68Q837.60 15.78 837.74 15.78L837.74 15.78L838.70 15.78Q838.84 15.78 838.96 15.68L838.96 15.68Q839.08 15.56 839.10 15.42L839.10 15.42L840.34 6.26L839 6.26L839.20 4.76L843.44 4.76ZM849.16 4.36L854.52 4.72L854.52 4.72L854.30 6.30L850.50 6.04Q849.86 5.98 849.48 5.50Q849.10 5.02 849.16 4.36L849.16 4.36L849.16 4.36ZM847.64 14.00L852.82 14.52L852.82 14.52L852.60 16.18L849.02 15.82Q848.36 15.74 847.96 15.22Q847.56 14.70 847.64 14.00L847.64 14.00L847.64 14.00ZM853.68 0.76L853.48 1.24L853.48 1.24L859.66 1.24L859.46 2.82L858.08 7.32Q857.80 8.10 857.20 8.54L857.20 8.54Q856.60 8.98 855.54 8.98L855.54 8.98L848.46 8.98L848.46 8.96Q848.58 8.30 849.04 7.89Q849.50 7.48 850.12 7.48L850.12 7.48L853.66 7.48Q853.86 7.48 854.12 7.38L854.12 7.38Q854.38 7.30 854.46 7.00L854.46 7.00L855.72 2.82L852.80 2.82L852.80 2.82Q852.46 3.52 851.78 3.52L851.78 3.52L848.86 3.52L849.86 1.20Q850.08 0.76 850.50 0.76L850.50 0.76L853.68 0.76ZM865.96 15.98L865.96 15.98L865.96 15.98Q866.10 16.46 866.02 17L866.02 17Q865.96 17.54 865.68 18.02L865.68 18.02Q865.42 18.48 865 18.84L865 18.84Q864.60 19.20 864.10 19.40L864.10 19.40Q863.60 19.60 863.06 19.60L863.06 19.60Q862.52 19.60 862.06 19.40L862.06 19.40Q861.62 19.20 861.32 18.84L861.32 18.84Q861.02 18.48 860.88 18.02L860.88 18.02Q860.74 17.54 860.80 17L860.80 17Q860.88 16.46 861.16 15.98L861.16 15.98Q861.44 15.50 861.84 15.16L861.84 15.16Q862.24 14.80 862.74 14.60L862.74 14.60Q863.26 14.38 863.80 14.38L863.80 14.38Q864.34 14.38 864.78 14.60L864.78 14.60Q865.22 14.80 865.52 15.16L865.52 15.16Q865.84 15.50 865.96 15.98ZM864.12 17.80L864.12 17.80L864.12 17.80Q864.50 17.46 864.56 17L864.56 17Q864.64 16.52 864.34 16.20L864.34 16.20Q864.04 15.86 863.58 15.86L863.58 15.86Q863.10 15.86 862.74 16.20L862.74 16.20Q862.36 16.52 862.28 17L862.28 17Q862.22 17.46 862.50 17.80L862.50 17.80Q862.78 18.14 863.26 18.14L863.26 18.14Q863.72 18.14 864.12 17.80ZM883.54 13.06L881.70 13.06L881.70 13.06Q881.44 13.06 881.24 13.24Q881.04 13.42 881 13.68L881 13.68L880.82 14.96L903.62 14.96Q903.86 14.96 904.06 14.78Q904.26 14.60 904.30 14.32L904.30 14.32L904.48 13.06L902.02 13.06L903.34 3.36L904.92 3.36Q905.12 3.36 905.29 3.21Q905.46 3.06 905.48 2.82L905.48 2.82L905.66 1.60L903.58 1.60L903.70 0.74L900.16 0.74Q899.96 0.74 899.81 0.88Q899.66 1.02 899.62 1.24L899.62 1.24L899.56 1.60L889.10 1.60L889.22 0.74L885.70 0.74Q885.50 0.74 885.34 0.89Q885.18 1.04 885.14 1.26L885.14 1.26L885.08 1.60L883.66 1.60Q883.38 1.60 883.18 1.79Q882.98 1.98 882.92 2.26L882.92 2.26L882.78 3.36L884.86 3.36L883.54 13.06ZM882.88 16.14L880.54 19.58L880.54 19.58L882.96 19.58Q884.50 19.58 885.62 18.08L885.62 18.08L887.24 15.72L883.62 15.72Q883.18 15.72 882.88 16.14L882.88 16.14ZM899.08 5.26L888.60 5.26L888.60 5.26L888.86 3.36L899.34 3.36L899.08 5.26ZM898.54 9.16L888.08 9.16L888.08 9.16L888.38 6.86L898.86 6.86L898.54 9.16ZM898.02 13.06L887.54 13.06L887.54 13.06L887.84 10.90L898.30 10.90L898.02 13.06ZM897.66 15.72L898.96 19L898.96 19Q899.24 19.58 899.84 19.58L899.84 19.58L903.26 19.58L902.26 17.06Q901.62 15.72 900.26 15.72L900.26 15.72L897.66 15.72ZM929.74 14.36L929.74 14.36L929.74 14.36L930.24 12.92L908 12.92Q907.78 12.92 907.56 13.04L907.56 13.04Q907.36 13.14 907.24 13.34L907.24 13.34L906.78 14.90L928.80 14.90Q929.16 14.90 929.36 14.78L929.36 14.78Q929.56 14.66 929.74 14.36ZM907.84 4.52L911.90 4.52L911.90 4.52L912.30 1.64L910.18 1.64Q909.30 1.64 908.56 2.32L908.56 2.32Q908.02 2.92 907.94 3.66L907.94 3.66L907.84 4.52ZM914.50 18.96L920.76 14.90L920.76 14.90L924.06 4.60L920.56 4.60Q920.18 4.60 919.90 4.82L919.90 4.82Q919.62 5.04 919.50 5.38L919.50 5.38L916.52 13.98L907.64 19.60L912.44 19.60Q913.54 19.60 914.50 18.96L914.50 18.96ZM910.36 9.66L910.36 9.66L910.36 9.66Q910.72 10.32 911.56 10.54L911.56 10.54L916.28 11.78L916.88 9.94L910.24 8.20Q909.96 9.02 910.36 9.66ZM913.62 7.20L913.62 7.20L913.62 7.20L917.42 8.12L918.02 6.24L912.28 4.86Q912.02 5.68 912.38 6.32L912.38 6.32Q912.74 6.98 913.62 7.20ZM931.26 4.52L931.38 3.50L931.38 3.50Q931.50 2.72 931.02 2.20L931.02 2.20Q930.54 1.64 929.78 1.64L929.78 1.64L921.88 1.64Q921.92 1.24 921.72 0.98L921.72 0.98Q921.50 0.74 921.14 0.74L921.14 0.74L918.02 0.74L917.88 1.64L912.96 1.64L912.76 3.42L926.94 3.42Q927.02 3.42 927.10 3.44L927.10 3.44Q927.16 3.46 927.22 3.54L927.22 3.54Q927.28 3.60 927.30 3.68L927.30 3.68Q927.32 3.76 927.30 3.84L927.30 3.84L927.20 4.52L931.26 4.52ZM928.34 19.60L925.78 15.62L925.78 15.62Q925.64 15.42 925.42 15.42L925.42 15.42L921.46 15.42L923.58 18.74Q923.90 19.22 924.22 19.41Q924.54 19.60 925.04 19.60L925.04 19.60L928.34 19.60ZM954.18 10.82L935.74 10.82L935.74 10.82Q934.84 10.82 934.34 10.20L934.34 10.20Q933.82 9.54 933.96 8.64L933.96 8.64L935.02 0.74L939 0.74L938.04 7.94Q937.98 8.38 938.20 8.68L938.20 8.68Q938.44 9.00 938.84 9.00L938.84 9.00L951.56 9.00Q951.98 9.00 952.30 8.68L952.30 8.68Q952.62 8.38 952.70 7.94L952.70 7.94L953.44 2.40L940.06 2.40L940.28 0.74L957.66 0.74L956.58 8.64Q956.48 9.54 955.76 10.20L955.76 10.20Q955.08 10.82 954.18 10.82L954.18 10.82ZM950.04 11.98L953.56 11.98L953.56 11.98Q953.88 11.98 954.11 12.19Q954.34 12.40 954.38 12.72L954.38 12.72L955.20 19.58L955.20 19.58Q953.36 19.58 952.02 18.34Q950.68 17.10 950.40 15.18L950.40 15.18L950.04 11.98ZM932.34 19.58L932.34 19.58L932.34 19.58L935.08 12.60Q935.38 11.98 935.96 11.98L935.96 11.98L939.56 11.98L938.22 15.46Q936.22 19.58 932.34 19.58L932.34 19.58ZM975.70 14.84L975.70 14.84L975.70 14.84Q975.74 14.76 975.76 14.66L975.76 14.66L976.06 13.04L975.76 14.66Q975.74 14.76 975.70 14.84ZM965.48 14.70L965.48 14.70L965.48 14.70Q965.48 14.82 965.56 14.91Q965.64 15.00 965.80 15.04L965.80 15.04L970.64 16.02L965.80 15.04Q965.64 15.00 965.56 14.91Q965.48 14.82 965.48 14.70ZM965.48 14.58L965.74 13.04L965.74 13.04L965.48 14.58Q965.48 14.60 965.48 14.64L965.48 14.64Q965.48 14.60 965.48 14.58L965.48 14.58ZM976.34 10.78L981.22 10.78L981.22 10.78L981.08 11.52L982.02 11.52L981.90 12.40Q981.84 12.68 981.66 12.86Q981.48 13.04 981.24 13.04L981.24 13.04L980.84 13.04L980.44 15.48Q980.30 16.28 979.24 16.40L979.24 16.40L976.00 16.92L981.76 17.96L981.30 18.70Q980.70 19.58 979.76 19.46L979.76 19.46L970.30 17.92L958.66 19.62L958.70 19.38Q959.00 17.98 960.50 17.66L960.50 17.66L965.12 16.92L961.22 16.20Q960.18 16.10 960.32 15.30L960.32 15.30L960.68 13.04L959.74 13.04L959.88 12.02Q959.92 11.80 960.07 11.66Q960.22 11.52 960.40 11.52L960.40 11.52L960.92 11.52L961.06 10.78L966.08 10.78L965.94 11.52L976.20 11.52L976.34 10.78ZM975.76 14.66L975.76 14.66L975.76 14.66L976.06 13.04L965.74 13.04L965.48 14.58Q965.48 14.60 965.48 14.64L965.48 14.64Q965.48 14.68 965.48 14.70L965.48 14.70Q965.48 14.82 965.56 14.91Q965.64 15.00 965.80 15.04L965.80 15.04L970.64 16.02L975.20 15.12Q975.56 15.08 975.70 14.84L975.70 14.84Q975.74 14.76 975.76 14.66ZM965.48 14.70L965.48 14.70L965.48 14.70Q965.48 14.68 965.48 14.64L965.48 14.64Q965.48 14.68 965.48 14.70ZM983.50 0.84L983.30 2.52L983.30 2.52L977.12 2.52L976.92 3.46L982.88 3.46L982.28 8.08Q982.20 8.96 981.66 9.58L981.66 9.58Q981.12 10.22 980.48 10.22L980.48 10.22L961.84 10.22Q961.18 10.22 960.78 9.56L960.78 9.56Q960.38 8.92 960.48 8.06L960.48 8.06L961.06 3.46L965.00 3.46L964.28 8.04Q964.28 8.08 964.28 8.13Q964.28 8.18 964.28 8.22L964.28 8.22Q964.28 8.38 964.38 8.54L964.38 8.54Q964.50 8.70 964.68 8.70L964.68 8.70L966.30 8.70L966.88 5.10L965.80 5.10L966.00 3.46L967.02 3.46L967.16 2.52L960.84 2.52L960.96 1.66Q961.18 0.84 961.86 0.84L961.86 0.84L983.50 0.84ZM970.10 8.70L972.42 8.70L972.42 8.70L973.00 5.10L970.68 5.10L970.10 8.70ZM970.98 3.46L973.30 3.46L973.30 3.46L973.40 2.52L971.08 2.52L970.98 3.46ZM978.38 8.20L978.88 5.10L978.88 5.10L976.78 5.10L976.22 8.70L977.86 8.70Q977.94 8.70 978.04 8.68Q978.14 8.66 978.22 8.56L978.22 8.56Q978.30 8.48 978.33 8.40Q978.36 8.32 978.38 8.20L978.38 8.20ZM1002.96 14.52L1004.12 6.14L1004.12 6.14L998.12 6.14L998.62 4.54L1008.50 4.54L1007.08 14.66Q1006.96 15.58 1006.24 16.22L1006.24 16.22Q1005.50 16.86 1004.56 16.86L1004.56 16.86L999.72 16.86L999.72 16.86Q999.82 16.16 1000.34 15.71Q1000.86 15.26 1001.54 15.26L1001.54 15.26L1002.12 15.26Q1002.40 15.26 1002.66 15.04L1002.66 15.04Q1002.90 14.82 1002.96 14.52L1002.96 14.52ZM989.72 17.18L989.72 17.18L989.72 17.18Q989.94 17.26 990.12 17.26L990.12 17.26L1007.16 17.84Q1007.00 18.72 1006.52 19.14L1006.52 19.14Q1006.02 19.56 1005.38 19.56L1005.38 19.56L988.54 19L988.46 19.12Q988.24 19.46 987.90 19.54L987.90 19.54Q987.56 19.62 987.14 19.60L987.14 19.60Q987.06 19.60 986.98 19.60L986.98 19.60L984.50 19.60L986.44 6.36L985.08 6.36L985.18 5.56Q985.24 5.26 985.48 5.06L985.48 5.06Q985.70 4.86 986.00 4.86L986.00 4.86L990.54 4.86L989.02 16.12Q988.98 16.36 989.08 16.56L989.08 16.56Q989.18 16.78 989.34 16.92L989.34 16.92Q989.50 17.08 989.72 17.18ZM989.76 4.44L988.12 3.78L988.12 3.78Q987.22 3.40 986.84 2.54L986.84 2.54Q986.46 1.66 986.80 0.74L986.80 0.74L990.60 2.26L989.76 4.44ZM1009.66 1.06L1009.60 1.54L1009.60 1.54Q1009.52 2.04 1009.16 2.35Q1008.80 2.66 1008.32 2.66L1008.32 2.66L998.64 2.66L995.70 12.86Q994.10 16.86 990.42 16.86L990.42 16.86L990.42 16.86L994.50 2.66L992.24 2.66L992.32 2.18Q992.40 1.68 992.75 1.37Q993.10 1.06 993.58 1.06L993.58 1.06L1009.66 1.06ZM1032.50 8.88L1032.50 8.88L1032.50 8.88L1025.64 8.88L1024.54 17.60L1028.66 17.58Q1028.90 17.58 1029.08 17.40L1029.08 17.40Q1029.30 17.22 1029.34 16.94L1029.34 16.94L1030.08 11.62Q1030.12 11.32 1030.33 11.11Q1030.54 10.90 1030.82 10.90L1030.82 10.90L1034.86 10.90L1033.98 17.14Q1033.92 17.68 1033.68 18.14L1033.68 18.14Q1033.42 18.60 1033.06 18.92L1033.06 18.92Q1032.72 19.24 1032.24 19.44L1032.24 19.44Q1031.78 19.60 1031.30 19.60L1031.30 19.60L1012.48 19.60Q1012.00 19.60 1011.60 19.44L1011.60 19.44Q1011.20 19.24 1010.94 18.94L1010.94 18.94Q1010.66 18.60 1010.54 18.16L1010.54 18.16Q1010.42 17.70 1010.50 17.16L1010.50 17.16L1011.22 11.90Q1011.30 11.48 1011.61 11.19Q1011.92 10.90 1012.32 10.90L1012.32 10.90L1015.88 10.90L1015.06 16.92Q1015.02 17.18 1015.16 17.40L1015.16 17.40Q1015.32 17.58 1015.56 17.58L1015.56 17.58L1019.88 17.58L1021.10 8.88L1014.04 8.88Q1013.08 8.88 1012.58 8.30L1012.58 8.30Q1012.10 7.70 1012.24 6.68L1012.24 6.68L1012.90 1.98Q1012.96 1.60 1013.23 1.36Q1013.50 1.12 1013.86 1.12L1013.86 1.12L1017.16 1.12L1016.40 6.38Q1016.36 6.68 1016.56 6.86L1016.56 6.86Q1016.70 6.98 1016.90 6.98L1016.90 6.98L1021.34 6.98L1022.04 2.04Q1022.14 1.48 1022.57 1.11Q1023.00 0.74 1023.54 0.74L1023.54 0.74L1026.80 0.74L1025.90 6.98L1030.16 6.98Q1030.36 6.98 1030.54 6.86L1030.54 6.86Q1030.78 6.68 1030.82 6.38L1030.82 6.38L1031.42 2.16Q1031.50 1.72 1031.84 1.42Q1032.18 1.12 1032.62 1.12L1032.62 1.12L1035.72 1.12L1034.94 6.66Q1034.80 7.66 1034.14 8.30L1034.14 8.30Q1033.48 8.88 1032.50 8.88ZM1055.24 18.80L1055.34 19.60L1055.34 19.60L1059.30 19.60L1058.68 13.82Q1058.56 12.92 1057.94 12.33Q1057.32 11.74 1056.48 11.74L1056.48 11.74L1054.50 11.74L1054.98 16.28L1042.28 16.82Q1042.04 16.84 1041.92 16.62L1041.92 16.62Q1041.80 16.44 1041.94 16.16L1041.94 16.16L1044.88 10.88L1059.34 10.88Q1059.76 10.88 1060.09 10.58Q1060.42 10.28 1060.48 9.84L1060.48 9.84L1060.76 8.32L1051.22 8.32L1051.78 4.46L1060.30 4.46Q1060.66 4.46 1060.93 4.22Q1061.20 3.98 1061.24 3.60L1061.24 3.60L1061.42 2.24L1052.08 2.24L1052.28 0.80L1049.44 0.80Q1048.96 0.80 1048.60 1.13Q1048.24 1.46 1048.16 1.98L1048.16 1.98L1048.12 2.24L1039.58 2.24Q1039.24 2.24 1038.98 2.48Q1038.72 2.72 1038.66 3.10L1038.66 3.10L1038.48 4.46L1047.82 4.46L1047.26 8.32L1038.52 8.32Q1038.18 8.32 1037.92 8.55Q1037.66 8.78 1037.62 9.16L1037.62 9.16L1037.30 10.88L1040.72 10.88L1036.86 17.66Q1036.70 17.98 1036.66 18.32L1036.66 18.32Q1036.62 18.68 1036.74 18.96L1036.74 18.96Q1036.86 19.24 1037.08 19.40L1037.08 19.40Q1037.32 19.58 1037.70 19.58L1037.70 19.58L1055.24 18.80ZM1080.32 2.70L1072.48 6.94L1072.48 6.94L1071.04 16.92Q1071 17.26 1070.74 17.42L1070.74 17.42Q1070.46 17.60 1070.08 17.60L1070.08 17.60L1067.28 17.60Q1066.38 17.60 1065.72 18.16Q1065.06 18.72 1064.92 19.60L1064.92 19.60L1064.92 19.60L1072.64 19.60Q1073.62 19.60 1074.46 18.98L1074.46 18.98Q1075.28 18.36 1075.46 17.22L1075.46 17.22L1076.72 8.34L1087.14 2.86L1087.44 0.74L1064.76 0.74Q1064 0.74 1063.42 1.23Q1062.84 1.72 1062.72 2.48L1062.72 2.48L1062.68 2.70L1080.32 2.70ZM1103.08 0.76L1091.56 0.76L1091.56 0.76Q1091.34 0.76 1091.18 0.90L1091.18 0.90Q1091.02 1.06 1090.98 1.30L1090.98 1.30L1090.82 2.42L1092.98 2.42L1092.36 5.30L1091.22 5.30Q1090.96 5.30 1090.78 5.48L1090.78 5.48Q1090.58 5.66 1090.54 5.94L1090.54 5.94L1090.40 7.14L1092 7.14L1090.88 11.92L1090.36 11.92Q1090.12 11.92 1089.94 12.08L1089.94 12.08Q1089.78 12.24 1089.74 12.50L1089.74 12.50L1089.58 13.76L1090.52 13.76L1089.20 19.60L1091.68 19.60Q1092.34 19.60 1092.84 19.18L1092.84 19.18Q1093.36 18.76 1093.52 18.08L1093.52 18.08L1094.48 13.76L1097.32 13.76L1096.84 17.28Q1096.78 17.58 1096.54 17.76L1096.54 17.76Q1096.30 17.94 1096.02 17.94L1096.02 17.94L1095.76 17.94Q1095.48 17.94 1095.28 18.14L1095.28 18.14Q1095.06 18.32 1095.02 18.62L1095.02 18.62L1094.88 19.60L1098.90 19.60Q1099.58 19.60 1100.14 19.10L1100.14 19.10Q1100.70 18.58 1100.78 17.86L1100.78 17.86L1103.08 0.76ZM1098.22 7.14L1097.54 11.92L1097.54 11.92L1094.84 11.92L1095.90 7.14L1098.22 7.14ZM1098.84 2.42L1098.44 5.30L1098.44 5.30L1096.26 5.30L1096.96 2.42L1098.84 2.42ZM1103.72 4.10L1101.66 19.58L1101.66 19.58L1105.54 19.58L1107.70 3.42L1104.50 3.42Q1104.20 3.42 1103.98 3.61Q1103.76 3.80 1103.72 4.10L1103.72 4.10ZM1111.20 7.58L1112.92 1.76L1112.92 1.76Q1112.96 1.34 1112.70 1.04Q1112.44 0.74 1112.04 0.74L1112.04 0.74L1104.74 0.74Q1104.44 0.74 1104.22 0.92L1104.22 0.92Q1104.02 1.08 1103.96 1.40L1103.96 1.40L1103.80 2.60L1109.44 2.60L1107.82 8.50Q1107.76 8.72 1107.89 8.89Q1108.02 9.06 1108.22 9.06L1108.22 9.06L1108.58 9.06L1107.30 18.86L1108.64 18.86Q1109.78 18.86 1110.28 18.44L1110.28 18.44Q1110.78 18 1110.90 16.90L1110.90 16.90L1112.08 8.04Q1112.10 7.86 1111.98 7.72Q1111.86 7.58 1111.68 7.58L1111.68 7.58L1111.20 7.58ZM1139.58 9.10L1139.58 9.10L1139.58 9.10L1139.74 7.94L1117.16 7.94Q1116.22 7.94 1115.50 8.56L1115.50 8.56Q1114.80 9.18 1114.66 10.12L1114.66 10.12L1114.48 11.30L1137.06 11.30Q1138.02 11.30 1138.72 10.68L1138.72 10.68Q1139.44 10.08 1139.58 9.10ZM1140.54 19.16L1140.54 19.16L1140.54 19.16L1140.48 19.62L1158.74 19.62Q1159.48 19.62 1160.24 19.16L1160.24 19.16Q1161 18.72 1161.36 17.98L1161.36 17.98L1164.98 10.88L1161.42 10.88Q1160.86 10.88 1160.48 11.50L1160.48 11.50L1157.78 16.84Q1157.46 17.54 1157.06 17.78L1157.06 17.78Q1156.64 18.02 1155.96 18.02L1155.96 18.02L1141.78 18.02Q1141.32 18.02 1140.97 18.34Q1140.62 18.66 1140.54 19.16ZM1144.68 6.54L1143.10 6.54L1143.10 6.54Q1142.78 6.54 1142.54 6.77Q1142.30 7.00 1142.24 7.34L1142.24 7.34L1141.82 8.16L1164.10 8.16Q1165.32 8.16 1165.46 7.18L1165.46 7.18L1165.54 6.54L1156.62 6.54L1156.94 4.12L1164.34 4.12Q1164.82 4.12 1165.21 3.77Q1165.60 3.42 1165.68 2.88L1165.68 2.88L1165.74 2.50L1157.16 2.50L1157.40 0.74L1154.04 0.74Q1153.78 0.74 1153.57 0.94Q1153.36 1.14 1153.30 1.42L1153.30 1.42L1152.62 6.54L1148.60 6.54L1149.28 1.44L1146.28 1.44Q1145.90 1.44 1145.60 1.71Q1145.30 1.98 1145.22 2.40L1145.22 2.40L1144.68 6.54ZM1144.16 10.22L1141.26 16.40L1141.26 16.40L1142.08 16.40Q1144.94 16.40 1146.72 13.26L1146.72 13.26L1148.56 9.34L1145.48 9.34Q1144.68 9.34 1144.16 10.22L1144.16 10.22ZM1152.24 9.90L1151 16.74L1151 16.74L1154.16 16.74Q1154.50 16.74 1154.77 16.49Q1155.04 16.24 1155.10 15.88L1155.10 15.88L1156.38 8.96L1153.28 8.96Q1152.90 8.96 1152.61 9.23Q1152.32 9.50 1152.24 9.90L1152.24 9.90ZM1166.48 19.60L1166.48 19.60L1166.48 19.60L1169.32 19.60Q1169.90 18.94 1170.51 17.92Q1171.12 16.90 1171.60 15.82L1171.60 15.82Q1171.92 15.00 1171.47 14.31Q1171.02 13.62 1170.18 13.62L1170.18 13.62L1170.18 13.62Q1169.14 13.62 1168.68 14.76L1168.68 14.76Q1168.30 16.02 1167.69 17.35Q1167.08 18.68 1166.48 19.60ZM1199.46 9.82L1199.46 9.82L1199.46 9.82Q1198.90 10.34 1198.24 10.34L1198.24 10.34L1196.06 10.34L1195.12 17.42Q1195.06 17.88 1194.86 18.26L1194.86 18.26Q1194.64 18.66 1194.32 18.96L1194.32 18.96Q1193.98 19.24 1193.54 19.42L1193.54 19.42Q1193.12 19.62 1192.68 19.62L1192.68 19.62L1189.92 19.62L1190.10 18.30Q1190.12 18.16 1190.21 18.07Q1190.30 17.98 1190.44 17.98L1190.44 17.98L1190.44 17.98Q1191.04 17.98 1191.14 17.40L1191.14 17.40L1192.08 10.34L1189.78 10.34Q1189.12 10.34 1188.74 9.82L1188.74 9.82Q1188.36 9.32 1188.46 8.60L1188.46 8.60L1189.14 3.50L1192.98 3.50L1192.78 4.96L1192.78 5.02L1192.72 5.42L1192.72 5.46L1192.34 8.34Q1192.32 8.54 1192.44 8.70L1192.44 8.70Q1192.56 8.86 1192.74 8.86L1192.74 8.86L1195.72 8.86Q1195.80 8.86 1195.87 8.82Q1195.94 8.78 1196.02 8.70L1196.02 8.70Q1196.16 8.54 1196.18 8.34L1196.18 8.34L1196.62 4.96L1193.24 4.96L1193.44 3.50L1200.80 3.50L1200.12 8.60Q1200.02 9.32 1199.46 9.82ZM1186.60 19.62L1188.38 11.52L1188.38 11.52Q1188.44 11.28 1188.62 11.13Q1188.80 10.98 1189.02 10.98L1189.02 10.98L1191.38 10.98L1190.14 16.64Q1189.82 17.96 1188.84 18.79Q1187.86 19.62 1186.60 19.62L1186.60 19.62L1186.60 19.62ZM1196.24 16.56L1196.64 10.98L1196.64 10.98L1198.80 10.98Q1199.10 10.98 1199.28 11.20Q1199.46 11.42 1199.46 11.72L1199.46 11.72L1198.90 19.62L1198.90 19.62Q1197.74 19.62 1196.96 18.73Q1196.18 17.84 1196.24 16.56L1196.24 16.56ZM1193.50 0.74L1196.88 0.74L1196.88 0.74Q1197.06 0.74 1197.18 0.88Q1197.30 1.02 1197.28 1.22L1197.28 1.22L1197.28 1.22L1201.42 1.22L1201.32 1.88Q1201.26 2.30 1200.96 2.57Q1200.66 2.84 1200.28 2.84L1200.28 2.84L1188.76 2.84L1188.88 1.98Q1188.94 1.64 1189.17 1.43Q1189.40 1.22 1189.70 1.22L1189.70 1.22L1193.44 1.22L1193.50 0.74ZM1211.66 2.68L1211.54 3.60L1211.54 3.60Q1211.50 3.84 1211.33 3.99Q1211.16 4.14 1210.94 4.14L1210.94 4.14L1206.98 4.14L1206.56 6.10L1209.98 6.10L1208.50 17.26Q1208.46 17.58 1208.66 17.78L1208.66 17.78Q1208.88 17.98 1209.14 17.98L1209.14 17.98L1209.14 17.98Q1209.34 17.98 1209.46 18.13Q1209.58 18.28 1209.56 18.48L1209.56 18.48L1209.42 19.62L1206.62 19.62Q1205.66 19.62 1205.20 19L1205.20 19Q1204.74 18.40 1204.88 17.36L1204.88 17.36L1206.04 8.40L1204.18 15.78Q1203.72 17.50 1202.43 18.56Q1201.14 19.62 1199.50 19.62L1199.50 19.62L1199.50 19.62L1203.26 4.14L1201.48 4.14L1201.60 3.28Q1201.64 3.02 1201.82 2.85Q1202 2.68 1202.26 2.68L1202.26 2.68L1203.64 2.68L1204 1.18Q1204.06 0.98 1204.21 0.86Q1204.36 0.74 1204.54 0.74L1204.54 0.74L1207.82 0.74L1207.36 2.68L1208.28 2.68L1208.26 1.06L1210.14 1.06Q1210.50 1.06 1210.76 1.33Q1211.02 1.60 1211.02 2.00L1211.02 2.00L1211.04 2.68L1211.66 2.68ZM1231.58 2.74L1219.30 2.74L1219.30 2.74Q1218.94 2.74 1218.72 3.08L1218.72 3.08L1217.58 5.20L1213.08 5.20L1214.92 1.72Q1215.62 0.74 1216.72 0.74L1216.72 0.74L1234.30 0.74Q1235.54 0.74 1236.22 1.96L1236.22 1.96L1237.74 5.20L1233.44 5.20L1232.42 3.24Q1232.10 2.74 1231.58 2.74L1231.58 2.74ZM1215.02 8.30L1215.30 7.04L1215.30 7.04Q1215.60 6.32 1216.30 6.32L1216.30 6.32L1235.40 6.32L1235.20 7.70Q1235.14 7.96 1234.94 8.12L1234.94 8.12Q1234.76 8.30 1234.50 8.30L1234.50 8.30L1215.02 8.30ZM1213.08 11.12L1213.08 11.12L1213.08 11.12Q1213.40 10.86 1213.80 10.86L1213.80 10.86L1236.72 10.86L1236.56 11.82Q1236.46 12.30 1236.10 12.60L1236.10 12.60Q1235.74 12.90 1235.28 12.90L1235.28 12.90L1220.28 12.90L1218.88 16.54Q1218.78 16.82 1218.90 17L1218.90 17Q1219 17.22 1219.28 17.22L1219.28 17.22L1230.64 16.52L1231.46 18.60L1214.68 19.60Q1213.82 19.60 1213.37 18.96Q1212.92 18.32 1213.22 17.52L1213.22 17.52L1215.38 12.90L1212.48 12.90L1212.68 11.80Q1212.76 11.38 1213.08 11.12ZM1234.34 14.84L1234.34 14.84L1234.34 14.84L1235.68 19.60L1231.08 19.60L1229.58 13.96L1233.14 13.96Q1233.96 13.96 1234.34 14.84ZM1241.64 5.56L1245.46 5.56L1245.46 5.56L1238.48 19.60L1241.08 19.60Q1243.26 19.60 1244.68 17.22L1244.68 17.22L1247.18 12.28L1250.32 14.94L1244.30 19.60L1249.62 19.60Q1250.14 19.60 1250.56 19.28L1250.56 19.28L1253.18 17.24L1255.34 18.94Q1256.22 19.60 1257.24 19.60L1257.24 19.60L1262.82 19.60L1256.54 14.78L1261.72 10.40Q1262.30 9.90 1262.46 9.14L1262.46 9.14L1262.88 6.94L1249.78 6.94L1250.42 5.56L1262.88 5.56Q1263.08 5.56 1263.22 5.42L1263.22 5.42Q1263.38 5.30 1263.42 5.10L1263.42 5.10L1263.74 3.72L1262.44 3.72L1262.22 1.46Q1262.08 0.96 1261.60 0.96L1261.60 0.96L1258.32 0.96L1258.64 3.72L1251.20 3.72L1252.46 0.74L1248.28 0.74Q1247.88 0.74 1247.62 1.16L1247.62 1.16L1246.44 3.72L1245.60 3.72Q1245.46 3.72 1245.40 3.64L1245.40 3.64Q1245.38 3.58 1245.39 3.52Q1245.40 3.46 1245.42 3.40L1245.42 3.40L1246.76 0.82L1242.78 0.82L1240.90 4.20Q1240.68 4.72 1240.90 5.12L1240.90 5.12Q1241.14 5.56 1241.64 5.56L1241.64 5.56ZM1257.54 9.20L1253.38 12.56L1253.38 12.56L1250.52 10.24L1248.10 10.24L1248.64 9.20L1257.54 9.20ZM1267.42 17.30L1265.42 17.38L1265.42 17.38Q1265.22 17.40 1265.07 17.54Q1264.92 17.68 1264.88 17.90L1264.88 17.90L1264.66 19.58L1272.86 19.24Q1273.20 19.22 1273.43 18.99Q1273.66 18.76 1273.72 18.42L1273.72 18.42L1273.90 17.02L1271.44 17.12L1272.30 10.52L1274.20 10.52Q1274.40 10.52 1274.55 10.38Q1274.70 10.24 1274.74 10.02L1274.74 10.02L1274.96 8.34L1272.60 8.34L1273.30 2.96L1274.84 2.96Q1275.18 2.96 1275.45 2.71Q1275.72 2.46 1275.78 2.08L1275.78 2.08L1275.96 0.76L1268.18 0.76Q1267.80 0.76 1267.49 1.05Q1267.18 1.34 1267.10 1.78L1267.10 1.78L1266.96 2.96L1269.32 2.96L1268.60 8.34L1266.70 8.34Q1266.50 8.34 1266.35 8.48Q1266.20 8.62 1266.18 8.84L1266.18 8.84L1265.96 10.52L1268.32 10.52L1267.42 17.30ZM1284.92 17.44L1284.92 17.44L1284.92 17.44Q1285.10 17.68 1285.38 17.68L1285.38 17.68L1287.94 17.68Q1288.06 17.68 1288.16 17.79Q1288.26 17.90 1288.28 18.08L1288.28 18.08L1288.40 19.58L1282.96 19.58Q1282.22 19.58 1281.76 18.90L1281.76 18.90Q1281.30 18.22 1281.42 17.28L1281.42 17.28L1281.54 16.22L1278.54 19.58L1274.08 19.58L1280.14 12.92L1281.18 3.88L1284.48 3.88L1283.30 14.10L1285.08 14.10L1284.78 16.84Q1284.74 17.20 1284.92 17.44ZM1280.42 0.84L1287.94 0.84L1287.94 0.84Q1288.78 0.84 1289.18 1.60L1289.18 1.60Q1289.58 2.38 1289.48 3.46L1289.48 3.46L1288.06 15.54L1285.02 15.54L1286.44 3.30Q1286.48 3.08 1286.36 2.90L1286.36 2.90Q1286.24 2.72 1286.06 2.72L1286.06 2.72L1280.26 2.72L1280.42 0.84ZM1279.52 3.72L1278.16 15.54L1278.16 15.54L1275.02 15.54L1276.54 2.34Q1276.62 1.68 1276.96 1.26Q1277.30 0.84 1277.74 0.84L1277.74 0.84L1279.82 0.84L1279.52 3.72ZM1298.68 7.06L1296.84 7.06L1296.84 7.06L1297.10 5.28L1302.62 5.28L1301.62 12.38Q1301.50 13.28 1300.80 13.96L1300.80 13.96Q1300.06 14.60 1299.18 14.60L1299.18 14.60L1295.28 14.60L1294.88 17.36Q1294.78 18.30 1294.10 18.94L1294.10 18.94Q1293.38 19.60 1292.50 19.60L1292.50 19.60L1290.48 19.60L1293.18 0.74L1297.26 0.74L1295.52 12.80L1296.94 12.80Q1297.36 12.80 1297.66 12.52L1297.66 12.52Q1297.96 12.24 1298 11.82L1298 11.82L1298.68 7.06ZM1302.58 2.72L1297.46 2.72L1297.46 2.72L1297.74 0.74L1303.40 0.74L1303.20 2.14Q1303.16 2.38 1302.98 2.54L1302.98 2.54Q1302.80 2.72 1302.58 2.72L1302.58 2.72ZM1304.40 0.74L1308.50 0.74L1308.50 0.74L1306.12 17.36Q1306.04 18.30 1305.36 18.94L1305.36 18.94Q1304.62 19.60 1303.74 19.60L1303.74 19.60L1301.72 19.60L1304.40 0.74ZM1314.80 2.72L1308.68 2.72L1308.68 2.72L1308.98 0.74L1315.74 0.74L1315.56 2.04Q1315.50 2.34 1315.30 2.52L1315.30 2.52Q1315.08 2.72 1314.80 2.72L1314.80 2.72ZM1308.28 5.56L1315.14 5.56L1315.14 5.56L1314.88 7.58Q1314.86 7.72 1314.76 7.80L1314.76 7.80Q1314.66 7.88 1314.52 7.88L1314.52 7.88L1314.02 7.88L1312.40 19.16Q1312.40 19.24 1312.37 19.32Q1312.34 19.40 1312.28 19.46L1312.28 19.46Q1312.14 19.60 1311.96 19.60L1311.96 19.60L1308.30 19.60L1309.98 7.88L1307.96 7.88L1308.28 5.56ZM1341.42 3.12L1341.74 1.40L1341.74 1.40L1324.86 1.40L1325.38 0.74L1321.06 0.74L1320.58 1.40L1318.10 1.40Q1317.86 1.40 1317.66 1.64L1317.66 1.64Q1317.48 1.90 1317.44 2.16L1317.44 2.16L1317.14 3.60L1319.24 3.60L1316.48 7.90L1318.90 7.90L1317.20 19.60L1319.94 19.60Q1320.50 19.60 1320.92 19.23Q1321.34 18.86 1321.44 18.30L1321.44 18.30L1321.86 15.16L1334.54 15.16L1334.28 17.16Q1334.26 17.28 1334.20 17.36L1334.20 17.36Q1334.14 17.42 1334.04 17.50L1334.04 17.50Q1334.02 17.52 1333.96 17.54L1333.96 17.54Q1333.86 17.64 1333.76 17.66L1333.76 17.66Q1333.64 17.66 1333.52 17.66L1333.52 17.66Q1333.48 17.66 1333.42 17.66L1333.42 17.66L1331.28 17.66Q1330.86 17.66 1330.56 18.02L1330.56 18.02Q1330.24 18.36 1330.18 18.80L1330.18 18.80L1330.08 19.60L1335.60 19.60Q1336.54 19.60 1337.32 19.06L1337.32 19.06Q1338.08 18.50 1338.22 17.42L1338.22 17.42L1339.94 5.28L1324.16 5.28L1323.90 6.84L1335.72 6.84L1335.44 8.96L1322.76 8.96L1323.30 5.28L1322.48 5.28L1323.50 3.60L1340.86 3.60Q1341.08 3.60 1341.24 3.46L1341.24 3.46Q1341.38 3.32 1341.42 3.12L1341.42 3.12ZM1322.18 13.10L1322.50 11.14L1322.50 11.14L1335.18 11.14L1334.86 13.10L1322.18 13.10ZM1347.56 1.38L1347.56 1.38L1347.56 1.38L1347.50 1.66L1344.52 1.66L1342.52 17.14Q1342.44 17.64 1342.56 18.08L1342.56 18.08Q1342.66 18.54 1342.94 18.88L1342.94 18.88Q1343.18 19.20 1343.56 19.40L1343.56 19.40Q1343.94 19.60 1344.38 19.60L1344.38 19.60L1351.16 19.60Q1351.60 19.60 1352.04 19.40L1352.04 19.40Q1352.46 19.20 1352.82 18.88L1352.82 18.88Q1353.18 18.54 1353.40 18.08L1353.40 18.08Q1353.64 17.62 1353.70 17.14L1353.70 17.14L1355.70 1.66L1352.26 1.66L1352.40 0.74L1348.22 0.74Q1347.98 0.74 1347.78 0.92L1347.78 0.92Q1347.60 1.10 1347.56 1.38ZM1350.86 10.74L1349.98 17.56L1349.98 17.56Q1349.94 17.74 1349.78 17.90L1349.78 17.90Q1349.64 18.04 1349.44 18.04L1349.44 18.04L1346.28 18.04Q1346.10 18.04 1346 17.90L1346 17.90Q1345.86 17.74 1345.88 17.56L1345.88 17.56L1346.78 10.74L1350.86 10.74ZM1351.86 3.14L1351.06 9.16L1351.06 9.16L1346.98 9.16L1347.80 3.14L1351.86 3.14ZM1367.18 1.58L1367.18 1.58L1367.18 1.58L1360.62 1.58L1360.94 0.74L1357.84 0.74Q1357.32 0.74 1357.02 1.34L1357.02 1.34L1355.66 5.08L1357.48 5.08Q1359.12 5.08 1360.02 3.34L1360.02 3.34L1363.56 3.34L1361.74 17.30Q1361.70 17.58 1361.46 17.80L1361.46 17.80Q1361.24 18.02 1360.96 18.02L1360.96 18.02L1358.74 18.02Q1358.34 18.02 1358.02 18.30L1358.02 18.30Q1357.72 18.60 1357.66 19.04L1357.66 19.04L1357.58 19.60L1363.34 19.60Q1364.22 19.60 1364.92 19.06L1364.92 19.06Q1365.64 18.52 1365.78 17.44L1365.78 17.44L1367.74 2.26Q1367.76 1.98 1367.60 1.78L1367.60 1.78Q1367.46 1.58 1367.18 1.58ZM1357.52 11.14L1360.96 12.98L1360.96 12.98L1361.74 10.54L1357.22 7.98L1356.78 8.76Q1356.46 9.44 1356.67 10.11Q1356.88 10.78 1357.52 11.14L1357.52 11.14ZM1393.58 9.10L1393.58 9.10L1393.58 9.10L1393.74 7.94L1371.16 7.94Q1370.22 7.94 1369.50 8.56L1369.50 8.56Q1368.80 9.18 1368.66 10.12L1368.66 10.12L1368.48 11.30L1391.06 11.30Q1392.02 11.30 1392.72 10.68L1392.72 10.68Q1393.44 10.08 1393.58 9.10ZM1397.34 4.10L1395.72 4.10L1395.72 4.10Q1395.36 4.10 1395.09 4.33Q1394.82 4.56 1394.76 4.92L1394.76 4.92L1394.62 5.86L1397.10 5.86L1395.46 17.36Q1395.32 18.28 1395.88 18.92L1395.88 18.92Q1396.44 19.58 1397.38 19.58L1397.38 19.58L1402.08 19.58L1402.10 19.40Q1402.16 18.84 1401.81 18.45Q1401.46 18.06 1400.92 18.06L1400.92 18.06L1400.34 18.06Q1400.04 18.06 1399.86 17.84L1399.86 17.84Q1399.66 17.62 1399.70 17.32L1399.70 17.32L1401.34 5.86L1403.32 5.86Q1403.62 5.86 1403.85 5.67Q1404.08 5.48 1404.12 5.18L1404.12 5.18L1404.28 4.10L1401.58 4.10L1402.06 0.74L1398.70 0.74Q1398.32 0.74 1398.04 0.98Q1397.76 1.22 1397.70 1.60L1397.70 1.60L1397.34 4.10ZM1407.28 2.96L1402.92 19.60L1402.92 19.60L1402.92 19.60Q1404.80 19.60 1406.26 18.49Q1407.72 17.38 1408.22 15.56L1408.22 15.56L1411.50 2.96L1415.14 2.96L1413.16 16.84Q1413.10 17.26 1412.78 17.54L1412.78 17.54Q1412.46 17.82 1412.02 17.82L1412.02 17.82L1411.30 17.82Q1410.76 17.82 1410.35 18.17Q1409.94 18.52 1409.86 19.06L1409.86 19.06L1409.78 19.58L1414.76 19.58Q1415.72 19.58 1416.46 18.92L1416.46 18.92Q1417.20 18.28 1417.34 17.36L1417.34 17.36L1419.66 1.04L1406.20 1.04Q1405.92 1.04 1405.72 1.21Q1405.52 1.38 1405.48 1.66L1405.48 1.66L1405.28 2.96L1407.28 2.96ZM1434.92 11.56L1434.60 13.82L1434.60 13.82L1444.34 13.82L1444.26 14.38Q1444.16 14.90 1443.79 15.25Q1443.42 15.60 1442.92 15.60L1442.92 15.60L1434.36 15.60L1433.92 18.98Q1433.88 19.24 1433.69 19.41Q1433.50 19.58 1433.28 19.58L1433.28 19.58L1429.68 19.58L1430.20 15.60L1420.50 15.60L1420.58 14.90Q1420.66 14.44 1421 14.13Q1421.34 13.82 1421.76 13.82L1421.76 13.82L1430.44 13.82L1430.76 11.56L1423.56 11.56Q1422.68 11.56 1422.10 10.90L1422.10 10.90Q1421.54 10.26 1421.64 9.32L1421.64 9.32L1422.78 0.78L1426.94 0.78L1426.36 5.24L1441 5.24L1441.36 2.56L1427.32 2.56L1427.58 0.78L1445.76 0.78L1444.62 9.32Q1444.48 10.24 1443.74 10.90L1443.74 10.90Q1442.98 11.56 1442.12 11.56L1442.12 11.56L1434.92 11.56ZM1426.66 9.70L1426.66 9.70L1426.66 9.70L1439.48 9.70Q1439.88 9.70 1440.18 9.44L1440.18 9.44Q1440.48 9.16 1440.52 8.74L1440.52 8.74L1440.78 6.78L1426.14 6.78L1425.88 8.72Q1425.82 9.16 1426.04 9.44L1426.04 9.44Q1426.24 9.70 1426.66 9.70ZM1459.48 9.82L1459.48 9.82L1459.48 9.82Q1458.92 10.34 1458.26 10.34L1458.26 10.34L1456.08 10.34L1455.14 17.42Q1455.08 17.88 1454.88 18.26L1454.88 18.26Q1454.66 18.66 1454.34 18.96L1454.34 18.96Q1454 19.24 1453.56 19.42L1453.56 19.42Q1453.14 19.62 1452.70 19.62L1452.70 19.62L1449.94 19.62L1450.12 18.30Q1450.14 18.16 1450.23 18.07Q1450.32 17.98 1450.46 17.98L1450.46 17.98L1450.46 17.98Q1451.06 17.98 1451.16 17.40L1451.16 17.40L1452.10 10.34L1449.80 10.34Q1449.14 10.34 1448.76 9.82L1448.76 9.82Q1448.38 9.32 1448.48 8.60L1448.48 8.60L1449.16 3.50L1453 3.50L1452.80 4.96L1452.80 5.02L1452.74 5.42L1452.74 5.46L1452.36 8.34Q1452.34 8.54 1452.46 8.70L1452.46 8.70Q1452.58 8.86 1452.76 8.86L1452.76 8.86L1455.74 8.86Q1455.82 8.86 1455.89 8.82Q1455.96 8.78 1456.04 8.70L1456.04 8.70Q1456.18 8.54 1456.20 8.34L1456.20 8.34L1456.64 4.96L1453.26 4.96L1453.46 3.50L1460.82 3.50L1460.14 8.60Q1460.04 9.32 1459.48 9.82ZM1446.62 19.62L1448.40 11.52L1448.40 11.52Q1448.46 11.28 1448.64 11.13Q1448.82 10.98 1449.04 10.98L1449.04 10.98L1451.40 10.98L1450.16 16.64Q1449.84 17.96 1448.86 18.79Q1447.88 19.62 1446.62 19.62L1446.62 19.62L1446.62 19.62ZM1456.26 16.56L1456.66 10.98L1456.66 10.98L1458.82 10.98Q1459.12 10.98 1459.30 11.20Q1459.48 11.42 1459.48 11.72L1459.48 11.72L1458.92 19.62L1458.92 19.62Q1457.76 19.62 1456.98 18.73Q1456.20 17.84 1456.26 16.56L1456.26 16.56ZM1453.52 0.74L1456.90 0.74L1456.90 0.74Q1457.08 0.74 1457.20 0.88Q1457.32 1.02 1457.30 1.22L1457.30 1.22L1457.30 1.22L1461.44 1.22L1461.34 1.88Q1461.28 2.30 1460.98 2.57Q1460.68 2.84 1460.30 2.84L1460.30 2.84L1448.78 2.84L1448.90 1.98Q1448.96 1.64 1449.19 1.43Q1449.42 1.22 1449.72 1.22L1449.72 1.22L1453.46 1.22L1453.52 0.74ZM1471.68 2.68L1471.56 3.60L1471.56 3.60Q1471.52 3.84 1471.35 3.99Q1471.18 4.14 1470.96 4.14L1470.96 4.14L1467 4.14L1466.58 6.10L1470 6.10L1468.52 17.26Q1468.48 17.58 1468.68 17.78L1468.68 17.78Q1468.90 17.98 1469.16 17.98L1469.16 17.98L1469.16 17.98Q1469.36 17.98 1469.48 18.13Q1469.60 18.28 1469.58 18.48L1469.58 18.48L1469.44 19.62L1466.64 19.62Q1465.68 19.62 1465.22 19L1465.22 19Q1464.76 18.40 1464.90 17.36L1464.90 17.36L1466.06 8.40L1464.20 15.78Q1463.74 17.50 1462.45 18.56Q1461.16 19.62 1459.52 19.62L1459.52 19.62L1459.52 19.62L1463.28 4.14L1461.50 4.14L1461.62 3.28Q1461.66 3.02 1461.84 2.85Q1462.02 2.68 1462.28 2.68L1462.28 2.68L1463.66 2.68L1464.02 1.18Q1464.08 0.98 1464.23 0.86Q1464.38 0.74 1464.56 0.74L1464.56 0.74L1467.84 0.74L1467.38 2.68L1468.30 2.68L1468.28 1.06L1470.16 1.06Q1470.52 1.06 1470.78 1.33Q1471.04 1.60 1471.04 2.00L1471.04 2.00L1471.06 2.68L1471.68 2.68ZM1479.64 8.74L1475.82 8.74L1475.82 8.74L1472.54 19.58L1475.52 19.58Q1476.28 19.58 1476.62 18.76L1476.62 18.76L1479.64 8.74ZM1475.88 7.92L1479.72 7.92L1479.72 7.92L1479.22 2.58Q1479.14 1.90 1478.68 1.46L1478.68 1.46Q1478.22 1 1477.54 0.98L1477.54 0.98L1474.98 0.98L1474.98 0.96L1475.88 7.92ZM1481.36 4.60L1479.26 19.52L1479.26 19.52L1483.40 19.52L1483.44 19.18L1494.88 19.18Q1495.04 19.18 1495.16 19.08Q1495.28 18.98 1495.30 18.82L1495.30 18.82L1495.54 17.14L1491.90 17.14L1492.40 13.66L1495.32 13.66Q1495.56 13.66 1495.76 13.49Q1495.96 13.32 1496 13.06L1496 13.06L1496.20 11.60L1492.68 11.60L1493.10 8.66L1496.08 8.66Q1496.30 8.66 1496.48 8.50Q1496.66 8.34 1496.70 8.12L1496.70 8.12L1496.88 6.76L1493.36 6.76L1493.74 4.12L1496.78 4.12Q1497 4.12 1497.18 3.96Q1497.36 3.80 1497.40 3.58L1497.40 3.58L1497.56 2.38L1493.90 2.38L1493.94 1.74Q1493.96 1.30 1493.68 1.02Q1493.40 0.74 1492.98 0.74L1492.98 0.74L1489.82 0.74L1489.76 2.38L1485.88 2.38L1486.78 0.74L1482.24 0.74L1480.14 4.60L1481.36 4.60ZM1489.22 6.76L1485.20 6.76L1485.20 6.76L1485.56 4.12L1489.60 4.12L1489.22 6.76ZM1488.54 11.60L1484.52 11.60L1484.52 11.60L1484.92 8.66L1488.96 8.66L1488.54 11.60ZM1487.76 17.14L1483.74 17.14L1483.74 17.14L1484.22 13.66L1488.26 13.66L1487.76 17.14ZM1523 8.50L1523 8.50L1523 8.50L1523.30 8.50Q1523.52 8.50 1523.66 8.66Q1523.80 8.82 1523.76 9.04L1523.76 9.04L1523.64 9.88L1519 9.88Q1518.22 9.88 1517.46 9.76L1517.46 9.76Q1516.72 9.66 1516.18 9.52L1516.18 9.52L1511.40 8.04L1506.46 9.44Q1505.90 9.58 1505.24 9.74L1505.24 9.74Q1504.54 9.88 1503.98 9.88L1503.98 9.88L1499.04 9.88L1499.20 8.80Q1499.22 8.68 1499.31 8.59Q1499.40 8.50 1499.54 8.50L1499.54 8.50L1499.98 8.50Q1500.54 8.50 1501.12 8.36L1501.12 8.36L1506.94 6.62L1504.06 5.46L1504.06 5.46Q1503.56 6.38 1502.62 6.38L1502.62 6.38L1499.54 6.38L1501.84 1.16Q1502.08 0.76 1502.46 0.76L1502.46 0.76L1506.14 0.76L1505.86 1.32L1523.50 1.32L1523.22 3.30Q1522.98 4.70 1521.60 5.16L1521.60 5.16L1516.44 6.58L1521.96 8.36Q1522.48 8.50 1523 8.50ZM1519.80 2.92L1505.76 2.92L1505.76 2.92L1512.08 5.12L1519.80 2.92ZM1509.02 12.14L1504.22 12.14L1504.22 12.14L1504.48 10.54L1523.26 10.54L1522.22 17.64Q1522.10 18.46 1521.42 19.02L1521.42 19.02Q1520.72 19.60 1519.90 19.60L1519.90 19.60L1500.26 19.60Q1499.44 19.60 1498.92 19.02L1498.92 19.02Q1498.42 18.46 1498.52 17.64L1498.52 17.64L1499.56 10.54L1503.88 10.54L1503.64 12.14L1503.62 12.34L1503.36 14.14L1508.74 14.14L1509.02 12.14ZM1503.42 18.02L1508.16 18.02L1508.16 18.02L1508.48 15.74L1503.12 15.74L1502.88 17.40Q1502.84 17.66 1503 17.84L1503 17.84Q1503.14 18.02 1503.42 18.02L1503.42 18.02ZM1518.70 12.14L1513.34 12.14L1513.34 12.14L1513.04 14.14L1518.40 14.14L1518.70 12.14ZM1518.18 15.74L1512.82 15.74L1512.82 15.74L1512.48 18.02L1517.20 18.02Q1517.48 18.02 1517.70 17.84L1517.70 17.84Q1517.88 17.66 1517.92 17.40L1517.92 17.40L1518.18 15.74ZM1534.98 14.84L1534.98 14.84L1534.98 14.84L1536.58 3.64L1536.92 3.64Q1537.06 3.64 1537.16 3.56L1537.16 3.56Q1537.26 3.46 1537.30 3.32L1537.30 3.32L1537.56 1.84L1536.88 1.84L1537.04 0.74L1533.62 0.74Q1533.34 0.74 1533.14 0.92Q1532.94 1.10 1532.90 1.38L1532.90 1.38L1532.84 1.84L1531.42 1.84L1531.56 0.74L1528.18 0.74Q1527.90 0.74 1527.70 0.92Q1527.50 1.10 1527.46 1.36L1527.46 1.36L1527.40 1.84L1527.22 1.84Q1527.02 1.84 1526.84 2.00L1526.84 2.00Q1526.66 2.16 1526.62 2.38L1526.62 2.38L1526.40 3.64L1527.10 3.64L1525.48 14.92Q1525.44 15.28 1525.62 15.58L1525.62 15.58Q1525.80 15.90 1526.22 16.04L1526.22 16.04L1526.94 16.34L1525.40 16.88Q1524.82 17.10 1524.72 17.70L1524.72 17.70L1524.50 19.60L1529.82 17.76L1534.74 19.60L1534.96 17.70Q1535 17.10 1534.50 16.88L1534.50 16.88L1533.02 16.28L1533.94 15.96Q1534.88 15.64 1534.98 14.84ZM1532.52 3.64L1530.98 14.58L1530.98 14.58Q1530.96 14.64 1530.94 14.72L1530.94 14.72Q1530.84 14.94 1530.56 15.02L1530.56 15.02L1530.20 15.18L1529.88 15.02Q1529.60 14.94 1529.56 14.72L1529.56 14.72Q1529.54 14.68 1529.54 14.66L1529.54 14.66Q1529.54 14.62 1529.56 14.58L1529.56 14.58L1531.12 3.64L1532.52 3.64ZM1529.56 14.58L1531.12 3.64L1531.12 3.64L1529.56 14.58Q1529.54 14.62 1529.54 14.66L1529.54 14.66Q1529.54 14.62 1529.56 14.58L1529.56 14.58ZM1529.56 14.72L1529.56 14.72L1529.56 14.72Q1529.54 14.68 1529.54 14.66L1529.54 14.66Q1529.54 14.68 1529.56 14.72ZM1529.56 14.72L1529.56 14.72L1529.56 14.72Q1529.60 14.94 1529.88 15.02L1529.88 15.02L1530.20 15.18L1529.88 15.02Q1529.60 14.92 1529.56 14.72ZM1530.56 15.02L1530.56 15.02L1530.56 15.02L1530.20 15.18L1530.56 15.02Q1530.84 14.94 1530.94 14.72L1530.94 14.72Q1530.84 14.92 1530.56 15.02ZM1530.94 14.72L1530.94 14.72L1530.94 14.72Q1530.96 14.64 1530.98 14.58L1530.98 14.58L1532.52 3.64L1530.98 14.58Q1530.96 14.64 1530.94 14.72ZM1540.28 2.76L1540.28 2.76L1540.28 2.76L1544.18 2.76L1541 7.20L1540.92 7.70L1537.64 7.70Q1537.30 7.70 1537.06 7.98L1537.06 7.98Q1536.80 8.24 1536.74 8.58L1536.74 8.58L1536.60 9.72L1540.66 9.72L1539.66 16.72Q1539.62 17.06 1539.32 17.32L1539.32 17.32Q1539.16 17.46 1538.86 17.50L1538.86 17.50Q1538.56 17.52 1538.32 17.52L1538.32 17.52L1538.10 17.52Q1537.46 17.52 1536.98 17.98L1536.98 17.98Q1536.52 18.42 1536.48 19.08L1536.48 19.08L1536.44 19.60L1541.30 19.60Q1542.30 19.60 1543.12 18.88L1543.12 18.88Q1543.94 18.18 1544.08 17.18L1544.08 17.18L1545.16 9.72L1547.76 9.72Q1548.16 9.72 1548.44 9.42L1548.44 9.42Q1548.72 9.12 1548.78 8.72L1548.78 8.72L1548.90 7.70L1545.42 7.70L1549.56 2.12L1549.76 0.74L1538.22 0.74L1538.92 1.96Q1539.44 2.76 1540.28 2.76ZM1568.36 2.70L1560.52 6.94L1560.52 6.94L1559.08 16.92Q1559.04 17.26 1558.78 17.42L1558.78 17.42Q1558.50 17.60 1558.12 17.60L1558.12 17.60L1555.32 17.60Q1554.42 17.60 1553.76 18.16Q1553.10 18.72 1552.96 19.60L1552.96 19.60L1552.96 19.60L1560.68 19.60Q1561.66 19.60 1562.50 18.98L1562.50 18.98Q1563.32 18.36 1563.50 17.22L1563.50 17.22L1564.76 8.34L1575.18 2.86L1575.48 0.74L1552.80 0.74Q1552.04 0.74 1551.46 1.23Q1550.88 1.72 1550.76 2.48L1550.76 2.48L1550.72 2.70L1568.36 2.70ZM1582.02 15.98L1582.02 15.98L1582.02 15.98Q1582.16 16.46 1582.08 17L1582.08 17Q1582.02 17.54 1581.74 18.02L1581.74 18.02Q1581.48 18.48 1581.06 18.84L1581.06 18.84Q1580.66 19.20 1580.16 19.40L1580.16 19.40Q1579.66 19.60 1579.12 19.60L1579.12 19.60Q1578.58 19.60 1578.12 19.40L1578.12 19.40Q1577.68 19.20 1577.38 18.84L1577.38 18.84Q1577.08 18.48 1576.94 18.02L1576.94 18.02Q1576.80 17.54 1576.86 17L1576.86 17Q1576.94 16.46 1577.22 15.98L1577.22 15.98Q1577.50 15.50 1577.90 15.16L1577.90 15.16Q1578.30 14.80 1578.80 14.60L1578.80 14.60Q1579.32 14.38 1579.86 14.38L1579.86 14.38Q1580.40 14.38 1580.84 14.60L1580.84 14.60Q1581.28 14.80 1581.58 15.16L1581.58 15.16Q1581.90 15.50 1582.02 15.98ZM1580.18 17.80L1580.18 17.80L1580.18 17.80Q1580.56 17.46 1580.62 17L1580.62 17Q1580.70 16.52 1580.40 16.20L1580.40 16.20Q1580.10 15.86 1579.64 15.86L1579.64 15.86Q1579.16 15.86 1578.80 16.20L1578.80 16.20Q1578.42 16.52 1578.34 17L1578.34 17Q1578.28 17.46 1578.56 17.80L1578.56 17.80Q1578.84 18.14 1579.32 18.14L1579.32 18.14Q1579.78 18.14 1580.18 17.80Z"/></svg>