<svg xmlns="http://www.w3.org/2000/svg" xmlns:xlink="http://www.w3.org/1999/xlink" width="1218.08" height="20"><path fill="black" d="M10.36 17.24L1.70 17.24L1.70 17.24Q1.28 17.24 0.96 17.54Q0.64 17.84 0.58 18.28L0.58 18.28L0.40 19.58L23.04 19.58Q23.32 19.58 23.54 19.38Q23.76 19.18 23.80 18.88L23.80 18.88L24.02 17.24L14.38 17.24L15.10 11.86L23.08 11.86Q23.56 11.86 23.94 11.52Q24.32 11.18 24.40 10.68L24.40 10.68L24.58 9.34L15.44 9.34L16.10 4.42L24.36 4.42Q24.74 4.42 25.04 4.14Q25.34 3.86 25.42 3.44L25.42 3.44L25.58 2.26L16.40 2.26L16.58 0.78L13.26 0.78Q12.98 0.78 12.75 0.99Q12.52 1.20 12.48 1.50L12.48 1.50L12.38 2.26L7.84 2.26L8.20 1.20L4.20 1.20L2.12 7.64L3.64 7.64Q4.72 7.64 5.66 6.94Q6.60 6.24 7 5.10L7 5.10L7.22 4.42L12.08 4.42L11.42 9.34L3.18 9.34Q2.82 9.34 2.53 9.61Q2.24 9.88 2.16 10.28L2.16 10.28L1.96 11.86L11.08 11.86L10.36 17.24ZM45.02 5.56L33.44 5.56L33.44 5.56L33.54 4.88Q33.60 4.46 33.90 4.20Q34.20 3.94 34.60 3.94L34.60 3.94L46.16 3.94L46.06 4.62Q46 5.04 45.70 5.30Q45.40 5.56 45.02 5.56L45.02 5.56ZM33.50 2.90L33.50 2.90L33.50 2.90L32.66 4.34Q31.94 5.44 30.76 5.44L30.76 5.44L27.78 5.44L29.60 2.04Q29.86 1.46 30.36 1.10L30.36 1.10Q30.84 0.74 31.42 0.74L31.42 0.74L49.36 0.74Q49.94 0.74 50.34 1.10L50.34 1.10Q50.72 1.46 50.82 2.04L50.82 2.04L51.64 5.44L48.96 5.44Q47.54 5.44 46.94 3.88L46.94 3.88L46.66 2.90Q46.58 2.36 46.04 2.36L46.04 2.36L34.28 2.36Q33.74 2.36 33.50 2.90ZM34.32 8.58L31.88 8.58L31.88 8.58L32.10 6.96L38.48 6.96L37.12 16.86Q37 17.68 36.34 18.26L36.34 18.26Q35.70 18.86 34.88 18.86L34.88 18.86L28.08 18.86Q27.28 18.86 26.78 18.26L26.78 18.26Q26.30 17.68 26.40 16.86L26.40 16.86L27.76 6.96L31.70 6.96L31.48 8.58L31.38 9.30L30.38 16.48Q30.34 16.78 30.54 17L30.54 17Q30.72 17.24 31.02 17.24L31.02 17.24L32.42 17.24Q32.72 17.24 32.96 17L32.96 17Q33.20 16.78 33.24 16.48L33.24 16.48L34.32 8.58ZM39.88 6.74L49.12 6.74L49.12 6.74Q50.02 6.74 50.58 7.40L50.58 7.40Q51.14 8.06 51 8.98L51 8.98L50.10 15.56Q50.02 16.08 49.78 16.54L49.78 16.54Q49.54 16.98 49.16 17.32L49.16 17.32Q48.78 17.66 48.34 17.86L48.34 17.86Q47.88 18.06 47.40 18.06L47.40 18.06L43.86 18.06L43.96 17.28Q44.02 16.96 44.25 16.75Q44.48 16.54 44.80 16.54L44.80 16.54L45.08 16.54Q45.34 16.54 45.54 16.34L45.54 16.34Q45.74 16.16 45.78 15.88L45.78 15.88L46.74 9.00Q46.78 8.68 46.58 8.46L46.58 8.46Q46.40 8.26 46.10 8.26L46.10 8.26L39.66 8.26L39.88 6.74ZM41.76 19.60L38.18 19.60L38.18 19.60L39.46 10.30Q39.52 9.86 39.84 9.58Q40.16 9.30 40.58 9.30L40.58 9.30L43.74 9.30L42.40 19.04Q42.36 19.28 42.18 19.44Q42 19.60 41.76 19.60L41.76 19.60ZM62.86 14.84L62.86 14.84L62.86 14.84L64.46 3.64L64.80 3.64Q64.94 3.64 65.04 3.56L65.04 3.56Q65.14 3.46 65.18 3.32L65.18 3.32L65.44 1.84L64.76 1.84L64.92 0.74L61.50 0.74Q61.22 0.74 61.02 0.92Q60.82 1.10 60.78 1.38L60.78 1.38L60.72 1.84L59.30 1.84L59.44 0.74L56.06 0.74Q55.78 0.74 55.58 0.92Q55.38 1.10 55.34 1.36L55.34 1.36L55.28 1.84L55.10 1.84Q54.90 1.84 54.72 2.00L54.72 2.00Q54.54 2.16 54.50 2.38L54.50 2.38L54.28 3.64L54.98 3.64L53.36 14.92Q53.32 15.28 53.50 15.58L53.50 15.58Q53.68 15.90 54.10 16.04L54.10 16.04L54.82 16.34L53.28 16.88Q52.70 17.10 52.60 17.70L52.60 17.70L52.38 19.60L57.70 17.76L62.62 19.60L62.84 17.70Q62.88 17.10 62.38 16.88L62.38 16.88L60.90 16.28L61.82 15.96Q62.76 15.64 62.86 14.84ZM60.40 3.64L58.86 14.58L58.86 14.58Q58.84 14.64 58.82 14.72L58.82 14.72Q58.72 14.94 58.44 15.02L58.44 15.02L58.08 15.18L57.76 15.02Q57.48 14.94 57.44 14.72L57.44 14.72Q57.42 14.68 57.42 14.66L57.42 14.66Q57.42 14.62 57.44 14.58L57.44 14.58L59 3.64L60.40 3.64ZM57.44 14.58L59 3.64L59 3.64L57.44 14.58Q57.42 14.62 57.42 14.66L57.42 14.66Q57.42 14.62 57.44 14.58L57.44 14.58ZM57.44 14.72L57.44 14.72L57.44 14.72Q57.42 14.68 57.42 14.66L57.42 14.66Q57.42 14.68 57.44 14.72ZM57.44 14.72L57.44 14.72L57.44 14.72Q57.48 14.94 57.76 15.02L57.76 15.02L58.08 15.18L57.76 15.02Q57.48 14.92 57.44 14.72ZM58.44 15.02L58.44 15.02L58.44 15.02L58.08 15.18L58.44 15.02Q58.72 14.94 58.82 14.72L58.82 14.72Q58.72 14.92 58.44 15.02ZM58.82 14.72L58.82 14.72L58.82 14.72Q58.84 14.64 58.86 14.58L58.86 14.58L60.40 3.64L58.86 14.58Q58.84 14.64 58.82 14.72ZM68.16 2.76L68.16 2.76L68.16 2.76L72.06 2.76L68.88 7.20L68.80 7.70L65.52 7.70Q65.18 7.70 64.94 7.98L64.94 7.98Q64.68 8.24 64.62 8.58L64.62 8.58L64.48 9.72L68.54 9.72L67.54 16.72Q67.50 17.06 67.20 17.32L67.20 17.32Q67.04 17.46 66.74 17.50L66.74 17.50Q66.44 17.52 66.20 17.52L66.20 17.52L65.98 17.52Q65.34 17.52 64.86 17.98L64.86 17.98Q64.40 18.42 64.36 19.08L64.36 19.08L64.32 19.60L69.18 19.60Q70.18 19.60 71 18.88L71 18.88Q71.82 18.18 71.96 17.18L71.96 17.18L73.04 9.72L75.64 9.72Q76.04 9.72 76.32 9.42L76.32 9.42Q76.60 9.12 76.66 8.72L76.66 8.72L76.78 7.70L73.30 7.70L77.44 2.12L77.64 0.74L66.10 0.74L66.80 1.96Q67.32 2.76 68.16 2.76ZM78.38 10.84L80.28 10.84L80.28 10.84L79.04 19.58L82.66 19.58Q82.90 19.58 83.09 19.42Q83.28 19.26 83.32 19.02L83.32 19.02L84.74 9.00L83.90 9.00L86.46 3.46L101.82 3.46Q102.44 3.46 102.96 2.94L102.96 2.94Q103.48 2.42 103.58 1.78L103.58 1.78L103.64 1.62L87.54 1.62L88.04 0.74L84.14 0.74Q83.66 0.74 83.36 1.16L83.36 1.16L83.10 1.62L80.82 1.62Q80.44 1.62 80.12 1.98L80.12 1.98Q79.78 2.34 79.72 2.72L79.72 2.72L79.60 3.46L82.02 3.46L78.38 10.84ZM92.10 9.72L90.94 17.76L90.94 17.76L85.96 17.76Q85.42 17.76 85.04 18.08L85.04 18.08Q84.66 18.42 84.58 18.94L84.58 18.94L84.52 19.60L100.12 19.60Q100.56 19.60 100.86 19.20L100.86 19.20Q101.18 18.82 101.26 18.38L101.26 18.38L101.34 17.76L95.14 17.76L96.32 9.72L100.78 9.72Q101.36 9.72 101.80 9.34L101.80 9.34Q102.24 8.96 102.34 8.38L102.34 8.38L102.42 7.88L96.58 7.88L97.06 4.46L94.78 4.46Q93.96 4.46 93.34 5.00L93.34 5.00Q92.72 5.54 92.58 6.36L92.58 6.36L92.38 7.88L87.58 7.88Q87.12 7.88 86.80 8.16L86.80 8.16Q86.46 8.46 86.40 8.90L86.40 8.90L86.28 9.72L92.10 9.72ZM110.82 9.78L104.54 19.56L104.54 19.56L107 19.56Q109.18 19.56 110.76 17.38L110.76 17.38L115.58 9.78L128.02 9.78Q128.32 9.78 128.56 9.56Q128.80 9.34 128.84 9.02L128.84 9.02L129 7.66L116.78 7.66L119.88 2.86L128.32 2.86Q128.66 2.86 128.92 2.62Q129.18 2.38 129.24 2.02L129.24 2.02L129.38 0.74L107.92 0.74Q107.60 0.74 107.35 0.97Q107.10 1.20 107.04 1.56L107.04 1.56L106.90 2.86L115.14 2.86L112.04 7.66L106.34 7.66Q106.02 7.66 105.77 7.89Q105.52 8.12 105.48 8.46L105.48 8.46L105.32 9.78L110.82 9.78ZM122.54 10.60L118.98 10.60L118.98 10.60Q118.72 10.60 118.52 10.78Q118.32 10.96 118.28 11.24L118.28 11.24L117.52 17.30Q117.38 18.26 117.92 18.92L117.92 18.92Q118.44 19.56 119.32 19.56L119.32 19.56L127.46 19.56L127.60 18.58Q127.64 18.16 127.42 17.88Q127.20 17.60 126.82 17.60L126.82 17.60L122.36 17.60Q122.08 17.60 121.90 17.40L121.90 17.40Q121.72 17.18 121.76 16.84L121.76 16.84L122.54 10.60ZM150.22 9.00L150.34 8.08L150.34 8.08L136.86 8.08L137.06 6.62L154.52 6.62L153.90 11.28Q153.80 12 153.26 12.46L153.26 12.46Q152.72 12.92 152.04 12.92L152.04 12.92L133.40 12.92Q132.72 12.92 132.30 12.42L132.30 12.42Q131.88 11.92 131.98 11.20L131.98 11.20L132.60 6.62L136.58 6.62L136.26 9.00L150.22 9.00ZM149.96 10.98L149.96 10.98L149.96 10.98L150.06 10.22L136.10 10.22L136 10.98Q135.96 11.18 136.08 11.34L136.08 11.34Q136.20 11.48 136.40 11.48L136.40 11.48L149.44 11.48Q149.62 11.48 149.78 11.34L149.78 11.34Q149.92 11.18 149.96 10.98ZM134.46 19.60L130.56 19.60L130.56 19.60L131.42 16.08Q131.72 14.98 132.61 14.26Q133.50 13.54 134.58 13.54L134.58 13.54L135.96 13.54L134.46 19.60ZM146.26 1.30L155.42 1.30L155.42 1.30L155.34 1.82Q155.30 2.18 155.05 2.41Q154.80 2.64 154.46 2.64L154.46 2.64L132.94 2.64L133.02 2.12Q133.08 1.76 133.33 1.53Q133.58 1.30 133.90 1.30L133.90 1.30L142.28 1.30L142.36 0.72L145.78 0.72Q146 0.72 146.14 0.89Q146.28 1.06 146.26 1.30L146.26 1.30L146.26 1.30ZM147.68 17.18L143.80 17.18L143.80 17.18L143.66 13.54L146.02 13.54Q146.68 13.54 147.13 13.97Q147.58 14.40 147.60 15.08L147.60 15.08L147.68 17.18ZM141.10 17.80L141.10 17.80L141.10 17.80Q141.28 18 141.60 18L141.60 18L147.44 18Q148.06 18 148.47 18.47Q148.88 18.94 148.80 19.60L148.80 19.60L148.80 19.60L138.70 19.60Q137.78 19.60 137.24 18.94L137.24 18.94Q136.70 18.30 136.84 17.38L136.84 17.38L137.36 13.54L141.50 13.54L140.98 17.26Q140.92 17.58 141.10 17.80ZM153.22 3.02L152.78 4.60L152.78 4.60L155.22 4.60L155.14 5.14Q155.08 5.48 154.84 5.70Q154.60 5.92 154.28 5.92L154.28 5.92L132.28 5.92L132.36 5.38Q132.42 5.02 132.66 4.81Q132.90 4.60 133.22 4.60L133.22 4.60L134.90 4.60L134.88 3.02L137.34 3.02Q138 3.02 138.43 3.46Q138.86 3.90 138.88 4.60L138.88 4.60L138.88 4.60L148.80 4.60L148.80 4.60Q149 3.90 149.55 3.46Q150.10 3.02 150.76 3.02L150.76 3.02L153.22 3.02ZM150 19.60L149.82 13.54L149.82 13.54L151.92 13.54Q152.74 13.54 153.27 14.06Q153.80 14.58 153.84 15.40L153.84 15.40L153.98 19.60L150 19.60ZM168.60 13.78L172.22 17.48L172.22 17.48Q174.44 19.60 177.24 19.60L177.24 19.60L179.14 19.60L171.30 11.38L181.58 1.42L177.10 1.42Q176.64 1.42 176.26 1.78L176.26 1.78L169.10 9.00L164.22 3.04Q163.18 1.42 161.52 1.42L161.52 1.42L158.58 1.42L166.42 11.38L156.48 19.60L159.44 19.60Q161.48 19.60 163.20 18.24L163.20 18.24L168.60 13.78ZM168.24 0.76L167.82 4.86L167.82 4.86L171.34 4.86L171.56 2.70Q171.62 1.90 171.13 1.33Q170.64 0.76 169.90 0.76L169.90 0.76L168.24 0.76ZM182.38 19.60L182.38 19.60L182.38 19.60L185.22 19.60Q185.80 18.94 186.41 17.92Q187.02 16.90 187.50 15.82L187.50 15.82Q187.82 15.00 187.37 14.31Q186.92 13.62 186.08 13.62L186.08 13.62L186.08 13.62Q185.04 13.62 184.58 14.76L184.58 14.76Q184.20 16.02 183.59 17.35Q182.98 18.68 182.38 19.60ZM222.38 17.42L222.38 17.42L222.38 17.42L224.08 4.66L226.40 4.66Q226.78 4.66 227.09 4.37Q227.40 4.08 227.46 3.66L227.46 3.66L227.60 2.70L224.34 2.70L224.60 0.84L220.76 0.84Q220.42 0.84 220.13 1.10Q219.84 1.36 219.78 1.74L219.78 1.74L219.66 2.70L205.58 2.70Q205.20 2.70 204.89 2.98Q204.58 3.26 204.52 3.68L204.52 3.68L204.38 4.66L219.40 4.66L217.74 16.94Q217.70 17.26 217.46 17.46L217.46 17.46Q217.24 17.66 216.96 17.66L216.96 17.66L215.16 17.66Q214.78 17.66 214.47 17.95Q214.16 18.24 214.08 18.66L214.08 18.66L213.96 19.62L219.98 19.62Q220.86 19.62 221.56 18.98L221.56 18.98Q222.26 18.34 222.38 17.42ZM209.42 6.10L202.38 19.62L202.38 19.62L203.06 19.62Q206.20 19.62 208.28 16.22L208.28 16.22L213.54 6.10L209.42 6.10ZM236.28 6.60L229.58 7.90L229.58 7.90L229.58 7.54Q229.60 6.98 229.93 6.58Q230.26 6.18 230.80 6.06L230.80 6.06L237.66 4.74L237.66 4.92Q237.64 5.56 237.26 6.02Q236.88 6.48 236.28 6.60L236.28 6.60ZM251.06 8.46L251.06 8.46L251.06 8.46Q251.48 8.76 251.66 9.28L251.66 9.28L252.38 11.56L249.48 11.56Q248.58 11.56 248.10 10.62L248.10 10.62L248 10.16Q247.84 9.76 247.30 9.76L247.30 9.76L234.32 9.76Q233.76 9.76 233.50 10.16L233.50 10.16L233 11.04Q232.60 11.56 232.02 11.56L232.02 11.56L228.74 11.56L230.08 9.28Q230.40 8.76 230.90 8.46L230.90 8.46Q231.40 8.14 231.98 8.14L231.98 8.14L250.08 8.14Q250.64 8.14 251.06 8.46ZM245.36 4.88L245.38 4.82L245.38 4.82L251.50 6.10Q252.16 6.26 252.49 6.81Q252.82 7.36 252.66 8.04L252.66 8.04L252.66 8.04L246.48 6.74Q245.86 6.58 245.54 6.05Q245.22 5.52 245.36 4.88L245.36 4.88ZM247.30 13.72L233.70 13.72L233.70 13.72L233.92 12.12L251.60 12.12L250.88 17.36Q250.76 18.28 250.04 18.94L250.04 18.94Q249.30 19.60 248.42 19.60L248.42 19.60L230.52 19.60Q229.64 19.60 229.08 18.94L229.08 18.94Q228.54 18.28 228.66 17.36L228.66 17.36L229.38 12.12L233.44 12.12L233.22 13.72L233.20 13.92L232.78 16.98Q232.72 17.40 232.96 17.70L232.96 17.70Q233.20 17.98 233.60 17.98L233.60 17.98L245.78 17.98Q246.18 17.98 246.50 17.70L246.50 17.70Q246.80 17.40 246.86 16.98L246.86 16.98L247.30 13.72ZM233.92 3.74L233.92 3.74L233.92 3.74L233.82 4.38L229.76 4.38L229.86 3.60Q229.98 2.78 230.62 2.22L230.62 2.22Q231.26 1.64 232.04 1.64L232.04 1.64L239.86 1.64L239.98 0.74L243.18 0.74Q243.54 0.74 243.76 1.01Q243.98 1.28 243.94 1.64L243.94 1.64L243.94 1.64L251.76 1.64Q252.56 1.64 253.04 2.22L253.04 2.22Q253.52 2.78 253.42 3.60L253.42 3.60L253.32 4.38L249.24 4.38L249.32 3.74Q249.36 3.56 249.24 3.42L249.24 3.42Q249.12 3.26 248.92 3.26L248.92 3.26L234.46 3.26Q234.26 3.26 234.10 3.40L234.10 3.40Q233.94 3.54 233.92 3.74ZM259.66 9.16L262.48 5.32L262.48 5.32L257.98 5.32L254.40 10.08L256.80 10.08L255.46 19.60L259.64 19.60L261.10 9.16L259.66 9.16ZM260.52 4.14L260.52 4.14L260.52 4.14L263.16 0.74L258.64 0.74L255.12 5.14L258.32 5.14Q259.56 5.14 260.52 4.14ZM276.78 10.40L277.70 10.40L277.70 10.40Q278 10.40 278.22 10.22L278.22 10.22Q278.44 10.02 278.50 9.72L278.50 9.72L278.62 8.78L263.58 8.78Q263.30 8.78 263.10 8.96L263.10 8.96Q262.88 9.14 262.84 9.42L262.84 9.42L262.72 10.40L272.70 10.40L272.52 11.66L262.94 11.66Q262.64 11.66 262.42 11.90L262.42 11.90Q262.20 12.14 262.16 12.44L262.16 12.44L262.04 13.38L272.28 13.38L271.74 17.26Q271.70 17.58 271.46 17.78L271.46 17.78Q271.22 17.96 270.90 17.96L270.90 17.96L269.74 17.96Q269.32 17.96 269 18.24L269 18.24Q268.68 18.54 268.62 18.96L268.62 18.96L268.54 19.60L273.30 19.60Q274.24 19.60 274.96 18.94L274.96 18.94Q275.70 18.32 275.82 17.38L275.82 17.38L276.38 13.38L277.36 13.38Q277.74 13.38 278.02 13.10L278.02 13.10Q278.28 12.82 278.34 12.44L278.34 12.44L278.46 11.66L276.60 11.66L276.78 10.40ZM270.56 16.80L270.82 15.10L270.82 15.10L263.32 14.18Q263.24 14.90 263.66 15.46L263.66 15.46Q264.10 16 264.84 16.10L264.84 16.10L270.56 16.80ZM279.66 0.74L269.16 0.74L269.16 0.74L268.94 2.38L275.26 2.38L275.10 3.48L267.84 3.48L267.96 2.54L268.20 0.74L264.06 0.74L263.36 5.78Q263.24 6.74 263.78 7.38L263.78 7.38Q264.32 8.06 265.26 8.06L265.26 8.06L276.46 8.06Q277.36 8.06 278.08 7.40L278.08 7.40Q278.80 6.74 278.94 5.80L278.94 5.80L279.66 0.74ZM274.88 5.14L274.80 5.70L274.80 5.70Q274.76 6.02 274.50 6.22L274.50 6.22Q274.26 6.40 273.94 6.40L273.94 6.40L268.16 6.40Q267.86 6.40 267.68 6.22L267.68 6.22Q267.54 6.06 267.52 5.86L267.52 5.86Q267.52 5.78 267.54 5.70L267.54 5.70L267.62 5.14L274.88 5.14ZM267.54 5.70L267.62 5.14L267.62 5.14L267.54 5.70Q267.52 5.78 267.52 5.86L267.52 5.86Q267.52 5.78 267.54 5.70L267.54 5.70ZM267.52 5.86L267.52 5.86L267.52 5.86Q267.54 6.06 267.68 6.22L267.68 6.22Q267.86 6.40 268.16 6.40L268.16 6.40Q267.86 6.40 267.68 6.22L267.68 6.22Q267.54 6.06 267.52 5.86ZM267.96 2.54L267.84 3.48L267.84 3.48L267.96 2.56L268 2.38L267.96 2.56L268.20 0.74L267.96 2.54ZM274.50 6.22L274.50 6.22L274.50 6.22Q274.26 6.40 273.94 6.40L273.94 6.40Q274.26 6.40 274.50 6.22L274.50 6.22Q274.76 6.02 274.80 5.70L274.80 5.70L274.88 5.14L274.80 5.70Q274.76 6.02 274.50 6.22ZM280.54 3.44L287.72 3.44L287.72 3.44L285.44 19.62L290.20 19.62Q290.50 19.62 290.74 19.42Q290.98 19.22 291.02 18.90L291.02 18.90L293.28 3.44L304.44 3.44Q304.72 3.44 304.92 3.28L304.92 3.28Q305.12 3.10 305.16 2.82L305.16 2.82L305.44 0.74L281.80 0.74Q281.42 0.74 281.14 1L281.14 1Q280.84 1.26 280.78 1.64L280.78 1.64L280.54 3.44ZM301.10 17.16L303.06 17.16L303.06 17.16L299.22 7.92Q298.86 7.26 298.20 7.26L298.20 7.26L294.60 7.26L297.96 15.32Q298.88 17.22 301.10 17.16L301.10 17.16ZM330.80 9.12L330.80 9.12L330.80 9.12L331.04 9.12L330.80 10.86L326.92 10.86Q326.46 10.86 325.88 10.80L325.88 10.80Q325.76 10.78 325.62 10.78L325.62 10.78Q324.88 10.70 324.40 10.50L324.40 10.50L318.98 8.70L314 10.18Q313.34 10.40 312.78 10.52L312.78 10.52Q312.22 10.66 311.72 10.74L311.72 10.74Q311.22 10.80 310.72 10.82L310.72 10.82Q310.54 10.82 310.34 10.84L310.34 10.84Q310.02 10.86 309.66 10.86L309.66 10.86L306.72 10.86L306.96 9.12L307.24 9.12Q307.92 9.12 308.66 8.88L308.66 8.88L314.54 7.24L311.68 6.28L311.68 6.28Q311.02 7.38 309.98 7.38L309.98 7.38L307.20 7.38L310.04 1.18Q310.30 0.72 310.74 0.72L310.74 0.72L314.20 0.72L313.86 1.36L331.50 1.36L331.02 4.78L324.08 7.18L329.44 8.90Q329.80 9.02 330.12 9.06L330.12 9.06Q330.44 9.12 330.80 9.12ZM326.64 3.42L313.62 3.42L313.62 3.42L319.62 6.08L326.64 3.42ZM325.76 12.92L311.98 12.92L311.98 12.92L312.20 11.34L330.10 11.34L329.26 17.34Q329.12 18.26 328.40 18.90L328.40 18.90Q327.68 19.58 326.74 19.58L326.74 19.58L308.34 19.58Q307.44 19.58 306.88 18.90L306.88 18.90Q306.32 18.26 306.44 17.34L306.44 17.34L307.28 11.34L311.40 11.34L310.64 16.82Q310.58 17.24 310.84 17.54L310.84 17.54Q311.12 17.84 311.52 17.84L311.52 17.84L324.04 17.84Q324.46 17.84 324.80 17.54L324.80 17.54Q325.14 17.24 325.20 16.82L325.20 16.82L325.76 12.92ZM346.44 1.44L346.38 1.86L346.38 1.86L357.66 1.86L355.50 17.32Q355.36 18.26 354.62 18.92L354.62 18.92Q353.88 19.58 352.96 19.58L352.96 19.58L334.30 19.58Q333.38 19.58 332.84 18.92L332.84 18.92Q332.32 18.26 332.44 17.32L332.44 17.32L334.58 1.86L338.70 1.86L338.06 6.40L352.90 6.40L353.26 3.82L339.32 3.82L339.60 1.86L342.46 1.86L342.60 0.76L345.88 0.76Q346.16 0.76 346.32 0.96Q346.48 1.16 346.44 1.44L346.44 1.44ZM351.50 16.60L351.50 16.60L351.50 16.60L351.84 14.16L336.98 14.16L336.66 16.60Q336.58 17.02 336.82 17.30L336.82 17.30Q337.04 17.60 337.44 17.60L337.44 17.60L350.36 17.60Q350.78 17.60 351.10 17.30L351.10 17.30Q351.42 17.02 351.50 16.60ZM337.32 11.80L352.16 11.80L352.16 11.80L352.58 8.72L337.74 8.72L337.32 11.80ZM371.28 1.16L377.20 1.16L377.20 1.16L377.04 2.28Q377 2.58 376.78 2.78Q376.56 2.98 376.28 2.98L376.28 2.98L370.36 2.98L370.52 1.86Q370.56 1.56 370.77 1.36Q370.98 1.16 371.28 1.16L371.28 1.16ZM366.56 3.40L364.98 15.24L364.98 15.24L366.14 15.24L367.24 19.50L365.84 19.50Q364.22 19.50 363.46 17.70L363.46 17.70L363.32 17.26L362.46 18.46Q361.64 19.50 360.46 19.50L360.46 19.50L358.40 19.50L361.88 14.18L363.16 4.52Q363.24 4.02 363.58 3.71Q363.92 3.40 364.38 3.40L364.38 3.40L366.56 3.40ZM383.66 1.62L383.62 2.98L383.62 2.98L381.90 2.98L381.96 0.74L382.86 0.74Q383.20 0.74 383.43 0.99Q383.66 1.24 383.66 1.62L383.66 1.62ZM382.64 5.32L381.46 5.32L381.46 5.32L381.46 19.60L380.64 19.60Q379.52 19.60 378.73 18.77Q377.94 17.94 377.92 16.72L377.92 16.72L377.94 5.32L369.64 5.32L369.76 4.42Q369.82 4.12 370.03 3.92Q370.24 3.72 370.54 3.72L370.54 3.72L377.94 3.72L377.94 0.74L381.46 0.74L381.46 3.72L383.54 3.72L383.42 4.62Q383.36 4.92 383.15 5.12Q382.94 5.32 382.64 5.32L382.64 5.32ZM362.36 0.94L362.94 0.94L362.94 0.94L362.66 3.00L362.64 3.22L361.10 14.70L358.98 14.70L360.54 2.88Q360.66 2.08 361.18 1.52L361.18 1.52Q361.72 0.94 362.36 0.94L362.36 0.94ZM363.54 0.94L368.14 0.94L368.14 0.94Q368.80 0.94 369.18 1.52L369.18 1.52Q369.56 2.08 369.46 2.88L369.46 2.88L367.88 14.70L365.76 14.70L367.32 3.00Q367.34 2.82 367.24 2.68L367.24 2.68Q367.14 2.54 366.98 2.54L366.98 2.54L363.32 2.54L363.54 0.94ZM376.44 11.52L376.02 11.52L376.02 11.52L375.20 17.54L376.84 17.44L376.70 18.50Q376.66 18.74 376.50 18.89Q376.34 19.04 376.12 19.06L376.12 19.06L367.74 19.56L367.88 18.48Q367.92 18.26 368.08 18.10Q368.24 17.94 368.46 17.94L368.46 17.94L368.46 17.94L369.74 8.34Q369.82 7.86 370.16 7.55Q370.50 7.24 370.96 7.24L370.96 7.24L372.42 7.24L371.02 17.78L371.84 17.74L373.24 7.16Q373.32 6.68 373.66 6.37Q374 6.06 374.46 6.06L374.46 6.06L376.74 6.06L376.26 9.58L377.38 9.58L377.22 10.80Q377.18 11.12 376.96 11.32Q376.74 11.52 376.44 11.52L376.44 11.52ZM391.38 0.74L387.44 0.74L387.44 0.74Q387.26 0.74 387.12 0.85Q386.98 0.96 386.96 1.14L386.96 1.14L384.58 17.26Q384.42 18.34 385.08 18.96L385.08 18.96Q385.74 19.60 386.74 19.60L386.74 19.60L393.02 19.60L393.02 19.60Q393.12 18.74 392.55 18.12Q391.98 17.50 391.12 17.50L391.12 17.50L389.68 17.50Q388.90 17.50 389 16.84L389 16.84L391.38 0.74ZM397.80 5.14L392.24 3.20L392.24 3.20L392.20 3.48Q392.04 4.58 392.61 5.50Q393.18 6.42 394.28 6.82L394.28 6.82L398.04 8.14L398.36 6.04Q398.40 5.74 398.24 5.49Q398.08 5.24 397.80 5.14L397.80 5.14ZM402.36 11.18L403.92 16.12L403.92 16.12Q405.40 19.56 408.76 19.56L408.76 19.56L409.36 19.56L406.60 10.80Q406.26 10.02 405.50 10.02L405.50 10.02L402.94 10.02L407.46 0.74L403.80 0.74Q403.18 0.74 402.84 1.32L402.84 1.32L393.82 19.56L393.82 19.56Q397.80 19.56 400.04 15.80L400.04 15.80L402.36 11.18ZM430.24 9.00L430.36 8.08L430.36 8.08L416.88 8.08L417.08 6.62L434.54 6.62L433.92 11.28Q433.82 12 433.28 12.46L433.28 12.46Q432.74 12.92 432.06 12.92L432.06 12.92L413.42 12.92Q412.74 12.92 412.32 12.42L412.32 12.42Q411.90 11.92 412 11.20L412 11.20L412.62 6.62L416.60 6.62L416.28 9.00L430.24 9.00ZM429.98 10.98L429.98 10.98L429.98 10.98L430.08 10.22L416.12 10.22L416.02 10.98Q415.98 11.18 416.10 11.34L416.10 11.34Q416.22 11.48 416.42 11.48L416.42 11.48L429.46 11.48Q429.64 11.48 429.80 11.34L429.80 11.34Q429.94 11.18 429.98 10.98ZM414.48 19.60L410.58 19.60L410.58 19.60L411.44 16.08Q411.74 14.98 412.63 14.26Q413.52 13.54 414.60 13.54L414.60 13.54L415.98 13.54L414.48 19.60ZM426.28 1.30L435.44 1.30L435.44 1.30L435.36 1.82Q435.32 2.18 435.07 2.41Q434.82 2.64 434.48 2.64L434.48 2.64L412.96 2.64L413.04 2.12Q413.10 1.76 413.35 1.53Q413.60 1.30 413.92 1.30L413.92 1.30L422.30 1.30L422.38 0.72L425.80 0.72Q426.02 0.72 426.16 0.89Q426.30 1.06 426.28 1.30L426.28 1.30L426.28 1.30ZM427.70 17.18L423.82 17.18L423.82 17.18L423.68 13.54L426.04 13.54Q426.70 13.54 427.15 13.97Q427.60 14.40 427.62 15.08L427.62 15.08L427.70 17.18ZM421.12 17.80L421.12 17.80L421.12 17.80Q421.30 18 421.62 18L421.62 18L427.46 18Q428.08 18 428.49 18.47Q428.90 18.94 428.82 19.60L428.82 19.60L428.82 19.60L418.72 19.60Q417.80 19.60 417.26 18.94L417.26 18.94Q416.72 18.30 416.86 17.38L416.86 17.38L417.38 13.54L421.52 13.54L421 17.26Q420.94 17.58 421.12 17.80ZM433.24 3.02L432.80 4.60L432.80 4.60L435.24 4.60L435.16 5.14Q435.10 5.48 434.86 5.70Q434.62 5.92 434.30 5.92L434.30 5.92L412.30 5.92L412.38 5.38Q412.44 5.02 412.68 4.81Q412.92 4.60 413.24 4.60L413.24 4.60L414.92 4.60L414.90 3.02L417.36 3.02Q418.02 3.02 418.45 3.46Q418.88 3.90 418.90 4.60L418.90 4.60L418.90 4.60L428.82 4.60L428.82 4.60Q429.02 3.90 429.57 3.46Q430.12 3.02 430.78 3.02L430.78 3.02L433.24 3.02ZM430.02 19.60L429.84 13.54L429.84 13.54L431.94 13.54Q432.76 13.54 433.29 14.06Q433.82 14.58 433.86 15.40L433.86 15.40L434 19.60L430.02 19.60ZM448.62 13.78L452.24 17.48L452.24 17.48Q454.46 19.60 457.26 19.60L457.26 19.60L459.16 19.60L451.32 11.38L461.60 1.42L457.12 1.42Q456.66 1.42 456.28 1.78L456.28 1.78L449.12 9.00L444.24 3.04Q443.20 1.42 441.54 1.42L441.54 1.42L438.60 1.42L446.44 11.38L436.50 19.60L439.46 19.60Q441.50 19.60 443.22 18.24L443.22 18.24L448.62 13.78ZM448.26 0.76L447.84 4.86L447.84 4.86L451.36 4.86L451.58 2.70Q451.64 1.90 451.15 1.33Q450.66 0.76 449.92 0.76L449.92 0.76L448.26 0.76ZM467.92 15.98L467.92 15.98L467.92 15.98Q468.06 16.46 467.98 17L467.98 17Q467.92 17.54 467.64 18.02L467.64 18.02Q467.38 18.48 466.96 18.84L466.96 18.84Q466.56 19.20 466.06 19.40L466.06 19.40Q465.56 19.60 465.02 19.60L465.02 19.60Q464.48 19.60 464.02 19.40L464.02 19.40Q463.58 19.20 463.28 18.84L463.28 18.84Q462.98 18.48 462.84 18.02L462.84 18.02Q462.70 17.54 462.76 17L462.76 17Q462.84 16.46 463.12 15.98L463.12 15.98Q463.40 15.50 463.80 15.16L463.80 15.16Q464.20 14.80 464.70 14.60L464.70 14.60Q465.22 14.38 465.76 14.38L465.76 14.38Q466.30 14.38 466.74 14.60L466.74 14.60Q467.18 14.80 467.48 15.16L467.48 15.16Q467.80 15.50 467.92 15.98ZM466.08 17.80L466.08 17.80L466.08 17.80Q466.46 17.46 466.52 17L466.52 17Q466.60 16.52 466.30 16.20L466.30 16.20Q466 15.86 465.54 15.86L465.54 15.86Q465.06 15.86 464.70 16.20L464.70 16.20Q464.32 16.52 464.24 17L464.24 17Q464.18 17.46 464.46 17.80L464.46 17.80Q464.74 18.14 465.22 18.14L465.22 18.14Q465.68 18.14 466.08 17.80ZM482.44 7.04L485.32 1.14L485.32 1.14Q485.56 0.74 485.96 0.74L485.96 0.74L489.62 0.74L487.24 5.78L488.30 5.78L486.34 19.58L482.40 19.58L484.18 7.04L482.44 7.04ZM506.46 9.74L503.20 15.24L503.20 15.24L505.44 19.60L503.42 19.60Q502.60 19.60 502.08 18.84L502.08 18.84L501.50 17.82L500.86 18.78Q500.24 19.60 499.30 19.60L499.30 19.60L496.64 19.60L499.96 14.62L498.30 10.54L501.02 10.54L501.56 11.86L502.94 9.46L499.44 9.46Q499.02 9.46 498.75 9.15Q498.48 8.84 498.54 8.42L498.54 8.42L498.62 7.88L506.72 7.88L506.46 9.74ZM506.26 6.64L506.26 6.64L506.26 6.64Q505.60 7.22 504.78 7.22L504.78 7.22L498.96 7.22L499.18 5.62L502.30 5.62Q502.62 5.62 502.86 5.42L502.86 5.42Q503.10 5.20 503.14 4.90L503.14 4.90L503.48 2.52L499.62 2.52L499.84 0.92L507.66 0.92L507.04 5.26Q506.92 6.06 506.26 6.64ZM495.44 2.52L494.54 2.52L494.54 2.52L494.76 0.92L499.16 0.92L498.54 5.26Q498.42 6.06 497.76 6.64L497.76 6.64Q497.10 7.22 496.28 7.22L496.28 7.22L493.44 7.22L493.14 9.34L497.72 9.34L497.58 10.24Q497.54 10.54 497.31 10.73Q497.08 10.92 496.78 10.92L496.78 10.92L492.92 10.92L492.54 13.54L497.12 13.54L496.98 14.44Q496.94 14.74 496.71 14.94Q496.48 15.14 496.18 15.14L496.18 15.14L492.32 15.14L491.68 19.60L487.72 19.60L490.38 0.92L494.34 0.92L494.10 2.52L494.06 2.82L493.66 5.62L494.50 5.62Q494.70 5.62 494.88 5.48L494.88 5.48Q495.04 5.34 495.08 5.14L495.08 5.14L495.44 2.52ZM515.40 14.88L516.98 3.74L516.98 3.74L515.40 14.88Q515.40 14.88 515.40 14.88L515.40 14.88Q515.40 14.88 515.40 14.88L515.40 14.88Q515.40 14.88 515.40 14.88L515.40 14.88Q515.40 14.88 515.40 14.88L515.40 14.88ZM513.06 14.98L513.06 14.98L513.06 14.98Q513.10 15.18 513.36 15.32L513.36 15.32Q513.32 15.30 513.28 15.26L513.28 15.26Q513.26 15.26 513.26 15.24L513.26 15.24Q513.10 15.14 513.08 14.98L513.08 14.98Q513.10 15.14 513.26 15.24L513.26 15.24Q513.10 15.14 513.06 14.98L513.06 14.98Q513.06 14.98 513.06 14.96L513.06 14.96Q513.04 14.96 513.04 14.96Q513.04 14.96 513.04 14.94L513.04 14.94Q513.04 14.92 513.06 14.90L513.06 14.90Q513.06 14.90 513.06 14.88L513.06 14.88L514.64 3.74L513.06 14.88Q513.06 14.90 513.06 14.92L513.06 14.92Q513.04 14.92 513.04 14.94L513.04 14.94Q513.04 14.94 513.04 14.94L513.04 14.94Q513.04 14.94 513.04 14.94L513.04 14.94Q513.04 14.96 513.05 14.96Q513.06 14.96 513.06 14.96L513.06 14.96Q513.06 14.98 513.06 14.98ZM515 15.32L514.18 15.62L514.18 15.62L514.16 15.64L514.16 15.64L515 15.32Q515.30 15.18 515.38 14.98L515.38 14.98Q515.38 14.98 515.38 14.98L515.38 14.98Q515.38 14.98 515.38 14.98L515.38 14.98Q515.38 14.98 515.38 14.98L515.38 14.98Q515.38 14.98 515.38 14.98L515.38 14.98Q515.36 15.04 515.32 15.08L515.32 15.08Q515.22 15.22 515 15.32L515 15.32ZM514.16 15.64L514.16 15.64L514.16 15.64L514.16 15.64L514.16 15.64L514.16 15.64ZM513.08 14.88L514.64 3.74L514.64 3.74L513.08 14.88Q513.08 14.92 513.08 14.94L513.08 14.94Q513.08 14.92 513.08 14.88L513.08 14.88ZM515.32 15.08L515.32 15.08L515.32 15.08Q515.22 15.22 515 15.32L515 15.32L514.18 15.62L515 15.32Q515.22 15.22 515.32 15.08ZM513.08 14.98L513.08 14.98L513.08 14.98Q513.10 15.14 513.26 15.24L513.26 15.24Q513.26 15.24 513.26 15.24L513.26 15.24Q513.26 15.24 513.26 15.24L513.26 15.24Q513.10 15.14 513.08 14.98ZM514.16 15.64L514.16 15.64L514.16 15.64L514.16 15.64L514.16 15.64L514.16 15.64ZM527.24 2.36L527.48 0.70L527.48 0.70L533.62 0.70L531.28 17.28Q531.16 18.20 530.44 18.82L530.44 18.82Q529.74 19.44 528.82 19.44L528.82 19.44L522.22 19.44Q521.30 19.44 520.76 18.82L520.76 18.82Q520.20 18.20 520.32 17.28L520.32 17.28L522.66 0.70L526.64 0.70L526.40 2.36L526.40 2.36L526.36 2.66L526.36 2.68L524.32 17.16Q524.28 17.50 524.48 17.72L524.48 17.72Q524.68 17.96 524.98 17.96L524.98 17.96L526.48 17.96Q526.78 17.96 527.02 17.72L527.02 17.72Q527.28 17.50 527.32 17.16L527.32 17.16L529.40 2.36L527.24 2.36ZM513.36 15.32L513.36 15.32L513.36 15.32L514.16 15.64L514.16 15.64L513.36 15.32Q513.10 15.18 513.06 14.98L513.06 14.98Q513.06 14.98 513.06 14.96L513.06 14.96Q513.06 14.96 513.05 14.96Q513.04 14.96 513.04 14.94L513.04 14.94Q513.04 14.94 513.04 14.94L513.04 14.94Q513.04 14.96 513.05 14.96Q513.06 14.96 513.06 14.96L513.06 14.96Q513.06 14.98 513.06 14.98L513.06 14.98Q513.10 15.14 513.26 15.24L513.26 15.24Q513.30 15.28 513.36 15.32ZM515.40 14.88L515.40 14.88L515.40 14.88Q515.40 14.94 515.38 14.98L515.38 14.98Q515.40 14.94 515.40 14.88ZM515.40 14.88L515.40 14.88L515.40 14.88Q515.40 14.94 515.38 14.98L515.38 14.98Q515.38 14.98 515.38 14.98L515.38 14.98Q515.38 14.98 515.38 14.98L515.38 14.98Q515.40 14.94 515.40 14.88L515.40 14.88Q515.40 14.88 515.40 14.88L515.40 14.88Q515.40 14.88 515.40 14.88ZM517.90 0.70L520.84 0.70L520.84 0.70L520.64 2.02L521.40 2.02L521.26 2.98Q521.22 3.28 521 3.48Q520.78 3.68 520.50 3.68L520.50 3.68L520.40 3.68L518.78 15.28Q518.72 15.70 518.44 16.02L518.44 16.02Q518.14 16.32 517.70 16.48L517.70 16.48L517 16.72L517.88 17.10Q518.86 17.60 518.78 18.68L518.78 18.68L518.64 19.60L513.84 17.78L508.52 19.60L508.70 18.34Q508.84 17.58 509.54 17.26L509.54 17.26L510.96 16.72L510.34 16.46Q509.94 16.32 509.74 16L509.74 16Q509.54 15.68 509.58 15.28L509.58 15.28L511.22 3.68L510.46 3.68L510.58 2.68Q510.64 2.40 510.84 2.21Q511.04 2.02 511.32 2.02L511.32 2.02L511.44 2.02L511.54 1.44Q511.76 0.70 512.46 0.70L512.46 0.70L515.08 0.70L514.88 2.02L517.20 2.02L517.32 1.18Q517.36 0.96 517.52 0.83Q517.68 0.70 517.90 0.70L517.90 0.70ZM514.16 15.64L513.36 15.32L513.36 15.32Q513.30 15.28 513.26 15.24L513.26 15.24Q513.30 15.28 513.36 15.32L513.36 15.32L514.16 15.64L515 15.32Q515.30 15.18 515.38 14.98L515.38 14.98Q515.38 14.94 515.39 14.91Q515.40 14.88 515.40 14.84L515.40 14.84L516.98 3.68L514.64 3.68L513.06 14.84Q513.06 14.86 513.06 14.88L513.06 14.88Q513.06 14.90 513.05 14.92Q513.04 14.94 513.04 14.94L513.04 14.94L513.04 14.94Q513.04 14.94 513.04 14.94L513.04 14.94Q513.04 14.96 513.05 14.96Q513.06 14.96 513.06 14.96L513.06 14.96Q513.06 14.98 513.06 14.98L513.06 14.98Q513.10 15.18 513.36 15.32L513.36 15.32L514.16 15.64L514.16 15.64L514.16 15.64L514.16 15.64L514.16 15.64L515 15.32Q515.30 15.18 515.38 14.98L515.38 14.98Q515.38 14.98 515.38 14.98L515.38 14.98Q515.38 14.98 515.38 14.98L515.38 14.98Q515.40 14.94 515.40 14.88L515.40 14.88Q515.40 14.88 515.40 14.88L515.40 14.88Q515.40 14.88 515.40 14.88L515.40 14.88L516.98 3.74L515.40 14.88Q515.40 14.88 515.40 14.88L515.40 14.88Q515.40 14.88 515.40 14.88L515.40 14.88Q515.40 14.88 515.40 14.88L515.40 14.88Q515.40 14.88 515.40 14.88L515.40 14.88Q515.40 14.88 515.40 14.88L515.40 14.88Q515.40 14.88 515.40 14.88L515.40 14.88L516.98 3.74L515.40 14.88Q515.40 14.88 515.40 14.88L515.40 14.88Q515.40 14.88 515.40 14.88L515.40 14.88Q515.40 14.94 515.38 14.98L515.38 14.98Q515.38 14.98 515.38 14.98L515.38 14.98Q515.38 14.98 515.38 14.98L515.38 14.98Q515.30 15.18 515 15.32L515 15.32L514.16 15.64ZM513.06 14.98L513.06 14.98L513.06 14.98Q513.10 15.18 513.36 15.32L513.36 15.32L514.16 15.64L514.16 15.64L513.36 15.32Q513.10 15.18 513.06 14.98ZM514.16 15.64L514.16 15.64L514.16 15.64L514.18 15.62L514.16 15.64ZM515.32 15.08L515.32 15.08L515.32 15.08Q515.36 15.04 515.38 14.98L515.38 14.98Q515.38 14.98 515.38 14.98L515.38 14.98Q515.38 14.98 515.38 14.98L515.38 14.98Q515.38 14.98 515.38 14.98L515.38 14.98Q515.38 14.98 515.38 14.98L515.38 14.98Q515.38 14.98 515.38 14.98L515.38 14.98Q515.38 14.98 515.38 14.98L515.38 14.98Q515.36 15.04 515.32 15.08ZM515.38 14.98L515.38 14.98L515.38 14.98Q515.38 14.98 515.38 14.98L515.38 14.98Q515.38 14.98 515.38 14.98L515.38 14.98L515.38 14.98Q515.38 14.98 515.38 14.98L515.38 14.98Q515.38 14.98 515.38 14.98ZM515.38 14.98L515.38 14.98L515.38 14.98L515.38 14.98Q515.40 14.94 515.40 14.88L515.40 14.88Q515.40 14.88 515.40 14.88L515.40 14.88Q515.40 14.94 515.38 14.98ZM516.98 3.74L515.40 14.88L515.40 14.88Q515.40 14.88 515.40 14.88L515.40 14.88Q515.40 14.88 515.40 14.88L515.40 14.88Q515.40 14.88 515.40 14.88L515.40 14.88Q515.40 14.88 515.40 14.88L515.40 14.88Q515.40 14.88 515.40 14.88L515.40 14.88L516.98 3.74ZM514.18 15.62L515 15.32L515 15.32Q515.22 15.22 515.32 15.08L515.32 15.08Q515.36 15.04 515.38 14.98L515.38 14.98Q515.30 15.18 515 15.32L515 15.32L514.16 15.64L514.18 15.62ZM514.16 15.64L514.16 15.64L514.16 15.64L514.16 15.64L514.16 15.64ZM514.16 15.64L513.36 15.32L513.36 15.32Q513.30 15.28 513.26 15.24L513.26 15.24Q513.26 15.24 513.26 15.24L513.26 15.24Q513.26 15.24 513.26 15.24L513.26 15.24Q513.30 15.28 513.36 15.32L513.36 15.32L514.16 15.64L514.16 15.64ZM544.38 17.24L535.72 17.24L535.72 17.24Q535.30 17.24 534.98 17.54Q534.66 17.84 534.60 18.28L534.60 18.28L534.42 19.58L557.06 19.58Q557.34 19.58 557.56 19.38Q557.78 19.18 557.82 18.88L557.82 18.88L558.04 17.24L548.40 17.24L549.12 11.86L557.10 11.86Q557.58 11.86 557.96 11.52Q558.34 11.18 558.42 10.68L558.42 10.68L558.60 9.34L549.46 9.34L550.12 4.42L558.38 4.42Q558.76 4.42 559.06 4.14Q559.36 3.86 559.44 3.44L559.44 3.44L559.60 2.26L550.42 2.26L550.60 0.78L547.28 0.78Q547 0.78 546.77 0.99Q546.54 1.20 546.50 1.50L546.50 1.50L546.40 2.26L541.86 2.26L542.22 1.20L538.22 1.20L536.14 7.64L537.66 7.64Q538.74 7.64 539.68 6.94Q540.62 6.24 541.02 5.10L541.02 5.10L541.24 4.42L546.10 4.42L545.44 9.34L537.20 9.34Q536.84 9.34 536.55 9.61Q536.26 9.88 536.18 10.28L536.18 10.28L535.98 11.86L545.10 11.86L544.38 17.24ZM579.04 5.56L567.46 5.56L567.46 5.56L567.56 4.88Q567.62 4.46 567.92 4.20Q568.22 3.94 568.62 3.94L568.62 3.94L580.18 3.94L580.08 4.62Q580.02 5.04 579.72 5.30Q579.42 5.56 579.04 5.56L579.04 5.56ZM567.52 2.90L567.52 2.90L567.52 2.90L566.68 4.34Q565.96 5.44 564.78 5.44L564.78 5.44L561.80 5.44L563.62 2.04Q563.88 1.46 564.38 1.10L564.38 1.10Q564.86 0.74 565.44 0.74L565.44 0.74L583.38 0.74Q583.96 0.74 584.36 1.10L584.36 1.10Q584.74 1.46 584.84 2.04L584.84 2.04L585.66 5.44L582.98 5.44Q581.56 5.44 580.96 3.88L580.96 3.88L580.68 2.90Q580.60 2.36 580.06 2.36L580.06 2.36L568.30 2.36Q567.76 2.36 567.52 2.90ZM568.34 8.58L565.90 8.58L565.90 8.58L566.12 6.96L572.50 6.96L571.14 16.86Q571.02 17.68 570.36 18.26L570.36 18.26Q569.72 18.86 568.90 18.86L568.90 18.86L562.10 18.86Q561.30 18.86 560.80 18.26L560.80 18.26Q560.32 17.68 560.42 16.86L560.42 16.86L561.78 6.96L565.72 6.96L565.50 8.58L565.40 9.30L564.40 16.48Q564.36 16.78 564.56 17L564.56 17Q564.74 17.24 565.04 17.24L565.04 17.24L566.44 17.24Q566.74 17.24 566.98 17L566.98 17Q567.22 16.78 567.26 16.48L567.26 16.48L568.34 8.58ZM573.90 6.74L583.14 6.74L583.14 6.74Q584.04 6.74 584.60 7.40L584.60 7.40Q585.16 8.06 585.02 8.98L585.02 8.98L584.12 15.56Q584.04 16.08 583.80 16.54L583.80 16.54Q583.56 16.98 583.18 17.32L583.18 17.32Q582.80 17.66 582.36 17.86L582.36 17.86Q581.90 18.06 581.42 18.06L581.42 18.06L577.88 18.06L577.98 17.28Q578.04 16.96 578.27 16.75Q578.50 16.54 578.82 16.54L578.82 16.54L579.10 16.54Q579.36 16.54 579.56 16.34L579.56 16.34Q579.76 16.16 579.80 15.88L579.80 15.88L580.76 9.00Q580.80 8.68 580.60 8.46L580.60 8.46Q580.42 8.26 580.12 8.26L580.12 8.26L573.68 8.26L573.90 6.74ZM575.78 19.60L572.20 19.60L572.20 19.60L573.48 10.30Q573.54 9.86 573.86 9.58Q574.18 9.30 574.60 9.30L574.60 9.30L577.76 9.30L576.42 19.04Q576.38 19.28 576.20 19.44Q576.02 19.60 575.78 19.60L575.78 19.60ZM608.58 8.48L590.38 8.48L590.38 8.48Q589.48 8.48 588.96 7.88L588.96 7.88Q588.44 7.28 588.54 6.40L588.54 6.40L589.28 0.74L593.26 0.74L593.06 2.24L593 2.54L592.96 2.92L592.84 3.94L607.28 3.94L607.50 2.24L593.84 2.24L594.04 0.74L611.66 0.74L610.92 6.40Q610.80 7.28 610.14 7.88L610.14 7.88Q609.46 8.48 608.58 8.48L608.58 8.48ZM592.66 5.28L592.50 6.40L592.50 6.40Q592.48 6.66 592.64 6.82L592.64 6.82Q592.80 6.96 593.06 6.96L593.06 6.96L606.30 6.96Q606.58 6.96 606.74 6.82L606.74 6.82Q606.92 6.66 606.94 6.40L606.94 6.40L607.10 5.28L592.66 5.28ZM588.02 9.56L588.02 9.56L588.02 9.56Q588.26 9.32 588.60 9.32L588.60 9.32L611 9.32L610.90 10.06Q610.86 10.40 610.62 10.62L610.62 10.62Q610.38 10.86 610.06 10.86L610.06 10.86L601.76 10.86L601.44 13.16L610.18 13.16Q610.08 13.84 609.62 14.26L609.62 14.26Q609.16 14.68 608.54 14.68L608.54 14.68L601.24 14.68L600.94 17L610.50 17.92L610.04 18.60Q609.22 19.54 608.02 19.46L608.02 19.46L590.74 18Q590.14 19.60 588.70 19.60L588.70 19.60L586.40 19.60L588.44 11.70L592.36 11.70L591.18 16.16L597.02 16.68L597.78 10.86L587.64 10.86L587.74 10.12Q587.78 9.78 588.02 9.56ZM637.34 3.12L637.66 1.40L637.66 1.40L620.78 1.40L621.30 0.74L616.98 0.74L616.50 1.40L614.02 1.40Q613.78 1.40 613.58 1.64L613.58 1.64Q613.40 1.90 613.36 2.16L613.36 2.16L613.06 3.60L615.16 3.60L612.40 7.90L614.82 7.90L613.12 19.60L615.86 19.60Q616.42 19.60 616.84 19.23Q617.26 18.86 617.36 18.30L617.36 18.30L617.78 15.16L630.46 15.16L630.20 17.16Q630.18 17.28 630.12 17.36L630.12 17.36Q630.06 17.42 629.96 17.50L629.96 17.50Q629.94 17.52 629.88 17.54L629.88 17.54Q629.78 17.64 629.68 17.66L629.68 17.66Q629.56 17.66 629.44 17.66L629.44 17.66Q629.40 17.66 629.34 17.66L629.34 17.66L627.20 17.66Q626.78 17.66 626.48 18.02L626.48 18.02Q626.16 18.36 626.10 18.80L626.10 18.80L626 19.60L631.52 19.60Q632.46 19.60 633.24 19.06L633.24 19.06Q634 18.50 634.14 17.42L634.14 17.42L635.86 5.28L620.08 5.28L619.82 6.84L631.64 6.84L631.36 8.96L618.68 8.96L619.22 5.28L618.40 5.28L619.42 3.60L636.78 3.60Q637 3.60 637.16 3.46L637.16 3.46Q637.30 3.32 637.34 3.12L637.34 3.12ZM618.10 13.10L618.42 11.14L618.42 11.14L631.10 11.14L630.78 13.10L618.10 13.10ZM658.24 9.00L658.36 8.08L658.36 8.08L644.88 8.08L645.08 6.62L662.54 6.62L661.92 11.28Q661.82 12 661.28 12.46L661.28 12.46Q660.74 12.92 660.06 12.92L660.06 12.92L641.42 12.92Q640.74 12.92 640.32 12.42L640.32 12.42Q639.90 11.92 640 11.20L640 11.20L640.62 6.62L644.60 6.62L644.28 9.00L658.24 9.00ZM657.98 10.98L657.98 10.98L657.98 10.98L658.08 10.22L644.12 10.22L644.02 10.98Q643.98 11.18 644.10 11.34L644.10 11.34Q644.22 11.48 644.42 11.48L644.42 11.48L657.46 11.48Q657.64 11.48 657.80 11.34L657.80 11.34Q657.94 11.18 657.98 10.98ZM642.48 19.60L638.58 19.60L638.58 19.60L639.44 16.08Q639.74 14.98 640.63 14.26Q641.52 13.54 642.60 13.54L642.60 13.54L643.98 13.54L642.48 19.60ZM654.28 1.30L663.44 1.30L663.44 1.30L663.36 1.82Q663.32 2.18 663.07 2.41Q662.82 2.64 662.48 2.64L662.48 2.64L640.96 2.64L641.04 2.12Q641.10 1.76 641.35 1.53Q641.60 1.30 641.92 1.30L641.92 1.30L650.30 1.30L650.38 0.72L653.80 0.72Q654.02 0.72 654.16 0.89Q654.30 1.06 654.28 1.30L654.28 1.30L654.28 1.30ZM655.70 17.18L651.82 17.18L651.82 17.18L651.68 13.54L654.04 13.54Q654.70 13.54 655.15 13.97Q655.60 14.40 655.62 15.08L655.62 15.08L655.70 17.18ZM649.12 17.80L649.12 17.80L649.12 17.80Q649.30 18 649.62 18L649.62 18L655.46 18Q656.08 18 656.49 18.47Q656.90 18.94 656.82 19.60L656.82 19.60L656.82 19.60L646.72 19.60Q645.80 19.60 645.26 18.94L645.26 18.94Q644.72 18.30 644.86 17.38L644.86 17.38L645.38 13.54L649.52 13.54L649 17.26Q648.94 17.58 649.12 17.80ZM661.24 3.02L660.80 4.60L660.80 4.60L663.24 4.60L663.16 5.14Q663.10 5.48 662.86 5.70Q662.62 5.92 662.30 5.92L662.30 5.92L640.30 5.92L640.38 5.38Q640.44 5.02 640.68 4.81Q640.92 4.60 641.24 4.60L641.24 4.60L642.92 4.60L642.90 3.02L645.36 3.02Q646.02 3.02 646.45 3.46Q646.88 3.90 646.90 4.60L646.90 4.60L646.90 4.60L656.82 4.60L656.82 4.60Q657.02 3.90 657.57 3.46Q658.12 3.02 658.78 3.02L658.78 3.02L661.24 3.02ZM658.02 19.60L657.84 13.54L657.84 13.54L659.94 13.54Q660.76 13.54 661.29 14.06Q661.82 14.58 661.86 15.40L661.86 15.40L662 19.60L658.02 19.60ZM676.62 13.78L680.24 17.48L680.24 17.48Q682.46 19.60 685.26 19.60L685.26 19.60L687.16 19.60L679.32 11.38L689.60 1.42L685.12 1.42Q684.66 1.42 684.28 1.78L684.28 1.78L677.12 9.00L672.24 3.04Q671.20 1.42 669.54 1.42L669.54 1.42L666.60 1.42L674.44 11.38L664.50 19.60L667.46 19.60Q669.50 19.60 671.22 18.24L671.22 18.24L676.62 13.78ZM676.26 0.76L675.84 4.86L675.84 4.86L679.36 4.86L679.58 2.70Q679.64 1.90 679.15 1.33Q678.66 0.76 677.92 0.76L677.92 0.76L676.26 0.76ZM695.48 1.38L695.48 1.38L695.48 1.38L695.42 1.66L692.44 1.66L690.44 17.14Q690.36 17.64 690.48 18.08L690.48 18.08Q690.58 18.54 690.86 18.88L690.86 18.88Q691.10 19.20 691.48 19.40L691.48 19.40Q691.86 19.60 692.30 19.60L692.30 19.60L699.08 19.60Q699.52 19.60 699.96 19.40L699.96 19.40Q700.38 19.20 700.74 18.88L700.74 18.88Q701.10 18.54 701.32 18.08L701.32 18.08Q701.56 17.62 701.62 17.14L701.62 17.14L703.62 1.66L700.18 1.66L700.32 0.74L696.14 0.74Q695.90 0.74 695.70 0.92L695.70 0.92Q695.52 1.10 695.48 1.38ZM698.78 10.74L697.90 17.56L697.90 17.56Q697.86 17.74 697.70 17.90L697.70 17.90Q697.56 18.04 697.36 18.04L697.36 18.04L694.20 18.04Q694.02 18.04 693.92 17.90L693.92 17.90Q693.78 17.74 693.80 17.56L693.80 17.56L694.70 10.74L698.78 10.74ZM699.78 3.14L698.98 9.16L698.98 9.16L694.90 9.16L695.72 3.14L699.78 3.14ZM715.10 1.58L715.10 1.58L715.10 1.58L708.54 1.58L708.86 0.74L705.76 0.74Q705.24 0.74 704.94 1.34L704.94 1.34L703.58 5.08L705.40 5.08Q707.04 5.08 707.94 3.34L707.94 3.34L711.48 3.34L709.66 17.30Q709.62 17.58 709.38 17.80L709.38 17.80Q709.16 18.02 708.88 18.02L708.88 18.02L706.66 18.02Q706.26 18.02 705.94 18.30L705.94 18.30Q705.64 18.60 705.58 19.04L705.58 19.04L705.50 19.60L711.26 19.60Q712.14 19.60 712.84 19.06L712.84 19.06Q713.56 18.52 713.70 17.44L713.70 17.44L715.66 2.26Q715.68 1.98 715.52 1.78L715.52 1.78Q715.38 1.58 715.10 1.58ZM705.44 11.14L708.88 12.98L708.88 12.98L709.66 10.54L705.14 7.98L704.70 8.76Q704.38 9.44 704.59 10.11Q704.80 10.78 705.44 11.14L705.44 11.14ZM716.40 19.60L716.40 19.60L716.40 19.60L719.24 19.60Q719.82 18.94 720.43 17.92Q721.04 16.90 721.52 15.82L721.52 15.82Q721.84 15.00 721.39 14.31Q720.94 13.62 720.10 13.62L720.10 13.62L720.10 13.62Q719.06 13.62 718.60 14.76L718.60 14.76Q718.22 16.02 717.61 17.35Q717 18.68 716.40 19.60ZM737.36 5.60L737.24 6.38L737.24 6.38L738.68 6.38L736.64 19.58L739.26 19.58Q739.36 19.58 739.44 19.60L739.44 19.60Q739.88 19.60 740.24 19.54L740.24 19.54Q740.62 19.46 740.86 19.12L740.86 19.12L740.94 19L758.82 19.56Q759.52 19.56 760.04 19.14L760.04 19.14Q760.56 18.72 760.66 18.04L760.66 18.04L742.56 17.48Q742.36 17.48 742.14 17.38L742.14 17.38Q741.90 17.28 741.74 17.14L741.74 17.14Q741.56 16.98 741.46 16.78L741.46 16.78Q741.36 16.56 741.40 16.32L741.40 16.32L743.04 4.88L738.22 4.88Q737.90 4.88 737.64 5.08L737.64 5.08Q737.42 5.28 737.36 5.60L737.36 5.60ZM742.22 4.46L743.10 2.30L743.10 2.30L739.06 0.78Q738.70 1.72 739.10 2.58L739.10 2.58Q739.50 3.44 740.48 3.82L740.48 3.82L742.22 4.46ZM748.94 5.00L744.40 5.00L744.40 5.00L749.08 10.96L743.34 16.86L746.40 16.86Q748.16 16.84 749.34 15.62L749.34 15.62L751.42 13.38L753.96 15.98Q754.74 16.82 755.82 16.82L755.82 16.82L759.88 16.82L753.86 10.80L759.74 3.76L755.52 3.76L751.54 8.44L748.94 5.00ZM754.64 0.90L751.10 0.90L751.10 0.90L750.86 2.26L745.24 2.26Q744.92 2.26 744.68 2.46L744.68 2.46Q744.48 2.64 744.44 2.92L744.44 2.92L744.26 4.04L760.12 4.04Q760.84 4.04 761.16 3.30L761.16 3.30L761.38 2.26L755.08 2.26L755.20 1.52Q755.22 1.26 755.06 1.08L755.06 1.08Q754.88 0.90 754.64 0.90L754.64 0.90ZM765.50 2.18L762.42 8.54L762.42 8.54L766.02 8.54Q766.86 8.54 767.36 7.66L767.36 7.66L769.56 2.96Q769.66 2.74 769.90 2.62L769.90 2.62Q770.14 2.52 770.34 2.52L770.34 2.52L781.38 2.52Q781.58 2.52 781.74 2.62L781.74 2.62Q781.92 2.74 781.96 2.96L781.96 2.96L782.92 7.42Q783.02 7.92 783.41 8.23Q783.80 8.54 784.30 8.54L784.30 8.54L787.68 8.54L786.24 2.18Q786.08 1.46 785.50 1.10L785.50 1.10Q784.96 0.74 784.24 0.74L784.24 0.74L767.86 0.74Q767.16 0.74 766.48 1.10L766.48 1.10Q765.84 1.46 765.50 2.18L765.50 2.18ZM773.06 5.76L773.06 5.76L773.06 5.76L771.10 19.60L775.88 19.60L777.98 4.64L774.32 4.64Q773.84 4.64 773.48 4.96L773.48 4.96Q773.14 5.26 773.06 5.76ZM808.26 9.00L808.38 8.08L808.38 8.08L794.90 8.08L795.10 6.62L812.56 6.62L811.94 11.28Q811.84 12 811.30 12.46L811.30 12.46Q810.76 12.92 810.08 12.92L810.08 12.92L791.44 12.92Q790.76 12.92 790.34 12.42L790.34 12.42Q789.92 11.92 790.02 11.20L790.02 11.20L790.64 6.62L794.62 6.62L794.30 9.00L808.26 9.00ZM808 10.98L808 10.98L808 10.98L808.10 10.22L794.14 10.22L794.04 10.98Q794 11.18 794.12 11.34L794.12 11.34Q794.24 11.48 794.44 11.48L794.44 11.48L807.48 11.48Q807.66 11.48 807.82 11.34L807.82 11.34Q807.96 11.18 808 10.98ZM792.50 19.60L788.60 19.60L788.60 19.60L789.46 16.08Q789.76 14.98 790.65 14.26Q791.54 13.54 792.62 13.54L792.62 13.54L794 13.54L792.50 19.60ZM804.30 1.30L813.46 1.30L813.46 1.30L813.38 1.82Q813.34 2.18 813.09 2.41Q812.84 2.64 812.50 2.64L812.50 2.64L790.98 2.64L791.06 2.12Q791.12 1.76 791.37 1.53Q791.62 1.30 791.94 1.30L791.94 1.30L800.32 1.30L800.40 0.72L803.82 0.72Q804.04 0.72 804.18 0.89Q804.32 1.06 804.30 1.30L804.30 1.30L804.30 1.30ZM805.72 17.18L801.84 17.18L801.84 17.18L801.70 13.54L804.06 13.54Q804.72 13.54 805.17 13.97Q805.62 14.40 805.64 15.08L805.64 15.08L805.72 17.18ZM799.14 17.80L799.14 17.80L799.14 17.80Q799.32 18 799.64 18L799.64 18L805.48 18Q806.10 18 806.51 18.47Q806.92 18.94 806.84 19.60L806.84 19.60L806.84 19.60L796.74 19.60Q795.82 19.60 795.28 18.94L795.28 18.94Q794.74 18.30 794.88 17.38L794.88 17.38L795.40 13.54L799.54 13.54L799.02 17.26Q798.96 17.58 799.14 17.80ZM811.26 3.02L810.82 4.60L810.82 4.60L813.26 4.60L813.18 5.14Q813.12 5.48 812.88 5.70Q812.64 5.92 812.32 5.92L812.32 5.92L790.32 5.92L790.40 5.38Q790.46 5.02 790.70 4.81Q790.94 4.60 791.26 4.60L791.26 4.60L792.94 4.60L792.92 3.02L795.38 3.02Q796.04 3.02 796.47 3.46Q796.90 3.90 796.92 4.60L796.92 4.60L796.92 4.60L806.84 4.60L806.84 4.60Q807.04 3.90 807.59 3.46Q808.14 3.02 808.80 3.02L808.80 3.02L811.26 3.02ZM808.04 19.60L807.86 13.54L807.86 13.54L809.96 13.54Q810.78 13.54 811.31 14.06Q811.84 14.58 811.88 15.40L811.88 15.40L812.02 19.60L808.04 19.60ZM826.64 13.78L830.26 17.48L830.26 17.48Q832.48 19.60 835.28 19.60L835.28 19.60L837.18 19.60L829.34 11.38L839.62 1.42L835.14 1.42Q834.68 1.42 834.30 1.78L834.30 1.78L827.14 9.00L822.26 3.04Q821.22 1.42 819.56 1.42L819.56 1.42L816.62 1.42L824.46 11.38L814.52 19.60L817.48 19.60Q819.52 19.60 821.24 18.24L821.24 18.24L826.64 13.78ZM826.28 0.76L825.86 4.86L825.86 4.86L829.38 4.86L829.60 2.70Q829.66 1.90 829.17 1.33Q828.68 0.76 827.94 0.76L827.94 0.76L826.28 0.76ZM850.54 1.94L850.70 0.74L850.70 0.74L847.56 0.74Q847.22 0.74 846.97 0.96Q846.72 1.18 846.66 1.52L846.66 1.52L846.62 1.94L843.74 1.94Q843.26 1.94 842.90 2.26Q842.54 2.58 842.48 3.08L842.48 3.08L842.40 3.52L846.40 3.52L845.76 8.28L842.40 8.28Q842.06 8.28 841.80 8.51Q841.54 8.74 841.48 9.10L841.48 9.10L841.38 9.88L843.60 9.88L840.76 17.08Q840.50 17.76 840.54 18.24L840.54 18.24Q840.58 18.72 840.88 18.98L840.88 18.98Q841.16 19.26 841.64 19.34L841.64 19.34Q842.12 19.40 842.76 19.30L842.76 19.30L848.32 18.44L848.34 19.10Q848.34 19.32 848.49 19.46Q848.64 19.60 848.84 19.60L848.84 19.60L852.06 19.60L852.04 15.54Q852 14.14 851.08 13.19Q850.16 12.24 848.86 12.24L848.86 12.24L848.22 12.24L848.28 16.96L845.04 17.44Q844.84 17.50 844.76 17.40L844.76 17.40Q844.70 17.30 844.78 17.08L844.78 17.08L847.62 9.88L852.78 9.88Q853.12 9.88 853.38 9.64Q853.64 9.40 853.70 9.04L853.70 9.04L853.80 8.28L849.68 8.28L850.32 3.52L853.18 3.52Q853.64 3.52 854 3.20Q854.36 2.88 854.44 2.38L854.44 2.38L854.50 1.94L850.54 1.94ZM855.10 4.40L853.04 19.60L853.04 19.60L856.22 19.60Q856.48 19.60 856.67 19.42Q856.86 19.24 856.90 18.98L856.90 18.98L857.06 17.84L861.24 17.84Q861.72 17.84 862.16 17.64L862.16 17.64Q862.60 17.44 862.96 17.12L862.96 17.12Q863.32 16.78 863.56 16.34L863.56 16.34Q863.80 15.90 863.86 15.38L863.86 15.38L865.52 3.16Q865.64 2.26 865.12 1.60L865.12 1.60Q864.58 0.96 863.70 0.96L863.70 0.96L856.36 0.96Q856 0.96 855.72 1.20Q855.44 1.44 855.38 1.84L855.38 1.84L855.30 2.44L861.12 2.44Q861.42 2.44 861.60 2.66L861.60 2.66Q861.78 2.86 861.74 3.18L861.74 3.18L860.04 15.70Q860 15.98 859.80 16.16L859.80 16.16Q859.60 16.34 859.36 16.34L859.36 16.34L857.26 16.34L859.04 3.30L856.32 3.30Q855.86 3.30 855.52 3.61Q855.18 3.92 855.10 4.40L855.10 4.40ZM868.20 3.06L873.44 3.06L873.44 3.06L866.42 16.42L866.52 16.42Q870.26 16.42 872.52 12.72L872.52 12.72L877.60 3.06L890.46 3.06Q890.84 3.06 891.14 2.78L891.14 2.78Q891.44 2.52 891.50 2.10L891.50 2.10L891.68 0.74L869.38 0.74Q869 0.74 868.74 0.98L868.74 0.98Q868.46 1.24 868.40 1.64L868.40 1.64L868.20 3.06ZM877.64 5.96L877.64 5.96L877.64 5.96L875.82 19.60L880.14 19.60L881.90 4.66L879.06 4.66Q878.54 4.66 878.12 5.02L878.12 5.02Q877.72 5.38 877.64 5.96ZM887.36 5.60L883.22 5.60L883.22 5.60L885.52 14.58Q885.74 15.40 886.42 15.91Q887.10 16.42 887.96 16.42L887.96 16.42L890.14 16.42L887.36 5.60ZM899.08 10.14L898.86 11.76L898.86 11.76L911.90 11.76L911.18 16.98Q911.12 17.40 910.80 17.68L910.80 17.68Q910.48 17.98 910.04 17.98L910.04 17.98L898.38 17.98Q897.96 17.98 897.72 17.68L897.72 17.68Q897.48 17.40 897.54 16.98L897.54 16.98L898.48 10.14L893.46 10.14L892.44 17.36Q892.32 18.28 892.86 18.94L892.86 18.94Q893.44 19.60 894.36 19.60L894.36 19.60L913.32 19.60Q914.26 19.60 914.98 18.94L914.98 18.94Q915.72 18.28 915.86 17.36L915.86 17.36L916.86 10.14L899.08 10.14ZM898.42 5.36L899.42 3.00L899.42 3.00Q899.68 2.56 900.22 2.56L900.22 2.56L912.08 2.56Q912.62 2.56 912.70 3.00L912.70 3.00L913.16 4.96Q913.24 5.38 913.64 5.66L913.64 5.66Q914.04 5.94 914.56 5.94L914.56 5.94L917.68 5.94L917 1.74Q916.90 1.28 916.52 1.02L916.52 1.02Q916.12 0.74 915.52 0.74L915.52 0.74L897.34 0.74Q896.76 0.74 896.22 0.96L896.22 0.96Q895.70 1.26 895.48 1.74L895.48 1.74L893.48 5.94L897.32 5.94Q898.04 5.94 898.42 5.36L898.42 5.36ZM893.88 7.76L893.70 8.80L893.70 8.80L916.10 8.80Q916.44 8.80 916.70 8.56L916.70 8.56Q916.98 8.34 917.04 7.98L917.04 7.98L917.22 6.92L894.82 6.92Q894.48 6.92 894.20 7.16L894.20 7.16Q893.94 7.40 893.88 7.76L893.88 7.76ZM936.62 15.12L936.70 15.54L936.70 15.54Q937.08 17.34 938.43 18.47Q939.78 19.60 941.54 19.60L941.54 19.60L941.54 19.60L940.48 13.86L941.88 13.38Q942.58 13.12 942.68 12.34L942.68 12.34L942.74 11.04L940.10 11.92L939.14 6.66L942.52 6.66Q942.88 6.66 943.16 6.41Q943.44 6.16 943.50 5.76L943.50 5.76L943.62 4.74L938.82 4.74L938.18 1.52Q938.12 1.18 937.86 0.96Q937.60 0.74 937.28 0.74L937.28 0.74L933.96 0.74L934.76 4.74L927.70 4.74L927.98 2.70L929.88 2.70Q930.64 2.70 931.20 2.20Q931.76 1.70 931.88 0.92L931.88 0.92L931.88 0.92L920.96 0.92Q920.72 0.92 920.54 1.08Q920.36 1.24 920.32 1.50L920.32 1.50L920.14 2.70L923.90 2.70L923.62 4.74L920.76 4.74Q920.38 4.74 920.10 4.99Q919.82 5.24 919.76 5.64L919.76 5.64L919.64 6.66L923.40 6.66L922.64 11.82L919.92 12.10Q919.44 12.16 919.10 12.48Q918.76 12.80 918.68 13.30L918.68 13.30L918.56 14.22L922.36 13.82L921.92 17.02Q921.86 17.44 921.62 17.72L921.62 17.72Q921.38 18 920.98 18L920.98 18L919.96 18Q919.42 18 919.01 18.36Q918.60 18.72 918.52 19.28L918.52 19.28L918.48 19.60L923.50 19.60Q924.40 19.60 925.12 18.94L925.12 18.94Q925.84 18.30 925.96 17.40L925.96 17.40L926.52 13.38L929.22 13.10Q929.66 13.04 929.98 12.73Q930.30 12.42 930.36 11.96L930.36 11.96L930.50 10.98L926.80 11.38L927.48 6.66L935.04 6.66L936.28 13.18L932.22 14.52Q931.22 14.90 931.10 15.98L931.10 15.98L931.04 16.96L936.62 15.12ZM940.26 1.04L940.42 4.08L940.42 4.08L943.50 4.08L943.42 2.58Q943.36 1.92 942.91 1.48Q942.46 1.04 941.82 1.04L941.82 1.04L940.26 1.04ZM949.50 1.38L949.50 1.38L949.50 1.38L949.44 1.66L946.46 1.66L944.46 17.14Q944.38 17.64 944.50 18.08L944.50 18.08Q944.60 18.54 944.88 18.88L944.88 18.88Q945.12 19.20 945.50 19.40L945.50 19.40Q945.88 19.60 946.32 19.60L946.32 19.60L953.10 19.60Q953.54 19.60 953.98 19.40L953.98 19.40Q954.40 19.20 954.76 18.88L954.76 18.88Q955.12 18.54 955.34 18.08L955.34 18.08Q955.58 17.62 955.64 17.14L955.64 17.14L957.64 1.66L954.20 1.66L954.34 0.74L950.16 0.74Q949.92 0.74 949.72 0.92L949.72 0.92Q949.54 1.10 949.50 1.38ZM952.80 10.74L951.92 17.56L951.92 17.56Q951.88 17.74 951.72 17.90L951.72 17.90Q951.58 18.04 951.38 18.04L951.38 18.04L948.22 18.04Q948.04 18.04 947.94 17.90L947.94 17.90Q947.80 17.74 947.82 17.56L947.82 17.56L948.72 10.74L952.80 10.74ZM953.80 3.14L953 9.16L953 9.16L948.92 9.16L949.74 3.14L953.80 3.14ZM969.12 1.58L969.12 1.58L969.12 1.58L962.56 1.58L962.88 0.74L959.78 0.74Q959.26 0.74 958.96 1.34L958.96 1.34L957.60 5.08L959.42 5.08Q961.06 5.08 961.96 3.34L961.96 3.34L965.50 3.34L963.68 17.30Q963.64 17.58 963.40 17.80L963.40 17.80Q963.18 18.02 962.90 18.02L962.90 18.02L960.68 18.02Q960.28 18.02 959.96 18.30L959.96 18.30Q959.66 18.60 959.60 19.04L959.60 19.04L959.52 19.60L965.28 19.60Q966.16 19.60 966.86 19.06L966.86 19.06Q967.58 18.52 967.72 17.44L967.72 17.44L969.68 2.26Q969.70 1.98 969.54 1.78L969.54 1.78Q969.40 1.58 969.12 1.58ZM959.46 11.14L962.90 12.98L962.90 12.98L963.68 10.54L959.16 7.98L958.72 8.76Q958.40 9.44 958.61 10.11Q958.82 10.78 959.46 11.14L959.46 11.14ZM981.24 7.96L972.58 7.96L972.58 7.96Q972.34 7.96 972.16 8.15Q971.98 8.34 971.94 8.60L971.94 8.60L971.70 10.50L993.56 10.50Q993.82 10.50 994.02 10.30Q994.22 10.10 994.26 9.80L994.26 9.80L994.48 7.96L985.26 7.96L985.74 4.06L994.66 4.06Q994.92 4.06 995.14 3.85Q995.36 3.64 995.40 3.32L995.40 3.32L995.60 1.72L986.04 1.72L986.16 0.76L982.74 0.76Q982.48 0.76 982.29 0.96Q982.10 1.16 982.06 1.44L982.06 1.44L982.02 1.72L973.10 1.72Q972.84 1.72 972.63 1.93Q972.42 2.14 972.38 2.44L972.38 2.44L972.16 4.06L981.72 4.06L981.24 7.96ZM972.52 19.56L970.68 19.56L970.68 19.56L972.26 11.74L976.28 11.74L975.12 16.64Q974.42 19.56 972.52 19.56L972.52 19.56ZM981.50 17.34L987.88 17.34L987.88 17.34Q988.48 17.32 988.83 17.74Q989.18 18.16 989.20 18.78L989.20 18.78L989.24 19.56L978.60 19.56Q977.80 19.56 977.22 18.84L977.22 18.84Q976.76 18.26 976.92 16.82L976.92 16.82L977.50 11.74L981.62 11.74L981.08 16.66Q981.06 16.94 981.18 17.14L981.18 17.14Q981.30 17.34 981.50 17.34L981.50 17.34ZM987.64 13.12L987.64 13.12L987.64 13.12L987.66 16.32L983.88 16.32L983.88 11.74L986.62 11.74Q987.04 11.74 987.33 12.13Q987.62 12.52 987.64 13.12ZM990.34 11.74L992.18 11.74L992.18 11.74Q992.98 11.74 993.53 12.51Q994.08 13.28 994.08 14.42L994.08 14.42L994.10 19.56L990.36 19.56L990.34 11.74ZM998.90 16.78L1000.12 9.02L1000.12 9.02L998.08 9.02L996.42 19.60L997.26 19.60Q997.78 19.60 998.17 19.39Q998.56 19.18 998.66 18.64L998.66 18.64L998.66 18.64L1017.16 19.58Q1018.20 19.62 1018.92 18.80L1018.92 18.80L1019.52 17.80L1003.24 16.98L1003.88 12.20L1004.62 12.20Q1004.86 12.20 1005.04 12.04Q1005.22 11.88 1005.26 11.60L1005.26 11.60L1005.40 10.62L1004.08 10.62L1004.48 7.62L1005.12 7.62Q1005.46 7.62 1005.70 7.40Q1005.94 7.18 1006 6.82L1006 6.82L1006.10 6.04L1004.04 6.04L1004.40 3.30L1005.58 3.30Q1005.92 3.30 1006.18 3.06Q1006.44 2.82 1006.50 2.46L1006.50 2.46L1006.60 1.72L1004.60 1.72L1004.74 0.74L1001.70 0.74Q1001.50 0.74 1001.36 0.87Q1001.22 1 1001.20 1.20L1001.20 1.20L1001.12 1.72L999.64 1.72Q999.30 1.72 999.04 1.96Q998.78 2.20 998.72 2.58L998.72 2.58L998.62 3.30L1000.92 3.30L1000.56 6.04L998.96 6.04Q998.62 6.04 998.38 6.26Q998.14 6.48 998.08 6.84L998.08 6.84L997.98 7.62L1001.10 7.62L999.88 16.82L998.90 16.78ZM1009.90 15.18L1009.70 16.70L1009.70 16.70L1012.30 16.70Q1012.52 16.70 1012.68 16.55Q1012.84 16.40 1012.88 16.18L1012.88 16.18L1013.02 15.04L1013.02 15.04Q1013.24 15.02 1013.40 14.87Q1013.56 14.72 1013.60 14.48L1013.60 14.48L1013.74 13.42L1013.24 13.46L1014.68 2.50L1014.68 2.50Q1014.90 2.50 1015.06 2.35Q1015.22 2.20 1015.26 1.98L1015.26 1.98L1015.40 0.92L1007.42 0.92Q1007.20 0.92 1007.04 1.07Q1006.88 1.22 1006.84 1.44L1006.84 1.44L1006.70 2.50L1007.22 2.50L1005.70 13.84L1005.70 13.84Q1005.48 13.86 1005.32 14.01Q1005.16 14.16 1005.12 14.40L1005.12 14.40L1005 15.42L1009.90 15.18ZM1011.32 4.50L1010.12 4.50L1010.12 4.50L1010.38 2.50L1011.58 2.50L1011.32 4.50ZM1010.74 8.84L1009.54 8.84L1009.54 8.84L1009.92 6.08L1011.10 6.08L1010.74 8.84ZM1010.10 13.62L1008.90 13.68L1008.90 13.68L1009.34 10.42L1010.54 10.42L1010.10 13.62ZM1018.56 16.82L1019.48 16.82L1019.48 16.82L1018.48 11.12L1021.48 2.48L1021.68 0.92L1015.80 0.92L1015.70 1.54Q1015.66 1.94 1015.89 2.22Q1016.12 2.50 1016.48 2.50L1016.48 2.50L1018.96 2.50L1017.62 6.62L1017.42 3.80Q1017.40 3.48 1017.18 3.26Q1016.96 3.04 1016.64 3.04L1016.64 3.04L1015.38 3.04L1015.86 10.62L1013.38 16.82L1015.02 16.82Q1016.08 16.82 1016.62 15.64L1016.62 15.64L1016.92 14.80L1017 15.42Q1017.10 16.04 1017.54 16.43Q1017.98 16.82 1018.56 16.82L1018.56 16.82ZM1022.42 19.60L1022.42 19.60L1022.42 19.60L1025.26 19.60Q1025.84 18.94 1026.45 17.92Q1027.06 16.90 1027.54 15.82L1027.54 15.82Q1027.86 15.00 1027.41 14.31Q1026.96 13.62 1026.12 13.62L1026.12 13.62L1026.12 13.62Q1025.08 13.62 1024.62 14.76L1024.62 14.76Q1024.24 16.02 1023.63 17.35Q1023.02 18.68 1022.42 19.60ZM1057.04 0.76L1045.52 0.76L1045.52 0.76Q1045.30 0.76 1045.14 0.90L1045.14 0.90Q1044.98 1.06 1044.94 1.30L1044.94 1.30L1044.78 2.42L1046.94 2.42L1046.32 5.30L1045.18 5.30Q1044.92 5.30 1044.74 5.48L1044.74 5.48Q1044.54 5.66 1044.50 5.94L1044.50 5.94L1044.36 7.14L1045.96 7.14L1044.84 11.92L1044.32 11.92Q1044.08 11.92 1043.90 12.08L1043.90 12.08Q1043.74 12.24 1043.70 12.50L1043.70 12.50L1043.54 13.76L1044.48 13.76L1043.16 19.60L1045.64 19.60Q1046.30 19.60 1046.80 19.18L1046.80 19.18Q1047.32 18.76 1047.48 18.08L1047.48 18.08L1048.44 13.76L1051.28 13.76L1050.80 17.28Q1050.74 17.58 1050.50 17.76L1050.50 17.76Q1050.26 17.94 1049.98 17.94L1049.98 17.94L1049.72 17.94Q1049.44 17.94 1049.24 18.14L1049.24 18.14Q1049.02 18.32 1048.98 18.62L1048.98 18.62L1048.84 19.60L1052.86 19.60Q1053.54 19.60 1054.10 19.10L1054.10 19.10Q1054.66 18.58 1054.74 17.86L1054.74 17.86L1057.04 0.76ZM1052.18 7.14L1051.50 11.92L1051.50 11.92L1048.80 11.92L1049.86 7.14L1052.18 7.14ZM1052.80 2.42L1052.40 5.30L1052.40 5.30L1050.22 5.30L1050.92 2.42L1052.80 2.42ZM1057.68 4.10L1055.62 19.58L1055.62 19.58L1059.50 19.58L1061.66 3.42L1058.46 3.42Q1058.16 3.42 1057.94 3.61Q1057.72 3.80 1057.68 4.10L1057.68 4.10ZM1065.16 7.58L1066.88 1.76L1066.88 1.76Q1066.92 1.34 1066.66 1.04Q1066.40 0.74 1066 0.74L1066 0.74L1058.70 0.74Q1058.40 0.74 1058.18 0.92L1058.18 0.92Q1057.98 1.08 1057.92 1.40L1057.92 1.40L1057.76 2.60L1063.40 2.60L1061.78 8.50Q1061.72 8.72 1061.85 8.89Q1061.98 9.06 1062.18 9.06L1062.18 9.06L1062.54 9.06L1061.26 18.86L1062.60 18.86Q1063.74 18.86 1064.24 18.44L1064.24 18.44Q1064.74 18 1064.86 16.90L1064.86 16.90L1066.04 8.04Q1066.06 7.86 1065.94 7.72Q1065.82 7.58 1065.64 7.58L1065.64 7.58L1065.16 7.58ZM1088.44 17.42L1088.44 17.42L1088.44 17.42L1090.14 4.66L1092.46 4.66Q1092.84 4.66 1093.15 4.37Q1093.46 4.08 1093.52 3.66L1093.52 3.66L1093.66 2.70L1090.40 2.70L1090.66 0.84L1086.82 0.84Q1086.48 0.84 1086.19 1.10Q1085.90 1.36 1085.84 1.74L1085.84 1.74L1085.72 2.70L1071.64 2.70Q1071.26 2.70 1070.95 2.98Q1070.64 3.26 1070.58 3.68L1070.58 3.68L1070.44 4.66L1085.46 4.66L1083.80 16.94Q1083.76 17.26 1083.52 17.46L1083.52 17.46Q1083.30 17.66 1083.02 17.66L1083.02 17.66L1081.22 17.66Q1080.84 17.66 1080.53 17.95Q1080.22 18.24 1080.14 18.66L1080.14 18.66L1080.02 19.62L1086.04 19.62Q1086.92 19.62 1087.62 18.98L1087.62 18.98Q1088.32 18.34 1088.44 17.42ZM1075.48 6.10L1068.44 19.62L1068.44 19.62L1069.12 19.62Q1072.26 19.62 1074.34 16.22L1074.34 16.22L1079.60 6.10L1075.48 6.10ZM1104.44 17.24L1095.78 17.24L1095.78 17.24Q1095.36 17.24 1095.04 17.54Q1094.72 17.84 1094.66 18.28L1094.66 18.28L1094.48 19.58L1117.12 19.58Q1117.40 19.58 1117.62 19.38Q1117.84 19.18 1117.88 18.88L1117.88 18.88L1118.10 17.24L1108.46 17.24L1109.18 11.86L1117.16 11.86Q1117.64 11.86 1118.02 11.52Q1118.40 11.18 1118.48 10.68L1118.48 10.68L1118.66 9.34L1109.52 9.34L1110.18 4.42L1118.44 4.42Q1118.82 4.42 1119.12 4.14Q1119.42 3.86 1119.50 3.44L1119.50 3.44L1119.66 2.26L1110.48 2.26L1110.66 0.78L1107.34 0.78Q1107.06 0.78 1106.83 0.99Q1106.60 1.20 1106.56 1.50L1106.56 1.50L1106.46 2.26L1101.92 2.26L1102.28 1.20L1098.28 1.20L1096.20 7.64L1097.72 7.64Q1098.80 7.64 1099.74 6.94Q1100.68 6.24 1101.08 5.10L1101.08 5.10L1101.30 4.42L1106.16 4.42L1105.50 9.34L1097.26 9.34Q1096.90 9.34 1096.61 9.61Q1096.32 9.88 1096.24 10.28L1096.24 10.28L1096.04 11.86L1105.16 11.86L1104.44 17.24ZM1129.12 19.18L1129.12 19.18L1129.12 19.18Q1128.44 19.60 1127.68 19.60L1127.68 19.60L1120.46 19.60L1120.46 19.60Q1120.56 18.82 1121.09 18.33Q1121.62 17.84 1122.32 17.84L1122.32 17.84L1125.34 17.84Q1125.56 17.84 1125.86 17.68L1125.86 17.68Q1126.14 17.54 1126.22 17.28L1126.22 17.28L1127.46 14.26L1123.64 13.02Q1122.78 12.72 1122.35 11.93Q1121.92 11.14 1122.08 10.18L1122.08 10.18L1122.08 10.18L1128.20 12.16L1130.22 6.36L1126.84 6.36L1126.40 7.50Q1125.72 8.94 1124.42 8.94L1124.42 8.94L1121.98 8.94L1124.24 2.68L1122.66 2.68L1122.74 1.98Q1122.82 1.42 1123.19 1.08Q1123.56 0.74 1124.06 0.74L1124.06 0.74L1145.72 0.74L1145.60 1.58Q1145.54 2.06 1145.21 2.37Q1144.88 2.68 1144.44 2.68L1144.44 2.68L1139.58 2.68L1138.76 9.16L1144.98 6.44L1144.82 7.66Q1144.58 9.14 1143.32 9.76L1143.32 9.76L1138.40 11.92L1137.76 16.92Q1137.70 17.28 1137.80 17.50L1137.80 17.50Q1137.88 17.70 1138.22 17.70L1138.22 17.70L1142.92 17.70Q1143.62 17.70 1144.07 18.27Q1144.52 18.84 1144.44 19.60L1144.44 19.60L1144.44 19.60L1135.82 19.60Q1134.94 19.60 1134.34 18.98L1134.34 18.98Q1133.76 18.36 1133.90 17.26L1133.90 17.26L1135.78 2.68L1128.14 2.68L1127.46 4.72L1134.34 4.72L1134.14 6.36L1130.04 17.96Q1129.78 18.76 1129.12 19.18ZM1171.60 0.74L1171.52 1.44L1171.52 1.44Q1171.46 1.84 1171.18 2.10Q1170.90 2.36 1170.54 2.36L1170.54 2.36L1164.40 2.36L1164.04 4.04L1171.08 4.04L1169.36 17.34Q1169.24 18.26 1168.56 18.92L1168.56 18.92Q1167.88 19.60 1167.02 19.60L1167.02 19.60L1162.22 19.60L1162.22 19.60Q1162.32 18.88 1162.80 18.42Q1163.28 17.96 1163.94 17.96L1163.94 17.96L1164.88 17.96Q1165.28 17.96 1165.52 17.68L1165.52 17.68Q1165.74 17.40 1165.80 16.98L1165.80 16.98L1167.26 5.66L1163.70 5.66L1163.28 7.66L1165.26 7.66Q1165.52 7.66 1165.70 7.86Q1165.88 8.06 1165.86 8.34L1165.86 8.34L1165.34 16.98L1164.34 16.98Q1163.52 16.98 1162.99 16.34Q1162.46 15.70 1162.50 14.80L1162.50 14.80L1162.98 9.10L1162 13.74Q1161.68 15.18 1160.64 16.08Q1159.60 16.98 1158.26 16.98L1158.26 16.98L1158.26 16.98L1160.42 5.66L1156.30 5.66L1155.88 7.66L1158.02 7.66Q1158.20 7.66 1158.34 7.81Q1158.48 7.96 1158.46 8.18L1158.46 8.18L1157.94 16.98L1156.60 16.98Q1155.92 16.98 1155.47 16.44Q1155.02 15.90 1155.08 15.16L1155.08 15.16L1155.58 9.06L1154.62 13.70Q1154.28 15.16 1153.24 16.07Q1152.20 16.98 1150.86 16.98L1150.86 16.98L1150.86 16.98L1153 5.66L1152.40 5.66L1152.60 4.04L1153.32 4.04L1153.64 2.36L1148.68 2.36L1148.76 1.66Q1148.82 1.26 1149.09 1Q1149.36 0.74 1149.74 0.74L1149.74 0.74L1171.60 0.74ZM1156.64 4.04L1160.74 4.04L1160.74 4.04L1161.04 2.36L1157 2.36L1156.64 4.04ZM1149.26 4.04L1152.16 4.04L1152.16 4.04L1151.94 5.66L1151.88 6.18L1150.30 18.42Q1150.22 18.94 1149.87 19.27Q1149.52 19.60 1149.06 19.60L1149.06 19.60L1146.54 19.60L1148.44 4.80Q1148.50 4.48 1148.73 4.26Q1148.96 4.04 1149.26 4.04L1149.26 4.04ZM1183.26 7.20L1181.54 19.58L1181.54 19.58L1185.84 19.58L1185.88 19.26L1194.62 19.26Q1194.94 19.26 1195.18 19.05Q1195.42 18.84 1195.48 18.52L1195.48 18.52L1195.60 17.68L1192.94 17.68L1193.60 13.10L1195.12 13.10Q1195.60 13.10 1195.96 12.79Q1196.32 12.48 1196.40 12L1196.40 12L1196.46 11.52L1193.82 11.52L1194.30 8.04L1195.48 8.04Q1196.12 8.04 1196.59 7.64Q1197.06 7.24 1197.16 6.60L1197.16 6.60L1197.18 6.46L1194.54 6.46L1194.88 4.02L1196.06 4.02Q1196.66 4.02 1197.10 3.63Q1197.54 3.24 1197.64 2.64L1197.64 2.64L1197.68 2.44L1195.20 2.44L1195.20 2.44Q1195.20 1.72 1194.73 1.23Q1194.26 0.74 1193.56 0.74L1193.56 0.74L1191.04 0.74L1190.94 2.44L1188.30 2.44L1188.84 0.74L1185.10 0.74Q1184.70 0.74 1184.50 1.14L1184.50 1.14L1182.10 7.20L1183.26 7.20ZM1191.04 6.46L1187.68 6.46L1187.68 6.46L1188 4.02L1191.36 4.02L1191.04 6.46ZM1190.38 11.52L1187.02 11.52L1187.02 11.52L1187.46 8.04L1190.82 8.04L1190.38 11.52ZM1189.58 17.68L1186.20 17.68L1186.20 17.68L1186.80 13.10L1190.16 13.10L1189.58 17.68ZM1177.14 15.76L1177.28 16.30L1177.28 16.30Q1178.46 19.60 1181.02 19.60L1181.02 19.60L1181.02 19.60L1179 12.08L1183.22 2.66L1183.40 1.06L1175.26 1.06Q1175.02 1.06 1174.84 1.25Q1174.66 1.44 1174.62 1.72L1174.62 1.72L1174.52 2.66L1180.30 2.66L1177.88 8.44L1177.18 4.98Q1177.06 4.46 1176.71 4.13Q1176.36 3.80 1175.92 3.80L1175.92 3.80L1174.38 3.80L1175.82 11.86L1172.52 19.60L1172.52 19.60Q1175.28 19.60 1176.86 16.40L1176.86 16.40L1177.14 15.76ZM1203.98 15.98L1203.98 15.98L1203.98 15.98Q1204.12 16.46 1204.04 17L1204.04 17Q1203.98 17.54 1203.70 18.02L1203.70 18.02Q1203.44 18.48 1203.02 18.84L1203.02 18.84Q1202.62 19.20 1202.12 19.40L1202.12 19.40Q1201.62 19.60 1201.08 19.60L1201.08 19.60Q1200.54 19.60 1200.08 19.40L1200.08 19.40Q1199.64 19.20 1199.34 18.84L1199.34 18.84Q1199.04 18.48 1198.90 18.02L1198.90 18.02Q1198.76 17.54 1198.82 17L1198.82 17Q1198.90 16.46 1199.18 15.98L1199.18 15.98Q1199.46 15.50 1199.86 15.16L1199.86 15.16Q1200.26 14.80 1200.76 14.60L1200.76 14.60Q1201.28 14.38 1201.82 14.38L1201.82 14.38Q1202.36 14.38 1202.80 14.60L1202.80 14.60Q1203.24 14.80 1203.54 15.16L1203.54 15.16Q1203.86 15.50 1203.98 15.98ZM1202.14 17.80L1202.14 17.80L1202.14 17.80Q1202.52 17.46 1202.58 17L1202.58 17Q1202.66 16.52 1202.36 16.20L1202.36 16.20Q1202.06 15.86 1201.60 15.86L1201.60 15.86Q1201.12 15.86 1200.76 16.20L1200.76 16.20Q1200.38 16.52 1200.30 17L1200.30 17Q1200.24 17.46 1200.52 17.80L1200.52 17.80Q1200.80 18.14 1201.28 18.14L1201.28 18.14Q1201.74 18.14 1202.14 17.80Z"/></svg>