<?xml version="1.0" encoding="UTF-8"?>
<svg width="73px" height="73px" viewBox="0 0 73 73" version="1.1" xmlns="http://www.w3.org/2000/svg" xmlns:xlink="http://www.w3.org/1999/xlink">
    <title>编组 15</title>
    <defs>
        <linearGradient x1="50%" y1="50%" x2="50%" y2="88.6644653%" id="linearGradient-1">
            <stop stop-color="#FFFFFF" offset="0%"></stop>
            <stop stop-color="#CCE0FF" offset="100%"></stop>
        </linearGradient>
        <path d="M34.6870479,23.7342637 C35.4702123,23.2735788 36.4376507,23.2735788 37.2208151,23.7342637 L37.2208151,23.7342637 L45.9738288,28.7557294 C46.7569931,29.2164144 47.2176781,30.0456473 47.3098151,30.9670171 L47.3098151,30.9670171 L47.3098151,41.0560171 C47.3098151,41.977387 46.8030616,42.8066198 46.0198972,43.2673048 L46.0198972,43.2673048 L37.2668836,48.2887705 C36.8522671,48.519113 36.4376507,48.61125 35.9769657,48.61125 C35.5162808,48.61125 35.0555959,48.519113 34.6870479,48.2887705 L34.6870479,48.2887705 L25.9801027,43.2673048 C25.1969384,42.8066198 24.6901849,41.977387 24.6901849,41.0560171 L24.6901849,41.0560171 L24.6901849,30.9670171 C24.6901849,30.0456473 25.1969384,29.2164144 25.9801027,28.7557294 L25.9801027,28.7557294 Z M32.0150753,30.5984692 C31.7847329,30.4602637 31.5543904,30.4602637 31.324048,30.5984692 L31.324048,30.5984692 L29.0206233,31.9344555 C28.7902808,32.0726609 28.6520753,32.3030034 28.6520753,32.5333459 L28.6520753,32.5333459 L28.6520753,35.15925 C28.6520753,35.3895925 28.7902808,35.6199349 29.0206233,35.7581404 L29.0206233,35.7581404 L31.324048,37.0941267 C31.4622534,37.1401952 31.5543904,37.1862637 31.6925959,37.1862637 C31.8308014,37.1862637 31.9690068,37.1401952 32.0611438,37.0941267 L32.0611438,37.0941267 L32.6600342,36.7255788 L33.5814041,37.9694281 L33.3049931,38.1076336 C33.0746507,38.245839 32.9364452,38.4761815 32.9364452,38.706524 L32.9364452,38.706524 L32.9364452,41.3324281 C32.9364452,41.5627706 33.0746507,41.793113 33.3049931,41.9313185 L33.3049931,41.9313185 L35.6084178,43.2673048 C35.7466233,43.3133733 35.8387603,43.3594418 35.9769657,43.3594418 C36.1151712,43.3594418 36.2073082,43.3133733 36.1612397,43.2212363 L36.1612397,43.2212363 L38.4646644,41.88525 C38.6950068,41.7470445 38.8332123,41.516702 38.8332123,41.2863596 L38.8332123,41.2863596 L38.8332123,38.6604555 C38.8332123,38.430113 38.6950068,38.1997705 38.4646644,38.0615651 L38.4646644,38.0615651 L38.3725274,38.0154966 L39.2938973,36.7716472 L39.7545822,37.0480582 C39.8927877,37.0941267 39.9849247,37.1401952 40.1231301,37.1401952 C40.2613356,37.1401952 40.3995411,37.0941267 40.4916781,37.0480582 L40.4916781,37.0480582 L42.7951027,35.7120719 C43.0254452,35.5738664 43.1636507,35.3435239 43.1636507,35.1131815 L43.1636507,35.1131815 L43.2557877,35.1131815 L43.2557877,32.5333459 C43.2557877,32.3030034 43.1175822,32.0726609 42.8872397,31.9344555 L42.8872397,31.9344555 L40.5838151,30.5984692 C40.3534726,30.4602637 40.1231301,30.4602637 39.8927877,30.5984692 L39.8927877,30.5984692 L37.589363,31.9344555 C37.3590205,32.0726609 37.2208151,32.3030034 37.2208151,32.5333459 L37.2208151,32.5333459 L37.2208151,32.9479623 L34.6870479,32.9479623 L34.6870479,32.5333459 C34.6870479,32.3030034 34.5488425,32.0726609 34.3185,31.9344555 L34.3185,31.9344555 Z M37.2208151,34.6985651 L37.2208151,35.1131815 C37.2208151,35.3895925 37.3590205,35.6199349 37.5432945,35.7120719 L37.5432945,35.7120719 L37.773637,35.8502774 L36.8522671,37.0941267 L36.2994452,36.7716472 C36.0691028,36.6334418 35.8387603,36.6334418 35.6084178,36.7716472 L35.6084178,36.7716472 L35.1938014,37.0019897 L34.2724315,35.7581404 L34.3185,35.7120719 C34.5488425,35.5738664 34.6870479,35.3435239 34.6870479,35.1131815 L34.6870479,35.1131815 L34.6870479,34.6985651 L37.2208151,34.6985651 Z" id="path-2"></path>
        <filter x="-152.5%" y="-136.8%" width="405.0%" height="373.6%" filterUnits="objectBoundingBox" id="filter-3">
            <feOffset dx="0" dy="0" in="SourceAlpha" result="shadowOffsetOuter1"></feOffset>
            <feGaussianBlur stdDeviation="11.5" in="shadowOffsetOuter1" result="shadowBlurOuter1"></feGaussianBlur>
            <feColorMatrix values="0 0 0 0 0.408898628   0 0 0 0 0.579440933   0 0 0 0 1  0 0 0 1 0" type="matrix" in="shadowBlurOuter1" result="shadowMatrixOuter1"></feColorMatrix>
            <feOffset dx="0" dy="0" in="SourceAlpha" result="shadowOffsetOuter2"></feOffset>
            <feGaussianBlur stdDeviation="3.5" in="shadowOffsetOuter2" result="shadowBlurOuter2"></feGaussianBlur>
            <feColorMatrix values="0 0 0 0 0.243921494   0 0 0 0 0.470365024   0 0 0 0 1  0 0 0 0.584626311 0" type="matrix" in="shadowBlurOuter2" result="shadowMatrixOuter2"></feColorMatrix>
            <feOffset dx="0" dy="3" in="SourceAlpha" result="shadowOffsetOuter3"></feOffset>
            <feGaussianBlur stdDeviation="1.5" in="shadowOffsetOuter3" result="shadowBlurOuter3"></feGaussianBlur>
            <feColorMatrix values="0 0 0 0 0   0 0 0 0 0   0 0 0 0 0  0 0 0 0.708479021 0" type="matrix" in="shadowBlurOuter3" result="shadowMatrixOuter3"></feColorMatrix>
            <feMerge>
                <feMergeNode in="shadowMatrixOuter1"></feMergeNode>
                <feMergeNode in="shadowMatrixOuter2"></feMergeNode>
                <feMergeNode in="shadowMatrixOuter3"></feMergeNode>
            </feMerge>
        </filter>
    </defs>
    <g id="技防社区" stroke="none" stroke-width="1" fill="none" fill-rule="evenodd">
        <g id="画板" transform="translate(-571.000000, -142.000000)">
            <g id="编组-15" transform="translate(571.942073, 142.500000)">
                <rect id="矩形" x="0" y="0" width="72" height="72"></rect>
                <g id="形状结合" fill-rule="nonzero">
                    <use fill="black" fill-opacity="1" filter="url(#filter-3)" xlink:href="#path-2"></use>
                    <use fill="url(#linearGradient-1)" xlink:href="#path-2"></use>
                </g>
            </g>
        </g>
    </g>
</svg>