<?xml version="1.0" encoding="UTF-8"?>
<svg width="74px" height="73px" viewBox="0 0 74 73" version="1.1" xmlns="http://www.w3.org/2000/svg" xmlns:xlink="http://www.w3.org/1999/xlink">
    <title>编组 14</title>
    <defs>
        <linearGradient x1="50%" y1="50%" x2="50%" y2="88.6644653%" id="linearGradient-1">
            <stop stop-color="#FFFFFF" offset="0%"></stop>
            <stop stop-color="#CCE0FF" offset="100%"></stop>
        </linearGradient>
        <path d="M22.6963877,37.0733887 C22.6963877,36.6978712 22.978177,36.514043 23.3228549,36.6658223 L25.975665,37.8304706 C26.3203429,37.9816451 26.6021322,38.4121901 26.6021322,38.7877076 L26.6021322,40.3036855 L31.0466626,40.3036855 L31.9053337,38.4478673 L34.5321419,39.6693573 L33.2900922,42.3542164 C33.0519029,42.8661589 32.5383052,43.1933799 31.9736646,43.1929326 L26.6009228,43.1929326 L26.6009228,44.7089105 C26.6009228,45.0850326 26.3197382,45.5149729 25.9744556,45.6661474 L23.3228549,46.8320052 C22.978177,46.982575 22.6963877,46.7999562 22.6963877,46.4238341 L22.6963877,37.0733887 Z M47.7127445,37.1755827 L45.9016739,41.0468593 L43.310543,39.8423009 L47.7127445,37.1755827 Z M30.7733391,25.2424721 L48.770966,33.6090738 C49.4524607,33.9271449 49.4845096,34.5052362 48.841111,34.8946618 L40.7702066,39.7842499 C40.1268079,40.1736754 39.0419797,40.2329358 38.3592756,39.9160741 L26.4908677,34.3988094 C25.8081132,34.0797669 25.51182,33.2687453 25.8281187,32.5847154 L28.953198,25.9028023 C29.2758571,25.2204542 30.0882216,24.925736 30.7733391,25.2424721 Z" id="path-2"></path>
        <filter x="-129.7%" y="-158.5%" width="359.3%" height="417.0%" filterUnits="objectBoundingBox" id="filter-3">
            <feOffset dx="0" dy="0" in="SourceAlpha" result="shadowOffsetOuter1"></feOffset>
            <feGaussianBlur stdDeviation="11.5" in="shadowOffsetOuter1" result="shadowBlurOuter1"></feGaussianBlur>
            <feColorMatrix values="0 0 0 0 0.408898628   0 0 0 0 0.579440933   0 0 0 0 1  0 0 0 1 0" type="matrix" in="shadowBlurOuter1" result="shadowMatrixOuter1"></feColorMatrix>
            <feOffset dx="0" dy="0" in="SourceAlpha" result="shadowOffsetOuter2"></feOffset>
            <feGaussianBlur stdDeviation="3.5" in="shadowOffsetOuter2" result="shadowBlurOuter2"></feGaussianBlur>
            <feColorMatrix values="0 0 0 0 0.243921494   0 0 0 0 0.470365024   0 0 0 0 1  0 0 0 0.584626311 0" type="matrix" in="shadowBlurOuter2" result="shadowMatrixOuter2"></feColorMatrix>
            <feOffset dx="0" dy="3" in="SourceAlpha" result="shadowOffsetOuter3"></feOffset>
            <feGaussianBlur stdDeviation="1.5" in="shadowOffsetOuter3" result="shadowBlurOuter3"></feGaussianBlur>
            <feColorMatrix values="0 0 0 0 0   0 0 0 0 0   0 0 0 0 0  0 0 0 0.708479021 0" type="matrix" in="shadowBlurOuter3" result="shadowMatrixOuter3"></feColorMatrix>
            <feMerge>
                <feMergeNode in="shadowMatrixOuter1"></feMergeNode>
                <feMergeNode in="shadowMatrixOuter2"></feMergeNode>
                <feMergeNode in="shadowMatrixOuter3"></feMergeNode>
            </feMerge>
        </filter>
    </defs>
    <g id="技防社区" stroke="none" stroke-width="1" fill="none" fill-rule="evenodd">
        <g id="画板" transform="translate(-482.000000, -142.000000)">
            <g id="编组-14" transform="translate(482.894454, 142.500000)">
                <rect id="矩形" x="0" y="0" width="72" height="72"></rect>
                <g id="形状备份-8" fill-rule="nonzero">
                    <use fill="black" fill-opacity="1" filter="url(#filter-3)" xlink:href="#path-2"></use>
                    <use fill="url(#linearGradient-1)" xlink:href="#path-2"></use>
                </g>
            </g>
        </g>
    </g>
</svg>