<?xml version="1.0" encoding="UTF-8"?>
<svg width="73px" height="73px" viewBox="0 0 73 73" version="1.1" xmlns="http://www.w3.org/2000/svg" xmlns:xlink="http://www.w3.org/1999/xlink">
    <title>编组 11</title>
    <defs>
        <linearGradient x1="50%" y1="50%" x2="50%" y2="88.6644653%" id="linearGradient-1">
            <stop stop-color="#FFFFFF" offset="0%"></stop>
            <stop stop-color="#CCE0FF" offset="100%"></stop>
        </linearGradient>
        <path d="M47.3403035,39.5380417 L47.3403035,43.7852134 C47.3403035,45.7476141 42.2615631,47.32875 36.0057767,47.32875 C29.7381551,47.32875 24.67125,45.7357788 24.67125,43.7852134 L24.67125,43.7852134 L24.67125,39.5377599 C24.67125,41.4998788 29.7384369,43.0812965 35.9942233,43.0812965 C42.2500096,43.0812965 47.3284682,41.4998788 47.3403035,39.5380417 L47.3403035,39.5380417 Z M47.32875,33.1664388 L47.32875,37.4138922 C47.32875,39.376293 42.2500096,40.9574289 35.9942233,40.9574289 C29.7266017,40.9574289 24.6596965,39.3647395 24.6596965,37.4138922 L24.6596965,37.4138922 L24.6596965,33.1664388 C24.6596965,35.1288395 29.7384369,36.7099754 35.9942233,36.7099754 C42.2502914,36.7099754 47.32875,35.1285577 47.32875,33.1664388 L47.32875,33.1664388 Z M35.9942233,24.67125 C42.2502914,24.67125 47.32875,26.2526677 47.32875,28.2147866 L47.32875,28.2147866 L47.32875,31.0428529 C47.32875,33.0049718 42.2500096,34.5863895 35.9942233,34.5863895 C29.7266017,34.5863895 24.6596965,32.9934184 24.6596965,31.0425711 L24.6596965,31.0425711 L24.6596965,28.2147866 C24.6596965,26.2523859 29.7384369,24.67125 35.9942233,24.67125 Z" id="path-2"></path>
        <filter x="-152.1%" y="-152.3%" width="404.2%" height="404.5%" filterUnits="objectBoundingBox" id="filter-3">
            <feOffset dx="0" dy="0" in="SourceAlpha" result="shadowOffsetOuter1"></feOffset>
            <feGaussianBlur stdDeviation="11.5" in="shadowOffsetOuter1" result="shadowBlurOuter1"></feGaussianBlur>
            <feColorMatrix values="0 0 0 0 0.408898628   0 0 0 0 0.579440933   0 0 0 0 1  0 0 0 1 0" type="matrix" in="shadowBlurOuter1" result="shadowMatrixOuter1"></feColorMatrix>
            <feOffset dx="0" dy="0" in="SourceAlpha" result="shadowOffsetOuter2"></feOffset>
            <feGaussianBlur stdDeviation="3.5" in="shadowOffsetOuter2" result="shadowBlurOuter2"></feGaussianBlur>
            <feColorMatrix values="0 0 0 0 0.243921494   0 0 0 0 0.470365024   0 0 0 0 1  0 0 0 0.584626311 0" type="matrix" in="shadowBlurOuter2" result="shadowMatrixOuter2"></feColorMatrix>
            <feOffset dx="0" dy="3" in="SourceAlpha" result="shadowOffsetOuter3"></feOffset>
            <feGaussianBlur stdDeviation="1.5" in="shadowOffsetOuter3" result="shadowBlurOuter3"></feGaussianBlur>
            <feColorMatrix values="0 0 0 0 0   0 0 0 0 0   0 0 0 0 0  0 0 0 0.708479021 0" type="matrix" in="shadowBlurOuter3" result="shadowMatrixOuter3"></feColorMatrix>
            <feMerge>
                <feMergeNode in="shadowMatrixOuter1"></feMergeNode>
                <feMergeNode in="shadowMatrixOuter2"></feMergeNode>
                <feMergeNode in="shadowMatrixOuter3"></feMergeNode>
            </feMerge>
        </filter>
    </defs>
    <g id="技防社区" stroke="none" stroke-width="1" fill="none" fill-rule="evenodd">
        <g id="画板" transform="translate(-215.000000, -142.000000)">
            <g id="编组-11" transform="translate(215.751597, 142.500000)">
                <rect id="矩形" x="0" y="0" width="72" height="72"></rect>
                <g id="形状结合" fill-rule="nonzero">
                    <use fill="black" fill-opacity="1" filter="url(#filter-3)" xlink:href="#path-2"></use>
                    <use fill="url(#linearGradient-1)" xlink:href="#path-2"></use>
                </g>
            </g>
        </g>
    </g>
</svg>