<?xml version="1.0" encoding="UTF-8"?>
<svg width="73px" height="73px" viewBox="0 0 73 73" version="1.1" xmlns="http://www.w3.org/2000/svg" xmlns:xlink="http://www.w3.org/1999/xlink">
    <title>编组 5</title>
    <g id="技防社区" stroke="none" stroke-width="1" fill="none" fill-rule="evenodd">
        <g id="画板" transform="translate(-304.000000, -44.000000)">
            <g id="编组-5" transform="translate(304.799216, 44.500000)">
                <rect id="矩形" x="0" y="0" width="72" height="72"></rect>
                <path d="M44.3858705,45.4775223 L27.6265346,45.5023326 C27.1923549,45.5023326 26.8450112,45.8620815 26.8450112,46.3086663 C26.8450112,46.742846 27.1923549,47.115 27.6265346,47.115 L44.3858705,47.0901897 C44.5843527,47.0901897 44.7580246,47.0157589 44.894481,46.8917076 C45.0557478,46.742846 45.1549888,46.5319587 45.1549888,46.283856 C45.167394,45.8372712 44.8076451,45.4775223 44.3858705,45.4775223 Z M44.1129576,24.885 L27.8870424,24.885 C26.1751339,24.885 24.7857589,26.3115904 24.7857589,28.0731194 L24.7857589,41.3093973 C24.7857589,43.0709263 26.1751339,44.4975167 27.8870424,44.4975167 L44.1129576,44.4975167 C45.8248661,44.4975167 47.2142411,43.0585212 47.2142411,41.3093973 L47.2142411,28.0731194 C47.2142411,26.3239955 45.8248661,24.885 44.1129576,24.885 Z M43.1453571,31.6085826 L37.0792467,38.2453292 C36.8807645,38.4562165 36.558231,38.4314062 36.3969643,38.1833036 L33.9159375,34.3501172 C33.7670759,34.1144196 33.4569475,34.0772042 33.2584654,34.2756864 L29.9090792,37.4638058 C29.6485714,37.7119085 29.0407199,37.7863393 28.7554018,37.4638058 C28.5072991,37.1784877 28.594135,36.645067 28.8794531,36.3473437 L33.4197321,32.0799777 C33.6182143,31.8939007 33.9283426,31.9311161 34.0772042,32.1544085 L36.5210156,35.9255692 C36.6822824,36.1612667 37.0048158,36.1984821 37.203298,35.9875949 L42.1529464,30.5913616 C42.4010491,30.3184487 42.946875,30.2936384 43.2445982,30.6037667 C43.5299163,30.9387054 43.3934598,31.3356696 43.1453571,31.6085826 Z" id="形状" stroke="#FFFFFF" stroke-width="1.5" opacity="0.699999988" fill-rule="nonzero"></path>
            </g>
        </g>
    </g>
</svg>