<?xml version="1.0" encoding="UTF-8"?>
<svg width="73px" height="73px" viewBox="0 0 73 73" version="1.1" xmlns="http://www.w3.org/2000/svg" xmlns:xlink="http://www.w3.org/1999/xlink">
    <title>编组 10</title>
    <defs>
        <linearGradient x1="50%" y1="50%" x2="50%" y2="88.6644653%" id="linearGradient-1">
            <stop stop-color="#FFFFFF" offset="0%"></stop>
            <stop stop-color="#CCE0FF" offset="100%"></stop>
        </linearGradient>
        <path d="M32.0567457,40.6226255 C32.9948945,41.5940027 33.9341508,42.564826 34.871192,43.5373108 C35.0910533,43.8136604 35.4083846,44.0135846 35.7594981,44.0695192 C36.1814989,44.1448369 36.6345128,44.0141385 36.9507365,43.7239437 C37.9398355,42.6850021 38.9444411,41.6610133 39.9363091,40.6248407 C40.951437,40.7660615 41.957704,40.9792771 42.9379421,41.2822094 C43.7592376,41.5402834 44.5689031,41.85983 45.2988205,42.3217048 C45.70753,42.5842093 46.0963024,42.8948949 46.3787438,43.2952972 C46.5930671,43.599891 46.7315188,43.9709415 46.7065975,44.3475302 C46.6844452,44.7817147 46.4590458,45.1782404 46.1716201,45.4939103 C45.6610102,46.0493785 44.9903501,46.4254134 44.3108292,46.736099 C42.9772623,47.3247956 41.5467793,47.6609564 40.1102044,47.8835867 C39.0784623,48.0358836 38.0373055,48.1383378 36.9944873,48.1582749 L37.0941725,48.18375 L35.4881327,48.18375 C35.2655024,48.1643668 35.0417644,48.1710124 34.8185803,48.1582749 C33.102333,48.08628 31.3855318,47.8763872 29.72245,47.4394336 C28.8446662,47.2035119 27.9768509,46.9088867 27.1710619,46.4835631 C26.703649,46.2337962 26.2528502,45.9397248 25.8840149,45.5559367 C25.6242795,45.2845713 25.407741,44.9578253 25.32467,44.5867747 C25.2510673,44.2446733 25.2972078,43.8876708 25.4553684,43.5755235 C25.6691379,43.1396775 26.0313275,42.7979787 26.4178847,42.5138758 C27.0630696,42.0475705 27.7974174,41.7213783 28.5445028,41.4533357 C29.6814682,41.0529334 30.8649534,40.7970747 32.0567457,40.6226255 Z M36.0502467,23.81625 C36.7120458,23.8262185 37.3738449,23.9081819 38.012938,24.0804159 C40.7096366,24.8007151 42.8199746,26.9005067 43.5537753,29.5935627 C43.8827365,30.8063997 43.9131959,32.0995386 43.6445996,33.3273283 C43.4358986,34.2783918 43.050818,35.1819225 42.5092956,35.9911391 C42.28445,36.3189927 42.0507435,36.6446311 41.7616564,36.9198731 C39.9396319,38.7546351 38.1098542,40.5821976 36.2828455,42.4114215 C36.2061452,42.4878454 36.101896,42.5301551 35.9936292,42.528832 C35.8853624,42.5274458 35.7822044,42.482541 35.7074402,42.404222 C33.9036914,40.5971504 32.0977274,38.792294 30.2967476,36.9824533 C30.1804482,36.8639386 30.0575031,36.7520696 29.9556026,36.6213713 C29.2265958,35.7369729 28.7008203,34.7031935 28.4154659,33.5931556 C28.1203673,32.4361558 28.0919622,31.2272356 28.3323948,30.0576528 C28.6276007,28.6312343 29.3156583,27.3157341 30.3188999,26.2596457 C31.0896665,25.4463791 32.0257543,24.8077169 33.0641203,24.386671 C33.9771856,24.0192699 34.95089,23.8258063 35.9350548,23.81625 L36.0502467,23.81625 Z M35.5346525,28.10493 C34.635596,28.2314619 33.8255674,28.7152428 33.2878582,29.4468039 C32.868946,30.0155962 32.6411265,30.7025449 32.6371352,31.4089415 C32.6304321,32.0929657 32.833363,32.7626374 33.2186324,33.3278821 C33.6479787,33.9585148 34.2786352,34.424771 35.0074284,34.6503728 C35.7209976,34.869929 36.4872438,34.8465559 37.1861045,34.583916 C38.0485617,34.2573885 38.7399029,33.5922603 39.099507,32.7430621 C39.4977348,31.79464 39.4414546,30.7163434 38.9466563,29.8145316 C38.5831343,29.1559918 38.0100919,28.6377197 37.3184643,28.3419593 C36.7561385,28.1034476 36.1397515,28.0215433 35.5346525,28.10493 Z" id="path-2"></path>
        <filter x="-161.1%" y="-141.6%" width="422.1%" height="383.2%" filterUnits="objectBoundingBox" id="filter-3">
            <feOffset dx="0" dy="0" in="SourceAlpha" result="shadowOffsetOuter1"></feOffset>
            <feGaussianBlur stdDeviation="11.5" in="shadowOffsetOuter1" result="shadowBlurOuter1"></feGaussianBlur>
            <feColorMatrix values="0 0 0 0 0.408898628   0 0 0 0 0.579440933   0 0 0 0 1  0 0 0 1 0" type="matrix" in="shadowBlurOuter1" result="shadowMatrixOuter1"></feColorMatrix>
            <feOffset dx="0" dy="0" in="SourceAlpha" result="shadowOffsetOuter2"></feOffset>
            <feGaussianBlur stdDeviation="3.5" in="shadowOffsetOuter2" result="shadowBlurOuter2"></feGaussianBlur>
            <feColorMatrix values="0 0 0 0 0.243921494   0 0 0 0 0.470365024   0 0 0 0 1  0 0 0 0.584626311 0" type="matrix" in="shadowBlurOuter2" result="shadowMatrixOuter2"></feColorMatrix>
            <feOffset dx="0" dy="3" in="SourceAlpha" result="shadowOffsetOuter3"></feOffset>
            <feGaussianBlur stdDeviation="1.5" in="shadowOffsetOuter3" result="shadowBlurOuter3"></feGaussianBlur>
            <feColorMatrix values="0 0 0 0 0   0 0 0 0 0   0 0 0 0 0  0 0 0 0.708479021 0" type="matrix" in="shadowBlurOuter3" result="shadowMatrixOuter3"></feColorMatrix>
            <feMerge>
                <feMergeNode in="shadowMatrixOuter1"></feMergeNode>
                <feMergeNode in="shadowMatrixOuter2"></feMergeNode>
                <feMergeNode in="shadowMatrixOuter3"></feMergeNode>
            </feMerge>
        </filter>
    </defs>
    <g id="技防社区" stroke="none" stroke-width="1" fill="none" fill-rule="evenodd">
        <g id="画板" transform="translate(-126.000000, -142.000000)">
            <g id="编组-10" transform="translate(126.703978, 142.500000)">
                <rect id="矩形" x="0" y="0" width="72" height="72"></rect>
                <g id="形状结合" fill-rule="nonzero">
                    <use fill="black" fill-opacity="1" filter="url(#filter-3)" xlink:href="#path-2"></use>
                    <use fill="url(#linearGradient-1)" xlink:href="#path-2"></use>
                </g>
            </g>
        </g>
    </g>
</svg>