<?xml version="1.0" encoding="UTF-8"?>
<svg width="73px" height="73px" viewBox="0 0 73 73" version="1.1" xmlns="http://www.w3.org/2000/svg" xmlns:xlink="http://www.w3.org/1999/xlink">
    <title>编组 13</title>
    <defs>
        <linearGradient x1="50%" y1="50%" x2="50%" y2="88.6644653%" id="linearGradient-1">
            <stop stop-color="#FFFFFF" offset="0%"></stop>
            <stop stop-color="#CCE0FF" offset="100%"></stop>
        </linearGradient>
        <path d="M31.9500261,26.9224723 C32.3534718,26.9224723 32.6987282,27.0621265 32.9857953,27.3414351 C33.2728624,27.6207436 33.4163959,27.9621207 33.4163959,28.3655664 L33.4163959,34.1844945 C33.4163959,34.5879401 33.2728624,34.9331965 32.9857953,35.2202636 C32.6987282,35.5073308 32.3534718,35.6508643 31.9500261,35.6508643 L26.1310981,35.6508643 C25.7276524,35.6508643 25.3862753,35.5073308 25.1069667,35.2202636 C24.8276582,34.9331965 24.6880039,34.5879401 24.6880039,34.1844945 L24.6880039,28.3655664 C24.6880039,27.9621207 24.8276582,27.6207436 25.1069667,27.3414351 C25.3862753,27.0621265 25.7276524,26.9224723 26.1310981,26.9224723 L31.9500261,26.9224723 Z M31.9500261,38.5603283 C32.3534718,38.5603283 32.6987282,38.6999826 32.9857953,38.9792911 C33.2728624,39.2585997 33.4163959,39.5999768 33.4163959,40.0034225 L33.4163959,45.8456262 C33.4163959,46.2490719 33.2728624,46.590449 32.9857953,46.8697576 C32.6987282,47.1490661 32.3534718,47.2887204 31.9500261,47.2887204 L26.1310981,47.2887204 C25.7276524,47.2887204 25.3862753,47.1490661 25.1069667,46.8697576 C24.8276582,46.590449 24.6880039,46.2490719 24.6880039,45.8456262 L24.6880039,40.0034225 C24.6880039,39.5999768 24.8276582,39.2585997 25.1069667,38.9792911 C25.3862753,38.6999826 25.7276524,38.5603283 26.1310981,38.5603283 L31.9500261,38.5603283 Z M43.6111579,38.5603283 C44.0146036,38.5603283 44.3559807,38.6999826 44.6352892,38.9792911 C44.9145978,39.2585997 45.054252,39.5999768 45.054252,40.0034225 L45.054252,45.8456262 C45.054252,46.2490719 44.9145978,46.590449 44.6352892,46.8697576 C44.3559807,47.1490661 44.0146036,47.2887204 43.6111579,47.2887204 L37.7922298,47.2887204 C37.3887842,47.2887204 37.0435278,47.1490661 36.7564607,46.8697576 C36.4693935,46.590449 36.32586,46.2490719 36.32586,45.8456262 L36.32586,40.0034225 C36.32586,39.5999768 36.4693935,39.2585997 36.7564607,38.9792911 C37.0435278,38.6999826 37.3887842,38.5603283 37.7922298,38.5603283 L43.6111579,38.5603283 Z M46.8464819,29.4828006 C47.1568247,29.7931434 47.3119961,30.1577962 47.3119961,30.5767591 C47.3119961,30.9957219 47.1568247,31.3526161 46.8464819,31.6474418 L42.5171994,35.9767243 C42.2068566,36.2870671 41.8460831,36.4422385 41.4348788,36.4422385 C41.0236746,36.4422385 40.662901,36.2870671 40.3525582,35.9767243 L36.0232757,31.6474418 C35.7284501,31.3526161 35.5810372,30.9957219 35.5810372,30.5767591 C35.5810372,30.1577962 35.7284501,29.7931434 36.0232757,29.4828006 L40.3525582,25.1535181 C40.662901,24.8586924 41.0236746,24.7112796 41.4348788,24.7112796 C41.8460831,24.7112796 42.2068566,24.8586924 42.5171994,25.1535181 L46.8464819,29.4828006 Z" id="path-2"></path>
        <filter x="-152.5%" y="-152.8%" width="405.0%" height="405.6%" filterUnits="objectBoundingBox" id="filter-3">
            <feOffset dx="0" dy="0" in="SourceAlpha" result="shadowOffsetOuter1"></feOffset>
            <feGaussianBlur stdDeviation="11.5" in="shadowOffsetOuter1" result="shadowBlurOuter1"></feGaussianBlur>
            <feColorMatrix values="0 0 0 0 0.408898628   0 0 0 0 0.579440933   0 0 0 0 1  0 0 0 1 0" type="matrix" in="shadowBlurOuter1" result="shadowMatrixOuter1"></feColorMatrix>
            <feOffset dx="0" dy="0" in="SourceAlpha" result="shadowOffsetOuter2"></feOffset>
            <feGaussianBlur stdDeviation="3.5" in="shadowOffsetOuter2" result="shadowBlurOuter2"></feGaussianBlur>
            <feColorMatrix values="0 0 0 0 0.243921494   0 0 0 0 0.470365024   0 0 0 0 1  0 0 0 0.584626311 0" type="matrix" in="shadowBlurOuter2" result="shadowMatrixOuter2"></feColorMatrix>
            <feOffset dx="0" dy="3" in="SourceAlpha" result="shadowOffsetOuter3"></feOffset>
            <feGaussianBlur stdDeviation="1.5" in="shadowOffsetOuter3" result="shadowBlurOuter3"></feGaussianBlur>
            <feColorMatrix values="0 0 0 0 0   0 0 0 0 0   0 0 0 0 0  0 0 0 0.708479021 0" type="matrix" in="shadowBlurOuter3" result="shadowMatrixOuter3"></feColorMatrix>
            <feMerge>
                <feMergeNode in="shadowMatrixOuter1"></feMergeNode>
                <feMergeNode in="shadowMatrixOuter2"></feMergeNode>
                <feMergeNode in="shadowMatrixOuter3"></feMergeNode>
            </feMerge>
        </filter>
    </defs>
    <g id="技防社区" stroke="none" stroke-width="1" fill="none" fill-rule="evenodd">
        <g id="画板" transform="translate(-393.000000, -142.000000)">
            <g id="编组-13" transform="translate(393.846835, 142.500000)">
                <rect id="矩形" x="0" y="0" width="72" height="72"></rect>
                <g id="形状" fill-rule="nonzero">
                    <use fill="black" fill-opacity="1" filter="url(#filter-3)" xlink:href="#path-2"></use>
                    <use fill="url(#linearGradient-1)" xlink:href="#path-2"></use>
                </g>
            </g>
        </g>
    </g>
</svg>