<?xml version="1.0" encoding="UTF-8"?>
<svg width="22px" height="22px" viewBox="0 0 22 22" version="1.1" xmlns="http://www.w3.org/2000/svg" xmlns:xlink="http://www.w3.org/1999/xlink">
    <defs>
        <linearGradient x1="50%" y1="0%" x2="50%" y2="100%" id="linearGradient-1">
            <stop stop-color="#FFFFFF" offset="0%"></stop>
            <stop stop-color="#D2FF77" offset="100%"></stop>
        </linearGradient>
        <linearGradient x1="49.8075244%" y1="0.327086142%" x2="5.95097295%" y2="74.8553297%" id="linearGradient-2">
            <stop stop-color="#D2FF77" offset="0%"></stop>
            <stop stop-color="#D2FF77" stop-opacity="0" offset="100%"></stop>
        </linearGradient>
    </defs>
    <g id="技防社区" stroke="none" stroke-width="1" fill="none" fill-rule="evenodd">
        <g id="智慧技防-学校-监控" transform="translate(-3584.000000, -201.000000)">
            <g id="编组-30" transform="translate(3585.054247, 201.943929)">
                <circle id="椭圆形备份-9" stroke-opacity="0.260598776" stroke="#D2FF77" stroke-width="1.65243671" cx="10" cy="10" r="10"></circle>
                <path d="M13.7461045,5.81849647 C13.9283099,5.81849647 14.0760165,5.96620311 14.0760165,6.14840849 C14.0760165,6.33061387 13.9283099,6.47832052 13.7461045,6.47832052 L12.7563684,6.47832052 L12.7563684,8.23785131 C12.7563684,9.31996275 12.1053421,10.2498748 11.1732306,10.6572061 C12.1053421,11.0647575 12.7563684,11.9944495 12.7563684,13.076561 L12.7563684,14.8360918 L13.7461045,14.8360918 C13.9283099,14.8360918 14.0760165,14.9837984 14.0760165,15.1660038 C14.0760165,15.3482092 13.9283099,15.4959158 13.7461045,15.4959158 L6.48804,15.4959158 C6.30583462,15.4959158 6.15812798,15.3482092 6.15812798,15.1660038 C6.15812798,14.9837984 6.30583462,14.8360918 6.48804,14.8360918 L7.47777607,14.8360918 L7.47777607,13.076561 C7.47777607,11.9944495 8.12880247,11.0645375 9.0609139,10.6572061 C8.12880247,10.2496548 7.47777607,9.31996275 7.47777607,8.23785131 L7.47777607,6.47832052 L6.48804,6.47832052 C6.30583462,6.47832052 6.15812798,6.33061387 6.15812798,6.14840849 C6.15812798,5.96620311 6.30583462,5.81849647 6.48804,5.81849647 L13.7461045,5.81849647 Z M11.8766031,7.90793928 C11.7891049,7.90793928 11.7051905,7.94269777 11.64332,8.00456828 C11.5814495,8.06643879 11.546691,8.1503532 11.546691,8.23785131 C11.5470721,8.72973558 11.2942857,9.18719425 10.8776294,9.44862843 C10.7234837,9.54580464 10.6773008,9.74954133 10.774477,9.90368709 C10.8716532,10.0578328 11.0753899,10.1040158 11.2295356,10.0068396 C11.8326148,9.62678093 12.2065151,8.96431758 12.2065151,8.23785131 C12.2065151,8.05564593 12.0588084,7.90793928 11.8766031,7.90793928 Z" id="形状结合备份-2" fill="url(#linearGradient-1)" fill-rule="nonzero"></path>
                <path d="M1.17121478,14.7002221 C2.85358962,17.85377 6.17615537,20 10,20 C15.5228475,20 20,15.5228475 20,10 C20,4.4771525 15.5228475,0 10,0" id="路径备份-17" stroke="url(#linearGradient-2)" stroke-width="1.65243671" stroke-linecap="round"></path>
            </g>
        </g>
    </g>
</svg>